<svg width="961" height="765" viewBox="0 0 961 765" fill="none" xmlns="http://www.w3.org/2000/svg">
<rect width="961" height="765" fill="white"/>
<path d="M128.761 265H131.761L133.105 260.752H139.657L141.025 265H144.337L138.673 247.84H134.497L128.761 265ZM136.393 250.456L138.913 258.424H133.849L136.393 250.456ZM151.186 265.24C153.034 265.24 154.642 264.136 155.314 262.888V265H158.218V246.64H155.314V254.368C154.618 253.12 153.346 252.184 151.306 252.184C148.042 252.184 145.666 254.728 145.666 258.736V258.928C145.666 263.008 148.042 265.24 151.186 265.24ZM151.906 262.936C150.034 262.936 148.642 261.616 148.642 258.856V258.664C148.642 255.952 149.89 254.464 152.026 254.464C154.138 254.464 155.41 255.832 155.41 258.592V258.784C155.41 261.592 153.922 262.936 151.906 262.936ZM166.373 265.24C168.221 265.24 169.829 264.136 170.501 262.888V265H173.405V246.64H170.501V254.368C169.805 253.12 168.533 252.184 166.493 252.184C163.229 252.184 160.853 254.728 160.853 258.736V258.928C160.853 263.008 163.229 265.24 166.373 265.24ZM167.093 262.936C165.221 262.936 163.829 261.616 163.829 258.856V258.664C163.829 255.952 165.077 254.464 167.213 254.464C169.325 254.464 170.597 255.832 170.597 258.592V258.784C170.597 261.592 169.109 262.936 167.093 262.936ZM176.929 265H179.833V252.448H176.929V265ZM178.345 250.384C179.305 250.384 180.073 249.664 180.073 248.728C180.073 247.768 179.305 247.048 178.345 247.048C177.385 247.048 176.617 247.768 176.617 248.728C176.617 249.664 177.385 250.384 178.345 250.384ZM183.372 265H186.276V257.608C186.276 255.616 187.596 254.608 189.228 254.608C190.956 254.608 191.724 255.472 191.724 257.368V265H194.628V257.104C194.628 253.648 192.852 252.184 190.332 252.184C188.268 252.184 186.876 253.216 186.276 254.44V252.448H183.372V265ZM203.326 269.608C207.214 269.608 209.686 267.76 209.71 264.064V252.448H206.806V254.368C206.086 253.12 204.838 252.184 202.774 252.184C199.534 252.184 197.134 254.824 197.134 258.352V258.52C197.134 262.144 199.558 264.496 202.702 264.496C204.55 264.496 206.11 263.368 206.806 262.168V264.016C206.806 266.272 205.558 267.4 203.302 267.4C201.406 267.4 200.446 266.68 200.206 265.432H197.278C197.614 267.832 199.39 269.608 203.326 269.608ZM203.422 262.264C201.55 262.264 200.11 260.824 200.11 258.496V258.304C200.11 256.024 201.358 254.464 203.518 254.464C205.606 254.464 206.902 255.88 206.902 258.256V258.424C206.902 260.824 205.438 262.264 203.422 262.264ZM223.08 265.24C225.12 265.24 226.44 264.256 227.064 263.032V265H229.968V252.448H227.064V259.912C227.064 261.904 225.696 262.912 224.136 262.912C222.456 262.912 221.664 262.048 221.664 260.152V252.448H218.76V260.488C218.76 263.824 220.608 265.24 223.08 265.24ZM237.707 265.24C240.923 265.24 242.723 263.776 242.723 261.232C242.723 258.568 240.971 257.848 238.019 257.392C236.027 257.056 235.427 256.696 235.427 255.784C235.427 254.896 236.171 254.296 237.419 254.296C238.763 254.296 239.411 254.824 239.651 255.976H242.339C242.027 253.144 239.987 252.184 237.419 252.184C235.067 252.184 232.715 253.432 232.715 255.952C232.715 258.304 233.939 259.24 237.251 259.768C239.099 260.08 239.939 260.464 239.939 261.496C239.939 262.552 239.243 263.104 237.683 263.104C235.979 263.104 235.331 262.36 235.187 261.088H232.451C232.571 263.752 234.467 265.24 237.707 265.24ZM250.791 265.24C254.007 265.24 256.143 263.8 256.551 261.16H253.743C253.527 262.384 252.615 263.08 250.863 263.08C248.703 263.08 247.503 261.736 247.407 259.36H256.599V258.52C256.599 254.032 253.791 252.184 250.671 252.184C247.095 252.184 244.431 254.776 244.431 258.664V258.856C244.431 262.816 247.095 265.24 250.791 265.24ZM247.455 257.416C247.743 255.472 248.919 254.296 250.671 254.296C252.471 254.296 253.575 255.256 253.719 257.416H247.455ZM259.193 265H262.097V258.472C262.097 255.808 263.633 254.992 266.177 254.968V252.256C264.065 252.28 262.889 253.216 262.097 254.8V252.448H259.193V265ZM274.45 265H277.354V257.488C277.354 255.568 278.674 254.608 280.114 254.608C281.53 254.608 282.346 255.4 282.346 257.248V265H285.25V257.488C285.25 255.568 286.57 254.608 288.01 254.608C289.45 254.608 290.242 255.4 290.242 257.248V265H293.146V257.056C293.146 253.6 291.274 252.184 288.97 252.184C287.41 252.184 285.682 252.88 284.722 254.44C284.098 252.88 282.802 252.184 281.17 252.184C279.322 252.184 277.954 253.192 277.354 254.368V252.448H274.45V265ZM302.098 262.984C299.89 262.984 298.618 261.376 298.618 258.808V258.616C298.618 256.024 299.938 254.464 302.098 254.464C304.258 254.464 305.554 256.048 305.554 258.64V258.808C305.554 261.376 304.258 262.984 302.098 262.984ZM302.074 265.24C305.77 265.24 308.53 262.696 308.53 258.784V258.592C308.53 254.752 305.77 252.184 302.098 252.184C298.402 252.184 295.642 254.776 295.642 258.664V258.856C295.642 262.672 298.378 265.24 302.074 265.24ZM315.426 265.216C316.314 265.216 316.938 265.072 317.394 264.904V262.6C316.986 262.768 316.554 262.84 315.978 262.84C315.066 262.84 314.538 262.336 314.538 261.232V254.632H317.298V252.448H314.538V249.688H311.634V252.448H309.954V254.632H311.634V261.496C311.634 263.872 312.93 265.216 315.426 265.216ZM320.085 265H322.989V252.448H320.085V265ZM321.501 250.384C322.461 250.384 323.229 249.664 323.229 248.728C323.229 247.768 322.461 247.048 321.501 247.048C320.541 247.048 319.773 247.768 319.773 248.728C319.773 249.664 320.541 250.384 321.501 250.384ZM329.817 265H333.201L337.737 252.448H334.881L331.641 262.024L328.353 252.448H325.233L329.817 265ZM342.942 265.24C344.862 265.24 345.966 264.544 346.782 263.464V265H349.638V256.768C349.638 253.336 347.43 252.184 344.622 252.184C341.814 252.184 339.486 253.408 339.246 256.336H342.054C342.198 255.088 342.942 254.368 344.454 254.368C346.158 254.368 346.734 255.208 346.734 256.888V257.536H345.174C341.574 257.536 338.742 258.592 338.742 261.52C338.742 264.136 340.638 265.24 342.942 265.24ZM343.638 263.152C342.198 263.152 341.622 262.456 341.622 261.4C341.622 259.864 343.038 259.36 345.246 259.36H346.734V260.608C346.734 262.216 345.414 263.152 343.638 263.152ZM357.238 265.216C358.126 265.216 358.75 265.072 359.206 264.904V262.6C358.798 262.768 358.366 262.84 357.79 262.84C356.878 262.84 356.35 262.336 356.35 261.232V254.632H359.11V252.448H356.35V249.688H353.446V252.448H351.766V254.632H353.446V261.496C353.446 263.872 354.742 265.216 357.238 265.216ZM361.897 265H364.801V252.448H361.897V265ZM363.313 250.384C364.273 250.384 365.041 249.664 365.041 248.728C365.041 247.768 364.273 247.048 363.313 247.048C362.353 247.048 361.585 247.768 361.585 248.728C361.585 249.664 362.353 250.384 363.313 250.384ZM373.957 262.984C371.749 262.984 370.477 261.376 370.477 258.808V258.616C370.477 256.024 371.797 254.464 373.957 254.464C376.117 254.464 377.413 256.048 377.413 258.64V258.808C377.413 261.376 376.117 262.984 373.957 262.984ZM373.933 265.24C377.629 265.24 380.389 262.696 380.389 258.784V258.592C380.389 254.752 377.629 252.184 373.957 252.184C370.261 252.184 367.501 254.776 367.501 258.664V258.856C367.501 262.672 370.237 265.24 373.933 265.24ZM383.013 265H385.917V257.608C385.917 255.616 387.237 254.608 388.869 254.608C390.597 254.608 391.365 255.472 391.365 257.368V265H394.269V257.104C394.269 253.648 392.493 252.184 389.973 252.184C387.909 252.184 386.517 253.216 385.917 254.44V252.448H383.013V265Z" fill="#4F4F4F"/>
<path d="M369.894 439.24C373.974 439.24 376.902 437.152 377.406 433.024H374.286C373.95 435.448 372.27 436.648 369.894 436.648C366.726 436.648 364.878 434.368 364.878 430.504V430.312C364.878 426.472 366.846 424.12 369.87 424.12C372.342 424.12 373.614 425.296 373.974 427.576H377.214C376.83 423.544 373.782 421.576 369.846 421.576C365.07 421.576 361.518 425.176 361.518 430.336V430.528C361.518 435.808 364.518 439.24 369.894 439.24ZM380.003 439H382.907V420.64H380.003V439ZM389.735 439.24C391.655 439.24 392.759 438.544 393.575 437.464V439H396.431V430.768C396.431 427.336 394.223 426.184 391.415 426.184C388.607 426.184 386.279 427.408 386.039 430.336H388.847C388.991 429.088 389.735 428.368 391.247 428.368C392.951 428.368 393.527 429.208 393.527 430.888V431.536H391.967C388.367 431.536 385.535 432.592 385.535 435.52C385.535 438.136 387.431 439.24 389.735 439.24ZM390.431 437.152C388.991 437.152 388.415 436.456 388.415 435.4C388.415 433.864 389.831 433.36 392.039 433.36H393.527V434.608C393.527 436.216 392.207 437.152 390.431 437.152ZM399.759 439H402.663V432.472C402.663 429.808 404.199 428.992 406.743 428.968V426.256C404.631 426.28 403.455 427.216 402.663 428.8V426.448H399.759V439ZM409.37 439H412.274V426.448H409.37V439ZM410.786 424.384C411.746 424.384 412.514 423.664 412.514 422.728C412.514 421.768 411.746 421.048 410.786 421.048C409.826 421.048 409.058 421.768 409.058 422.728C409.058 423.664 409.826 424.384 410.786 424.384ZM416.318 439H419.222V428.632H422.078V426.448H419.222V424.648C419.222 423.568 419.702 422.8 420.878 422.8C421.406 422.8 421.862 422.896 422.198 423.016V420.76C421.67 420.592 421.238 420.52 420.542 420.52C417.854 420.52 416.318 422.008 416.318 424.768V426.448H414.614V428.632H416.318V439ZM426.136 443.296H428.992L435.832 426.448H433L429.928 434.536L426.592 426.448H423.448L428.416 437.728L426.136 443.296ZM438.081 439H440.985V426.448H438.081V439ZM439.497 424.384C440.457 424.384 441.225 423.664 441.225 422.728C441.225 421.768 440.457 421.048 439.497 421.048C438.537 421.048 437.769 421.768 437.769 422.728C437.769 423.664 438.537 424.384 439.497 424.384ZM444.525 439H447.429V431.608C447.429 429.616 448.749 428.608 450.381 428.608C452.109 428.608 452.877 429.472 452.877 431.368V439H455.781V431.104C455.781 427.648 454.005 426.184 451.485 426.184C449.421 426.184 448.029 427.216 447.429 428.44V426.448H444.525V439ZM464.478 443.608C468.366 443.608 470.838 441.76 470.862 438.064V426.448H467.958V428.368C467.238 427.12 465.99 426.184 463.926 426.184C460.686 426.184 458.286 428.824 458.286 432.352V432.52C458.286 436.144 460.71 438.496 463.854 438.496C465.702 438.496 467.262 437.368 467.958 436.168V438.016C467.958 440.272 466.71 441.4 464.454 441.4C462.558 441.4 461.598 440.68 461.358 439.432H458.43C458.766 441.832 460.542 443.608 464.478 443.608ZM464.574 436.264C462.702 436.264 461.262 434.824 461.262 432.496V432.304C461.262 430.024 462.51 428.464 464.67 428.464C466.758 428.464 468.054 429.88 468.054 432.256V432.424C468.054 434.824 466.59 436.264 464.574 436.264ZM323.136 479H326.328V472.064H328.368L332.856 479H336.312L331.488 471.584C333.624 471.032 335.304 469.664 335.304 466.976V466.88C335.304 463.376 332.664 461.84 328.896 461.84H323.136V479ZM326.328 469.784V464.312H328.896C330.936 464.312 332.16 464.984 332.16 466.952V467.048C332.16 468.872 331.032 469.784 328.896 469.784H326.328ZM341.793 479.24C343.713 479.24 344.817 478.544 345.633 477.464V479H348.489V470.768C348.489 467.336 346.281 466.184 343.473 466.184C340.665 466.184 338.337 467.408 338.097 470.336H340.905C341.049 469.088 341.793 468.368 343.305 468.368C345.009 468.368 345.585 469.208 345.585 470.888V471.536H344.025C340.425 471.536 337.593 472.592 337.593 475.52C337.593 478.136 339.489 479.24 341.793 479.24ZM342.489 477.152C341.049 477.152 340.473 476.456 340.473 475.4C340.473 473.864 341.889 473.36 344.097 473.36H345.585V474.608C345.585 476.216 344.265 477.152 342.489 477.152ZM351.818 479H354.722V471.608C354.722 469.616 356.042 468.608 357.674 468.608C359.402 468.608 360.17 469.472 360.17 471.368V479H363.074V471.104C363.074 467.648 361.298 466.184 358.778 466.184C356.714 466.184 355.322 467.216 354.722 468.44V466.448H351.818V479ZM371.771 483.608C375.659 483.608 378.131 481.76 378.155 478.064V466.448H375.251V468.368C374.531 467.12 373.283 466.184 371.219 466.184C367.979 466.184 365.579 468.824 365.579 472.352V472.52C365.579 476.144 368.003 478.496 371.147 478.496C372.995 478.496 374.555 477.368 375.251 476.168V478.016C375.251 480.272 374.003 481.4 371.747 481.4C369.851 481.4 368.891 480.68 368.651 479.432H365.723C366.059 481.832 367.835 483.608 371.771 483.608ZM371.867 476.264C369.995 476.264 368.555 474.824 368.555 472.496V472.304C368.555 470.024 369.803 468.464 371.963 468.464C374.051 468.464 375.347 469.88 375.347 472.256V472.424C375.347 474.824 373.883 476.264 371.867 476.264ZM387.127 479.24C390.343 479.24 392.479 477.8 392.887 475.16H390.079C389.863 476.384 388.951 477.08 387.199 477.08C385.039 477.08 383.839 475.736 383.743 473.36H392.935V472.52C392.935 468.032 390.127 466.184 387.007 466.184C383.431 466.184 380.767 468.776 380.767 472.664V472.856C380.767 476.816 383.431 479.24 387.127 479.24ZM383.791 471.416C384.079 469.472 385.255 468.296 387.007 468.296C388.807 468.296 389.911 469.256 390.055 471.416H383.791ZM395.769 479H398.649V466.04L403.857 479H404.889L410.001 466.04V479H413.193V461.84H408.969L404.553 473.552L400.041 461.84H395.769V479ZM422.283 479.24C425.499 479.24 427.635 477.8 428.043 475.16H425.235C425.019 476.384 424.107 477.08 422.355 477.08C420.195 477.08 418.995 475.736 418.899 473.36H428.091V472.52C428.091 468.032 425.283 466.184 422.163 466.184C418.587 466.184 415.923 468.776 415.923 472.664V472.856C415.923 476.816 418.587 479.24 422.283 479.24ZM418.947 471.416C419.235 469.472 420.411 468.296 422.163 468.296C423.963 468.296 425.067 469.256 425.211 471.416H418.947ZM431.132 467.864L434.108 462.584L431.492 461.552L429.428 467.096L431.132 467.864ZM438.872 479.24C442.088 479.24 443.888 477.776 443.888 475.232C443.888 472.568 442.136 471.848 439.184 471.392C437.192 471.056 436.592 470.696 436.592 469.784C436.592 468.896 437.336 468.296 438.584 468.296C439.928 468.296 440.576 468.824 440.816 469.976H443.504C443.192 467.144 441.152 466.184 438.584 466.184C436.232 466.184 433.88 467.432 433.88 469.952C433.88 472.304 435.104 473.24 438.416 473.768C440.264 474.08 441.104 474.464 441.104 475.496C441.104 476.552 440.408 477.104 438.848 477.104C437.144 477.104 436.496 476.36 436.352 475.088H433.616C433.736 477.752 435.632 479.24 438.872 479.24ZM455.442 479H458.826L463.362 466.448H460.506L457.266 476.024L453.978 466.448H450.858L455.442 479ZM468.567 479.24C470.487 479.24 471.591 478.544 472.407 477.464V479H475.263V470.768C475.263 467.336 473.055 466.184 470.247 466.184C467.439 466.184 465.111 467.408 464.871 470.336H467.679C467.823 469.088 468.567 468.368 470.079 468.368C471.783 468.368 472.359 469.208 472.359 470.888V471.536H470.799C467.199 471.536 464.367 472.592 464.367 475.52C464.367 478.136 466.263 479.24 468.567 479.24ZM469.263 477.152C467.823 477.152 467.247 476.456 467.247 475.4C467.247 473.864 468.663 473.36 470.871 473.36H472.359V474.608C472.359 476.216 471.039 477.152 469.263 477.152ZM478.663 479H481.567V460.64H478.663V479ZM489.307 479.24C491.347 479.24 492.667 478.256 493.291 477.032V479H496.195V466.448H493.291V473.912C493.291 475.904 491.923 476.912 490.363 476.912C488.683 476.912 487.891 476.048 487.891 474.152V466.448H484.987V474.488C484.987 477.824 486.835 479.24 489.307 479.24ZM505.158 479.24C508.374 479.24 510.51 477.8 510.918 475.16H508.11C507.894 476.384 506.982 477.08 505.23 477.08C503.07 477.08 501.87 475.736 501.774 473.36H510.966V472.52C510.966 468.032 508.158 466.184 505.038 466.184C501.462 466.184 498.798 468.776 498.798 472.664V472.856C498.798 476.816 501.462 479.24 505.158 479.24ZM501.822 471.416C502.11 469.472 503.286 468.296 505.038 468.296C506.838 468.296 507.942 469.256 508.086 471.416H501.822Z" fill="#4F4F4F"/>
<path d="M576.429 575H579.621V568.064H581.661L586.149 575H589.605L584.781 567.584C586.917 567.032 588.597 565.664 588.597 562.976V562.88C588.597 559.376 585.957 557.84 582.189 557.84H576.429V575ZM579.621 565.784V560.312H582.189C584.229 560.312 585.453 560.984 585.453 562.952V563.048C585.453 564.872 584.325 565.784 582.189 565.784H579.621ZM596.967 575.24C600.183 575.24 602.319 573.8 602.727 571.16H599.919C599.703 572.384 598.791 573.08 597.039 573.08C594.879 573.08 593.679 571.736 593.583 569.36H602.775V568.52C602.775 564.032 599.967 562.184 596.847 562.184C593.271 562.184 590.607 564.776 590.607 568.664V568.856C590.607 572.816 593.271 575.24 596.967 575.24ZM593.631 567.416C593.919 565.472 595.095 564.296 596.847 564.296C598.647 564.296 599.751 565.256 599.895 567.416H593.631ZM610.073 575.24C611.921 575.24 613.529 574.136 614.201 572.888V575H617.105V556.64H614.201V564.368C613.505 563.12 612.233 562.184 610.193 562.184C606.929 562.184 604.553 564.728 604.553 568.736V568.928C604.553 573.008 606.929 575.24 610.073 575.24ZM610.793 572.936C608.921 572.936 607.529 571.616 607.529 568.856V568.664C607.529 565.952 608.777 564.464 610.913 564.464C613.025 564.464 614.297 565.832 614.297 568.592V568.784C614.297 571.592 612.809 572.936 610.793 572.936ZM624.756 575.24C626.796 575.24 628.116 574.256 628.74 573.032V575H631.644V562.448H628.74V569.912C628.74 571.904 627.372 572.912 625.812 572.912C624.132 572.912 623.34 572.048 623.34 570.152V562.448H620.436V570.488C620.436 573.824 622.284 575.24 624.756 575.24ZM640.583 575.24C643.991 575.24 646.175 573.2 646.391 570.32H643.727C643.559 572.096 642.239 573.008 640.703 573.008C638.567 573.008 637.223 571.568 637.223 568.832V568.64C637.223 566.048 638.639 564.512 640.631 564.512C642.167 564.512 643.271 565.208 643.511 566.888H646.319C645.983 563.432 643.367 562.184 640.583 562.184C637.079 562.184 634.247 564.704 634.247 568.688V568.88C634.247 572.888 636.983 575.24 640.583 575.24ZM648.964 575H651.868V562.448H648.964V575ZM650.38 560.384C651.34 560.384 652.108 559.664 652.108 558.728C652.108 557.768 651.34 557.048 650.38 557.048C649.42 557.048 648.652 557.768 648.652 558.728C648.652 559.664 649.42 560.384 650.38 560.384ZM655.408 575H658.312V567.608C658.312 565.616 659.632 564.608 661.264 564.608C662.992 564.608 663.76 565.472 663.76 567.368V575H666.664V567.104C666.664 563.648 664.888 562.184 662.368 562.184C660.304 562.184 658.912 563.216 658.312 564.44V562.448H655.408V575ZM675.361 579.608C679.249 579.608 681.721 577.76 681.745 574.064V562.448H678.841V564.368C678.121 563.12 676.873 562.184 674.809 562.184C671.569 562.184 669.169 564.824 669.169 568.352V568.52C669.169 572.144 671.593 574.496 674.737 574.496C676.585 574.496 678.145 573.368 678.841 572.168V574.016C678.841 576.272 677.593 577.4 675.337 577.4C673.441 577.4 672.481 576.68 672.241 575.432H669.313C669.649 577.832 671.425 579.608 675.361 579.608ZM675.457 572.264C673.585 572.264 672.145 570.824 672.145 568.496V568.304C672.145 566.024 673.393 564.464 675.553 564.464C677.641 564.464 678.937 565.88 678.937 568.256V568.424C678.937 570.824 677.473 572.264 675.457 572.264ZM695.62 575.24C697.468 575.24 699.076 574.136 699.748 572.888V575H702.652V556.64H699.748V564.368C699.052 563.12 697.78 562.184 695.74 562.184C692.476 562.184 690.1 564.728 690.1 568.736V568.928C690.1 573.008 692.476 575.24 695.62 575.24ZM696.34 572.936C694.468 572.936 693.076 571.616 693.076 568.856V568.664C693.076 565.952 694.324 564.464 696.46 564.464C698.572 564.464 699.844 565.832 699.844 568.592V568.784C699.844 571.592 698.356 572.936 696.34 572.936ZM706.175 575H709.079V562.448H706.175V575ZM707.591 560.384C708.551 560.384 709.319 559.664 709.319 558.728C709.319 557.768 708.551 557.048 707.591 557.048C706.631 557.048 705.863 557.768 705.863 558.728C705.863 559.664 706.631 560.384 707.591 560.384ZM716.915 575.24C720.131 575.24 721.931 573.776 721.931 571.232C721.931 568.568 720.179 567.848 717.227 567.392C715.235 567.056 714.635 566.696 714.635 565.784C714.635 564.896 715.379 564.296 716.627 564.296C717.971 564.296 718.619 564.824 718.859 565.976H721.547C721.235 563.144 719.195 562.184 716.627 562.184C714.275 562.184 711.923 563.432 711.923 565.952C711.923 568.304 713.147 569.24 716.459 569.768C718.307 570.08 719.147 570.464 719.147 571.496C719.147 572.552 718.451 573.104 716.891 573.104C715.187 573.104 714.539 572.36 714.395 571.088H711.659C711.779 573.752 713.675 575.24 716.915 575.24ZM728.75 575.216C729.638 575.216 730.262 575.072 730.718 574.904V572.6C730.31 572.768 729.878 572.84 729.302 572.84C728.39 572.84 727.862 572.336 727.862 571.232V564.632H730.622V562.448H727.862V559.688H724.958V562.448H723.278V564.632H724.958V571.496C724.958 573.872 726.254 575.216 728.75 575.216ZM733.337 575H736.241V568.472C736.241 565.808 737.777 564.992 740.321 564.968V562.256C738.209 562.28 737.033 563.216 736.241 564.8V562.448H733.337V575ZM745.93 575.24C747.85 575.24 748.954 574.544 749.77 573.464V575H752.626V566.768C752.626 563.336 750.418 562.184 747.61 562.184C744.802 562.184 742.474 563.408 742.234 566.336H745.042C745.186 565.088 745.93 564.368 747.442 564.368C749.146 564.368 749.722 565.208 749.722 566.888V567.536H748.162C744.562 567.536 741.73 568.592 741.73 571.52C741.73 574.136 743.626 575.24 745.93 575.24ZM746.626 573.152C745.186 573.152 744.61 572.456 744.61 571.4C744.61 569.864 746.026 569.36 748.234 569.36H749.722V570.608C749.722 572.216 748.402 573.152 746.626 573.152ZM761.451 575.24C764.859 575.24 767.043 573.2 767.259 570.32H764.595C764.427 572.096 763.107 573.008 761.571 573.008C759.435 573.008 758.091 571.568 758.091 568.832V568.64C758.091 566.048 759.507 564.512 761.499 564.512C763.035 564.512 764.139 565.208 764.379 566.888H767.187C766.851 563.432 764.235 562.184 761.451 562.184C757.947 562.184 755.115 564.704 755.115 568.688V568.88C755.115 572.888 757.851 575.24 761.451 575.24ZM774.031 575.216C774.919 575.216 775.543 575.072 775.999 574.904V572.6C775.591 572.768 775.159 572.84 774.583 572.84C773.671 572.84 773.143 572.336 773.143 571.232V564.632H775.903V562.448H773.143V559.688H770.239V562.448H768.559V564.632H770.239V571.496C770.239 573.872 771.535 575.216 774.031 575.216ZM778.691 575H781.595V562.448H778.691V575ZM780.107 560.384C781.067 560.384 781.835 559.664 781.835 558.728C781.835 557.768 781.067 557.048 780.107 557.048C779.147 557.048 778.379 557.768 778.379 558.728C778.379 559.664 779.147 560.384 780.107 560.384ZM790.75 572.984C788.542 572.984 787.27 571.376 787.27 568.808V568.616C787.27 566.024 788.59 564.464 790.75 564.464C792.91 564.464 794.206 566.048 794.206 568.64V568.808C794.206 571.376 792.91 572.984 790.75 572.984ZM790.726 575.24C794.422 575.24 797.182 572.696 797.182 568.784V568.592C797.182 564.752 794.422 562.184 790.75 562.184C787.054 562.184 784.294 564.776 784.294 568.664V568.856C784.294 572.672 787.03 575.24 790.726 575.24ZM799.806 575H802.71V567.608C802.71 565.616 804.03 564.608 805.662 564.608C807.39 564.608 808.158 565.472 808.158 567.368V575H811.062V567.104C811.062 563.648 809.286 562.184 806.766 562.184C804.702 562.184 803.31 563.216 802.71 564.44V562.448H799.806V575ZM818.704 575.24C821.92 575.24 823.72 573.776 823.72 571.232C823.72 568.568 821.968 567.848 819.016 567.392C817.024 567.056 816.424 566.696 816.424 565.784C816.424 564.896 817.168 564.296 818.416 564.296C819.76 564.296 820.408 564.824 820.648 565.976H823.336C823.024 563.144 820.984 562.184 818.416 562.184C816.064 562.184 813.712 563.432 813.712 565.952C813.712 568.304 814.936 569.24 818.248 569.768C820.096 570.08 820.936 570.464 820.936 571.496C820.936 572.552 820.24 573.104 818.68 573.104C816.976 573.104 816.328 572.36 816.184 571.088H813.448C813.568 573.752 815.464 575.24 818.704 575.24Z" fill="#4F4F4F"/>
<path d="M598.004 201.672C594.884 201.672 592.604 199.248 592.604 195.504V195.312C592.604 191.616 594.596 189.144 597.956 189.144C601.316 189.144 603.284 191.76 603.284 195.288V195.48C603.284 199.2 601.244 201.672 598.004 201.672ZM597.956 204.24C603.164 204.24 606.596 200.472 606.596 195.456V195.264C606.596 190.224 603.068 186.6 597.956 186.6C592.868 186.6 589.268 190.32 589.268 195.336V195.528C589.268 200.472 592.7 204.24 597.956 204.24ZM610.06 204H612.964V193.632H615.82V191.448H612.964V189.648C612.964 188.568 613.444 187.8 614.62 187.8C615.148 187.8 615.604 187.896 615.94 188.016V185.76C615.412 185.592 614.98 185.52 614.284 185.52C611.596 185.52 610.06 187.008 610.06 189.768V191.448H608.356V193.632H610.06V204ZM618.755 204H621.659V193.632H624.515V191.448H621.659V189.648C621.659 188.568 622.139 187.8 623.315 187.8C623.843 187.8 624.299 187.896 624.635 188.016V185.76C624.107 185.592 623.675 185.52 622.979 185.52C620.291 185.52 618.755 187.008 618.755 189.768V191.448H617.051V193.632H618.755V204ZM631.998 204.24C635.214 204.24 637.35 202.8 637.758 200.16H634.95C634.734 201.384 633.822 202.08 632.07 202.08C629.91 202.08 628.71 200.736 628.614 198.36H637.806V197.52C637.806 193.032 634.998 191.184 631.878 191.184C628.302 191.184 625.638 193.776 625.638 197.664V197.856C625.638 201.816 628.302 204.24 631.998 204.24ZM628.662 196.416C628.95 194.472 630.126 193.296 631.878 193.296C633.678 193.296 634.782 194.256 634.926 196.416H628.662ZM640.4 204H643.304V197.472C643.304 194.808 644.84 193.992 647.384 193.968V191.256C645.272 191.28 644.096 192.216 643.304 193.8V191.448H640.4V204ZM650.011 204H652.915V191.448H650.011V204ZM651.427 189.384C652.387 189.384 653.155 188.664 653.155 187.728C653.155 186.768 652.387 186.048 651.427 186.048C650.467 186.048 649.699 186.768 649.699 187.728C649.699 188.664 650.467 189.384 651.427 189.384ZM656.455 204H659.359V196.608C659.359 194.616 660.679 193.608 662.311 193.608C664.039 193.608 664.807 194.472 664.807 196.368V204H667.711V196.104C667.711 192.648 665.935 191.184 663.415 191.184C661.351 191.184 659.959 192.216 659.359 193.44V191.448H656.455V204ZM676.408 208.608C680.296 208.608 682.768 206.76 682.792 203.064V191.448H679.888V193.368C679.168 192.12 677.92 191.184 675.856 191.184C672.616 191.184 670.216 193.824 670.216 197.352V197.52C670.216 201.144 672.64 203.496 675.784 203.496C677.632 203.496 679.192 202.368 679.888 201.168V203.016C679.888 205.272 678.64 206.4 676.384 206.4C674.488 206.4 673.528 205.68 673.288 204.432H670.36C670.696 206.832 672.472 208.608 676.408 208.608ZM676.504 201.264C674.632 201.264 673.192 199.824 673.192 197.496V197.304C673.192 195.024 674.44 193.464 676.6 193.464C678.688 193.464 679.984 194.88 679.984 197.256V197.424C679.984 199.824 678.52 201.264 676.504 201.264ZM691.962 204H694.866V196.488C694.866 194.568 696.186 193.608 697.626 193.608C699.042 193.608 699.858 194.4 699.858 196.248V204H702.762V196.488C702.762 194.568 704.082 193.608 705.522 193.608C706.962 193.608 707.754 194.4 707.754 196.248V204H710.658V196.056C710.658 192.6 708.786 191.184 706.482 191.184C704.922 191.184 703.194 191.88 702.234 193.44C701.61 191.88 700.314 191.184 698.682 191.184C696.834 191.184 695.466 192.192 694.866 193.368V191.448H691.962V204ZM719.61 201.984C717.402 201.984 716.13 200.376 716.13 197.808V197.616C716.13 195.024 717.45 193.464 719.61 193.464C721.77 193.464 723.066 195.048 723.066 197.64V197.808C723.066 200.376 721.77 201.984 719.61 201.984ZM719.586 204.24C723.282 204.24 726.042 201.696 726.042 197.784V197.592C726.042 193.752 723.282 191.184 719.61 191.184C715.914 191.184 713.154 193.776 713.154 197.664V197.856C713.154 201.672 715.89 204.24 719.586 204.24ZM728.666 204H731.57V197.472C731.57 194.808 733.105 193.992 735.65 193.968V191.256C733.538 191.28 732.362 192.216 731.57 193.8V191.448H728.666V204ZM743.49 204.24C746.706 204.24 748.842 202.8 749.25 200.16H746.442C746.226 201.384 745.314 202.08 743.562 202.08C741.402 202.08 740.202 200.736 740.106 198.36H749.298V197.52C749.298 193.032 746.49 191.184 743.37 191.184C739.794 191.184 737.13 193.776 737.13 197.664V197.856C737.13 201.816 739.794 204.24 743.49 204.24ZM740.154 196.416C740.442 194.472 741.618 193.296 743.37 193.296C745.17 193.296 746.274 194.256 746.418 196.416H740.154ZM761.907 204.24C765.123 204.24 766.923 202.776 766.923 200.232C766.923 197.568 765.171 196.848 762.219 196.392C760.227 196.056 759.627 195.696 759.627 194.784C759.627 193.896 760.371 193.296 761.619 193.296C762.963 193.296 763.611 193.824 763.851 194.976H766.539C766.227 192.144 764.187 191.184 761.619 191.184C759.267 191.184 756.915 192.432 756.915 194.952C756.915 197.304 758.139 198.24 761.451 198.768C763.299 199.08 764.139 199.464 764.139 200.496C764.139 201.552 763.443 202.104 761.883 202.104C760.179 202.104 759.531 201.36 759.387 200.088H756.651C756.771 202.752 758.667 204.24 761.907 204.24ZM773.67 204.24C775.71 204.24 777.03 203.256 777.654 202.032V204H780.558V191.448H777.654V198.912C777.654 200.904 776.286 201.912 774.726 201.912C773.046 201.912 772.254 201.048 772.254 199.152V191.448H769.35V199.488C769.35 202.824 771.198 204.24 773.67 204.24ZM784.001 208.296H786.905V202.032C787.577 203.256 789.017 204.24 791.009 204.24C794.249 204.24 796.577 201.792 796.577 197.76V197.568C796.577 193.512 794.153 191.184 791.009 191.184C789.161 191.184 787.601 192.264 786.905 193.464V191.448H784.001V208.296ZM790.289 201.936C788.177 201.936 786.809 200.616 786.809 197.808V197.616C786.809 194.832 788.249 193.464 790.265 193.464C792.161 193.464 793.601 194.832 793.601 197.616V197.808C793.601 200.496 792.425 201.936 790.289 201.936ZM799.189 208.296H802.093V202.032C802.765 203.256 804.205 204.24 806.197 204.24C809.437 204.24 811.765 201.792 811.765 197.76V197.568C811.765 193.512 809.341 191.184 806.197 191.184C804.349 191.184 802.789 192.264 802.093 193.464V191.448H799.189V208.296ZM805.477 201.936C803.365 201.936 801.997 200.616 801.997 197.808V197.616C801.997 194.832 803.437 193.464 805.453 193.464C807.349 193.464 808.789 194.832 808.789 197.616V197.808C808.789 200.496 807.613 201.936 805.477 201.936ZM819.992 201.984C817.784 201.984 816.512 200.376 816.512 197.808V197.616C816.512 195.024 817.832 193.464 819.992 193.464C822.152 193.464 823.448 195.048 823.448 197.64V197.808C823.448 200.376 822.152 201.984 819.992 201.984ZM819.968 204.24C823.664 204.24 826.424 201.696 826.424 197.784V197.592C826.424 193.752 823.664 191.184 819.992 191.184C816.296 191.184 813.536 193.776 813.536 197.664V197.856C813.536 201.672 816.272 204.24 819.968 204.24ZM829.048 204H831.952V197.472C831.952 194.808 833.488 193.992 836.032 193.968V191.256C833.92 191.28 832.744 192.216 831.952 193.8V191.448H829.048V204ZM842.977 204.216C843.865 204.216 844.489 204.072 844.945 203.904V201.6C844.537 201.768 844.105 201.84 843.529 201.84C842.617 201.84 842.089 201.336 842.089 200.232V193.632H844.849V191.448H842.089V188.688H839.185V191.448H837.505V193.632H839.185V200.496C839.185 202.872 840.481 204.216 842.977 204.216Z" fill="#4F4F4F"/>
<path d="M736.705 46.0721C750.005 45.7521 763.225 46.4321 776.225 49.4421C793.425 53.4421 808.225 61.8221 821.095 73.8221C845.095 96.2221 859.905 123.822 867.345 155.592C872.345 177.112 873.465 198.932 872.245 220.922C871.085 241.922 867.435 262.342 858.905 281.622C840.605 322.962 809.065 348.622 764.905 357.492C711.385 368.212 663.585 354.272 621.325 320.492C602.425 305.362 586.645 287.492 575.635 265.702C563.545 241.802 559.635 216.372 561.405 189.842C562.845 168.122 568.235 147.502 578.845 128.462C599.635 91.1621 630.935 67.0221 671.845 55.1521C693.015 48.9621 714.725 46.5121 736.705 46.0721ZM868.935 202.342C868.889 186.691 867.091 171.094 863.575 155.842C856.575 126.412 842.975 100.572 821.295 79.1821C804.495 62.6121 784.585 52.5821 760.975 50.9121C749.195 50.0821 737.305 50.0421 725.495 50.3921C706.318 50.9552 687.312 54.1656 669.015 59.9321C629.405 72.3821 599.635 96.8121 580.365 133.622C568.735 155.862 564.365 179.832 564.805 204.812C565.195 225.502 569.535 245.252 578.915 263.812C589.805 285.342 605.435 303.002 624.155 317.912C664.485 350.022 710.085 363.792 761.225 354.372C809.165 345.542 841.835 317.512 858.775 271.712C867.015 249.352 869.255 226.002 868.935 202.342Z" fill="#4F4F4F"/>
<path d="M435.331 296.076C449.284 295.74 463.153 296.454 476.791 299.616C494.835 303.819 510.362 312.624 523.864 325.232C549.042 348.767 564.579 377.765 572.384 411.145C577.63 433.755 578.805 456.681 577.525 479.785C576.308 501.849 572.479 523.303 563.53 543.56C544.332 586.995 511.243 613.955 464.915 623.274C408.768 634.537 358.621 619.891 314.286 584.399C294.458 568.503 277.904 549.727 266.353 526.833C253.67 501.723 249.568 475.004 251.425 447.13C252.935 424.31 258.59 402.645 269.721 382.64C291.531 343.45 324.368 318.087 367.286 305.616C389.496 299.112 412.272 296.538 435.331 296.076ZM574.052 460.263C574.004 443.819 572.118 427.432 568.429 411.407C561.086 380.486 546.818 353.337 524.074 330.863C506.449 313.454 485.561 302.916 460.792 301.161C448.434 300.289 435.96 300.247 423.57 300.615C403.453 301.206 383.513 304.579 364.318 310.638C322.763 323.719 291.531 349.387 271.315 388.062C259.114 411.428 254.53 436.613 254.991 462.858C255.401 484.597 259.954 505.347 269.794 524.848C281.219 547.469 297.616 566.023 317.255 581.689C359.565 615.426 407.404 629.893 461.055 619.996C511.348 610.719 545.622 581.268 563.394 533.148C572.038 509.655 574.388 485.122 574.052 460.263Z" fill="#4F4F4F"/>
<path d="M708.517 722.068C678.287 722.338 652.657 711.288 629.867 693.278C597.097 667.378 570.767 636.148 553.947 597.578C546.157 579.698 541.807 561.058 543.287 541.268C544.402 523.412 552.344 506.669 565.467 494.508C582.417 478.508 600.067 463.228 618.207 448.628C629.817 439.288 642.087 430.128 655.407 423.678C694.177 404.888 733.497 407.468 770.337 428.208C811.127 451.208 838.627 486.208 851.957 531.358C863.417 570.198 857.717 606.148 831.267 637.768C812.647 660.028 793.267 681.628 770.537 699.768C752.287 714.388 731.717 722.888 708.517 722.068ZM710.517 718.878C729.007 719.518 748.167 712.588 765.067 699.678C789.847 680.758 810.487 657.608 830.197 633.678C853.567 605.268 859.037 572.678 850.197 537.808C838.717 492.358 812.067 456.938 772.197 433.228C732.397 409.598 689.927 406.888 649.187 430.888C617.247 449.688 589.567 474.568 563.917 501.318C551.927 513.888 546.497 529.708 546.437 547.368C546.429 562.555 549.412 577.595 555.217 591.628C571.747 632.358 599.057 664.828 633.357 691.628C655.017 708.578 679.467 718.658 710.477 718.888L710.517 718.878Z" fill="#4F4F4F"/>
<path d="M319.581 412.679C354.76 397.04 379.593 372.772 398.051 343.205C424.59 300.687 441.301 256.355 443.733 209.862C444.852 188.312 441.645 167.831 431.167 149.294C421.969 132.453 405.346 120.29 384.742 115.324C358.001 108.625 330.766 102.996 303.264 98.2893C285.665 95.281 267.379 92.7955 249.075 93.5074C195.792 95.5636 151.332 118.767 117.788 158.389C80.6638 202.296 64.2651 250.923 68.7938 302.002C72.6978 345.939 95.224 378.028 139.899 394.975C171.348 406.906 203.387 417.793 237.78 423.54C265.418 428.209 293.037 425.684 319.581 412.679ZM315.849 410.618C294.688 420.969 269.399 424.285 244.084 420.575C206.968 415.145 172.782 403.408 139.329 390.421C99.6475 374.986 78.8756 346.056 73.6905 307.372C66.8834 256.973 82.1104 208.383 117.854 164.267C153.551 120.267 201.607 95.2799 259.481 97.2723C304.847 98.8189 347.964 108.541 389.555 121.155C409.025 127.116 422.327 139.7 430.214 156.905C436.947 171.723 440.146 187.972 439.626 204.722C438.487 253.171 421.188 299.229 393.273 343.43C375.656 371.368 351.763 394.069 315.9 410.606L315.849 410.618Z" fill="#4F4F4F"/>
</svg>
