<svg width="736" height="566" viewBox="0 0 736 566" fill="none" xmlns="http://www.w3.org/2000/svg">
<g clip-path="url(#clip0_134_73078)">
<rect x="144" y="36" width="447" height="494" fill="#F2F2F2"/>
<path d="M181.248 123H182.576V118.76H185.536C187.648 118.76 188.88 117.288 188.88 115.544C188.88 113.8 187.68 112.328 185.536 112.328H181.248V123ZM187.504 115.544C187.504 116.744 186.64 117.576 185.376 117.576H182.576V113.512H185.376C186.64 113.512 187.504 114.344 187.504 115.544ZM190.671 123H191.871V112.328H190.671V123ZM193.896 119.128C193.896 121.544 195.544 123.192 197.832 123.192C199.096 123.192 200.136 122.776 200.904 122.008L200.328 121.224C199.72 121.848 198.824 122.2 197.944 122.2C196.28 122.2 195.256 120.984 195.16 119.528H201.416V119.224C201.416 116.904 200.04 115.08 197.704 115.08C195.496 115.08 193.896 116.888 193.896 119.128ZM197.688 116.072C199.448 116.072 200.216 117.496 200.232 118.648H195.16C195.224 117.464 196.04 116.072 197.688 116.072ZM208.272 123H209.472V117.688C209.472 115.816 208.112 115.08 206.48 115.08C205.216 115.08 204.224 115.496 203.392 116.36L203.952 117.192C204.64 116.456 205.392 116.12 206.32 116.12C207.44 116.12 208.272 116.712 208.272 117.752V119.144C207.648 118.424 206.768 118.088 205.712 118.088C204.4 118.088 203.008 118.904 203.008 120.632C203.008 122.312 204.4 123.192 205.712 123.192C206.752 123.192 207.632 122.824 208.272 122.12V123ZM208.272 121.368C207.808 122.008 206.992 122.328 206.144 122.328C205.024 122.328 204.24 121.624 204.24 120.648C204.24 119.656 205.024 118.952 206.144 118.952C206.992 118.952 207.808 119.272 208.272 119.912V121.368ZM211.285 121.976C212.069 122.808 213.141 123.192 214.405 123.192C216.405 123.192 217.445 122.152 217.445 120.856C217.445 119.144 215.893 118.76 214.549 118.456C213.541 118.216 212.661 117.976 212.661 117.224C212.661 116.536 213.317 116.056 214.373 116.056C215.365 116.056 216.214 116.472 216.677 117.032L217.238 116.2C216.614 115.576 215.686 115.08 214.373 115.08C212.533 115.08 211.493 116.104 211.493 117.304C211.493 118.904 212.981 119.256 214.293 119.56C215.333 119.816 216.278 120.088 216.278 120.936C216.278 121.688 215.637 122.216 214.453 122.216C213.397 122.216 212.421 121.704 211.909 121.112L211.285 121.976ZM219.027 119.128C219.027 121.544 220.675 123.192 222.963 123.192C224.227 123.192 225.267 122.776 226.035 122.008L225.459 121.224C224.851 121.848 223.955 122.2 223.075 122.2C221.411 122.2 220.387 120.984 220.291 119.528H226.547V119.224C226.547 116.904 225.171 115.08 222.835 115.08C220.627 115.08 219.027 116.888 219.027 119.128ZM222.819 116.072C224.579 116.072 225.347 117.496 225.363 118.648H220.291C220.355 117.464 221.171 116.072 222.819 116.072ZM238.376 123H239.576V112.328H238.376V116.44C237.752 115.592 236.808 115.08 235.768 115.08C233.736 115.08 232.328 116.68 232.328 119.144C232.328 121.656 233.752 123.192 235.768 123.192C236.856 123.192 237.8 122.632 238.376 121.848V123ZM238.376 120.904C237.944 121.576 237.016 122.12 236.056 122.12C234.504 122.12 233.576 120.856 233.576 119.144C233.576 117.432 234.504 116.152 236.056 116.152C237.016 116.152 237.944 116.728 238.376 117.4V120.904ZM241.611 119.128C241.611 121.544 243.259 123.192 245.547 123.192C246.811 123.192 247.851 122.776 248.619 122.008L248.043 121.224C247.435 121.848 246.539 122.2 245.659 122.2C243.995 122.2 242.971 120.984 242.875 119.528H249.131V119.224C249.131 116.904 247.755 115.08 245.419 115.08C243.211 115.08 241.611 116.888 241.611 119.128ZM245.403 116.072C247.163 116.072 247.931 117.496 247.947 118.648H242.875C242.939 117.464 243.755 116.072 245.403 116.072ZM250.482 121.976C251.266 122.808 252.338 123.192 253.602 123.192C255.602 123.192 256.642 122.152 256.642 120.856C256.642 119.144 255.09 118.76 253.746 118.456C252.738 118.216 251.858 117.976 251.858 117.224C251.858 116.536 252.514 116.056 253.57 116.056C254.562 116.056 255.41 116.472 255.874 117.032L256.434 116.2C255.81 115.576 254.882 115.08 253.57 115.08C251.73 115.08 250.69 116.104 250.69 117.304C250.69 118.904 252.178 119.256 253.49 119.56C254.53 119.816 255.474 120.088 255.474 120.936C255.474 121.688 254.834 122.216 253.65 122.216C252.594 122.216 251.618 121.704 251.106 121.112L250.482 121.976ZM258.224 119.128C258.224 121.432 259.776 123.192 262.08 123.192C263.488 123.192 264.32 122.616 264.912 121.848L264.112 121.112C263.6 121.8 262.944 122.12 262.144 122.12C260.496 122.12 259.472 120.84 259.472 119.128C259.472 117.416 260.496 116.152 262.144 116.152C262.944 116.152 263.6 116.456 264.112 117.16L264.912 116.424C264.32 115.656 263.488 115.08 262.08 115.08C259.776 115.08 258.224 116.84 258.224 119.128ZM266.674 123H267.874V117.528C268.226 116.904 269.234 116.296 269.97 116.296C270.162 116.296 270.306 116.312 270.45 116.344V115.112C269.394 115.112 268.498 115.704 267.874 116.52V115.272H266.674V123ZM272.627 113.976C273.075 113.976 273.443 113.608 273.443 113.16C273.443 112.712 273.075 112.36 272.627 112.36C272.195 112.36 271.827 112.712 271.827 113.16C271.827 113.608 272.195 113.976 272.627 113.976ZM272.035 123H273.235V115.272H272.035V123ZM275.709 123H276.909V121.848C277.485 122.632 278.429 123.192 279.517 123.192C281.533 123.192 282.957 121.656 282.957 119.144C282.957 116.68 281.533 115.08 279.517 115.08C278.461 115.08 277.533 115.592 276.909 116.44V112.328H275.709V123ZM276.909 120.904V117.4C277.325 116.728 278.269 116.152 279.213 116.152C280.781 116.152 281.709 117.432 281.709 119.144C281.709 120.856 280.781 122.12 279.213 122.12C278.269 122.12 277.325 121.576 276.909 120.904ZM284.544 119.128C284.544 121.544 286.192 123.192 288.48 123.192C289.744 123.192 290.784 122.776 291.552 122.008L290.976 121.224C290.368 121.848 289.472 122.2 288.592 122.2C286.928 122.2 285.904 120.984 285.808 119.528H292.064V119.224C292.064 116.904 290.688 115.08 288.352 115.08C286.144 115.08 284.544 116.888 284.544 119.128ZM288.336 116.072C290.096 116.072 290.864 117.496 290.88 118.648H285.808C285.872 117.464 286.688 116.072 288.336 116.072ZM304.98 123H306.18L308.644 115.272H307.396L305.508 121.432L303.476 115.272H302.452L300.42 121.432L298.532 115.272H297.284L299.748 123H300.948L302.964 116.792L304.98 123ZM315.355 123H316.555V117.544C316.555 115.864 315.707 115.08 314.091 115.08C312.923 115.08 311.867 115.752 311.323 116.392V112.328H310.123V123H311.323V117.352C311.787 116.728 312.683 116.152 313.611 116.152C314.651 116.152 315.355 116.552 315.355 117.912V123ZM318.791 124.936L318.599 126.024C318.823 126.088 319.223 126.136 319.479 126.136C320.503 126.12 321.287 125.688 321.751 124.568L325.623 115.272H324.311L321.751 121.608L319.175 115.272H317.879L321.111 123.08L320.599 124.248C320.327 124.888 319.975 125.064 319.447 125.064C319.255 125.064 318.967 125.016 318.791 124.936Z" fill="#333333"/>
<path d="M181.136 87H185.104C188.432 87 190.688 84.808 190.688 81.672C190.688 78.536 188.432 76.328 185.104 76.328H181.136V87ZM183.008 85.352V77.976H185.104C187.488 77.976 188.768 79.608 188.768 81.672C188.768 83.688 187.424 85.352 185.104 85.352H183.008ZM193.359 77.992C193.935 77.992 194.399 77.528 194.399 76.952C194.399 76.376 193.935 75.912 193.359 75.912C192.799 75.912 192.319 76.376 192.319 76.952C192.319 77.528 192.799 77.992 193.359 77.992ZM192.527 87H194.207V79.272H192.527V87ZM195.795 85.992C196.595 86.776 197.795 87.192 199.107 87.192C201.187 87.192 202.323 86.152 202.323 84.792C202.323 82.968 200.675 82.584 199.331 82.296C198.419 82.088 197.651 81.88 197.651 81.288C197.651 80.744 198.211 80.424 199.091 80.424C200.051 80.424 200.915 80.824 201.379 81.352L202.083 80.168C201.379 79.544 200.387 79.08 199.075 79.08C197.123 79.08 196.035 80.168 196.035 81.432C196.035 83.16 197.619 83.512 198.947 83.8C199.891 84.008 200.707 84.248 200.707 84.92C200.707 85.496 200.195 85.864 199.187 85.864C198.179 85.864 197.107 85.336 196.563 84.776L195.795 85.992ZM205.774 89.944V85.928C206.398 86.76 207.278 87.192 208.254 87.192C210.254 87.192 211.678 85.672 211.678 83.128C211.678 80.584 210.254 79.08 208.254 79.08C207.246 79.08 206.35 79.56 205.774 80.328V79.272H204.094V89.944H205.774ZM209.934 83.128C209.934 84.632 209.086 85.704 207.758 85.704C206.974 85.704 206.142 85.224 205.774 84.664V81.608C206.142 81.032 206.974 80.568 207.758 80.568C209.086 80.568 209.934 81.64 209.934 83.128ZM218.671 87H220.351V79.272H218.671V84.696C218.271 85.224 217.535 85.704 216.687 85.704C215.743 85.704 215.135 85.336 215.135 84.136V79.272H213.455V84.744C213.455 86.328 214.271 87.192 215.935 87.192C217.151 87.192 218.111 86.6 218.671 85.976V87ZM224.933 87.192C225.717 87.192 226.213 86.984 226.517 86.696L226.117 85.432C225.989 85.576 225.685 85.704 225.365 85.704C224.885 85.704 224.629 85.32 224.629 84.792V80.744H226.197V79.272H224.629V77.16H222.949V79.272H221.669V80.744H222.949V85.208C222.949 86.488 223.637 87.192 224.933 87.192ZM227.322 83.128C227.322 85.576 229.05 87.192 231.37 87.192C232.602 87.192 233.738 86.808 234.506 86.072L233.738 84.968C233.194 85.512 232.298 85.816 231.546 85.816C230.09 85.816 229.21 84.856 229.082 83.688H235.05V83.288C235.05 80.856 233.562 79.08 231.242 79.08C228.954 79.08 227.322 80.888 227.322 83.128ZM231.242 80.456C232.762 80.456 233.386 81.592 233.418 82.504H229.066C229.146 81.56 229.802 80.456 231.242 80.456ZM241.81 77.992C242.386 77.992 242.85 77.528 242.85 76.952C242.85 76.376 242.386 75.912 241.81 75.912C241.25 75.912 240.77 76.376 240.77 76.952C240.77 77.528 241.25 77.992 241.81 77.992ZM240.978 87H242.658V79.272H240.978V87ZM250.133 87H251.813V81.56C251.813 79.976 250.981 79.08 249.317 79.08C248.101 79.08 247.109 79.72 246.597 80.328V79.272H244.917V87H246.597V81.608C246.981 81.08 247.717 80.568 248.581 80.568C249.525 80.568 250.133 80.968 250.133 82.168V87ZM254.476 87H256.156V80.744H257.724V79.272H256.156V78.84C256.156 77.976 256.572 77.544 257.228 77.544C257.468 77.544 257.708 77.592 257.9 77.704L258.268 76.472C257.932 76.28 257.452 76.168 256.924 76.168C255.5 76.168 254.476 77.112 254.476 78.84V79.272H253.196V80.744H254.476V87ZM259.077 87H260.757V81.736C261.093 81.192 262.037 80.712 262.741 80.712C262.949 80.712 263.125 80.728 263.269 80.76V79.096C262.261 79.096 261.333 79.672 260.757 80.408V79.272H259.077V87ZM269.424 87H271.104V81.88C271.104 79.8 269.6 79.08 267.888 79.08C266.656 79.08 265.536 79.48 264.64 80.328L265.328 81.496C266 80.84 266.752 80.52 267.616 80.52C268.688 80.52 269.424 81.064 269.424 81.96V83.112C268.864 82.456 267.968 82.12 266.928 82.12C265.664 82.12 264.24 82.856 264.24 84.632C264.24 86.344 265.664 87.192 266.928 87.192C267.952 87.192 268.848 86.824 269.424 86.168V87ZM269.424 85.24C269.04 85.768 268.32 86.04 267.584 86.04C266.64 86.04 265.936 85.496 265.936 84.664C265.936 83.816 266.64 83.272 267.584 83.272C268.32 83.272 269.04 83.544 269.424 84.072V85.24ZM272.882 83.128C272.882 85.48 274.53 87.192 276.882 87.192C278.386 87.192 279.298 86.552 279.842 85.816L278.738 84.792C278.306 85.384 277.714 85.704 276.962 85.704C275.554 85.704 274.626 84.632 274.626 83.128C274.626 81.624 275.554 80.568 276.962 80.568C277.714 80.568 278.306 80.872 278.738 81.48L279.842 80.456C279.298 79.72 278.386 79.08 276.882 79.08C274.53 79.08 272.882 80.792 272.882 83.128ZM283.716 87.192C284.5 87.192 284.996 86.984 285.3 86.696L284.9 85.432C284.772 85.576 284.468 85.704 284.148 85.704C283.668 85.704 283.412 85.32 283.412 84.792V80.744H284.98V79.272H283.412V77.16H281.732V79.272H280.452V80.744H281.732V85.208C281.732 86.488 282.42 87.192 283.716 87.192ZM287.417 77.992C287.993 77.992 288.457 77.528 288.457 76.952C288.457 76.376 287.993 75.912 287.417 75.912C286.857 75.912 286.377 76.376 286.377 76.952C286.377 77.528 286.857 77.992 287.417 77.992ZM286.585 87H288.265V79.272H286.585V87ZM294.012 87.192C296.492 87.192 297.996 85.352 297.996 83.128C297.996 80.92 296.492 79.08 294.012 79.08C291.564 79.08 290.044 80.92 290.044 83.128C290.044 85.352 291.564 87.192 294.012 87.192ZM294.012 85.704C292.588 85.704 291.788 84.504 291.788 83.128C291.788 81.768 292.588 80.568 294.012 80.568C295.452 80.568 296.252 81.768 296.252 83.128C296.252 84.504 295.452 85.704 294.012 85.704ZM304.992 87H306.672V81.56C306.672 79.976 305.84 79.08 304.176 79.08C302.96 79.08 301.968 79.72 301.456 80.328V79.272H299.776V87H301.456V81.608C301.84 81.08 302.576 80.568 303.44 80.568C304.384 80.568 304.992 80.968 304.992 82.168V87Z" fill="#333333"/>
<rect x="180" y="160" width="375" height="199" fill="white"/>
<path d="M180.816 396.672C180.816 399.824 182.944 402.192 186.112 402.192C189.264 402.192 191.408 399.824 191.408 396.672C191.408 393.52 189.264 391.152 186.112 391.152C182.944 391.152 180.816 393.52 180.816 396.672ZM190.032 396.672C190.032 399.152 188.496 401.008 186.112 401.008C183.712 401.008 182.192 399.152 182.192 396.672C182.192 394.176 183.712 392.336 186.112 392.336C188.496 392.336 190.032 394.176 190.032 396.672ZM198.73 402H199.93V394.272H198.73V399.952C198.282 400.576 197.386 401.12 196.442 401.12C195.402 401.12 194.714 400.72 194.714 399.36V394.272H193.514V399.728C193.514 401.408 194.362 402.192 195.978 402.192C197.13 402.192 198.138 401.584 198.73 400.912V402ZM202.407 402H203.607V396.528C203.959 395.904 204.967 395.296 205.703 395.296C205.895 395.296 206.039 395.312 206.183 395.344V394.112C205.127 394.112 204.231 394.704 203.607 395.52V394.272H202.407V402ZM213.925 402.192C214.629 402.192 215.061 401.984 215.365 401.696L215.013 400.8C214.853 400.976 214.533 401.12 214.197 401.12C213.669 401.12 213.413 400.704 213.413 400.128V395.328H214.981V394.272H213.413V392.16H212.213V394.272H210.933V395.328H212.213V400.384C212.213 401.536 212.789 402.192 213.925 402.192ZM216.308 398.128C216.308 400.544 217.956 402.192 220.244 402.192C221.508 402.192 222.548 401.776 223.316 401.008L222.74 400.224C222.132 400.848 221.236 401.2 220.356 401.2C218.692 401.2 217.668 399.984 217.572 398.528H223.828V398.224C223.828 395.904 222.452 394.08 220.116 394.08C217.908 394.08 216.308 395.888 216.308 398.128ZM220.1 395.072C221.86 395.072 222.628 396.496 222.644 397.648H217.572C217.636 396.464 218.452 395.072 220.1 395.072ZM230.684 402H231.884V396.688C231.884 394.816 230.524 394.08 228.892 394.08C227.628 394.08 226.636 394.496 225.804 395.36L226.364 396.192C227.052 395.456 227.804 395.12 228.732 395.12C229.852 395.12 230.684 395.712 230.684 396.752V398.144C230.06 397.424 229.18 397.088 228.124 397.088C226.812 397.088 225.42 397.904 225.42 399.632C225.42 401.312 226.812 402.192 228.124 402.192C229.164 402.192 230.044 401.824 230.684 401.12V402ZM230.684 400.368C230.22 401.008 229.404 401.328 228.556 401.328C227.436 401.328 226.652 400.624 226.652 399.648C226.652 398.656 227.436 397.952 228.556 397.952C229.404 397.952 230.22 398.272 230.684 398.912V400.368ZM243.697 402H244.897V396.416C244.897 394.864 244.145 394.08 242.737 394.08C241.617 394.08 240.577 394.816 240.145 395.52C239.921 394.72 239.249 394.08 238.065 394.08C236.929 394.08 235.889 394.896 235.569 395.392V394.272H234.369V402H235.569V396.352C235.985 395.728 236.817 395.152 237.601 395.152C238.609 395.152 239.025 395.776 239.025 396.752V402H240.225V396.336C240.625 395.728 241.473 395.152 242.273 395.152C243.265 395.152 243.697 395.776 243.697 396.752V402ZM258.264 402H259.464L261.928 394.272H260.68L258.792 400.432L256.76 394.272H255.736L253.704 400.432L251.816 394.272H250.568L253.032 402H254.232L256.248 395.792L258.264 402ZM263.998 392.976C264.446 392.976 264.814 392.608 264.814 392.16C264.814 391.712 264.446 391.36 263.998 391.36C263.566 391.36 263.198 391.712 263.198 392.16C263.198 392.608 263.566 392.976 263.998 392.976ZM263.406 402H264.606V394.272H263.406V402ZM267.08 402H268.28V391.328H267.08V402ZM270.754 402H271.954V391.328H270.754V402ZM278.969 402H280.169V395.328H281.737V394.272H280.169V393.68C280.169 392.704 280.601 392.16 281.385 392.16C281.657 392.16 281.881 392.224 282.073 392.336L282.377 391.44C282.073 391.248 281.657 391.168 281.209 391.168C279.865 391.168 278.969 392.08 278.969 393.68V394.272H277.689V395.328H278.969V402ZM286.62 402.192C288.972 402.192 290.444 400.368 290.444 398.128C290.444 395.888 288.972 394.08 286.62 394.08C284.268 394.08 282.796 395.888 282.796 398.128C282.796 400.368 284.268 402.192 286.62 402.192ZM286.62 401.12C284.972 401.12 284.044 399.712 284.044 398.128C284.044 396.56 284.972 395.152 286.62 395.152C288.268 395.152 289.18 396.56 289.18 398.128C289.18 399.712 288.268 401.12 286.62 401.12ZM292.48 402H293.68V391.328H292.48V402ZM296.154 402H297.354V391.328H296.154V402ZM303.204 402.192C305.556 402.192 307.028 400.368 307.028 398.128C307.028 395.888 305.556 394.08 303.204 394.08C300.852 394.08 299.38 395.888 299.38 398.128C299.38 400.368 300.852 402.192 303.204 402.192ZM303.204 401.12C301.556 401.12 300.628 399.712 300.628 398.128C300.628 396.56 301.556 395.152 303.204 395.152C304.852 395.152 305.764 396.56 305.764 398.128C305.764 399.712 304.852 401.12 303.204 401.12ZM315.752 402H316.952L319.416 394.272H318.168L316.28 400.432L314.248 394.272H313.224L311.192 400.432L309.304 394.272H308.056L310.52 402H311.72L313.736 395.792L315.752 402ZM330.315 402H331.515V394.272H330.315V399.952C329.867 400.576 328.971 401.12 328.027 401.12C326.987 401.12 326.299 400.72 326.299 399.36V394.272H325.099V399.728C325.099 401.408 325.947 402.192 327.563 402.192C328.715 402.192 329.723 401.584 330.315 400.912V402ZM335.191 404.944V400.832C335.815 401.696 336.743 402.192 337.799 402.192C339.831 402.192 341.239 400.624 341.239 398.128C341.239 395.616 339.831 394.08 337.799 394.08C336.711 394.08 335.751 394.64 335.191 395.424V394.272H333.991V404.944H335.191ZM339.975 398.128C339.975 399.84 339.047 401.12 337.495 401.12C336.551 401.12 335.607 400.544 335.191 399.872V396.384C335.607 395.712 336.551 395.152 337.495 395.152C339.047 395.152 339.975 396.416 339.975 398.128ZM349.416 402.192C350.12 402.192 350.552 401.984 350.856 401.696L350.504 400.8C350.344 400.976 350.024 401.12 349.688 401.12C349.16 401.12 348.904 400.704 348.904 400.128V395.328H350.472V394.272H348.904V392.16H347.704V394.272H346.424V395.328H347.704V400.384C347.704 401.536 348.28 402.192 349.416 402.192ZM355.623 402.192C357.975 402.192 359.447 400.368 359.447 398.128C359.447 395.888 357.975 394.08 355.623 394.08C353.271 394.08 351.799 395.888 351.799 398.128C351.799 400.368 353.271 402.192 355.623 402.192ZM355.623 401.12C353.975 401.12 353.047 399.712 353.047 398.128C353.047 396.56 353.975 395.152 355.623 395.152C357.271 395.152 358.183 396.56 358.183 398.128C358.183 399.712 357.271 401.12 355.623 401.12ZM365.688 402H366.888V396.528C367.24 395.904 368.248 395.296 368.984 395.296C369.176 395.296 369.32 395.312 369.464 395.344V394.112C368.408 394.112 367.512 394.704 366.888 395.52V394.272H365.688V402ZM370.601 398.128C370.601 400.544 372.249 402.192 374.537 402.192C375.801 402.192 376.841 401.776 377.609 401.008L377.033 400.224C376.425 400.848 375.529 401.2 374.649 401.2C372.985 401.2 371.961 399.984 371.865 398.528H378.121V398.224C378.121 395.904 376.745 394.08 374.409 394.08C372.201 394.08 370.601 395.888 370.601 398.128ZM374.393 395.072C376.153 395.072 376.921 396.496 376.937 397.648H371.865C371.929 396.464 372.745 395.072 374.393 395.072ZM386.929 404.944V394.272H385.729V395.424C385.169 394.64 384.225 394.08 383.137 394.08C381.105 394.08 379.697 395.616 379.697 398.128C379.697 400.624 381.105 402.192 383.137 402.192C384.177 402.192 385.105 401.696 385.729 400.832V404.944H386.929ZM385.729 399.872C385.313 400.544 384.385 401.12 383.425 401.12C381.873 401.12 380.945 399.84 380.945 398.128C380.945 396.416 381.873 395.152 383.425 395.152C384.385 395.152 385.313 395.712 385.729 396.384V399.872ZM394.628 402H395.828V394.272H394.628V399.952C394.18 400.576 393.284 401.12 392.34 401.12C391.3 401.12 390.612 400.72 390.612 399.36V394.272H389.412V399.728C389.412 401.408 390.26 402.192 391.876 402.192C393.028 402.192 394.036 401.584 394.628 400.912V402ZM397.857 398.128C397.857 400.544 399.505 402.192 401.793 402.192C403.057 402.192 404.097 401.776 404.865 401.008L404.289 400.224C403.681 400.848 402.785 401.2 401.905 401.2C400.241 401.2 399.217 399.984 399.121 398.528H405.377V398.224C405.377 395.904 404.001 394.08 401.665 394.08C399.457 394.08 397.857 395.888 397.857 398.128ZM401.649 395.072C403.409 395.072 404.177 396.496 404.193 397.648H399.121C399.185 396.464 400.001 395.072 401.649 395.072ZM406.729 400.976C407.513 401.808 408.585 402.192 409.849 402.192C411.849 402.192 412.889 401.152 412.889 399.856C412.889 398.144 411.337 397.76 409.993 397.456C408.985 397.216 408.105 396.976 408.105 396.224C408.105 395.536 408.761 395.056 409.817 395.056C410.809 395.056 411.657 395.472 412.121 396.032L412.681 395.2C412.057 394.576 411.129 394.08 409.817 394.08C407.977 394.08 406.937 395.104 406.937 396.304C406.937 397.904 408.425 398.256 409.737 398.56C410.777 398.816 411.721 399.088 411.721 399.936C411.721 400.688 411.081 401.216 409.897 401.216C408.841 401.216 407.865 400.704 407.353 400.112L406.729 400.976ZM416.87 402.192C417.574 402.192 418.006 401.984 418.31 401.696L417.958 400.8C417.798 400.976 417.478 401.12 417.142 401.12C416.614 401.12 416.358 400.704 416.358 400.128V395.328H417.926V394.272H416.358V392.16H415.158V394.272H413.878V395.328H415.158V400.384C415.158 401.536 415.734 402.192 416.87 402.192ZM428.738 402H429.938V396.688C429.938 394.816 428.578 394.08 426.946 394.08C425.682 394.08 424.69 394.496 423.858 395.36L424.418 396.192C425.106 395.456 425.858 395.12 426.786 395.12C427.906 395.12 428.738 395.712 428.738 396.752V398.144C428.114 397.424 427.234 397.088 426.178 397.088C424.866 397.088 423.474 397.904 423.474 399.632C423.474 401.312 424.866 402.192 426.178 402.192C427.218 402.192 428.098 401.824 428.738 401.12V402ZM428.738 400.368C428.274 401.008 427.458 401.328 426.61 401.328C425.49 401.328 424.706 400.624 424.706 399.648C424.706 398.656 425.49 397.952 426.61 397.952C427.458 397.952 428.274 398.272 428.738 398.912V400.368ZM438.024 402H439.224V391.328H438.024V395.44C437.4 394.592 436.456 394.08 435.416 394.08C433.384 394.08 431.976 395.68 431.976 398.144C431.976 400.656 433.4 402.192 435.416 402.192C436.504 402.192 437.448 401.632 438.024 400.848V402ZM438.024 399.904C437.592 400.576 436.664 401.12 435.704 401.12C434.152 401.12 433.224 399.856 433.224 398.144C433.224 396.432 434.152 395.152 435.704 395.152C436.664 395.152 437.592 395.728 438.024 396.4V399.904ZM447.307 402H448.507V391.328H447.307V395.44C446.683 394.592 445.739 394.08 444.699 394.08C442.667 394.08 441.259 395.68 441.259 398.144C441.259 400.656 442.683 402.192 444.699 402.192C445.787 402.192 446.731 401.632 447.307 400.848V402ZM447.307 399.904C446.875 400.576 445.947 401.12 444.987 401.12C443.435 401.12 442.507 399.856 442.507 398.144C442.507 396.432 443.435 395.152 444.987 395.152C445.947 395.152 446.875 395.728 447.307 396.4V399.904ZM451.582 392.976C452.03 392.976 452.398 392.608 452.398 392.16C452.398 391.712 452.03 391.36 451.582 391.36C451.15 391.36 450.782 391.712 450.782 392.16C450.782 392.608 451.15 392.976 451.582 392.976ZM450.99 402H452.19V394.272H450.99V402ZM456.616 402.192C457.32 402.192 457.752 401.984 458.056 401.696L457.704 400.8C457.544 400.976 457.224 401.12 456.888 401.12C456.36 401.12 456.104 400.704 456.104 400.128V395.328H457.672V394.272H456.104V392.16H454.904V394.272H453.624V395.328H454.904V400.384C454.904 401.536 455.48 402.192 456.616 402.192ZM460.039 392.976C460.487 392.976 460.855 392.608 460.855 392.16C460.855 391.712 460.487 391.36 460.039 391.36C459.607 391.36 459.239 391.712 459.239 392.16C459.239 392.608 459.607 392.976 460.039 392.976ZM459.447 402H460.647V394.272H459.447V402ZM466.497 402.192C468.849 402.192 470.321 400.368 470.321 398.128C470.321 395.888 468.849 394.08 466.497 394.08C464.145 394.08 462.673 395.888 462.673 398.128C462.673 400.368 464.145 402.192 466.497 402.192ZM466.497 401.12C464.849 401.12 463.921 399.712 463.921 398.128C463.921 396.56 464.849 395.152 466.497 395.152C468.145 395.152 469.057 396.56 469.057 398.128C469.057 399.712 468.145 401.12 466.497 401.12ZM477.573 402H478.773V396.576C478.773 394.896 477.925 394.08 476.309 394.08C475.157 394.08 474.101 394.752 473.557 395.392V394.272H472.357V402H473.557V396.352C474.005 395.728 474.901 395.152 475.845 395.152C476.885 395.152 477.573 395.584 477.573 396.944V402ZM486.081 402H487.281V396.688C487.281 394.816 485.921 394.08 484.289 394.08C483.025 394.08 482.033 394.496 481.201 395.36L481.761 396.192C482.449 395.456 483.201 395.12 484.129 395.12C485.249 395.12 486.081 395.712 486.081 396.752V398.144C485.457 397.424 484.577 397.088 483.521 397.088C482.209 397.088 480.817 397.904 480.817 399.632C480.817 401.312 482.209 402.192 483.521 402.192C484.561 402.192 485.441 401.824 486.081 401.12V402ZM486.081 400.368C485.617 401.008 484.801 401.328 483.953 401.328C482.833 401.328 482.049 400.624 482.049 399.648C482.049 398.656 482.833 397.952 483.953 397.952C484.801 397.952 485.617 398.272 486.081 398.912V400.368ZM489.767 402H490.967V391.328H489.767V402ZM181.792 412.976C182.24 412.976 182.608 412.608 182.608 412.16C182.608 411.712 182.24 411.36 181.792 411.36C181.36 411.36 180.992 411.712 180.992 412.16C180.992 412.608 181.36 412.976 181.792 412.976ZM181.2 422H182.4V414.272H181.2V422ZM190.09 422H191.29V416.576C191.29 414.896 190.442 414.08 188.826 414.08C187.674 414.08 186.618 414.752 186.074 415.392V414.272H184.874V422H186.074V416.352C186.522 415.728 187.418 415.152 188.362 415.152C189.402 415.152 190.09 415.584 190.09 416.944V422ZM194.102 422H195.302V415.328H196.87V414.272H195.302V413.68C195.302 412.704 195.734 412.16 196.518 412.16C196.79 412.16 197.014 412.224 197.206 412.336L197.51 411.44C197.206 411.248 196.79 411.168 196.342 411.168C194.998 411.168 194.102 412.08 194.102 413.68V414.272H192.822V415.328H194.102V422ZM201.753 422.192C204.106 422.192 205.578 420.368 205.578 418.128C205.578 415.888 204.106 414.08 201.753 414.08C199.401 414.08 197.929 415.888 197.929 418.128C197.929 420.368 199.401 422.192 201.753 422.192ZM201.753 421.12C200.105 421.12 199.177 419.712 199.177 418.128C199.177 416.56 200.105 415.152 201.753 415.152C203.402 415.152 204.313 416.56 204.313 418.128C204.313 419.712 203.402 421.12 201.753 421.12ZM207.614 422H208.814V416.528C209.166 415.904 210.174 415.296 210.91 415.296C211.102 415.296 211.246 415.312 211.39 415.344V414.112C210.334 414.112 209.438 414.704 208.814 415.52V414.272H207.614V422ZM222.303 422H223.503V416.416C223.503 414.864 222.751 414.08 221.343 414.08C220.223 414.08 219.183 414.816 218.751 415.52C218.527 414.72 217.855 414.08 216.671 414.08C215.535 414.08 214.495 414.896 214.175 415.392V414.272H212.975V422H214.175V416.352C214.591 415.728 215.423 415.152 216.207 415.152C217.215 415.152 217.631 415.776 217.631 416.752V422H218.831V416.336C219.231 415.728 220.079 415.152 220.879 415.152C221.871 415.152 222.303 415.776 222.303 416.752V422ZM230.809 422H232.009V416.688C232.009 414.816 230.649 414.08 229.017 414.08C227.753 414.08 226.761 414.496 225.929 415.36L226.489 416.192C227.177 415.456 227.929 415.12 228.857 415.12C229.977 415.12 230.809 415.712 230.809 416.752V418.144C230.185 417.424 229.305 417.088 228.249 417.088C226.937 417.088 225.545 417.904 225.545 419.632C225.545 421.312 226.937 422.192 228.249 422.192C229.289 422.192 230.169 421.824 230.809 421.12V422ZM230.809 420.368C230.345 421.008 229.529 421.328 228.681 421.328C227.561 421.328 226.777 420.624 226.777 419.648C226.777 418.656 227.561 417.952 228.681 417.952C229.529 417.952 230.345 418.272 230.809 418.912V420.368ZM236.446 422.192C237.15 422.192 237.582 421.984 237.886 421.696L237.534 420.8C237.374 420.976 237.054 421.12 236.718 421.12C236.19 421.12 235.934 420.704 235.934 420.128V415.328H237.502V414.272H235.934V412.16H234.734V414.272H233.454V415.328H234.734V420.384C234.734 421.536 235.31 422.192 236.446 422.192ZM239.869 412.976C240.317 412.976 240.685 412.608 240.685 412.16C240.685 411.712 240.317 411.36 239.869 411.36C239.437 411.36 239.069 411.712 239.069 412.16C239.069 412.608 239.437 412.976 239.869 412.976ZM239.277 422H240.477V414.272H239.277V422ZM246.327 422.192C248.679 422.192 250.151 420.368 250.151 418.128C250.151 415.888 248.679 414.08 246.327 414.08C243.975 414.08 242.503 415.888 242.503 418.128C242.503 420.368 243.975 422.192 246.327 422.192ZM246.327 421.12C244.679 421.12 243.751 419.712 243.751 418.128C243.751 416.56 244.679 415.152 246.327 415.152C247.975 415.152 248.887 416.56 248.887 418.128C248.887 419.712 247.975 421.12 246.327 421.12ZM257.404 422H258.604V416.576C258.604 414.896 257.756 414.08 256.14 414.08C254.988 414.08 253.932 414.752 253.388 415.392V414.272H252.188V422H253.388V416.352C253.836 415.728 254.732 415.152 255.676 415.152C256.716 415.152 257.404 415.584 257.404 416.944V422Z" fill="#333333"/>
</g>
<defs>
<clipPath id="clip0_134_73078">
<rect width="736" height="566" fill="white"/>
</clipPath>
</defs>
</svg>
