<svg width="736" height="566" viewBox="0 0 736 566" fill="none" xmlns="http://www.w3.org/2000/svg">
<g clip-path="url(#clip0_134_73017)">
<rect x="139" y="36" width="447" height="494" fill="#F2F2F2"/>
<path d="M176.248 123H177.576V118.76H180.536C182.648 118.76 183.88 117.288 183.88 115.544C183.88 113.8 182.68 112.328 180.536 112.328H176.248V123ZM182.504 115.544C182.504 116.744 181.64 117.576 180.376 117.576H177.576V113.512H180.376C181.64 113.512 182.504 114.344 182.504 115.544ZM185.671 123H186.871V112.328H185.671V123ZM188.896 119.128C188.896 121.544 190.544 123.192 192.832 123.192C194.096 123.192 195.136 122.776 195.904 122.008L195.328 121.224C194.72 121.848 193.824 122.2 192.944 122.2C191.28 122.2 190.256 120.984 190.16 119.528H196.416V119.224C196.416 116.904 195.04 115.08 192.704 115.08C190.496 115.08 188.896 116.888 188.896 119.128ZM192.688 116.072C194.448 116.072 195.216 117.496 195.232 118.648H190.16C190.224 117.464 191.04 116.072 192.688 116.072ZM203.272 123H204.472V117.688C204.472 115.816 203.112 115.08 201.48 115.08C200.216 115.08 199.224 115.496 198.392 116.36L198.952 117.192C199.64 116.456 200.392 116.12 201.32 116.12C202.44 116.12 203.272 116.712 203.272 117.752V119.144C202.648 118.424 201.768 118.088 200.712 118.088C199.4 118.088 198.008 118.904 198.008 120.632C198.008 122.312 199.4 123.192 200.712 123.192C201.752 123.192 202.632 122.824 203.272 122.12V123ZM203.272 121.368C202.808 122.008 201.992 122.328 201.144 122.328C200.024 122.328 199.24 121.624 199.24 120.648C199.24 119.656 200.024 118.952 201.144 118.952C201.992 118.952 202.808 119.272 203.272 119.912V121.368ZM206.285 121.976C207.069 122.808 208.141 123.192 209.405 123.192C211.405 123.192 212.445 122.152 212.445 120.856C212.445 119.144 210.893 118.76 209.549 118.456C208.541 118.216 207.661 117.976 207.661 117.224C207.661 116.536 208.317 116.056 209.373 116.056C210.365 116.056 211.214 116.472 211.677 117.032L212.238 116.2C211.614 115.576 210.686 115.08 209.373 115.08C207.533 115.08 206.493 116.104 206.493 117.304C206.493 118.904 207.981 119.256 209.293 119.56C210.333 119.816 211.278 120.088 211.278 120.936C211.278 121.688 210.637 122.216 209.453 122.216C208.397 122.216 207.421 121.704 206.909 121.112L206.285 121.976ZM214.027 119.128C214.027 121.544 215.675 123.192 217.963 123.192C219.227 123.192 220.267 122.776 221.035 122.008L220.459 121.224C219.851 121.848 218.955 122.2 218.075 122.2C216.411 122.2 215.387 120.984 215.291 119.528H221.547V119.224C221.547 116.904 220.171 115.08 217.835 115.08C215.627 115.08 214.027 116.888 214.027 119.128ZM217.819 116.072C219.579 116.072 220.347 117.496 220.363 118.648H215.291C215.355 117.464 216.171 116.072 217.819 116.072ZM227.104 121.976C227.888 122.808 228.96 123.192 230.224 123.192C232.224 123.192 233.264 122.152 233.264 120.856C233.264 119.144 231.712 118.76 230.368 118.456C229.36 118.216 228.48 117.976 228.48 117.224C228.48 116.536 229.136 116.056 230.192 116.056C231.184 116.056 232.032 116.472 232.496 117.032L233.056 116.2C232.432 115.576 231.504 115.08 230.192 115.08C228.352 115.08 227.312 116.104 227.312 117.304C227.312 118.904 228.8 119.256 230.112 119.56C231.152 119.816 232.096 120.088 232.096 120.936C232.096 121.688 231.456 122.216 230.272 122.216C229.216 122.216 228.24 121.704 227.728 121.112L227.104 121.976ZM234.845 119.128C234.845 121.544 236.493 123.192 238.781 123.192C240.045 123.192 241.085 122.776 241.853 122.008L241.277 121.224C240.669 121.848 239.773 122.2 238.893 122.2C237.229 122.2 236.205 120.984 236.109 119.528H242.365V119.224C242.365 116.904 240.989 115.08 238.653 115.08C236.445 115.08 234.845 116.888 234.845 119.128ZM238.637 116.072C240.397 116.072 241.165 117.496 241.181 118.648H236.109C236.173 117.464 236.989 116.072 238.637 116.072ZM244.389 123H245.589V112.328H244.389V123ZM247.615 119.128C247.615 121.544 249.263 123.192 251.551 123.192C252.815 123.192 253.855 122.776 254.623 122.008L254.047 121.224C253.439 121.848 252.543 122.2 251.663 122.2C249.999 122.2 248.975 120.984 248.879 119.528H255.135V119.224C255.135 116.904 253.759 115.08 251.423 115.08C249.215 115.08 247.615 116.888 247.615 119.128ZM251.407 116.072C253.167 116.072 253.935 117.496 253.951 118.648H248.879C248.943 117.464 249.759 116.072 251.407 116.072ZM256.71 119.128C256.71 121.432 258.262 123.192 260.566 123.192C261.974 123.192 262.806 122.616 263.398 121.848L262.598 121.112C262.086 121.8 261.43 122.12 260.63 122.12C258.982 122.12 257.958 120.84 257.958 119.128C257.958 117.416 258.982 116.152 260.63 116.152C261.43 116.152 262.086 116.456 262.598 117.16L263.398 116.424C262.806 115.656 261.974 115.08 260.566 115.08C258.262 115.08 256.71 116.84 256.71 119.128ZM267.112 123.192C267.816 123.192 268.248 122.984 268.552 122.696L268.2 121.8C268.04 121.976 267.72 122.12 267.384 122.12C266.856 122.12 266.6 121.704 266.6 121.128V116.328H268.168V115.272H266.6V113.16H265.4V115.272H264.12V116.328H265.4V121.384C265.4 122.536 265.976 123.192 267.112 123.192ZM278.98 123H280.18V117.688C280.18 115.816 278.82 115.08 277.188 115.08C275.924 115.08 274.932 115.496 274.1 116.36L274.66 117.192C275.348 116.456 276.1 116.12 277.028 116.12C278.148 116.12 278.98 116.712 278.98 117.752V119.144C278.356 118.424 277.476 118.088 276.42 118.088C275.108 118.088 273.716 118.904 273.716 120.632C273.716 122.312 275.108 123.192 276.42 123.192C277.46 123.192 278.34 122.824 278.98 122.12V123ZM278.98 121.368C278.516 122.008 277.7 122.328 276.852 122.328C275.732 122.328 274.948 121.624 274.948 120.648C274.948 119.656 275.732 118.952 276.852 118.952C277.7 118.952 278.516 119.272 278.98 119.912V121.368ZM292.471 123H293.671V112.328H292.471V116.44C291.847 115.592 290.903 115.08 289.863 115.08C287.831 115.08 286.423 116.68 286.423 119.144C286.423 121.656 287.847 123.192 289.863 123.192C290.951 123.192 291.895 122.632 292.471 121.848V123ZM292.471 120.904C292.039 121.576 291.111 122.12 290.151 122.12C288.599 122.12 287.671 120.856 287.671 119.144C287.671 117.432 288.599 116.152 290.151 116.152C291.111 116.152 292.039 116.728 292.471 117.4V120.904ZM296.746 113.976C297.194 113.976 297.562 113.608 297.562 113.16C297.562 112.712 297.194 112.36 296.746 112.36C296.314 112.36 295.946 112.712 295.946 113.16C295.946 113.608 296.314 113.976 296.746 113.976ZM296.154 123H297.354V115.272H296.154V123ZM299.156 121.976C299.94 122.808 301.012 123.192 302.276 123.192C304.276 123.192 305.316 122.152 305.316 120.856C305.316 119.144 303.764 118.76 302.42 118.456C301.412 118.216 300.532 117.976 300.532 117.224C300.532 116.536 301.188 116.056 302.244 116.056C303.236 116.056 304.084 116.472 304.548 117.032L305.108 116.2C304.484 115.576 303.556 115.08 302.244 115.08C300.404 115.08 299.364 116.104 299.364 117.304C299.364 118.904 300.852 119.256 302.164 119.56C303.204 119.816 304.148 120.088 304.148 120.936C304.148 121.688 303.508 122.216 302.324 122.216C301.268 122.216 300.292 121.704 299.78 121.112L299.156 121.976ZM308.545 125.944V121.832C309.169 122.696 310.097 123.192 311.153 123.192C313.185 123.192 314.593 121.624 314.593 119.128C314.593 116.616 313.185 115.08 311.153 115.08C310.065 115.08 309.105 115.64 308.545 116.424V115.272H307.345V125.944H308.545ZM313.329 119.128C313.329 120.84 312.401 122.12 310.849 122.12C309.905 122.12 308.961 121.544 308.545 120.872V117.384C308.961 116.712 309.905 116.152 310.849 116.152C312.401 116.152 313.329 117.416 313.329 119.128ZM321.829 123H323.029V115.272H321.829V120.952C321.381 121.576 320.485 122.12 319.541 122.12C318.501 122.12 317.813 121.72 317.813 120.36V115.272H316.613V120.728C316.613 122.408 317.461 123.192 319.077 123.192C320.229 123.192 321.237 122.584 321.829 121.912V123ZM327.457 123.192C328.161 123.192 328.593 122.984 328.897 122.696L328.545 121.8C328.385 121.976 328.065 122.12 327.729 122.12C327.201 122.12 326.945 121.704 326.945 121.128V116.328H328.513V115.272H326.945V113.16H325.745V115.272H324.465V116.328H325.745V121.384C325.745 122.536 326.321 123.192 327.457 123.192ZM329.84 119.128C329.84 121.544 331.488 123.192 333.776 123.192C335.04 123.192 336.08 122.776 336.848 122.008L336.272 121.224C335.664 121.848 334.768 122.2 333.888 122.2C332.224 122.2 331.2 120.984 331.104 119.528H337.36V119.224C337.36 116.904 335.984 115.08 333.648 115.08C331.44 115.08 329.84 116.888 329.84 119.128ZM333.632 116.072C335.392 116.072 336.16 117.496 336.176 118.648H331.104C331.168 117.464 331.984 116.072 333.632 116.072ZM343.589 123H344.789V117.528C345.141 116.904 346.149 116.296 346.885 116.296C347.077 116.296 347.221 116.312 347.365 116.344V115.112C346.309 115.112 345.413 115.704 344.789 116.52V115.272H343.589V123ZM348.502 119.128C348.502 121.544 350.15 123.192 352.438 123.192C353.702 123.192 354.742 122.776 355.51 122.008L354.934 121.224C354.326 121.848 353.43 122.2 352.55 122.2C350.886 122.2 349.862 120.984 349.766 119.528H356.022V119.224C356.022 116.904 354.646 115.08 352.31 115.08C350.102 115.08 348.502 116.888 348.502 119.128ZM352.294 116.072C354.054 116.072 354.822 117.496 354.838 118.648H349.766C349.83 117.464 350.646 116.072 352.294 116.072ZM362.878 123H364.078V117.688C364.078 115.816 362.718 115.08 361.086 115.08C359.822 115.08 358.83 115.496 357.998 116.36L358.558 117.192C359.246 116.456 359.998 116.12 360.926 116.12C362.046 116.12 362.878 116.712 362.878 117.752V119.144C362.254 118.424 361.374 118.088 360.318 118.088C359.006 118.088 357.614 118.904 357.614 120.632C357.614 122.312 359.006 123.192 360.318 123.192C361.358 123.192 362.238 122.824 362.878 122.12V123ZM362.878 121.368C362.414 122.008 361.598 122.328 360.75 122.328C359.63 122.328 358.846 121.624 358.846 120.648C358.846 119.656 359.63 118.952 360.75 118.952C361.598 118.952 362.414 119.272 362.878 119.912V121.368ZM365.891 121.976C366.675 122.808 367.747 123.192 369.011 123.192C371.011 123.192 372.051 122.152 372.051 120.856C372.051 119.144 370.499 118.76 369.155 118.456C368.147 118.216 367.267 117.976 367.267 117.224C367.267 116.536 367.923 116.056 368.979 116.056C369.971 116.056 370.819 116.472 371.283 117.032L371.843 116.2C371.219 115.576 370.291 115.08 368.979 115.08C367.139 115.08 366.099 116.104 366.099 117.304C366.099 118.904 367.587 119.256 368.899 119.56C369.939 119.816 370.883 120.088 370.883 120.936C370.883 121.688 370.243 122.216 369.059 122.216C368.003 122.216 367.027 121.704 366.515 121.112L365.891 121.976ZM377.457 123.192C379.809 123.192 381.281 121.368 381.281 119.128C381.281 116.888 379.809 115.08 377.457 115.08C375.105 115.08 373.633 116.888 373.633 119.128C373.633 121.368 375.105 123.192 377.457 123.192ZM377.457 122.12C375.809 122.12 374.881 120.712 374.881 119.128C374.881 117.56 375.809 116.152 377.457 116.152C379.105 116.152 380.017 117.56 380.017 119.128C380.017 120.712 379.105 122.12 377.457 122.12ZM388.533 123H389.733V117.576C389.733 115.896 388.885 115.08 387.269 115.08C386.117 115.08 385.061 115.752 384.517 116.392V115.272H383.317V123H384.517V117.352C384.965 116.728 385.861 116.152 386.805 116.152C387.845 116.152 388.533 116.584 388.533 117.944V123Z" fill="#333333"/>
<path d="M176.136 87H180.104C183.432 87 185.688 84.808 185.688 81.672C185.688 78.536 183.432 76.328 180.104 76.328H176.136V87ZM178.008 85.352V77.976H180.104C182.488 77.976 183.768 79.608 183.768 81.672C183.768 83.688 182.424 85.352 180.104 85.352H178.008ZM188.359 77.992C188.935 77.992 189.399 77.528 189.399 76.952C189.399 76.376 188.935 75.912 188.359 75.912C187.799 75.912 187.319 76.376 187.319 76.952C187.319 77.528 187.799 77.992 188.359 77.992ZM187.527 87H189.207V79.272H187.527V87ZM190.795 85.992C191.595 86.776 192.795 87.192 194.107 87.192C196.187 87.192 197.323 86.152 197.323 84.792C197.323 82.968 195.675 82.584 194.331 82.296C193.419 82.088 192.651 81.88 192.651 81.288C192.651 80.744 193.211 80.424 194.091 80.424C195.051 80.424 195.915 80.824 196.379 81.352L197.083 80.168C196.379 79.544 195.387 79.08 194.075 79.08C192.123 79.08 191.035 80.168 191.035 81.432C191.035 83.16 192.619 83.512 193.947 83.8C194.891 84.008 195.707 84.248 195.707 84.92C195.707 85.496 195.195 85.864 194.187 85.864C193.179 85.864 192.107 85.336 191.563 84.776L190.795 85.992ZM200.774 89.944V85.928C201.398 86.76 202.278 87.192 203.254 87.192C205.254 87.192 206.678 85.672 206.678 83.128C206.678 80.584 205.254 79.08 203.254 79.08C202.246 79.08 201.35 79.56 200.774 80.328V79.272H199.094V89.944H200.774ZM204.934 83.128C204.934 84.632 204.086 85.704 202.758 85.704C201.974 85.704 201.142 85.224 200.774 84.664V81.608C201.142 81.032 201.974 80.568 202.758 80.568C204.086 80.568 204.934 81.64 204.934 83.128ZM213.671 87H215.351V79.272H213.671V84.696C213.271 85.224 212.535 85.704 211.687 85.704C210.743 85.704 210.135 85.336 210.135 84.136V79.272H208.455V84.744C208.455 86.328 209.271 87.192 210.935 87.192C212.151 87.192 213.111 86.6 213.671 85.976V87ZM219.933 87.192C220.717 87.192 221.213 86.984 221.517 86.696L221.117 85.432C220.989 85.576 220.685 85.704 220.365 85.704C219.885 85.704 219.629 85.32 219.629 84.792V80.744H221.197V79.272H219.629V77.16H217.949V79.272H216.669V80.744H217.949V85.208C217.949 86.488 218.637 87.192 219.933 87.192ZM222.322 83.128C222.322 85.576 224.05 87.192 226.37 87.192C227.602 87.192 228.738 86.808 229.506 86.072L228.738 84.968C228.194 85.512 227.298 85.816 226.546 85.816C225.09 85.816 224.21 84.856 224.082 83.688H230.05V83.288C230.05 80.856 228.562 79.08 226.242 79.08C223.954 79.08 222.322 80.888 222.322 83.128ZM226.242 80.456C227.762 80.456 228.386 81.592 228.418 82.504H224.066C224.146 81.56 224.802 80.456 226.242 80.456ZM236.81 77.992C237.386 77.992 237.85 77.528 237.85 76.952C237.85 76.376 237.386 75.912 236.81 75.912C236.25 75.912 235.77 76.376 235.77 76.952C235.77 77.528 236.25 77.992 236.81 77.992ZM235.978 87H237.658V79.272H235.978V87ZM245.133 87H246.813V81.56C246.813 79.976 245.981 79.08 244.317 79.08C243.101 79.08 242.109 79.72 241.597 80.328V79.272H239.917V87H241.597V81.608C241.981 81.08 242.717 80.568 243.581 80.568C244.525 80.568 245.133 80.968 245.133 82.168V87ZM249.476 87H251.156V80.744H252.724V79.272H251.156V78.84C251.156 77.976 251.572 77.544 252.228 77.544C252.468 77.544 252.708 77.592 252.9 77.704L253.268 76.472C252.932 76.28 252.452 76.168 251.924 76.168C250.5 76.168 249.476 77.112 249.476 78.84V79.272H248.196V80.744H249.476V87ZM254.077 87H255.757V81.736C256.093 81.192 257.037 80.712 257.741 80.712C257.949 80.712 258.125 80.728 258.269 80.76V79.096C257.261 79.096 256.333 79.672 255.757 80.408V79.272H254.077V87ZM264.424 87H266.104V81.88C266.104 79.8 264.6 79.08 262.888 79.08C261.656 79.08 260.536 79.48 259.64 80.328L260.328 81.496C261 80.84 261.752 80.52 262.616 80.52C263.688 80.52 264.424 81.064 264.424 81.96V83.112C263.864 82.456 262.968 82.12 261.928 82.12C260.664 82.12 259.24 82.856 259.24 84.632C259.24 86.344 260.664 87.192 261.928 87.192C262.952 87.192 263.848 86.824 264.424 86.168V87ZM264.424 85.24C264.04 85.768 263.32 86.04 262.584 86.04C261.64 86.04 260.936 85.496 260.936 84.664C260.936 83.816 261.64 83.272 262.584 83.272C263.32 83.272 264.04 83.544 264.424 84.072V85.24ZM267.882 83.128C267.882 85.48 269.53 87.192 271.882 87.192C273.386 87.192 274.298 86.552 274.842 85.816L273.738 84.792C273.306 85.384 272.714 85.704 271.962 85.704C270.554 85.704 269.626 84.632 269.626 83.128C269.626 81.624 270.554 80.568 271.962 80.568C272.714 80.568 273.306 80.872 273.738 81.48L274.842 80.456C274.298 79.72 273.386 79.08 271.882 79.08C269.53 79.08 267.882 80.792 267.882 83.128ZM278.716 87.192C279.5 87.192 279.996 86.984 280.3 86.696L279.9 85.432C279.772 85.576 279.468 85.704 279.148 85.704C278.668 85.704 278.412 85.32 278.412 84.792V80.744H279.98V79.272H278.412V77.16H276.732V79.272H275.452V80.744H276.732V85.208C276.732 86.488 277.42 87.192 278.716 87.192ZM282.417 77.992C282.993 77.992 283.457 77.528 283.457 76.952C283.457 76.376 282.993 75.912 282.417 75.912C281.857 75.912 281.377 76.376 281.377 76.952C281.377 77.528 281.857 77.992 282.417 77.992ZM281.585 87H283.265V79.272H281.585V87ZM289.012 87.192C291.492 87.192 292.996 85.352 292.996 83.128C292.996 80.92 291.492 79.08 289.012 79.08C286.564 79.08 285.044 80.92 285.044 83.128C285.044 85.352 286.564 87.192 289.012 87.192ZM289.012 85.704C287.588 85.704 286.788 84.504 286.788 83.128C286.788 81.768 287.588 80.568 289.012 80.568C290.452 80.568 291.252 81.768 291.252 83.128C291.252 84.504 290.452 85.704 289.012 85.704ZM299.992 87H301.672V81.56C301.672 79.976 300.84 79.08 299.176 79.08C297.96 79.08 296.968 79.72 296.456 80.328V79.272H294.776V87H296.456V81.608C296.84 81.08 297.576 80.568 298.44 80.568C299.384 80.568 299.992 80.968 299.992 82.168V87Z" fill="#333333"/>
<rect x="175" y="160" width="375" height="49" fill="white"/>
<rect x="175" y="225" width="375" height="216" fill="white"/>
<path d="M523 183.523L517.795 188.694C517.384 189.102 516.719 189.102 516.309 188.694C515.897 188.286 515.897 187.624 516.308 187.217L522.257 181.306C522.667 180.898 523.333 180.898 523.743 181.306L529.692 187.217C530.103 187.624 530.103 188.286 529.692 188.693C529.281 189.102 528.616 189.102 528.205 188.694L523 183.523Z" fill="#4A5F6E"/>
<path d="M198.888 263H200.216V253.512H203.608V252.328H195.512V253.512H198.888V263ZM210.637 263H211.837V257.544C211.837 255.864 210.989 255.08 209.373 255.08C208.205 255.08 207.149 255.752 206.605 256.392V252.328H205.405V263H206.605V257.352C207.069 256.728 207.965 256.152 208.893 256.152C209.933 256.152 210.637 256.552 210.637 257.912V263ZM213.865 259.128C213.865 261.544 215.513 263.192 217.801 263.192C219.065 263.192 220.105 262.776 220.873 262.008L220.297 261.224C219.689 261.848 218.793 262.2 217.913 262.2C216.249 262.2 215.225 260.984 215.129 259.528H221.385V259.224C221.385 256.904 220.009 255.08 217.673 255.08C215.465 255.08 213.865 256.888 213.865 259.128ZM217.657 256.072C219.417 256.072 220.185 257.496 220.201 258.648H215.129C215.193 257.464 216.009 256.072 217.657 256.072ZM227.166 259.128C227.166 261.432 228.718 263.192 231.022 263.192C232.43 263.192 233.262 262.616 233.854 261.848L233.054 261.112C232.542 261.8 231.886 262.12 231.086 262.12C229.438 262.12 228.414 260.84 228.414 259.128C228.414 257.416 229.438 256.152 231.086 256.152C231.886 256.152 232.542 256.456 233.054 257.16L233.854 256.424C233.262 255.656 232.43 255.08 231.022 255.08C228.718 255.08 227.166 256.84 227.166 259.128ZM238.992 263.192C241.344 263.192 242.816 261.368 242.816 259.128C242.816 256.888 241.344 255.08 238.992 255.08C236.64 255.08 235.168 256.888 235.168 259.128C235.168 261.368 236.64 263.192 238.992 263.192ZM238.992 262.12C237.344 262.12 236.416 260.712 236.416 259.128C236.416 257.56 237.344 256.152 238.992 256.152C240.64 256.152 241.552 257.56 241.552 259.128C241.552 260.712 240.64 262.12 238.992 262.12ZM250.068 263H251.268V257.576C251.268 255.896 250.42 255.08 248.804 255.08C247.652 255.08 246.596 255.752 246.052 256.392V255.272H244.852V263H246.052V257.352C246.5 256.728 247.396 256.152 248.34 256.152C249.38 256.152 250.068 256.584 250.068 257.944V263ZM254.08 263H255.28V256.328H256.848V255.272H255.28V254.68C255.28 253.704 255.712 253.16 256.496 253.16C256.8 253.16 257.008 253.24 257.184 253.352L257.488 252.44C257.184 252.248 256.768 252.168 256.32 252.168C254.976 252.168 254.08 253.08 254.08 254.68V255.272H252.8V256.328H254.08V263ZM258.864 253.976C259.312 253.976 259.68 253.608 259.68 253.16C259.68 252.712 259.312 252.36 258.864 252.36C258.432 252.36 258.064 252.712 258.064 253.16C258.064 253.608 258.432 253.976 258.864 253.976ZM258.272 263H259.472V255.272H258.272V263ZM261.949 263H263.149V257.528C263.501 256.904 264.509 256.296 265.245 256.296C265.437 256.296 265.581 256.312 265.725 256.344V255.112C264.669 255.112 263.773 255.704 263.149 256.52V255.272H261.949V263ZM276.639 263H277.839V257.416C277.839 255.864 277.087 255.08 275.679 255.08C274.559 255.08 273.519 255.816 273.087 256.52C272.863 255.72 272.191 255.08 271.007 255.08C269.871 255.08 268.831 255.896 268.511 256.392V255.272H267.311V263H268.511V257.352C268.927 256.728 269.759 256.152 270.543 256.152C271.551 256.152 271.967 256.776 271.967 257.752V263H273.167V257.336C273.567 256.728 274.415 256.152 275.215 256.152C276.207 256.152 276.639 256.776 276.639 257.752V263ZM279.865 259.128C279.865 261.544 281.513 263.192 283.801 263.192C285.065 263.192 286.105 262.776 286.873 262.008L286.297 261.224C285.689 261.848 284.793 262.2 283.913 262.2C282.249 262.2 281.225 260.984 281.129 259.528H287.385V259.224C287.385 256.904 286.009 255.08 283.673 255.08C281.465 255.08 279.865 256.888 279.865 259.128ZM283.657 256.072C285.417 256.072 286.185 257.496 286.201 258.648H281.129C281.193 257.464 282.009 256.072 283.657 256.072ZM295.008 263H296.208V252.328H295.008V256.44C294.384 255.592 293.44 255.08 292.4 255.08C290.368 255.08 288.96 256.68 288.96 259.144C288.96 261.656 290.384 263.192 292.4 263.192C293.488 263.192 294.432 262.632 295.008 261.848V263ZM295.008 260.904C294.576 261.576 293.648 262.12 292.688 262.12C291.136 262.12 290.208 260.856 290.208 259.144C290.208 257.432 291.136 256.152 292.688 256.152C293.648 256.152 294.576 256.728 295.008 257.4V260.904ZM303.232 263H304.432V256.328H306V255.272H304.432V254.68C304.432 253.704 304.864 253.16 305.648 253.16C305.92 253.16 306.144 253.224 306.336 253.336L306.64 252.44C306.336 252.248 305.92 252.168 305.472 252.168C304.128 252.168 303.232 253.08 303.232 254.68V255.272H301.952V256.328H303.232V263ZM312.724 263H313.924V255.272H312.724V260.952C312.276 261.576 311.38 262.12 310.436 262.12C309.396 262.12 308.708 261.72 308.708 260.36V255.272H307.508V260.728C307.508 262.408 308.356 263.192 309.972 263.192C311.124 263.192 312.132 262.584 312.724 261.912V263ZM316.4 263H317.6V252.328H316.4V263ZM320.41 263H321.61V256.328H323.178V255.272H321.61V254.68C321.61 253.704 322.042 253.16 322.826 253.16C323.13 253.16 323.338 253.24 323.514 253.352L323.818 252.44C323.514 252.248 323.098 252.168 322.65 252.168C321.306 252.168 320.41 253.08 320.41 254.68V255.272H319.13V256.328H320.41V263ZM325.194 253.976C325.642 253.976 326.01 253.608 326.01 253.16C326.01 252.712 325.642 252.36 325.194 252.36C324.762 252.36 324.394 252.712 324.394 253.16C324.394 253.608 324.762 253.976 325.194 253.976ZM324.602 263H325.802V255.272H324.602V263ZM328.279 263H329.479V252.328H328.279V263ZM331.953 263H333.153V252.328H331.953V263ZM344.954 263H346.154V257.416C346.154 255.864 345.402 255.08 343.994 255.08C342.874 255.08 341.834 255.816 341.402 256.52C341.178 255.72 340.506 255.08 339.322 255.08C338.186 255.08 337.146 255.896 336.826 256.392V255.272H335.626V263H336.826V257.352C337.242 256.728 338.074 256.152 338.858 256.152C339.866 256.152 340.282 256.776 340.282 257.752V263H341.482V257.336C341.882 256.728 342.73 256.152 343.53 256.152C344.522 256.152 344.954 256.776 344.954 257.752V263ZM348.18 259.128C348.18 261.544 349.828 263.192 352.116 263.192C353.38 263.192 354.42 262.776 355.188 262.008L354.612 261.224C354.004 261.848 353.108 262.2 352.228 262.2C350.564 262.2 349.54 260.984 349.444 259.528H355.7V259.224C355.7 256.904 354.324 255.08 351.988 255.08C349.78 255.08 348.18 256.888 348.18 259.128ZM351.972 256.072C353.732 256.072 354.5 257.496 354.516 258.648H349.444C349.508 257.464 350.324 256.072 351.972 256.072ZM362.94 263H364.14V257.576C364.14 255.896 363.292 255.08 361.676 255.08C360.524 255.08 359.468 255.752 358.924 256.392V255.272H357.724V263H358.924V257.352C359.372 256.728 360.268 256.152 361.212 256.152C362.252 256.152 362.94 256.584 362.94 257.944V263ZM368.568 263.192C369.272 263.192 369.704 262.984 370.008 262.696L369.656 261.8C369.496 261.976 369.176 262.12 368.84 262.12C368.312 262.12 368.056 261.704 368.056 261.128V256.328H369.624V255.272H368.056V253.16H366.856V255.272H365.576V256.328H366.856V261.384C366.856 262.536 367.432 263.192 368.568 263.192ZM381.204 263H382.404V252.328H381.204V256.44C380.58 255.592 379.636 255.08 378.596 255.08C376.564 255.08 375.156 256.68 375.156 259.144C375.156 261.656 376.58 263.192 378.596 263.192C379.684 263.192 380.628 262.632 381.204 261.848V263ZM381.204 260.904C380.772 261.576 379.844 262.12 378.884 262.12C377.332 262.12 376.404 260.856 376.404 259.144C376.404 257.432 377.332 256.152 378.884 256.152C379.844 256.152 380.772 256.728 381.204 257.4V260.904ZM389.72 263H390.92V257.688C390.92 255.816 389.56 255.08 387.928 255.08C386.664 255.08 385.672 255.496 384.84 256.36L385.4 257.192C386.088 256.456 386.84 256.12 387.768 256.12C388.888 256.12 389.72 256.712 389.72 257.752V259.144C389.096 258.424 388.216 258.088 387.16 258.088C385.848 258.088 384.456 258.904 384.456 260.632C384.456 262.312 385.848 263.192 387.16 263.192C388.2 263.192 389.08 262.824 389.72 262.12V263ZM389.72 261.368C389.256 262.008 388.44 262.328 387.592 262.328C386.472 262.328 385.688 261.624 385.688 260.648C385.688 259.656 386.472 258.952 387.592 258.952C388.44 258.952 389.256 259.272 389.72 259.912V261.368ZM395.357 263.192C396.061 263.192 396.493 262.984 396.797 262.696L396.445 261.8C396.285 261.976 395.965 262.12 395.629 262.12C395.101 262.12 394.845 261.704 394.845 261.128V256.328H396.413V255.272H394.845V253.16H393.645V255.272H392.365V256.328H393.645V261.384C393.645 262.536 394.221 263.192 395.357 263.192ZM397.74 259.128C397.74 261.544 399.388 263.192 401.676 263.192C402.94 263.192 403.98 262.776 404.748 262.008L404.172 261.224C403.564 261.848 402.668 262.2 401.788 262.2C400.124 262.2 399.1 260.984 399.004 259.528H405.26V259.224C405.26 256.904 403.884 255.08 401.548 255.08C399.34 255.08 397.74 256.888 397.74 259.128ZM401.532 256.072C403.292 256.072 404.06 257.496 404.076 258.648H399.004C399.068 257.464 399.884 256.072 401.532 256.072ZM412.081 253.976C412.529 253.976 412.897 253.608 412.897 253.16C412.897 252.712 412.529 252.36 412.081 252.36C411.649 252.36 411.281 252.712 411.281 253.16C411.281 253.608 411.649 253.976 412.081 253.976ZM411.489 263H412.689V255.272H411.489V263ZM414.49 261.976C415.274 262.808 416.346 263.192 417.61 263.192C419.61 263.192 420.65 262.152 420.65 260.856C420.65 259.144 419.098 258.76 417.754 258.456C416.746 258.216 415.866 257.976 415.866 257.224C415.866 256.536 416.522 256.056 417.578 256.056C418.57 256.056 419.418 256.472 419.882 257.032L420.442 256.2C419.818 255.576 418.89 255.08 417.578 255.08C415.738 255.08 414.698 256.104 414.698 257.304C414.698 258.904 416.186 259.256 417.498 259.56C418.538 259.816 419.482 260.088 419.482 260.936C419.482 261.688 418.842 262.216 417.658 262.216C416.602 262.216 415.626 261.704 415.114 261.112L414.49 261.976ZM427.477 253.976C427.925 253.976 428.293 253.608 428.293 253.16C428.293 252.712 427.925 252.36 427.477 252.36C427.045 252.36 426.677 252.712 426.677 253.16C426.677 253.608 427.045 253.976 427.477 253.976ZM426.885 263H428.085V255.272H426.885V263ZM435.775 263H436.975V257.576C436.975 255.896 436.127 255.08 434.511 255.08C433.359 255.08 432.303 255.752 431.759 256.392V255.272H430.559V263H431.759V257.352C432.207 256.728 433.103 256.152 434.047 256.152C435.087 256.152 435.775 256.584 435.775 257.944V263ZM444.283 263H445.483V257.688C445.483 255.816 444.123 255.08 442.491 255.08C441.227 255.08 440.235 255.496 439.403 256.36L439.963 257.192C440.651 256.456 441.403 256.12 442.331 256.12C443.451 256.12 444.283 256.712 444.283 257.752V259.144C443.659 258.424 442.779 258.088 441.723 258.088C440.411 258.088 439.019 258.904 439.019 260.632C439.019 262.312 440.411 263.192 441.723 263.192C442.763 263.192 443.643 262.824 444.283 262.12V263ZM444.283 261.368C443.819 262.008 443.003 262.328 442.155 262.328C441.035 262.328 440.251 261.624 440.251 260.648C440.251 259.656 441.035 258.952 442.155 258.952C443.003 258.952 443.819 259.272 444.283 259.912V261.368ZM447.521 259.128C447.521 261.432 449.073 263.192 451.377 263.192C452.785 263.192 453.617 262.616 454.209 261.848L453.409 261.112C452.897 261.8 452.241 262.12 451.441 262.12C449.793 262.12 448.769 260.84 448.769 259.128C448.769 257.416 449.793 256.152 451.441 256.152C452.241 256.152 452.897 256.456 453.409 257.16L454.209 256.424C453.617 255.656 452.785 255.08 451.377 255.08C449.073 255.08 447.521 256.84 447.521 259.128ZM455.523 259.128C455.523 261.432 457.075 263.192 459.379 263.192C460.787 263.192 461.619 262.616 462.211 261.848L461.411 261.112C460.899 261.8 460.243 262.12 459.443 262.12C457.795 262.12 456.771 260.84 456.771 259.128C456.771 257.416 457.795 256.152 459.443 256.152C460.243 256.152 460.899 256.456 461.411 257.16L462.211 256.424C461.619 255.656 460.787 255.08 459.379 255.08C457.075 255.08 455.523 256.84 455.523 259.128ZM469.188 263H470.388V255.272H469.188V260.952C468.74 261.576 467.844 262.12 466.9 262.12C465.86 262.12 465.172 261.72 465.172 260.36V255.272H463.972V260.728C463.972 262.408 464.82 263.192 466.436 263.192C467.588 263.192 468.596 262.584 469.188 261.912V263ZM472.865 263H474.065V257.528C474.417 256.904 475.425 256.296 476.161 256.296C476.353 256.296 476.497 256.312 476.641 256.344V255.112C475.585 255.112 474.689 255.704 474.065 256.52V255.272H472.865V263ZM483.058 263H484.258V257.688C484.258 255.816 482.898 255.08 481.266 255.08C480.002 255.08 479.01 255.496 478.178 256.36L478.738 257.192C479.426 256.456 480.178 256.12 481.106 256.12C482.226 256.12 483.058 256.712 483.058 257.752V259.144C482.434 258.424 481.554 258.088 480.498 258.088C479.186 258.088 477.794 258.904 477.794 260.632C477.794 262.312 479.186 263.192 480.498 263.192C481.538 263.192 482.418 262.824 483.058 262.12V263ZM483.058 261.368C482.594 262.008 481.778 262.328 480.93 262.328C479.81 262.328 479.026 261.624 479.026 260.648C479.026 259.656 479.81 258.952 480.93 258.952C481.778 258.952 482.594 259.272 483.058 259.912V261.368ZM488.696 263.192C489.4 263.192 489.832 262.984 490.136 262.696L489.784 261.8C489.624 261.976 489.304 262.12 488.968 262.12C488.44 262.12 488.184 261.704 488.184 261.128V256.328H489.752V255.272H488.184V253.16H486.984V255.272H485.704V256.328H486.984V261.384C486.984 262.536 487.56 263.192 488.696 263.192ZM491.079 259.128C491.079 261.544 492.727 263.192 495.015 263.192C496.279 263.192 497.319 262.776 498.087 262.008L497.511 261.224C496.903 261.848 496.007 262.2 495.127 262.2C493.463 262.2 492.439 260.984 492.343 259.528H498.599V259.224C498.599 256.904 497.223 255.08 494.887 255.08C492.679 255.08 491.079 256.888 491.079 259.128ZM494.871 256.072C496.631 256.072 497.399 257.496 497.415 258.648H492.343C492.407 257.464 493.223 256.072 494.871 256.072ZM196.536 283H197.736V276.328H199.304V275.272H197.736V274.68C197.736 273.704 198.168 273.16 198.952 273.16C199.224 273.16 199.448 273.224 199.64 273.336L199.944 272.44C199.64 272.248 199.224 272.168 198.776 272.168C197.432 272.168 196.536 273.08 196.536 274.68V275.272H195.256V276.328H196.536V283ZM200.811 283H202.011V277.528C202.363 276.904 203.371 276.296 204.107 276.296C204.299 276.296 204.443 276.312 204.587 276.344V275.112C203.531 275.112 202.635 275.704 202.011 276.52V275.272H200.811V283ZM209.549 283.192C211.901 283.192 213.373 281.368 213.373 279.128C213.373 276.888 211.901 275.08 209.549 275.08C207.197 275.08 205.724 276.888 205.724 279.128C205.724 281.368 207.197 283.192 209.549 283.192ZM209.549 282.12C207.901 282.12 206.972 280.712 206.972 279.128C206.972 277.56 207.901 276.152 209.549 276.152C211.197 276.152 212.109 277.56 212.109 279.128C212.109 280.712 211.197 282.12 209.549 282.12ZM224.737 283H225.937V277.416C225.937 275.864 225.185 275.08 223.777 275.08C222.657 275.08 221.617 275.816 221.185 276.52C220.961 275.72 220.289 275.08 219.105 275.08C217.969 275.08 216.929 275.896 216.609 276.392V275.272H215.409V283H216.609V277.352C217.025 276.728 217.857 276.152 218.641 276.152C219.649 276.152 220.065 276.776 220.065 277.752V283H221.265V277.336C221.665 276.728 222.513 276.152 223.313 276.152C224.305 276.152 224.737 276.776 224.737 277.752V283ZM239.304 283H240.504L242.968 275.272H241.72L239.832 281.432L237.8 275.272H236.776L234.744 281.432L232.856 275.272H231.608L234.072 283H235.272L237.288 276.792L239.304 283ZM249.678 283H250.878V277.544C250.878 275.864 250.03 275.08 248.414 275.08C247.246 275.08 246.19 275.752 245.646 276.392V272.328H244.446V283H245.646V277.352C246.11 276.728 247.006 276.152 247.934 276.152C248.974 276.152 249.678 276.552 249.678 277.912V283ZM258.186 283H259.386V277.688C259.386 275.816 258.026 275.08 256.394 275.08C255.13 275.08 254.138 275.496 253.306 276.36L253.866 277.192C254.554 276.456 255.306 276.12 256.234 276.12C257.354 276.12 258.186 276.712 258.186 277.752V279.144C257.562 278.424 256.682 278.088 255.626 278.088C254.314 278.088 252.922 278.904 252.922 280.632C252.922 282.312 254.314 283.192 255.626 283.192C256.666 283.192 257.546 282.824 258.186 282.12V283ZM258.186 281.368C257.722 282.008 256.906 282.328 256.058 282.328C254.938 282.328 254.154 281.624 254.154 280.648C254.154 279.656 254.938 278.952 256.058 278.952C256.906 278.952 257.722 279.272 258.186 279.912V281.368ZM263.823 283.192C264.527 283.192 264.959 282.984 265.263 282.696L264.911 281.8C264.751 281.976 264.431 282.12 264.095 282.12C263.567 282.12 263.311 281.704 263.311 281.128V276.328H264.879V275.272H263.311V273.16H262.111V275.272H260.831V276.328H262.111V281.384C262.111 282.536 262.687 283.192 263.823 283.192ZM272.811 283.192C273.515 283.192 273.947 282.984 274.251 282.696L273.899 281.8C273.739 281.976 273.419 282.12 273.083 282.12C272.555 282.12 272.299 281.704 272.299 281.128V276.328H273.867V275.272H272.299V273.16H271.099V275.272H269.819V276.328H271.099V281.384C271.099 282.536 271.675 283.192 272.811 283.192ZM280.874 283H282.074V277.544C282.074 275.864 281.226 275.08 279.61 275.08C278.442 275.08 277.386 275.752 276.842 276.392V272.328H275.642V283H276.842V277.352C277.306 276.728 278.202 276.152 279.13 276.152C280.17 276.152 280.874 276.552 280.874 277.912V283ZM284.103 279.128C284.103 281.544 285.751 283.192 288.039 283.192C289.303 283.192 290.343 282.776 291.111 282.008L290.535 281.224C289.927 281.848 289.031 282.2 288.151 282.2C286.487 282.2 285.463 280.984 285.367 279.528H291.623V279.224C291.623 276.904 290.247 275.08 287.911 275.08C285.703 275.08 284.103 276.888 284.103 279.128ZM287.895 276.072C289.655 276.072 290.423 277.496 290.439 278.648H285.367C285.431 277.464 286.247 276.072 287.895 276.072ZM297.403 279.128C297.403 281.432 298.955 283.192 301.259 283.192C302.667 283.192 303.499 282.616 304.091 281.848L303.291 281.112C302.779 281.8 302.123 282.12 301.323 282.12C299.675 282.12 298.651 280.84 298.651 279.128C298.651 277.416 299.675 276.152 301.323 276.152C302.123 276.152 302.779 276.456 303.291 277.16L304.091 276.424C303.499 275.656 302.667 275.08 301.259 275.08C298.955 275.08 297.403 276.84 297.403 279.128ZM310.685 283H311.885V277.688C311.885 275.816 310.525 275.08 308.893 275.08C307.629 275.08 306.637 275.496 305.805 276.36L306.365 277.192C307.053 276.456 307.805 276.12 308.733 276.12C309.853 276.12 310.685 276.712 310.685 277.752V279.144C310.061 278.424 309.181 278.088 308.125 278.088C306.813 278.088 305.421 278.904 305.421 280.632C305.421 282.312 306.813 283.192 308.125 283.192C309.165 283.192 310.045 282.824 310.685 282.12V283ZM310.685 281.368C310.221 282.008 309.405 282.328 308.557 282.328C307.437 282.328 306.653 281.624 306.653 280.648C306.653 279.656 307.437 278.952 308.557 278.952C309.405 278.952 310.221 279.272 310.685 279.912V281.368ZM314.371 283H315.571V277.528C315.923 276.904 316.931 276.296 317.667 276.296C317.859 276.296 318.003 276.312 318.147 276.344V275.112C317.091 275.112 316.195 275.704 315.571 276.52V275.272H314.371V283ZM319.732 283H320.932V277.528C321.284 276.904 322.292 276.296 323.028 276.296C323.22 276.296 323.364 276.312 323.508 276.344V275.112C322.452 275.112 321.556 275.704 320.932 276.52V275.272H319.732V283ZM325.685 273.976C326.133 273.976 326.501 273.608 326.501 273.16C326.501 272.712 326.133 272.36 325.685 272.36C325.253 272.36 324.885 272.712 324.885 273.16C324.885 273.608 325.253 273.976 325.685 273.976ZM325.093 283H326.293V275.272H325.093V283ZM328.319 279.128C328.319 281.544 329.967 283.192 332.255 283.192C333.519 283.192 334.559 282.776 335.327 282.008L334.751 281.224C334.143 281.848 333.247 282.2 332.367 282.2C330.703 282.2 329.679 280.984 329.583 279.528H335.839V279.224C335.839 276.904 334.463 275.08 332.127 275.08C329.919 275.08 328.319 276.888 328.319 279.128ZM332.111 276.072C333.871 276.072 334.639 277.496 334.655 278.648H329.583C329.647 277.464 330.463 276.072 332.111 276.072ZM337.863 283H339.063V277.528C339.415 276.904 340.423 276.296 341.159 276.296C341.351 276.296 341.495 276.312 341.639 276.344V275.112C340.583 275.112 339.687 275.704 339.063 276.52V275.272H337.863V283ZM354.117 283H355.317L357.781 275.272H356.533L354.645 281.432L352.613 275.272H351.589L349.557 281.432L347.669 275.272H346.421L348.885 283H350.085L352.101 276.792L354.117 283ZM358.811 279.128C358.811 281.544 360.459 283.192 362.747 283.192C364.011 283.192 365.051 282.776 365.819 282.008L365.243 281.224C364.635 281.848 363.739 282.2 362.859 282.2C361.195 282.2 360.171 280.984 360.075 279.528H366.331V279.224C366.331 276.904 364.955 275.08 362.619 275.08C360.411 275.08 358.811 276.888 358.811 279.128ZM362.603 276.072C364.363 276.072 365.131 277.496 365.147 278.648H360.075C360.139 277.464 360.955 276.072 362.603 276.072ZM368.354 283H369.554V281.848C370.13 282.632 371.074 283.192 372.162 283.192C374.178 283.192 375.602 281.656 375.602 279.144C375.602 276.68 374.178 275.08 372.162 275.08C371.106 275.08 370.178 275.592 369.554 276.44V272.328H368.354V283ZM369.554 280.904V277.4C369.97 276.728 370.914 276.152 371.858 276.152C373.426 276.152 374.354 277.432 374.354 279.144C374.354 280.856 373.426 282.12 371.858 282.12C370.914 282.12 369.97 281.576 369.554 280.904ZM376.965 281.976C377.75 282.808 378.822 283.192 380.086 283.192C382.086 283.192 383.126 282.152 383.126 280.856C383.126 279.144 381.574 278.76 380.23 278.456C379.222 278.216 378.342 277.976 378.342 277.224C378.342 276.536 378.998 276.056 380.054 276.056C381.046 276.056 381.894 276.472 382.358 277.032L382.918 276.2C382.294 275.576 381.366 275.08 380.054 275.08C378.214 275.08 377.174 276.104 377.174 277.304C377.174 278.904 378.662 279.256 379.974 279.56C381.014 279.816 381.958 280.088 381.958 280.936C381.958 281.688 381.318 282.216 380.134 282.216C379.078 282.216 378.102 281.704 377.59 281.112L376.965 281.976ZM385.747 273.976C386.195 273.976 386.563 273.608 386.563 273.16C386.563 272.712 386.195 272.36 385.747 272.36C385.315 272.36 384.947 272.712 384.947 273.16C384.947 273.608 385.315 273.976 385.747 273.976ZM385.155 283H386.355V275.272H385.155V283ZM390.781 283.192C391.485 283.192 391.917 282.984 392.221 282.696L391.869 281.8C391.709 281.976 391.389 282.12 391.053 282.12C390.525 282.12 390.269 281.704 390.269 281.128V276.328H391.837V275.272H390.269V273.16H389.069V275.272H387.789V276.328H389.069V281.384C389.069 282.536 389.645 283.192 390.781 283.192ZM393.164 279.128C393.164 281.544 394.812 283.192 397.1 283.192C398.364 283.192 399.404 282.776 400.172 282.008L399.596 281.224C398.988 281.848 398.092 282.2 397.212 282.2C395.548 282.2 394.524 280.984 394.428 279.528H400.684V279.224C400.684 276.904 399.308 275.08 396.972 275.08C394.764 275.08 393.164 276.888 393.164 279.128ZM396.956 276.072C398.716 276.072 399.484 277.496 399.5 278.648H394.428C394.492 277.464 395.308 276.072 396.956 276.072ZM406.24 281.976C407.024 282.808 408.096 283.192 409.36 283.192C411.36 283.192 412.4 282.152 412.4 280.856C412.4 279.144 410.848 278.76 409.504 278.456C408.496 278.216 407.616 277.976 407.616 277.224C407.616 276.536 408.272 276.056 409.328 276.056C410.32 276.056 411.168 276.472 411.632 277.032L412.192 276.2C411.568 275.576 410.64 275.08 409.328 275.08C407.488 275.08 406.448 276.104 406.448 277.304C406.448 278.904 407.936 279.256 409.248 279.56C410.288 279.816 411.232 280.088 411.232 280.936C411.232 281.688 410.592 282.216 409.408 282.216C408.352 282.216 407.376 281.704 406.864 281.112L406.24 281.976ZM419.662 283H420.862V277.544C420.862 275.864 420.014 275.08 418.398 275.08C417.23 275.08 416.174 275.752 415.63 276.392V272.328H414.43V283H415.63V277.352C416.094 276.728 416.99 276.152 417.918 276.152C418.958 276.152 419.662 276.552 419.662 277.912V283ZM426.714 283.192C429.066 283.192 430.538 281.368 430.538 279.128C430.538 276.888 429.066 275.08 426.714 275.08C424.362 275.08 422.89 276.888 422.89 279.128C422.89 281.368 424.362 283.192 426.714 283.192ZM426.714 282.12C425.066 282.12 424.138 280.712 424.138 279.128C424.138 277.56 425.066 276.152 426.714 276.152C428.362 276.152 429.274 277.56 429.274 279.128C429.274 280.712 428.362 282.12 426.714 282.12ZM439.262 283H440.462L442.926 275.272H441.678L439.79 281.432L437.758 275.272H436.734L434.702 281.432L432.814 275.272H431.566L434.03 283H435.23L437.246 276.792L439.262 283ZM443.732 281.976C444.516 282.808 445.588 283.192 446.852 283.192C448.852 283.192 449.892 282.152 449.892 280.856C449.892 279.144 448.34 278.76 446.996 278.456C445.988 278.216 445.108 277.976 445.108 277.224C445.108 276.536 445.764 276.056 446.82 276.056C447.812 276.056 448.66 276.472 449.124 277.032L449.684 276.2C449.06 275.576 448.132 275.08 446.82 275.08C444.98 275.08 443.94 276.104 443.94 277.304C443.94 278.904 445.428 279.256 446.74 279.56C447.78 279.816 448.724 280.088 448.724 280.936C448.724 281.688 448.084 282.216 446.9 282.216C445.844 282.216 444.868 281.704 444.356 281.112L443.732 281.976Z" fill="#333333"/>
<path d="M205.368 333H206.696V322.328H204.792L201.464 330.456L198.152 322.328H196.248V333H197.576V324.12L201.192 333H201.736L205.368 324.12V333ZM208.977 334.936L208.785 336.024C209.009 336.088 209.41 336.136 209.666 336.136C210.69 336.12 211.474 335.688 211.938 334.568L215.81 325.272H214.498L211.938 331.608L209.362 325.272H208.065L211.298 333.08L210.786 334.248C210.513 334.888 210.161 335.064 209.633 335.064C209.441 335.064 209.153 335.016 208.977 334.936ZM226.946 333H228.146V322.328H226.946V326.44C226.322 325.592 225.378 325.08 224.338 325.08C222.306 325.08 220.898 326.68 220.898 329.144C220.898 331.656 222.322 333.192 224.338 333.192C225.426 333.192 226.37 332.632 226.946 331.848V333ZM226.946 330.904C226.514 331.576 225.586 332.12 224.626 332.12C223.074 332.12 222.146 330.856 222.146 329.144C222.146 327.432 223.074 326.152 224.626 326.152C225.586 326.152 226.514 326.728 226.946 327.4V330.904ZM234.005 333.192C236.357 333.192 237.829 331.368 237.829 329.128C237.829 326.888 236.357 325.08 234.005 325.08C231.653 325.08 230.181 326.888 230.181 329.128C230.181 331.368 231.653 333.192 234.005 333.192ZM234.005 332.12C232.357 332.12 231.429 330.712 231.429 329.128C231.429 327.56 232.357 326.152 234.005 326.152C235.653 326.152 236.565 327.56 236.565 329.128C236.565 330.712 235.653 332.12 234.005 332.12ZM249.194 333H250.394V327.416C250.394 325.864 249.642 325.08 248.234 325.08C247.114 325.08 246.074 325.816 245.642 326.52C245.418 325.72 244.746 325.08 243.562 325.08C242.426 325.08 241.386 325.896 241.066 326.392V325.272H239.866V333H241.066V327.352C241.482 326.728 242.314 326.152 243.098 326.152C244.106 326.152 244.522 326.776 244.522 327.752V333H245.722V327.336C246.122 326.728 246.97 326.152 247.77 326.152C248.762 326.152 249.194 326.776 249.194 327.752V333ZM253.459 323.976C253.907 323.976 254.275 323.608 254.275 323.16C254.275 322.712 253.907 322.36 253.459 322.36C253.027 322.36 252.659 322.712 252.659 323.16C252.659 323.608 253.027 323.976 253.459 323.976ZM252.867 333H254.067V325.272H252.867V333ZM256.093 329.128C256.093 331.432 257.645 333.192 259.949 333.192C261.357 333.192 262.189 332.616 262.781 331.848L261.981 331.112C261.469 331.8 260.813 332.12 260.013 332.12C258.365 332.12 257.341 330.84 257.341 329.128C257.341 327.416 258.365 326.152 260.013 326.152C260.813 326.152 261.469 326.456 261.981 327.16L262.781 326.424C262.189 325.656 261.357 325.08 259.949 325.08C257.645 325.08 256.093 326.84 256.093 329.128ZM265.135 323.976C265.583 323.976 265.951 323.608 265.951 323.16C265.951 322.712 265.583 322.36 265.135 322.36C264.703 322.36 264.335 322.712 264.335 323.16C264.335 323.608 264.703 323.976 265.135 323.976ZM264.543 333H265.743V325.272H264.543V333ZM268.217 333H269.417V322.328H268.217V333ZM271.443 329.128C271.443 331.544 273.091 333.192 275.379 333.192C276.643 333.192 277.683 332.776 278.451 332.008L277.875 331.224C277.267 331.848 276.371 332.2 275.491 332.2C273.827 332.2 272.803 330.984 272.707 329.528H278.963V329.224C278.963 326.904 277.587 325.08 275.251 325.08C273.043 325.08 271.443 326.888 271.443 329.128ZM275.235 326.072C276.995 326.072 277.763 327.496 277.779 328.648H272.707C272.771 327.464 273.587 326.072 275.235 326.072ZM286.586 333H287.786V322.328H286.586V326.44C285.962 325.592 285.018 325.08 283.978 325.08C281.946 325.08 280.538 326.68 280.538 329.144C280.538 331.656 281.962 333.192 283.978 333.192C285.066 333.192 286.01 332.632 286.586 331.848V333ZM286.586 330.904C286.154 331.576 285.226 332.12 284.266 332.12C282.714 332.12 281.786 330.856 281.786 329.144C281.786 327.432 282.714 326.152 284.266 326.152C285.226 326.152 286.154 326.728 286.586 327.4V330.904ZM294.026 329.128C294.026 331.432 295.578 333.192 297.882 333.192C299.29 333.192 300.122 332.616 300.714 331.848L299.914 331.112C299.402 331.8 298.746 332.12 297.946 332.12C296.298 332.12 295.274 330.84 295.274 329.128C295.274 327.416 296.298 326.152 297.946 326.152C298.746 326.152 299.402 326.456 299.914 327.16L300.714 326.424C300.122 325.656 299.29 325.08 297.882 325.08C295.578 325.08 294.026 326.84 294.026 329.128ZM305.852 333.192C308.204 333.192 309.676 331.368 309.676 329.128C309.676 326.888 308.204 325.08 305.852 325.08C303.5 325.08 302.028 326.888 302.028 329.128C302.028 331.368 303.5 333.192 305.852 333.192ZM305.852 332.12C304.204 332.12 303.276 330.712 303.276 329.128C303.276 327.56 304.204 326.152 305.852 326.152C307.5 326.152 308.412 327.56 308.412 329.128C308.412 330.712 307.5 332.12 305.852 332.12ZM316.928 333H318.128V325.272H316.928V330.952C316.48 331.576 315.584 332.12 314.64 332.12C313.6 332.12 312.912 331.72 312.912 330.36V325.272H311.712V330.728C311.712 332.408 312.56 333.192 314.176 333.192C315.328 333.192 316.336 332.584 316.928 331.912V333ZM325.821 333H327.021V327.576C327.021 325.896 326.173 325.08 324.557 325.08C323.405 325.08 322.349 325.752 321.805 326.392V325.272H320.605V333H321.805V327.352C322.253 326.728 323.149 326.152 324.093 326.152C325.133 326.152 325.821 326.584 325.821 327.944V333ZM331.45 333.192C332.154 333.192 332.586 332.984 332.89 332.696L332.538 331.8C332.378 331.976 332.058 332.12 331.722 332.12C331.194 332.12 330.938 331.704 330.938 331.128V326.328H332.506V325.272H330.938V323.16H329.738V325.272H328.458V326.328H329.738V331.384C329.738 332.536 330.314 333.192 331.45 333.192ZM334.281 333H335.481V327.528C335.833 326.904 336.841 326.296 337.577 326.296C337.769 326.296 337.913 326.312 338.057 326.344V325.112C337.001 325.112 336.105 325.704 335.481 326.52V325.272H334.281V333ZM339.402 334.936L339.21 336.024C339.434 336.088 339.834 336.136 340.09 336.136C341.114 336.12 341.898 335.688 342.362 334.568L346.234 325.272H344.922L342.362 331.608L339.786 325.272H338.49L341.722 333.08L341.21 334.248C340.938 334.888 340.586 335.064 340.058 335.064C339.866 335.064 339.578 335.016 339.402 334.936ZM355.147 333.192C357.499 333.192 358.971 331.368 358.971 329.128C358.971 326.888 357.499 325.08 355.147 325.08C352.795 325.08 351.323 326.888 351.323 329.128C351.323 331.368 352.795 333.192 355.147 333.192ZM355.147 332.12C353.499 332.12 352.571 330.712 352.571 329.128C352.571 327.56 353.499 326.152 355.147 326.152C356.795 326.152 357.707 327.56 357.707 329.128C357.707 330.712 356.795 332.12 355.147 332.12ZM361.007 333H362.207V327.528C362.559 326.904 363.567 326.296 364.303 326.296C364.495 326.296 364.639 326.312 364.783 326.344V325.112C363.727 325.112 362.831 325.704 362.207 326.52V325.272H361.007V333ZM377.261 333H378.461L380.925 325.272H379.677L377.789 331.432L375.757 325.272H374.733L372.701 331.432L370.813 325.272H369.565L372.029 333H373.229L375.245 326.792L377.261 333ZM387.235 333H388.435V327.688C388.435 325.816 387.075 325.08 385.443 325.08C384.179 325.08 383.187 325.496 382.355 326.36L382.915 327.192C383.603 326.456 384.355 326.12 385.283 326.12C386.403 326.12 387.235 326.712 387.235 327.752V329.144C386.611 328.424 385.731 328.088 384.675 328.088C383.363 328.088 381.971 328.904 381.971 330.632C381.971 332.312 383.363 333.192 384.675 333.192C385.715 333.192 386.595 332.824 387.235 332.12V333ZM387.235 331.368C386.771 332.008 385.955 332.328 385.107 332.328C383.987 332.328 383.203 331.624 383.203 330.648C383.203 329.656 383.987 328.952 385.107 328.952C385.955 328.952 386.771 329.272 387.235 329.912V331.368ZM390.921 333H392.121V327.528C392.473 326.904 393.481 326.296 394.217 326.296C394.409 326.296 394.553 326.312 394.697 326.344V325.112C393.641 325.112 392.745 325.704 392.121 326.52V325.272H390.921V333ZM395.834 329.128C395.834 331.544 397.482 333.192 399.77 333.192C401.034 333.192 402.074 332.776 402.842 332.008L402.266 331.224C401.658 331.848 400.762 332.2 399.882 332.2C398.218 332.2 397.194 330.984 397.098 329.528H403.354V329.224C403.354 326.904 401.978 325.08 399.642 325.08C397.434 325.08 395.834 326.888 395.834 329.128ZM399.626 326.072C401.386 326.072 402.154 327.496 402.17 328.648H397.098C397.162 327.464 397.978 326.072 399.626 326.072ZM410.61 333H411.81V327.544C411.81 325.864 410.962 325.08 409.346 325.08C408.178 325.08 407.122 325.752 406.578 326.392V322.328H405.378V333H406.578V327.352C407.042 326.728 407.938 326.152 408.866 326.152C409.906 326.152 410.61 326.552 410.61 327.912V333ZM417.662 333.192C420.014 333.192 421.486 331.368 421.486 329.128C421.486 326.888 420.014 325.08 417.662 325.08C415.31 325.08 413.838 326.888 413.838 329.128C413.838 331.368 415.31 333.192 417.662 333.192ZM417.662 332.12C416.014 332.12 415.086 330.712 415.086 329.128C415.086 327.56 416.014 326.152 417.662 326.152C419.31 326.152 420.222 327.56 420.222 329.128C420.222 330.712 419.31 332.12 417.662 332.12ZM428.738 333H429.938V325.272H428.738V330.952C428.29 331.576 427.394 332.12 426.45 332.12C425.41 332.12 424.722 331.72 424.722 330.36V325.272H423.522V330.728C423.522 332.408 424.37 333.192 425.986 333.192C427.138 333.192 428.146 332.584 428.738 331.912V333ZM431.742 331.976C432.526 332.808 433.598 333.192 434.862 333.192C436.862 333.192 437.902 332.152 437.902 330.856C437.902 329.144 436.35 328.76 435.006 328.456C433.998 328.216 433.118 327.976 433.118 327.224C433.118 326.536 433.774 326.056 434.83 326.056C435.822 326.056 436.67 326.472 437.134 327.032L437.694 326.2C437.07 325.576 436.142 325.08 434.83 325.08C432.99 325.08 431.95 326.104 431.95 327.304C431.95 328.904 433.438 329.256 434.75 329.56C435.79 329.816 436.734 330.088 436.734 330.936C436.734 331.688 436.094 332.216 434.91 332.216C433.854 332.216 432.878 331.704 432.366 331.112L431.742 331.976ZM439.484 329.128C439.484 331.544 441.132 333.192 443.42 333.192C444.684 333.192 445.724 332.776 446.492 332.008L445.916 331.224C445.308 331.848 444.412 332.2 443.532 332.2C441.868 332.2 440.844 330.984 440.748 329.528H447.004V329.224C447.004 326.904 445.628 325.08 443.292 325.08C441.084 325.08 439.484 326.888 439.484 329.128ZM443.276 326.072C445.036 326.072 445.804 327.496 445.82 328.648H440.748C440.812 327.464 441.628 326.072 443.276 326.072ZM452.785 329.128C452.785 331.432 454.337 333.192 456.641 333.192C458.049 333.192 458.881 332.616 459.473 331.848L458.673 331.112C458.161 331.8 457.505 332.12 456.705 332.12C455.057 332.12 454.033 330.84 454.033 329.128C454.033 327.416 455.057 326.152 456.705 326.152C457.505 326.152 458.161 326.456 458.673 327.16L459.473 326.424C458.881 325.656 458.049 325.08 456.641 325.08C454.337 325.08 452.785 326.84 452.785 329.128ZM464.61 333.192C466.962 333.192 468.434 331.368 468.434 329.128C468.434 326.888 466.962 325.08 464.61 325.08C462.258 325.08 460.786 326.888 460.786 329.128C460.786 331.368 462.258 333.192 464.61 333.192ZM464.61 332.12C462.962 332.12 462.034 330.712 462.034 329.128C462.034 327.56 462.962 326.152 464.61 326.152C466.258 326.152 467.17 327.56 467.17 329.128C467.17 330.712 466.258 332.12 464.61 332.12ZM475.687 333H476.887V325.272H475.687V330.952C475.239 331.576 474.343 332.12 473.399 332.12C472.359 332.12 471.671 331.72 471.671 330.36V325.272H470.471V330.728C470.471 332.408 471.319 333.192 472.935 333.192C474.087 333.192 475.095 332.584 475.687 331.912V333ZM484.579 333H485.779V327.576C485.779 325.896 484.931 325.08 483.315 325.08C482.163 325.08 481.107 325.752 480.563 326.392V325.272H479.363V333H480.563V327.352C481.011 326.728 481.907 326.152 482.851 326.152C483.891 326.152 484.579 326.584 484.579 327.944V333ZM490.208 333.192C490.912 333.192 491.344 332.984 491.648 332.696L491.296 331.8C491.136 331.976 490.816 332.12 490.48 332.12C489.952 332.12 489.696 331.704 489.696 331.128V326.328H491.264V325.272H489.696V323.16H488.496V325.272H487.216V326.328H488.496V331.384C488.496 332.536 489.072 333.192 490.208 333.192ZM493.039 333H494.239V327.528C494.591 326.904 495.599 326.296 496.335 326.296C496.527 326.296 496.671 326.312 496.815 326.344V325.112C495.759 325.112 494.863 325.704 494.239 326.52V325.272H493.039V333ZM498.16 334.936L497.968 336.024C498.192 336.088 498.592 336.136 498.848 336.136C499.872 336.12 500.656 335.688 501.12 334.568L504.992 325.272H503.68L501.12 331.608L498.544 325.272H497.248L500.48 333.08L499.968 334.248C499.696 334.888 499.344 335.064 498.816 335.064C498.624 335.064 498.336 335.016 498.16 334.936ZM201.432 353H202.632V347.544C202.632 345.864 201.784 345.08 200.168 345.08C199 345.08 197.944 345.752 197.4 346.392V342.328H196.2V353H197.4V347.352C197.864 346.728 198.76 346.152 199.688 346.152C200.728 346.152 201.432 346.552 201.432 347.912V353ZM209.94 353H211.14V347.688C211.14 345.816 209.78 345.08 208.148 345.08C206.884 345.08 205.892 345.496 205.06 346.36L205.62 347.192C206.308 346.456 207.06 346.12 207.988 346.12C209.108 346.12 209.94 346.712 209.94 347.752V349.144C209.316 348.424 208.436 348.088 207.38 348.088C206.068 348.088 204.676 348.904 204.676 350.632C204.676 352.312 206.068 353.192 207.38 353.192C208.42 353.192 209.3 352.824 209.94 352.12V353ZM209.94 351.368C209.476 352.008 208.66 352.328 207.812 352.328C206.692 352.328 205.908 351.624 205.908 350.648C205.908 349.656 206.692 348.952 207.812 348.952C208.66 348.952 209.476 349.272 209.94 349.912V351.368ZM219.226 353H220.426V342.328H219.226V346.44C218.602 345.592 217.658 345.08 216.618 345.08C214.586 345.08 213.178 346.68 213.178 349.144C213.178 351.656 214.602 353.192 216.618 353.192C217.706 353.192 218.65 352.632 219.226 351.848V353ZM219.226 350.904C218.794 351.576 217.866 352.12 216.906 352.12C215.354 352.12 214.426 350.856 214.426 349.144C214.426 347.432 215.354 346.152 216.906 346.152C217.866 346.152 218.794 346.728 219.226 347.4V350.904ZM231.946 353H233.146V347.688C233.146 345.816 231.786 345.08 230.154 345.08C228.89 345.08 227.898 345.496 227.066 346.36L227.626 347.192C228.314 346.456 229.066 346.12 229.994 346.12C231.114 346.12 231.946 346.712 231.946 347.752V349.144C231.322 348.424 230.442 348.088 229.386 348.088C228.074 348.088 226.682 348.904 226.682 350.632C226.682 352.312 228.074 353.192 229.386 353.192C230.426 353.192 231.306 352.824 231.946 352.12V353ZM231.946 351.368C231.482 352.008 230.666 352.328 229.818 352.328C228.698 352.328 227.914 351.624 227.914 350.648C227.914 349.656 228.698 348.952 229.818 348.952C230.666 348.952 231.482 349.272 231.946 349.912V351.368ZM245.052 353H246.252V347.576C246.252 345.896 245.404 345.08 243.788 345.08C242.636 345.08 241.58 345.752 241.036 346.392V345.272H239.836V353H241.036V347.352C241.484 346.728 242.38 346.152 243.324 346.152C244.364 346.152 245.052 346.584 245.052 347.944V353ZM253.561 353H254.761V347.688C254.761 345.816 253.401 345.08 251.769 345.08C250.505 345.08 249.513 345.496 248.681 346.36L249.241 347.192C249.929 346.456 250.681 346.12 251.609 346.12C252.729 346.12 253.561 346.712 253.561 347.752V349.144C252.937 348.424 252.057 348.088 251.001 348.088C249.689 348.088 248.297 348.904 248.297 350.632C248.297 352.312 249.689 353.192 251.001 353.192C252.041 353.192 252.921 352.824 253.561 352.12V353ZM253.561 351.368C253.097 352.008 252.281 352.328 251.433 352.328C250.313 352.328 249.529 351.624 249.529 350.648C249.529 349.656 250.313 348.952 251.433 348.952C252.281 348.952 253.097 349.272 253.561 349.912V351.368ZM259.198 353.192C259.902 353.192 260.334 352.984 260.638 352.696L260.286 351.8C260.126 351.976 259.806 352.12 259.47 352.12C258.942 352.12 258.686 351.704 258.686 351.128V346.328H260.254V345.272H258.686V343.16H257.486V345.272H256.206V346.328H257.486V351.384C257.486 352.536 258.062 353.192 259.198 353.192ZM267.245 353H268.445V345.272H267.245V350.952C266.797 351.576 265.901 352.12 264.957 352.12C263.917 352.12 263.229 351.72 263.229 350.36V345.272H262.029V350.728C262.029 352.408 262.877 353.192 264.493 353.192C265.645 353.192 266.653 352.584 267.245 351.912V353ZM270.922 353H272.122V347.528C272.474 346.904 273.482 346.296 274.218 346.296C274.41 346.296 274.554 346.312 274.698 346.344V345.112C273.642 345.112 272.746 345.704 272.122 346.52V345.272H270.922V353ZM281.115 353H282.315V347.688C282.315 345.816 280.955 345.08 279.323 345.08C278.059 345.08 277.067 345.496 276.235 346.36L276.795 347.192C277.483 346.456 278.235 346.12 279.163 346.12C280.283 346.12 281.115 346.712 281.115 347.752V349.144C280.491 348.424 279.611 348.088 278.555 348.088C277.243 348.088 275.851 348.904 275.851 350.632C275.851 352.312 277.243 353.192 278.555 353.192C279.595 353.192 280.475 352.824 281.115 352.12V353ZM281.115 351.368C280.651 352.008 279.835 352.328 278.987 352.328C277.867 352.328 277.083 351.624 277.083 350.648C277.083 349.656 277.867 348.952 278.987 348.952C279.835 348.952 280.651 349.272 281.115 349.912V351.368ZM284.801 353H286.001V342.328H284.801V353ZM298.279 353H299.479V342.328H298.279V346.44C297.655 345.592 296.711 345.08 295.671 345.08C293.639 345.08 292.231 346.68 292.231 349.144C292.231 351.656 293.655 353.192 295.671 353.192C296.759 353.192 297.703 352.632 298.279 351.848V353ZM298.279 350.904C297.847 351.576 296.919 352.12 295.959 352.12C294.407 352.12 293.479 350.856 293.479 349.144C293.479 347.432 294.407 346.152 295.959 346.152C296.919 346.152 297.847 346.728 298.279 347.4V350.904ZM302.554 343.976C303.002 343.976 303.37 343.608 303.37 343.16C303.37 342.712 303.002 342.36 302.554 342.36C302.122 342.36 301.754 342.712 301.754 343.16C301.754 343.608 302.122 343.976 302.554 343.976ZM301.962 353H303.162V345.272H301.962V353ZM304.964 351.976C305.748 352.808 306.82 353.192 308.084 353.192C310.084 353.192 311.124 352.152 311.124 350.856C311.124 349.144 309.572 348.76 308.228 348.456C307.22 348.216 306.34 347.976 306.34 347.224C306.34 346.536 306.996 346.056 308.052 346.056C309.044 346.056 309.892 346.472 310.356 347.032L310.916 346.2C310.292 345.576 309.364 345.08 308.052 345.08C306.212 345.08 305.172 346.104 305.172 347.304C305.172 348.904 306.66 349.256 307.972 349.56C309.012 349.816 309.956 350.088 309.956 350.936C309.956 351.688 309.316 352.216 308.132 352.216C307.076 352.216 306.1 351.704 305.588 351.112L304.964 351.976ZM317.986 353H319.186V347.688C319.186 345.816 317.826 345.08 316.194 345.08C314.93 345.08 313.938 345.496 313.106 346.36L313.666 347.192C314.354 346.456 315.106 346.12 316.034 346.12C317.154 346.12 317.986 346.712 317.986 347.752V349.144C317.362 348.424 316.482 348.088 315.426 348.088C314.114 348.088 312.722 348.904 312.722 350.632C312.722 352.312 314.114 353.192 315.426 353.192C316.466 353.192 317.346 352.824 317.986 352.12V353ZM317.986 351.368C317.522 352.008 316.706 352.328 315.858 352.328C314.738 352.328 313.954 351.624 313.954 350.648C313.954 349.656 314.738 348.952 315.858 348.952C316.706 348.952 317.522 349.272 317.986 349.912V351.368ZM320.999 351.976C321.783 352.808 322.855 353.192 324.119 353.192C326.119 353.192 327.159 352.152 327.159 350.856C327.159 349.144 325.607 348.76 324.263 348.456C323.255 348.216 322.375 347.976 322.375 347.224C322.375 346.536 323.031 346.056 324.087 346.056C325.079 346.056 325.927 346.472 326.391 347.032L326.951 346.2C326.327 345.576 325.399 345.08 324.087 345.08C322.247 345.08 321.207 346.104 321.207 347.304C321.207 348.904 322.695 349.256 324.007 349.56C325.047 349.816 325.991 350.088 325.991 350.936C325.991 351.688 325.351 352.216 324.167 352.216C323.111 352.216 322.135 351.704 321.623 351.112L320.999 351.976ZM331.141 353.192C331.845 353.192 332.277 352.984 332.581 352.696L332.229 351.8C332.069 351.976 331.749 352.12 331.413 352.12C330.885 352.12 330.629 351.704 330.629 351.128V346.328H332.197V345.272H330.629V343.16H329.429V345.272H328.149V346.328H329.429V351.384C329.429 352.536 330.005 353.192 331.141 353.192ZM333.524 349.128C333.524 351.544 335.172 353.192 337.46 353.192C338.724 353.192 339.764 352.776 340.532 352.008L339.956 351.224C339.348 351.848 338.452 352.2 337.572 352.2C335.908 352.2 334.884 350.984 334.788 349.528H341.044V349.224C341.044 346.904 339.668 345.08 337.332 345.08C335.124 345.08 333.524 346.888 333.524 349.128ZM337.316 346.072C339.076 346.072 339.844 347.496 339.86 348.648H334.788C334.852 347.464 335.668 346.072 337.316 346.072ZM343.067 353H344.267V347.528C344.619 346.904 345.627 346.296 346.363 346.296C346.555 346.296 346.699 346.312 346.843 346.344V345.112C345.787 345.112 344.891 345.704 344.267 346.52V345.272H343.067V353Z" fill="#333333"/>
<path d="M205.368 399H206.696V388.328H204.792L201.464 396.456L198.152 388.328H196.248V399H197.576V390.12L201.192 399H201.736L205.368 390.12V399ZM208.977 400.936L208.785 402.024C209.009 402.088 209.41 402.136 209.666 402.136C210.69 402.12 211.474 401.688 211.938 400.568L215.81 391.272H214.498L211.938 397.608L209.362 391.272H208.065L211.298 399.08L210.786 400.248C210.513 400.888 210.161 401.064 209.633 401.064C209.441 401.064 209.153 401.016 208.977 400.936ZM220.898 395.128C220.898 397.432 222.45 399.192 224.754 399.192C226.162 399.192 226.994 398.616 227.586 397.848L226.786 397.112C226.274 397.8 225.618 398.12 224.818 398.12C223.17 398.12 222.146 396.84 222.146 395.128C222.146 393.416 223.17 392.152 224.818 392.152C225.618 392.152 226.274 392.456 226.786 393.16L227.586 392.424C226.994 391.656 226.162 391.08 224.754 391.08C222.45 391.08 220.898 392.84 220.898 395.128ZM234.18 399H235.38V393.688C235.38 391.816 234.02 391.08 232.388 391.08C231.124 391.08 230.132 391.496 229.3 392.36L229.86 393.192C230.548 392.456 231.3 392.12 232.228 392.12C233.348 392.12 234.18 392.712 234.18 393.752V395.144C233.556 394.424 232.676 394.088 231.62 394.088C230.308 394.088 228.916 394.904 228.916 396.632C228.916 398.312 230.308 399.192 231.62 399.192C232.66 399.192 233.54 398.824 234.18 398.12V399ZM234.18 397.368C233.716 398.008 232.9 398.328 232.052 398.328C230.932 398.328 230.148 397.624 230.148 396.648C230.148 395.656 230.932 394.952 232.052 394.952C232.9 394.952 233.716 395.272 234.18 395.912V397.368ZM237.866 399H239.066V393.528C239.418 392.904 240.426 392.296 241.162 392.296C241.354 392.296 241.498 392.312 241.642 392.344V391.112C240.586 391.112 239.69 391.704 239.066 392.52V391.272H237.866V399ZM243.227 399H244.427V393.528C244.779 392.904 245.787 392.296 246.523 392.296C246.715 392.296 246.859 392.312 247.003 392.344V391.112C245.947 391.112 245.051 391.704 244.427 392.52V391.272H243.227V399ZM249.18 389.976C249.628 389.976 249.996 389.608 249.996 389.16C249.996 388.712 249.628 388.36 249.18 388.36C248.748 388.36 248.38 388.712 248.38 389.16C248.38 389.608 248.748 389.976 249.18 389.976ZM248.588 399H249.788V391.272H248.588V399ZM251.814 395.128C251.814 397.544 253.462 399.192 255.75 399.192C257.014 399.192 258.054 398.776 258.822 398.008L258.246 397.224C257.638 397.848 256.742 398.2 255.862 398.2C254.198 398.2 253.174 396.984 253.078 395.528H259.334V395.224C259.334 392.904 257.958 391.08 255.622 391.08C253.414 391.08 251.814 392.888 251.814 395.128ZM255.606 392.072C257.366 392.072 258.134 393.496 258.15 394.648H253.078C253.142 393.464 253.958 392.072 255.606 392.072ZM261.358 399H262.558V393.528C262.91 392.904 263.918 392.296 264.654 392.296C264.846 392.296 264.99 392.312 265.134 392.344V391.112C264.078 391.112 263.182 391.704 262.558 392.52V391.272H261.358V399ZM276.156 399H277.356V393.544C277.356 391.864 276.508 391.08 274.892 391.08C273.724 391.08 272.668 391.752 272.124 392.392V388.328H270.924V399H272.124V393.352C272.588 392.728 273.484 392.152 274.412 392.152C275.452 392.152 276.156 392.552 276.156 393.912V399ZM284.664 399H285.864V393.688C285.864 391.816 284.504 391.08 282.872 391.08C281.608 391.08 280.616 391.496 279.784 392.36L280.344 393.192C281.032 392.456 281.784 392.12 282.712 392.12C283.832 392.12 284.664 392.712 284.664 393.752V395.144C284.04 394.424 283.16 394.088 282.104 394.088C280.792 394.088 279.4 394.904 279.4 396.632C279.4 398.312 280.792 399.192 282.104 399.192C283.144 399.192 284.024 398.824 284.664 398.12V399ZM284.664 397.368C284.2 398.008 283.384 398.328 282.536 398.328C281.416 398.328 280.632 397.624 280.632 396.648C280.632 395.656 281.416 394.952 282.536 394.952C283.384 394.952 284.2 395.272 284.664 395.912V397.368ZM293.949 399H295.149V388.328H293.949V392.44C293.325 391.592 292.381 391.08 291.341 391.08C289.309 391.08 287.901 392.68 287.901 395.144C287.901 397.656 289.325 399.192 291.341 399.192C292.429 399.192 293.373 398.632 293.949 397.848V399ZM293.949 396.904C293.517 397.576 292.589 398.12 291.629 398.12C290.077 398.12 289.149 396.856 289.149 395.144C289.149 393.432 290.077 392.152 291.629 392.152C292.589 392.152 293.517 392.728 293.949 393.4V396.904ZM306.669 399H307.869V393.688C307.869 391.816 306.509 391.08 304.877 391.08C303.613 391.08 302.621 391.496 301.789 392.36L302.349 393.192C303.037 392.456 303.789 392.12 304.717 392.12C305.837 392.12 306.669 392.712 306.669 393.752V395.144C306.045 394.424 305.165 394.088 304.109 394.088C302.797 394.088 301.405 394.904 301.405 396.632C301.405 398.312 302.797 399.192 304.109 399.192C305.149 399.192 306.029 398.824 306.669 398.12V399ZM306.669 397.368C306.205 398.008 305.389 398.328 304.541 398.328C303.421 398.328 302.637 397.624 302.637 396.648C302.637 395.656 303.421 394.952 304.541 394.952C305.389 394.952 306.205 395.272 306.669 395.912V397.368ZM317.936 399.192C320.288 399.192 321.76 397.368 321.76 395.128C321.76 392.888 320.288 391.08 317.936 391.08C315.584 391.08 314.112 392.888 314.112 395.128C314.112 397.368 315.584 399.192 317.936 399.192ZM317.936 398.12C316.288 398.12 315.36 396.712 315.36 395.128C315.36 393.56 316.288 392.152 317.936 392.152C319.584 392.152 320.496 393.56 320.496 395.128C320.496 396.712 319.584 398.12 317.936 398.12ZM324.996 401.944V397.832C325.62 398.696 326.548 399.192 327.604 399.192C329.636 399.192 331.044 397.624 331.044 395.128C331.044 392.616 329.636 391.08 327.604 391.08C326.516 391.08 325.556 391.64 324.996 392.424V391.272H323.796V401.944H324.996ZM329.78 395.128C329.78 396.84 328.852 398.12 327.3 398.12C326.356 398.12 325.412 397.544 324.996 396.872V393.384C325.412 392.712 326.356 392.152 327.3 392.152C328.852 392.152 329.78 393.416 329.78 395.128ZM332.616 395.128C332.616 397.544 334.264 399.192 336.552 399.192C337.816 399.192 338.856 398.776 339.624 398.008L339.048 397.224C338.44 397.848 337.544 398.2 336.664 398.2C335 398.2 333.976 396.984 333.88 395.528H340.136V395.224C340.136 392.904 338.76 391.08 336.424 391.08C334.216 391.08 332.616 392.888 332.616 395.128ZM336.408 392.072C338.168 392.072 338.936 393.496 338.952 394.648H333.88C333.944 393.464 334.76 392.072 336.408 392.072ZM342.159 399H343.359V393.528C343.711 392.904 344.719 392.296 345.455 392.296C345.647 392.296 345.791 392.312 345.935 392.344V391.112C344.879 391.112 343.983 391.704 343.359 392.52V391.272H342.159V399ZM352.353 399H353.553V393.688C353.553 391.816 352.193 391.08 350.561 391.08C349.297 391.08 348.305 391.496 347.473 392.36L348.033 393.192C348.721 392.456 349.473 392.12 350.401 392.12C351.521 392.12 352.353 392.712 352.353 393.752V395.144C351.729 394.424 350.849 394.088 349.793 394.088C348.481 394.088 347.089 394.904 347.089 396.632C347.089 398.312 348.481 399.192 349.793 399.192C350.833 399.192 351.713 398.824 352.353 398.12V399ZM352.353 397.368C351.889 398.008 351.073 398.328 350.225 398.328C349.105 398.328 348.321 397.624 348.321 396.648C348.321 395.656 349.105 394.952 350.225 394.952C351.073 394.952 351.889 395.272 352.353 395.912V397.368ZM357.99 399.192C358.694 399.192 359.126 398.984 359.43 398.696L359.078 397.8C358.918 397.976 358.598 398.12 358.262 398.12C357.734 398.12 357.478 397.704 357.478 397.128V392.328H359.046V391.272H357.478V389.16H356.278V391.272H354.998V392.328H356.278V397.384C356.278 398.536 356.854 399.192 357.99 399.192ZM361.413 389.976C361.861 389.976 362.229 389.608 362.229 389.16C362.229 388.712 361.861 388.36 361.413 388.36C360.981 388.36 360.613 388.712 360.613 389.16C360.613 389.608 360.981 389.976 361.413 389.976ZM360.821 399H362.021V391.272H360.821V399ZM367.871 399.192C370.223 399.192 371.695 397.368 371.695 395.128C371.695 392.888 370.223 391.08 367.871 391.08C365.519 391.08 364.047 392.888 364.047 395.128C364.047 397.368 365.519 399.192 367.871 399.192ZM367.871 398.12C366.223 398.12 365.295 396.712 365.295 395.128C365.295 393.56 366.223 392.152 367.871 392.152C369.519 392.152 370.431 393.56 370.431 395.128C370.431 396.712 369.519 398.12 367.871 398.12ZM378.947 399H380.147V393.576C380.147 391.896 379.299 391.08 377.683 391.08C376.531 391.08 375.475 391.752 374.931 392.392V391.272H373.731V399H374.931V393.352C375.379 392.728 376.275 392.152 377.219 392.152C378.259 392.152 378.947 392.584 378.947 393.944V399ZM387.456 399H388.656V393.688C388.656 391.816 387.296 391.08 385.664 391.08C384.4 391.08 383.408 391.496 382.576 392.36L383.136 393.192C383.824 392.456 384.576 392.12 385.504 392.12C386.624 392.12 387.456 392.712 387.456 393.752V395.144C386.832 394.424 385.952 394.088 384.896 394.088C383.584 394.088 382.192 394.904 382.192 396.632C382.192 398.312 383.584 399.192 384.896 399.192C385.936 399.192 386.816 398.824 387.456 398.12V399ZM387.456 397.368C386.992 398.008 386.176 398.328 385.328 398.328C384.208 398.328 383.424 397.624 383.424 396.648C383.424 395.656 384.208 394.952 385.328 394.952C386.176 394.952 386.992 395.272 387.456 395.912V397.368ZM391.141 399H392.341V388.328H391.141V399ZM402.396 399.192C404.748 399.192 406.22 397.368 406.22 395.128C406.22 392.888 404.748 391.08 402.396 391.08C400.044 391.08 398.572 392.888 398.572 395.128C398.572 397.368 400.044 399.192 402.396 399.192ZM402.396 398.12C400.748 398.12 399.82 396.712 399.82 395.128C399.82 393.56 400.748 392.152 402.396 392.152C404.044 392.152 404.956 393.56 404.956 395.128C404.956 396.712 404.044 398.12 402.396 398.12ZM408.256 399H409.456V393.528C409.808 392.904 410.816 392.296 411.552 392.296C411.744 392.296 411.888 392.312 412.032 392.344V391.112C410.976 391.112 410.08 391.704 409.456 392.52V391.272H408.256V399ZM417.87 399H419.198V388.328H417.87V399ZM424.419 399H425.747V389.512H429.139V388.328H421.043V389.512H424.419V399ZM435.733 389.976C436.181 389.976 436.549 389.608 436.549 389.16C436.549 388.712 436.181 388.36 435.733 388.36C435.301 388.36 434.933 388.712 434.933 389.16C434.933 389.608 435.301 389.976 435.733 389.976ZM435.141 399H436.341V391.272H435.141V399ZM438.142 397.976C438.926 398.808 439.998 399.192 441.262 399.192C443.262 399.192 444.302 398.152 444.302 396.856C444.302 395.144 442.75 394.76 441.406 394.456C440.398 394.216 439.518 393.976 439.518 393.224C439.518 392.536 440.174 392.056 441.23 392.056C442.222 392.056 443.07 392.472 443.534 393.032L444.094 392.2C443.47 391.576 442.542 391.08 441.23 391.08C439.39 391.08 438.35 392.104 438.35 393.304C438.35 394.904 439.838 395.256 441.15 395.56C442.19 395.816 443.134 396.088 443.134 396.936C443.134 397.688 442.494 398.216 441.31 398.216C440.254 398.216 439.278 397.704 438.766 397.112L438.142 397.976ZM445.66 397.976C446.444 398.808 447.516 399.192 448.78 399.192C450.78 399.192 451.82 398.152 451.82 396.856C451.82 395.144 450.268 394.76 448.924 394.456C447.916 394.216 447.036 393.976 447.036 393.224C447.036 392.536 447.692 392.056 448.748 392.056C449.74 392.056 450.588 392.472 451.052 393.032L451.612 392.2C450.988 391.576 450.06 391.08 448.748 391.08C446.908 391.08 445.868 392.104 445.868 393.304C445.868 394.904 447.356 395.256 448.668 395.56C449.708 395.816 450.652 396.088 450.652 396.936C450.652 397.688 450.012 398.216 448.828 398.216C447.772 398.216 446.796 397.704 446.284 397.112L445.66 397.976ZM459.065 399H460.265V391.272H459.065V396.952C458.617 397.576 457.721 398.12 456.777 398.12C455.737 398.12 455.049 397.72 455.049 396.36V391.272H453.849V396.728C453.849 398.408 454.697 399.192 456.313 399.192C457.465 399.192 458.473 398.584 459.065 397.912V399ZM462.294 395.128C462.294 397.544 463.942 399.192 466.23 399.192C467.494 399.192 468.534 398.776 469.302 398.008L468.726 397.224C468.118 397.848 467.222 398.2 466.342 398.2C464.678 398.2 463.654 396.984 463.558 395.528H469.814V395.224C469.814 392.904 468.438 391.08 466.102 391.08C463.894 391.08 462.294 392.888 462.294 395.128ZM466.086 392.072C467.846 392.072 468.614 393.496 468.63 394.648H463.558C463.622 393.464 464.438 392.072 466.086 392.072Z" fill="#333333"/>
</g>
<defs>
<clipPath id="clip0_134_73017">
<rect width="736" height="566" fill="white"/>
</clipPath>
</defs>
</svg>
