<svg width="736" height="566" viewBox="0 0 736 566" fill="none" xmlns="http://www.w3.org/2000/svg">
<g clip-path="url(#clip0_134_72668)">
<rect x="130" y="44" width="447" height="494" fill="#F2F2F2"/>
<path d="M167.248 131H170.896C174.208 131 176.368 128.712 176.368 125.672C176.368 122.648 174.208 120.328 170.896 120.328H167.248V131ZM168.576 129.816V121.512H170.896C173.536 121.512 174.992 123.368 174.992 125.672C174.992 127.96 173.488 129.816 170.896 129.816H168.576ZM179.075 121.976C179.523 121.976 179.891 121.608 179.891 121.16C179.891 120.712 179.523 120.36 179.075 120.36C178.643 120.36 178.275 120.712 178.275 121.16C178.275 121.608 178.643 121.976 179.075 121.976ZM178.483 131H179.683V123.272H178.483V131ZM187.757 131H188.957V120.328H187.757V124.44C187.133 123.592 186.189 123.08 185.149 123.08C183.117 123.08 181.709 124.68 181.709 127.144C181.709 129.656 183.133 131.192 185.149 131.192C186.237 131.192 187.181 130.632 187.757 129.848V131ZM187.757 128.904C187.325 129.576 186.397 130.12 185.437 130.12C183.885 130.12 182.957 128.856 182.957 127.144C182.957 125.432 183.885 124.152 185.437 124.152C186.397 124.152 187.325 124.728 187.757 125.4V128.904ZM195.405 132.936L195.213 134.024C195.437 134.088 195.837 134.136 196.093 134.136C197.117 134.12 197.901 133.688 198.365 132.568L202.237 123.272H200.925L198.365 129.608L195.789 123.272H194.493L197.725 131.08L197.213 132.248C196.941 132.888 196.589 133.064 196.061 133.064C195.869 133.064 195.581 133.016 195.405 132.936ZM206.945 131.192C209.297 131.192 210.769 129.368 210.769 127.128C210.769 124.888 209.297 123.08 206.945 123.08C204.593 123.08 203.121 124.888 203.121 127.128C203.121 129.368 204.593 131.192 206.945 131.192ZM206.945 130.12C205.297 130.12 204.369 128.712 204.369 127.128C204.369 125.56 205.297 124.152 206.945 124.152C208.593 124.152 209.505 125.56 209.505 127.128C209.505 128.712 208.593 130.12 206.945 130.12ZM218.021 131H219.221V123.272H218.021V128.952C217.573 129.576 216.677 130.12 215.733 130.12C214.693 130.12 214.005 129.72 214.005 128.36V123.272H212.805V128.728C212.805 130.408 213.653 131.192 215.269 131.192C216.421 131.192 217.429 130.584 218.021 129.912V131ZM232.59 131H233.79L236.255 123.272H235.007L233.118 129.432L231.086 123.272H230.062L228.03 129.432L226.142 123.272H224.894L227.358 131H228.558L230.574 124.792L232.59 131ZM242.565 131H243.765V125.688C243.765 123.816 242.405 123.08 240.773 123.08C239.509 123.08 238.517 123.496 237.685 124.36L238.245 125.192C238.933 124.456 239.685 124.12 240.613 124.12C241.733 124.12 242.565 124.712 242.565 125.752V127.144C241.941 126.424 241.061 126.088 240.005 126.088C238.693 126.088 237.301 126.904 237.301 128.632C237.301 130.312 238.693 131.192 240.005 131.192C241.045 131.192 241.925 130.824 242.565 130.12V131ZM242.565 129.368C242.101 130.008 241.285 130.328 240.437 130.328C239.317 130.328 238.533 129.624 238.533 128.648C238.533 127.656 239.317 126.952 240.437 126.952C241.285 126.952 242.101 127.272 242.565 127.912V129.368ZM251.466 131H252.666V125.576C252.666 123.896 251.818 123.08 250.202 123.08C249.05 123.08 247.994 123.752 247.45 124.392V123.272H246.25V131H247.45V125.352C247.898 124.728 248.794 124.152 249.738 124.152C250.778 124.152 251.466 124.584 251.466 125.944V131ZM257.094 131.192C257.798 131.192 258.23 130.984 258.534 130.696L258.182 129.8C258.022 129.976 257.702 130.12 257.366 130.12C256.838 130.12 256.582 129.704 256.582 129.128V124.328H258.15V123.272H256.582V121.16H255.382V123.272H254.102V124.328H255.382V129.384C255.382 130.536 255.958 131.192 257.094 131.192ZM266.083 131.192C266.787 131.192 267.219 130.984 267.523 130.696L267.171 129.8C267.011 129.976 266.691 130.12 266.355 130.12C265.827 130.12 265.571 129.704 265.571 129.128V124.328H267.139V123.272H265.571V121.16H264.371V123.272H263.091V124.328H264.371V129.384C264.371 130.536 264.947 131.192 266.083 131.192ZM272.29 131.192C274.642 131.192 276.114 129.368 276.114 127.128C276.114 124.888 274.642 123.08 272.29 123.08C269.938 123.08 268.466 124.888 268.466 127.128C268.466 129.368 269.938 131.192 272.29 131.192ZM272.29 130.12C270.642 130.12 269.714 128.712 269.714 127.128C269.714 125.56 270.642 124.152 272.29 124.152C273.938 124.152 274.85 125.56 274.85 127.128C274.85 128.712 273.938 130.12 272.29 130.12ZM281.907 127.128C281.907 129.432 283.459 131.192 285.763 131.192C287.171 131.192 288.003 130.616 288.595 129.848L287.795 129.112C287.283 129.8 286.627 130.12 285.827 130.12C284.179 130.12 283.155 128.84 283.155 127.128C283.155 125.416 284.179 124.152 285.827 124.152C286.627 124.152 287.283 124.456 287.795 125.16L288.595 124.424C288.003 123.656 287.171 123.08 285.763 123.08C283.459 123.08 281.907 124.84 281.907 127.128ZM293.733 131.192C296.085 131.192 297.557 129.368 297.557 127.128C297.557 124.888 296.085 123.08 293.733 123.08C291.381 123.08 289.909 124.888 289.909 127.128C289.909 129.368 291.381 131.192 293.733 131.192ZM293.733 130.12C292.085 130.12 291.157 128.712 291.157 127.128C291.157 125.56 292.085 124.152 293.733 124.152C295.381 124.152 296.293 125.56 296.293 127.128C296.293 128.712 295.381 130.12 293.733 130.12ZM299.593 131H300.793V125.528C301.145 124.904 302.153 124.296 302.889 124.296C303.081 124.296 303.225 124.312 303.369 124.344V123.112C302.313 123.112 301.417 123.704 300.793 124.52V123.272H299.593V131ZM304.954 131H306.154V125.528C306.506 124.904 307.514 124.296 308.25 124.296C308.442 124.296 308.586 124.312 308.73 124.344V123.112C307.674 123.112 306.778 123.704 306.154 124.52V123.272H304.954V131ZM309.868 127.128C309.868 129.544 311.516 131.192 313.804 131.192C315.068 131.192 316.108 130.776 316.876 130.008L316.3 129.224C315.692 129.848 314.796 130.2 313.916 130.2C312.252 130.2 311.228 128.984 311.132 127.528H317.388V127.224C317.388 124.904 316.012 123.08 313.676 123.08C311.468 123.08 309.868 124.888 309.868 127.128ZM313.66 124.072C315.42 124.072 316.188 125.496 316.204 126.648H311.132C311.196 125.464 312.012 124.072 313.66 124.072ZM318.963 127.128C318.963 129.432 320.515 131.192 322.819 131.192C324.227 131.192 325.059 130.616 325.651 129.848L324.851 129.112C324.339 129.8 323.683 130.12 322.883 130.12C321.235 130.12 320.211 128.84 320.211 127.128C320.211 125.416 321.235 124.152 322.883 124.152C323.683 124.152 324.339 124.456 324.851 125.16L325.651 124.424C325.059 123.656 324.227 123.08 322.819 123.08C320.515 123.08 318.963 124.84 318.963 127.128ZM329.365 131.192C330.069 131.192 330.501 130.984 330.805 130.696L330.453 129.8C330.293 129.976 329.973 130.12 329.637 130.12C329.109 130.12 328.853 129.704 328.853 129.128V124.328H330.421V123.272H328.853V121.16H327.653V123.272H326.373V124.328H327.653V129.384C327.653 130.536 328.229 131.192 329.365 131.192ZM338.353 131.192C339.057 131.192 339.489 130.984 339.793 130.696L339.441 129.8C339.281 129.976 338.961 130.12 338.625 130.12C338.097 130.12 337.841 129.704 337.841 129.128V124.328H339.409V123.272H337.841V121.16H336.641V123.272H335.361V124.328H336.641V129.384C336.641 130.536 337.217 131.192 338.353 131.192ZM346.416 131H347.616V125.544C347.616 123.864 346.768 123.08 345.152 123.08C343.984 123.08 342.928 123.752 342.384 124.392V120.328H341.184V131H342.384V125.352C342.848 124.728 343.744 124.152 344.672 124.152C345.712 124.152 346.416 124.552 346.416 125.912V131ZM349.645 127.128C349.645 129.544 351.293 131.192 353.581 131.192C354.845 131.192 355.885 130.776 356.653 130.008L356.077 129.224C355.469 129.848 354.573 130.2 353.693 130.2C352.029 130.2 351.005 128.984 350.909 127.528H357.165V127.224C357.165 124.904 355.789 123.08 353.453 123.08C351.245 123.08 349.645 124.888 349.645 127.128ZM353.437 124.072C355.197 124.072 355.965 125.496 355.981 126.648H350.909C350.973 125.464 351.789 124.072 353.437 124.072ZM363.985 121.976C364.433 121.976 364.801 121.608 364.801 121.16C364.801 120.712 364.433 120.36 363.985 120.36C363.553 120.36 363.185 120.712 363.185 121.16C363.185 121.608 363.553 121.976 363.985 121.976ZM363.393 131H364.593V123.272H363.393V131ZM372.283 131H373.483V125.576C373.483 123.896 372.635 123.08 371.019 123.08C369.867 123.08 368.811 123.752 368.267 124.392V123.272H367.067V131H368.267V125.352C368.715 124.728 369.611 124.152 370.555 124.152C371.595 124.152 372.283 124.584 372.283 125.944V131ZM376.295 131H377.495V124.328H379.063V123.272H377.495V122.68C377.495 121.704 377.927 121.16 378.711 121.16C378.983 121.16 379.207 121.224 379.399 121.336L379.703 120.44C379.399 120.248 378.983 120.168 378.535 120.168C377.191 120.168 376.295 121.08 376.295 122.68V123.272H375.015V124.328H376.295V131ZM383.947 131.192C386.299 131.192 387.771 129.368 387.771 127.128C387.771 124.888 386.299 123.08 383.947 123.08C381.595 123.08 380.123 124.888 380.123 127.128C380.123 129.368 381.595 131.192 383.947 131.192ZM383.947 130.12C382.299 130.12 381.371 128.712 381.371 127.128C381.371 125.56 382.299 124.152 383.947 124.152C385.595 124.152 386.507 125.56 386.507 127.128C386.507 128.712 385.595 130.12 383.947 130.12ZM389.807 131H391.007V125.528C391.359 124.904 392.367 124.296 393.103 124.296C393.295 124.296 393.439 124.312 393.583 124.344V123.112C392.527 123.112 391.631 123.704 391.007 124.52V123.272H389.807V131ZM404.496 131H405.696V125.416C405.696 123.864 404.944 123.08 403.536 123.08C402.416 123.08 401.376 123.816 400.944 124.52C400.72 123.72 400.048 123.08 398.864 123.08C397.728 123.08 396.688 123.896 396.368 124.392V123.272H395.168V131H396.368V125.352C396.784 124.728 397.616 124.152 398.4 124.152C399.408 124.152 399.824 124.776 399.824 125.752V131H401.024V125.336C401.424 124.728 402.272 124.152 403.072 124.152C404.064 124.152 404.496 124.776 404.496 125.752V131ZM413.002 131H414.202V125.688C414.202 123.816 412.842 123.08 411.21 123.08C409.946 123.08 408.954 123.496 408.122 124.36L408.682 125.192C409.37 124.456 410.122 124.12 411.05 124.12C412.17 124.12 413.002 124.712 413.002 125.752V127.144C412.378 126.424 411.498 126.088 410.442 126.088C409.13 126.088 407.738 126.904 407.738 128.632C407.738 130.312 409.13 131.192 410.442 131.192C411.482 131.192 412.362 130.824 413.002 130.12V131ZM413.002 129.368C412.538 130.008 411.722 130.328 410.874 130.328C409.754 130.328 408.97 129.624 408.97 128.648C408.97 127.656 409.754 126.952 410.874 126.952C411.722 126.952 412.538 127.272 413.002 127.912V129.368ZM418.64 131.192C419.344 131.192 419.776 130.984 420.08 130.696L419.728 129.8C419.568 129.976 419.248 130.12 418.912 130.12C418.384 130.12 418.128 129.704 418.128 129.128V124.328H419.696V123.272H418.128V121.16H416.928V123.272H415.648V124.328H416.928V129.384C416.928 130.536 417.504 131.192 418.64 131.192ZM422.063 121.976C422.511 121.976 422.879 121.608 422.879 121.16C422.879 120.712 422.511 120.36 422.063 120.36C421.631 120.36 421.263 120.712 421.263 121.16C421.263 121.608 421.631 121.976 422.063 121.976ZM421.471 131H422.671V123.272H421.471V131ZM428.52 131.192C430.872 131.192 432.344 129.368 432.344 127.128C432.344 124.888 430.872 123.08 428.52 123.08C426.168 123.08 424.696 124.888 424.696 127.128C424.696 129.368 426.168 131.192 428.52 131.192ZM428.52 130.12C426.872 130.12 425.944 128.712 425.944 127.128C425.944 125.56 426.872 124.152 428.52 124.152C430.168 124.152 431.08 125.56 431.08 127.128C431.08 128.712 430.168 130.12 428.52 130.12ZM439.597 131H440.797V125.576C440.797 123.896 439.949 123.08 438.333 123.08C437.181 123.08 436.125 123.752 435.581 124.392V123.272H434.381V131H435.581V125.352C436.029 124.728 436.925 124.152 437.869 124.152C438.909 124.152 439.597 124.584 439.597 125.944V131ZM447.03 127.128C447.03 129.432 448.582 131.192 450.886 131.192C452.294 131.192 453.126 130.616 453.718 129.848L452.918 129.112C452.406 129.8 451.75 130.12 450.95 130.12C449.302 130.12 448.278 128.84 448.278 127.128C448.278 125.416 449.302 124.152 450.95 124.152C451.75 124.152 452.406 124.456 452.918 125.16L453.718 124.424C453.126 123.656 452.294 123.08 450.886 123.08C448.582 123.08 447.03 124.84 447.03 127.128ZM460.312 131H461.512V125.688C461.512 123.816 460.152 123.08 458.52 123.08C457.256 123.08 456.264 123.496 455.432 124.36L455.992 125.192C456.68 124.456 457.432 124.12 458.36 124.12C459.48 124.12 460.312 124.712 460.312 125.752V127.144C459.688 126.424 458.808 126.088 457.752 126.088C456.44 126.088 455.048 126.904 455.048 128.632C455.048 130.312 456.44 131.192 457.752 131.192C458.792 131.192 459.672 130.824 460.312 130.12V131ZM460.312 129.368C459.848 130.008 459.032 130.328 458.184 130.328C457.064 130.328 456.28 129.624 456.28 128.648C456.28 127.656 457.064 126.952 458.184 126.952C459.032 126.952 459.848 127.272 460.312 127.912V129.368ZM465.197 133.944V129.832C465.821 130.696 466.749 131.192 467.805 131.192C469.837 131.192 471.245 129.624 471.245 127.128C471.245 124.616 469.837 123.08 467.805 123.08C466.717 123.08 465.757 123.64 465.197 124.424V123.272H463.997V133.944H465.197ZM469.981 127.128C469.981 128.84 469.053 130.12 467.501 130.12C466.557 130.12 465.613 129.544 465.197 128.872V125.384C465.613 124.712 466.557 124.152 467.501 124.152C469.053 124.152 469.981 125.416 469.981 127.128ZM475.217 131.192C475.921 131.192 476.353 130.984 476.657 130.696L476.305 129.8C476.145 129.976 475.825 130.12 475.489 130.12C474.961 130.12 474.705 129.704 474.705 129.128V124.328H476.273V123.272H474.705V121.16H473.505V123.272H472.225V124.328H473.505V129.384C473.505 130.536 474.081 131.192 475.217 131.192ZM483.264 131H484.464V123.272H483.264V128.952C482.816 129.576 481.92 130.12 480.976 130.12C479.936 130.12 479.248 129.72 479.248 128.36V123.272H478.048V128.728C478.048 130.408 478.896 131.192 480.512 131.192C481.664 131.192 482.672 130.584 483.264 129.912V131ZM486.941 131H488.141V125.528C488.493 124.904 489.501 124.296 490.237 124.296C490.429 124.296 490.573 124.312 490.717 124.344V123.112C489.661 123.112 488.765 123.704 488.141 124.52V123.272H486.941V131ZM491.854 127.128C491.854 129.544 493.502 131.192 495.79 131.192C497.054 131.192 498.094 130.776 498.862 130.008L498.286 129.224C497.678 129.848 496.782 130.2 495.902 130.2C494.238 130.2 493.214 128.984 493.118 127.528H499.374V127.224C499.374 124.904 497.998 123.08 495.662 123.08C493.454 123.08 491.854 124.888 491.854 127.128ZM495.646 124.072C497.406 124.072 498.174 125.496 498.19 126.648H493.118C493.182 125.464 493.998 124.072 495.646 124.072ZM506.998 131H508.198V120.328H506.998V124.44C506.374 123.592 505.43 123.08 504.39 123.08C502.358 123.08 500.95 124.68 500.95 127.144C500.95 129.656 502.374 131.192 504.39 131.192C505.478 131.192 506.422 130.632 506.998 129.848V131ZM506.998 128.904C506.566 129.576 505.638 130.12 504.678 130.12C503.126 130.12 502.198 128.856 502.198 127.144C502.198 125.432 503.126 124.152 504.678 124.152C505.638 124.152 506.566 124.728 506.998 125.4V128.904ZM514.886 131H516.086V129.848C516.662 130.632 517.606 131.192 518.694 131.192C520.71 131.192 522.134 129.656 522.134 127.144C522.134 124.68 520.71 123.08 518.694 123.08C517.638 123.08 516.71 123.592 516.086 124.44V120.328H514.886V131ZM516.086 128.904V125.4C516.502 124.728 517.446 124.152 518.39 124.152C519.958 124.152 520.886 125.432 520.886 127.144C520.886 128.856 519.958 130.12 518.39 130.12C517.446 130.12 516.502 129.576 516.086 128.904ZM523.929 132.936L523.737 134.024C523.961 134.088 524.361 134.136 524.617 134.136C525.641 134.12 526.425 133.688 526.889 132.568L530.761 123.272H529.449L526.889 129.608L524.313 123.272H523.017L526.249 131.08L525.737 132.248C525.465 132.888 525.113 133.064 524.585 133.064C524.393 133.064 524.105 133.016 523.929 132.936ZM175.408 151H176.848L179.888 140.328H178.416L176.064 149.224L173.616 140.328H172.512L170.064 149.224L167.696 140.328H166.224L169.264 151H170.704L173.056 142.392L175.408 151ZM181.997 141.976C182.445 141.976 182.813 141.608 182.813 141.16C182.813 140.712 182.445 140.36 181.997 140.36C181.565 140.36 181.197 140.712 181.197 141.16C181.197 141.608 181.565 141.976 181.997 141.976ZM181.405 151H182.605V143.272H181.405V151ZM184.407 149.976C185.191 150.808 186.263 151.192 187.527 151.192C189.527 151.192 190.567 150.152 190.567 148.856C190.567 147.144 189.015 146.76 187.671 146.456C186.663 146.216 185.783 145.976 185.783 145.224C185.783 144.536 186.439 144.056 187.495 144.056C188.487 144.056 189.335 144.472 189.799 145.032L190.359 144.2C189.735 143.576 188.807 143.08 187.495 143.08C185.655 143.08 184.615 144.104 184.615 145.304C184.615 146.904 186.103 147.256 187.415 147.56C188.455 147.816 189.399 148.088 189.399 148.936C189.399 149.688 188.759 150.216 187.575 150.216C186.519 150.216 185.543 149.704 185.031 149.112L184.407 149.976ZM197.828 151H199.028V145.544C199.028 143.864 198.18 143.08 196.564 143.08C195.396 143.08 194.34 143.752 193.796 144.392V140.328H192.596V151H193.796V145.352C194.26 144.728 195.156 144.152 196.084 144.152C197.124 144.152 197.828 144.552 197.828 145.912V151ZM202.35 146.744C202.35 147.224 202.542 147.672 202.974 148.04L203.95 147.624C203.678 147.416 203.518 147.096 203.518 146.84C203.518 146.136 204.142 145.72 204.83 145.24C205.678 144.648 206.622 143.992 206.622 142.648C206.622 141.272 205.438 140.168 203.486 140.168C201.966 140.168 200.782 140.808 200.014 141.8L200.814 142.664C201.406 141.88 202.158 141.352 203.358 141.352C204.622 141.352 205.246 142.04 205.246 142.84C205.246 143.656 204.59 144.104 203.886 144.584C203.15 145.112 202.35 145.672 202.35 146.744ZM202.43 150.28C202.43 150.76 202.83 151.16 203.31 151.16C203.79 151.16 204.19 150.76 204.19 150.28C204.19 149.8 203.79 149.4 203.31 149.4C202.83 149.4 202.43 149.8 202.43 150.28Z" fill="#333333"/>
<path d="M167.136 95H171.104C174.432 95 176.688 92.808 176.688 89.672C176.688 86.536 174.432 84.328 171.104 84.328H167.136V95ZM169.008 93.352V85.976H171.104C173.488 85.976 174.768 87.608 174.768 89.672C174.768 91.688 173.424 93.352 171.104 93.352H169.008ZM179.359 85.992C179.935 85.992 180.399 85.528 180.399 84.952C180.399 84.376 179.935 83.912 179.359 83.912C178.799 83.912 178.319 84.376 178.319 84.952C178.319 85.528 178.799 85.992 179.359 85.992ZM178.527 95H180.207V87.272H178.527V95ZM181.795 93.992C182.595 94.776 183.795 95.192 185.107 95.192C187.187 95.192 188.323 94.152 188.323 92.792C188.323 90.968 186.675 90.584 185.331 90.296C184.419 90.088 183.651 89.88 183.651 89.288C183.651 88.744 184.211 88.424 185.091 88.424C186.051 88.424 186.915 88.824 187.379 89.352L188.083 88.168C187.379 87.544 186.387 87.08 185.075 87.08C183.123 87.08 182.035 88.168 182.035 89.432C182.035 91.16 183.619 91.512 184.947 91.8C185.891 92.008 186.707 92.248 186.707 92.92C186.707 93.496 186.195 93.864 185.187 93.864C184.179 93.864 183.107 93.336 182.563 92.776L181.795 93.992ZM191.774 97.944V93.928C192.398 94.76 193.278 95.192 194.254 95.192C196.254 95.192 197.678 93.672 197.678 91.128C197.678 88.584 196.254 87.08 194.254 87.08C193.246 87.08 192.35 87.56 191.774 88.328V87.272H190.094V97.944H191.774ZM195.934 91.128C195.934 92.632 195.086 93.704 193.758 93.704C192.974 93.704 192.142 93.224 191.774 92.664V89.608C192.142 89.032 192.974 88.568 193.758 88.568C195.086 88.568 195.934 89.64 195.934 91.128ZM204.671 95H206.351V87.272H204.671V92.696C204.271 93.224 203.535 93.704 202.687 93.704C201.743 93.704 201.135 93.336 201.135 92.136V87.272H199.455V92.744C199.455 94.328 200.271 95.192 201.935 95.192C203.151 95.192 204.111 94.6 204.671 93.976V95ZM210.933 95.192C211.717 95.192 212.213 94.984 212.517 94.696L212.117 93.432C211.989 93.576 211.685 93.704 211.365 93.704C210.885 93.704 210.629 93.32 210.629 92.792V88.744H212.197V87.272H210.629V85.16H208.949V87.272H207.669V88.744H208.949V93.208C208.949 94.488 209.637 95.192 210.933 95.192ZM213.322 91.128C213.322 93.576 215.05 95.192 217.37 95.192C218.602 95.192 219.738 94.808 220.506 94.072L219.738 92.968C219.194 93.512 218.298 93.816 217.546 93.816C216.09 93.816 215.21 92.856 215.082 91.688H221.05V91.288C221.05 88.856 219.562 87.08 217.242 87.08C214.954 87.08 213.322 88.888 213.322 91.128ZM217.242 88.456C218.762 88.456 219.386 89.592 219.418 90.504H215.066C215.146 89.56 215.802 88.456 217.242 88.456ZM227.81 85.992C228.386 85.992 228.85 85.528 228.85 84.952C228.85 84.376 228.386 83.912 227.81 83.912C227.25 83.912 226.77 84.376 226.77 84.952C226.77 85.528 227.25 85.992 227.81 85.992ZM226.978 95H228.658V87.272H226.978V95ZM236.133 95H237.813V89.56C237.813 87.976 236.981 87.08 235.317 87.08C234.101 87.08 233.109 87.72 232.597 88.328V87.272H230.917V95H232.597V89.608C232.981 89.08 233.717 88.568 234.581 88.568C235.525 88.568 236.133 88.968 236.133 90.168V95ZM240.476 95H242.156V88.744H243.724V87.272H242.156V86.84C242.156 85.976 242.572 85.544 243.228 85.544C243.468 85.544 243.708 85.592 243.9 85.704L244.268 84.472C243.932 84.28 243.452 84.168 242.924 84.168C241.5 84.168 240.476 85.112 240.476 86.84V87.272H239.196V88.744H240.476V95ZM245.077 95H246.757V89.736C247.093 89.192 248.037 88.712 248.741 88.712C248.949 88.712 249.125 88.728 249.269 88.76V87.096C248.261 87.096 247.333 87.672 246.757 88.408V87.272H245.077V95ZM255.424 95H257.104V89.88C257.104 87.8 255.6 87.08 253.888 87.08C252.656 87.08 251.536 87.48 250.64 88.328L251.328 89.496C252 88.84 252.752 88.52 253.616 88.52C254.688 88.52 255.424 89.064 255.424 89.96V91.112C254.864 90.456 253.968 90.12 252.928 90.12C251.664 90.12 250.24 90.856 250.24 92.632C250.24 94.344 251.664 95.192 252.928 95.192C253.952 95.192 254.848 94.824 255.424 94.168V95ZM255.424 93.24C255.04 93.768 254.32 94.04 253.584 94.04C252.64 94.04 251.936 93.496 251.936 92.664C251.936 91.816 252.64 91.272 253.584 91.272C254.32 91.272 255.04 91.544 255.424 92.072V93.24ZM258.882 91.128C258.882 93.48 260.53 95.192 262.882 95.192C264.386 95.192 265.298 94.552 265.842 93.816L264.738 92.792C264.306 93.384 263.714 93.704 262.962 93.704C261.554 93.704 260.626 92.632 260.626 91.128C260.626 89.624 261.554 88.568 262.962 88.568C263.714 88.568 264.306 88.872 264.738 89.48L265.842 88.456C265.298 87.72 264.386 87.08 262.882 87.08C260.53 87.08 258.882 88.792 258.882 91.128ZM269.716 95.192C270.5 95.192 270.996 94.984 271.3 94.696L270.9 93.432C270.772 93.576 270.468 93.704 270.148 93.704C269.668 93.704 269.412 93.32 269.412 92.792V88.744H270.98V87.272H269.412V85.16H267.732V87.272H266.452V88.744H267.732V93.208C267.732 94.488 268.42 95.192 269.716 95.192ZM273.417 85.992C273.993 85.992 274.457 85.528 274.457 84.952C274.457 84.376 273.993 83.912 273.417 83.912C272.857 83.912 272.377 84.376 272.377 84.952C272.377 85.528 272.857 85.992 273.417 85.992ZM272.585 95H274.265V87.272H272.585V95ZM280.012 95.192C282.492 95.192 283.996 93.352 283.996 91.128C283.996 88.92 282.492 87.08 280.012 87.08C277.564 87.08 276.044 88.92 276.044 91.128C276.044 93.352 277.564 95.192 280.012 95.192ZM280.012 93.704C278.588 93.704 277.788 92.504 277.788 91.128C277.788 89.768 278.588 88.568 280.012 88.568C281.452 88.568 282.252 89.768 282.252 91.128C282.252 92.504 281.452 93.704 280.012 93.704ZM290.992 95H292.672V89.56C292.672 87.976 291.84 87.08 290.176 87.08C288.96 87.08 287.968 87.72 287.456 88.328V87.272H285.776V95H287.456V89.608C287.84 89.08 288.576 88.568 289.44 88.568C290.384 88.568 290.992 88.968 290.992 90.168V95Z" fill="#333333"/>
<path d="M167.248 270H170.896C174.208 270 176.368 267.712 176.368 264.672C176.368 261.648 174.208 259.328 170.896 259.328H167.248V270ZM168.576 268.816V260.512H170.896C173.536 260.512 174.992 262.368 174.992 264.672C174.992 266.96 173.488 268.816 170.896 268.816H168.576ZM179.075 260.976C179.523 260.976 179.891 260.608 179.891 260.16C179.891 259.712 179.523 259.36 179.075 259.36C178.643 259.36 178.275 259.712 178.275 260.16C178.275 260.608 178.643 260.976 179.075 260.976ZM178.483 270H179.683V262.272H178.483V270ZM187.757 270H188.957V259.328H187.757V263.44C187.133 262.592 186.189 262.08 185.149 262.08C183.117 262.08 181.709 263.68 181.709 266.144C181.709 268.656 183.133 270.192 185.149 270.192C186.237 270.192 187.181 269.632 187.757 268.848V270ZM187.757 267.904C187.325 268.576 186.397 269.12 185.437 269.12C183.885 269.12 182.957 267.856 182.957 266.144C182.957 264.432 183.885 263.152 185.437 263.152C186.397 263.152 187.325 263.728 187.757 264.4V267.904ZM200.477 270H201.677V264.688C201.677 262.816 200.317 262.08 198.685 262.08C197.421 262.08 196.429 262.496 195.597 263.36L196.157 264.192C196.845 263.456 197.597 263.12 198.525 263.12C199.645 263.12 200.477 263.712 200.477 264.752V266.144C199.853 265.424 198.973 265.088 197.917 265.088C196.605 265.088 195.213 265.904 195.213 267.632C195.213 269.312 196.605 270.192 197.917 270.192C198.957 270.192 199.837 269.824 200.477 269.12V270ZM200.477 268.368C200.013 269.008 199.197 269.328 198.349 269.328C197.229 269.328 196.445 268.624 196.445 267.648C196.445 266.656 197.229 265.952 198.349 265.952C199.197 265.952 200.013 266.272 200.477 266.912V268.368ZM207.695 268.976C208.479 269.808 209.551 270.192 210.815 270.192C212.815 270.192 213.855 269.152 213.855 267.856C213.855 266.144 212.303 265.76 210.959 265.456C209.951 265.216 209.071 264.976 209.071 264.224C209.071 263.536 209.727 263.056 210.783 263.056C211.775 263.056 212.623 263.472 213.087 264.032L213.648 263.2C213.023 262.576 212.095 262.08 210.783 262.08C208.943 262.08 207.903 263.104 207.903 264.304C207.903 265.904 209.391 266.256 210.703 266.56C211.743 266.816 212.688 267.088 212.688 267.936C212.688 268.688 212.047 269.216 210.863 269.216C209.807 269.216 208.831 268.704 208.319 268.112L207.695 268.976ZM216.477 260.976C216.925 260.976 217.293 260.608 217.293 260.16C217.293 259.712 216.925 259.36 216.477 259.36C216.045 259.36 215.677 259.712 215.677 260.16C215.677 260.608 216.045 260.976 216.477 260.976ZM215.885 270H217.085V262.272H215.885V270ZM221.511 270.192C222.215 270.192 222.647 269.984 222.951 269.696L222.599 268.8C222.439 268.976 222.119 269.12 221.783 269.12C221.255 269.12 220.999 268.704 220.999 268.128V263.328H222.567V262.272H220.999V260.16H219.799V262.272H218.519V263.328H219.799V268.384C219.799 269.536 220.375 270.192 221.511 270.192ZM229.558 270H230.758V262.272H229.558V267.952C229.11 268.576 228.214 269.12 227.27 269.12C226.23 269.12 225.542 268.72 225.542 267.36V262.272H224.342V267.728C224.342 269.408 225.19 270.192 226.806 270.192C227.958 270.192 228.966 269.584 229.558 268.912V270ZM238.066 270H239.266V264.688C239.266 262.816 237.906 262.08 236.274 262.08C235.01 262.08 234.018 262.496 233.186 263.36L233.746 264.192C234.434 263.456 235.186 263.12 236.114 263.12C237.234 263.12 238.066 263.712 238.066 264.752V266.144C237.442 265.424 236.562 265.088 235.506 265.088C234.194 265.088 232.802 265.904 232.802 267.632C232.802 269.312 234.194 270.192 235.506 270.192C236.546 270.192 237.426 269.824 238.066 269.12V270ZM238.066 268.368C237.602 269.008 236.786 269.328 235.938 269.328C234.818 269.328 234.034 268.624 234.034 267.648C234.034 266.656 234.818 265.952 235.938 265.952C236.786 265.952 237.602 266.272 238.066 266.912V268.368ZM243.704 270.192C244.408 270.192 244.84 269.984 245.144 269.696L244.792 268.8C244.632 268.976 244.312 269.12 243.976 269.12C243.448 269.12 243.192 268.704 243.192 268.128V263.328H244.76V262.272H243.192V260.16H241.992V262.272H240.712V263.328H241.992V268.384C241.992 269.536 242.568 270.192 243.704 270.192ZM247.127 260.976C247.575 260.976 247.943 260.608 247.943 260.16C247.943 259.712 247.575 259.36 247.127 259.36C246.695 259.36 246.327 259.712 246.327 260.16C246.327 260.608 246.695 260.976 247.127 260.976ZM246.535 270H247.735V262.272H246.535V270ZM253.585 270.192C255.937 270.192 257.409 268.368 257.409 266.128C257.409 263.888 255.937 262.08 253.585 262.08C251.233 262.08 249.761 263.888 249.761 266.128C249.761 268.368 251.233 270.192 253.585 270.192ZM253.585 269.12C251.937 269.12 251.009 267.712 251.009 266.128C251.009 264.56 251.937 263.152 253.585 263.152C255.233 263.152 256.145 264.56 256.145 266.128C256.145 267.712 255.233 269.12 253.585 269.12ZM264.661 270H265.861V264.576C265.861 262.896 265.013 262.08 263.397 262.08C262.245 262.08 261.189 262.752 260.645 263.392V262.272H259.445V270H260.645V264.352C261.093 263.728 261.989 263.152 262.933 263.152C263.973 263.152 264.661 263.584 264.661 264.944V270ZM274.494 270.192C275.198 270.192 275.63 269.984 275.934 269.696L275.582 268.8C275.422 268.976 275.102 269.12 274.766 269.12C274.238 269.12 273.982 268.704 273.982 268.128V263.328H275.55V262.272H273.982V260.16H272.782V262.272H271.502V263.328H272.782V268.384C272.782 269.536 273.358 270.192 274.494 270.192ZM282.558 270H283.758V264.544C283.758 262.864 282.91 262.08 281.294 262.08C280.126 262.08 279.07 262.752 278.526 263.392V259.328H277.326V270H278.526V264.352C278.99 263.728 279.886 263.152 280.814 263.152C281.854 263.152 282.558 263.552 282.558 264.912V270ZM291.066 270H292.266V264.688C292.266 262.816 290.906 262.08 289.274 262.08C288.01 262.08 287.018 262.496 286.186 263.36L286.746 264.192C287.434 263.456 288.186 263.12 289.114 263.12C290.234 263.12 291.066 263.712 291.066 264.752V266.144C290.442 265.424 289.562 265.088 288.506 265.088C287.194 265.088 285.802 265.904 285.802 267.632C285.802 269.312 287.194 270.192 288.506 270.192C289.546 270.192 290.426 269.824 291.066 269.12V270ZM291.066 268.368C290.602 269.008 289.786 269.328 288.938 269.328C287.818 269.328 287.034 268.624 287.034 267.648C287.034 266.656 287.818 265.952 288.938 265.952C289.786 265.952 290.602 266.272 291.066 266.912V268.368ZM296.703 270.192C297.407 270.192 297.839 269.984 298.143 269.696L297.791 268.8C297.631 268.976 297.311 269.12 296.975 269.12C296.447 269.12 296.191 268.704 296.191 268.128V263.328H297.759V262.272H296.191V260.16H294.991V262.272H293.711V263.328H294.991V268.384C294.991 269.536 295.567 270.192 296.703 270.192ZM310.427 270H311.627L314.091 262.272H312.843L310.955 268.432L308.923 262.272H307.899L305.867 268.432L303.979 262.272H302.731L305.195 270H306.395L308.411 263.792L310.427 270ZM320.401 270H321.601V264.688C321.601 262.816 320.241 262.08 318.609 262.08C317.345 262.08 316.353 262.496 315.521 263.36L316.081 264.192C316.769 263.456 317.521 263.12 318.449 263.12C319.569 263.12 320.401 263.712 320.401 264.752V266.144C319.777 265.424 318.897 265.088 317.841 265.088C316.529 265.088 315.137 265.904 315.137 267.632C315.137 269.312 316.529 270.192 317.841 270.192C318.881 270.192 319.761 269.824 320.401 269.12V270ZM320.401 268.368C319.937 269.008 319.121 269.328 318.273 269.328C317.153 269.328 316.369 268.624 316.369 267.648C316.369 266.656 317.153 265.952 318.273 265.952C319.121 265.952 319.937 266.272 320.401 266.912V268.368ZM323.415 268.976C324.199 269.808 325.271 270.192 326.535 270.192C328.535 270.192 329.575 269.152 329.575 267.856C329.575 266.144 328.023 265.76 326.679 265.456C325.671 265.216 324.791 264.976 324.791 264.224C324.791 263.536 325.447 263.056 326.503 263.056C327.495 263.056 328.343 263.472 328.807 264.032L329.367 263.2C328.743 262.576 327.815 262.08 326.503 262.08C324.663 262.08 323.623 263.104 323.623 264.304C323.623 265.904 325.111 266.256 326.423 266.56C327.463 266.816 328.407 267.088 328.407 267.936C328.407 268.688 327.767 269.216 326.583 269.216C325.527 269.216 324.551 268.704 324.039 268.112L323.415 268.976ZM339.185 270.192C341.537 270.192 343.009 268.368 343.009 266.128C343.009 263.888 341.537 262.08 339.185 262.08C336.833 262.08 335.361 263.888 335.361 266.128C335.361 268.368 336.833 270.192 339.185 270.192ZM339.185 269.12C337.537 269.12 336.609 267.712 336.609 266.128C336.609 264.56 337.537 263.152 339.185 263.152C340.833 263.152 341.745 264.56 341.745 266.128C341.745 267.712 340.833 269.12 339.185 269.12ZM350.262 270H351.462V262.272H350.262V267.952C349.814 268.576 348.918 269.12 347.974 269.12C346.934 269.12 346.246 268.72 346.246 267.36V262.272H345.046V267.728C345.046 269.408 345.894 270.192 347.51 270.192C348.662 270.192 349.67 269.584 350.262 268.912V270ZM355.89 270.192C356.594 270.192 357.026 269.984 357.33 269.696L356.978 268.8C356.818 268.976 356.498 269.12 356.162 269.12C355.634 269.12 355.378 268.704 355.378 268.128V263.328H356.946V262.272H355.378V260.16H354.178V262.272H352.898V263.328H354.178V268.384C354.178 269.536 354.754 270.192 355.89 270.192ZM366.302 270.192C368.654 270.192 370.126 268.368 370.126 266.128C370.126 263.888 368.654 262.08 366.302 262.08C363.95 262.08 362.478 263.888 362.478 266.128C362.478 268.368 363.95 270.192 366.302 270.192ZM366.302 269.12C364.654 269.12 363.726 267.712 363.726 266.128C363.726 264.56 364.654 263.152 366.302 263.152C367.95 263.152 368.862 264.56 368.862 266.128C368.862 267.712 367.95 269.12 366.302 269.12ZM372.498 270H373.698V263.328H375.266V262.272H373.698V261.68C373.698 260.704 374.13 260.16 374.914 260.16C375.186 260.16 375.41 260.224 375.602 260.336L375.906 259.44C375.602 259.248 375.186 259.168 374.738 259.168C373.394 259.168 372.498 260.08 372.498 261.68V262.272H371.218V263.328H372.498V270ZM380.739 271.936L380.547 273.024C380.771 273.088 381.171 273.136 381.427 273.136C382.451 273.12 383.235 272.688 383.699 271.568L387.571 262.272H386.259L383.699 268.608L381.123 262.272H379.827L383.059 270.08L382.547 271.248C382.275 271.888 381.923 272.064 381.395 272.064C381.203 272.064 380.915 272.016 380.739 271.936ZM392.278 270.192C394.63 270.192 396.102 268.368 396.102 266.128C396.102 263.888 394.63 262.08 392.278 262.08C389.926 262.08 388.454 263.888 388.454 266.128C388.454 268.368 389.926 270.192 392.278 270.192ZM392.278 269.12C390.63 269.12 389.702 267.712 389.702 266.128C389.702 264.56 390.63 263.152 392.278 263.152C393.926 263.152 394.838 264.56 394.838 266.128C394.838 267.712 393.926 269.12 392.278 269.12ZM403.355 270H404.555V262.272H403.355V267.952C402.907 268.576 402.011 269.12 401.067 269.12C400.027 269.12 399.339 268.72 399.339 267.36V262.272H398.139V267.728C398.139 269.408 398.987 270.192 400.603 270.192C401.755 270.192 402.763 269.584 403.355 268.912V270ZM407.031 270H408.231V264.528C408.583 263.904 409.591 263.296 410.327 263.296C410.519 263.296 410.663 263.312 410.807 263.344V262.112C409.751 262.112 408.855 262.704 408.231 263.52V262.272H407.031V270ZM416.15 266.128C416.15 268.432 417.702 270.192 420.006 270.192C421.414 270.192 422.246 269.616 422.838 268.848L422.038 268.112C421.526 268.8 420.87 269.12 420.07 269.12C418.422 269.12 417.398 267.84 417.398 266.128C417.398 264.416 418.422 263.152 420.07 263.152C420.87 263.152 421.526 263.456 422.038 264.16L422.838 263.424C422.246 262.656 421.414 262.08 420.006 262.08C417.702 262.08 416.15 263.84 416.15 266.128ZM427.975 270.192C430.327 270.192 431.799 268.368 431.799 266.128C431.799 263.888 430.327 262.08 427.975 262.08C425.623 262.08 424.151 263.888 424.151 266.128C424.151 268.368 425.623 270.192 427.975 270.192ZM427.975 269.12C426.327 269.12 425.399 267.712 425.399 266.128C425.399 264.56 426.327 263.152 427.975 263.152C429.623 263.152 430.535 264.56 430.535 266.128C430.535 267.712 429.623 269.12 427.975 269.12ZM439.052 270H440.252V264.576C440.252 262.896 439.404 262.08 437.788 262.08C436.636 262.08 435.58 262.752 435.036 263.392V262.272H433.836V270H435.036V264.352C435.484 263.728 436.38 263.152 437.324 263.152C438.364 263.152 439.052 263.584 439.052 264.944V270ZM444.68 270.192C445.384 270.192 445.816 269.984 446.12 269.696L445.768 268.8C445.608 268.976 445.288 269.12 444.952 269.12C444.424 269.12 444.168 268.704 444.168 268.128V263.328H445.736V262.272H444.168V260.16H442.968V262.272H441.688V263.328H442.968V268.384C442.968 269.536 443.544 270.192 444.68 270.192ZM447.511 270H448.711V264.528C449.063 263.904 450.071 263.296 450.807 263.296C450.999 263.296 451.143 263.312 451.287 263.344V262.112C450.231 262.112 449.335 262.704 448.711 263.52V262.272H447.511V270ZM456.248 270.192C458.6 270.192 460.072 268.368 460.072 266.128C460.072 263.888 458.6 262.08 456.248 262.08C453.896 262.08 452.424 263.888 452.424 266.128C452.424 268.368 453.896 270.192 456.248 270.192ZM456.248 269.12C454.6 269.12 453.672 267.712 453.672 266.128C453.672 264.56 454.6 263.152 456.248 263.152C457.896 263.152 458.808 264.56 458.808 266.128C458.808 267.712 457.896 269.12 456.248 269.12ZM462.109 270H463.309V259.328H462.109V270ZM469.54 266.128C469.54 268.432 471.092 270.192 473.396 270.192C474.804 270.192 475.636 269.616 476.228 268.848L475.428 268.112C474.916 268.8 474.26 269.12 473.46 269.12C471.812 269.12 470.788 267.84 470.788 266.128C470.788 264.416 471.812 263.152 473.46 263.152C474.26 263.152 474.916 263.456 475.428 264.16L476.228 263.424C475.636 262.656 474.804 262.08 473.396 262.08C471.092 262.08 469.54 263.84 469.54 266.128ZM482.821 270H484.021V264.688C484.021 262.816 482.661 262.08 481.029 262.08C479.765 262.08 478.773 262.496 477.941 263.36L478.501 264.192C479.189 263.456 479.941 263.12 480.869 263.12C481.989 263.12 482.821 263.712 482.821 264.752V266.144C482.197 265.424 481.317 265.088 480.261 265.088C478.949 265.088 477.557 265.904 477.557 267.632C477.557 269.312 478.949 270.192 480.261 270.192C481.301 270.192 482.181 269.824 482.821 269.12V270ZM482.821 268.368C482.357 269.008 481.541 269.328 480.693 269.328C479.573 269.328 478.789 268.624 478.789 267.648C478.789 266.656 479.573 265.952 480.693 265.952C481.541 265.952 482.357 266.272 482.821 266.912V268.368ZM491.723 270H492.923V262.272H491.723V267.952C491.275 268.576 490.379 269.12 489.435 269.12C488.395 269.12 487.707 268.72 487.707 267.36V262.272H486.507V267.728C486.507 269.408 487.355 270.192 488.971 270.192C490.123 270.192 491.131 269.584 491.723 268.912V270ZM494.727 268.976C495.511 269.808 496.583 270.192 497.847 270.192C499.847 270.192 500.887 269.152 500.887 267.856C500.887 266.144 499.335 265.76 497.991 265.456C496.983 265.216 496.103 264.976 496.103 264.224C496.103 263.536 496.759 263.056 497.815 263.056C498.807 263.056 499.655 263.472 500.119 264.032L500.679 263.2C500.055 262.576 499.127 262.08 497.815 262.08C495.975 262.08 494.935 263.104 494.935 264.304C494.935 265.904 496.423 266.256 497.735 266.56C498.775 266.816 499.719 267.088 499.719 267.936C499.719 268.688 499.079 269.216 497.895 269.216C496.839 269.216 495.863 268.704 495.351 268.112L494.727 268.976ZM502.469 266.128C502.469 268.544 504.117 270.192 506.405 270.192C507.669 270.192 508.709 269.776 509.477 269.008L508.901 268.224C508.293 268.848 507.397 269.2 506.517 269.2C504.853 269.2 503.829 267.984 503.733 266.528H509.989V266.224C509.989 263.904 508.613 262.08 506.277 262.08C504.069 262.08 502.469 263.888 502.469 266.128ZM506.261 263.072C508.021 263.072 508.789 264.496 508.805 265.648H503.733C503.797 264.464 504.613 263.072 506.261 263.072ZM169.152 290.192C169.856 290.192 170.288 289.984 170.592 289.696L170.24 288.8C170.08 288.976 169.76 289.12 169.424 289.12C168.896 289.12 168.64 288.704 168.64 288.128V283.328H170.208V282.272H168.64V280.16H167.44V282.272H166.16V283.328H167.44V288.384C167.44 289.536 168.016 290.192 169.152 290.192ZM177.215 290H178.415V284.544C178.415 282.864 177.567 282.08 175.951 282.08C174.783 282.08 173.727 282.752 173.183 283.392V279.328H171.983V290H173.183V284.352C173.647 283.728 174.543 283.152 175.471 283.152C176.511 283.152 177.215 283.552 177.215 284.912V290ZM180.443 286.128C180.443 288.544 182.091 290.192 184.379 290.192C185.643 290.192 186.683 289.776 187.451 289.008L186.875 288.224C186.267 288.848 185.371 289.2 184.491 289.2C182.827 289.2 181.803 287.984 181.707 286.528H187.963V286.224C187.963 283.904 186.587 282.08 184.251 282.08C182.043 282.08 180.443 283.888 180.443 286.128ZM184.235 283.072C185.995 283.072 186.763 284.496 186.779 285.648H181.707C181.771 284.464 182.587 283.072 184.235 283.072ZM195.392 292.944V288.832C196.016 289.696 196.944 290.192 198 290.192C200.032 290.192 201.44 288.624 201.44 286.128C201.44 283.616 200.032 282.08 198 282.08C196.912 282.08 195.952 282.64 195.392 283.424V282.272H194.192V292.944H195.392ZM200.176 286.128C200.176 287.84 199.248 289.12 197.696 289.12C196.752 289.12 195.808 288.544 195.392 287.872V284.384C195.808 283.712 196.752 283.152 197.696 283.152C199.248 283.152 200.176 284.416 200.176 286.128ZM208.291 290H209.491V284.688C209.491 282.816 208.131 282.08 206.499 282.08C205.235 282.08 204.243 282.496 203.411 283.36L203.971 284.192C204.659 283.456 205.411 283.12 206.339 283.12C207.459 283.12 208.291 283.712 208.291 284.752V286.144C207.667 285.424 206.787 285.088 205.731 285.088C204.419 285.088 203.027 285.904 203.027 287.632C203.027 289.312 204.419 290.192 205.731 290.192C206.771 290.192 207.651 289.824 208.291 289.12V290ZM208.291 288.368C207.827 289.008 207.011 289.328 206.163 289.328C205.043 289.328 204.259 288.624 204.259 287.648C204.259 286.656 205.043 285.952 206.163 285.952C207.011 285.952 207.827 286.272 208.291 286.912V288.368ZM211.529 286.128C211.529 288.432 213.081 290.192 215.385 290.192C216.793 290.192 217.625 289.616 218.217 288.848L217.417 288.112C216.905 288.8 216.249 289.12 215.449 289.12C213.801 289.12 212.777 287.84 212.777 286.128C212.777 284.416 213.801 283.152 215.449 283.152C216.249 283.152 216.905 283.456 217.417 284.16L218.217 283.424C217.625 282.656 216.793 282.08 215.385 282.08C213.081 282.08 211.529 283.84 211.529 286.128ZM225.243 290H226.779L223.339 285.776L226.763 282.272H225.243L221.179 286.384V279.328H219.979V290H221.179V287.792L222.459 286.528L225.243 290ZM233.109 290H234.309V284.688C234.309 282.816 232.949 282.08 231.317 282.08C230.053 282.08 229.061 282.496 228.229 283.36L228.789 284.192C229.477 283.456 230.229 283.12 231.157 283.12C232.277 283.12 233.109 283.712 233.109 284.752V286.144C232.485 285.424 231.605 285.088 230.549 285.088C229.237 285.088 227.845 285.904 227.845 287.632C227.845 289.312 229.237 290.192 230.549 290.192C231.589 290.192 232.469 289.824 233.109 289.12V290ZM233.109 288.368C232.645 289.008 231.829 289.328 230.981 289.328C229.861 289.328 229.077 288.624 229.077 287.648C229.077 286.656 229.861 285.952 230.981 285.952C231.829 285.952 232.645 286.272 233.109 286.912V288.368ZM236.779 291.984C237.691 292.88 238.587 293.136 239.899 293.136C241.787 293.136 243.579 292.336 243.579 289.776V282.272H242.379V283.44C241.755 282.592 240.827 282.08 239.787 282.08C237.755 282.08 236.347 283.616 236.347 286.096C236.347 288.592 237.771 290.096 239.787 290.096C240.875 290.096 241.819 289.504 242.379 288.72V289.824C242.379 291.52 241.179 292.144 239.899 292.144C238.795 292.144 238.027 291.856 237.387 291.088L236.779 291.984ZM242.379 287.776C241.963 288.448 241.035 289.04 240.075 289.04C238.523 289.04 237.595 287.792 237.595 286.096C237.595 284.384 238.523 283.152 240.075 283.152C241.035 283.152 241.963 283.728 242.379 284.4V287.776ZM245.615 286.128C245.615 288.544 247.263 290.192 249.551 290.192C250.815 290.192 251.855 289.776 252.623 289.008L252.047 288.224C251.439 288.848 250.543 289.2 249.663 289.2C247.999 289.2 246.975 287.984 246.879 286.528H253.135V286.224C253.135 283.904 251.759 282.08 249.423 282.08C247.215 282.08 245.615 283.888 245.615 286.128ZM249.407 283.072C251.167 283.072 251.935 284.496 251.951 285.648H246.879C246.943 284.464 247.759 283.072 249.407 283.072ZM261.315 290.192C262.019 290.192 262.451 289.984 262.755 289.696L262.403 288.8C262.243 288.976 261.923 289.12 261.587 289.12C261.059 289.12 260.803 288.704 260.803 288.128V283.328H262.371V282.272H260.803V280.16H259.603V282.272H258.323V283.328H259.603V288.384C259.603 289.536 260.179 290.192 261.315 290.192ZM267.522 290.192C269.874 290.192 271.346 288.368 271.346 286.128C271.346 283.888 269.874 282.08 267.522 282.08C265.17 282.08 263.698 283.888 263.698 286.128C263.698 288.368 265.17 290.192 267.522 290.192ZM267.522 289.12C265.874 289.12 264.946 287.712 264.946 286.128C264.946 284.56 265.874 283.152 267.522 283.152C269.17 283.152 270.082 284.56 270.082 286.128C270.082 287.712 269.17 289.12 267.522 289.12ZM277.587 290H278.787V288.848C279.363 289.632 280.307 290.192 281.395 290.192C283.411 290.192 284.835 288.656 284.835 286.144C284.835 283.68 283.411 282.08 281.395 282.08C280.339 282.08 279.411 282.592 278.787 283.44V279.328H277.587V290ZM278.787 287.904V284.4C279.203 283.728 280.147 283.152 281.091 283.152C282.659 283.152 283.587 284.432 283.587 286.144C283.587 287.856 282.659 289.12 281.091 289.12C280.147 289.12 279.203 288.576 278.787 287.904ZM286.423 286.128C286.423 288.544 288.071 290.192 290.359 290.192C291.623 290.192 292.663 289.776 293.431 289.008L292.855 288.224C292.247 288.848 291.351 289.2 290.471 289.2C288.807 289.2 287.783 287.984 287.687 286.528H293.943V286.224C293.943 283.904 292.567 282.08 290.231 282.08C288.023 282.08 286.423 283.888 286.423 286.128ZM290.215 283.072C291.975 283.072 292.743 284.496 292.759 285.648H287.687C287.751 284.464 288.567 283.072 290.215 283.072ZM305.771 290H306.971V279.328H305.771V283.44C305.147 282.592 304.203 282.08 303.163 282.08C301.131 282.08 299.723 283.68 299.723 286.144C299.723 288.656 301.147 290.192 303.163 290.192C304.251 290.192 305.195 289.632 305.771 288.848V290ZM305.771 287.904C305.339 288.576 304.411 289.12 303.451 289.12C301.899 289.12 300.971 287.856 300.971 286.144C300.971 284.432 301.899 283.152 303.451 283.152C304.411 283.152 305.339 283.728 305.771 284.4V287.904ZM309.006 286.128C309.006 288.544 310.654 290.192 312.942 290.192C314.206 290.192 315.246 289.776 316.014 289.008L315.438 288.224C314.83 288.848 313.934 289.2 313.054 289.2C311.39 289.2 310.366 287.984 310.27 286.528H316.526V286.224C316.526 283.904 315.15 282.08 312.814 282.08C310.606 282.08 309.006 283.888 309.006 286.128ZM312.798 283.072C314.558 283.072 315.326 284.496 315.342 285.648H310.27C310.334 284.464 311.15 283.072 312.798 283.072ZM318.55 290H319.75V279.328H318.55V290ZM327.056 290H328.256V284.688C328.256 282.816 326.896 282.08 325.264 282.08C324 282.08 323.008 282.496 322.176 283.36L322.736 284.192C323.424 283.456 324.176 283.12 325.104 283.12C326.224 283.12 327.056 283.712 327.056 284.752V286.144C326.432 285.424 325.552 285.088 324.496 285.088C323.184 285.088 321.792 285.904 321.792 287.632C321.792 289.312 323.184 290.192 324.496 290.192C325.536 290.192 326.416 289.824 327.056 289.12V290ZM327.056 288.368C326.592 289.008 325.776 289.328 324.928 289.328C323.808 289.328 323.024 288.624 323.024 287.648C323.024 286.656 323.808 285.952 324.928 285.952C325.776 285.952 326.592 286.272 327.056 286.912V288.368ZM330.501 291.936L330.309 293.024C330.533 293.088 330.933 293.136 331.189 293.136C332.213 293.12 332.997 292.688 333.461 291.568L337.333 282.272H336.021L333.461 288.608L330.885 282.272H329.589L332.821 290.08L332.309 291.248C332.037 291.888 331.685 292.064 331.157 292.064C330.965 292.064 330.677 292.016 330.501 291.936ZM338.217 286.128C338.217 288.544 339.865 290.192 342.153 290.192C343.417 290.192 344.457 289.776 345.225 289.008L344.649 288.224C344.041 288.848 343.145 289.2 342.265 289.2C340.601 289.2 339.577 287.984 339.481 286.528H345.737V286.224C345.737 283.904 344.361 282.08 342.025 282.08C339.817 282.08 338.217 283.888 338.217 286.128ZM342.009 283.072C343.769 283.072 344.537 284.496 344.553 285.648H339.481C339.545 284.464 340.361 283.072 342.009 283.072ZM353.361 290H354.561V279.328H353.361V283.44C352.737 282.592 351.793 282.08 350.753 282.08C348.721 282.08 347.313 283.68 347.313 286.144C347.313 288.656 348.737 290.192 350.753 290.192C351.841 290.192 352.785 289.632 353.361 288.848V290ZM353.361 287.904C352.929 288.576 352.001 289.12 351.041 289.12C349.489 289.12 348.561 287.856 348.561 286.144C348.561 284.432 349.489 283.152 351.041 283.152C352.001 283.152 352.929 283.728 353.361 284.4V287.904ZM358.468 285.744C358.468 286.224 358.66 286.672 359.092 287.04L360.068 286.624C359.796 286.416 359.636 286.096 359.636 285.84C359.636 285.136 360.26 284.72 360.948 284.24C361.796 283.648 362.74 282.992 362.74 281.648C362.74 280.272 361.556 279.168 359.604 279.168C358.084 279.168 356.9 279.808 356.132 280.8L356.932 281.664C357.524 280.88 358.276 280.352 359.476 280.352C360.74 280.352 361.364 281.04 361.364 281.84C361.364 282.656 360.708 283.104 360.004 283.584C359.268 284.112 358.468 284.672 358.468 285.744ZM358.548 289.28C358.548 289.76 358.948 290.16 359.428 290.16C359.908 290.16 360.308 289.76 360.308 289.28C360.308 288.8 359.908 288.4 359.428 288.4C358.948 288.4 358.548 288.8 358.548 289.28Z" fill="#333333"/>
<path d="M167.248 407H168.576V402.76H171.536C173.648 402.76 174.88 401.288 174.88 399.544C174.88 397.8 173.68 396.328 171.536 396.328H167.248V407ZM173.504 399.544C173.504 400.744 172.64 401.576 171.376 401.576H168.576V397.512H171.376C172.64 397.512 173.504 398.344 173.504 399.544ZM176.671 407H177.871V396.328H176.671V407ZM179.896 403.128C179.896 405.544 181.544 407.192 183.832 407.192C185.096 407.192 186.136 406.776 186.904 406.008L186.328 405.224C185.72 405.848 184.824 406.2 183.944 406.2C182.28 406.2 181.256 404.984 181.16 403.528H187.416V403.224C187.416 400.904 186.04 399.08 183.704 399.08C181.496 399.08 179.896 400.888 179.896 403.128ZM183.688 400.072C185.448 400.072 186.216 401.496 186.232 402.648H181.16C181.224 401.464 182.04 400.072 183.688 400.072ZM194.272 407H195.472V401.688C195.472 399.816 194.112 399.08 192.48 399.08C191.216 399.08 190.224 399.496 189.392 400.36L189.952 401.192C190.64 400.456 191.392 400.12 192.32 400.12C193.44 400.12 194.272 400.712 194.272 401.752V403.144C193.648 402.424 192.768 402.088 191.712 402.088C190.4 402.088 189.008 402.904 189.008 404.632C189.008 406.312 190.4 407.192 191.712 407.192C192.752 407.192 193.632 406.824 194.272 406.12V407ZM194.272 405.368C193.808 406.008 192.992 406.328 192.144 406.328C191.024 406.328 190.24 405.624 190.24 404.648C190.24 403.656 191.024 402.952 192.144 402.952C192.992 402.952 193.808 403.272 194.272 403.912V405.368ZM197.285 405.976C198.069 406.808 199.141 407.192 200.405 407.192C202.405 407.192 203.445 406.152 203.445 404.856C203.445 403.144 201.893 402.76 200.549 402.456C199.541 402.216 198.661 401.976 198.661 401.224C198.661 400.536 199.317 400.056 200.373 400.056C201.365 400.056 202.214 400.472 202.677 401.032L203.238 400.2C202.614 399.576 201.686 399.08 200.373 399.08C198.533 399.08 197.493 400.104 197.493 401.304C197.493 402.904 198.981 403.256 200.293 403.56C201.333 403.816 202.278 404.088 202.278 404.936C202.278 405.688 201.637 406.216 200.453 406.216C199.397 406.216 198.421 405.704 197.909 405.112L197.285 405.976ZM205.027 403.128C205.027 405.544 206.675 407.192 208.963 407.192C210.227 407.192 211.267 406.776 212.035 406.008L211.459 405.224C210.851 405.848 209.955 406.2 209.075 406.2C207.411 406.2 206.387 404.984 206.291 403.528H212.547V403.224C212.547 400.904 211.171 399.08 208.835 399.08C206.627 399.08 205.027 400.888 205.027 403.128ZM208.819 400.072C210.579 400.072 211.347 401.496 211.363 402.648H206.291C206.355 401.464 207.171 400.072 208.819 400.072ZM218.104 405.976C218.888 406.808 219.96 407.192 221.224 407.192C223.224 407.192 224.264 406.152 224.264 404.856C224.264 403.144 222.712 402.76 221.368 402.456C220.36 402.216 219.48 401.976 219.48 401.224C219.48 400.536 220.136 400.056 221.192 400.056C222.184 400.056 223.032 400.472 223.496 401.032L224.056 400.2C223.432 399.576 222.504 399.08 221.192 399.08C219.352 399.08 218.312 400.104 218.312 401.304C218.312 402.904 219.8 403.256 221.112 403.56C222.152 403.816 223.096 404.088 223.096 404.936C223.096 405.688 222.456 406.216 221.272 406.216C220.216 406.216 219.24 405.704 218.728 405.112L218.104 405.976ZM225.845 403.128C225.845 405.544 227.493 407.192 229.781 407.192C231.045 407.192 232.085 406.776 232.853 406.008L232.277 405.224C231.669 405.848 230.773 406.2 229.893 406.2C228.229 406.2 227.205 404.984 227.109 403.528H233.365V403.224C233.365 400.904 231.989 399.08 229.653 399.08C227.445 399.08 225.845 400.888 225.845 403.128ZM229.637 400.072C231.397 400.072 232.165 401.496 232.181 402.648H227.109C227.173 401.464 227.989 400.072 229.637 400.072ZM235.389 407H236.589V396.328H235.389V407ZM238.615 403.128C238.615 405.544 240.263 407.192 242.551 407.192C243.815 407.192 244.855 406.776 245.623 406.008L245.047 405.224C244.439 405.848 243.543 406.2 242.663 406.2C240.999 406.2 239.975 404.984 239.879 403.528H246.135V403.224C246.135 400.904 244.759 399.08 242.423 399.08C240.215 399.08 238.615 400.888 238.615 403.128ZM242.407 400.072C244.167 400.072 244.935 401.496 244.951 402.648H239.879C239.943 401.464 240.759 400.072 242.407 400.072ZM247.71 403.128C247.71 405.432 249.262 407.192 251.566 407.192C252.974 407.192 253.806 406.616 254.398 405.848L253.598 405.112C253.086 405.8 252.43 406.12 251.63 406.12C249.982 406.12 248.958 404.84 248.958 403.128C248.958 401.416 249.982 400.152 251.63 400.152C252.43 400.152 253.086 400.456 253.598 401.16L254.398 400.424C253.806 399.656 252.974 399.08 251.566 399.08C249.262 399.08 247.71 400.84 247.71 403.128ZM258.112 407.192C258.816 407.192 259.248 406.984 259.552 406.696L259.2 405.8C259.04 405.976 258.72 406.12 258.384 406.12C257.856 406.12 257.6 405.704 257.6 405.128V400.328H259.168V399.272H257.6V397.16H256.4V399.272H255.12V400.328H256.4V405.384C256.4 406.536 256.976 407.192 258.112 407.192ZM269.98 407H271.18V401.688C271.18 399.816 269.82 399.08 268.188 399.08C266.924 399.08 265.932 399.496 265.1 400.36L265.66 401.192C266.348 400.456 267.1 400.12 268.028 400.12C269.148 400.12 269.98 400.712 269.98 401.752V403.144C269.356 402.424 268.476 402.088 267.42 402.088C266.108 402.088 264.716 402.904 264.716 404.632C264.716 406.312 266.108 407.192 267.42 407.192C268.46 407.192 269.34 406.824 269.98 406.12V407ZM269.98 405.368C269.516 406.008 268.7 406.328 267.852 406.328C266.732 406.328 265.948 405.624 265.948 404.648C265.948 403.656 266.732 402.952 267.852 402.952C268.7 402.952 269.516 403.272 269.98 403.912V405.368ZM278.882 407H280.082V401.576C280.082 399.896 279.234 399.08 277.618 399.08C276.466 399.08 275.41 399.752 274.866 400.392V399.272H273.666V407H274.866V401.352C275.314 400.728 276.21 400.152 277.154 400.152C278.194 400.152 278.882 400.584 278.882 401.944V407ZM290.139 407.192C292.491 407.192 293.963 405.368 293.963 403.128C293.963 400.888 292.491 399.08 290.139 399.08C287.787 399.08 286.315 400.888 286.315 403.128C286.315 405.368 287.787 407.192 290.139 407.192ZM290.139 406.12C288.491 406.12 287.563 404.712 287.563 403.128C287.563 401.56 288.491 400.152 290.139 400.152C291.787 400.152 292.699 401.56 292.699 403.128C292.699 404.712 291.787 406.12 290.139 406.12ZM297.199 409.944V405.832C297.823 406.696 298.751 407.192 299.807 407.192C301.839 407.192 303.247 405.624 303.247 403.128C303.247 400.616 301.839 399.08 299.807 399.08C298.719 399.08 297.759 399.64 297.199 400.424V399.272H295.999V409.944H297.199ZM301.983 403.128C301.983 404.84 301.055 406.12 299.503 406.12C298.559 406.12 297.615 405.544 297.199 404.872V401.384C297.615 400.712 298.559 400.152 299.503 400.152C301.055 400.152 301.983 401.416 301.983 403.128ZM307.219 407.192C307.923 407.192 308.355 406.984 308.659 406.696L308.307 405.8C308.147 405.976 307.827 406.12 307.491 406.12C306.963 406.12 306.707 405.704 306.707 405.128V400.328H308.275V399.272H306.707V397.16H305.507V399.272H304.227V400.328H305.507V405.384C305.507 406.536 306.083 407.192 307.219 407.192ZM310.642 397.976C311.09 397.976 311.458 397.608 311.458 397.16C311.458 396.712 311.09 396.36 310.642 396.36C310.21 396.36 309.842 396.712 309.842 397.16C309.842 397.608 310.21 397.976 310.642 397.976ZM310.05 407H311.25V399.272H310.05V407ZM317.1 407.192C319.452 407.192 320.924 405.368 320.924 403.128C320.924 400.888 319.452 399.08 317.1 399.08C314.748 399.08 313.276 400.888 313.276 403.128C313.276 405.368 314.748 407.192 317.1 407.192ZM317.1 406.12C315.452 406.12 314.524 404.712 314.524 403.128C314.524 401.56 315.452 400.152 317.1 400.152C318.748 400.152 319.66 401.56 319.66 403.128C319.66 404.712 318.748 406.12 317.1 406.12ZM328.176 407H329.376V401.576C329.376 399.896 328.528 399.08 326.912 399.08C325.76 399.08 324.704 399.752 324.16 400.392V399.272H322.96V407H324.16V401.352C324.608 400.728 325.504 400.152 326.448 400.152C327.488 400.152 328.176 400.584 328.176 401.944V407ZM338.009 407.192C338.713 407.192 339.145 406.984 339.449 406.696L339.097 405.8C338.937 405.976 338.617 406.12 338.281 406.12C337.753 406.12 337.497 405.704 337.497 405.128V400.328H339.065V399.272H337.497V397.16H336.297V399.272H335.017V400.328H336.297V405.384C336.297 406.536 336.873 407.192 338.009 407.192ZM346.073 407H347.273V401.544C347.273 399.864 346.425 399.08 344.809 399.08C343.641 399.08 342.585 399.752 342.041 400.392V396.328H340.841V407H342.041V401.352C342.505 400.728 343.401 400.152 344.329 400.152C345.369 400.152 346.073 400.552 346.073 401.912V407ZM354.581 407H355.781V401.688C355.781 399.816 354.421 399.08 352.789 399.08C351.525 399.08 350.533 399.496 349.701 400.36L350.261 401.192C350.949 400.456 351.701 400.12 352.629 400.12C353.749 400.12 354.581 400.712 354.581 401.752V403.144C353.957 402.424 353.077 402.088 352.021 402.088C350.709 402.088 349.317 402.904 349.317 404.632C349.317 406.312 350.709 407.192 352.021 407.192C353.061 407.192 353.941 406.824 354.581 406.12V407ZM354.581 405.368C354.117 406.008 353.301 406.328 352.453 406.328C351.333 406.328 350.549 405.624 350.549 404.648C350.549 403.656 351.333 402.952 352.453 402.952C353.301 402.952 354.117 403.272 354.581 403.912V405.368ZM360.218 407.192C360.922 407.192 361.354 406.984 361.658 406.696L361.306 405.8C361.146 405.976 360.826 406.12 360.49 406.12C359.962 406.12 359.706 405.704 359.706 405.128V400.328H361.274V399.272H359.706V397.16H358.506V399.272H357.226V400.328H358.506V405.384C358.506 406.536 359.082 407.192 360.218 407.192ZM367.254 407H368.454V405.848C369.03 406.632 369.974 407.192 371.062 407.192C373.078 407.192 374.502 405.656 374.502 403.144C374.502 400.68 373.078 399.08 371.062 399.08C370.006 399.08 369.078 399.592 368.454 400.44V396.328H367.254V407ZM368.454 404.904V401.4C368.87 400.728 369.814 400.152 370.758 400.152C372.326 400.152 373.254 401.432 373.254 403.144C373.254 404.856 372.326 406.12 370.758 406.12C369.814 406.12 368.87 405.576 368.454 404.904ZM376.089 403.128C376.089 405.544 377.737 407.192 380.025 407.192C381.289 407.192 382.329 406.776 383.097 406.008L382.521 405.224C381.913 405.848 381.017 406.2 380.137 406.2C378.473 406.2 377.449 404.984 377.353 403.528H383.609V403.224C383.609 400.904 382.233 399.08 379.897 399.08C377.689 399.08 376.089 400.888 376.089 403.128ZM379.881 400.072C381.641 400.072 382.409 401.496 382.425 402.648H377.353C377.417 401.464 378.233 400.072 379.881 400.072ZM384.961 405.976C385.745 406.808 386.817 407.192 388.081 407.192C390.081 407.192 391.121 406.152 391.121 404.856C391.121 403.144 389.569 402.76 388.225 402.456C387.217 402.216 386.337 401.976 386.337 401.224C386.337 400.536 386.993 400.056 388.049 400.056C389.041 400.056 389.889 400.472 390.353 401.032L390.913 400.2C390.289 399.576 389.361 399.08 388.049 399.08C386.209 399.08 385.169 400.104 385.169 401.304C385.169 402.904 386.657 403.256 387.969 403.56C389.009 403.816 389.953 404.088 389.953 404.936C389.953 405.688 389.313 406.216 388.129 406.216C387.073 406.216 386.097 405.704 385.585 405.112L384.961 405.976ZM395.103 407.192C395.807 407.192 396.239 406.984 396.543 406.696L396.191 405.8C396.031 405.976 395.711 406.12 395.375 406.12C394.847 406.12 394.591 405.704 394.591 405.128V400.328H396.159V399.272H394.591V397.16H393.391V399.272H392.111V400.328H393.391V405.384C393.391 406.536 393.967 407.192 395.103 407.192ZM407.739 407H408.939V396.328H407.739V400.44C407.115 399.592 406.171 399.08 405.131 399.08C403.099 399.08 401.691 400.68 401.691 403.144C401.691 405.656 403.115 407.192 405.131 407.192C406.219 407.192 407.163 406.632 407.739 405.848V407ZM407.739 404.904C407.307 405.576 406.379 406.12 405.419 406.12C403.867 406.12 402.939 404.856 402.939 403.144C402.939 401.432 403.867 400.152 405.419 400.152C406.379 400.152 407.307 400.728 407.739 401.4V404.904ZM410.974 403.128C410.974 405.544 412.622 407.192 414.91 407.192C416.174 407.192 417.214 406.776 417.982 406.008L417.406 405.224C416.798 405.848 415.902 406.2 415.022 406.2C413.358 406.2 412.334 404.984 412.238 403.528H418.494V403.224C418.494 400.904 417.118 399.08 414.782 399.08C412.574 399.08 410.974 400.888 410.974 403.128ZM414.766 400.072C416.526 400.072 417.294 401.496 417.31 402.648H412.238C412.302 401.464 413.118 400.072 414.766 400.072ZM419.846 405.976C420.63 406.808 421.702 407.192 422.966 407.192C424.966 407.192 426.006 406.152 426.006 404.856C426.006 403.144 424.454 402.76 423.11 402.456C422.102 402.216 421.222 401.976 421.222 401.224C421.222 400.536 421.878 400.056 422.934 400.056C423.926 400.056 424.774 400.472 425.238 401.032L425.798 400.2C425.174 399.576 424.246 399.08 422.934 399.08C421.094 399.08 420.054 400.104 420.054 401.304C420.054 402.904 421.542 403.256 422.854 403.56C423.894 403.816 424.838 404.088 424.838 404.936C424.838 405.688 424.198 406.216 423.014 406.216C421.958 406.216 420.982 405.704 420.47 405.112L419.846 405.976ZM427.587 403.128C427.587 405.432 429.139 407.192 431.443 407.192C432.851 407.192 433.683 406.616 434.275 405.848L433.475 405.112C432.963 405.8 432.307 406.12 431.507 406.12C429.859 406.12 428.835 404.84 428.835 403.128C428.835 401.416 429.859 400.152 431.507 400.152C432.307 400.152 432.963 400.456 433.475 401.16L434.275 400.424C433.683 399.656 432.851 399.08 431.443 399.08C429.139 399.08 427.587 400.84 427.587 403.128ZM436.037 407H437.237V401.528C437.589 400.904 438.597 400.296 439.333 400.296C439.525 400.296 439.669 400.312 439.813 400.344V399.112C438.757 399.112 437.861 399.704 437.237 400.52V399.272H436.037V407ZM441.99 397.976C442.438 397.976 442.806 397.608 442.806 397.16C442.806 396.712 442.438 396.36 441.99 396.36C441.558 396.36 441.19 396.712 441.19 397.16C441.19 397.608 441.558 397.976 441.99 397.976ZM441.398 407H442.598V399.272H441.398V407ZM445.072 407H446.272V405.848C446.848 406.632 447.792 407.192 448.88 407.192C450.896 407.192 452.32 405.656 452.32 403.144C452.32 400.68 450.896 399.08 448.88 399.08C447.824 399.08 446.896 399.592 446.272 400.44V396.328H445.072V407ZM446.272 404.904V401.4C446.688 400.728 447.632 400.152 448.576 400.152C450.144 400.152 451.072 401.432 451.072 403.144C451.072 404.856 450.144 406.12 448.576 406.12C447.632 406.12 446.688 405.576 446.272 404.904ZM453.907 403.128C453.907 405.544 455.555 407.192 457.843 407.192C459.107 407.192 460.147 406.776 460.915 406.008L460.339 405.224C459.731 405.848 458.835 406.2 457.955 406.2C456.291 406.2 455.267 404.984 455.171 403.528H461.427V403.224C461.427 400.904 460.051 399.08 457.715 399.08C455.507 399.08 453.907 400.888 453.907 403.128ZM457.699 400.072C459.459 400.072 460.227 401.496 460.243 402.648H455.171C455.235 401.464 456.051 400.072 457.699 400.072ZM462.779 405.976C463.563 406.808 464.635 407.192 465.899 407.192C467.899 407.192 468.939 406.152 468.939 404.856C468.939 403.144 467.387 402.76 466.043 402.456C465.035 402.216 464.155 401.976 464.155 401.224C464.155 400.536 464.811 400.056 465.867 400.056C466.859 400.056 467.707 400.472 468.171 401.032L468.731 400.2C468.107 399.576 467.179 399.08 465.867 399.08C464.027 399.08 462.987 400.104 462.987 401.304C462.987 402.904 464.475 403.256 465.787 403.56C466.827 403.816 467.771 404.088 467.771 404.936C467.771 405.688 467.131 406.216 465.947 406.216C464.891 406.216 463.915 405.704 463.403 405.112L462.779 405.976ZM477.125 407.192C477.829 407.192 478.261 406.984 478.565 406.696L478.213 405.8C478.053 405.976 477.733 406.12 477.397 406.12C476.869 406.12 476.613 405.704 476.613 405.128V400.328H478.181V399.272H476.613V397.16H475.413V399.272H474.133V400.328H475.413V405.384C475.413 406.536 475.989 407.192 477.125 407.192ZM485.188 407H486.388V401.544C486.388 399.864 485.54 399.08 483.924 399.08C482.756 399.08 481.7 399.752 481.156 400.392V396.328H479.956V407H481.156V401.352C481.62 400.728 482.516 400.152 483.444 400.152C484.484 400.152 485.188 400.552 485.188 401.912V407ZM488.416 403.128C488.416 405.544 490.064 407.192 492.352 407.192C493.616 407.192 494.656 406.776 495.424 406.008L494.848 405.224C494.24 405.848 493.344 406.2 492.464 406.2C490.8 406.2 489.776 404.984 489.68 403.528H495.936V403.224C495.936 400.904 494.56 399.08 492.224 399.08C490.016 399.08 488.416 400.888 488.416 403.128ZM492.208 400.072C493.968 400.072 494.736 401.496 494.752 402.648H489.68C489.744 401.464 490.56 400.072 492.208 400.072ZM166.528 425.976C167.312 426.808 168.384 427.192 169.648 427.192C171.648 427.192 172.688 426.152 172.688 424.856C172.688 423.144 171.136 422.76 169.792 422.456C168.784 422.216 167.904 421.976 167.904 421.224C167.904 420.536 168.56 420.056 169.616 420.056C170.608 420.056 171.456 420.472 171.92 421.032L172.48 420.2C171.856 419.576 170.928 419.08 169.616 419.08C167.776 419.08 166.736 420.104 166.736 421.304C166.736 422.904 168.224 423.256 169.536 423.56C170.576 423.816 171.52 424.088 171.52 424.936C171.52 425.688 170.88 426.216 169.696 426.216C168.64 426.216 167.664 425.704 167.152 425.112L166.528 425.976ZM175.309 417.976C175.757 417.976 176.125 417.608 176.125 417.16C176.125 416.712 175.757 416.36 175.309 416.36C174.877 416.36 174.509 416.712 174.509 417.16C174.509 417.608 174.877 417.976 175.309 417.976ZM174.717 427H175.918V419.272H174.717V427ZM180.343 427.192C181.047 427.192 181.479 426.984 181.783 426.696L181.431 425.8C181.271 425.976 180.951 426.12 180.615 426.12C180.087 426.12 179.831 425.704 179.831 425.128V420.328H181.399V419.272H179.831V417.16H178.631V419.272H177.351V420.328H178.631V425.384C178.631 426.536 179.207 427.192 180.343 427.192ZM188.39 427H189.59V419.272H188.39V424.952C187.942 425.576 187.046 426.12 186.102 426.12C185.062 426.12 184.374 425.72 184.374 424.36V419.272H183.174V424.728C183.174 426.408 184.022 427.192 185.638 427.192C186.79 427.192 187.798 426.584 188.39 425.912V427ZM196.899 427H198.099V421.688C198.099 419.816 196.739 419.08 195.107 419.08C193.843 419.08 192.851 419.496 192.019 420.36L192.579 421.192C193.267 420.456 194.019 420.12 194.947 420.12C196.067 420.12 196.899 420.712 196.899 421.752V423.144C196.275 422.424 195.395 422.088 194.339 422.088C193.027 422.088 191.635 422.904 191.635 424.632C191.635 426.312 193.027 427.192 194.339 427.192C195.379 427.192 196.259 426.824 196.899 426.12V427ZM196.899 425.368C196.435 426.008 195.619 426.328 194.771 426.328C193.651 426.328 192.867 425.624 192.867 424.648C192.867 423.656 193.651 422.952 194.771 422.952C195.619 422.952 196.435 423.272 196.899 423.912V425.368ZM202.536 427.192C203.24 427.192 203.672 426.984 203.976 426.696L203.624 425.8C203.464 425.976 203.144 426.12 202.808 426.12C202.28 426.12 202.024 425.704 202.024 425.128V420.328H203.592V419.272H202.024V417.16H200.824V419.272H199.544V420.328H200.824V425.384C200.824 426.536 201.4 427.192 202.536 427.192ZM205.959 417.976C206.407 417.976 206.775 417.608 206.775 417.16C206.775 416.712 206.407 416.36 205.959 416.36C205.527 416.36 205.159 416.712 205.159 417.16C205.159 417.608 205.527 417.976 205.959 417.976ZM205.367 427H206.567V419.272H205.367V427ZM212.417 427.192C214.769 427.192 216.241 425.368 216.241 423.128C216.241 420.888 214.769 419.08 212.417 419.08C210.065 419.08 208.593 420.888 208.593 423.128C208.593 425.368 210.065 427.192 212.417 427.192ZM212.417 426.12C210.769 426.12 209.841 424.712 209.841 423.128C209.841 421.56 210.769 420.152 212.417 420.152C214.065 420.152 214.977 421.56 214.977 423.128C214.977 424.712 214.065 426.12 212.417 426.12ZM223.493 427H224.693V421.576C224.693 419.896 223.845 419.08 222.229 419.08C221.077 419.08 220.021 419.752 219.477 420.392V419.272H218.277V427H219.477V421.352C219.925 420.728 220.821 420.152 221.765 420.152C222.805 420.152 223.493 420.584 223.493 421.944V427Z" fill="#333333"/>
<path fill-rule="evenodd" clip-rule="evenodd" d="M178 465C181.866 465 185 461.866 185 458C185 454.134 181.866 451 178 451C174.134 451 171 454.134 171 458C171 461.866 174.134 465 178 465Z" fill="white"/>
<path fill-rule="evenodd" clip-rule="evenodd" d="M178 466C182.418 466 186 462.418 186 458C186 453.582 182.418 450 178 450C173.582 450 170 453.582 170 458C170 462.418 173.582 466 178 466Z" stroke="#BFCDD4" stroke-width="2"/>
<path d="M195.092 462H198.284C201.182 462 203.072 459.998 203.072 457.338C203.072 454.692 201.182 452.662 198.284 452.662H195.092V462ZM196.254 460.964V453.698H198.284C200.594 453.698 201.868 455.322 201.868 457.338C201.868 459.34 200.552 460.964 198.284 460.964H196.254ZM207.877 462.168C209.935 462.168 211.223 460.572 211.223 458.612C211.223 456.652 209.935 455.07 207.877 455.07C205.819 455.07 204.531 456.652 204.531 458.612C204.531 460.572 205.819 462.168 207.877 462.168ZM207.877 461.23C206.435 461.23 205.623 459.998 205.623 458.612C205.623 457.24 206.435 456.008 207.877 456.008C209.319 456.008 210.117 457.24 210.117 458.612C210.117 459.998 209.319 461.23 207.877 461.23ZM221.166 462H222.216V457.114C222.216 455.756 221.558 455.07 220.326 455.07C219.346 455.07 218.436 455.714 218.058 456.33C217.862 455.63 217.274 455.07 216.238 455.07C215.244 455.07 214.334 455.784 214.054 456.218V455.238H213.004V462H214.054V457.058C214.418 456.512 215.146 456.008 215.832 456.008C216.714 456.008 217.078 456.554 217.078 457.408V462H218.128V457.044C218.478 456.512 219.22 456.008 219.92 456.008C220.788 456.008 221.166 456.554 221.166 457.408V462ZM224.899 454.104C225.291 454.104 225.613 453.782 225.613 453.39C225.613 452.998 225.291 452.69 224.899 452.69C224.521 452.69 224.199 452.998 224.199 453.39C224.199 453.782 224.521 454.104 224.899 454.104ZM224.381 462H225.431V455.238H224.381V462ZM227.204 458.612C227.204 460.628 228.562 462.168 230.578 462.168C231.81 462.168 232.538 461.664 233.056 460.992L232.356 460.348C231.908 460.95 231.334 461.23 230.634 461.23C229.192 461.23 228.296 460.11 228.296 458.612C228.296 457.114 229.192 456.008 230.634 456.008C231.334 456.008 231.908 456.274 232.356 456.89L233.056 456.246C232.538 455.574 231.81 455.07 230.578 455.07C228.562 455.07 227.204 456.61 227.204 458.612ZM235.115 454.104C235.507 454.104 235.829 453.782 235.829 453.39C235.829 452.998 235.507 452.69 235.115 452.69C234.737 452.69 234.415 452.998 234.415 453.39C234.415 453.782 234.737 454.104 235.115 454.104ZM234.597 462H235.647V455.238H234.597V462ZM237.812 462H238.862V452.662H237.812V462ZM240.634 458.612C240.634 460.726 242.076 462.168 244.078 462.168C245.184 462.168 246.094 461.804 246.766 461.132L246.262 460.446C245.73 460.992 244.946 461.3 244.176 461.3C242.72 461.3 241.824 460.236 241.74 458.962H247.214V458.696C247.214 456.666 246.01 455.07 243.966 455.07C242.034 455.07 240.634 456.652 240.634 458.612ZM243.952 455.938C245.492 455.938 246.164 457.184 246.178 458.192H241.74C241.796 457.156 242.51 455.938 243.952 455.938ZM253.885 462H254.935V452.662H253.885V456.26C253.339 455.518 252.513 455.07 251.603 455.07C249.825 455.07 248.593 456.47 248.593 458.626C248.593 460.824 249.839 462.168 251.603 462.168C252.555 462.168 253.381 461.678 253.885 460.992V462ZM253.885 460.166C253.507 460.754 252.695 461.23 251.855 461.23C250.497 461.23 249.685 460.124 249.685 458.626C249.685 457.128 250.497 456.008 251.855 456.008C252.695 456.008 253.507 456.512 253.885 457.1V460.166ZM260.395 458.612C260.395 460.628 261.753 462.168 263.769 462.168C265.001 462.168 265.729 461.664 266.247 460.992L265.547 460.348C265.099 460.95 264.525 461.23 263.825 461.23C262.383 461.23 261.487 460.11 261.487 458.612C261.487 457.114 262.383 456.008 263.825 456.008C264.525 456.008 265.099 456.274 265.547 456.89L266.247 456.246C265.729 455.574 265.001 455.07 263.769 455.07C261.753 455.07 260.395 456.61 260.395 458.612ZM270.743 462.168C272.801 462.168 274.089 460.572 274.089 458.612C274.089 456.652 272.801 455.07 270.743 455.07C268.685 455.07 267.397 456.652 267.397 458.612C267.397 460.572 268.685 462.168 270.743 462.168ZM270.743 461.23C269.301 461.23 268.489 459.998 268.489 458.612C268.489 457.24 269.301 456.008 270.743 456.008C272.185 456.008 272.983 457.24 272.983 458.612C272.983 459.998 272.185 461.23 270.743 461.23ZM280.434 462H281.484V455.238H280.434V460.208C280.042 460.754 279.258 461.23 278.432 461.23C277.522 461.23 276.92 460.88 276.92 459.69V455.238H275.87V460.012C275.87 461.482 276.612 462.168 278.026 462.168C279.034 462.168 279.916 461.636 280.434 461.048V462ZM288.215 462H289.265V457.254C289.265 455.784 288.523 455.07 287.109 455.07C286.101 455.07 285.177 455.658 284.701 456.218V455.238H283.651V462H284.701V457.058C285.093 456.512 285.877 456.008 286.703 456.008C287.613 456.008 288.215 456.386 288.215 457.576V462ZM293.14 462.168C293.756 462.168 294.134 461.986 294.4 461.734L294.092 460.95C293.952 461.104 293.672 461.23 293.378 461.23C292.916 461.23 292.692 460.866 292.692 460.362V456.162H294.064V455.238H292.692V453.39H291.642V455.238H290.522V456.162H291.642V460.586C291.642 461.594 292.146 462.168 293.14 462.168ZM295.618 462H296.668V457.212C296.976 456.666 297.858 456.134 298.502 456.134C298.67 456.134 298.796 456.148 298.922 456.176V455.098C297.998 455.098 297.214 455.616 296.668 456.33V455.238H295.618V462ZM300.099 463.694L299.931 464.646C300.127 464.702 300.477 464.744 300.701 464.744C301.597 464.73 302.283 464.352 302.689 463.372L306.077 455.238H304.929L302.689 460.782L300.435 455.238H299.301L302.129 462.07L301.681 463.092C301.443 463.652 301.135 463.806 300.673 463.806C300.505 463.806 300.253 463.764 300.099 463.694ZM315.499 462H316.549V457.226C316.549 455.756 315.807 455.07 314.393 455.07C313.371 455.07 312.447 455.658 311.971 456.218V452.662H310.921V462H311.971V457.058C312.377 456.512 313.161 456.008 313.973 456.008C314.883 456.008 315.499 456.358 315.499 457.548V462ZM322.944 462H323.994V457.352C323.994 455.714 322.804 455.07 321.376 455.07C320.27 455.07 319.402 455.434 318.674 456.19L319.164 456.918C319.766 456.274 320.424 455.98 321.236 455.98C322.216 455.98 322.944 456.498 322.944 457.408V458.626C322.398 457.996 321.628 457.702 320.704 457.702C319.556 457.702 318.338 458.416 318.338 459.928C318.338 461.398 319.556 462.168 320.704 462.168C321.614 462.168 322.384 461.846 322.944 461.23V462ZM322.944 460.572C322.538 461.132 321.824 461.412 321.082 461.412C320.102 461.412 319.416 460.796 319.416 459.942C319.416 459.074 320.102 458.458 321.082 458.458C321.824 458.458 322.538 458.738 322.944 459.298V460.572ZM331.069 462H332.119V452.662H331.069V456.26C330.523 455.518 329.697 455.07 328.787 455.07C327.009 455.07 325.777 456.47 325.777 458.626C325.777 460.824 327.023 462.168 328.787 462.168C329.739 462.168 330.565 461.678 331.069 460.992V462ZM331.069 460.166C330.691 460.754 329.879 461.23 329.039 461.23C327.681 461.23 326.869 460.124 326.869 458.626C326.869 457.128 327.681 456.008 329.039 456.008C329.879 456.008 330.691 456.512 331.069 457.1V460.166ZM342.199 462H343.249V457.352C343.249 455.714 342.059 455.07 340.631 455.07C339.525 455.07 338.657 455.434 337.929 456.19L338.419 456.918C339.021 456.274 339.679 455.98 340.491 455.98C341.471 455.98 342.199 456.498 342.199 457.408V458.626C341.653 457.996 340.883 457.702 339.959 457.702C338.811 457.702 337.593 458.416 337.593 459.928C337.593 461.398 338.811 462.168 339.959 462.168C340.869 462.168 341.639 461.846 342.199 461.23V462ZM342.199 460.572C341.793 461.132 341.079 461.412 340.337 461.412C339.357 461.412 338.671 460.796 338.671 459.942C338.671 459.074 339.357 458.458 340.337 458.458C341.079 458.458 341.793 458.738 342.199 459.298V460.572ZM353.667 462H354.717V457.254C354.717 455.784 353.975 455.07 352.561 455.07C351.553 455.07 350.629 455.658 350.153 456.218V455.238H349.103V462H350.153V457.058C350.545 456.512 351.329 456.008 352.155 456.008C353.065 456.008 353.667 456.386 353.667 457.576V462ZM361.112 462H362.162V457.352C362.162 455.714 360.972 455.07 359.544 455.07C358.438 455.07 357.57 455.434 356.842 456.19L357.332 456.918C357.934 456.274 358.592 455.98 359.404 455.98C360.384 455.98 361.112 456.498 361.112 457.408V458.626C360.566 457.996 359.796 457.702 358.872 457.702C357.724 457.702 356.506 458.416 356.506 459.928C356.506 461.398 357.724 462.168 358.872 462.168C359.782 462.168 360.552 461.846 361.112 461.23V462ZM361.112 460.572C360.706 461.132 359.992 461.412 359.25 461.412C358.27 461.412 357.584 460.796 357.584 459.942C357.584 459.074 358.27 458.458 359.25 458.458C359.992 458.458 360.706 458.738 361.112 459.298V460.572ZM366.045 462.168C366.661 462.168 367.039 461.986 367.305 461.734L366.997 460.95C366.857 461.104 366.577 461.23 366.283 461.23C365.821 461.23 365.597 460.866 365.597 460.362V456.162H366.969V455.238H365.597V453.39H364.547V455.238H363.427V456.162H364.547V460.586C364.547 461.594 365.051 462.168 366.045 462.168ZM369.04 454.104C369.432 454.104 369.754 453.782 369.754 453.39C369.754 452.998 369.432 452.69 369.04 452.69C368.662 452.69 368.34 452.998 368.34 453.39C368.34 453.782 368.662 454.104 369.04 454.104ZM368.522 462H369.572V455.238H368.522V462ZM374.691 462.168C376.749 462.168 378.037 460.572 378.037 458.612C378.037 456.652 376.749 455.07 374.691 455.07C372.633 455.07 371.345 456.652 371.345 458.612C371.345 460.572 372.633 462.168 374.691 462.168ZM374.691 461.23C373.249 461.23 372.437 459.998 372.437 458.612C372.437 457.24 373.249 456.008 374.691 456.008C376.133 456.008 376.931 457.24 376.931 458.612C376.931 459.998 376.133 461.23 374.691 461.23ZM384.382 462H385.432V457.254C385.432 455.784 384.69 455.07 383.276 455.07C382.268 455.07 381.344 455.658 380.868 456.218V455.238H379.818V462H380.868V457.058C381.26 456.512 382.044 456.008 382.87 456.008C383.78 456.008 384.382 456.386 384.382 457.576V462ZM391.827 462H392.877V457.352C392.877 455.714 391.687 455.07 390.259 455.07C389.153 455.07 388.285 455.434 387.557 456.19L388.047 456.918C388.649 456.274 389.307 455.98 390.119 455.98C391.099 455.98 391.827 456.498 391.827 457.408V458.626C391.281 457.996 390.511 457.702 389.587 457.702C388.439 457.702 387.221 458.416 387.221 459.928C387.221 461.398 388.439 462.168 389.587 462.168C390.497 462.168 391.267 461.846 391.827 461.23V462ZM391.827 460.572C391.421 461.132 390.707 461.412 389.965 461.412C388.985 461.412 388.299 460.796 388.299 459.942C388.299 459.074 388.985 458.458 389.965 458.458C390.707 458.458 391.421 458.738 391.827 459.298V460.572ZM395.052 462H396.102V452.662H395.052V462ZM406.524 462H407.574V457.226C407.574 455.756 406.832 455.07 405.418 455.07C404.396 455.07 403.472 455.658 402.996 456.218V452.662H401.946V462H402.996V457.058C403.402 456.512 404.186 456.008 404.998 456.008C405.908 456.008 406.524 456.358 406.524 457.548V462ZM412.695 462.168C414.753 462.168 416.041 460.572 416.041 458.612C416.041 456.652 414.753 455.07 412.695 455.07C410.637 455.07 409.349 456.652 409.349 458.612C409.349 460.572 410.637 462.168 412.695 462.168ZM412.695 461.23C411.253 461.23 410.441 459.998 410.441 458.612C410.441 457.24 411.253 456.008 412.695 456.008C414.137 456.008 414.935 457.24 414.935 458.612C414.935 459.998 414.137 461.23 412.695 461.23ZM417.822 462H418.872V452.662H417.822V462ZM421.555 454.104C421.947 454.104 422.269 453.782 422.269 453.39C422.269 452.998 421.947 452.69 421.555 452.69C421.177 452.69 420.855 452.998 420.855 453.39C420.855 453.782 421.177 454.104 421.555 454.104ZM421.037 462H422.087V455.238H421.037V462ZM429.151 462H430.201V452.662H429.151V456.26C428.605 455.518 427.779 455.07 426.869 455.07C425.091 455.07 423.859 456.47 423.859 458.626C423.859 460.824 425.105 462.168 426.869 462.168C427.821 462.168 428.647 461.678 429.151 460.992V462ZM429.151 460.166C428.773 460.754 427.961 461.23 427.121 461.23C425.763 461.23 424.951 460.124 424.951 458.626C424.951 457.128 425.763 456.008 427.121 456.008C427.961 456.008 428.773 456.512 429.151 457.1V460.166ZM436.602 462H437.652V457.352C437.652 455.714 436.462 455.07 435.034 455.07C433.928 455.07 433.06 455.434 432.332 456.19L432.822 456.918C433.424 456.274 434.082 455.98 434.894 455.98C435.874 455.98 436.602 456.498 436.602 457.408V458.626C436.056 457.996 435.286 457.702 434.362 457.702C433.214 457.702 431.996 458.416 431.996 459.928C431.996 461.398 433.214 462.168 434.362 462.168C435.272 462.168 436.042 461.846 436.602 461.23V462ZM436.602 460.572C436.196 461.132 435.482 461.412 434.74 461.412C433.76 461.412 433.074 460.796 433.074 459.942C433.074 459.074 433.76 458.458 434.74 458.458C435.482 458.458 436.196 458.738 436.602 459.298V460.572ZM439.617 463.694L439.449 464.646C439.645 464.702 439.995 464.744 440.219 464.744C441.115 464.73 441.801 464.352 442.207 463.372L445.595 455.238H444.447L442.207 460.782L439.953 455.238H438.819L441.647 462.07L441.199 463.092C440.961 463.652 440.653 463.806 440.191 463.806C440.023 463.806 439.771 463.764 439.617 463.694Z" fill="#0E161C"/>
<path fill-rule="evenodd" clip-rule="evenodd" d="M178 497C181.866 497 185 493.866 185 490C185 486.134 181.866 483 178 483C174.134 483 171 486.134 171 490C171 493.866 174.134 497 178 497Z" fill="white"/>
<path fill-rule="evenodd" clip-rule="evenodd" d="M178 498C182.418 498 186 494.418 186 490C186 485.582 182.418 482 178 482C173.582 482 170 485.582 170 490C170 494.418 173.582 498 178 498Z" stroke="#BFCDD4" stroke-width="2"/>
<path d="M195.092 494H198.284C201.182 494 203.072 491.998 203.072 489.338C203.072 486.692 201.182 484.662 198.284 484.662H195.092V494ZM196.254 492.964V485.698H198.284C200.594 485.698 201.868 487.322 201.868 489.338C201.868 491.34 200.552 492.964 198.284 492.964H196.254ZM207.877 494.168C209.935 494.168 211.223 492.572 211.223 490.612C211.223 488.652 209.935 487.07 207.877 487.07C205.819 487.07 204.531 488.652 204.531 490.612C204.531 492.572 205.819 494.168 207.877 494.168ZM207.877 493.23C206.435 493.23 205.623 491.998 205.623 490.612C205.623 489.24 206.435 488.008 207.877 488.008C209.319 488.008 210.117 489.24 210.117 490.612C210.117 491.998 209.319 493.23 207.877 493.23ZM221.166 494H222.216V489.114C222.216 487.756 221.558 487.07 220.326 487.07C219.346 487.07 218.436 487.714 218.058 488.33C217.862 487.63 217.274 487.07 216.238 487.07C215.244 487.07 214.334 487.784 214.054 488.218V487.238H213.004V494H214.054V489.058C214.418 488.512 215.146 488.008 215.832 488.008C216.714 488.008 217.078 488.554 217.078 489.408V494H218.128V489.044C218.478 488.512 219.22 488.008 219.92 488.008C220.788 488.008 221.166 488.554 221.166 489.408V494ZM224.899 486.104C225.291 486.104 225.613 485.782 225.613 485.39C225.613 484.998 225.291 484.69 224.899 484.69C224.521 484.69 224.199 484.998 224.199 485.39C224.199 485.782 224.521 486.104 224.899 486.104ZM224.381 494H225.431V487.238H224.381V494ZM227.204 490.612C227.204 492.628 228.562 494.168 230.578 494.168C231.81 494.168 232.538 493.664 233.056 492.992L232.356 492.348C231.908 492.95 231.334 493.23 230.634 493.23C229.192 493.23 228.296 492.11 228.296 490.612C228.296 489.114 229.192 488.008 230.634 488.008C231.334 488.008 231.908 488.274 232.356 488.89L233.056 488.246C232.538 487.574 231.81 487.07 230.578 487.07C228.562 487.07 227.204 488.61 227.204 490.612ZM235.115 486.104C235.507 486.104 235.829 485.782 235.829 485.39C235.829 484.998 235.507 484.69 235.115 484.69C234.737 484.69 234.415 484.998 234.415 485.39C234.415 485.782 234.737 486.104 235.115 486.104ZM234.597 494H235.647V487.238H234.597V494ZM237.812 494H238.862V484.662H237.812V494ZM240.634 490.612C240.634 492.726 242.076 494.168 244.078 494.168C245.184 494.168 246.094 493.804 246.766 493.132L246.262 492.446C245.73 492.992 244.946 493.3 244.176 493.3C242.72 493.3 241.824 492.236 241.74 490.962H247.214V490.696C247.214 488.666 246.01 487.07 243.966 487.07C242.034 487.07 240.634 488.652 240.634 490.612ZM243.952 487.938C245.492 487.938 246.164 489.184 246.178 490.192H241.74C241.796 489.156 242.51 487.938 243.952 487.938ZM253.885 494H254.935V484.662H253.885V488.26C253.339 487.518 252.513 487.07 251.603 487.07C249.825 487.07 248.593 488.47 248.593 490.626C248.593 492.824 249.839 494.168 251.603 494.168C252.555 494.168 253.381 493.678 253.885 492.992V494ZM253.885 492.166C253.507 492.754 252.695 493.23 251.855 493.23C250.497 493.23 249.685 492.124 249.685 490.626C249.685 489.128 250.497 488.008 251.855 488.008C252.695 488.008 253.507 488.512 253.885 489.1V492.166ZM260.395 490.612C260.395 492.628 261.753 494.168 263.769 494.168C265.001 494.168 265.729 493.664 266.247 492.992L265.547 492.348C265.099 492.95 264.525 493.23 263.825 493.23C262.383 493.23 261.487 492.11 261.487 490.612C261.487 489.114 262.383 488.008 263.825 488.008C264.525 488.008 265.099 488.274 265.547 488.89L266.247 488.246C265.729 487.574 265.001 487.07 263.769 487.07C261.753 487.07 260.395 488.61 260.395 490.612ZM270.743 494.168C272.801 494.168 274.089 492.572 274.089 490.612C274.089 488.652 272.801 487.07 270.743 487.07C268.685 487.07 267.397 488.652 267.397 490.612C267.397 492.572 268.685 494.168 270.743 494.168ZM270.743 493.23C269.301 493.23 268.489 491.998 268.489 490.612C268.489 489.24 269.301 488.008 270.743 488.008C272.185 488.008 272.983 489.24 272.983 490.612C272.983 491.998 272.185 493.23 270.743 493.23ZM280.434 494H281.484V487.238H280.434V492.208C280.042 492.754 279.258 493.23 278.432 493.23C277.522 493.23 276.92 492.88 276.92 491.69V487.238H275.87V492.012C275.87 493.482 276.612 494.168 278.026 494.168C279.034 494.168 279.916 493.636 280.434 493.048V494ZM288.215 494H289.265V489.254C289.265 487.784 288.523 487.07 287.109 487.07C286.101 487.07 285.177 487.658 284.701 488.218V487.238H283.651V494H284.701V489.058C285.093 488.512 285.877 488.008 286.703 488.008C287.613 488.008 288.215 488.386 288.215 489.576V494ZM293.14 494.168C293.756 494.168 294.134 493.986 294.4 493.734L294.092 492.95C293.952 493.104 293.672 493.23 293.378 493.23C292.916 493.23 292.692 492.866 292.692 492.362V488.162H294.064V487.238H292.692V485.39H291.642V487.238H290.522V488.162H291.642V492.586C291.642 493.594 292.146 494.168 293.14 494.168ZM295.618 494H296.668V489.212C296.976 488.666 297.858 488.134 298.502 488.134C298.67 488.134 298.796 488.148 298.922 488.176V487.098C297.998 487.098 297.214 487.616 296.668 488.33V487.238H295.618V494ZM300.099 495.694L299.931 496.646C300.127 496.702 300.477 496.744 300.701 496.744C301.597 496.73 302.283 496.352 302.689 495.372L306.077 487.238H304.929L302.689 492.782L300.435 487.238H299.301L302.129 494.07L301.681 495.092C301.443 495.652 301.135 495.806 300.673 495.806C300.505 495.806 300.253 495.764 300.099 495.694ZM315.499 494H316.549V489.226C316.549 487.756 315.807 487.07 314.393 487.07C313.371 487.07 312.447 487.658 311.971 488.218V484.662H310.921V494H311.971V489.058C312.377 488.512 313.161 488.008 313.973 488.008C314.883 488.008 315.499 488.358 315.499 489.548V494ZM322.944 494H323.994V489.352C323.994 487.714 322.804 487.07 321.376 487.07C320.27 487.07 319.402 487.434 318.674 488.19L319.164 488.918C319.766 488.274 320.424 487.98 321.236 487.98C322.216 487.98 322.944 488.498 322.944 489.408V490.626C322.398 489.996 321.628 489.702 320.704 489.702C319.556 489.702 318.338 490.416 318.338 491.928C318.338 493.398 319.556 494.168 320.704 494.168C321.614 494.168 322.384 493.846 322.944 493.23V494ZM322.944 492.572C322.538 493.132 321.824 493.412 321.082 493.412C320.102 493.412 319.416 492.796 319.416 491.942C319.416 491.074 320.102 490.458 321.082 490.458C321.824 490.458 322.538 490.738 322.944 491.298V492.572ZM331.069 494H332.119V484.662H331.069V488.26C330.523 487.518 329.697 487.07 328.787 487.07C327.009 487.07 325.777 488.47 325.777 490.626C325.777 492.824 327.023 494.168 328.787 494.168C329.739 494.168 330.565 493.678 331.069 492.992V494ZM331.069 492.166C330.691 492.754 329.879 493.23 329.039 493.23C327.681 493.23 326.869 492.124 326.869 490.626C326.869 489.128 327.681 488.008 329.039 488.008C329.879 488.008 330.691 488.512 331.069 489.1V492.166ZM342.199 494H343.249V489.352C343.249 487.714 342.059 487.07 340.631 487.07C339.525 487.07 338.657 487.434 337.929 488.19L338.419 488.918C339.021 488.274 339.679 487.98 340.491 487.98C341.471 487.98 342.199 488.498 342.199 489.408V490.626C341.653 489.996 340.883 489.702 339.959 489.702C338.811 489.702 337.593 490.416 337.593 491.928C337.593 493.398 338.811 494.168 339.959 494.168C340.869 494.168 341.639 493.846 342.199 493.23V494ZM342.199 492.572C341.793 493.132 341.079 493.412 340.337 493.412C339.357 493.412 338.671 492.796 338.671 491.942C338.671 491.074 339.357 490.458 340.337 490.458C341.079 490.458 341.793 490.738 342.199 491.298V492.572ZM353.667 494H354.717V489.254C354.717 487.784 353.975 487.07 352.561 487.07C351.553 487.07 350.629 487.658 350.153 488.218V487.238H349.103V494H350.153V489.058C350.545 488.512 351.329 488.008 352.155 488.008C353.065 488.008 353.667 488.386 353.667 489.576V494ZM361.112 494H362.162V489.352C362.162 487.714 360.972 487.07 359.544 487.07C358.438 487.07 357.57 487.434 356.842 488.19L357.332 488.918C357.934 488.274 358.592 487.98 359.404 487.98C360.384 487.98 361.112 488.498 361.112 489.408V490.626C360.566 489.996 359.796 489.702 358.872 489.702C357.724 489.702 356.506 490.416 356.506 491.928C356.506 493.398 357.724 494.168 358.872 494.168C359.782 494.168 360.552 493.846 361.112 493.23V494ZM361.112 492.572C360.706 493.132 359.992 493.412 359.25 493.412C358.27 493.412 357.584 492.796 357.584 491.942C357.584 491.074 358.27 490.458 359.25 490.458C359.992 490.458 360.706 490.738 361.112 491.298V492.572ZM366.045 494.168C366.661 494.168 367.039 493.986 367.305 493.734L366.997 492.95C366.857 493.104 366.577 493.23 366.283 493.23C365.821 493.23 365.597 492.866 365.597 492.362V488.162H366.969V487.238H365.597V485.39H364.547V487.238H363.427V488.162H364.547V492.586C364.547 493.594 365.051 494.168 366.045 494.168ZM373.086 494H374.136V487.238H373.086V492.208C372.694 492.754 371.91 493.23 371.084 493.23C370.174 493.23 369.572 492.88 369.572 491.69V487.238H368.522V492.012C368.522 493.482 369.264 494.168 370.678 494.168C371.686 494.168 372.568 493.636 373.086 493.048V494ZM376.303 494H377.353V489.212C377.661 488.666 378.543 488.134 379.187 488.134C379.355 488.134 379.481 488.148 379.607 488.176V487.098C378.683 487.098 377.899 487.616 377.353 488.33V487.238H376.303V494ZM385.222 494H386.272V489.352C386.272 487.714 385.082 487.07 383.654 487.07C382.548 487.07 381.68 487.434 380.952 488.19L381.442 488.918C382.044 488.274 382.702 487.98 383.514 487.98C384.494 487.98 385.222 488.498 385.222 489.408V490.626C384.676 489.996 383.906 489.702 382.982 489.702C381.834 489.702 380.616 490.416 380.616 491.928C380.616 493.398 381.834 494.168 382.982 494.168C383.892 494.168 384.662 493.846 385.222 493.23V494ZM385.222 492.572C384.816 493.132 384.102 493.412 383.36 493.412C382.38 493.412 381.694 492.796 381.694 491.942C381.694 491.074 382.38 490.458 383.36 490.458C384.102 490.458 384.816 490.738 385.222 491.298V492.572ZM388.447 494H389.497V484.662H388.447V494ZM400.241 494H401.291V484.662H400.241V488.26C399.695 487.518 398.869 487.07 397.959 487.07C396.181 487.07 394.949 488.47 394.949 490.626C394.949 492.824 396.195 494.168 397.959 494.168C398.911 494.168 399.737 493.678 400.241 492.992V494ZM400.241 492.166C399.863 492.754 399.051 493.23 398.211 493.23C396.853 493.23 396.041 492.124 396.041 490.626C396.041 489.128 396.853 488.008 398.211 488.008C399.051 488.008 399.863 488.512 400.241 489.1V492.166ZM403.982 486.104C404.374 486.104 404.696 485.782 404.696 485.39C404.696 484.998 404.374 484.69 403.982 484.69C403.604 484.69 403.282 484.998 403.282 485.39C403.282 485.782 403.604 486.104 403.982 486.104ZM403.464 494H404.514V487.238H403.464V494ZM406.09 493.104C406.776 493.832 407.714 494.168 408.82 494.168C410.57 494.168 411.48 493.258 411.48 492.124C411.48 490.626 410.122 490.29 408.946 490.024C408.064 489.814 407.294 489.604 407.294 488.946C407.294 488.344 407.868 487.924 408.792 487.924C409.66 487.924 410.402 488.288 410.808 488.778L411.298 488.05C410.752 487.504 409.94 487.07 408.792 487.07C407.182 487.07 406.272 487.966 406.272 489.016C406.272 490.416 407.574 490.724 408.722 490.99C409.632 491.214 410.458 491.452 410.458 492.194C410.458 492.852 409.898 493.314 408.862 493.314C407.938 493.314 407.084 492.866 406.636 492.348L406.09 493.104ZM417.484 494H418.534V489.352C418.534 487.714 417.344 487.07 415.916 487.07C414.81 487.07 413.942 487.434 413.214 488.19L413.704 488.918C414.306 488.274 414.964 487.98 415.776 487.98C416.756 487.98 417.484 488.498 417.484 489.408V490.626C416.938 489.996 416.168 489.702 415.244 489.702C414.096 489.702 412.878 490.416 412.878 491.928C412.878 493.398 414.096 494.168 415.244 494.168C416.154 494.168 416.924 493.846 417.484 493.23V494ZM417.484 492.572C417.078 493.132 416.364 493.412 415.622 493.412C414.642 493.412 413.956 492.796 413.956 491.942C413.956 491.074 414.642 490.458 415.622 490.458C416.364 490.458 417.078 490.738 417.484 491.298V492.572ZM420.121 493.104C420.807 493.832 421.745 494.168 422.851 494.168C424.601 494.168 425.511 493.258 425.511 492.124C425.511 490.626 424.153 490.29 422.977 490.024C422.095 489.814 421.325 489.604 421.325 488.946C421.325 488.344 421.899 487.924 422.823 487.924C423.691 487.924 424.433 488.288 424.839 488.778L425.329 488.05C424.783 487.504 423.971 487.07 422.823 487.07C421.213 487.07 420.303 487.966 420.303 489.016C420.303 490.416 421.605 490.724 422.753 490.99C423.663 491.214 424.489 491.452 424.489 492.194C424.489 492.852 423.929 493.314 422.893 493.314C421.969 493.314 421.115 492.866 420.667 492.348L420.121 493.104ZM428.994 494.168C429.61 494.168 429.988 493.986 430.254 493.734L429.946 492.95C429.806 493.104 429.526 493.23 429.232 493.23C428.77 493.23 428.546 492.866 428.546 492.362V488.162H429.918V487.238H428.546V485.39H427.496V487.238H426.376V488.162H427.496V492.586C427.496 493.594 428 494.168 428.994 494.168ZM431.08 490.612C431.08 492.726 432.522 494.168 434.524 494.168C435.63 494.168 436.54 493.804 437.212 493.132L436.708 492.446C436.176 492.992 435.392 493.3 434.622 493.3C433.166 493.3 432.27 492.236 432.186 490.962H437.66V490.696C437.66 488.666 436.456 487.07 434.412 487.07C432.48 487.07 431.08 488.652 431.08 490.612ZM434.398 487.938C435.938 487.938 436.61 489.184 436.624 490.192H432.186C432.242 489.156 432.956 487.938 434.398 487.938ZM439.43 494H440.48V489.212C440.788 488.666 441.67 488.134 442.314 488.134C442.482 488.134 442.608 488.148 442.734 488.176V487.098C441.81 487.098 441.026 487.616 440.48 488.33V487.238H439.43V494Z" fill="#0E161C"/>
<path fill-rule="evenodd" clip-rule="evenodd" d="M178 189C181.866 189 185 185.866 185 182C185 178.134 181.866 175 178 175C174.134 175 171 178.134 171 182C171 185.866 174.134 189 178 189Z" fill="white"/>
<path fill-rule="evenodd" clip-rule="evenodd" d="M178 190C182.418 190 186 186.418 186 182C186 177.582 182.418 174 178 174C173.582 174 170 177.582 170 182C170 186.418 173.582 190 178 190Z" stroke="#BFCDD4" stroke-width="2"/>
<path d="M197.808 186H198.97V182.052L202.638 176.662H201.28L198.382 181.002L195.484 176.662H194.126L197.808 182.052V186ZM201.714 182.612C201.714 184.726 203.156 186.168 205.158 186.168C206.264 186.168 207.174 185.804 207.846 185.132L207.342 184.446C206.81 184.992 206.026 185.3 205.256 185.3C203.8 185.3 202.904 184.236 202.82 182.962H208.294V182.696C208.294 180.666 207.09 179.07 205.046 179.07C203.114 179.07 201.714 180.652 201.714 182.612ZM205.032 179.938C206.572 179.938 207.244 181.184 207.258 182.192H202.82C202.876 181.156 203.59 179.938 205.032 179.938ZM209.477 185.104C210.163 185.832 211.101 186.168 212.207 186.168C213.957 186.168 214.867 185.258 214.867 184.124C214.867 182.626 213.509 182.29 212.333 182.024C211.451 181.814 210.681 181.604 210.681 180.946C210.681 180.344 211.255 179.924 212.179 179.924C213.047 179.924 213.789 180.288 214.195 180.778L214.685 180.05C214.139 179.504 213.327 179.07 212.179 179.07C210.569 179.07 209.659 179.966 209.659 181.016C209.659 182.416 210.961 182.724 212.109 182.99C213.019 183.214 213.845 183.452 213.845 184.194C213.845 184.852 213.285 185.314 212.249 185.314C211.325 185.314 210.471 184.866 210.023 184.348L209.477 185.104Z" fill="#0E161C"/>
<path fill-rule="evenodd" clip-rule="evenodd" d="M178 221C181.866 221 185 217.866 185 214C185 210.134 181.866 207 178 207C174.134 207 171 210.134 171 214C171 217.866 174.134 221 178 221Z" fill="white"/>
<path fill-rule="evenodd" clip-rule="evenodd" d="M178 222C182.418 222 186 218.418 186 214C186 209.582 182.418 206 178 206C173.582 206 170 209.582 170 214C170 218.418 173.582 222 178 222Z" stroke="#BFCDD4" stroke-width="2"/>
<path d="M201.7 218H202.82V208.662H201.658V216.04L196.282 208.662H195.092V218H196.254V210.468L201.7 218ZM207.986 218.168C210.044 218.168 211.332 216.572 211.332 214.612C211.332 212.652 210.044 211.07 207.986 211.07C205.928 211.07 204.64 212.652 204.64 214.612C204.64 216.572 205.928 218.168 207.986 218.168ZM207.986 217.23C206.544 217.23 205.732 215.998 205.732 214.612C205.732 213.24 206.544 212.008 207.986 212.008C209.428 212.008 210.226 213.24 210.226 214.612C210.226 215.998 209.428 217.23 207.986 217.23Z" fill="#0E161C"/>
<circle cx="178" cy="214" r="5" fill="#2F80ED"/>
<path fill-rule="evenodd" clip-rule="evenodd" d="M178 328C181.866 328 185 324.866 185 321C185 317.134 181.866 314 178 314C174.134 314 171 317.134 171 321C171 324.866 174.134 328 178 328Z" fill="white"/>
<path fill-rule="evenodd" clip-rule="evenodd" d="M178 329C182.418 329 186 325.418 186 321C186 316.582 182.418 313 178 313C173.582 313 170 316.582 170 321C170 325.418 173.582 329 178 329Z" stroke="#BFCDD4" stroke-width="2"/>
<path d="M197.808 325H198.97V321.052L202.638 315.662H201.28L198.382 320.002L195.484 315.662H194.126L197.808 321.052V325ZM201.714 321.612C201.714 323.726 203.156 325.168 205.158 325.168C206.264 325.168 207.174 324.804 207.846 324.132L207.342 323.446C206.81 323.992 206.026 324.3 205.256 324.3C203.8 324.3 202.904 323.236 202.82 321.962H208.294V321.696C208.294 319.666 207.09 318.07 205.046 318.07C203.114 318.07 201.714 319.652 201.714 321.612ZM205.032 318.938C206.572 318.938 207.244 320.184 207.258 321.192H202.82C202.876 320.156 203.59 318.938 205.032 318.938ZM209.477 324.104C210.163 324.832 211.101 325.168 212.207 325.168C213.957 325.168 214.867 324.258 214.867 323.124C214.867 321.626 213.509 321.29 212.333 321.024C211.451 320.814 210.681 320.604 210.681 319.946C210.681 319.344 211.255 318.924 212.179 318.924C213.047 318.924 213.789 319.288 214.195 319.778L214.685 319.05C214.139 318.504 213.327 318.07 212.179 318.07C210.569 318.07 209.659 318.966 209.659 320.016C209.659 321.416 210.961 321.724 212.109 321.99C213.019 322.214 213.845 322.452 213.845 323.194C213.845 323.852 213.285 324.314 212.249 324.314C211.325 324.314 210.471 323.866 210.023 323.348L209.477 324.104Z" fill="#0E161C"/>
<path fill-rule="evenodd" clip-rule="evenodd" d="M178 360C181.866 360 185 356.866 185 353C185 349.134 181.866 346 178 346C174.134 346 171 349.134 171 353C171 356.866 174.134 360 178 360Z" fill="white"/>
<path fill-rule="evenodd" clip-rule="evenodd" d="M178 361C182.418 361 186 357.418 186 353C186 348.582 182.418 345 178 345C173.582 345 170 348.582 170 353C170 357.418 173.582 361 178 361Z" stroke="#BFCDD4" stroke-width="2"/>
<path d="M201.7 357H202.82V347.662H201.658V355.04L196.282 347.662H195.092V357H196.254V349.468L201.7 357ZM207.986 357.168C210.044 357.168 211.332 355.572 211.332 353.612C211.332 351.652 210.044 350.07 207.986 350.07C205.928 350.07 204.64 351.652 204.64 353.612C204.64 355.572 205.928 357.168 207.986 357.168ZM207.986 356.23C206.544 356.23 205.732 354.998 205.732 353.612C205.732 352.24 206.544 351.008 207.986 351.008C209.428 351.008 210.226 352.24 210.226 353.612C210.226 354.998 209.428 356.23 207.986 356.23Z" fill="#0E161C"/>
<circle cx="178" cy="321" r="5" fill="#2F80ED"/>
<circle cx="178" cy="458" r="5" fill="#2F80ED"/>
</g>
<defs>
<clipPath id="clip0_134_72668">
<rect width="736" height="566" fill="white"/>
</clipPath>
</defs>
</svg>
