<svg width="2100" height="630" viewBox="0 0 2100 630" fill="none" xmlns="http://www.w3.org/2000/svg">
<rect x="185" y="109" width="248" height="164" fill="#F2F2F2"/>
<path d="M186 111L313.166 204L433 111" stroke="#828282" stroke-width="5" stroke-linecap="round" stroke-linejoin="round"/>
<path d="M252.944 393H270.344V390.16H256.424V379.8H267.064V376.96H256.424V367.24H269.624V364.4H252.944V393ZM275.36 393H278.68V380.2C278.68 376.44 281.48 374.6 284.2 374.6C287.08 374.6 288.64 376.12 288.64 379.8V393H291.96V380.2C291.96 376.44 294.76 374.6 297.48 374.6C300.36 374.6 301.92 376.12 301.92 379.8V393H305.24V380.04C305.24 373.96 301.96 371.72 298.2 371.72C295.6 371.72 292.48 372.92 291.04 375.64C289.96 372.84 287.6 371.72 284.92 371.72C281.92 371.72 279.64 373.32 278.68 375.28V372.08H275.36V393ZM317.006 393.36C320.086 393.36 321.966 392.32 323.526 390.36V393H326.846V379.2C326.846 373.36 323.206 371.72 319.206 371.72C315.166 371.72 311.366 373.48 310.926 378.24H314.246C314.566 375.68 316.166 374.48 319.046 374.48C322.246 374.48 323.526 375.88 323.526 379.2V380.72H320.526C315.166 380.72 310.046 382.36 310.046 387.2C310.046 391.48 313.126 393.36 317.006 393.36ZM317.326 390.72C314.406 390.72 313.366 389.36 313.366 387.2C313.366 384.12 316.446 383.08 320.646 383.08H323.526V385.68C323.526 388.92 320.846 390.72 317.326 390.72ZM333.448 393H336.768V372.08H333.448V393ZM335.048 367.72C336.248 367.72 337.248 366.72 337.248 365.52C337.248 364.32 336.248 363.32 335.048 363.32C333.848 363.32 332.848 364.32 332.848 365.52C332.848 366.72 333.848 367.72 335.048 367.72ZM343.643 393H347.003V362.08H343.643V393ZM360.278 393.36C365.358 393.36 367.958 390.8 367.958 387C367.958 382.56 364.918 381.6 360.598 380.8C356.758 380.12 355.717 379.36 355.717 377.48C355.717 375.68 357.278 374.48 359.678 374.48C362.318 374.48 363.598 375.48 364.078 377.76H367.278C366.718 373.24 363.478 371.72 359.718 371.72C356.438 371.72 352.638 373.72 352.638 377.6C352.638 381.24 354.478 382.76 359.918 383.76C363.158 384.36 364.798 385.08 364.798 387.28C364.798 389.52 363.398 390.6 360.238 390.6C356.878 390.6 355.558 389.04 355.318 386.56H352.078C352.278 390.84 355.278 393.36 360.278 393.36Z" fill="#1E2432"/>
<path d="M45.8766 478H49.2046L57.1086 455.12H54.4846L47.6686 475.312L40.8526 455.12H38.1006L45.8766 478ZM63.8331 478.288C66.2971 478.288 67.8011 477.456 69.0491 475.888V478H71.7051V466.96C71.7051 462.288 68.7931 460.976 65.5931 460.976C62.3611 460.976 59.3211 462.384 58.9691 466.192H61.6251C61.8811 464.144 63.1611 463.184 65.4651 463.184C68.0251 463.184 69.0491 464.304 69.0491 466.96V468.176H66.6491C62.3611 468.176 58.2651 469.488 58.2651 473.36C58.2651 476.784 60.7291 478.288 63.8331 478.288ZM64.0891 476.176C61.7531 476.176 60.9211 475.088 60.9211 473.36C60.9211 470.896 63.3851 470.064 66.7451 470.064H69.0491V472.144C69.0491 474.736 66.9051 476.176 64.0891 476.176ZM76.9864 478H79.6744V453.264H76.9864V478ZM90.7739 478.288C93.4619 478.288 95.3179 476.912 96.0859 475.344V478H98.7419V461.264H96.0859V471.408C96.0859 474.416 93.8459 475.984 91.4779 475.984C88.8539 475.984 87.6059 474.672 87.6059 471.728V461.264H84.9499V471.856C84.9499 476.464 87.4459 478.288 90.7739 478.288ZM108.302 478.288C110.766 478.288 112.27 477.456 113.518 475.888V478H116.174V466.96C116.174 462.288 113.262 460.976 110.062 460.976C106.83 460.976 103.79 462.384 103.438 466.192H106.094C106.35 464.144 107.63 463.184 109.934 463.184C112.494 463.184 113.518 464.304 113.518 466.96V468.176H111.118C106.83 468.176 102.734 469.488 102.734 473.36C102.734 476.784 105.198 478.288 108.302 478.288ZM108.558 476.176C106.222 476.176 105.39 475.088 105.39 473.36C105.39 470.896 107.854 470.064 111.214 470.064H113.518V472.144C113.518 474.736 111.374 476.176 108.558 476.176ZM129.711 478.288C134.319 478.288 137.327 474.768 137.327 469.648V469.392C137.327 464.176 134.095 460.976 129.711 460.976C127.279 460.976 125.007 462.448 124.047 464.08V453.264H121.391V478H124.047V475.248C125.007 476.912 126.991 478.288 129.711 478.288ZM129.455 476.08C126.191 476.08 123.951 474.064 123.951 469.776V469.52C123.951 465.232 126.319 463.184 129.423 463.184C132.239 463.184 134.575 465.296 134.575 469.52V469.776C134.575 473.84 132.783 476.08 129.455 476.08ZM141.518 478H144.206V453.264H141.518V478ZM156.489 478.288C160.265 478.288 163.049 476.528 163.625 473.168H160.969C160.617 475.12 159.113 476.08 156.521 476.08C153.097 476.08 151.273 473.968 151.145 470.16H163.753V469.296C163.753 463.312 160.105 460.976 156.233 460.976C151.625 460.976 148.393 464.496 148.393 469.552V469.808C148.393 474.96 151.753 478.288 156.489 478.288ZM151.241 468.016C151.689 465.04 153.513 463.184 156.233 463.184C158.985 463.184 160.777 464.56 161.033 468.016H151.241ZM181.961 478.288C184.649 478.288 186.505 476.912 187.273 475.344V478H189.929V461.264H187.273V471.408C187.273 474.416 185.033 475.984 182.665 475.984C180.041 475.984 178.793 474.672 178.793 471.728V461.264H176.137V471.856C176.137 476.464 178.633 478.288 181.961 478.288ZM195.297 483.824H197.953V475.248C198.913 476.912 200.865 478.288 203.617 478.288C208.225 478.288 211.233 474.768 211.233 469.648V469.392C211.233 464.176 208.001 460.976 203.617 460.976C201.185 460.976 198.913 462.448 197.953 464.08V461.264H195.297V483.824ZM203.361 476.08C200.097 476.08 197.857 474.064 197.857 469.776V469.52C197.857 465.232 200.225 463.184 203.329 463.184C206.145 463.184 208.481 465.296 208.481 469.52V469.776C208.481 473.84 206.689 476.08 203.361 476.08ZM221.664 478.288C224.096 478.288 226.432 476.752 227.392 475.12V478H230.048V453.264H227.392V463.952C226.432 462.32 224.704 460.976 221.92 460.976C217.312 460.976 214.112 464.592 214.112 469.712V469.968C214.112 475.184 217.28 478.288 221.664 478.288ZM221.952 476.08C219.136 476.08 216.864 474.064 216.864 469.84V469.584C216.864 465.52 218.848 463.184 222.176 463.184C225.44 463.184 227.488 465.2 227.488 469.488V469.744C227.488 474.032 225.056 476.08 221.952 476.08ZM239.614 478.288C242.078 478.288 243.582 477.456 244.83 475.888V478H247.486V466.96C247.486 462.288 244.574 460.976 241.374 460.976C238.142 460.976 235.102 462.384 234.75 466.192H237.406C237.662 464.144 238.942 463.184 241.246 463.184C243.806 463.184 244.83 464.304 244.83 466.96V468.176H242.43C238.142 468.176 234.046 469.488 234.046 473.36C234.046 476.784 236.51 478.288 239.614 478.288ZM239.87 476.176C237.534 476.176 236.702 475.088 236.702 473.36C236.702 470.896 239.166 470.064 242.526 470.064H244.83V472.144C244.83 474.736 242.686 476.176 239.87 476.176ZM257.792 478.224C258.88 478.224 259.52 478.064 260.064 477.872V475.632C259.488 475.856 258.848 475.984 258.016 475.984C256.672 475.984 255.936 475.184 255.936 473.552V463.504H259.84V461.264H255.936V457.456H253.28V461.264H250.88V463.504H253.28V473.808C253.28 476.432 254.752 478.224 257.792 478.224ZM270.927 478.288C274.703 478.288 277.487 476.528 278.063 473.168H275.407C275.055 475.12 273.551 476.08 270.959 476.08C267.535 476.08 265.711 473.968 265.583 470.16H278.191V469.296C278.191 463.312 274.543 460.976 270.671 460.976C266.063 460.976 262.831 464.496 262.831 469.552V469.808C262.831 474.96 266.191 478.288 270.927 478.288ZM265.679 468.016C266.127 465.04 267.951 463.184 270.671 463.184C273.423 463.184 275.215 464.56 275.471 468.016H265.679ZM287.606 478.288C291.67 478.288 293.75 476.24 293.75 473.2C293.75 469.648 291.318 468.88 287.862 468.24C284.79 467.696 283.958 467.088 283.958 465.584C283.958 464.144 285.206 463.184 287.126 463.184C289.238 463.184 290.262 463.984 290.646 465.808H293.206C292.758 462.192 290.166 460.976 287.158 460.976C284.534 460.976 281.494 462.576 281.494 465.68C281.494 468.592 282.966 469.808 287.318 470.608C289.91 471.088 291.222 471.664 291.222 473.424C291.222 475.216 290.102 476.08 287.574 476.08C284.886 476.08 283.83 474.832 283.638 472.848H281.046C281.206 476.272 283.606 478.288 287.606 478.288ZM311.354 478.224C312.442 478.224 313.082 478.064 313.626 477.872V475.632C313.05 475.856 312.41 475.984 311.578 475.984C310.234 475.984 309.498 475.184 309.498 473.552V463.504H313.402V461.264H309.498V457.456H306.842V461.264H304.442V463.504H306.842V473.808C306.842 476.432 308.314 478.224 311.354 478.224ZM317.641 478H320.297V467.856C320.297 464.848 322.505 463.28 324.969 463.28C327.657 463.28 328.905 464.592 328.905 467.536V478H331.561V467.728C331.561 462.864 329.129 460.976 325.673 460.976C322.921 460.976 321.065 462.352 320.297 463.92V453.264H317.641V478ZM340.958 478.288C343.422 478.288 344.926 477.456 346.174 475.888V478H348.83V466.96C348.83 462.288 345.918 460.976 342.718 460.976C339.486 460.976 336.446 462.384 336.094 466.192H338.75C339.006 464.144 340.286 463.184 342.59 463.184C345.15 463.184 346.174 464.304 346.174 466.96V468.176H343.774C339.486 468.176 335.39 469.488 335.39 473.36C335.39 476.784 337.854 478.288 340.958 478.288ZM341.214 476.176C338.878 476.176 338.046 475.088 338.046 473.36C338.046 470.896 340.51 470.064 343.87 470.064H346.174V472.144C346.174 474.736 344.03 476.176 341.214 476.176ZM359.135 478.224C360.223 478.224 360.863 478.064 361.407 477.872V475.632C360.831 475.856 360.191 475.984 359.359 475.984C358.015 475.984 357.279 475.184 357.279 473.552V463.504H361.183V461.264H357.279V457.456H354.623V461.264H352.223V463.504H354.623V473.808C354.623 476.432 356.095 478.224 359.135 478.224ZM382.211 478.288C386.819 478.288 389.827 474.768 389.827 469.648V469.392C389.827 464.176 386.595 460.976 382.211 460.976C379.779 460.976 377.507 462.448 376.547 464.08V453.264H373.891V478H376.547V475.248C377.507 476.912 379.491 478.288 382.211 478.288ZM381.955 476.08C378.691 476.08 376.451 474.064 376.451 469.776V469.52C376.451 465.232 378.819 463.184 381.923 463.184C384.739 463.184 387.075 465.296 387.075 469.52V469.776C387.075 473.84 385.283 476.08 381.955 476.08ZM393.954 478H396.61V468.816C396.61 464.688 398.754 463.632 402.114 463.472V460.976C399.106 461.072 397.666 462.384 396.61 464.272V461.264H393.954V478ZM406.049 478H408.705V461.264H406.049V478ZM407.329 457.776C408.289 457.776 409.089 456.976 409.089 456.016C409.089 455.056 408.289 454.256 407.329 454.256C406.369 454.256 405.569 455.056 405.569 456.016C405.569 456.976 406.369 457.776 407.329 457.776ZM414.141 478H416.797V467.856C416.797 464.848 419.005 463.28 421.469 463.28C424.157 463.28 425.405 464.592 425.405 467.536V478H428.061V467.728C428.061 462.864 425.629 460.976 422.173 460.976C419.421 460.976 417.565 462.352 416.797 463.92V461.264H414.141V478ZM439.954 484.112C444.626 484.112 447.922 481.744 447.954 476.88V461.264H445.298V463.952C444.338 462.32 442.61 460.976 439.826 460.976C435.218 460.976 432.018 464.752 432.018 469.296V469.52C432.018 474.128 435.25 477.456 439.634 477.456C442.066 477.456 444.338 475.92 445.298 474.288V476.72C445.298 480.304 443.218 481.872 439.922 481.872C437.074 481.872 435.474 480.88 435.09 478.96H432.37C432.818 481.776 434.994 484.112 439.954 484.112ZM439.922 475.248C437.106 475.248 434.77 473.072 434.77 469.424V469.168C434.77 465.648 436.754 463.184 440.082 463.184C443.346 463.184 445.394 465.36 445.394 469.104V469.328C445.394 473.072 443.026 475.248 439.922 475.248ZM466.885 478.224C467.973 478.224 468.613 478.064 469.157 477.872V475.632C468.581 475.856 467.941 475.984 467.109 475.984C465.765 475.984 465.029 475.184 465.029 473.552V463.504H468.933V461.264H465.029V457.456H462.373V461.264H459.973V463.504H462.373V473.808C462.373 476.432 463.845 478.224 466.885 478.224ZM473.172 478H475.828V467.856C475.828 464.848 478.036 463.28 480.5 463.28C483.188 463.28 484.436 464.592 484.436 467.536V478H487.092V467.728C487.092 462.864 484.66 460.976 481.204 460.976C478.452 460.976 476.596 462.352 475.828 463.92V453.264H473.172V478ZM499.145 478.288C502.921 478.288 505.705 476.528 506.281 473.168H503.625C503.273 475.12 501.769 476.08 499.177 476.08C495.753 476.08 493.929 473.968 493.801 470.16H506.409V469.296C506.409 463.312 502.761 460.976 498.889 460.976C494.281 460.976 491.049 464.496 491.049 469.552V469.808C491.049 474.96 494.409 478.288 499.145 478.288ZM493.897 468.016C494.345 465.04 496.169 463.184 498.889 463.184C501.641 463.184 503.433 464.56 503.689 468.016H493.897ZM524.618 478.288C527.306 478.288 529.162 476.912 529.93 475.344V478H532.586V461.264H529.93V471.408C529.93 474.416 527.69 475.984 525.322 475.984C522.698 475.984 521.45 474.672 521.45 471.728V461.264H518.794V471.856C518.794 476.464 521.29 478.288 524.618 478.288ZM543.138 478.288C547.202 478.288 549.282 476.24 549.282 473.2C549.282 469.648 546.85 468.88 543.394 468.24C540.322 467.696 539.49 467.088 539.49 465.584C539.49 464.144 540.738 463.184 542.658 463.184C544.77 463.184 545.794 463.984 546.178 465.808H548.738C548.29 462.192 545.698 460.976 542.69 460.976C540.066 460.976 537.026 462.576 537.026 465.68C537.026 468.592 538.498 469.808 542.85 470.608C545.442 471.088 546.754 471.664 546.754 473.424C546.754 475.216 545.634 476.08 543.106 476.08C540.418 476.08 539.362 474.832 539.17 472.848H536.578C536.738 476.272 539.138 478.288 543.138 478.288ZM560.177 478.288C563.953 478.288 566.737 476.528 567.313 473.168H564.657C564.305 475.12 562.801 476.08 560.209 476.08C556.785 476.08 554.961 473.968 554.833 470.16H567.441V469.296C567.441 463.312 563.793 460.976 559.921 460.976C555.313 460.976 552.081 464.496 552.081 469.552V469.808C552.081 474.96 555.441 478.288 560.177 478.288ZM554.929 468.016C555.377 465.04 557.201 463.184 559.921 463.184C562.673 463.184 564.465 464.56 564.721 468.016H554.929ZM571.516 478H574.172V468.816C574.172 464.688 576.316 463.632 579.676 463.472V460.976C576.668 461.072 575.228 462.384 574.172 464.272V461.264H571.516V478ZM167.836 526.288C172.444 526.288 175.452 522.768 175.452 517.648V517.392C175.452 512.176 172.22 508.976 167.836 508.976C165.404 508.976 163.132 510.448 162.172 512.08V501.264H159.516V526H162.172V523.248C163.132 524.912 165.116 526.288 167.836 526.288ZM167.58 524.08C164.316 524.08 162.076 522.064 162.076 517.776V517.52C162.076 513.232 164.444 511.184 167.548 511.184C170.364 511.184 172.7 513.296 172.7 517.52V517.776C172.7 521.84 170.908 524.08 167.58 524.08ZM183.771 526.288C186.235 526.288 187.739 525.456 188.987 523.888V526H191.643V514.96C191.643 510.288 188.731 508.976 185.531 508.976C182.299 508.976 179.259 510.384 178.907 514.192H181.563C181.819 512.144 183.099 511.184 185.403 511.184C187.963 511.184 188.987 512.304 188.987 514.96V516.176H186.587C182.299 516.176 178.203 517.488 178.203 521.36C178.203 524.784 180.667 526.288 183.771 526.288ZM184.027 524.176C181.691 524.176 180.859 523.088 180.859 521.36C180.859 518.896 183.323 518.064 186.683 518.064H188.987V520.144C188.987 522.736 186.843 524.176 184.027 524.176ZM203.804 526.288C207.836 526.288 210.748 523.6 211.1 519.984H208.636C208.348 522.704 206.204 524.08 203.836 524.08C200.604 524.08 198.364 521.904 198.364 517.808V517.552C198.364 513.616 200.7 511.184 203.74 511.184C206.044 511.184 207.964 512.176 208.38 514.832H211.004C210.492 510.576 207.228 508.976 203.74 508.976C199.26 508.976 195.612 512.432 195.612 517.552V517.808C195.612 522.992 199.132 526.288 203.804 526.288ZM215.11 526H217.766V517.328L225.19 526H228.422L220.646 517.04L227.814 509.264H224.71L217.766 516.976V501.264H215.11V526ZM245.167 526.224C246.255 526.224 246.895 526.064 247.439 525.872V523.632C246.863 523.856 246.223 523.984 245.391 523.984C244.047 523.984 243.311 523.184 243.311 521.552V511.504H247.215V509.264H243.311V505.456H240.655V509.264H238.255V511.504H240.655V521.808C240.655 524.432 242.127 526.224 245.167 526.224ZM258.43 524.08C255.038 524.08 252.958 521.584 252.958 517.776V517.52C252.958 513.68 255.07 511.184 258.43 511.184C261.758 511.184 263.902 513.68 263.902 517.552V517.776C263.902 521.552 261.79 524.08 258.43 524.08ZM258.398 526.288C263.166 526.288 266.654 522.8 266.654 517.744V517.488C266.654 512.464 263.166 508.976 258.43 508.976C253.694 508.976 250.206 512.496 250.206 517.52V517.776C250.206 522.672 253.63 526.288 258.398 526.288ZM284.323 526.224C285.411 526.224 286.051 526.064 286.595 525.872V523.632C286.019 523.856 285.379 523.984 284.547 523.984C283.203 523.984 282.467 523.184 282.467 521.552V511.504H286.371V509.264H282.467V505.456H279.811V509.264H277.411V511.504H279.811V521.808C279.811 524.432 281.283 526.224 284.323 526.224ZM290.61 526H293.266V515.856C293.266 512.848 295.474 511.28 297.938 511.28C300.626 511.28 301.874 512.592 301.874 515.536V526H304.53V515.728C304.53 510.864 302.098 508.976 298.642 508.976C295.89 508.976 294.034 510.352 293.266 511.92V501.264H290.61V526ZM316.583 526.288C320.359 526.288 323.143 524.528 323.719 521.168H321.063C320.711 523.12 319.207 524.08 316.615 524.08C313.191 524.08 311.367 521.968 311.239 518.16H323.847V517.296C323.847 511.312 320.199 508.976 316.327 508.976C311.719 508.976 308.487 512.496 308.487 517.552V517.808C308.487 522.96 311.847 526.288 316.583 526.288ZM311.335 516.016C311.783 513.04 313.607 511.184 316.327 511.184C319.079 511.184 320.871 512.56 321.127 516.016H311.335ZM336.391 531.824H339.047V523.248C340.007 524.912 341.959 526.288 344.711 526.288C349.319 526.288 352.327 522.768 352.327 517.648V517.392C352.327 512.176 349.095 508.976 344.711 508.976C342.279 508.976 340.007 510.448 339.047 512.08V509.264H336.391V531.824ZM344.455 524.08C341.191 524.08 338.951 522.064 338.951 517.776V517.52C338.951 513.232 341.319 511.184 344.423 511.184C347.239 511.184 349.575 513.296 349.575 517.52V517.776C349.575 521.84 347.783 524.08 344.455 524.08ZM356.518 526H359.206V501.264H356.518V526ZM368.833 526.288C371.297 526.288 372.801 525.456 374.049 523.888V526H376.705V514.96C376.705 510.288 373.793 508.976 370.593 508.976C367.361 508.976 364.321 510.384 363.969 514.192H366.625C366.881 512.144 368.161 511.184 370.465 511.184C373.025 511.184 374.049 512.304 374.049 514.96V516.176H371.649C367.361 516.176 363.265 517.488 363.265 521.36C363.265 524.784 365.729 526.288 368.833 526.288ZM369.089 524.176C366.753 524.176 365.921 523.088 365.921 521.36C365.921 518.896 368.385 518.064 371.745 518.064H374.049V520.144C374.049 522.736 371.905 524.176 369.089 524.176ZM387.01 526.224C388.098 526.224 388.738 526.064 389.282 525.872V523.632C388.706 523.856 388.066 523.984 387.234 523.984C385.89 523.984 385.154 523.184 385.154 521.552V511.504H389.058V509.264H385.154V505.456H382.498V509.264H380.098V511.504H382.498V521.808C382.498 524.432 383.97 526.224 387.01 526.224ZM393.717 526H396.373V511.504H400.469V509.264H396.373V506.256C396.373 504.56 397.077 503.376 398.805 503.376C399.541 503.376 400.213 503.536 400.693 503.728V501.488C400.021 501.264 399.573 501.168 398.709 501.168C395.381 501.168 393.717 503.152 393.717 506.544V509.264H391.317V511.504H393.717V526ZM410.367 524.08C406.975 524.08 404.895 521.584 404.895 517.776V517.52C404.895 513.68 407.007 511.184 410.367 511.184C413.695 511.184 415.839 513.68 415.839 517.552V517.776C415.839 521.552 413.727 524.08 410.367 524.08ZM410.335 526.288C415.103 526.288 418.591 522.8 418.591 517.744V517.488C418.591 512.464 415.103 508.976 410.367 508.976C405.631 508.976 402.143 512.496 402.143 517.52V517.776C402.143 522.672 405.567 526.288 410.335 526.288ZM422.704 526H425.36V516.816C425.36 512.688 427.504 511.632 430.864 511.472V508.976C427.856 509.072 426.416 510.384 425.36 512.272V509.264H422.704V526ZM434.735 526H437.391V515.76C437.391 512.752 439.631 511.28 441.807 511.28C444.111 511.28 445.359 512.496 445.359 515.44V526H448.015V515.76C448.015 512.752 450.255 511.28 452.431 511.28C454.735 511.28 455.983 512.496 455.983 515.44V526H458.639V515.632C458.639 510.768 456.015 508.976 453.007 508.976C450.927 508.976 448.431 509.936 447.279 512.112C446.415 509.872 444.527 508.976 442.383 508.976C439.983 508.976 438.159 510.256 437.391 511.824V509.264H434.735V526Z" fill="#4F4F4F"/>
<path d="M1685.9 393H1689.22V368.48L1703.66 393H1707.66V364.4H1704.34V388.04L1690.42 364.4H1685.9V393ZM1723.33 390.6C1719.09 390.6 1716.49 387.48 1716.49 382.72V382.4C1716.49 377.6 1719.13 374.48 1723.33 374.48C1727.49 374.48 1730.17 377.6 1730.17 382.44V382.72C1730.17 387.44 1727.53 390.6 1723.33 390.6ZM1723.29 393.36C1729.25 393.36 1733.61 389 1733.61 382.68V382.36C1733.61 376.08 1729.25 371.72 1723.33 371.72C1717.41 371.72 1713.05 376.12 1713.05 382.4V382.72C1713.05 388.84 1717.33 393.36 1723.29 393.36ZM1745.11 393.28C1746.47 393.28 1747.27 393.08 1747.95 392.84V390.04C1747.23 390.32 1746.43 390.48 1745.39 390.48C1743.71 390.48 1742.79 389.48 1742.79 387.44V374.88H1747.67V372.08H1742.79V367.32H1739.47V372.08H1736.47V374.88H1739.47V387.76C1739.47 391.04 1741.31 393.28 1745.11 393.28ZM1753.05 393H1756.37V372.08H1753.05V393ZM1754.65 367.72C1755.85 367.72 1756.85 366.72 1756.85 365.52C1756.85 364.32 1755.85 363.32 1754.65 363.32C1753.45 363.32 1752.45 364.32 1752.45 365.52C1752.45 366.72 1753.45 367.72 1754.65 367.72ZM1763.88 393H1767.2V374.88H1772.32V372.08H1767.2V368.32C1767.2 366.2 1768.08 364.72 1770.24 364.72C1771.16 364.72 1772 364.92 1772.6 365.16V362.36C1771.76 362.08 1771.2 361.96 1770.12 361.96C1765.96 361.96 1763.88 364.44 1763.88 368.68V372.08H1760.88V374.88H1763.88V393ZM1777.07 393H1780.39V372.08H1777.07V393ZM1778.67 367.72C1779.87 367.72 1780.87 366.72 1780.87 365.52C1780.87 364.32 1779.87 363.32 1778.67 363.32C1777.47 363.32 1776.47 364.32 1776.47 365.52C1776.47 366.72 1777.47 367.72 1778.67 367.72ZM1795.86 393.36C1800.9 393.36 1804.54 390 1804.98 385.48H1801.9C1801.54 388.88 1798.86 390.6 1795.9 390.6C1791.86 390.6 1789.06 387.88 1789.06 382.76V382.44C1789.06 377.52 1791.98 374.48 1795.78 374.48C1798.66 374.48 1801.06 375.72 1801.58 379.04H1804.86C1804.22 373.72 1800.14 371.72 1795.78 371.72C1790.18 371.72 1785.62 376.04 1785.62 382.44V382.76C1785.62 389.24 1790.02 393.36 1795.86 393.36ZM1815.24 393.36C1818.32 393.36 1820.2 392.32 1821.76 390.36V393H1825.08V379.2C1825.08 373.36 1821.44 371.72 1817.44 371.72C1813.4 371.72 1809.6 373.48 1809.16 378.24H1812.48C1812.8 375.68 1814.4 374.48 1817.28 374.48C1820.48 374.48 1821.76 375.88 1821.76 379.2V380.72H1818.76C1813.4 380.72 1808.28 382.36 1808.28 387.2C1808.28 391.48 1811.36 393.36 1815.24 393.36ZM1815.56 390.72C1812.64 390.72 1811.6 389.36 1811.6 387.2C1811.6 384.12 1814.68 383.08 1818.88 383.08H1821.76V385.68C1821.76 388.92 1819.08 390.72 1815.56 390.72ZM1837.96 393.28C1839.32 393.28 1840.12 393.08 1840.8 392.84V390.04C1840.08 390.32 1839.28 390.48 1838.24 390.48C1836.56 390.48 1835.64 389.48 1835.64 387.44V374.88H1840.52V372.08H1835.64V367.32H1832.32V372.08H1829.32V374.88H1832.32V387.76C1832.32 391.04 1834.16 393.28 1837.96 393.28ZM1845.9 393H1849.22V372.08H1845.9V393ZM1847.5 367.72C1848.7 367.72 1849.7 366.72 1849.7 365.52C1849.7 364.32 1848.7 363.32 1847.5 363.32C1846.3 363.32 1845.3 364.32 1845.3 365.52C1845.3 366.72 1846.3 367.72 1847.5 367.72ZM1864.73 390.6C1860.49 390.6 1857.89 387.48 1857.89 382.72V382.4C1857.89 377.6 1860.53 374.48 1864.73 374.48C1868.89 374.48 1871.57 377.6 1871.57 382.44V382.72C1871.57 387.44 1868.93 390.6 1864.73 390.6ZM1864.69 393.36C1870.65 393.36 1875.01 389 1875.01 382.68V382.36C1875.01 376.08 1870.65 371.72 1864.73 371.72C1858.81 371.72 1854.45 376.12 1854.45 382.4V382.72C1854.45 388.84 1858.73 393.36 1864.69 393.36ZM1880.15 393H1883.47V380.32C1883.47 376.56 1886.23 374.6 1889.31 374.6C1892.67 374.6 1894.23 376.24 1894.23 379.92V393H1897.55V380.16C1897.55 374.08 1894.51 371.72 1890.19 371.72C1886.75 371.72 1884.43 373.44 1883.47 375.4V372.08H1880.15V393Z" fill="#1E2432"/>
<path d="M1517.9 478.288C1523.78 478.288 1526.57 474.864 1526.57 469.296V455.12H1523.78V468.912C1523.78 474.512 1521.61 475.984 1517.96 475.984C1514.15 475.984 1512.46 474.128 1512.46 469.328V455.12H1509.67V469.648C1509.67 475.216 1512.65 478.288 1517.9 478.288ZM1531.8 483.824H1534.45V475.248C1535.41 476.912 1537.37 478.288 1540.12 478.288C1544.73 478.288 1547.73 474.768 1547.73 469.648V469.392C1547.73 464.176 1544.5 460.976 1540.12 460.976C1537.69 460.976 1535.41 462.448 1534.45 464.08V461.264H1531.8V483.824ZM1539.86 476.08C1536.6 476.08 1534.36 474.064 1534.36 469.776V469.52C1534.36 465.232 1536.73 463.184 1539.83 463.184C1542.65 463.184 1544.98 465.296 1544.98 469.52V469.776C1544.98 473.84 1543.19 476.08 1539.86 476.08ZM1558.16 478.288C1560.6 478.288 1562.93 476.752 1563.89 475.12V478H1566.55V453.264H1563.89V463.952C1562.93 462.32 1561.2 460.976 1558.42 460.976C1553.81 460.976 1550.61 464.592 1550.61 469.712V469.968C1550.61 475.184 1553.78 478.288 1558.16 478.288ZM1558.45 476.08C1555.64 476.08 1553.36 474.064 1553.36 469.84V469.584C1553.36 465.52 1555.35 463.184 1558.68 463.184C1561.94 463.184 1563.99 465.2 1563.99 469.488V469.744C1563.99 474.032 1561.56 476.08 1558.45 476.08ZM1576.11 478.288C1578.58 478.288 1580.08 477.456 1581.33 475.888V478H1583.99V466.96C1583.99 462.288 1581.07 460.976 1577.87 460.976C1574.64 460.976 1571.6 462.384 1571.25 466.192H1573.91C1574.16 464.144 1575.44 463.184 1577.75 463.184C1580.31 463.184 1581.33 464.304 1581.33 466.96V468.176H1578.93C1574.64 468.176 1570.55 469.488 1570.55 473.36C1570.55 476.784 1573.01 478.288 1576.11 478.288ZM1576.37 476.176C1574.03 476.176 1573.2 475.088 1573.2 473.36C1573.2 470.896 1575.67 470.064 1579.03 470.064H1581.33V472.144C1581.33 474.736 1579.19 476.176 1576.37 476.176ZM1594.29 478.224C1595.38 478.224 1596.02 478.064 1596.56 477.872V475.632C1595.99 475.856 1595.35 475.984 1594.52 475.984C1593.17 475.984 1592.44 475.184 1592.44 473.552V463.504H1596.34V461.264H1592.44V457.456H1589.78V461.264H1587.38V463.504H1589.78V473.808C1589.78 476.432 1591.25 478.224 1594.29 478.224ZM1607.43 478.288C1611.2 478.288 1613.99 476.528 1614.56 473.168H1611.91C1611.55 475.12 1610.05 476.08 1607.46 476.08C1604.03 476.08 1602.21 473.968 1602.08 470.16H1614.69V469.296C1614.69 463.312 1611.04 460.976 1607.17 460.976C1602.56 460.976 1599.33 464.496 1599.33 469.552V469.808C1599.33 474.96 1602.69 478.288 1607.43 478.288ZM1602.18 468.016C1602.63 465.04 1604.45 463.184 1607.17 463.184C1609.92 463.184 1611.71 464.56 1611.97 468.016H1602.18ZM1624.11 478.288C1628.17 478.288 1630.25 476.24 1630.25 473.2C1630.25 469.648 1627.82 468.88 1624.36 468.24C1621.29 467.696 1620.46 467.088 1620.46 465.584C1620.46 464.144 1621.71 463.184 1623.63 463.184C1625.74 463.184 1626.76 463.984 1627.15 465.808H1629.71C1629.26 462.192 1626.67 460.976 1623.66 460.976C1621.03 460.976 1617.99 462.576 1617.99 465.68C1617.99 468.592 1619.47 469.808 1623.82 470.608C1626.41 471.088 1627.72 471.664 1627.72 473.424C1627.72 475.216 1626.6 476.08 1624.07 476.08C1621.39 476.08 1620.33 474.832 1620.14 472.848H1617.55C1617.71 476.272 1620.11 478.288 1624.11 478.288ZM1647.85 478.224C1648.94 478.224 1649.58 478.064 1650.13 477.872V475.632C1649.55 475.856 1648.91 475.984 1648.08 475.984C1646.73 475.984 1646 475.184 1646 473.552V463.504H1649.9V461.264H1646V457.456H1643.34V461.264H1640.94V463.504H1643.34V473.808C1643.34 476.432 1644.81 478.224 1647.85 478.224ZM1654.14 478H1656.8V467.856C1656.8 464.848 1659.01 463.28 1661.47 463.28C1664.16 463.28 1665.41 464.592 1665.41 467.536V478H1668.06V467.728C1668.06 462.864 1665.63 460.976 1662.17 460.976C1659.42 460.976 1657.57 462.352 1656.8 463.92V453.264H1654.14V478ZM1677.46 478.288C1679.92 478.288 1681.43 477.456 1682.67 475.888V478H1685.33V466.96C1685.33 462.288 1682.42 460.976 1679.22 460.976C1675.99 460.976 1672.95 462.384 1672.59 466.192H1675.25C1675.51 464.144 1676.79 463.184 1679.09 463.184C1681.65 463.184 1682.67 464.304 1682.67 466.96V468.176H1680.27C1675.99 468.176 1671.89 469.488 1671.89 473.36C1671.89 476.784 1674.35 478.288 1677.46 478.288ZM1677.71 476.176C1675.38 476.176 1674.55 475.088 1674.55 473.36C1674.55 470.896 1677.01 470.064 1680.37 470.064H1682.67V472.144C1682.67 474.736 1680.53 476.176 1677.71 476.176ZM1695.64 478.224C1696.72 478.224 1697.36 478.064 1697.91 477.872V475.632C1697.33 475.856 1696.69 475.984 1695.86 475.984C1694.52 475.984 1693.78 475.184 1693.78 473.552V463.504H1697.68V461.264H1693.78V457.456H1691.12V461.264H1688.72V463.504H1691.12V473.808C1691.12 476.432 1692.6 478.224 1695.64 478.224ZM1714.58 478.288C1717.05 478.288 1718.55 477.456 1719.8 475.888V478H1722.46V466.96C1722.46 462.288 1719.54 460.976 1716.34 460.976C1713.11 460.976 1710.07 462.384 1709.72 466.192H1712.38C1712.63 464.144 1713.91 463.184 1716.22 463.184C1718.78 463.184 1719.8 464.304 1719.8 466.96V468.176H1717.4C1713.11 468.176 1709.02 469.488 1709.02 473.36C1709.02 476.784 1711.48 478.288 1714.58 478.288ZM1714.84 476.176C1712.5 476.176 1711.67 475.088 1711.67 473.36C1711.67 470.896 1714.14 470.064 1717.5 470.064H1719.8V472.144C1719.8 474.736 1717.66 476.176 1714.84 476.176ZM1727.67 478H1730.33V468.816C1730.33 464.688 1732.47 463.632 1735.83 463.472V460.976C1732.82 461.072 1731.38 462.384 1730.33 464.272V461.264H1727.67V478ZM1746.08 478.288C1749.86 478.288 1752.64 476.528 1753.22 473.168H1750.56C1750.21 475.12 1748.71 476.08 1746.11 476.08C1742.69 476.08 1740.87 473.968 1740.74 470.16H1753.35V469.296C1753.35 463.312 1749.7 460.976 1745.83 460.976C1741.22 460.976 1737.99 464.496 1737.99 469.552V469.808C1737.99 474.96 1741.35 478.288 1746.08 478.288ZM1740.83 468.016C1741.28 465.04 1743.11 463.184 1745.83 463.184C1748.58 463.184 1750.37 464.56 1750.63 468.016H1740.83ZM1765.89 478H1768.55V467.856C1768.55 464.848 1770.76 463.28 1773.22 463.28C1775.91 463.28 1777.16 464.592 1777.16 467.536V478H1779.81V467.728C1779.81 462.864 1777.38 460.976 1773.92 460.976C1771.17 460.976 1769.32 462.352 1768.55 463.92V461.264H1765.89V478ZM1785.08 478H1787.74V461.264H1785.08V478ZM1786.36 457.776C1787.32 457.776 1788.12 456.976 1788.12 456.016C1788.12 455.056 1787.32 454.256 1786.36 454.256C1785.4 454.256 1784.6 455.056 1784.6 456.016C1784.6 456.976 1785.4 457.776 1786.36 457.776ZM1800.12 478.288C1804.15 478.288 1807.06 475.6 1807.41 471.984H1804.95C1804.66 474.704 1802.52 476.08 1800.15 476.08C1796.92 476.08 1794.68 473.904 1794.68 469.808V469.552C1794.68 465.616 1797.01 463.184 1800.05 463.184C1802.36 463.184 1804.28 464.176 1804.69 466.832H1807.32C1806.8 462.576 1803.54 460.976 1800.05 460.976C1795.57 460.976 1791.92 464.432 1791.92 469.552V469.808C1791.92 474.992 1795.44 478.288 1800.12 478.288ZM1818.27 478.288C1822.05 478.288 1824.83 476.528 1825.41 473.168H1822.75C1822.4 475.12 1820.89 476.08 1818.3 476.08C1814.88 476.08 1813.05 473.968 1812.93 470.16H1825.53V469.296C1825.53 463.312 1821.89 460.976 1818.01 460.976C1813.41 460.976 1810.17 464.496 1810.17 469.552V469.808C1810.17 474.96 1813.53 478.288 1818.27 478.288ZM1813.02 468.016C1813.47 465.04 1815.29 463.184 1818.01 463.184C1820.77 463.184 1822.56 464.56 1822.81 468.016H1813.02ZM1843.17 478.224C1844.25 478.224 1844.89 478.064 1845.44 477.872V475.632C1844.86 475.856 1844.22 475.984 1843.39 475.984C1842.05 475.984 1841.31 475.184 1841.31 473.552V463.504H1845.21V461.264H1841.31V457.456H1838.65V461.264H1836.25V463.504H1838.65V473.808C1838.65 476.432 1840.13 478.224 1843.17 478.224ZM1856.43 476.08C1853.04 476.08 1850.96 473.584 1850.96 469.776V469.52C1850.96 465.68 1853.07 463.184 1856.43 463.184C1859.76 463.184 1861.9 465.68 1861.9 469.552V469.776C1861.9 473.552 1859.79 476.08 1856.43 476.08ZM1856.4 478.288C1861.17 478.288 1864.65 474.8 1864.65 469.744V469.488C1864.65 464.464 1861.17 460.976 1856.43 460.976C1851.69 460.976 1848.21 464.496 1848.21 469.52V469.776C1848.21 474.672 1851.63 478.288 1856.4 478.288ZM1877.23 478H1879.89V469.328L1887.31 478H1890.55L1882.77 469.04L1889.94 461.264H1886.83L1879.89 468.976V453.264H1877.23V478ZM1893.73 478H1896.39V467.856C1896.39 464.848 1898.6 463.28 1901.06 463.28C1903.75 463.28 1905 464.592 1905 467.536V478H1907.65V467.728C1907.65 462.864 1905.22 460.976 1901.77 460.976C1899.01 460.976 1897.16 462.352 1896.39 463.92V461.264H1893.73V478ZM1919.84 476.08C1916.44 476.08 1914.36 473.584 1914.36 469.776V469.52C1914.36 465.68 1916.48 463.184 1919.84 463.184C1923.16 463.184 1925.31 465.68 1925.31 469.552V469.776C1925.31 473.552 1923.2 476.08 1919.84 476.08ZM1919.8 478.288C1924.57 478.288 1928.06 474.8 1928.06 469.744V469.488C1928.06 464.464 1924.57 460.976 1919.84 460.976C1915.1 460.976 1911.61 464.496 1911.61 469.52V469.776C1911.61 474.672 1915.04 478.288 1919.8 478.288ZM1935.22 478H1938.13L1942.04 465.456L1945.52 478H1948.47L1953.68 461.264H1950.96L1947.03 474.736L1943.22 461.264H1940.92L1936.85 474.736L1932.95 461.264H1930.07L1935.22 478ZM1969.93 478.288C1972.39 478.288 1973.89 477.456 1975.14 475.888V478H1977.8V466.96C1977.8 462.288 1974.89 460.976 1971.69 460.976C1968.45 460.976 1965.41 462.384 1965.06 466.192H1967.72C1967.97 464.144 1969.25 463.184 1971.56 463.184C1974.12 463.184 1975.14 464.304 1975.14 466.96V468.176H1972.74C1968.45 468.176 1964.36 469.488 1964.36 473.36C1964.36 476.784 1966.82 478.288 1969.93 478.288ZM1970.18 476.176C1967.85 476.176 1967.01 475.088 1967.01 473.36C1967.01 470.896 1969.48 470.064 1972.84 470.064H1975.14V472.144C1975.14 474.736 1973 476.176 1970.18 476.176ZM1983.02 478H1985.67V467.856C1985.67 464.848 1987.88 463.28 1990.34 463.28C1993.03 463.28 1994.28 464.592 1994.28 467.536V478H1996.94V467.728C1996.94 462.864 1994.5 460.976 1991.05 460.976C1988.3 460.976 1986.44 462.352 1985.67 463.92V461.264H1983.02V478ZM2008.45 478.288C2010.88 478.288 2013.21 476.752 2014.17 475.12V478H2016.83V453.264H2014.17V463.952C2013.21 462.32 2011.49 460.976 2008.7 460.976C2004.09 460.976 2000.89 464.592 2000.89 469.712V469.968C2000.89 475.184 2004.06 478.288 2008.45 478.288ZM2008.73 476.08C2005.92 476.08 2003.65 474.064 2003.65 469.84V469.584C2003.65 465.52 2005.63 463.184 2008.96 463.184C2012.22 463.184 2014.27 465.2 2014.27 469.488V469.744C2014.27 474.032 2011.84 476.08 2008.73 476.08ZM2034.86 478.288C2037.33 478.288 2038.83 477.456 2040.08 475.888V478H2042.74V466.96C2042.74 462.288 2039.82 460.976 2036.62 460.976C2033.39 460.976 2030.35 462.384 2030 466.192H2032.66C2032.91 464.144 2034.19 463.184 2036.5 463.184C2039.06 463.184 2040.08 464.304 2040.08 466.96V468.176H2037.68C2033.39 468.176 2029.3 469.488 2029.3 473.36C2029.3 476.784 2031.76 478.288 2034.86 478.288ZM2035.12 476.176C2032.78 476.176 2031.95 475.088 2031.95 473.36C2031.95 470.896 2034.42 470.064 2037.78 470.064H2040.08V472.144C2040.08 474.736 2037.94 476.176 2035.12 476.176ZM2047.95 478H2050.61V468.816C2050.61 464.688 2052.75 463.632 2056.11 463.472V460.976C2053.11 461.072 2051.67 462.384 2050.61 464.272V461.264H2047.95V478ZM2066.36 478.288C2070.14 478.288 2072.92 476.528 2073.5 473.168H2070.84C2070.49 475.12 2068.99 476.08 2066.4 476.08C2062.97 476.08 2061.15 473.968 2061.02 470.16H2073.63V469.296C2073.63 463.312 2069.98 460.976 2066.11 460.976C2061.5 460.976 2058.27 464.496 2058.27 469.552V469.808C2058.27 474.96 2061.63 478.288 2066.36 478.288ZM2061.12 468.016C2061.56 465.04 2063.39 463.184 2066.11 463.184C2068.86 463.184 2070.65 464.56 2070.91 468.016H2061.12ZM1610.69 526.288C1614.73 526.288 1617.64 523.6 1617.99 519.984H1615.53C1615.24 522.704 1613.09 524.08 1610.73 524.08C1607.49 524.08 1605.25 521.904 1605.25 517.808V517.552C1605.25 513.616 1607.59 511.184 1610.63 511.184C1612.93 511.184 1614.85 512.176 1615.27 514.832H1617.89C1617.38 510.576 1614.12 508.976 1610.63 508.976C1606.15 508.976 1602.5 512.432 1602.5 517.552V517.808C1602.5 522.992 1606.02 526.288 1610.69 526.288ZM1628.98 524.08C1625.58 524.08 1623.5 521.584 1623.5 517.776V517.52C1623.5 513.68 1625.62 511.184 1628.98 511.184C1632.3 511.184 1634.45 513.68 1634.45 517.552V517.776C1634.45 521.552 1632.34 524.08 1628.98 524.08ZM1628.94 526.288C1633.71 526.288 1637.2 522.8 1637.2 517.744V517.488C1637.2 512.464 1633.71 508.976 1628.98 508.976C1624.24 508.976 1620.75 512.496 1620.75 517.52V517.776C1620.75 522.672 1624.18 526.288 1628.94 526.288ZM1641.31 526H1643.97V515.856C1643.97 512.848 1646.18 511.28 1648.64 511.28C1651.33 511.28 1652.58 512.592 1652.58 515.536V526H1655.23V515.728C1655.23 510.864 1652.8 508.976 1649.35 508.976C1646.59 508.976 1644.74 510.352 1643.97 511.92V509.264H1641.31V526ZM1665.53 526.224C1666.61 526.224 1667.25 526.064 1667.8 525.872V523.632C1667.22 523.856 1666.58 523.984 1665.75 523.984C1664.41 523.984 1663.67 523.184 1663.67 521.552V511.504H1667.57V509.264H1663.67V505.456H1661.01V509.264H1658.61V511.504H1661.01V521.808C1661.01 524.432 1662.49 526.224 1665.53 526.224ZM1676.16 526.288C1678.63 526.288 1680.13 525.456 1681.38 523.888V526H1684.03V514.96C1684.03 510.288 1681.12 508.976 1677.92 508.976C1674.69 508.976 1671.65 510.384 1671.3 514.192H1673.95C1674.21 512.144 1675.49 511.184 1677.79 511.184C1680.35 511.184 1681.38 512.304 1681.38 514.96V516.176H1678.98C1674.69 516.176 1670.59 517.488 1670.59 521.36C1670.59 524.784 1673.06 526.288 1676.16 526.288ZM1676.42 524.176C1674.08 524.176 1673.25 523.088 1673.25 521.36C1673.25 518.896 1675.71 518.064 1679.07 518.064H1681.38V520.144C1681.38 522.736 1679.23 524.176 1676.42 524.176ZM1689.31 526H1691.97V509.264H1689.31V526ZM1690.59 505.776C1691.55 505.776 1692.35 504.976 1692.35 504.016C1692.35 503.056 1691.55 502.256 1690.59 502.256C1689.63 502.256 1688.83 503.056 1688.83 504.016C1688.83 504.976 1689.63 505.776 1690.59 505.776ZM1697.41 526H1700.06V515.856C1700.06 512.848 1702.27 511.28 1704.73 511.28C1707.42 511.28 1708.67 512.592 1708.67 515.536V526H1711.33V515.728C1711.33 510.864 1708.89 508.976 1705.44 508.976C1702.69 508.976 1700.83 510.352 1700.06 511.92V509.264H1697.41V526ZM1723.38 526.288C1727.16 526.288 1729.94 524.528 1730.52 521.168H1727.86C1727.51 523.12 1726 524.08 1723.41 524.08C1719.99 524.08 1718.16 521.968 1718.04 518.16H1730.64V517.296C1730.64 511.312 1727 508.976 1723.12 508.976C1718.52 508.976 1715.28 512.496 1715.28 517.552V517.808C1715.28 522.96 1718.64 526.288 1723.38 526.288ZM1718.13 516.016C1718.58 513.04 1720.4 511.184 1723.12 511.184C1725.88 511.184 1727.67 512.56 1727.92 516.016H1718.13ZM1741.02 526.288C1743.46 526.288 1745.79 524.752 1746.75 523.12V526H1749.41V501.264H1746.75V511.952C1745.79 510.32 1744.06 508.976 1741.28 508.976C1736.67 508.976 1733.47 512.592 1733.47 517.712V517.968C1733.47 523.184 1736.64 526.288 1741.02 526.288ZM1741.31 524.08C1738.5 524.08 1736.22 522.064 1736.22 517.84V517.584C1736.22 513.52 1738.21 511.184 1741.54 511.184C1744.8 511.184 1746.85 513.2 1746.85 517.488V517.744C1746.85 522.032 1744.42 524.08 1741.31 524.08ZM1763.31 526H1765.97V509.264H1763.31V526ZM1764.59 505.776C1765.55 505.776 1766.35 504.976 1766.35 504.016C1766.35 503.056 1765.55 502.256 1764.59 502.256C1763.63 502.256 1762.83 503.056 1762.83 504.016C1762.83 504.976 1763.63 505.776 1764.59 505.776ZM1771.41 526H1774.06V515.856C1774.06 512.848 1776.27 511.28 1778.73 511.28C1781.42 511.28 1782.67 512.592 1782.67 515.536V526H1785.33V515.728C1785.33 510.864 1782.89 508.976 1779.44 508.976C1776.69 508.976 1774.83 510.352 1774.06 511.92V509.264H1771.41V526ZM1804.09 526.224C1805.18 526.224 1805.82 526.064 1806.36 525.872V523.632C1805.78 523.856 1805.14 523.984 1804.31 523.984C1802.97 523.984 1802.23 523.184 1802.23 521.552V511.504H1806.14V509.264H1802.23V505.456H1799.58V509.264H1797.18V511.504H1799.58V521.808C1799.58 524.432 1801.05 526.224 1804.09 526.224ZM1810.38 526H1813.03V515.856C1813.03 512.848 1815.24 511.28 1817.7 511.28C1820.39 511.28 1821.64 512.592 1821.64 515.536V526H1824.3V515.728C1824.3 510.864 1821.86 508.976 1818.41 508.976C1815.66 508.976 1813.8 510.352 1813.03 511.92V501.264H1810.38V526ZM1836.35 526.288C1840.12 526.288 1842.91 524.528 1843.48 521.168H1840.83C1840.48 523.12 1838.97 524.08 1836.38 524.08C1832.96 524.08 1831.13 521.968 1831 518.16H1843.61V517.296C1843.61 511.312 1839.96 508.976 1836.09 508.976C1831.48 508.976 1828.25 512.496 1828.25 517.552V517.808C1828.25 522.96 1831.61 526.288 1836.35 526.288ZM1831.1 516.016C1831.55 513.04 1833.37 511.184 1836.09 511.184C1838.84 511.184 1840.64 512.56 1840.89 516.016H1831.1ZM1856.16 531.824H1858.81V523.248C1859.77 524.912 1861.72 526.288 1864.48 526.288C1869.08 526.288 1872.09 522.768 1872.09 517.648V517.392C1872.09 512.176 1868.86 508.976 1864.48 508.976C1862.04 508.976 1859.77 510.448 1858.81 512.08V509.264H1856.16V531.824ZM1864.22 524.08C1860.96 524.08 1858.72 522.064 1858.72 517.776V517.52C1858.72 513.232 1861.08 511.184 1864.19 511.184C1867 511.184 1869.34 513.296 1869.34 517.52V517.776C1869.34 521.84 1867.55 524.08 1864.22 524.08ZM1876.28 526H1878.97V501.264H1876.28V526ZM1888.6 526.288C1891.06 526.288 1892.57 525.456 1893.81 523.888V526H1896.47V514.96C1896.47 510.288 1893.56 508.976 1890.36 508.976C1887.13 508.976 1884.09 510.384 1883.73 514.192H1886.39C1886.65 512.144 1887.93 511.184 1890.23 511.184C1892.79 511.184 1893.81 512.304 1893.81 514.96V516.176H1891.41C1887.13 516.176 1883.03 517.488 1883.03 521.36C1883.03 524.784 1885.49 526.288 1888.6 526.288ZM1888.85 524.176C1886.52 524.176 1885.69 523.088 1885.69 521.36C1885.69 518.896 1888.15 518.064 1891.51 518.064H1893.81V520.144C1893.81 522.736 1891.67 524.176 1888.85 524.176ZM1906.78 526.224C1907.86 526.224 1908.5 526.064 1909.05 525.872V523.632C1908.47 523.856 1907.83 523.984 1907 523.984C1905.66 523.984 1904.92 523.184 1904.92 521.552V511.504H1908.82V509.264H1904.92V505.456H1902.26V509.264H1899.86V511.504H1902.26V521.808C1902.26 524.432 1903.74 526.224 1906.78 526.224ZM1913.48 526H1916.14V511.504H1920.23V509.264H1916.14V506.256C1916.14 504.56 1916.84 503.376 1918.57 503.376C1919.31 503.376 1919.98 503.536 1920.46 503.728V501.488C1919.79 501.264 1919.34 501.168 1918.47 501.168C1915.15 501.168 1913.48 503.152 1913.48 506.544V509.264H1911.08V511.504H1913.48V526ZM1930.13 524.08C1926.74 524.08 1924.66 521.584 1924.66 517.776V517.52C1924.66 513.68 1926.77 511.184 1930.13 511.184C1933.46 511.184 1935.6 513.68 1935.6 517.552V517.776C1935.6 521.552 1933.49 524.08 1930.13 524.08ZM1930.1 526.288C1934.87 526.288 1938.36 522.8 1938.36 517.744V517.488C1938.36 512.464 1934.87 508.976 1930.13 508.976C1925.4 508.976 1921.91 512.496 1921.91 517.52V517.776C1921.91 522.672 1925.33 526.288 1930.1 526.288ZM1942.47 526H1945.13V516.816C1945.13 512.688 1947.27 511.632 1950.63 511.472V508.976C1947.62 509.072 1946.18 510.384 1945.13 512.272V509.264H1942.47V526ZM1954.5 526H1957.16V515.76C1957.16 512.752 1959.4 511.28 1961.57 511.28C1963.88 511.28 1965.12 512.496 1965.12 515.44V526H1967.78V515.76C1967.78 512.752 1970.02 511.28 1972.2 511.28C1974.5 511.28 1975.75 512.496 1975.75 515.44V526H1978.4V515.632C1978.4 510.768 1975.78 508.976 1972.77 508.976C1970.69 508.976 1968.2 509.936 1967.04 512.112C1966.18 509.872 1964.29 508.976 1962.15 508.976C1959.75 508.976 1957.92 510.256 1957.16 511.824V509.264H1954.5V526Z" fill="#4F4F4F"/>
<circle cx="1791.5" cy="266.5" r="27.5" fill="#BDBDBD"/>
<path d="M1791 89V117.5" stroke="#828282" stroke-width="5" stroke-linecap="round" stroke-linejoin="round"/>
<path fill-rule="evenodd" clip-rule="evenodd" d="M1791 117C1771 117 1731 127.7 1731 170.5V221C1730.5 225.333 1726.9 236.5 1716.5 246.5C1713 250 1706 258.8 1706 266H1791H1876C1876 258.8 1869 250 1865.5 246.5C1855.1 236.5 1851.5 225.333 1851 221V170.5C1851 127.7 1811 117 1791 117Z" fill="#F2F2F2"/>
<circle cx="1844" cy="134" r="20" fill="#006FCF"/>
<path d="M981.553 393H991.353C997.073 393 1000.75 390.4 1000.75 385V384.84C1000.75 381.12 999.193 379 995.033 378C998.313 376.88 999.353 374.56 999.353 371.96V371.8C999.353 366.16 995.473 364.4 990.153 364.4H981.553V393ZM984.953 390.28V379.6H990.793C995.393 379.6 997.353 381.28 997.353 384.8V384.96C997.353 388.44 995.433 390.28 991.273 390.28H984.953ZM984.953 376.88V367.12H990.073C994.073 367.12 995.953 368.44 995.953 371.68V371.84C995.953 375.36 994.353 376.88 990.153 376.88H984.953ZM1011.44 393.36C1014.52 393.36 1016.4 392.32 1017.96 390.36V393H1021.28V379.2C1021.28 373.36 1017.64 371.72 1013.64 371.72C1009.6 371.72 1005.8 373.48 1005.36 378.24H1008.68C1009 375.68 1010.6 374.48 1013.48 374.48C1016.68 374.48 1017.96 375.88 1017.96 379.2V380.72H1014.96C1009.6 380.72 1004.48 382.36 1004.48 387.2C1004.48 391.48 1007.56 393.36 1011.44 393.36ZM1011.76 390.72C1008.84 390.72 1007.8 389.36 1007.8 387.2C1007.8 384.12 1010.88 383.08 1015.08 383.08H1017.96V385.68C1017.96 388.92 1015.28 390.72 1011.76 390.72ZM1027.8 393H1031.12V380.32C1031.12 376.56 1033.88 374.6 1036.96 374.6C1040.32 374.6 1041.88 376.24 1041.88 379.92V393H1045.2V380.16C1045.2 374.08 1042.16 371.72 1037.84 371.72C1034.4 371.72 1032.08 373.44 1031.12 375.4V372.08H1027.8V393ZM1051.7 393H1055.02V380.32C1055.02 376.56 1057.78 374.6 1060.86 374.6C1064.22 374.6 1065.78 376.24 1065.78 379.92V393H1069.1V380.16C1069.1 374.08 1066.06 371.72 1061.74 371.72C1058.3 371.72 1055.98 373.44 1055.02 375.4V372.08H1051.7V393ZM1084.17 393.36C1088.89 393.36 1092.37 391.16 1093.09 386.96H1089.77C1089.33 389.4 1087.45 390.6 1084.21 390.6C1079.93 390.6 1077.65 387.96 1077.49 383.2H1093.25V382.12C1093.25 374.64 1088.69 371.72 1083.85 371.72C1078.09 371.72 1074.05 376.12 1074.05 382.44V382.76C1074.05 389.2 1078.25 393.36 1084.17 393.36ZM1077.61 380.52C1078.17 376.8 1080.45 374.48 1083.85 374.48C1087.29 374.48 1089.53 376.2 1089.85 380.52H1077.61ZM1098.34 393H1101.66V381.52C1101.66 376.36 1104.34 375.04 1108.54 374.84V371.72C1104.78 371.84 1102.98 373.48 1101.66 375.84V372.08H1098.34V393ZM1119.67 393.36C1124.75 393.36 1127.35 390.8 1127.35 387C1127.35 382.56 1124.31 381.6 1119.99 380.8C1116.15 380.12 1115.11 379.36 1115.11 377.48C1115.11 375.68 1116.67 374.48 1119.07 374.48C1121.71 374.48 1122.99 375.48 1123.47 377.76H1126.67C1126.11 373.24 1122.87 371.72 1119.11 371.72C1115.83 371.72 1112.03 373.72 1112.03 377.6C1112.03 381.24 1113.87 382.76 1119.31 383.76C1122.55 384.36 1124.19 385.08 1124.19 387.28C1124.19 389.52 1122.79 390.6 1119.63 390.6C1116.27 390.6 1114.95 389.04 1114.71 386.56H1111.47C1111.67 390.84 1114.67 393.36 1119.67 393.36Z" fill="#1E2432"/>
<path d="M763.021 478.288C768.909 478.288 771.693 474.864 771.693 469.296V455.12H768.909V468.912C768.909 474.512 766.733 475.984 763.085 475.984C759.277 475.984 757.581 474.128 757.581 469.328V455.12H754.797V469.648C754.797 475.216 757.773 478.288 763.021 478.288ZM776.922 483.824H779.578V475.248C780.538 476.912 782.49 478.288 785.242 478.288C789.85 478.288 792.858 474.768 792.858 469.648V469.392C792.858 464.176 789.626 460.976 785.242 460.976C782.81 460.976 780.538 462.448 779.578 464.08V461.264H776.922V483.824ZM784.986 476.08C781.722 476.08 779.482 474.064 779.482 469.776V469.52C779.482 465.232 781.85 463.184 784.954 463.184C787.77 463.184 790.106 465.296 790.106 469.52V469.776C790.106 473.84 788.314 476.08 784.986 476.08ZM803.289 478.288C805.721 478.288 808.057 476.752 809.017 475.12V478H811.673V453.264H809.017V463.952C808.057 462.32 806.329 460.976 803.545 460.976C798.937 460.976 795.737 464.592 795.737 469.712V469.968C795.737 475.184 798.905 478.288 803.289 478.288ZM803.577 476.08C800.761 476.08 798.489 474.064 798.489 469.84V469.584C798.489 465.52 800.473 463.184 803.801 463.184C807.065 463.184 809.113 465.2 809.113 469.488V469.744C809.113 474.032 806.681 476.08 803.577 476.08ZM821.239 478.288C823.703 478.288 825.207 477.456 826.455 475.888V478H829.111V466.96C829.111 462.288 826.199 460.976 822.999 460.976C819.767 460.976 816.727 462.384 816.375 466.192H819.031C819.287 464.144 820.567 463.184 822.871 463.184C825.431 463.184 826.455 464.304 826.455 466.96V468.176H824.055C819.767 468.176 815.671 469.488 815.671 473.36C815.671 476.784 818.135 478.288 821.239 478.288ZM821.495 476.176C819.159 476.176 818.327 475.088 818.327 473.36C818.327 470.896 820.791 470.064 824.151 470.064H826.455V472.144C826.455 474.736 824.311 476.176 821.495 476.176ZM839.417 478.224C840.505 478.224 841.145 478.064 841.689 477.872V475.632C841.113 475.856 840.473 475.984 839.641 475.984C838.297 475.984 837.561 475.184 837.561 473.552V463.504H841.465V461.264H837.561V457.456H834.905V461.264H832.505V463.504H834.905V473.808C834.905 476.432 836.377 478.224 839.417 478.224ZM852.552 478.288C856.328 478.288 859.112 476.528 859.688 473.168H857.032C856.68 475.12 855.176 476.08 852.584 476.08C849.16 476.08 847.336 473.968 847.208 470.16H859.816V469.296C859.816 463.312 856.168 460.976 852.296 460.976C847.688 460.976 844.456 464.496 844.456 469.552V469.808C844.456 474.96 847.816 478.288 852.552 478.288ZM847.304 468.016C847.752 465.04 849.576 463.184 852.296 463.184C855.048 463.184 856.84 464.56 857.096 468.016H847.304ZM869.231 478.288C873.295 478.288 875.375 476.24 875.375 473.2C875.375 469.648 872.943 468.88 869.487 468.24C866.415 467.696 865.583 467.088 865.583 465.584C865.583 464.144 866.831 463.184 868.751 463.184C870.863 463.184 871.887 463.984 872.271 465.808H874.831C874.383 462.192 871.791 460.976 868.783 460.976C866.159 460.976 863.119 462.576 863.119 465.68C863.119 468.592 864.591 469.808 868.943 470.608C871.535 471.088 872.847 471.664 872.847 473.424C872.847 475.216 871.727 476.08 869.199 476.08C866.511 476.08 865.455 474.832 865.263 472.848H862.671C862.831 476.272 865.231 478.288 869.231 478.288ZM892.979 478.224C894.067 478.224 894.707 478.064 895.251 477.872V475.632C894.675 475.856 894.035 475.984 893.203 475.984C891.859 475.984 891.123 475.184 891.123 473.552V463.504H895.027V461.264H891.123V457.456H888.467V461.264H886.067V463.504H888.467V473.808C888.467 476.432 889.939 478.224 892.979 478.224ZM899.266 478H901.922V467.856C901.922 464.848 904.13 463.28 906.594 463.28C909.282 463.28 910.53 464.592 910.53 467.536V478H913.186V467.728C913.186 462.864 910.754 460.976 907.298 460.976C904.546 460.976 902.69 462.352 901.922 463.92V453.264H899.266V478ZM922.583 478.288C925.047 478.288 926.551 477.456 927.799 475.888V478H930.455V466.96C930.455 462.288 927.543 460.976 924.343 460.976C921.111 460.976 918.071 462.384 917.719 466.192H920.375C920.631 464.144 921.911 463.184 924.215 463.184C926.775 463.184 927.799 464.304 927.799 466.96V468.176H925.399C921.111 468.176 917.015 469.488 917.015 473.36C917.015 476.784 919.479 478.288 922.583 478.288ZM922.839 476.176C920.503 476.176 919.671 475.088 919.671 473.36C919.671 470.896 922.135 470.064 925.495 470.064H927.799V472.144C927.799 474.736 925.655 476.176 922.839 476.176ZM940.76 478.224C941.848 478.224 942.488 478.064 943.032 477.872V475.632C942.456 475.856 941.816 475.984 940.984 475.984C939.64 475.984 938.904 475.184 938.904 473.552V463.504H942.808V461.264H938.904V457.456H936.248V461.264H933.848V463.504H936.248V473.808C936.248 476.432 937.72 478.224 940.76 478.224ZM955.516 478H958.172V467.856C958.172 464.848 960.38 463.28 962.844 463.28C965.532 463.28 966.78 464.592 966.78 467.536V478H969.436V467.728C969.436 462.864 967.004 460.976 963.548 460.976C960.796 460.976 958.94 462.352 958.172 463.92V461.264H955.516V478ZM981.489 478.288C985.265 478.288 988.049 476.528 988.625 473.168H985.969C985.617 475.12 984.113 476.08 981.521 476.08C978.097 476.08 976.273 473.968 976.145 470.16H988.753V469.296C988.753 463.312 985.105 460.976 981.233 460.976C976.625 460.976 973.393 464.496 973.393 469.552V469.808C973.393 474.96 976.753 478.288 981.489 478.288ZM976.241 468.016C976.689 465.04 978.513 463.184 981.233 463.184C983.985 463.184 985.777 464.56 986.033 468.016H976.241ZM999.677 478.288C1003.45 478.288 1006.24 476.528 1006.81 473.168H1004.16C1003.8 475.12 1002.3 476.08 999.709 476.08C996.285 476.08 994.461 473.968 994.333 470.16H1006.94V469.296C1006.94 463.312 1003.29 460.976 999.421 460.976C994.813 460.976 991.581 464.496 991.581 469.552V469.808C991.581 474.96 994.941 478.288 999.677 478.288ZM994.429 468.016C994.877 465.04 996.701 463.184 999.421 463.184C1002.17 463.184 1003.96 464.56 1004.22 468.016H994.429ZM1017.32 478.288C1019.75 478.288 1022.09 476.752 1023.05 475.12V478H1025.7V453.264H1023.05V463.952C1022.09 462.32 1020.36 460.976 1017.58 460.976C1012.97 460.976 1009.77 464.592 1009.77 469.712V469.968C1009.77 475.184 1012.94 478.288 1017.32 478.288ZM1017.61 476.08C1014.79 476.08 1012.52 474.064 1012.52 469.84V469.584C1012.52 465.52 1014.5 463.184 1017.83 463.184C1021.1 463.184 1023.14 465.2 1023.14 469.488V469.744C1023.14 474.032 1020.71 476.08 1017.61 476.08ZM1039.55 478H1042.2V467.856C1042.2 464.848 1044.41 463.28 1046.88 463.28C1049.56 463.28 1050.81 464.592 1050.81 467.536V478H1053.47V467.728C1053.47 462.864 1051.04 460.976 1047.58 460.976C1044.83 460.976 1042.97 462.352 1042.2 463.92V453.264H1039.55V478ZM1058.74 478H1061.39V461.264H1058.74V478ZM1060.02 457.776C1060.98 457.776 1061.78 456.976 1061.78 456.016C1061.78 455.056 1060.98 454.256 1060.02 454.256C1059.06 454.256 1058.26 455.056 1058.26 456.016C1058.26 456.976 1059.06 457.776 1060.02 457.776ZM1073.52 484.112C1078.19 484.112 1081.48 481.744 1081.52 476.88V461.264H1078.86V463.952C1077.9 462.32 1076.17 460.976 1073.39 460.976C1068.78 460.976 1065.58 464.752 1065.58 469.296V469.52C1065.58 474.128 1068.81 477.456 1073.2 477.456C1075.63 477.456 1077.9 475.92 1078.86 474.288V476.72C1078.86 480.304 1076.78 481.872 1073.48 481.872C1070.64 481.872 1069.04 480.88 1068.65 478.96H1065.93C1066.38 481.776 1068.56 484.112 1073.52 484.112ZM1073.48 475.248C1070.67 475.248 1068.33 473.072 1068.33 469.424V469.168C1068.33 465.648 1070.32 463.184 1073.64 463.184C1076.91 463.184 1078.96 465.36 1078.96 469.104V469.328C1078.96 473.072 1076.59 475.248 1073.48 475.248ZM1086.89 478H1089.55V467.856C1089.55 464.848 1091.76 463.28 1094.22 463.28C1096.91 463.28 1098.16 464.592 1098.16 467.536V478H1100.81V467.728C1100.81 462.864 1098.38 460.976 1094.92 460.976C1092.17 460.976 1090.32 462.352 1089.55 463.92V453.264H1086.89V478ZM1118.68 478H1122.07L1128.08 461.264H1125.33L1120.44 475.312L1115.48 461.264H1112.6L1118.68 478ZM1131.64 478H1134.3V461.264H1131.64V478ZM1132.92 457.776C1133.88 457.776 1134.68 456.976 1134.68 456.016C1134.68 455.056 1133.88 454.256 1132.92 454.256C1131.96 454.256 1131.16 455.056 1131.16 456.016C1131.16 456.976 1131.96 457.776 1132.92 457.776ZM1144.92 478.288C1148.98 478.288 1151.06 476.24 1151.06 473.2C1151.06 469.648 1148.63 468.88 1145.17 468.24C1142.1 467.696 1141.27 467.088 1141.27 465.584C1141.27 464.144 1142.52 463.184 1144.44 463.184C1146.55 463.184 1147.57 463.984 1147.96 465.808H1150.52C1150.07 462.192 1147.48 460.976 1144.47 460.976C1141.85 460.976 1138.81 462.576 1138.81 465.68C1138.81 468.592 1140.28 469.808 1144.63 470.608C1147.22 471.088 1148.53 471.664 1148.53 473.424C1148.53 475.216 1147.41 476.08 1144.89 476.08C1142.2 476.08 1141.14 474.832 1140.95 472.848H1138.36C1138.52 476.272 1140.92 478.288 1144.92 478.288ZM1155.17 478H1157.83V461.264H1155.17V478ZM1156.45 457.776C1157.41 457.776 1158.21 456.976 1158.21 456.016C1158.21 455.056 1157.41 454.256 1156.45 454.256C1155.49 454.256 1154.69 455.056 1154.69 456.016C1154.69 456.976 1155.49 457.776 1156.45 457.776ZM1171.59 478.288C1176.19 478.288 1179.2 474.768 1179.2 469.648V469.392C1179.2 464.176 1175.97 460.976 1171.59 460.976C1169.15 460.976 1166.88 462.448 1165.92 464.08V453.264H1163.27V478H1165.92V475.248C1166.88 476.912 1168.87 478.288 1171.59 478.288ZM1171.33 476.08C1168.07 476.08 1165.83 474.064 1165.83 469.776V469.52C1165.83 465.232 1168.19 463.184 1171.3 463.184C1174.11 463.184 1176.45 465.296 1176.45 469.52V469.776C1176.45 473.84 1174.66 476.08 1171.33 476.08ZM1183.39 478H1186.05V461.264H1183.39V478ZM1184.67 457.776C1185.63 457.776 1186.43 456.976 1186.43 456.016C1186.43 455.056 1185.63 454.256 1184.67 454.256C1183.71 454.256 1182.91 455.056 1182.91 456.016C1182.91 456.976 1183.71 457.776 1184.67 457.776ZM1191.55 478H1194.24V453.264H1191.55V478ZM1199.74 478H1202.39V461.264H1199.74V478ZM1201.02 457.776C1201.98 457.776 1202.78 456.976 1202.78 456.016C1202.78 455.056 1201.98 454.256 1201.02 454.256C1200.06 454.256 1199.26 455.056 1199.26 456.016C1199.26 456.976 1200.06 457.776 1201.02 457.776ZM1212.92 478.224C1214 478.224 1214.64 478.064 1215.19 477.872V475.632C1214.61 475.856 1213.97 475.984 1213.14 475.984C1211.8 475.984 1211.06 475.184 1211.06 473.552V463.504H1214.96V461.264H1211.06V457.456H1208.4V461.264H1206V463.504H1208.4V473.808C1208.4 476.432 1209.88 478.224 1212.92 478.224ZM1220.71 483.824H1223.4L1232.64 461.264H1229.92L1225.28 473.264L1220.16 461.264H1217.32L1223.88 476.272L1220.71 483.824ZM1248.8 478.288C1251.27 478.288 1252.77 477.456 1254.02 475.888V478H1256.67V466.96C1256.67 462.288 1253.76 460.976 1250.56 460.976C1247.33 460.976 1244.29 462.384 1243.94 466.192H1246.59C1246.85 464.144 1248.13 463.184 1250.43 463.184C1252.99 463.184 1254.02 464.304 1254.02 466.96V468.176H1251.62C1247.33 468.176 1243.23 469.488 1243.23 473.36C1243.23 476.784 1245.7 478.288 1248.8 478.288ZM1249.06 476.176C1246.72 476.176 1245.89 475.088 1245.89 473.36C1245.89 470.896 1248.35 470.064 1251.71 470.064H1254.02V472.144C1254.02 474.736 1251.87 476.176 1249.06 476.176ZM1261.89 478H1264.55V467.856C1264.55 464.848 1266.76 463.28 1269.22 463.28C1271.91 463.28 1273.16 464.592 1273.16 467.536V478H1275.81V467.728C1275.81 462.864 1273.38 460.976 1269.92 460.976C1267.17 460.976 1265.32 462.352 1264.55 463.92V461.264H1261.89V478ZM1287.32 478.288C1289.75 478.288 1292.09 476.752 1293.05 475.12V478H1295.7V453.264H1293.05V463.952C1292.09 462.32 1290.36 460.976 1287.58 460.976C1282.97 460.976 1279.77 464.592 1279.77 469.712V469.968C1279.77 475.184 1282.94 478.288 1287.32 478.288ZM1287.61 476.08C1284.79 476.08 1282.52 474.064 1282.52 469.84V469.584C1282.52 465.52 1284.5 463.184 1287.83 463.184C1291.1 463.184 1293.14 465.2 1293.14 469.488V469.744C1293.14 474.032 1290.71 476.08 1287.61 476.08ZM1313.74 478.288C1316.2 478.288 1317.71 477.456 1318.96 475.888V478H1321.61V466.96C1321.61 462.288 1318.7 460.976 1315.5 460.976C1312.27 460.976 1309.23 462.384 1308.88 466.192H1311.53C1311.79 464.144 1313.07 463.184 1315.37 463.184C1317.93 463.184 1318.96 464.304 1318.96 466.96V468.176H1316.56C1312.27 468.176 1308.17 469.488 1308.17 473.36C1308.17 476.784 1310.64 478.288 1313.74 478.288ZM1314 476.176C1311.66 476.176 1310.83 475.088 1310.83 473.36C1310.83 470.896 1313.29 470.064 1316.65 470.064H1318.96V472.144C1318.96 474.736 1316.81 476.176 1314 476.176ZM1326.83 478H1329.48V468.816C1329.48 464.688 1331.63 463.632 1334.99 463.472V460.976C1331.98 461.072 1330.54 462.384 1329.48 464.272V461.264H1326.83V478ZM1345.24 478.288C1349.02 478.288 1351.8 476.528 1352.38 473.168H1349.72C1349.37 475.12 1347.86 476.08 1345.27 476.08C1341.85 476.08 1340.02 473.968 1339.9 470.16H1352.5V469.296C1352.5 463.312 1348.86 460.976 1344.98 460.976C1340.38 460.976 1337.14 464.496 1337.14 469.552V469.808C1337.14 474.96 1340.5 478.288 1345.24 478.288ZM1339.99 468.016C1340.44 465.04 1342.26 463.184 1344.98 463.184C1347.74 463.184 1349.53 464.56 1349.78 468.016H1339.99ZM888.273 526.288C892.305 526.288 895.217 523.6 895.569 519.984H893.105C892.817 522.704 890.673 524.08 888.305 524.08C885.073 524.08 882.833 521.904 882.833 517.808V517.552C882.833 513.616 885.169 511.184 888.209 511.184C890.513 511.184 892.433 512.176 892.849 514.832H895.473C894.961 510.576 891.697 508.976 888.209 508.976C883.729 508.976 880.081 512.432 880.081 517.552V517.808C880.081 522.992 883.601 526.288 888.273 526.288ZM899.579 526H902.235V516.816C902.235 512.688 904.379 511.632 907.739 511.472V508.976C904.731 509.072 903.291 510.384 902.235 512.272V509.264H899.579V526ZM917.274 526.288C919.962 526.288 921.818 524.912 922.586 523.344V526H925.242V509.264H922.586V519.408C922.586 522.416 920.346 523.984 917.978 523.984C915.354 523.984 914.106 522.672 914.106 519.728V509.264H911.45V519.856C911.45 524.464 913.946 526.288 917.274 526.288ZM937.554 526.288C941.586 526.288 944.498 523.6 944.85 519.984H942.386C942.098 522.704 939.954 524.08 937.586 524.08C934.354 524.08 932.114 521.904 932.114 517.808V517.552C932.114 513.616 934.45 511.184 937.49 511.184C939.794 511.184 941.714 512.176 942.13 514.832H944.754C944.242 510.576 940.978 508.976 937.49 508.976C933.01 508.976 929.362 512.432 929.362 517.552V517.808C929.362 522.992 932.882 526.288 937.554 526.288ZM948.924 526H951.58V509.264H948.924V526ZM950.204 505.776C951.164 505.776 951.964 504.976 951.964 504.016C951.964 503.056 951.164 502.256 950.204 502.256C949.244 502.256 948.444 503.056 948.444 504.016C948.444 504.976 949.244 505.776 950.204 505.776ZM961.208 526.288C963.672 526.288 965.176 525.456 966.424 523.888V526H969.08V514.96C969.08 510.288 966.168 508.976 962.968 508.976C959.736 508.976 956.696 510.384 956.344 514.192H959C959.256 512.144 960.536 511.184 962.84 511.184C965.4 511.184 966.424 512.304 966.424 514.96V516.176H964.024C959.736 516.176 955.64 517.488 955.64 521.36C955.64 524.784 958.104 526.288 961.208 526.288ZM961.464 524.176C959.128 524.176 958.296 523.088 958.296 521.36C958.296 518.896 960.76 518.064 964.12 518.064H966.424V520.144C966.424 522.736 964.28 524.176 961.464 524.176ZM974.361 526H977.049V501.264H974.361V526ZM996.042 526.224C997.13 526.224 997.77 526.064 998.314 525.872V523.632C997.738 523.856 997.098 523.984 996.266 523.984C994.922 523.984 994.186 523.184 994.186 521.552V511.504H998.09V509.264H994.186V505.456H991.53V509.264H989.13V511.504H991.53V521.808C991.53 524.432 993.002 526.224 996.042 526.224ZM1009.3 524.08C1005.91 524.08 1003.83 521.584 1003.83 517.776V517.52C1003.83 513.68 1005.94 511.184 1009.3 511.184C1012.63 511.184 1014.78 513.68 1014.78 517.552V517.776C1014.78 521.552 1012.66 524.08 1009.3 524.08ZM1009.27 526.288C1014.04 526.288 1017.53 522.8 1017.53 517.744V517.488C1017.53 512.464 1014.04 508.976 1009.3 508.976C1004.57 508.976 1001.08 512.496 1001.08 517.52V517.776C1001.08 522.672 1004.5 526.288 1009.27 526.288ZM1035.2 526.224C1036.29 526.224 1036.93 526.064 1037.47 525.872V523.632C1036.89 523.856 1036.25 523.984 1035.42 523.984C1034.08 523.984 1033.34 523.184 1033.34 521.552V511.504H1037.25V509.264H1033.34V505.456H1030.69V509.264H1028.29V511.504H1030.69V521.808C1030.69 524.432 1032.16 526.224 1035.2 526.224ZM1041.48 526H1044.14V515.856C1044.14 512.848 1046.35 511.28 1048.81 511.28C1051.5 511.28 1052.75 512.592 1052.75 515.536V526H1055.4V515.728C1055.4 510.864 1052.97 508.976 1049.52 508.976C1046.76 508.976 1044.91 510.352 1044.14 511.92V501.264H1041.48V526ZM1067.46 526.288C1071.23 526.288 1074.02 524.528 1074.59 521.168H1071.94C1071.59 523.12 1070.08 524.08 1067.49 524.08C1064.07 524.08 1062.24 521.968 1062.11 518.16H1074.72V517.296C1074.72 511.312 1071.07 508.976 1067.2 508.976C1062.59 508.976 1059.36 512.496 1059.36 517.552V517.808C1059.36 522.96 1062.72 526.288 1067.46 526.288ZM1062.21 516.016C1062.66 513.04 1064.48 511.184 1067.2 511.184C1069.95 511.184 1071.75 512.56 1072 516.016H1062.21ZM1078.86 526H1081.52V509.264H1078.86V526ZM1080.14 505.776C1081.1 505.776 1081.9 504.976 1081.9 504.016C1081.9 503.056 1081.1 502.256 1080.14 502.256C1079.18 502.256 1078.38 503.056 1078.38 504.016C1078.38 504.976 1079.18 505.776 1080.14 505.776ZM1086.95 526H1089.61V516.816C1089.61 512.688 1091.75 511.632 1095.11 511.472V508.976C1092.11 509.072 1090.67 510.384 1089.61 512.272V509.264H1086.95V526ZM1111.65 526.288C1114.11 526.288 1115.61 525.456 1116.86 523.888V526H1119.52V514.96C1119.52 510.288 1116.61 508.976 1113.41 508.976C1110.17 508.976 1107.13 510.384 1106.78 514.192H1109.44C1109.69 512.144 1110.97 511.184 1113.28 511.184C1115.84 511.184 1116.86 512.304 1116.86 514.96V516.176H1114.46C1110.17 516.176 1106.08 517.488 1106.08 521.36C1106.08 524.784 1108.54 526.288 1111.65 526.288ZM1111.9 524.176C1109.57 524.176 1108.73 523.088 1108.73 521.36C1108.73 518.896 1111.2 518.064 1114.56 518.064H1116.86V520.144C1116.86 522.736 1114.72 524.176 1111.9 524.176ZM1131.68 526.288C1135.71 526.288 1138.62 523.6 1138.97 519.984H1136.51C1136.22 522.704 1134.08 524.08 1131.71 524.08C1128.48 524.08 1126.24 521.904 1126.24 517.808V517.552C1126.24 513.616 1128.57 511.184 1131.61 511.184C1133.92 511.184 1135.84 512.176 1136.25 514.832H1138.88C1138.37 510.576 1135.1 508.976 1131.61 508.976C1127.13 508.976 1123.49 512.432 1123.49 517.552V517.808C1123.49 522.992 1127.01 526.288 1131.68 526.288ZM1149.93 526.288C1153.96 526.288 1156.87 523.6 1157.22 519.984H1154.76C1154.47 522.704 1152.33 524.08 1149.96 524.08C1146.73 524.08 1144.49 521.904 1144.49 517.808V517.552C1144.49 513.616 1146.82 511.184 1149.86 511.184C1152.17 511.184 1154.09 512.176 1154.5 514.832H1157.13C1156.62 510.576 1153.35 508.976 1149.86 508.976C1145.38 508.976 1141.74 512.432 1141.74 517.552V517.808C1141.74 522.992 1145.26 526.288 1149.93 526.288ZM1168.21 524.08C1164.82 524.08 1162.74 521.584 1162.74 517.776V517.52C1162.74 513.68 1164.85 511.184 1168.21 511.184C1171.54 511.184 1173.68 513.68 1173.68 517.552V517.776C1173.68 521.552 1171.57 524.08 1168.21 524.08ZM1168.18 526.288C1172.95 526.288 1176.43 522.8 1176.43 517.744V517.488C1176.43 512.464 1172.95 508.976 1168.21 508.976C1163.47 508.976 1159.99 512.496 1159.99 517.52V517.776C1159.99 522.672 1163.41 526.288 1168.18 526.288ZM1186.21 526.288C1188.9 526.288 1190.76 524.912 1191.52 523.344V526H1194.18V509.264H1191.52V519.408C1191.52 522.416 1189.28 523.984 1186.92 523.984C1184.29 523.984 1183.04 522.672 1183.04 519.728V509.264H1180.39V519.856C1180.39 524.464 1182.88 526.288 1186.21 526.288ZM1199.55 526H1202.2V515.856C1202.2 512.848 1204.41 511.28 1206.88 511.28C1209.56 511.28 1210.81 512.592 1210.81 515.536V526H1213.47V515.728C1213.47 510.864 1211.04 508.976 1207.58 508.976C1204.83 508.976 1202.97 510.352 1202.2 511.92V509.264H1199.55V526ZM1223.76 526.224C1224.85 526.224 1225.49 526.064 1226.03 525.872V523.632C1225.46 523.856 1224.82 523.984 1223.98 523.984C1222.64 523.984 1221.9 523.184 1221.9 521.552V511.504H1225.81V509.264H1221.9V505.456H1219.25V509.264H1216.85V511.504H1219.25V521.808C1219.25 524.432 1220.72 526.224 1223.76 526.224Z" fill="#4F4F4F"/>
<rect x="803" y="149" width="500" height="90" rx="4" fill="#F2F2F2"/>
<rect x="827" y="173" width="193" height="15" rx="4" fill="#BDBDBD"/>
<rect x="1171" y="173" width="111" height="15" rx="4" fill="#006FCF"/>
<rect x="827" y="203" width="270" height="15" rx="4" fill="#BDBDBD"/>
</svg>
