<svg width="1442" height="8" viewBox="0 0 1442 8" fill="none" xmlns="http://www.w3.org/2000/svg">
<path d="M1 3.88C7 0.04 13 0.04 19 3.88C25 7.72 31 7.72 37 3.88C43 0.04 49 0.04 55 3.88C61 7.72 67 7.72 73 3.88C79 0.04 85 0.04 91 3.88C97 7.72 103 7.72 109 3.88C115 0.04 121 0.04 127 3.88C133 7.72 139 7.72 145 3.88C151 0.04 157 0.04 163 3.88C169 7.72 175 7.72 181 3.88C187 0.04 193 0.04 199 3.88C205 7.72 211 7.72 217 3.88C223 0.04 229 0.04 235 3.88C241 7.72 247 7.72 253 3.88C259 0.04 265 0.04 271 3.88C277 7.72 283 7.72 289 3.88C295 0.04 301 0.04 307 3.88C313 7.72 319 7.72 325 3.88C331 0.04 337 0.04 343 3.88C349 7.72 355 7.72 361 3.88C367 0.04 373 0.04 379 3.88C385 7.72 391 7.72 397 3.88C403 0.04 409 0.04 415 3.88C421 7.72 427 7.72 433 3.88C439 0.04 445 0.04 451 3.88C457 7.72 463 7.72 469 3.88C475 0.04 481 0.04 487 3.88C493 7.72 499 7.72 505 3.88C511 0.04 517 0.04 523 3.88C529 7.72 535 7.72 541 3.88C547 0.04 553 0.04 559 3.88C565 7.72 571 7.72 577 3.88C583 0.04 589 0.04 595 3.88C601 7.72 607 7.72 613 3.88C619 0.04 625 0.04 631 3.88C637 7.72 643 7.72 649 3.88C655 0.04 661 0.04 667 3.88C673 7.72 679 7.72 685 3.88C691 0.04 697 0.04 703 3.88C709 7.72 715 7.72 721 3.88C727 0.04 733 0.04 739 3.88C745 7.72 751 7.72 757 3.88C763 0.04 769 0.04 775 3.88C781 7.72 787 7.72 793 3.88C799 0.04 805 0.04 811 3.88C817 7.72 823 7.72 829 3.88C835 0.04 841 0.04 847 3.88C853 7.72 859 7.72 865 3.88C871 0.04 877 0.04 883 3.88C889 7.72 895 7.72 901 3.88C907 0.04 913 0.04 919 3.88C925 7.72 931 7.72 937 3.88C943 0.04 949 0.04 955 3.88C961 7.72 967 7.72 973 3.88C979 0.04 985 0.04 991 3.88C997 7.72 1003 7.72 1009 3.88C1015 0.04 1021 0.04 1027 3.88C1033 7.72 1039 7.72 1045 3.88C1051 0.04 1057 0.04 1063 3.88C1069 7.72 1075 7.72 1081 3.88C1087 0.04 1093 0.04 1099 3.88C1105 7.72 1111 7.72 1117 3.88C1123 0.04 1129 0.04 1135 3.88C1141 7.72 1147 7.72 1153 3.88C1159 0.04 1165 0.04 1171 3.88C1177 7.72 1183 7.72 1189 3.88C1195 0.04 1201 0.04 1207 3.88C1213 7.72 1219 7.72 1225 3.88C1231 0.04 1237 0.04 1243 3.88C1249 7.72 1255 7.72 1261 3.88C1267 0.04 1273 0.04 1279 3.88C1285 7.72 1291 7.72 1297 3.88C1303 0.04 1309 0.04 1315 3.88C1321 7.72 1327 7.72 1333 3.88C1339 0.04 1345 0.04 1351 3.88C1357 7.72 1363 7.72 1369 3.88C1375 0.04 1381 0.04 1387 3.88C1393 7.72 1399 7.72 1405 3.88C1411 0.04 1417 0.04 1423 3.88C1429 7.72 1435 7.72 1441 3.88" stroke="#EBEBEB" stroke-width="2"/>
</svg>
