<svg width="1225" height="330" viewBox="0 0 1225 330" fill="none" xmlns="http://www.w3.org/2000/svg">
<rect x="279.499" y="117.229" width="194.218" height="92.3838" rx="14.5467" fill="white"/>
<path d="M312.599 156.147C311.63 156.147 310.781 155.978 310.051 155.638C309.322 155.298 308.749 154.814 308.334 154.185C307.932 153.556 307.724 152.807 307.711 151.939H309.825C309.838 152.644 310.083 153.241 310.561 153.732C311.039 154.222 311.712 154.468 312.58 154.468C313.348 154.468 313.945 154.285 314.373 153.921C314.813 153.543 315.034 153.065 315.034 152.486C315.034 152.021 314.927 151.643 314.713 151.354C314.511 151.065 314.228 150.826 313.864 150.637C313.511 150.448 313.102 150.278 312.637 150.127C312.171 149.976 311.681 149.813 311.165 149.637C310.146 149.297 309.378 148.857 308.863 148.316C308.359 147.775 308.108 147.064 308.108 146.183C308.095 145.441 308.265 144.793 308.617 144.24C308.982 143.686 309.485 143.258 310.127 142.956C310.781 142.642 311.542 142.484 312.41 142.484C313.266 142.484 314.014 142.642 314.656 142.956C315.31 143.271 315.82 143.711 316.185 144.277C316.55 144.831 316.738 145.479 316.751 146.221H314.637C314.637 145.881 314.549 145.561 314.373 145.259C314.197 144.944 313.939 144.686 313.599 144.485C313.26 144.284 312.844 144.183 312.354 144.183C311.725 144.17 311.203 144.328 310.787 144.655C310.385 144.982 310.184 145.435 310.184 146.013C310.184 146.529 310.335 146.926 310.637 147.202C310.938 147.479 311.354 147.712 311.882 147.901C312.41 148.077 313.014 148.284 313.694 148.523C314.348 148.737 314.933 148.995 315.449 149.297C315.965 149.599 316.373 149.995 316.675 150.486C316.99 150.977 317.147 151.599 317.147 152.354C317.147 153.021 316.977 153.644 316.638 154.222C316.298 154.789 315.788 155.254 315.109 155.619C314.43 155.971 313.593 156.147 312.599 156.147ZM323.637 156.147C322.718 156.147 321.901 155.946 321.184 155.543C320.479 155.128 319.925 154.556 319.523 153.826C319.12 153.096 318.919 152.247 318.919 151.279C318.919 150.297 319.114 149.435 319.504 148.693C319.907 147.951 320.46 147.372 321.165 146.957C321.882 146.542 322.712 146.334 323.656 146.334C324.574 146.334 325.373 146.542 326.052 146.957C326.732 147.36 327.26 147.901 327.638 148.58C328.015 149.259 328.204 150.008 328.204 150.826C328.204 150.951 328.197 151.09 328.185 151.241C328.185 151.379 328.179 151.536 328.166 151.713H320.882C320.944 152.618 321.24 153.31 321.769 153.788C322.31 154.254 322.932 154.487 323.637 154.487C324.203 154.487 324.675 154.361 325.052 154.109C325.442 153.845 325.732 153.493 325.92 153.052H327.921C327.669 153.933 327.166 154.669 326.411 155.26C325.669 155.852 324.744 156.147 323.637 156.147ZM323.637 147.976C322.97 147.976 322.379 148.177 321.863 148.58C321.347 148.97 321.033 149.561 320.919 150.354H326.203C326.166 149.624 325.908 149.045 325.43 148.618C324.952 148.19 324.354 147.976 323.637 147.976ZM334.657 156.147C333.739 156.147 332.921 155.946 332.204 155.543C331.5 155.128 330.946 154.556 330.543 153.826C330.141 153.096 329.94 152.247 329.94 151.279C329.94 150.297 330.135 149.435 330.525 148.693C330.927 147.951 331.481 147.372 332.185 146.957C332.902 146.542 333.733 146.334 334.676 146.334C335.595 146.334 336.394 146.542 337.073 146.957C337.752 147.36 338.281 147.901 338.658 148.58C339.036 149.259 339.224 150.008 339.224 150.826C339.224 150.951 339.218 151.09 339.205 151.241C339.205 151.379 339.199 151.536 339.187 151.713H331.902C331.965 152.618 332.261 153.31 332.789 153.788C333.33 154.254 333.953 154.487 334.657 154.487C335.224 154.487 335.695 154.361 336.073 154.109C336.463 153.845 336.752 153.493 336.941 153.052H338.941C338.69 153.933 338.186 154.669 337.431 155.26C336.689 155.852 335.765 156.147 334.657 156.147ZM334.657 147.976C333.991 147.976 333.399 148.177 332.883 148.58C332.368 148.97 332.053 149.561 331.94 150.354H337.224C337.186 149.624 336.928 149.045 336.45 148.618C335.972 148.19 335.375 147.976 334.657 147.976ZM349.791 156.147C348.608 156.147 347.633 155.858 346.866 155.279C346.099 154.701 345.658 153.933 345.545 152.977H347.564C347.665 153.405 347.904 153.776 348.281 154.09C348.659 154.392 349.156 154.543 349.772 154.543C350.376 154.543 350.816 154.417 351.093 154.166C351.37 153.914 351.508 153.625 351.508 153.298C351.508 152.82 351.313 152.499 350.923 152.335C350.546 152.159 350.018 152.002 349.338 151.864C348.81 151.75 348.281 151.599 347.753 151.411C347.237 151.222 346.803 150.958 346.451 150.618C346.111 150.266 345.941 149.794 345.941 149.203C345.941 148.385 346.256 147.706 346.885 147.165C347.514 146.611 348.395 146.334 349.527 146.334C350.571 146.334 351.414 146.586 352.056 147.089C352.71 147.592 353.094 148.303 353.207 149.222H351.282C351.219 148.819 351.03 148.504 350.716 148.278C350.414 148.052 350.005 147.938 349.489 147.938C348.986 147.938 348.596 148.045 348.319 148.259C348.042 148.46 347.904 148.725 347.904 149.052C347.904 149.379 348.093 149.637 348.47 149.825C348.86 150.014 349.37 150.184 349.999 150.335C350.628 150.473 351.206 150.637 351.735 150.826C352.276 151.002 352.71 151.266 353.037 151.618C353.364 151.97 353.528 152.486 353.528 153.166C353.54 154.021 353.207 154.732 352.527 155.298C351.861 155.864 350.948 156.147 349.791 156.147ZM359.165 156.147C358.033 156.147 357.139 155.795 356.485 155.091C355.843 154.386 355.523 153.336 355.523 151.939V146.561H357.523V151.731C357.523 153.543 358.265 154.449 359.75 154.449C360.492 154.449 361.102 154.185 361.58 153.656C362.058 153.128 362.297 152.373 362.297 151.392V146.561H364.298V155.921H362.524L362.373 154.279C362.084 154.858 361.656 155.317 361.09 155.657C360.536 155.984 359.895 156.147 359.165 156.147ZM370.579 156.147C369.396 156.147 368.421 155.858 367.654 155.279C366.887 154.701 366.446 153.933 366.333 152.977H368.352C368.453 153.405 368.692 153.776 369.069 154.09C369.447 154.392 369.944 154.543 370.56 154.543C371.164 154.543 371.604 154.417 371.881 154.166C372.158 153.914 372.296 153.625 372.296 153.298C372.296 152.82 372.101 152.499 371.711 152.335C371.334 152.159 370.806 152.002 370.126 151.864C369.598 151.75 369.069 151.599 368.541 151.411C368.025 151.222 367.591 150.958 367.239 150.618C366.899 150.266 366.729 149.794 366.729 149.203C366.729 148.385 367.044 147.706 367.673 147.165C368.302 146.611 369.183 146.334 370.315 146.334C371.359 146.334 372.202 146.586 372.844 147.089C373.498 147.592 373.882 148.303 373.995 149.222H372.07C372.007 148.819 371.818 148.504 371.504 148.278C371.202 148.052 370.793 147.938 370.277 147.938C369.774 147.938 369.384 148.045 369.107 148.259C368.83 148.46 368.692 148.725 368.692 149.052C368.692 149.379 368.881 149.637 369.258 149.825C369.648 150.014 370.158 150.184 370.787 150.335C371.416 150.473 371.994 150.637 372.523 150.826C373.064 151.002 373.498 151.266 373.825 151.618C374.152 151.97 374.316 152.486 374.316 153.166C374.328 154.021 373.995 154.732 373.315 155.298C372.649 155.864 371.736 156.147 370.579 156.147ZM376.499 160.073V146.561H378.292L378.5 148.014C378.802 147.573 379.217 147.183 379.745 146.844C380.274 146.504 380.953 146.334 381.783 146.334C382.689 146.334 383.488 146.548 384.18 146.976C384.872 147.404 385.413 147.989 385.803 148.731C386.206 149.473 386.407 150.316 386.407 151.26C386.407 152.203 386.206 153.046 385.803 153.788C385.413 154.518 384.872 155.097 384.18 155.525C383.488 155.94 382.683 156.147 381.764 156.147C381.035 156.147 380.387 156.003 379.821 155.713C379.267 155.424 378.827 155.015 378.5 154.487V160.073H376.499ZM381.425 154.411C382.28 154.411 382.985 154.122 383.538 153.543C384.092 152.952 384.369 152.184 384.369 151.241C384.369 150.624 384.243 150.077 383.991 149.599C383.74 149.121 383.394 148.75 382.953 148.486C382.513 148.209 382.003 148.07 381.425 148.07C380.569 148.07 379.865 148.366 379.311 148.957C378.77 149.549 378.5 150.31 378.5 151.241C378.5 152.184 378.77 152.952 379.311 153.543C379.865 154.122 380.569 154.411 381.425 154.411ZM392.949 156.147C392.03 156.147 391.212 155.946 390.495 155.543C389.791 155.128 389.237 154.556 388.835 153.826C388.432 153.096 388.231 152.247 388.231 151.279C388.231 150.297 388.426 149.435 388.816 148.693C389.218 147.951 389.772 147.372 390.476 146.957C391.194 146.542 392.024 146.334 392.967 146.334C393.886 146.334 394.685 146.542 395.364 146.957C396.043 147.36 396.572 147.901 396.949 148.58C397.327 149.259 397.515 150.008 397.515 150.826C397.515 150.951 397.509 151.09 397.497 151.241C397.497 151.379 397.49 151.536 397.478 151.713H390.193C390.256 152.618 390.552 153.31 391.08 153.788C391.621 154.254 392.244 154.487 392.949 154.487C393.515 154.487 393.986 154.361 394.364 154.109C394.754 153.845 395.043 153.493 395.232 153.052H397.232C396.981 153.933 396.477 154.669 395.723 155.26C394.98 155.852 394.056 156.147 392.949 156.147ZM392.949 147.976C392.282 147.976 391.69 148.177 391.175 148.58C390.659 148.97 390.344 149.561 390.231 150.354H395.515C395.477 149.624 395.219 149.045 394.741 148.618C394.263 148.19 393.666 147.976 392.949 147.976ZM399.591 155.921V146.561H401.365L401.516 148.203C401.805 147.624 402.227 147.171 402.78 146.844C403.346 146.504 403.994 146.334 404.724 146.334C405.856 146.334 406.743 146.687 407.385 147.391C408.039 148.096 408.366 149.146 408.366 150.543V155.921H406.385V150.75C406.385 148.938 405.642 148.033 404.158 148.033C403.416 148.033 402.799 148.297 402.308 148.825C401.83 149.354 401.591 150.109 401.591 151.09V155.921H399.591ZM414.459 156.147C413.276 156.147 412.301 155.858 411.534 155.279C410.766 154.701 410.326 153.933 410.213 152.977H412.232C412.332 153.405 412.572 153.776 412.949 154.09C413.326 154.392 413.823 154.543 414.44 154.543C415.044 154.543 415.484 154.417 415.761 154.166C416.038 153.914 416.176 153.625 416.176 153.298C416.176 152.82 415.981 152.499 415.591 152.335C415.214 152.159 414.685 152.002 414.006 151.864C413.477 151.75 412.949 151.599 412.421 151.411C411.905 151.222 411.471 150.958 411.118 150.618C410.779 150.266 410.609 149.794 410.609 149.203C410.609 148.385 410.923 147.706 411.552 147.165C412.182 146.611 413.062 146.334 414.194 146.334C415.239 146.334 416.082 146.586 416.723 147.089C417.377 147.592 417.761 148.303 417.874 149.222H415.949C415.887 148.819 415.698 148.504 415.383 148.278C415.081 148.052 414.673 147.938 414.157 147.938C413.653 147.938 413.263 148.045 412.987 148.259C412.71 148.46 412.572 148.725 412.572 149.052C412.572 149.379 412.76 149.637 413.138 149.825C413.528 150.014 414.037 150.184 414.666 150.335C415.295 150.473 415.874 150.637 416.402 150.826C416.943 151.002 417.377 151.266 417.705 151.618C418.032 151.97 418.195 152.486 418.195 153.166C418.208 154.021 417.874 154.732 417.195 155.298C416.528 155.864 415.616 156.147 414.459 156.147ZM421.511 144.787C421.134 144.787 420.819 144.674 420.568 144.447C420.329 144.208 420.209 143.912 420.209 143.56C420.209 143.208 420.329 142.919 420.568 142.692C420.819 142.453 421.134 142.334 421.511 142.334C421.889 142.334 422.197 142.453 422.436 142.692C422.688 142.919 422.813 143.208 422.813 143.56C422.813 143.912 422.688 144.208 422.436 144.447C422.197 144.674 421.889 144.787 421.511 144.787ZM420.511 155.921V146.561H422.511V155.921H420.511ZM429.53 156.147C428.637 156.147 427.832 155.946 427.115 155.543C426.41 155.128 425.85 154.556 425.435 153.826C425.02 153.084 424.812 152.222 424.812 151.241C424.812 150.259 425.02 149.404 425.435 148.674C425.863 147.932 426.435 147.36 427.152 146.957C427.87 146.542 428.668 146.334 429.549 146.334C430.442 146.334 431.241 146.542 431.946 146.957C432.663 147.36 433.229 147.932 433.644 148.674C434.072 149.404 434.286 150.259 434.286 151.241C434.286 152.222 434.072 153.084 433.644 153.826C433.229 154.556 432.663 155.128 431.946 155.543C431.229 155.946 430.423 156.147 429.53 156.147ZM429.53 154.43C430.008 154.43 430.449 154.311 430.851 154.072C431.266 153.832 431.6 153.48 431.851 153.015C432.103 152.537 432.229 151.945 432.229 151.241C432.229 150.536 432.103 149.951 431.851 149.486C431.612 149.008 431.285 148.649 430.87 148.41C430.468 148.171 430.027 148.052 429.549 148.052C429.071 148.052 428.624 148.171 428.209 148.41C427.807 148.649 427.48 149.008 427.228 149.486C426.976 149.951 426.851 150.536 426.851 151.241C426.851 151.945 426.976 152.537 427.228 153.015C427.48 153.48 427.807 153.832 428.209 154.072C428.612 154.311 429.052 154.43 429.53 154.43ZM436.449 155.921V146.561H438.223L438.374 148.203C438.663 147.624 439.085 147.171 439.638 146.844C440.205 146.504 440.852 146.334 441.582 146.334C442.714 146.334 443.601 146.687 444.243 147.391C444.897 148.096 445.224 149.146 445.224 150.543V155.921H443.243V150.75C443.243 148.938 442.501 148.033 441.016 148.033C440.274 148.033 439.657 148.297 439.167 148.825C438.689 149.354 438.449 150.109 438.449 151.09V155.921H436.449ZM353.753 184.147C352.571 184.147 351.596 183.858 350.828 183.279C350.061 182.701 349.62 181.933 349.507 180.977H351.526C351.627 181.405 351.866 181.776 352.244 182.09C352.621 182.392 353.118 182.543 353.734 182.543C354.338 182.543 354.779 182.417 355.055 182.166C355.332 181.914 355.471 181.625 355.471 181.298C355.471 180.82 355.276 180.499 354.886 180.335C354.508 180.159 353.98 180.002 353.3 179.864C352.772 179.75 352.244 179.599 351.715 179.411C351.199 179.222 350.765 178.958 350.413 178.618C350.073 178.266 349.904 177.794 349.904 177.203C349.904 176.385 350.218 175.706 350.847 175.165C351.476 174.611 352.357 174.334 353.489 174.334C354.533 174.334 355.376 174.586 356.018 175.089C356.672 175.592 357.056 176.303 357.169 177.222H355.244C355.181 176.819 354.993 176.504 354.678 176.278C354.376 176.052 353.967 175.938 353.451 175.938C352.948 175.938 352.558 176.045 352.281 176.259C352.005 176.46 351.866 176.725 351.866 177.052C351.866 177.379 352.055 177.637 352.432 177.825C352.822 178.014 353.332 178.184 353.961 178.335C354.59 178.473 355.169 178.637 355.697 178.826C356.238 179.002 356.672 179.266 356.999 179.618C357.326 179.97 357.49 180.486 357.49 181.166C357.502 182.021 357.169 182.732 356.49 183.298C355.823 183.864 354.911 184.147 353.753 184.147ZM363.249 183.921C362.33 183.921 361.601 183.701 361.06 183.26C360.519 182.807 360.248 182.009 360.248 180.864V176.24H358.644V174.561H360.248L360.493 172.183H362.249V174.561H364.891V176.24H362.249V180.864C362.249 181.38 362.355 181.738 362.569 181.939C362.796 182.128 363.18 182.222 363.72 182.222H364.796V183.921H363.249ZM370.123 184.147C369.331 184.147 368.677 184.015 368.161 183.751C367.645 183.487 367.261 183.141 367.01 182.713C366.758 182.273 366.632 181.795 366.632 181.279C366.632 180.373 366.985 179.656 367.689 179.128C368.394 178.599 369.4 178.335 370.708 178.335H373.162V178.165C373.162 177.435 372.96 176.888 372.558 176.523C372.168 176.158 371.658 175.976 371.029 175.976C370.476 175.976 369.991 176.114 369.576 176.391C369.174 176.655 368.928 177.052 368.84 177.58H366.84C366.903 176.901 367.129 176.322 367.519 175.844C367.922 175.353 368.425 174.982 369.029 174.731C369.645 174.466 370.318 174.334 371.048 174.334C372.357 174.334 373.369 174.68 374.086 175.372C374.804 176.052 375.162 176.983 375.162 178.165V183.921H373.426L373.256 182.317C372.992 182.833 372.608 183.267 372.105 183.619C371.602 183.971 370.941 184.147 370.123 184.147ZM370.52 182.524C371.061 182.524 371.514 182.399 371.879 182.147C372.256 181.883 372.545 181.537 372.747 181.109C372.96 180.681 373.093 180.21 373.143 179.694H370.916C370.123 179.694 369.557 179.832 369.218 180.109C368.891 180.386 368.727 180.732 368.727 181.147C368.727 181.575 368.884 181.914 369.199 182.166C369.526 182.405 369.966 182.524 370.52 182.524ZM381.235 183.921C380.317 183.921 379.587 183.701 379.046 183.26C378.505 182.807 378.235 182.009 378.235 180.864V176.24H376.631V174.561H378.235L378.48 172.183H380.235V174.561H382.877V176.24H380.235V180.864C380.235 181.38 380.342 181.738 380.556 181.939C380.783 182.128 381.166 182.222 381.707 182.222H382.783V183.921H381.235ZM388.393 184.147C387.261 184.147 386.368 183.795 385.714 183.091C385.072 182.386 384.751 181.336 384.751 179.939V174.561H386.752V179.731C386.752 181.543 387.494 182.449 388.978 182.449C389.721 182.449 390.331 182.185 390.809 181.656C391.287 181.128 391.526 180.373 391.526 179.392V174.561H393.526V183.921H391.752L391.601 182.279C391.312 182.858 390.884 183.317 390.318 183.657C389.765 183.984 389.123 184.147 388.393 184.147ZM399.808 184.147C398.625 184.147 397.65 183.858 396.882 183.279C396.115 182.701 395.675 181.933 395.561 180.977H397.581C397.681 181.405 397.92 181.776 398.298 182.09C398.675 182.392 399.172 182.543 399.789 182.543C400.393 182.543 400.833 182.417 401.11 182.166C401.386 181.914 401.525 181.625 401.525 181.298C401.525 180.82 401.33 180.499 400.94 180.335C400.562 180.159 400.034 180.002 399.355 179.864C398.826 179.75 398.298 179.599 397.769 179.411C397.254 179.222 396.82 178.958 396.467 178.618C396.128 178.266 395.958 177.794 395.958 177.203C395.958 176.385 396.272 175.706 396.901 175.165C397.53 174.611 398.411 174.334 399.543 174.334C400.588 174.334 401.43 174.586 402.072 175.089C402.726 175.592 403.11 176.303 403.223 177.222H401.298C401.235 176.819 401.047 176.504 400.732 176.278C400.43 176.052 400.021 175.938 399.506 175.938C399.002 175.938 398.612 176.045 398.336 176.259C398.059 176.46 397.92 176.725 397.92 177.052C397.92 177.379 398.109 177.637 398.487 177.825C398.877 178.014 399.386 178.184 400.015 178.335C400.644 178.473 401.223 178.637 401.751 178.826C402.292 179.002 402.726 179.266 403.053 179.618C403.381 179.97 403.544 180.486 403.544 181.166C403.557 182.021 403.223 182.732 402.544 183.298C401.877 183.864 400.965 184.147 399.808 184.147Z" fill="#333333"/>
<rect x="279.499" y="117.229" width="194.218" height="92.3838" rx="14.5467" stroke="#E0E0E0" stroke-width="2.35892"/>
<rect x="45.1795" y="117.229" width="194.218" height="92.3838" rx="14.5467" fill="white"/>
<path d="M79.9376 155.921V142.711H88.2221V144.334H81.938V148.504H87.1465V150.109H81.938V155.921H79.9376ZM92.5603 156.147C91.7677 156.147 91.1135 156.015 90.5977 155.751C90.0819 155.487 89.6982 155.141 89.4466 154.713C89.1949 154.273 89.0691 153.795 89.0691 153.279C89.0691 152.373 89.4214 151.656 90.1259 151.128C90.8305 150.599 91.8369 150.335 93.1453 150.335H95.5986V150.165C95.5986 149.435 95.3973 148.888 94.9947 148.523C94.6047 148.158 94.0952 147.976 93.4662 147.976C92.9126 147.976 92.4282 148.114 92.0131 148.391C91.6105 148.655 91.3651 149.052 91.2771 149.58H89.2767C89.3396 148.901 89.5661 148.322 89.9561 147.844C90.3587 147.353 90.8619 146.982 91.4658 146.731C92.0823 146.466 92.7553 146.334 93.485 146.334C94.7934 146.334 95.8062 146.68 96.5233 147.372C97.2404 148.052 97.599 148.983 97.599 150.165V155.921H95.8628L95.693 154.317C95.4288 154.833 95.0451 155.267 94.5418 155.619C94.0386 155.971 93.3781 156.147 92.5603 156.147ZM92.9566 154.524C93.4976 154.524 93.9505 154.399 94.3154 154.147C94.6928 153.883 94.9822 153.537 95.1834 153.109C95.3973 152.681 95.5294 152.21 95.5797 151.694H93.3529C92.5603 151.694 91.9942 151.832 91.6545 152.109C91.3274 152.386 91.1638 152.732 91.1638 153.147C91.1638 153.575 91.3211 153.914 91.6356 154.166C91.9627 154.405 92.4031 154.524 92.9566 154.524ZM101.064 144.787C100.686 144.787 100.372 144.674 100.12 144.447C99.881 144.208 99.7615 143.912 99.7615 143.56C99.7615 143.208 99.881 142.919 100.12 142.692C100.372 142.453 100.686 142.334 101.064 142.334C101.441 142.334 101.749 142.453 101.988 142.692C102.24 142.919 102.366 143.208 102.366 143.56C102.366 143.912 102.24 144.208 101.988 144.447C101.749 144.674 101.441 144.787 101.064 144.787ZM100.063 155.921V146.561H102.064V155.921H100.063ZM104.704 155.921V142.334H106.705V155.921H104.704ZM118.428 156.147C117.509 156.147 116.685 155.94 115.955 155.525C115.238 155.109 114.672 154.537 114.257 153.807C113.854 153.065 113.653 152.21 113.653 151.241C113.653 150.272 113.854 149.423 114.257 148.693C114.672 147.951 115.238 147.372 115.955 146.957C116.685 146.542 117.509 146.334 118.428 146.334C119.585 146.334 120.554 146.636 121.334 147.24C122.126 147.844 122.636 148.662 122.862 149.693H120.768C120.642 149.178 120.365 148.775 119.937 148.486C119.509 148.196 119.006 148.052 118.428 148.052C117.937 148.052 117.484 148.177 117.069 148.429C116.654 148.668 116.32 149.027 116.069 149.505C115.817 149.97 115.691 150.549 115.691 151.241C115.691 151.933 115.817 152.518 116.069 152.996C116.32 153.461 116.654 153.82 117.069 154.072C117.484 154.323 117.937 154.449 118.428 154.449C119.006 154.449 119.509 154.304 119.937 154.015C120.365 153.726 120.642 153.317 120.768 152.788H122.862C122.648 153.795 122.145 154.606 121.353 155.223C120.56 155.839 119.585 156.147 118.428 156.147ZM125.032 155.921V146.561H126.825L126.994 148.335C127.321 147.718 127.774 147.234 128.353 146.882C128.944 146.517 129.655 146.334 130.486 146.334V148.429H129.938C129.385 148.429 128.888 148.523 128.447 148.712C128.02 148.888 127.674 149.196 127.41 149.637C127.158 150.064 127.032 150.662 127.032 151.43V155.921H125.032ZM133.333 144.787C132.956 144.787 132.641 144.674 132.389 144.447C132.15 144.208 132.031 143.912 132.031 143.56C132.031 143.208 132.15 142.919 132.389 142.692C132.641 142.453 132.956 142.334 133.333 142.334C133.71 142.334 134.019 142.453 134.258 142.692C134.509 142.919 134.635 143.208 134.635 143.56C134.635 143.912 134.509 144.208 134.258 144.447C134.019 144.674 133.71 144.787 133.333 144.787ZM132.333 155.921V146.561H134.333V155.921H132.333ZM140.899 155.921C139.981 155.921 139.251 155.701 138.71 155.26C138.169 154.807 137.898 154.009 137.898 152.864V148.24H136.294V146.561H137.898L138.144 144.183H139.899V146.561H142.541V148.24H139.899V152.864C139.899 153.38 140.006 153.738 140.22 153.939C140.446 154.128 140.83 154.222 141.371 154.222H142.446V155.921H140.899ZM148.742 156.147C147.824 156.147 147.006 155.946 146.289 155.543C145.584 155.128 145.031 154.556 144.628 153.826C144.225 153.096 144.024 152.247 144.024 151.279C144.024 150.297 144.219 149.435 144.609 148.693C145.012 147.951 145.565 147.372 146.27 146.957C146.987 146.542 147.817 146.334 148.761 146.334C149.679 146.334 150.478 146.542 151.158 146.957C151.837 147.36 152.365 147.901 152.743 148.58C153.12 149.259 153.309 150.008 153.309 150.826C153.309 150.951 153.303 151.09 153.29 151.241C153.29 151.379 153.284 151.536 153.271 151.713H145.987C146.05 152.618 146.345 153.31 146.874 153.788C147.415 154.254 148.037 154.487 148.742 154.487C149.308 154.487 149.78 154.361 150.157 154.109C150.547 153.845 150.837 153.493 151.025 153.052H153.026C152.774 153.933 152.271 154.669 151.516 155.26C150.774 155.852 149.849 156.147 148.742 156.147ZM148.742 147.976C148.075 147.976 147.484 148.177 146.968 148.58C146.452 148.97 146.138 149.561 146.025 150.354H151.309C151.271 149.624 151.013 149.045 150.535 148.618C150.057 148.19 149.459 147.976 148.742 147.976ZM155.384 155.921V146.561H157.177L157.347 148.335C157.674 147.718 158.127 147.234 158.706 146.882C159.297 146.517 160.008 146.334 160.838 146.334V148.429H160.291C159.737 148.429 159.24 148.523 158.8 148.712C158.372 148.888 158.026 149.196 157.762 149.637C157.511 150.064 157.385 150.662 157.385 151.43V155.921H155.384ZM163.686 144.787C163.308 144.787 162.994 144.674 162.742 144.447C162.503 144.208 162.384 143.912 162.384 143.56C162.384 143.208 162.503 142.919 162.742 142.692C162.994 142.453 163.308 142.334 163.686 142.334C164.063 142.334 164.371 142.453 164.61 142.692C164.862 142.919 164.988 143.208 164.988 143.56C164.988 143.912 164.862 144.208 164.61 144.447C164.371 144.674 164.063 144.787 163.686 144.787ZM162.685 155.921V146.561H164.686V155.921H162.685ZM170.497 156.147C169.704 156.147 169.05 156.015 168.534 155.751C168.018 155.487 167.635 155.141 167.383 154.713C167.131 154.273 167.006 153.795 167.006 153.279C167.006 152.373 167.358 151.656 168.062 151.128C168.767 150.599 169.773 150.335 171.082 150.335H173.535V150.165C173.535 149.435 173.334 148.888 172.931 148.523C172.541 148.158 172.032 147.976 171.403 147.976C170.849 147.976 170.365 148.114 169.95 148.391C169.547 148.655 169.302 149.052 169.214 149.58H167.213C167.276 148.901 167.503 148.322 167.893 147.844C168.295 147.353 168.798 146.982 169.402 146.731C170.019 146.466 170.692 146.334 171.422 146.334C172.73 146.334 173.743 146.68 174.46 147.372C175.177 148.052 175.536 148.983 175.536 150.165V155.921H173.799L173.63 154.317C173.365 154.833 172.982 155.267 172.478 155.619C171.975 155.971 171.315 156.147 170.497 156.147ZM170.893 154.524C171.434 154.524 171.887 154.399 172.252 154.147C172.629 153.883 172.919 153.537 173.12 153.109C173.334 152.681 173.466 152.21 173.516 151.694H171.289C170.497 151.694 169.931 151.832 169.591 152.109C169.264 152.386 169.1 152.732 169.1 153.147C169.1 153.575 169.258 153.914 169.572 154.166C169.899 154.405 170.34 154.524 170.893 154.524ZM183.094 155.921V148.24H181.755V146.561H183.094V145.202C183.094 144.183 183.346 143.453 183.849 143.013C184.365 142.56 185.088 142.334 186.019 142.334H187.001V144.032H186.321C185.881 144.032 185.567 144.126 185.378 144.315C185.189 144.491 185.095 144.793 185.095 145.221V146.561H187.246V148.24H185.095V155.921H183.094ZM193.156 156.147C192.263 156.147 191.458 155.946 190.741 155.543C190.036 155.128 189.476 154.556 189.061 153.826C188.646 153.084 188.438 152.222 188.438 151.241C188.438 150.259 188.646 149.404 189.061 148.674C189.489 147.932 190.061 147.36 190.778 146.957C191.495 146.542 192.294 146.334 193.175 146.334C194.068 146.334 194.867 146.542 195.572 146.957C196.289 147.36 196.855 147.932 197.27 148.674C197.698 149.404 197.912 150.259 197.912 151.241C197.912 152.222 197.698 153.084 197.27 153.826C196.855 154.556 196.289 155.128 195.572 155.543C194.854 155.946 194.049 156.147 193.156 156.147ZM193.156 154.43C193.634 154.43 194.074 154.311 194.477 154.072C194.892 153.832 195.226 153.48 195.477 153.015C195.729 152.537 195.855 151.945 195.855 151.241C195.855 150.536 195.729 149.951 195.477 149.486C195.238 149.008 194.911 148.649 194.496 148.41C194.093 148.171 193.653 148.052 193.175 148.052C192.697 148.052 192.25 148.171 191.835 148.41C191.432 148.649 191.105 149.008 190.854 149.486C190.602 149.951 190.476 150.536 190.476 151.241C190.476 151.945 190.602 152.537 190.854 153.015C191.105 153.48 191.432 153.832 191.835 154.072C192.238 154.311 192.678 154.43 193.156 154.43ZM200.075 155.921V146.561H201.868L202.038 148.335C202.365 147.718 202.818 147.234 203.396 146.882C203.988 146.517 204.698 146.334 205.529 146.334V148.429H204.982C204.428 148.429 203.931 148.523 203.491 148.712C203.063 148.888 202.717 149.196 202.453 149.637C202.201 150.064 202.075 150.662 202.075 151.43V155.921H200.075ZM85.7686 183.921V174.561H87.5425L87.7124 175.882C88.0143 175.404 88.4106 175.026 88.9013 174.749C89.4045 174.473 89.9832 174.334 90.6374 174.334C92.122 174.334 93.1536 174.919 93.7323 176.089C94.072 175.548 94.5249 175.121 95.0911 174.806C95.6698 174.492 96.2926 174.334 96.9593 174.334C98.1294 174.334 99.0478 174.687 99.7146 175.391C100.381 176.096 100.715 177.146 100.715 178.543V183.921H98.7144V178.75C98.7144 176.938 98.0224 176.033 96.6385 176.033C95.934 176.033 95.3553 176.297 94.9024 176.825C94.462 177.354 94.2419 178.109 94.2419 179.09V183.921H92.2415V178.75C92.2415 176.938 91.5433 176.033 90.1468 176.033C89.4548 176.033 88.8824 176.297 88.4295 176.825C87.9892 177.354 87.769 178.109 87.769 179.09V183.921H85.7686ZM106.509 184.147C105.376 184.147 104.483 183.795 103.829 183.091C103.187 182.386 102.866 181.336 102.866 179.939V174.561H104.867V179.731C104.867 181.543 105.609 182.449 107.094 182.449C107.836 182.449 108.446 182.185 108.924 181.656C109.402 181.128 109.641 180.373 109.641 179.392V174.561H111.642V183.921H109.868L109.717 182.279C109.427 182.858 109 183.317 108.433 183.657C107.88 183.984 107.238 184.147 106.509 184.147ZM114.186 183.921V170.334H116.187V183.921H114.186ZM122.645 183.921C121.727 183.921 120.997 183.701 120.456 183.26C119.915 182.807 119.645 182.009 119.645 180.864V176.24H118.04V174.561H119.645L119.89 172.183H121.645V174.561H124.287V176.24H121.645V180.864C121.645 181.38 121.752 181.738 121.966 181.939C122.192 182.128 122.576 182.222 123.117 182.222H124.193V183.921H122.645ZM127.482 172.787C127.104 172.787 126.79 172.674 126.538 172.447C126.299 172.208 126.18 171.912 126.18 171.56C126.18 171.208 126.299 170.919 126.538 170.692C126.79 170.453 127.104 170.334 127.482 170.334C127.859 170.334 128.167 170.453 128.406 170.692C128.658 170.919 128.784 171.208 128.784 171.56C128.784 171.912 128.658 172.208 128.406 172.447C128.167 172.674 127.859 172.787 127.482 172.787ZM126.482 183.921V174.561H128.482V183.921H126.482ZM131.123 188.073V174.561H132.915L133.123 176.014C133.425 175.573 133.84 175.183 134.368 174.844C134.897 174.504 135.576 174.334 136.407 174.334C137.312 174.334 138.111 174.548 138.803 174.976C139.495 175.404 140.036 175.989 140.426 176.731C140.829 177.473 141.03 178.316 141.03 179.26C141.03 180.203 140.829 181.046 140.426 181.788C140.036 182.518 139.495 183.097 138.803 183.525C138.111 183.94 137.306 184.147 136.388 184.147C135.658 184.147 135.01 184.003 134.444 183.713C133.89 183.424 133.45 183.015 133.123 182.487V188.073H131.123ZM136.048 182.411C136.903 182.411 137.608 182.122 138.162 181.543C138.715 180.952 138.992 180.184 138.992 179.241C138.992 178.624 138.866 178.077 138.615 177.599C138.363 177.121 138.017 176.75 137.577 176.486C137.136 176.209 136.627 176.07 136.048 176.07C135.192 176.07 134.488 176.366 133.934 176.957C133.393 177.549 133.123 178.31 133.123 179.241C133.123 180.184 133.393 180.952 133.934 181.543C134.488 182.122 135.192 182.411 136.048 182.411ZM143.194 183.921V170.334H145.194V183.921H143.194ZM152.105 184.147C151.187 184.147 150.369 183.946 149.652 183.543C148.948 183.128 148.394 182.556 147.991 181.826C147.589 181.096 147.387 180.247 147.387 179.279C147.387 178.297 147.582 177.435 147.972 176.693C148.375 175.951 148.929 175.372 149.633 174.957C150.35 174.542 151.181 174.334 152.124 174.334C153.043 174.334 153.841 174.542 154.521 174.957C155.2 175.36 155.729 175.901 156.106 176.58C156.483 177.259 156.672 178.008 156.672 178.826C156.672 178.951 156.666 179.09 156.653 179.241C156.653 179.379 156.647 179.536 156.634 179.713H149.35C149.413 180.618 149.709 181.31 150.237 181.788C150.778 182.254 151.401 182.487 152.105 182.487C152.671 182.487 153.143 182.361 153.521 182.109C153.911 181.845 154.2 181.493 154.389 181.052H156.389C156.138 181.933 155.634 182.669 154.879 183.26C154.137 183.852 153.212 184.147 152.105 184.147ZM152.105 175.976C151.439 175.976 150.847 176.177 150.331 176.58C149.816 176.97 149.501 177.561 149.388 178.354H154.672C154.634 177.624 154.376 177.045 153.898 176.618C153.42 176.19 152.822 175.976 152.105 175.976ZM164.691 172.787C164.314 172.787 163.999 172.674 163.748 172.447C163.509 172.208 163.389 171.912 163.389 171.56C163.389 171.208 163.509 170.919 163.748 170.692C163.999 170.453 164.314 170.334 164.691 170.334C165.069 170.334 165.377 170.453 165.616 170.692C165.868 170.919 165.993 171.208 165.993 171.56C165.993 171.912 165.868 172.208 165.616 172.447C165.377 172.674 165.069 172.787 164.691 172.787ZM161.71 188.073V186.374H162.446C162.886 186.374 163.201 186.28 163.389 186.091C163.578 185.915 163.672 185.613 163.672 185.185V174.561H165.673V185.204C165.673 186.223 165.415 186.953 164.899 187.393C164.383 187.846 163.666 188.073 162.748 188.073H161.71ZM172.691 184.147C171.797 184.147 170.992 183.946 170.275 183.543C169.571 183.128 169.011 182.556 168.596 181.826C168.18 181.084 167.973 180.222 167.973 179.241C167.973 178.259 168.18 177.404 168.596 176.674C169.023 175.932 169.596 175.36 170.313 174.957C171.03 174.542 171.829 174.334 172.709 174.334C173.603 174.334 174.402 174.542 175.106 174.957C175.823 175.36 176.389 175.932 176.805 176.674C177.232 177.404 177.446 178.259 177.446 179.241C177.446 180.222 177.232 181.084 176.805 181.826C176.389 182.556 175.823 183.128 175.106 183.543C174.389 183.946 173.584 184.147 172.691 184.147ZM172.691 182.43C173.169 182.43 173.609 182.311 174.012 182.072C174.427 181.832 174.76 181.48 175.012 181.015C175.263 180.537 175.389 179.945 175.389 179.241C175.389 178.536 175.263 177.951 175.012 177.486C174.773 177.008 174.446 176.649 174.03 176.41C173.628 176.171 173.188 176.052 172.709 176.052C172.231 176.052 171.785 176.171 171.37 176.41C170.967 176.649 170.64 177.008 170.388 177.486C170.137 177.951 170.011 178.536 170.011 179.241C170.011 179.945 170.137 180.537 170.388 181.015C170.64 181.48 170.967 181.832 171.37 182.072C171.772 182.311 172.213 182.43 172.691 182.43ZM184.875 184.147C184.145 184.147 183.497 184.003 182.931 183.713C182.377 183.424 181.937 183.015 181.61 182.487L181.402 183.921H179.609V170.334H181.61V176.014C181.912 175.573 182.327 175.183 182.855 174.844C183.384 174.504 184.063 174.334 184.893 174.334C185.799 174.334 186.598 174.548 187.29 174.976C187.982 175.404 188.523 175.989 188.913 176.731C189.316 177.473 189.517 178.316 189.517 179.26C189.517 180.203 189.316 181.046 188.913 181.788C188.523 182.518 187.982 183.097 187.29 183.525C186.598 183.94 185.793 184.147 184.875 184.147ZM184.535 182.411C185.39 182.411 186.095 182.122 186.648 181.543C187.202 180.952 187.479 180.184 187.479 179.241C187.479 178.624 187.353 178.077 187.101 177.599C186.85 177.121 186.504 176.75 186.063 176.486C185.623 176.209 185.114 176.07 184.535 176.07C183.679 176.07 182.975 176.366 182.421 176.957C181.88 177.549 181.61 178.31 181.61 179.241C181.61 180.184 181.88 180.952 182.421 181.543C182.975 182.122 183.679 182.411 184.535 182.411ZM195.417 184.147C194.234 184.147 193.259 183.858 192.492 183.279C191.725 182.701 191.284 181.933 191.171 180.977H193.19C193.291 181.405 193.53 181.776 193.907 182.09C194.285 182.392 194.782 182.543 195.398 182.543C196.002 182.543 196.442 182.417 196.719 182.166C196.996 181.914 197.134 181.625 197.134 181.298C197.134 180.82 196.939 180.499 196.549 180.335C196.172 180.159 195.643 180.002 194.964 179.864C194.436 179.75 193.907 179.599 193.379 179.411C192.863 179.222 192.429 178.958 192.077 178.618C191.737 178.266 191.567 177.794 191.567 177.203C191.567 176.385 191.882 175.706 192.511 175.165C193.14 174.611 194.021 174.334 195.153 174.334C196.197 174.334 197.04 174.586 197.682 175.089C198.336 175.592 198.72 176.303 198.833 177.222H196.908C196.845 176.819 196.656 176.504 196.342 176.278C196.04 176.052 195.631 175.938 195.115 175.938C194.612 175.938 194.222 176.045 193.945 176.259C193.668 176.46 193.53 176.725 193.53 177.052C193.53 177.379 193.719 177.637 194.096 177.825C194.486 178.014 194.996 178.184 195.625 178.335C196.254 178.473 196.832 178.637 197.361 178.826C197.902 179.002 198.336 179.266 198.663 179.618C198.99 179.97 199.154 180.486 199.154 181.166C199.166 182.021 198.833 182.732 198.153 183.298C197.487 183.864 196.574 184.147 195.417 184.147Z" fill="#333333"/>
<rect x="45.1795" y="117.229" width="194.218" height="92.3838" rx="14.5467" stroke="#E0E0E0" stroke-width="2.35892"/>
<rect x="513.818" y="117.229" width="194.218" height="91.9979" rx="14.5467" fill="white"/>
<path d="M567.327 155.729L562.439 142.519H564.572L568.535 153.653L572.516 142.519H574.63L569.742 155.729H567.327ZM577.378 144.594C577 144.594 576.686 144.481 576.434 144.255C576.195 144.016 576.075 143.72 576.075 143.368C576.075 143.016 576.195 142.726 576.434 142.5C576.686 142.261 577 142.141 577.378 142.141C577.755 142.141 578.063 142.261 578.302 142.5C578.554 142.726 578.68 143.016 578.68 143.368C578.68 143.72 578.554 144.016 578.302 144.255C578.063 144.481 577.755 144.594 577.378 144.594ZM576.377 155.729V146.368H578.378V155.729H576.377ZM585.397 155.955C584.478 155.955 583.66 155.754 582.943 155.351C582.239 154.936 581.685 154.363 581.283 153.634C580.88 152.904 580.679 152.055 580.679 151.086C580.679 150.105 580.874 149.243 581.264 148.501C581.666 147.759 582.22 147.18 582.924 146.765C583.642 146.349 584.472 146.142 585.415 146.142C586.334 146.142 587.133 146.349 587.812 146.765C588.491 147.167 589.02 147.708 589.397 148.388C589.775 149.067 589.963 149.815 589.963 150.633C589.963 150.759 589.957 150.897 589.945 151.048C589.945 151.187 589.938 151.344 589.926 151.52H582.641C582.704 152.426 583 153.118 583.528 153.596C584.069 154.062 584.692 154.294 585.397 154.294C585.963 154.294 586.434 154.168 586.812 153.917C587.202 153.653 587.491 153.3 587.68 152.86H589.68C589.429 153.741 588.925 154.477 588.171 155.068C587.428 155.659 586.504 155.955 585.397 155.955ZM585.397 147.784C584.73 147.784 584.138 147.985 583.623 148.388C583.107 148.778 582.792 149.369 582.679 150.161H587.963C587.925 149.432 587.667 148.853 587.189 148.425C586.711 147.998 586.114 147.784 585.397 147.784ZM593.539 155.729L590.783 146.368H592.784L594.595 153.426L596.634 146.368H598.86L600.898 153.426L602.71 146.368H604.711L601.955 155.729H599.898L597.747 148.369L595.596 155.729H593.539ZM614.85 155.955C613.667 155.955 612.692 155.666 611.925 155.087C611.157 154.508 610.717 153.741 610.604 152.785H612.623C612.723 153.212 612.962 153.583 613.34 153.898C613.717 154.2 614.214 154.351 614.831 154.351C615.435 154.351 615.875 154.225 616.152 153.973C616.428 153.722 616.567 153.432 616.567 153.105C616.567 152.627 616.372 152.307 615.982 152.143C615.604 151.967 615.076 151.81 614.397 151.671C613.868 151.558 613.34 151.407 612.811 151.218C612.296 151.03 611.862 150.765 611.509 150.426C611.17 150.073 611 149.602 611 149.01C611 148.193 611.314 147.513 611.943 146.972C612.572 146.419 613.453 146.142 614.585 146.142C615.63 146.142 616.473 146.393 617.114 146.897C617.768 147.4 618.152 148.111 618.265 149.029H616.34C616.278 148.627 616.089 148.312 615.774 148.086C615.472 147.859 615.063 147.746 614.548 147.746C614.044 147.746 613.654 147.853 613.378 148.067C613.101 148.268 612.962 148.532 612.962 148.859C612.962 149.186 613.151 149.444 613.529 149.633C613.919 149.822 614.428 149.992 615.057 150.143C615.686 150.281 616.265 150.445 616.793 150.633C617.334 150.809 617.768 151.074 618.095 151.426C618.423 151.778 618.586 152.294 618.586 152.973C618.599 153.829 618.265 154.54 617.586 155.106C616.919 155.672 616.007 155.955 614.85 155.955ZM625.205 155.955C624.286 155.955 623.462 155.747 622.733 155.332C622.015 154.917 621.449 154.345 621.034 153.615C620.632 152.873 620.43 152.017 620.43 151.048C620.43 150.08 620.632 149.23 621.034 148.501C621.449 147.759 622.015 147.18 622.733 146.765C623.462 146.349 624.286 146.142 625.205 146.142C626.362 146.142 627.331 146.444 628.111 147.048C628.903 147.652 629.413 148.469 629.639 149.501H627.545C627.419 148.985 627.142 148.583 626.714 148.293C626.287 148.004 625.783 147.859 625.205 147.859C624.714 147.859 624.261 147.985 623.846 148.237C623.431 148.476 623.097 148.834 622.846 149.312C622.594 149.778 622.468 150.356 622.468 151.048C622.468 151.74 622.594 152.325 622.846 152.803C623.097 153.269 623.431 153.628 623.846 153.879C624.261 154.131 624.714 154.257 625.205 154.257C625.783 154.257 626.287 154.112 626.714 153.823C627.142 153.533 627.419 153.124 627.545 152.596H629.639C629.426 153.602 628.922 154.414 628.13 155.03C627.337 155.647 626.362 155.955 625.205 155.955ZM636.187 155.955C635.294 155.955 634.489 155.754 633.772 155.351C633.067 154.936 632.507 154.363 632.092 153.634C631.677 152.892 631.469 152.03 631.469 151.048C631.469 150.067 631.677 149.212 632.092 148.482C632.52 147.74 633.092 147.167 633.809 146.765C634.526 146.349 635.325 146.142 636.206 146.142C637.099 146.142 637.898 146.349 638.603 146.765C639.32 147.167 639.886 147.74 640.301 148.482C640.729 149.212 640.943 150.067 640.943 151.048C640.943 152.03 640.729 152.892 640.301 153.634C639.886 154.363 639.32 154.936 638.603 155.351C637.885 155.754 637.08 155.955 636.187 155.955ZM636.187 154.238C636.665 154.238 637.105 154.118 637.508 153.879C637.923 153.64 638.257 153.288 638.508 152.822C638.76 152.344 638.886 151.753 638.886 151.048C638.886 150.344 638.76 149.759 638.508 149.293C638.269 148.815 637.942 148.457 637.527 148.218C637.124 147.979 636.684 147.859 636.206 147.859C635.728 147.859 635.281 147.979 634.866 148.218C634.463 148.457 634.136 148.815 633.885 149.293C633.633 149.759 633.507 150.344 633.507 151.048C633.507 151.753 633.633 152.344 633.885 152.822C634.136 153.288 634.463 153.64 634.866 153.879C635.269 154.118 635.709 154.238 636.187 154.238ZM643.106 155.729V146.368H644.899L645.069 148.142C645.396 147.526 645.849 147.041 646.427 146.689C647.019 146.324 647.729 146.142 648.56 146.142V148.237H648.012C647.459 148.237 646.962 148.331 646.522 148.52C646.094 148.696 645.748 149.004 645.484 149.444C645.232 149.872 645.106 150.47 645.106 151.237V155.729H643.106ZM654.395 155.955C653.477 155.955 652.659 155.754 651.942 155.351C651.237 154.936 650.684 154.363 650.281 153.634C649.878 152.904 649.677 152.055 649.677 151.086C649.677 150.105 649.872 149.243 650.262 148.501C650.665 147.759 651.218 147.18 651.923 146.765C652.64 146.349 653.47 146.142 654.414 146.142C655.332 146.142 656.131 146.349 656.811 146.765C657.49 147.167 658.018 147.708 658.396 148.388C658.773 149.067 658.962 149.815 658.962 150.633C658.962 150.759 658.956 150.897 658.943 151.048C658.943 151.187 658.937 151.344 658.924 151.52H651.64C651.703 152.426 651.998 153.118 652.527 153.596C653.068 154.062 653.69 154.294 654.395 154.294C654.961 154.294 655.433 154.168 655.81 153.917C656.2 153.653 656.49 153.3 656.678 152.86H658.679C658.427 153.741 657.924 154.477 657.169 155.068C656.427 155.659 655.502 155.955 654.395 155.955ZM654.395 147.784C653.728 147.784 653.137 147.985 652.621 148.388C652.105 148.778 651.791 149.369 651.678 150.161H656.961C656.924 149.432 656.666 148.853 656.188 148.425C655.71 147.998 655.112 147.784 654.395 147.784ZM586.463 183.955C585.557 183.955 584.758 183.741 584.066 183.313C583.374 182.886 582.833 182.301 582.443 181.558C582.053 180.816 581.858 179.973 581.858 179.03C581.858 178.086 582.053 177.249 582.443 176.52C582.833 175.777 583.374 175.199 584.066 174.783C584.771 174.356 585.576 174.142 586.482 174.142C587.224 174.142 587.872 174.287 588.425 174.576C588.992 174.865 589.432 175.274 589.746 175.803V170.141H591.747V183.729H589.954L589.746 182.275C589.444 182.716 589.029 183.106 588.501 183.445C587.972 183.785 587.293 183.955 586.463 183.955ZM586.821 182.219C587.677 182.219 588.375 181.923 588.916 181.332C589.47 180.741 589.746 179.979 589.746 179.048C589.746 178.105 589.47 177.344 588.916 176.765C588.375 176.174 587.677 175.878 586.821 175.878C585.966 175.878 585.261 176.174 584.708 176.765C584.154 177.344 583.877 178.105 583.877 179.048C583.877 179.665 584.003 180.212 584.255 180.69C584.506 181.168 584.852 181.546 585.293 181.823C585.746 182.087 586.255 182.219 586.821 182.219ZM598.647 183.955C597.729 183.955 596.911 183.754 596.194 183.351C595.489 182.936 594.936 182.363 594.533 181.634C594.131 180.904 593.929 180.055 593.929 179.086C593.929 178.105 594.124 177.243 594.514 176.501C594.917 175.759 595.47 175.18 596.175 174.765C596.892 174.349 597.722 174.142 598.666 174.142C599.584 174.142 600.383 174.349 601.063 174.765C601.742 175.167 602.27 175.708 602.648 176.388C603.025 177.067 603.214 177.815 603.214 178.633C603.214 178.759 603.208 178.897 603.195 179.048C603.195 179.187 603.189 179.344 603.176 179.52H595.892C595.955 180.426 596.25 181.118 596.779 181.596C597.32 182.062 597.943 182.294 598.647 182.294C599.213 182.294 599.685 182.168 600.062 181.917C600.452 181.653 600.742 181.3 600.93 180.86H602.931C602.679 181.741 602.176 182.477 601.421 183.068C600.679 183.659 599.754 183.955 598.647 183.955ZM598.647 175.784C597.98 175.784 597.389 175.985 596.873 176.388C596.357 176.778 596.043 177.369 595.93 178.161H601.214C601.176 177.432 600.918 176.853 600.44 176.425C599.962 175.998 599.364 175.784 598.647 175.784ZM608.975 183.729C608.057 183.729 607.327 183.508 606.786 183.068C606.245 182.615 605.975 181.816 605.975 180.671V176.048H604.371V174.368H605.975L606.22 171.991H607.975V174.368H610.617V176.048H607.975V180.671C607.975 181.187 608.082 181.546 608.296 181.747C608.522 181.936 608.906 182.03 609.447 182.03H610.523V183.729H608.975ZM615.85 183.955C615.057 183.955 614.403 183.823 613.887 183.559C613.371 183.294 612.988 182.948 612.736 182.521C612.485 182.08 612.359 181.602 612.359 181.087C612.359 180.181 612.711 179.464 613.416 178.935C614.12 178.407 615.127 178.143 616.435 178.143H618.888V177.973C618.888 177.243 618.687 176.696 618.284 176.331C617.894 175.966 617.385 175.784 616.756 175.784C616.202 175.784 615.718 175.922 615.303 176.199C614.9 176.463 614.655 176.859 614.567 177.388H612.566C612.629 176.708 612.856 176.13 613.246 175.652C613.648 175.161 614.152 174.79 614.755 174.538C615.372 174.274 616.045 174.142 616.775 174.142C618.083 174.142 619.096 174.488 619.813 175.18C620.53 175.859 620.889 176.79 620.889 177.973V183.729H619.152L618.983 182.124C618.718 182.64 618.335 183.074 617.831 183.427C617.328 183.779 616.668 183.955 615.85 183.955ZM616.246 182.332C616.787 182.332 617.24 182.206 617.605 181.955C617.982 181.69 618.272 181.344 618.473 180.917C618.687 180.489 618.819 180.017 618.869 179.501H616.643C615.85 179.501 615.284 179.64 614.944 179.916C614.617 180.193 614.453 180.539 614.453 180.954C614.453 181.382 614.611 181.722 614.925 181.973C615.252 182.213 615.693 182.332 616.246 182.332ZM624.353 172.594C623.976 172.594 623.661 172.481 623.41 172.255C623.171 172.016 623.051 171.72 623.051 171.368C623.051 171.016 623.171 170.726 623.41 170.5C623.661 170.261 623.976 170.141 624.353 170.141C624.731 170.141 625.039 170.261 625.278 170.5C625.53 170.726 625.655 171.016 625.655 171.368C625.655 171.72 625.53 172.016 625.278 172.255C625.039 172.481 624.731 172.594 624.353 172.594ZM623.353 183.729V174.368H625.353V183.729H623.353ZM627.994 183.729V170.141H629.994V183.729H627.994ZM636.264 183.955C635.082 183.955 634.107 183.666 633.339 183.087C632.572 182.508 632.131 181.741 632.018 180.785H634.037C634.138 181.212 634.377 181.583 634.754 181.898C635.132 182.2 635.629 182.351 636.245 182.351C636.849 182.351 637.29 182.225 637.566 181.973C637.843 181.722 637.981 181.432 637.981 181.105C637.981 180.627 637.786 180.307 637.396 180.143C637.019 179.967 636.491 179.81 635.811 179.671C635.283 179.558 634.754 179.407 634.226 179.218C633.71 179.03 633.276 178.765 632.924 178.426C632.584 178.073 632.414 177.602 632.414 177.01C632.414 176.193 632.729 175.513 633.358 174.972C633.987 174.419 634.868 174.142 636 174.142C637.044 174.142 637.887 174.393 638.529 174.897C639.183 175.4 639.567 176.111 639.68 177.029H637.755C637.692 176.627 637.503 176.312 637.189 176.086C636.887 175.859 636.478 175.746 635.962 175.746C635.459 175.746 635.069 175.853 634.792 176.067C634.515 176.268 634.377 176.532 634.377 176.859C634.377 177.186 634.566 177.444 634.943 177.633C635.333 177.822 635.843 177.992 636.472 178.143C637.101 178.281 637.68 178.445 638.208 178.633C638.749 178.809 639.183 179.074 639.51 179.426C639.837 179.778 640.001 180.294 640.001 180.973C640.013 181.829 639.68 182.54 639.001 183.106C638.334 183.672 637.422 183.955 636.264 183.955Z" fill="#333333"/>
<rect x="513.818" y="117.229" width="194.218" height="91.9979" rx="14.5467" stroke="#E0E0E0" stroke-width="2.35892"/>
<rect x="985.602" y="51.1795" width="194.218" height="91.9979" rx="14.5467" fill="white"/>
<path d="M1007.99 103.698L1004.43 90.4688H1006.58L1009.2 101.414L1012.22 90.4688H1014.43L1017.35 101.414L1019.98 90.4688H1022.13L1018.5 103.679H1016.16L1013.28 93.3183L1010.3 103.679L1007.99 103.698ZM1026.06 103.905C1025.27 103.905 1024.62 103.773 1024.1 103.509C1023.58 103.245 1023.2 102.899 1022.95 102.471C1022.7 102.031 1022.57 101.553 1022.57 101.037C1022.57 100.131 1022.92 99.4138 1023.63 98.8854C1024.33 98.357 1025.34 98.0928 1026.65 98.0928H1029.1V97.9229C1029.1 97.1933 1028.9 96.646 1028.5 96.2811C1028.11 95.9163 1027.6 95.7339 1026.97 95.7339C1026.41 95.7339 1025.93 95.8723 1025.52 96.149C1025.11 96.4132 1024.87 96.8095 1024.78 97.3379H1022.78C1022.84 96.6586 1023.07 96.0798 1023.46 95.6018C1023.86 95.1111 1024.36 94.74 1024.97 94.4884C1025.58 94.2242 1026.26 94.0921 1026.99 94.0921C1028.3 94.0921 1029.31 94.438 1030.03 95.13C1030.74 95.8094 1031.1 96.7403 1031.1 97.9229V103.679H1029.37L1029.2 102.075C1028.93 102.59 1028.55 103.025 1028.04 103.377C1027.54 103.729 1026.88 103.905 1026.06 103.905ZM1026.46 102.282C1027 102.282 1027.45 102.156 1027.82 101.905C1028.2 101.641 1028.48 101.295 1028.69 100.867C1028.9 100.439 1029.03 99.9673 1029.08 99.4515H1026.86C1026.06 99.4515 1025.5 99.5899 1025.16 99.8667C1024.83 100.143 1024.67 100.489 1024.67 100.905C1024.67 101.332 1024.82 101.672 1025.14 101.924C1025.46 102.163 1025.91 102.282 1026.46 102.282ZM1034.57 92.5446C1034.19 92.5446 1033.87 92.4314 1033.62 92.2049C1033.38 91.9659 1033.26 91.6702 1033.26 91.318C1033.26 90.9657 1033.38 90.6763 1033.62 90.4499C1033.87 90.2108 1034.19 90.0913 1034.57 90.0913C1034.94 90.0913 1035.25 90.2108 1035.49 90.4499C1035.74 90.6763 1035.87 90.9657 1035.87 91.318C1035.87 91.6702 1035.74 91.9659 1035.49 92.2049C1035.25 92.4314 1034.94 92.5446 1034.57 92.5446ZM1033.57 103.679V94.3185H1035.57V103.679H1033.57ZM1042.13 103.679C1041.21 103.679 1040.48 103.459 1039.94 103.018C1039.4 102.565 1039.13 101.766 1039.13 100.622V95.9981H1037.53V94.3185H1039.13L1039.38 91.9407H1041.13V94.3185H1043.77V95.9981H1041.13V100.622C1041.13 101.137 1041.24 101.496 1041.45 101.697C1041.68 101.886 1042.06 101.98 1042.6 101.98H1043.68V103.679H1042.13ZM1051.06 103.679V95.9981H1049.72V94.3185H1051.06V92.9598C1051.06 91.9407 1051.31 91.211 1051.82 90.7707C1052.33 90.3178 1053.06 90.0913 1053.99 90.0913H1054.97V91.7897H1054.29C1053.85 91.7897 1053.54 91.8841 1053.35 92.0728C1053.16 92.249 1053.06 92.5509 1053.06 92.9786V94.3185H1055.21V95.9981H1053.06V103.679H1051.06ZM1061.12 103.905C1060.23 103.905 1059.43 103.704 1058.71 103.301C1058 102.886 1057.44 102.314 1057.03 101.584C1056.61 100.842 1056.41 99.9799 1056.41 98.9986C1056.41 98.0173 1056.61 97.1618 1057.03 96.4321C1057.46 95.6898 1058.03 95.1174 1058.75 94.7148C1059.46 94.2996 1060.26 94.0921 1061.14 94.0921C1062.04 94.0921 1062.84 94.2996 1063.54 94.7148C1064.26 95.1174 1064.82 95.6898 1065.24 96.4321C1065.67 97.1618 1065.88 98.0173 1065.88 98.9986C1065.88 99.9799 1065.67 100.842 1065.24 101.584C1064.82 102.314 1064.26 102.886 1063.54 103.301C1062.82 103.704 1062.02 103.905 1061.12 103.905ZM1061.12 102.188C1061.6 102.188 1062.04 102.068 1062.45 101.829C1062.86 101.59 1063.19 101.238 1063.45 100.773C1063.7 100.294 1063.82 99.7031 1063.82 98.9986C1063.82 98.2941 1063.7 97.7091 1063.45 97.2436C1063.21 96.7655 1062.88 96.4069 1062.46 96.1679C1062.06 95.9289 1061.62 95.8093 1061.14 95.8093C1060.67 95.8093 1060.22 95.9289 1059.8 96.1679C1059.4 96.4069 1059.07 96.7655 1058.82 97.2436C1058.57 97.7091 1058.44 98.2941 1058.44 98.9986C1058.44 99.7031 1058.57 100.294 1058.82 100.773C1059.07 101.238 1059.4 101.59 1059.8 101.829C1060.21 102.068 1060.65 102.188 1061.12 102.188ZM1068.04 103.679V94.3185H1069.84L1070.01 96.0924C1070.33 95.476 1070.79 94.9916 1071.36 94.6393C1071.96 94.2745 1072.67 94.0921 1073.5 94.0921V96.1868H1072.95C1072.4 96.1868 1071.9 96.2811 1071.46 96.4698C1071.03 96.646 1070.69 96.9542 1070.42 97.3945C1070.17 97.8223 1070.04 98.4199 1070.04 99.1873V103.679H1068.04ZM1079.97 103.679V94.3185H1081.76L1081.93 96.0924C1082.26 95.476 1082.71 94.9916 1083.29 94.6393C1083.88 94.2745 1084.59 94.0921 1085.42 94.0921V96.1868H1084.87C1084.32 96.1868 1083.82 96.2811 1083.38 96.4698C1082.95 96.646 1082.61 96.9542 1082.34 97.3945C1082.09 97.8223 1081.97 98.4199 1081.97 99.1873V103.679H1079.97ZM1091.26 103.905C1090.34 103.905 1089.52 103.704 1088.8 103.301C1088.1 102.886 1087.54 102.314 1087.14 101.584C1086.74 100.854 1086.54 100.005 1086.54 99.0364C1086.54 98.055 1086.73 97.1933 1087.12 96.451C1087.53 95.7087 1088.08 95.13 1088.78 94.7148C1089.5 94.2996 1090.33 94.0921 1091.27 94.0921C1092.19 94.0921 1092.99 94.2996 1093.67 94.7148C1094.35 95.1174 1094.88 95.6584 1095.26 96.3377C1095.63 97.0171 1095.82 97.7657 1095.82 98.5834C1095.82 98.7093 1095.82 98.8476 1095.8 98.9986C1095.8 99.137 1095.8 99.2943 1095.79 99.4704H1088.5C1088.56 100.376 1088.86 101.068 1089.39 101.546C1089.93 102.012 1090.55 102.244 1091.26 102.244C1091.82 102.244 1092.29 102.119 1092.67 101.867C1093.06 101.603 1093.35 101.251 1093.54 100.81H1095.54C1095.29 101.691 1094.79 102.427 1094.03 103.018C1093.29 103.61 1092.36 103.905 1091.26 103.905ZM1091.26 95.7339C1090.59 95.7339 1090 95.9352 1089.48 96.3377C1088.97 96.7278 1088.65 97.3191 1088.54 98.1117H1093.82C1093.78 97.382 1093.53 96.8032 1093.05 96.3755C1092.57 95.9477 1091.97 95.7339 1091.26 95.7339ZM1101.64 103.905C1100.45 103.905 1099.48 103.616 1098.71 103.037C1097.94 102.458 1097.5 101.691 1097.39 100.735H1099.41C1099.51 101.163 1099.75 101.534 1100.13 101.848C1100.5 102.15 1101 102.301 1101.62 102.301C1102.22 102.301 1102.66 102.175 1102.94 101.924C1103.21 101.672 1103.35 101.383 1103.35 101.056C1103.35 100.578 1103.16 100.257 1102.77 100.093C1102.39 99.917 1101.86 99.7598 1101.18 99.6214C1100.65 99.5081 1100.13 99.3572 1099.6 99.1685C1099.08 98.9797 1098.65 98.7155 1098.29 98.3759C1097.96 98.0236 1097.79 97.5518 1097.79 96.9605C1097.79 96.1427 1098.1 95.4634 1098.73 94.9224C1099.36 94.3688 1100.24 94.0921 1101.37 94.0921C1102.42 94.0921 1103.26 94.3437 1103.9 94.8469C1104.55 95.3501 1104.94 96.061 1105.05 96.9794H1103.13C1103.06 96.5768 1102.87 96.2623 1102.56 96.0358C1102.26 95.8094 1101.85 95.6961 1101.33 95.6961C1100.83 95.6961 1100.44 95.8031 1100.16 96.0169C1099.89 96.2182 1099.75 96.4824 1099.75 96.8095C1099.75 97.1366 1099.94 97.3945 1100.31 97.5833C1100.7 97.772 1101.21 97.9418 1101.84 98.0928C1102.47 98.2312 1103.05 98.3947 1103.58 98.5834C1104.12 98.7596 1104.55 99.0238 1104.88 99.376C1105.21 99.7283 1105.37 100.244 1105.37 100.923C1105.38 101.779 1105.05 102.49 1104.37 103.056C1103.7 103.622 1102.79 103.905 1101.64 103.905ZM1107.56 107.83V94.3185H1109.35L1109.56 95.7716C1109.86 95.3313 1110.27 94.9413 1110.8 94.6016C1111.33 94.2619 1112.01 94.0921 1112.84 94.0921C1113.75 94.0921 1114.54 94.3059 1115.24 94.7337C1115.93 95.1614 1116.47 95.7464 1116.86 96.4887C1117.26 97.231 1117.46 98.0739 1117.46 99.0175C1117.46 99.9611 1117.26 100.804 1116.86 101.546C1116.47 102.276 1115.93 102.855 1115.24 103.282C1114.54 103.698 1113.74 103.905 1112.82 103.905C1112.09 103.905 1111.44 103.76 1110.88 103.471C1110.32 103.182 1109.88 102.773 1109.56 102.244V107.83H1107.56ZM1112.48 102.169C1113.34 102.169 1114.04 101.88 1114.59 101.301C1115.15 100.71 1115.42 99.9422 1115.42 98.9986C1115.42 98.3821 1115.3 97.8349 1115.05 97.3568C1114.8 96.8787 1114.45 96.5076 1114.01 96.2434C1113.57 95.9666 1113.06 95.8282 1112.48 95.8282C1111.63 95.8282 1110.92 96.1239 1110.37 96.7152C1109.83 97.3065 1109.56 98.0676 1109.56 98.9986C1109.56 99.9422 1109.83 100.71 1110.37 101.301C1110.92 101.88 1111.63 102.169 1112.48 102.169ZM1124 103.905C1123.11 103.905 1122.31 103.704 1121.59 103.301C1120.88 102.886 1120.32 102.314 1119.91 101.584C1119.49 100.842 1119.29 99.9799 1119.29 98.9986C1119.29 98.0173 1119.49 97.1618 1119.91 96.4321C1120.34 95.6898 1120.91 95.1174 1121.63 94.7148C1122.34 94.2996 1123.14 94.0921 1124.02 94.0921C1124.92 94.0921 1125.72 94.2996 1126.42 94.7148C1127.14 95.1174 1127.7 95.6898 1128.12 96.4321C1128.55 97.1618 1128.76 98.0173 1128.76 98.9986C1128.76 99.9799 1128.55 100.842 1128.12 101.584C1127.7 102.314 1127.14 102.886 1126.42 103.301C1125.7 103.704 1124.9 103.905 1124 103.905ZM1124 102.188C1124.48 102.188 1124.92 102.068 1125.33 101.829C1125.74 101.59 1126.07 101.238 1126.33 100.773C1126.58 100.294 1126.7 99.7031 1126.7 98.9986C1126.7 98.2941 1126.58 97.7091 1126.33 97.2436C1126.09 96.7655 1125.76 96.4069 1125.34 96.1679C1124.94 95.9289 1124.5 95.8093 1124.02 95.8093C1123.55 95.8093 1123.1 95.9289 1122.68 96.1679C1122.28 96.4069 1121.95 96.7655 1121.7 97.2436C1121.45 97.7091 1121.32 98.2941 1121.32 98.9986C1121.32 99.7031 1121.45 100.294 1121.7 100.773C1121.95 101.238 1122.28 101.59 1122.68 101.829C1123.09 102.068 1123.53 102.188 1124 102.188ZM1130.92 103.679V94.3185H1132.7L1132.85 95.9603C1133.14 95.3816 1133.56 94.9287 1134.11 94.6016C1134.68 94.2619 1135.33 94.0921 1136.06 94.0921C1137.19 94.0921 1138.08 94.4443 1138.72 95.1489C1139.37 95.8534 1139.7 96.9039 1139.7 98.3004V103.679H1137.72V98.508C1137.72 96.6963 1136.97 95.7905 1135.49 95.7905C1134.75 95.7905 1134.13 96.0547 1133.64 96.5831C1133.16 97.1115 1132.92 97.8663 1132.92 98.8476V103.679H1130.92ZM1145.79 103.905C1144.61 103.905 1143.63 103.616 1142.87 103.037C1142.1 102.458 1141.66 101.691 1141.55 100.735H1143.56C1143.66 101.163 1143.9 101.534 1144.28 101.848C1144.66 102.15 1145.16 102.301 1145.77 102.301C1146.38 102.301 1146.82 102.175 1147.09 101.924C1147.37 101.672 1147.51 101.383 1147.51 101.056C1147.51 100.578 1147.31 100.257 1146.92 100.093C1146.55 99.917 1146.02 99.7598 1145.34 99.6214C1144.81 99.5081 1144.28 99.3572 1143.75 99.1685C1143.24 98.9797 1142.8 98.7155 1142.45 98.3759C1142.11 98.0236 1141.94 97.5518 1141.94 96.9605C1141.94 96.1427 1142.26 95.4634 1142.88 94.9224C1143.51 94.3688 1144.39 94.0921 1145.53 94.0921C1146.57 94.0921 1147.41 94.3437 1148.06 94.8469C1148.71 95.3501 1149.09 96.061 1149.21 96.9794H1147.28C1147.22 96.5768 1147.03 96.2623 1146.72 96.0358C1146.41 95.8094 1146 95.6961 1145.49 95.6961C1144.99 95.6961 1144.6 95.8031 1144.32 96.0169C1144.04 96.2182 1143.9 96.4824 1143.9 96.8095C1143.9 97.1366 1144.09 97.3945 1144.47 97.5833C1144.86 97.772 1145.37 97.9418 1146 98.0928C1146.63 98.2312 1147.21 98.3947 1147.73 98.5834C1148.28 98.7596 1148.71 99.0238 1149.04 99.376C1149.36 99.7283 1149.53 100.244 1149.53 100.923C1149.54 101.779 1149.21 102.49 1148.53 103.056C1147.86 103.622 1146.95 103.905 1145.79 103.905ZM1156.09 103.905C1155.17 103.905 1154.35 103.704 1153.64 103.301C1152.93 102.886 1152.38 102.314 1151.98 101.584C1151.57 100.854 1151.37 100.005 1151.37 99.0364C1151.37 98.055 1151.57 97.1933 1151.96 96.451C1152.36 95.7087 1152.91 95.13 1153.62 94.7148C1154.33 94.2996 1155.16 94.0921 1156.11 94.0921C1157.03 94.0921 1157.83 94.2996 1158.51 94.7148C1159.18 95.1174 1159.71 95.6584 1160.09 96.3377C1160.47 97.0171 1160.66 97.7657 1160.66 98.5834C1160.66 98.7093 1160.65 98.8476 1160.64 98.9986C1160.64 99.137 1160.63 99.2943 1160.62 99.4704H1153.33C1153.4 100.376 1153.69 101.068 1154.22 101.546C1154.76 102.012 1155.39 102.244 1156.09 102.244C1156.66 102.244 1157.13 102.119 1157.5 101.867C1157.89 101.603 1158.18 101.251 1158.37 100.81H1160.37C1160.12 101.691 1159.62 102.427 1158.86 103.018C1158.12 103.61 1157.2 103.905 1156.09 103.905ZM1156.09 95.7339C1155.42 95.7339 1154.83 95.9352 1154.32 96.3377C1153.8 96.7278 1153.49 97.3191 1153.37 98.1117H1158.66C1158.62 97.382 1158.36 96.8032 1157.88 96.3755C1157.4 95.9477 1156.81 95.7339 1156.09 95.7339Z" fill="#333333"/>
<rect x="985.602" y="51.1795" width="194.218" height="91.9979" rx="14.5467" stroke="#E0E0E0" stroke-width="2.35892"/>
<rect x="751.283" y="51.1795" width="194.218" height="91.9979" rx="14.5467" fill="white"/>
<path d="M787.884 103.679V90.4688H796.281V92.0917H789.884V96.2056H795.715V97.7908H789.884V102.056H796.281V103.679H787.884ZM798.589 103.679V94.3185H800.363L800.533 95.6395C800.835 95.1614 801.231 94.784 801.722 94.5072C802.225 94.2304 802.804 94.0921 803.458 94.0921C804.942 94.0921 805.974 94.6771 806.553 95.8471C806.892 95.3061 807.345 94.8784 807.912 94.5638C808.49 94.2493 809.113 94.0921 809.78 94.0921C810.95 94.0921 811.868 94.4443 812.535 95.1489C813.202 95.8534 813.535 96.9039 813.535 98.3004V103.679H811.535V98.508C811.535 96.6963 810.843 95.7905 809.459 95.7905C808.754 95.7905 808.176 96.0547 807.723 96.5831C807.282 97.1115 807.062 97.8663 807.062 98.8476V103.679H805.062V98.508C805.062 96.6963 804.364 95.7905 802.967 95.7905C802.275 95.7905 801.703 96.0547 801.25 96.5831C800.81 97.1115 800.589 97.8663 800.589 98.8476V103.679H798.589ZM819.046 103.905C818.253 103.905 817.599 103.773 817.083 103.509C816.567 103.245 816.184 102.899 815.932 102.471C815.681 102.031 815.555 101.553 815.555 101.037C815.555 100.131 815.907 99.4138 816.612 98.8854C817.316 98.357 818.323 98.0928 819.631 98.0928H822.084V97.9229C822.084 97.1933 821.883 96.646 821.48 96.2811C821.09 95.9163 820.581 95.7339 819.952 95.7339C819.398 95.7339 818.914 95.8723 818.499 96.149C818.096 96.4132 817.851 96.8095 817.763 97.3379H815.762C815.825 96.6586 816.052 96.0798 816.442 95.6018C816.844 95.1111 817.347 94.74 817.951 94.4884C818.568 94.2242 819.241 94.0921 819.971 94.0921C821.279 94.0921 822.292 94.438 823.009 95.13C823.726 95.8094 824.085 96.7403 824.085 97.9229V103.679H822.348L822.179 102.075C821.914 102.59 821.531 103.025 821.027 103.377C820.524 103.729 819.864 103.905 819.046 103.905ZM819.442 102.282C819.983 102.282 820.436 102.156 820.801 101.905C821.178 101.641 821.468 101.295 821.669 100.867C821.883 100.439 822.015 99.9673 822.065 99.4515H819.839C819.046 99.4515 818.48 99.5899 818.14 99.8667C817.813 100.143 817.649 100.489 817.649 100.905C817.649 101.332 817.807 101.672 818.121 101.924C818.448 102.163 818.889 102.282 819.442 102.282ZM827.549 92.5446C827.172 92.5446 826.857 92.4314 826.606 92.2049C826.367 91.9659 826.247 91.6702 826.247 91.318C826.247 90.9657 826.367 90.6763 826.606 90.4499C826.857 90.2108 827.172 90.0913 827.549 90.0913C827.927 90.0913 828.235 90.2108 828.474 90.4499C828.726 90.6763 828.851 90.9657 828.851 91.318C828.851 91.6702 828.726 91.9659 828.474 92.2049C828.235 92.4314 827.927 92.5446 827.549 92.5446ZM826.549 103.679V94.3185H828.549V103.679H826.549ZM831.19 103.679V90.0913H833.19V103.679H831.19ZM844.215 103.905C843.032 103.905 842.057 103.616 841.29 103.037C840.522 102.458 840.082 101.691 839.969 100.735H841.988C842.089 101.163 842.328 101.534 842.705 101.848C843.083 102.15 843.58 102.301 844.196 102.301C844.8 102.301 845.24 102.175 845.517 101.924C845.794 101.672 845.932 101.383 845.932 101.056C845.932 100.578 845.737 100.257 845.347 100.093C844.97 99.917 844.441 99.7598 843.762 99.6214C843.234 99.5081 842.705 99.3572 842.177 99.1685C841.661 98.9797 841.227 98.7155 840.875 98.3759C840.535 98.0236 840.365 97.5518 840.365 96.9605C840.365 96.1427 840.68 95.4634 841.309 94.9224C841.938 94.3688 842.818 94.0921 843.951 94.0921C844.995 94.0921 845.838 94.3437 846.479 94.8469C847.134 95.3501 847.517 96.061 847.631 96.9794H845.706C845.643 96.5768 845.454 96.2623 845.14 96.0358C844.838 95.8094 844.429 95.6961 843.913 95.6961C843.41 95.6961 843.02 95.8031 842.743 96.0169C842.466 96.2182 842.328 96.4824 842.328 96.8095C842.328 97.1366 842.516 97.3945 842.894 97.5833C843.284 97.772 843.793 97.9418 844.422 98.0928C845.051 98.2312 845.63 98.3947 846.159 98.5834C846.7 98.7596 847.134 99.0238 847.461 99.376C847.788 99.7283 847.951 100.244 847.951 100.923C847.964 101.779 847.631 102.49 846.951 103.056C846.284 103.622 845.372 103.905 844.215 103.905ZM853.589 103.905C852.456 103.905 851.563 103.553 850.909 102.848C850.267 102.144 849.946 101.093 849.946 99.6969V94.3185H851.947V99.4893C851.947 101.301 852.689 102.207 854.174 102.207C854.916 102.207 855.526 101.943 856.004 101.414C856.482 100.886 856.721 100.131 856.721 99.1496V94.3185H858.722V103.679H856.948L856.797 102.037C856.507 102.616 856.08 103.075 855.514 103.415C854.96 103.742 854.318 103.905 853.589 103.905ZM861.266 107.83V94.3185H863.059L863.267 95.7716C863.569 95.3313 863.984 94.9413 864.512 94.6016C865.041 94.2619 865.72 94.0921 866.55 94.0921C867.456 94.0921 868.255 94.3059 868.947 94.7337C869.639 95.1614 870.18 95.7464 870.57 96.4887C870.972 97.231 871.174 98.0739 871.174 99.0175C871.174 99.9611 870.972 100.804 870.57 101.546C870.18 102.276 869.639 102.855 868.947 103.282C868.255 103.698 867.45 103.905 866.531 103.905C865.802 103.905 865.154 103.76 864.588 103.471C864.034 103.182 863.594 102.773 863.267 102.244V107.83H861.266ZM866.192 102.169C867.047 102.169 867.752 101.88 868.305 101.301C868.859 100.71 869.136 99.9422 869.136 98.9986C869.136 98.3821 869.01 97.8349 868.758 97.3568C868.507 96.8787 868.161 96.5076 867.72 96.2434C867.28 95.9666 866.77 95.8282 866.192 95.8282C865.336 95.8282 864.632 96.1239 864.078 96.7152C863.537 97.3065 863.267 98.0676 863.267 98.9986C863.267 99.9422 863.537 100.71 864.078 101.301C864.632 101.88 865.336 102.169 866.192 102.169ZM873.337 107.83V94.3185H875.13L875.338 95.7716C875.64 95.3313 876.055 94.9413 876.583 94.6016C877.112 94.2619 877.791 94.0921 878.621 94.0921C879.527 94.0921 880.326 94.3059 881.018 94.7337C881.71 95.1614 882.251 95.7464 882.641 96.4887C883.044 97.231 883.245 98.0739 883.245 99.0175C883.245 99.9611 883.044 100.804 882.641 101.546C882.251 102.276 881.71 102.855 881.018 103.282C880.326 103.698 879.521 103.905 878.602 103.905C877.873 103.905 877.225 103.76 876.659 103.471C876.105 103.182 875.665 102.773 875.338 102.244V107.83H873.337ZM878.263 102.169C879.118 102.169 879.823 101.88 880.376 101.301C880.93 100.71 881.207 99.9422 881.207 98.9986C881.207 98.3821 881.081 97.8349 880.829 97.3568C880.578 96.8787 880.232 96.5076 879.791 96.2434C879.351 95.9666 878.842 95.8282 878.263 95.8282C877.407 95.8282 876.703 96.1239 876.149 96.7152C875.608 97.3065 875.338 98.0676 875.338 98.9986C875.338 99.9422 875.608 100.71 876.149 101.301C876.703 101.88 877.407 102.169 878.263 102.169ZM889.787 103.905C888.893 103.905 888.088 103.704 887.371 103.301C886.666 102.886 886.107 102.314 885.691 101.584C885.276 100.842 885.069 99.9799 885.069 98.9986C885.069 98.0173 885.276 97.1618 885.691 96.4321C886.119 95.6898 886.692 95.1174 887.409 94.7148C888.126 94.2996 888.925 94.0921 889.805 94.0921C890.699 94.0921 891.498 94.2996 892.202 94.7148C892.919 95.1174 893.485 95.6898 893.901 96.4321C894.328 97.1618 894.542 98.0173 894.542 98.9986C894.542 99.9799 894.328 100.842 893.901 101.584C893.485 102.314 892.919 102.886 892.202 103.301C891.485 103.704 890.68 103.905 889.787 103.905ZM889.787 102.188C890.265 102.188 890.705 102.068 891.108 101.829C891.523 101.59 891.856 101.238 892.108 100.773C892.359 100.294 892.485 99.7031 892.485 98.9986C892.485 98.2941 892.359 97.7091 892.108 97.2436C891.869 96.7655 891.542 96.4069 891.126 96.1679C890.724 95.9289 890.284 95.8093 889.805 95.8093C889.327 95.8093 888.881 95.9289 888.466 96.1679C888.063 96.4069 887.736 96.7655 887.484 97.2436C887.233 97.7091 887.107 98.2941 887.107 98.9986C887.107 99.7031 887.233 100.294 887.484 100.773C887.736 101.238 888.063 101.59 888.466 101.829C888.868 102.068 889.308 102.188 889.787 102.188ZM896.705 103.679V94.3185H898.498L898.668 96.0924C898.995 95.476 899.448 94.9916 900.027 94.6393C900.618 94.2745 901.329 94.0921 902.159 94.0921V96.1868H901.612C901.058 96.1868 900.561 96.2811 900.121 96.4698C899.693 96.646 899.347 96.9542 899.083 97.3945C898.832 97.8223 898.706 98.4199 898.706 99.1873V103.679H896.705ZM907.8 103.679C906.881 103.679 906.151 103.459 905.611 103.018C905.07 102.565 904.799 101.766 904.799 100.622V95.9981H903.195V94.3185H904.799L905.044 91.9407H906.799V94.3185H909.441V95.9981H906.799V100.622C906.799 101.137 906.906 101.496 907.12 101.697C907.347 101.886 907.73 101.98 908.271 101.98H909.347V103.679H907.8Z" fill="#333333"/>
<rect x="751.283" y="51.1795" width="194.218" height="91.9979" rx="14.5467" stroke="#E0E0E0" stroke-width="2.35892"/>
<rect x="751.283" y="183.279" width="194.218" height="91.9979" rx="14.5467" fill="white"/>
<path d="M789.726 236.005C788.418 236.005 787.286 235.722 786.329 235.156C785.386 234.577 784.656 233.778 784.14 232.759C783.624 231.727 783.367 230.538 783.367 229.192C783.367 227.833 783.624 226.645 784.14 225.626C784.656 224.594 785.386 223.789 786.329 223.21C787.286 222.631 788.418 222.342 789.726 222.342C791.274 222.342 792.538 222.719 793.519 223.474C794.501 224.229 795.123 225.286 795.388 226.645H793.161C792.985 225.877 792.607 225.267 792.029 224.814C791.45 224.361 790.676 224.135 789.707 224.135C788.386 224.135 787.342 224.588 786.575 225.493C785.807 226.387 785.424 227.62 785.424 229.192C785.424 230.752 785.807 231.979 786.575 232.872C787.342 233.765 788.386 234.212 789.707 234.212C790.676 234.212 791.45 233.998 792.029 233.57C792.607 233.143 792.985 232.558 793.161 231.815H795.388C795.123 233.124 794.501 234.149 793.519 234.891C792.538 235.634 791.274 236.005 789.726 236.005ZM797.511 235.778V222.191H799.511V235.778H797.511ZM803.177 224.644C802.799 224.644 802.485 224.531 802.233 224.305C801.994 224.065 801.875 223.77 801.875 223.418C801.875 223.065 801.994 222.776 802.233 222.549C802.485 222.31 802.799 222.191 803.177 222.191C803.554 222.191 803.862 222.31 804.101 222.549C804.353 222.776 804.479 223.065 804.479 223.418C804.479 223.77 804.353 224.065 804.101 224.305C803.862 224.531 803.554 224.644 803.177 224.644ZM802.177 235.778V226.418H804.177V235.778H802.177ZM811.252 236.005C810.334 236.005 809.51 235.797 808.78 235.382C808.063 234.967 807.497 234.394 807.082 233.665C806.679 232.922 806.478 232.067 806.478 231.098C806.478 230.129 806.679 229.28 807.082 228.551C807.497 227.808 808.063 227.23 808.78 226.814C809.51 226.399 810.334 226.192 811.252 226.192C812.41 226.192 813.379 226.494 814.159 227.097C814.951 227.701 815.461 228.519 815.687 229.551H813.592C813.467 229.035 813.19 228.632 812.762 228.343C812.334 228.054 811.831 227.909 811.252 227.909C810.762 227.909 810.309 228.035 809.894 228.286C809.478 228.525 809.145 228.884 808.893 229.362C808.642 229.828 808.516 230.406 808.516 231.098C808.516 231.79 808.642 232.375 808.893 232.853C809.145 233.319 809.478 233.677 809.894 233.929C810.309 234.181 810.762 234.306 811.252 234.306C811.831 234.306 812.334 234.162 812.762 233.872C813.19 233.583 813.467 233.174 813.592 232.646H815.687C815.473 233.652 814.97 234.464 814.177 235.08C813.385 235.697 812.41 236.005 811.252 236.005ZM817.857 235.778V222.191H819.857V230.287L823.443 226.418H825.839L821.857 230.664L826.424 235.778H823.895L819.857 230.985V235.778H817.857ZM833.861 224.644C833.484 224.644 833.169 224.531 832.918 224.305C832.679 224.065 832.559 223.77 832.559 223.418C832.559 223.065 832.679 222.776 832.918 222.549C833.169 222.31 833.484 222.191 833.861 222.191C834.239 222.191 834.547 222.31 834.786 222.549C835.038 222.776 835.163 223.065 835.163 223.418C835.163 223.77 835.038 224.065 834.786 224.305C834.547 224.531 834.239 224.644 833.861 224.644ZM832.861 235.778V226.418H834.861V235.778H832.861ZM837.502 235.778V226.418H839.276L839.427 228.06C839.716 227.481 840.138 227.028 840.691 226.701C841.257 226.362 841.905 226.192 842.635 226.192C843.767 226.192 844.654 226.544 845.296 227.248C845.95 227.953 846.277 229.003 846.277 230.4V235.778H844.296V230.608C844.296 228.796 843.553 227.89 842.069 227.89C841.327 227.89 840.71 228.154 840.22 228.683C839.741 229.211 839.502 229.966 839.502 230.947V235.778H837.502ZM852.558 235.778C851.64 235.778 850.91 235.558 850.369 235.118C849.828 234.665 849.558 233.866 849.558 232.721V228.098H847.954V226.418H849.558L849.803 224.04H851.558V226.418H854.2V228.098H851.558V232.721C851.558 233.237 851.665 233.596 851.879 233.797C852.106 233.986 852.489 234.08 853.03 234.08H854.106V235.778H852.558ZM860.401 236.005C859.508 236.005 858.703 235.803 857.986 235.401C857.281 234.986 856.721 234.413 856.306 233.684C855.891 232.941 855.684 232.08 855.684 231.098C855.684 230.117 855.891 229.261 856.306 228.532C856.734 227.789 857.307 227.217 858.024 226.814C858.741 226.399 859.54 226.192 860.42 226.192C861.314 226.192 862.112 226.399 862.817 226.814C863.534 227.217 864.1 227.789 864.515 228.532C864.943 229.261 865.157 230.117 865.157 231.098C865.157 232.08 864.943 232.941 864.515 233.684C864.1 234.413 863.534 234.986 862.817 235.401C862.1 235.803 861.295 236.005 860.401 236.005ZM860.401 234.287C860.879 234.287 861.32 234.168 861.722 233.929C862.138 233.69 862.471 233.338 862.723 232.872C862.974 232.394 863.1 231.803 863.1 231.098C863.1 230.394 862.974 229.809 862.723 229.343C862.484 228.865 862.156 228.507 861.741 228.268C861.339 228.028 860.898 227.909 860.42 227.909C859.942 227.909 859.496 228.028 859.08 228.268C858.678 228.507 858.351 228.865 858.099 229.343C857.847 229.809 857.722 230.394 857.722 231.098C857.722 231.803 857.847 232.394 858.099 232.872C858.351 233.338 858.678 233.69 859.08 233.929C859.483 234.168 859.923 234.287 860.401 234.287ZM875.245 236.005C874.453 236.005 873.799 235.873 873.283 235.608C872.767 235.344 872.383 234.998 872.132 234.571C871.88 234.13 871.754 233.652 871.754 233.136C871.754 232.231 872.106 231.513 872.811 230.985C873.515 230.457 874.522 230.192 875.83 230.192H878.284V230.023C878.284 229.293 878.082 228.746 877.68 228.381C877.29 228.016 876.78 227.833 876.151 227.833C875.598 227.833 875.113 227.972 874.698 228.249C874.295 228.513 874.05 228.909 873.962 229.438H871.962C872.025 228.758 872.251 228.179 872.641 227.701C873.044 227.211 873.547 226.84 874.151 226.588C874.767 226.324 875.44 226.192 876.17 226.192C877.478 226.192 878.491 226.538 879.208 227.23C879.925 227.909 880.284 228.84 880.284 230.023V235.778H878.548L878.378 234.174C878.114 234.69 877.73 235.124 877.227 235.476C876.724 235.829 876.063 236.005 875.245 236.005ZM875.642 234.382C876.183 234.382 876.636 234.256 877 234.004C877.378 233.74 877.667 233.394 877.868 232.966C878.082 232.539 878.214 232.067 878.265 231.551H876.038C875.245 231.551 874.679 231.69 874.34 231.966C874.012 232.243 873.849 232.589 873.849 233.004C873.849 233.432 874.006 233.772 874.321 234.023C874.648 234.262 875.088 234.382 875.642 234.382ZM888.56 224.644C888.183 224.644 887.868 224.531 887.616 224.305C887.377 224.065 887.258 223.77 887.258 223.418C887.258 223.065 887.377 222.776 887.616 222.549C887.868 222.31 888.183 222.191 888.56 222.191C888.937 222.191 889.246 222.31 889.485 222.549C889.736 222.776 889.862 223.065 889.862 223.418C889.862 223.77 889.736 224.065 889.485 224.305C889.246 224.531 888.937 224.644 888.56 224.644ZM885.578 239.93V238.232H886.314C886.755 238.232 887.069 238.137 887.258 237.949C887.447 237.772 887.541 237.47 887.541 237.043V226.418H889.541V237.062C889.541 238.081 889.283 238.81 888.768 239.251C888.252 239.704 887.535 239.93 886.616 239.93H885.578ZM896.559 236.005C895.666 236.005 894.861 235.803 894.144 235.401C893.439 234.986 892.879 234.413 892.464 233.684C892.049 232.941 891.841 232.08 891.841 231.098C891.841 230.117 892.049 229.261 892.464 228.532C892.892 227.789 893.464 227.217 894.181 226.814C894.899 226.399 895.697 226.192 896.578 226.192C897.471 226.192 898.27 226.399 898.975 226.814C899.692 227.217 900.258 227.789 900.673 228.532C901.101 229.261 901.315 230.117 901.315 231.098C901.315 232.08 901.101 232.941 900.673 233.684C900.258 234.413 899.692 234.986 898.975 235.401C898.258 235.803 897.452 236.005 896.559 236.005ZM896.559 234.287C897.037 234.287 897.478 234.168 897.88 233.929C898.295 233.69 898.629 233.338 898.88 232.872C899.132 232.394 899.258 231.803 899.258 231.098C899.258 230.394 899.132 229.809 898.88 229.343C898.641 228.865 898.314 228.507 897.899 228.268C897.497 228.028 897.056 227.909 896.578 227.909C896.1 227.909 895.653 228.028 895.238 228.268C894.836 228.507 894.509 228.865 894.257 229.343C894.005 229.809 893.88 230.394 893.88 231.098C893.88 231.803 894.005 232.394 894.257 232.872C894.509 233.338 894.836 233.69 895.238 233.929C895.641 234.168 896.081 234.287 896.559 234.287ZM908.743 236.005C908.014 236.005 907.366 235.86 906.799 235.571C906.246 235.281 905.806 234.872 905.478 234.344L905.271 235.778H903.478V222.191H905.478V227.871C905.78 227.431 906.196 227.041 906.724 226.701C907.252 226.362 907.932 226.192 908.762 226.192C909.668 226.192 910.467 226.406 911.159 226.833C911.851 227.261 912.392 227.846 912.782 228.588C913.184 229.331 913.386 230.174 913.386 231.117C913.386 232.061 913.184 232.904 912.782 233.646C912.392 234.376 911.851 234.954 911.159 235.382C910.467 235.797 909.662 236.005 908.743 236.005ZM908.404 234.269C909.259 234.269 909.964 233.979 910.517 233.401C911.071 232.809 911.347 232.042 911.347 231.098C911.347 230.482 911.222 229.934 910.97 229.456C910.718 228.978 910.372 228.607 909.932 228.343C909.492 228.066 908.982 227.928 908.404 227.928C907.548 227.928 906.843 228.223 906.29 228.815C905.749 229.406 905.478 230.167 905.478 231.098C905.478 232.042 905.749 232.809 906.29 233.401C906.843 233.979 907.548 234.269 908.404 234.269Z" fill="#333333"/>
<rect x="751.283" y="183.279" width="194.218" height="91.9979" rx="14.5467" stroke="#E0E0E0" stroke-width="2.35892"/>
<path d="M474.896 159.689C472.93 159.689 471.357 161.262 471.357 163.228C471.357 165.194 472.93 166.766 474.896 166.766C476.862 166.766 478.434 165.194 478.434 163.228C478.434 161.262 476.862 159.689 474.896 159.689Z" fill="white"/>
<path d="M513.473 164.062C513.933 163.601 513.933 162.854 513.473 162.394L505.967 154.888C505.506 154.427 504.759 154.427 504.298 154.888C503.838 155.348 503.838 156.095 504.298 156.556L510.971 163.228L504.298 169.9C503.838 170.36 503.838 171.107 504.298 171.568C504.759 172.028 505.506 172.028 505.967 171.568L513.473 164.062ZM472.537 163.228C472.537 161.913 473.581 160.869 474.896 160.869V158.51C472.279 158.51 470.178 160.611 470.178 163.228H472.537ZM474.896 160.869C476.21 160.869 477.255 161.913 477.255 163.228H479.614C479.614 160.611 477.513 158.51 474.896 158.51V160.869ZM477.255 163.228C477.255 164.542 476.21 165.587 474.896 165.587V167.946C477.513 167.946 479.614 165.845 479.614 163.228H477.255ZM474.896 165.587C473.581 165.587 472.537 164.542 472.537 163.228H470.178C470.178 165.845 472.279 167.946 474.896 167.946V165.587ZM478.434 164.407H512.639V162.048H478.434V164.407Z" fill="#333333"/>
<path d="M712.361 159.689C710.395 159.689 708.822 161.262 708.822 163.228C708.822 165.193 710.395 166.766 712.361 166.766C714.326 166.766 715.899 165.193 715.899 163.228C715.899 161.262 714.326 159.689 712.361 159.689Z" fill="white"/>
<path d="M750.937 98.0117C751.398 97.5511 751.398 96.8043 750.937 96.3437L743.431 88.8377C742.971 88.3771 742.224 88.3771 741.763 88.8377C741.303 89.2983 741.303 90.0451 741.763 90.5057L748.435 97.1777L741.763 103.85C741.303 104.31 741.303 105.057 741.763 105.518C742.224 105.978 742.971 105.978 743.431 105.518L750.937 98.0117ZM710.002 163.228C710.002 161.913 711.046 160.869 712.361 160.869V158.51C709.743 158.51 707.643 160.61 707.643 163.228H710.002ZM712.361 160.869C713.675 160.869 714.72 161.913 714.72 163.228H717.078C717.078 160.61 714.978 158.51 712.361 158.51V160.869ZM714.72 163.228C714.72 164.542 713.675 165.586 712.361 165.586V167.945C714.978 167.945 717.078 165.845 717.078 163.228H714.72ZM712.361 165.586C711.046 165.586 710.002 164.542 710.002 163.228H707.643C707.643 165.845 709.743 167.945 712.361 167.945V165.586ZM732.411 147.895V112.904H730.053V147.895H732.411ZM746.958 98.3572H750.103V95.9983H746.958V98.3572ZM732.411 112.904C732.411 104.87 738.924 98.3572 746.958 98.3572V95.9983C737.621 95.9983 730.053 103.567 730.053 112.904H732.411ZM715.899 164.407C725.019 164.407 732.411 157.014 732.411 147.895H730.053C730.053 155.711 723.716 162.048 715.899 162.048V164.407Z" fill="#333333"/>
<path d="M712.361 159.689C710.395 159.689 708.822 161.262 708.822 163.228C708.822 165.194 710.395 166.766 712.361 166.766C714.326 166.766 715.899 165.194 715.899 163.228C715.899 161.262 714.326 159.689 712.361 159.689Z" fill="white"/>
<path d="M750.937 230.112C751.398 229.651 751.398 228.904 750.937 228.444L743.431 220.938C742.971 220.477 742.224 220.477 741.763 220.938C741.303 221.398 741.303 222.145 741.763 222.606L748.435 229.278L741.763 235.95C741.303 236.41 741.303 237.157 741.763 237.618C742.224 238.078 742.971 238.078 743.431 237.618L750.937 230.112ZM710.002 163.228C710.002 161.913 711.046 160.869 712.361 160.869V158.51C709.743 158.51 707.643 160.611 707.643 163.228H710.002ZM712.361 160.869C713.675 160.869 714.72 161.913 714.72 163.228H717.078C717.078 160.611 714.978 158.51 712.361 158.51V160.869ZM714.72 163.228C714.72 164.542 713.675 165.587 712.361 165.587V167.946C714.978 167.946 717.078 165.845 717.078 163.228H714.72ZM712.361 165.587C711.046 165.587 710.002 164.542 710.002 163.228H707.643C707.643 165.845 709.743 167.946 712.361 167.946V165.587ZM730.053 178.561V213.551H732.411V178.561H730.053ZM746.958 230.457H750.103V228.098H746.958V230.457ZM730.053 213.551C730.053 222.888 737.621 230.457 746.958 230.457V228.098C738.924 228.098 732.411 221.585 732.411 213.551H730.053ZM715.899 164.407C723.716 164.407 730.053 170.744 730.053 178.561H732.411C732.411 169.441 725.019 162.048 715.899 162.048V164.407Z" fill="#333333"/>
<path d="M946.681 93.6396C944.715 93.6396 943.143 95.2123 943.143 97.178C943.143 99.1438 944.715 100.716 946.681 100.716C948.647 100.716 950.219 99.1438 950.219 97.178C950.219 95.2123 948.647 93.6396 946.681 93.6396Z" fill="white"/>
<path d="M985.258 98.012C985.718 97.5514 985.718 96.8046 985.258 96.344L977.752 88.838C977.291 88.3774 976.544 88.3774 976.084 88.838C975.623 89.2986 975.623 90.0454 976.084 90.506L982.756 97.178L976.084 103.85C975.623 104.311 975.623 105.057 976.084 105.518C976.544 105.979 977.291 105.979 977.752 105.518L985.258 98.012ZM944.322 97.178C944.322 95.8637 945.367 94.8191 946.681 94.8191V92.4602C944.064 92.4602 941.963 94.5609 941.963 97.178H944.322ZM946.681 94.8191C947.995 94.8191 949.04 95.8637 949.04 97.178H951.399C951.399 94.5609 949.298 92.4602 946.681 92.4602V94.8191ZM949.04 97.178C949.04 98.4924 947.995 99.537 946.681 99.537V101.896C949.298 101.896 951.399 99.7952 951.399 97.178H949.04ZM946.681 99.537C945.367 99.537 944.322 98.4924 944.322 97.178H941.963C941.963 99.7952 944.064 101.896 946.681 101.896V99.537ZM950.219 98.3575H984.424V95.9986H950.219V98.3575Z" fill="#333333"/>
<path d="M848.392 178.561C846.426 178.561 844.854 180.133 844.854 182.099C844.854 184.065 846.426 185.638 848.392 185.638C850.358 185.638 851.93 184.065 851.93 182.099C851.93 180.133 850.358 178.561 848.392 178.561Z" fill="white"/>
<path d="M849.226 143.522C848.765 143.062 848.019 143.062 847.558 143.522L840.052 151.028C839.591 151.489 839.591 152.236 840.052 152.696C840.512 153.157 841.259 153.157 841.72 152.696L848.392 146.024L855.064 152.696C855.525 153.157 856.271 153.157 856.732 152.696C857.193 152.236 857.193 151.489 856.732 151.028L849.226 143.522ZM846.033 182.099C846.033 180.785 847.078 179.74 848.392 179.74V177.381C845.775 177.381 843.674 179.482 843.674 182.099H846.033ZM848.392 179.74C849.706 179.74 850.751 180.785 850.751 182.099H853.11C853.11 179.482 851.009 177.381 848.392 177.381V179.74ZM850.751 182.099C850.751 183.414 849.706 184.458 848.392 184.458V186.817C851.009 186.817 853.11 184.716 853.11 182.099H850.751ZM848.392 184.458C847.078 184.458 846.033 183.414 846.033 182.099H843.674C843.674 184.716 845.775 186.817 848.392 186.817V184.458ZM849.571 178.561V144.356H847.212V178.561H849.571Z" fill="#333333"/>
<path d="M240.576 159.689C238.611 159.689 237.038 161.262 237.038 163.228C237.038 165.194 238.611 166.766 240.576 166.766C242.542 166.766 244.115 165.194 244.115 163.228C244.115 161.262 242.542 159.689 240.576 159.689Z" fill="white"/>
<path d="M279.153 164.062C279.614 163.601 279.614 162.854 279.153 162.394L271.647 154.888C271.187 154.427 270.44 154.427 269.979 154.888C269.519 155.348 269.519 156.095 269.979 156.556L276.651 163.228L269.979 169.9C269.519 170.36 269.519 171.107 269.979 171.568C270.44 172.028 271.187 172.028 271.647 171.568L279.153 164.062ZM238.218 163.228C238.218 161.913 239.262 160.869 240.576 160.869V158.51C237.959 158.51 235.859 160.611 235.859 163.228H238.218ZM240.576 160.869C241.891 160.869 242.935 161.913 242.935 163.228H245.294C245.294 160.611 243.194 158.51 240.576 158.51V160.869ZM242.935 163.228C242.935 164.542 241.891 165.587 240.576 165.587V167.946C243.194 167.946 245.294 165.845 245.294 163.228H242.935ZM240.576 165.587C239.262 165.587 238.218 164.542 238.218 163.228H235.859C235.859 165.845 237.959 167.946 240.576 167.946V165.587ZM244.115 164.407H278.319V162.048H244.115V164.407Z" fill="#333333"/>
</svg>
