<svg width="1627" height="652" viewBox="0 0 1627 652" fill="none" xmlns="http://www.w3.org/2000/svg">
<rect width="1627" height="652" fill="white"/>
<rect x="257" y="337" width="270" height="72" rx="4" fill="#F6BD60"/>
<path d="M282.72 379H285.4V364.7H282.72V379ZM288.573 379H290.993V372.84C290.993 371.18 292.093 370.34 293.453 370.34C294.893 370.34 295.533 371.06 295.533 372.64V379H297.953V372.42C297.953 369.54 296.473 368.32 294.373 368.32C292.653 368.32 291.493 369.18 290.993 370.2V368.54H288.573V379ZM300.741 382.58H303.161V377.36C303.721 378.38 304.921 379.2 306.581 379.2C309.281 379.2 311.221 377.16 311.221 373.8V373.64C311.221 370.26 309.201 368.32 306.581 368.32C305.041 368.32 303.741 369.22 303.161 370.22V368.54H300.741V382.58ZM305.981 377.28C304.221 377.28 303.081 376.18 303.081 373.84V373.68C303.081 371.36 304.281 370.22 305.961 370.22C307.541 370.22 308.741 371.36 308.741 373.68V373.84C308.741 376.08 307.761 377.28 305.981 377.28ZM316.897 379.2C318.597 379.2 319.697 378.38 320.217 377.36V379H322.637V368.54H320.217V374.76C320.217 376.42 319.077 377.26 317.777 377.26C316.377 377.26 315.717 376.54 315.717 374.96V368.54H313.297V375.24C313.297 378.02 314.837 379.2 316.897 379.2ZM329.066 379.18C329.806 379.18 330.326 379.06 330.706 378.92V377C330.366 377.14 330.006 377.2 329.526 377.2C328.766 377.2 328.326 376.78 328.326 375.86V370.36H330.626V368.54H328.326V366.24H325.906V368.54H324.506V370.36H325.906V376.08C325.906 378.06 326.986 379.18 329.066 379.18ZM343.495 379.2C346.195 379.2 348.135 377.16 348.135 373.8V373.64C348.135 370.26 346.115 368.32 343.495 368.32C341.955 368.32 340.655 369.22 340.075 370.22V363.7H337.655V379H340.075V377.32C340.635 378.38 341.835 379.2 343.495 379.2ZM342.895 377.28C341.135 377.28 339.995 376.18 339.995 373.84V373.68C339.995 371.36 341.195 370.22 342.875 370.22C344.455 370.22 345.655 371.36 345.655 373.68V373.84C345.655 376.08 344.675 377.28 342.895 377.28ZM353.051 379.2C354.651 379.2 355.571 378.62 356.251 377.72V379H358.631V372.14C358.631 369.28 356.791 368.32 354.451 368.32C352.111 368.32 350.171 369.34 349.971 371.78H352.311C352.431 370.74 353.051 370.14 354.311 370.14C355.731 370.14 356.211 370.84 356.211 372.24V372.78H354.911C351.911 372.78 349.551 373.66 349.551 376.1C349.551 378.28 351.131 379.2 353.051 379.2ZM353.631 377.46C352.431 377.46 351.951 376.88 351.951 376C351.951 374.72 353.131 374.3 354.971 374.3H356.211V375.34C356.211 376.68 355.111 377.46 353.631 377.46ZM364.985 379.2C367.665 379.2 369.165 377.98 369.165 375.86C369.165 373.64 367.705 373.04 365.245 372.66C363.585 372.38 363.085 372.08 363.085 371.32C363.085 370.58 363.705 370.08 364.745 370.08C365.865 370.08 366.405 370.52 366.605 371.48H368.845C368.585 369.12 366.885 368.32 364.745 368.32C362.785 368.32 360.825 369.36 360.825 371.46C360.825 373.42 361.845 374.2 364.605 374.64C366.145 374.9 366.845 375.22 366.845 376.08C366.845 376.96 366.265 377.42 364.965 377.42C363.545 377.42 363.005 376.8 362.885 375.74H360.605C360.705 377.96 362.285 379.2 364.985 379.2ZM371.348 379H373.768V368.54H371.348V379ZM372.528 366.82C373.328 366.82 373.968 366.22 373.968 365.44C373.968 364.64 373.328 364.04 372.528 364.04C371.728 364.04 371.088 364.64 371.088 365.44C371.088 366.22 371.728 366.82 372.528 366.82ZM381.297 379.2C384.137 379.2 385.957 377.5 386.137 375.1H383.917C383.777 376.58 382.677 377.34 381.397 377.34C379.617 377.34 378.497 376.14 378.497 373.86V373.7C378.497 371.54 379.677 370.26 381.337 370.26C382.617 370.26 383.537 370.84 383.737 372.24H386.077C385.797 369.36 383.617 368.32 381.297 368.32C378.377 368.32 376.017 370.42 376.017 373.74V373.9C376.017 377.24 378.297 379.2 381.297 379.2ZM393.047 379H395.467V368.54H393.047V379ZM394.227 366.82C395.027 366.82 395.667 366.22 395.667 365.44C395.667 364.64 395.027 364.04 394.227 364.04C393.427 364.04 392.787 364.64 392.787 365.44C392.787 366.22 393.427 366.82 394.227 366.82ZM398.417 379H400.837V372.84C400.837 371.18 401.937 370.34 403.297 370.34C404.737 370.34 405.377 371.06 405.377 372.64V379H407.797V372.42C407.797 369.54 406.317 368.32 404.217 368.32C402.497 368.32 401.337 369.18 400.837 370.2V368.54H398.417V379ZM411.005 379H413.425V370.36H415.805V368.54H413.425V367.04C413.425 366.14 413.825 365.5 414.805 365.5C415.245 365.5 415.625 365.58 415.905 365.68V363.8C415.465 363.66 415.105 363.6 414.525 363.6C412.285 363.6 411.005 364.84 411.005 367.14V368.54H409.585V370.36H411.005V379ZM422.12 377.32C420.28 377.32 419.22 375.98 419.22 373.84V373.68C419.22 371.52 420.32 370.22 422.12 370.22C423.92 370.22 425 371.54 425 373.7V373.84C425 375.98 423.92 377.32 422.12 377.32ZM422.1 379.2C425.18 379.2 427.48 377.08 427.48 373.82V373.66C427.48 370.46 425.18 368.32 422.12 368.32C419.04 368.32 416.74 370.48 416.74 373.72V373.88C416.74 377.06 419.02 379.2 422.1 379.2ZM429.667 379H432.087V373.56C432.087 371.34 433.367 370.66 435.487 370.64V368.38C433.727 368.4 432.747 369.18 432.087 370.5V368.54H429.667V379ZM437.616 379H440.036V372.74C440.036 371.14 441.136 370.34 442.336 370.34C443.516 370.34 444.196 371 444.196 372.54V379H446.616V372.74C446.616 371.14 447.716 370.34 448.916 370.34C450.116 370.34 450.776 371 450.776 372.54V379H453.196V372.38C453.196 369.5 451.636 368.32 449.716 368.32C448.416 368.32 446.976 368.9 446.176 370.2C445.656 368.9 444.576 368.32 443.216 368.32C441.676 368.32 440.536 369.16 440.036 370.14V368.54H437.616V379ZM458.715 379.2C460.315 379.2 461.235 378.62 461.915 377.72V379H464.295V372.14C464.295 369.28 462.455 368.32 460.115 368.32C457.775 368.32 455.835 369.34 455.635 371.78H457.975C458.095 370.74 458.715 370.14 459.975 370.14C461.395 370.14 461.875 370.84 461.875 372.24V372.78H460.575C457.575 372.78 455.215 373.66 455.215 376.1C455.215 378.28 456.795 379.2 458.715 379.2ZM459.295 377.46C458.095 377.46 457.615 376.88 457.615 376C457.615 374.72 458.795 374.3 460.635 374.3H461.875V375.34C461.875 376.68 460.775 377.46 459.295 377.46ZM470.629 379.18C471.369 379.18 471.889 379.06 472.269 378.92V377C471.929 377.14 471.569 377.2 471.089 377.2C470.329 377.2 469.889 376.78 469.889 375.86V370.36H472.189V368.54H469.889V366.24H467.469V368.54H466.069V370.36H467.469V376.08C467.469 378.06 468.549 379.18 470.629 379.18ZM474.512 379H476.932V368.54H474.512V379ZM475.692 366.82C476.492 366.82 477.132 366.22 477.132 365.44C477.132 364.64 476.492 364.04 475.692 364.04C474.892 364.04 474.252 364.64 474.252 365.44C474.252 366.22 474.892 366.82 475.692 366.82ZM484.561 377.32C482.721 377.32 481.661 375.98 481.661 373.84V373.68C481.661 371.52 482.761 370.22 484.561 370.22C486.361 370.22 487.441 371.54 487.441 373.7V373.84C487.441 375.98 486.361 377.32 484.561 377.32ZM484.541 379.2C487.621 379.2 489.921 377.08 489.921 373.82V373.66C489.921 370.46 487.621 368.32 484.561 368.32C481.481 368.32 479.181 370.48 479.181 373.72V373.88C479.181 377.06 481.461 379.2 484.541 379.2ZM492.108 379H494.528V372.84C494.528 371.18 495.628 370.34 496.988 370.34C498.428 370.34 499.068 371.06 499.068 372.64V379H501.488V372.42C501.488 369.54 500.008 368.32 497.908 368.32C496.188 368.32 495.028 369.18 494.528 370.2V368.54H492.108V379Z" fill="#333333"/>
<path d="M217 373C216.448 373 216 373.448 216 374C216 374.552 216.448 375 217 375L217 373ZM249.707 374.707C250.098 374.317 250.098 373.683 249.707 373.293L243.343 366.929C242.953 366.538 242.319 366.538 241.929 366.929C241.538 367.319 241.538 367.953 241.929 368.343L247.586 374L241.929 379.657C241.538 380.047 241.538 380.681 241.929 381.071C242.319 381.462 242.953 381.462 243.343 381.071L249.707 374.707ZM217 375L249 375L249 373L217 373L217 375Z" fill="black"/>
<path d="M535 373C534.448 373 534 373.448 534 374C534 374.552 534.448 375 535 375L535 373ZM567.707 374.707C568.098 374.317 568.098 373.683 567.707 373.293L561.343 366.929C560.953 366.538 560.319 366.538 559.929 366.929C559.538 367.319 559.538 367.953 559.929 368.343L565.586 374L559.929 379.657C559.538 380.047 559.538 380.681 559.929 381.071C560.319 381.462 560.953 381.462 561.343 381.071L567.707 374.707ZM535 375L567 375L567 373L535 373L535 375Z" fill="black"/>
<path d="M779 373C778.448 373 778 373.448 778 374C778 374.552 778.448 375 779 375L779 373ZM811.707 374.707C812.098 374.317 812.098 373.683 811.707 373.293L805.343 366.929C804.953 366.538 804.319 366.538 803.929 366.929C803.538 367.319 803.538 367.953 803.929 368.343L809.586 374L803.929 379.657C803.538 380.047 803.538 380.681 803.929 381.071C804.319 381.462 804.953 381.462 805.343 381.071L811.707 374.707ZM779 375L811 375L811 373L779 373L779 375Z" fill="black"/>
<path d="M1039 373C1038.45 373 1038 373.448 1038 374C1038 374.552 1038.45 375 1039 375L1039 373ZM1071.71 374.707C1072.1 374.317 1072.1 373.683 1071.71 373.293L1065.34 366.929C1064.95 366.538 1064.32 366.538 1063.93 366.929C1063.54 367.319 1063.54 367.953 1063.93 368.343L1069.59 374L1063.93 379.657C1063.54 380.047 1063.54 380.681 1063.93 381.071C1064.32 381.462 1064.95 381.462 1065.34 381.071L1071.71 374.707ZM1039 375L1071 375L1071 373L1039 373L1039 375Z" fill="black"/>
<path d="M1039 150C1038.45 150 1038 150.448 1038 151C1038 151.552 1038.45 152 1039 152L1039 150ZM1071.71 151.707C1072.1 151.317 1072.1 150.683 1071.71 150.293L1065.34 143.929C1064.95 143.538 1064.32 143.538 1063.93 143.929C1063.54 144.319 1063.54 144.953 1063.93 145.343L1069.59 151L1063.93 156.657C1063.54 157.047 1063.54 157.681 1063.93 158.071C1064.32 158.462 1064.95 158.462 1065.34 158.071L1071.71 151.707ZM1039 152L1071 152L1071 150L1039 150L1039 152Z" fill="black"/>
<path d="M1039 600C1038.45 600 1038 600.448 1038 601C1038 601.552 1038.45 602 1039 602L1039 600ZM1071.71 601.707C1072.1 601.317 1072.1 600.683 1071.71 600.293L1065.34 593.929C1064.95 593.538 1064.32 593.538 1063.93 593.929C1063.54 594.319 1063.54 594.953 1063.93 595.343L1069.59 601L1063.93 606.657C1063.54 607.047 1063.54 607.681 1063.93 608.071C1064.32 608.462 1064.95 608.462 1065.34 608.071L1071.71 601.707ZM1039 602L1071 602L1071 600L1039 600L1039 602Z" fill="black"/>
<rect x="7" y="337" width="202" height="72" rx="4" fill="#F6BD60"/>
<path d="M37.5 379.2C40.66 379.2 42.76 377.26 42.76 374.78C42.76 371.92 41.02 370.96 37.66 370.5C35.18 370.14 34.7 369.56 34.7 368.4C34.7 367.3 35.54 366.52 37.16 366.52C38.8 366.52 39.66 367.16 39.92 368.66H42.36C42.08 365.92 40.24 364.52 37.16 364.52C34.18 364.52 32.18 366.28 32.18 368.62C32.18 371.3 33.8 372.34 37.22 372.8C39.54 373.18 40.2 373.68 40.2 375C40.2 376.32 39.08 377.2 37.5 377.2C35.08 377.2 34.5 376 34.32 374.56H31.76C31.96 377.26 33.6 379.2 37.5 379.2ZM49.7353 379.2C52.4153 379.2 54.1953 378 54.5353 375.8H52.1953C52.0153 376.82 51.2553 377.4 49.7953 377.4C47.9953 377.4 46.9953 376.28 46.9153 374.3H54.5753V373.6C54.5753 369.86 52.2353 368.32 49.6353 368.32C46.6553 368.32 44.4353 370.48 44.4353 373.72V373.88C44.4353 377.18 46.6553 379.2 49.7353 379.2ZM46.9553 372.68C47.1953 371.06 48.1753 370.08 49.6353 370.08C51.1353 370.08 52.0553 370.88 52.1753 372.68H46.9553ZM56.7969 379H59.2169V363.7H56.7969V379ZM66.7666 379.2C69.4466 379.2 71.2266 378 71.5666 375.8H69.2266C69.0466 376.82 68.2866 377.4 66.8266 377.4C65.0266 377.4 64.0266 376.28 63.9466 374.3H71.6066V373.6C71.6066 369.86 69.2666 368.32 66.6666 368.32C63.6866 368.32 61.4666 370.48 61.4666 373.72V373.88C61.4666 377.18 63.6866 379.2 66.7666 379.2ZM63.9866 372.68C64.2266 371.06 65.2066 370.08 66.6666 370.08C68.1666 370.08 69.0866 370.88 69.2066 372.68H63.9866ZM78.3481 379.2C81.1881 379.2 83.0081 377.5 83.1881 375.1H80.9681C80.8281 376.58 79.7281 377.34 78.4481 377.34C76.6681 377.34 75.5481 376.14 75.5481 373.86V373.7C75.5481 371.54 76.7281 370.26 78.3881 370.26C79.6681 370.26 80.5881 370.84 80.7881 372.24H83.1281C82.8481 369.36 80.6681 368.32 78.3481 368.32C75.4281 368.32 73.0681 370.42 73.0681 373.74V373.9C73.0681 377.24 75.3481 379.2 78.3481 379.2ZM88.832 379.18C89.572 379.18 90.092 379.06 90.472 378.92V377C90.132 377.14 89.772 377.2 89.292 377.2C88.532 377.2 88.092 376.78 88.092 375.86V370.36H90.392V368.54H88.092V366.24H85.672V368.54H84.272V370.36H85.672V376.08C85.672 378.06 86.752 379.18 88.832 379.18ZM97.4805 379H99.9005V363.7H97.4805V379ZM105.59 379.2C107.19 379.2 108.11 378.62 108.79 377.72V379H111.17V372.14C111.17 369.28 109.33 368.32 106.99 368.32C104.65 368.32 102.71 369.34 102.51 371.78H104.85C104.97 370.74 105.59 370.14 106.85 370.14C108.27 370.14 108.75 370.84 108.75 372.24V372.78H107.45C104.45 372.78 102.09 373.66 102.09 376.1C102.09 378.28 103.67 379.2 105.59 379.2ZM106.17 377.46C104.97 377.46 104.49 376.88 104.49 376C104.49 374.72 105.67 374.3 107.51 374.3H108.75V375.34C108.75 376.68 107.65 377.46 106.17 377.46ZM113.944 379H116.364V372.84C116.364 371.18 117.464 370.34 118.824 370.34C120.264 370.34 120.904 371.06 120.904 372.64V379H123.324V372.42C123.324 369.54 121.844 368.32 119.744 368.32C118.024 368.32 116.864 369.18 116.364 370.2V368.54H113.944V379ZM130.572 382.84C133.812 382.84 135.872 381.3 135.892 378.22V368.54H133.472V370.14C132.872 369.1 131.832 368.32 130.112 368.32C127.412 368.32 125.412 370.52 125.412 373.46V373.6C125.412 376.62 127.432 378.58 130.052 378.58C131.592 378.58 132.892 377.64 133.472 376.64V378.18C133.472 380.06 132.432 381 130.552 381C128.972 381 128.172 380.4 127.972 379.36H125.532C125.812 381.36 127.292 382.84 130.572 382.84ZM130.652 376.72C129.092 376.72 127.892 375.52 127.892 373.58V373.42C127.892 371.52 128.932 370.22 130.732 370.22C132.472 370.22 133.552 371.4 133.552 373.38V373.52C133.552 375.52 132.332 376.72 130.652 376.72ZM142.268 379.2C143.968 379.2 145.068 378.38 145.588 377.36V379H148.008V368.54H145.588V374.76C145.588 376.42 144.448 377.26 143.148 377.26C141.748 377.26 141.088 376.54 141.088 374.96V368.54H138.668V375.24C138.668 378.02 140.208 379.2 142.268 379.2ZM153.618 379.2C155.218 379.2 156.138 378.62 156.818 377.72V379H159.198V372.14C159.198 369.28 157.358 368.32 155.018 368.32C152.678 368.32 150.738 369.34 150.538 371.78H152.878C152.998 370.74 153.618 370.14 154.878 370.14C156.298 370.14 156.778 370.84 156.778 372.24V372.78H155.478C152.478 372.78 150.118 373.66 150.118 376.1C150.118 378.28 151.698 379.2 153.618 379.2ZM154.198 377.46C152.998 377.46 152.518 376.88 152.518 376C152.518 374.72 153.698 374.3 155.538 374.3H156.778V375.34C156.778 376.68 155.678 377.46 154.198 377.46ZM166.431 382.84C169.671 382.84 171.731 381.3 171.751 378.22V368.54H169.331V370.14C168.731 369.1 167.691 368.32 165.971 368.32C163.271 368.32 161.271 370.52 161.271 373.46V373.6C161.271 376.62 163.291 378.58 165.911 378.58C167.451 378.58 168.751 377.64 169.331 376.64V378.18C169.331 380.06 168.291 381 166.411 381C164.831 381 164.031 380.4 163.831 379.36H161.391C161.671 381.36 163.151 382.84 166.431 382.84ZM166.511 376.72C164.951 376.72 163.751 375.52 163.751 373.58V373.42C163.751 371.52 164.791 370.22 166.591 370.22C168.331 370.22 169.411 371.4 169.411 373.38V373.52C169.411 375.52 168.191 376.72 166.511 376.72ZM179.228 379.2C181.908 379.2 183.688 378 184.028 375.8H181.688C181.508 376.82 180.748 377.4 179.288 377.4C177.488 377.4 176.488 376.28 176.408 374.3H184.068V373.6C184.068 369.86 181.728 368.32 179.128 368.32C176.148 368.32 173.928 370.48 173.928 373.72V373.88C173.928 377.18 176.148 379.2 179.228 379.2ZM176.448 372.68C176.688 371.06 177.668 370.08 179.128 370.08C180.628 370.08 181.548 370.88 181.668 372.68H176.448Z" fill="#333333"/>
<path d="M259.8 444H261.46V431.74L268.68 444H270.68V429.7H269.02V441.52L262.06 429.7H259.8V444ZM276.773 444.18C278.313 444.18 279.253 443.66 280.033 442.68V444H281.693V437.1C281.693 434.18 279.873 433.36 277.873 433.36C275.853 433.36 273.953 434.24 273.733 436.62H275.393C275.553 435.34 276.353 434.74 277.793 434.74C279.393 434.74 280.033 435.44 280.033 437.1V437.86H278.533C275.853 437.86 273.293 438.68 273.293 441.1C273.293 443.24 274.833 444.18 276.773 444.18ZM276.933 442.86C275.473 442.86 274.953 442.18 274.953 441.1C274.953 439.56 276.493 439.04 278.593 439.04H280.033V440.34C280.033 441.96 278.693 442.86 276.933 442.86ZM284.953 444H286.613V437.6C286.613 435.72 288.013 434.8 289.373 434.8C290.813 434.8 291.593 435.56 291.593 437.4V444H293.253V437.6C293.253 435.72 294.653 434.8 296.013 434.8C297.453 434.8 298.233 435.56 298.233 437.4V444H299.893V437.52C299.893 434.48 298.253 433.36 296.373 433.36C295.073 433.36 293.513 433.96 292.793 435.32C292.253 433.92 291.073 433.36 289.733 433.36C288.233 433.36 287.093 434.16 286.613 435.14V433.54H284.953V444ZM307.437 444.18C309.797 444.18 311.537 443.08 311.897 440.98H310.237C310.017 442.2 309.077 442.8 307.457 442.8C305.317 442.8 304.177 441.48 304.097 439.1H311.977V438.56C311.977 434.82 309.697 433.36 307.277 433.36C304.397 433.36 302.377 435.56 302.377 438.72V438.88C302.377 442.1 304.477 444.18 307.437 444.18ZM304.157 437.76C304.437 435.9 305.577 434.74 307.277 434.74C308.997 434.74 310.117 435.6 310.277 437.76H304.157ZM314.546 446.46L317.006 442.28L315.386 441.52L313.466 445.9L314.546 446.46ZM329.644 444.18C332.004 444.18 333.744 443.08 334.104 440.98H332.444C332.224 442.2 331.284 442.8 329.664 442.8C327.524 442.8 326.384 441.48 326.304 439.1H334.184V438.56C334.184 434.82 331.904 433.36 329.484 433.36C326.604 433.36 324.584 435.56 324.584 438.72V438.88C324.584 442.1 326.684 444.18 329.644 444.18ZM326.364 437.76C326.644 435.9 327.784 434.74 329.484 434.74C331.204 434.74 332.324 435.6 332.484 437.76H326.364ZM336.731 444H338.391V437.6C338.391 435.72 339.791 434.8 341.151 434.8C342.591 434.8 343.371 435.56 343.371 437.4V444H345.031V437.6C345.031 435.72 346.431 434.8 347.791 434.8C349.231 434.8 350.011 435.56 350.011 437.4V444H351.671V437.52C351.671 434.48 350.031 433.36 348.151 433.36C346.851 433.36 345.291 433.96 344.571 435.32C344.031 433.92 342.851 433.36 341.511 433.36C340.011 433.36 338.871 434.16 338.391 435.14V433.54H336.731V444ZM357.554 444.18C359.094 444.18 360.034 443.66 360.814 442.68V444H362.474V437.1C362.474 434.18 360.654 433.36 358.654 433.36C356.634 433.36 354.734 434.24 354.514 436.62H356.174C356.334 435.34 357.134 434.74 358.574 434.74C360.174 434.74 360.814 435.44 360.814 437.1V437.86H359.314C356.634 437.86 354.074 438.68 354.074 441.1C354.074 443.24 355.614 444.18 357.554 444.18ZM357.714 442.86C356.254 442.86 355.734 442.18 355.734 441.1C355.734 439.56 357.274 439.04 359.374 439.04H360.814V440.34C360.814 441.96 359.474 442.86 357.714 442.86ZM365.775 444H367.435V433.54H365.775V444ZM366.575 431.36C367.175 431.36 367.675 430.86 367.675 430.26C367.675 429.66 367.175 429.16 366.575 429.16C365.975 429.16 365.475 429.66 365.475 430.26C365.475 430.86 365.975 431.36 366.575 431.36ZM370.872 444H372.552V428.54H370.872V444ZM376.07 446.46L378.53 442.28L376.91 441.52L374.99 445.9L376.07 446.46ZM386.887 447.64H388.547V442.28C389.147 443.32 390.367 444.18 392.087 444.18C394.967 444.18 396.847 441.98 396.847 438.78V438.62C396.847 435.36 394.827 433.36 392.087 433.36C390.567 433.36 389.147 434.28 388.547 435.3V433.54H386.887V447.64ZM391.927 442.8C389.887 442.8 388.487 441.54 388.487 438.86V438.7C388.487 436.02 389.967 434.74 391.907 434.74C393.667 434.74 395.127 436.06 395.127 438.7V438.86C395.127 441.4 394.007 442.8 391.927 442.8ZM399.426 444H401.086V437.66C401.086 435.78 402.466 434.8 404.006 434.8C405.686 434.8 406.466 435.62 406.466 437.46V444H408.126V437.58C408.126 434.54 406.606 433.36 404.446 433.36C402.726 433.36 401.566 434.22 401.086 435.2V428.54H399.426V444ZM415.739 442.8C413.619 442.8 412.319 441.24 412.319 438.86V438.7C412.319 436.3 413.639 434.74 415.739 434.74C417.819 434.74 419.159 436.3 419.159 438.72V438.86C419.159 441.22 417.839 442.8 415.739 442.8ZM415.719 444.18C418.699 444.18 420.879 442 420.879 438.84V438.68C420.879 435.54 418.699 433.36 415.739 433.36C412.779 433.36 410.599 435.56 410.599 438.7V438.86C410.599 441.92 412.739 444.18 415.719 444.18ZM423.45 444H425.11V437.66C425.11 435.78 426.49 434.8 428.03 434.8C429.71 434.8 430.49 435.62 430.49 437.46V444H432.15V437.58C432.15 434.54 430.63 433.36 428.47 433.36C426.75 433.36 425.59 434.22 425.11 435.2V433.54H423.45V444ZM439.683 444.18C442.043 444.18 443.783 443.08 444.143 440.98H442.483C442.263 442.2 441.323 442.8 439.703 442.8C437.563 442.8 436.423 441.48 436.343 439.1H444.223V438.56C444.223 434.82 441.943 433.36 439.523 433.36C436.643 433.36 434.623 435.56 434.623 438.72V438.88C434.623 442.1 436.723 444.18 439.683 444.18ZM436.403 437.76C436.683 435.9 437.823 434.74 439.523 434.74C441.243 434.74 442.363 435.6 442.523 437.76H436.403ZM452.063 444H453.723V437.66C453.723 435.78 455.103 434.8 456.643 434.8C458.323 434.8 459.103 435.62 459.103 437.46V444H460.763V437.58C460.763 434.54 459.243 433.36 457.083 433.36C455.363 433.36 454.203 434.22 453.723 435.2V433.54H452.063V444ZM467.556 444.18C469.236 444.18 470.396 443.32 470.876 442.34V444H472.536V433.54H470.876V439.88C470.876 441.76 469.476 442.74 467.996 442.74C466.356 442.74 465.576 441.92 465.576 440.08V433.54H463.916V440.16C463.916 443.04 465.476 444.18 467.556 444.18ZM475.891 444H477.551V437.6C477.551 435.72 478.951 434.8 480.311 434.8C481.751 434.8 482.531 435.56 482.531 437.4V444H484.191V437.6C484.191 435.72 485.591 434.8 486.951 434.8C488.391 434.8 489.171 435.56 489.171 437.4V444H490.831V437.52C490.831 434.48 489.191 433.36 487.311 433.36C486.011 433.36 484.451 433.96 483.731 435.32C483.191 433.92 482.011 433.36 480.671 433.36C479.171 433.36 478.031 434.16 477.551 435.14V433.54H475.891V444ZM499.294 444.18C502.174 444.18 504.054 441.98 504.054 438.78V438.62C504.054 435.36 502.034 433.36 499.294 433.36C497.774 433.36 496.354 434.28 495.754 435.3V428.54H494.094V444H495.754V442.28C496.354 443.32 497.594 444.18 499.294 444.18ZM499.134 442.8C497.094 442.8 495.694 441.54 495.694 438.86V438.7C495.694 436.02 497.174 434.74 499.114 434.74C500.874 434.74 502.334 436.06 502.334 438.7V438.86C502.334 441.4 501.214 442.8 499.134 442.8ZM510.913 444.18C513.273 444.18 515.013 443.08 515.373 440.98H513.713C513.493 442.2 512.553 442.8 510.933 442.8C508.793 442.8 507.653 441.48 507.573 439.1H515.453V438.56C515.453 434.82 513.173 433.36 510.753 433.36C507.873 433.36 505.853 435.56 505.853 438.72V438.88C505.853 442.1 507.953 444.18 510.913 444.18ZM507.633 437.76C507.913 435.9 509.053 434.74 510.753 434.74C512.473 434.74 513.593 435.6 513.753 437.76H507.633ZM518 444H519.66V438.26C519.66 435.68 521 435.02 523.1 434.92V433.36C521.22 433.42 520.32 434.24 519.66 435.42V433.54H518V444Z" fill="#828282"/>
<path d="M1338.8 356H1340.54V349.6H1345.7V348.18H1340.54V343.12H1347.16V341.7H1338.8V356ZM1353.35 354.8C1351.23 354.8 1349.93 353.24 1349.93 350.86V350.7C1349.93 348.3 1351.25 346.74 1353.35 346.74C1355.43 346.74 1356.77 348.3 1356.77 350.72V350.86C1356.77 353.22 1355.45 354.8 1353.35 354.8ZM1353.33 356.18C1356.31 356.18 1358.49 354 1358.49 350.84V350.68C1358.49 347.54 1356.31 345.36 1353.35 345.36C1350.39 345.36 1348.21 347.56 1348.21 350.7V350.86C1348.21 353.92 1350.35 356.18 1353.33 356.18ZM1365.42 354.8C1363.3 354.8 1362 353.24 1362 350.86V350.7C1362 348.3 1363.32 346.74 1365.42 346.74C1367.5 346.74 1368.84 348.3 1368.84 350.72V350.86C1368.84 353.22 1367.52 354.8 1365.42 354.8ZM1365.4 356.18C1368.38 356.18 1370.56 354 1370.56 350.84V350.68C1370.56 347.54 1368.38 345.36 1365.42 345.36C1362.46 345.36 1360.28 347.56 1360.28 350.7V350.86C1360.28 353.92 1362.42 356.18 1365.4 356.18ZM1377.07 356.18C1378.59 356.18 1380.05 355.22 1380.65 354.2V356H1382.31V340.54H1380.65V347.22C1380.05 346.2 1378.97 345.36 1377.23 345.36C1374.35 345.36 1372.35 347.62 1372.35 350.82V350.98C1372.35 354.24 1374.33 356.18 1377.07 356.18ZM1377.25 354.8C1375.49 354.8 1374.07 353.54 1374.07 350.9V350.74C1374.07 348.2 1375.31 346.74 1377.39 346.74C1379.43 346.74 1380.71 348 1380.71 350.68V350.84C1380.71 353.52 1379.19 354.8 1377.25 354.8ZM1385.79 358.46L1388.25 354.28L1386.63 353.52L1384.71 357.9L1385.79 358.46ZM1396.61 356H1398.27V349.66C1398.27 347.78 1399.65 346.8 1401.19 346.8C1402.87 346.8 1403.65 347.62 1403.65 349.46V356H1405.31V349.58C1405.31 346.54 1403.79 345.36 1401.63 345.36C1399.91 345.36 1398.75 346.22 1398.27 347.2V340.54H1396.61V356ZM1412.92 354.8C1410.8 354.8 1409.5 353.24 1409.5 350.86V350.7C1409.5 348.3 1410.82 346.74 1412.92 346.74C1415 346.74 1416.34 348.3 1416.34 350.72V350.86C1416.34 353.22 1415.02 354.8 1412.92 354.8ZM1412.9 356.18C1415.88 356.18 1418.06 354 1418.06 350.84V350.68C1418.06 347.54 1415.88 345.36 1412.92 345.36C1409.96 345.36 1407.78 347.56 1407.78 350.7V350.86C1407.78 353.92 1409.92 356.18 1412.9 356.18ZM1424.17 356.18C1425.85 356.18 1427.01 355.32 1427.49 354.34V356H1429.15V345.54H1427.49V351.88C1427.49 353.76 1426.09 354.74 1424.61 354.74C1422.97 354.74 1422.19 353.92 1422.19 352.08V345.54H1420.53V352.16C1420.53 355.04 1422.09 356.18 1424.17 356.18ZM1435.75 356.18C1438.29 356.18 1439.59 354.9 1439.59 353C1439.59 350.78 1438.07 350.3 1435.91 349.9C1433.99 349.56 1433.47 349.18 1433.47 348.24C1433.47 347.34 1434.25 346.74 1435.45 346.74C1436.77 346.74 1437.41 347.24 1437.65 348.38H1439.25C1438.97 346.12 1437.35 345.36 1435.47 345.36C1433.83 345.36 1431.93 346.36 1431.93 348.3C1431.93 350.12 1432.85 350.88 1435.57 351.38C1437.19 351.68 1438.01 352.04 1438.01 353.14C1438.01 354.26 1437.31 354.8 1435.73 354.8C1434.05 354.8 1433.39 354.02 1433.27 352.78H1431.65C1431.75 354.92 1433.25 356.18 1435.75 356.18ZM1442.16 356H1443.82V345.54H1442.16V356ZM1442.96 343.36C1443.56 343.36 1444.06 342.86 1444.06 342.26C1444.06 341.66 1443.56 341.16 1442.96 341.16C1442.36 341.16 1441.86 341.66 1441.86 342.26C1441.86 342.86 1442.36 343.36 1442.96 343.36ZM1447.22 356H1448.88V349.66C1448.88 347.78 1450.26 346.8 1451.8 346.8C1453.48 346.8 1454.26 347.62 1454.26 349.46V356H1455.92V349.58C1455.92 346.54 1454.4 345.36 1452.24 345.36C1450.52 345.36 1449.36 346.22 1448.88 347.2V345.54H1447.22V356ZM1463.35 359.82C1466.27 359.82 1468.33 358.34 1468.35 355.3V345.54H1466.69V347.22C1466.09 346.2 1465.01 345.36 1463.27 345.36C1460.39 345.36 1458.39 347.72 1458.39 350.56V350.7C1458.39 353.58 1460.41 355.66 1463.15 355.66C1464.67 355.66 1466.09 354.7 1466.69 353.68V355.2C1466.69 357.44 1465.39 358.42 1463.33 358.42C1461.55 358.42 1460.55 357.8 1460.31 356.6H1458.61C1458.89 358.36 1460.25 359.82 1463.35 359.82ZM1463.33 354.28C1461.57 354.28 1460.11 352.92 1460.11 350.64V350.48C1460.11 348.28 1461.35 346.74 1463.43 346.74C1465.47 346.74 1466.75 348.1 1466.75 350.44V350.58C1466.75 352.92 1465.27 354.28 1463.33 354.28ZM1471.83 358.46L1474.29 354.28L1472.67 353.52L1470.75 357.9L1471.83 358.46ZM1482.64 356H1484.3V349.66C1484.3 347.78 1485.68 346.8 1487.22 346.8C1488.9 346.8 1489.68 347.62 1489.68 349.46V356H1491.34V349.58C1491.34 346.54 1489.82 345.36 1487.66 345.36C1485.94 345.36 1484.78 346.22 1484.3 347.2V340.54H1482.64V356ZM1498.88 356.18C1501.24 356.18 1502.98 355.08 1503.34 352.98H1501.68C1501.46 354.2 1500.52 354.8 1498.9 354.8C1496.76 354.8 1495.62 353.48 1495.54 351.1H1503.42V350.56C1503.42 346.82 1501.14 345.36 1498.72 345.36C1495.84 345.36 1493.82 347.56 1493.82 350.72V350.88C1493.82 354.1 1495.92 356.18 1498.88 356.18ZM1495.6 349.76C1495.88 347.9 1497.02 346.74 1498.72 346.74C1500.44 346.74 1501.56 347.6 1501.72 349.76H1495.6ZM1508.68 356.18C1510.22 356.18 1511.16 355.66 1511.94 354.68V356H1513.6V349.1C1513.6 346.18 1511.78 345.36 1509.78 345.36C1507.76 345.36 1505.86 346.24 1505.64 348.62H1507.3C1507.46 347.34 1508.26 346.74 1509.7 346.74C1511.3 346.74 1511.94 347.44 1511.94 349.1V349.86H1510.44C1507.76 349.86 1505.2 350.68 1505.2 353.1C1505.2 355.24 1506.74 356.18 1508.68 356.18ZM1508.84 354.86C1507.38 354.86 1506.86 354.18 1506.86 353.1C1506.86 351.56 1508.4 351.04 1510.5 351.04H1511.94V352.34C1511.94 353.96 1510.6 354.86 1508.84 354.86ZM1516.9 356H1518.58V340.54H1516.9V356ZM1525.16 356.14C1525.84 356.14 1526.24 356.04 1526.58 355.92V354.52C1526.22 354.66 1525.82 354.74 1525.3 354.74C1524.46 354.74 1524 354.24 1524 353.22V346.94H1526.44V345.54H1524V343.16H1522.34V345.54H1520.84V346.94H1522.34V353.38C1522.34 355.02 1523.26 356.14 1525.16 356.14ZM1529.09 356H1530.75V349.66C1530.75 347.78 1532.13 346.8 1533.67 346.8C1535.35 346.8 1536.13 347.62 1536.13 349.46V356H1537.79V349.58C1537.79 346.54 1536.27 345.36 1534.11 345.36C1532.39 345.36 1531.23 346.22 1530.75 347.2V340.54H1529.09V356ZM1545.38 356.18C1547.9 356.18 1549.72 354.5 1549.94 352.24H1548.4C1548.22 353.94 1546.88 354.8 1545.4 354.8C1543.38 354.8 1541.98 353.44 1541.98 350.88V350.72C1541.98 348.26 1543.44 346.74 1545.34 346.74C1546.78 346.74 1547.98 347.36 1548.24 349.02H1549.88C1549.56 346.36 1547.52 345.36 1545.34 345.36C1542.54 345.36 1540.26 347.52 1540.26 350.72V350.88C1540.26 354.12 1542.46 356.18 1545.38 356.18ZM1555.07 356.18C1556.61 356.18 1557.55 355.66 1558.33 354.68V356H1559.99V349.1C1559.99 346.18 1558.17 345.36 1556.17 345.36C1554.15 345.36 1552.25 346.24 1552.03 348.62H1553.69C1553.85 347.34 1554.65 346.74 1556.09 346.74C1557.69 346.74 1558.33 347.44 1558.33 349.1V349.86H1556.83C1554.15 349.86 1551.59 350.68 1551.59 353.1C1551.59 355.24 1553.13 356.18 1555.07 356.18ZM1555.23 354.86C1553.77 354.86 1553.25 354.18 1553.25 353.1C1553.25 351.56 1554.79 351.04 1556.89 351.04H1558.33V352.34C1558.33 353.96 1556.99 354.86 1555.23 354.86ZM1563.25 356H1564.91V350.26C1564.91 347.68 1566.25 347.02 1568.35 346.92V345.36C1566.47 345.42 1565.57 346.24 1564.91 347.42V345.54H1563.25V356ZM1574.76 356.18C1577.12 356.18 1578.86 355.08 1579.22 352.98H1577.56C1577.34 354.2 1576.4 354.8 1574.78 354.8C1572.64 354.8 1571.5 353.48 1571.42 351.1H1579.3V350.56C1579.3 346.82 1577.02 345.36 1574.6 345.36C1571.72 345.36 1569.7 347.56 1569.7 350.72V350.88C1569.7 354.1 1571.8 356.18 1574.76 356.18ZM1571.48 349.76C1571.76 347.9 1572.9 346.74 1574.6 346.74C1576.32 346.74 1577.44 347.6 1577.6 349.76H1571.48ZM1581.87 358.46L1584.33 354.28L1582.71 353.52L1580.79 357.9L1581.87 358.46ZM1341.92 380.18C1344.46 380.18 1345.76 378.9 1345.76 377C1345.76 374.78 1344.24 374.3 1342.08 373.9C1340.16 373.56 1339.64 373.18 1339.64 372.24C1339.64 371.34 1340.42 370.74 1341.62 370.74C1342.94 370.74 1343.58 371.24 1343.82 372.38H1345.42C1345.14 370.12 1343.52 369.36 1341.64 369.36C1340 369.36 1338.1 370.36 1338.1 372.3C1338.1 374.12 1339.02 374.88 1341.74 375.38C1343.36 375.68 1344.18 376.04 1344.18 377.14C1344.18 378.26 1343.48 378.8 1341.9 378.8C1340.22 378.8 1339.56 378.02 1339.44 376.78H1337.82C1337.92 378.92 1339.42 380.18 1341.92 380.18ZM1352.65 378.8C1350.53 378.8 1349.23 377.24 1349.23 374.86V374.7C1349.23 372.3 1350.55 370.74 1352.65 370.74C1354.73 370.74 1356.07 372.3 1356.07 374.72V374.86C1356.07 377.22 1354.75 378.8 1352.65 378.8ZM1352.63 380.18C1355.61 380.18 1357.79 378 1357.79 374.84V374.68C1357.79 371.54 1355.61 369.36 1352.65 369.36C1349.69 369.36 1347.51 371.56 1347.51 374.7V374.86C1347.51 377.92 1349.65 380.18 1352.63 380.18ZM1364.7 380.18C1367.22 380.18 1369.04 378.5 1369.26 376.24H1367.72C1367.54 377.94 1366.2 378.8 1364.72 378.8C1362.7 378.8 1361.3 377.44 1361.3 374.88V374.72C1361.3 372.26 1362.76 370.74 1364.66 370.74C1366.1 370.74 1367.3 371.36 1367.56 373.02H1369.2C1368.88 370.36 1366.84 369.36 1364.66 369.36C1361.86 369.36 1359.58 371.52 1359.58 374.72V374.88C1359.58 378.12 1361.78 380.18 1364.7 380.18ZM1371.81 380H1373.47V369.54H1371.81V380ZM1372.61 367.36C1373.21 367.36 1373.71 366.86 1373.71 366.26C1373.71 365.66 1373.21 365.16 1372.61 365.16C1372.01 365.16 1371.51 365.66 1371.51 366.26C1371.51 366.86 1372.01 367.36 1372.61 367.36ZM1379.48 380.18C1381.02 380.18 1381.96 379.66 1382.74 378.68V380H1384.4V373.1C1384.4 370.18 1382.58 369.36 1380.58 369.36C1378.56 369.36 1376.66 370.24 1376.44 372.62H1378.1C1378.26 371.34 1379.06 370.74 1380.5 370.74C1382.1 370.74 1382.74 371.44 1382.74 373.1V373.86H1381.24C1378.56 373.86 1376 374.68 1376 377.1C1376 379.24 1377.54 380.18 1379.48 380.18ZM1379.64 378.86C1378.18 378.86 1377.66 378.18 1377.66 377.1C1377.66 375.56 1379.2 375.04 1381.3 375.04H1382.74V376.34C1382.74 377.96 1381.4 378.86 1379.64 378.86ZM1387.7 380H1389.38V364.54H1387.7V380ZM1400.17 380H1401.99L1404.43 372.16L1406.61 380H1408.45L1411.71 369.54H1410.01L1407.55 377.96L1405.17 369.54H1403.73L1401.19 377.96L1398.75 369.54H1396.95L1400.17 380ZM1418.04 380.18C1420.4 380.18 1422.14 379.08 1422.5 376.98H1420.84C1420.62 378.2 1419.68 378.8 1418.06 378.8C1415.92 378.8 1414.78 377.48 1414.7 375.1H1422.58V374.56C1422.58 370.82 1420.3 369.36 1417.88 369.36C1415 369.36 1412.98 371.56 1412.98 374.72V374.88C1412.98 378.1 1415.08 380.18 1418.04 380.18ZM1414.76 373.76C1415.04 371.9 1416.18 370.74 1417.88 370.74C1419.6 370.74 1420.72 371.6 1420.88 373.76H1414.76ZM1425.17 380H1426.85V364.54H1425.17V380ZM1430.6 380H1432.26V370.94H1434.82V369.54H1432.26V367.66C1432.26 366.6 1432.7 365.86 1433.78 365.86C1434.24 365.86 1434.66 365.96 1434.96 366.08V364.68C1434.54 364.54 1434.26 364.48 1433.72 364.48C1431.64 364.48 1430.6 365.72 1430.6 367.84V369.54H1429.1V370.94H1430.6V380ZM1439.58 380.18C1441.12 380.18 1442.06 379.66 1442.84 378.68V380H1444.5V373.1C1444.5 370.18 1442.68 369.36 1440.68 369.36C1438.66 369.36 1436.76 370.24 1436.54 372.62H1438.2C1438.36 371.34 1439.16 370.74 1440.6 370.74C1442.2 370.74 1442.84 371.44 1442.84 373.1V373.86H1441.34C1438.66 373.86 1436.1 374.68 1436.1 377.1C1436.1 379.24 1437.64 380.18 1439.58 380.18ZM1439.74 378.86C1438.28 378.86 1437.76 378.18 1437.76 377.1C1437.76 375.56 1439.3 375.04 1441.4 375.04H1442.84V376.34C1442.84 377.96 1441.5 378.86 1439.74 378.86ZM1447.76 380H1449.42V374.26C1449.42 371.68 1450.76 371.02 1452.86 370.92V369.36C1450.98 369.42 1450.08 370.24 1449.42 371.42V369.54H1447.76V380ZM1459.27 380.18C1461.63 380.18 1463.37 379.08 1463.73 376.98H1462.07C1461.85 378.2 1460.91 378.8 1459.29 378.8C1457.15 378.8 1456.01 377.48 1455.93 375.1H1463.81V374.56C1463.81 370.82 1461.53 369.36 1459.11 369.36C1456.23 369.36 1454.21 371.56 1454.21 374.72V374.88C1454.21 378.1 1456.31 380.18 1459.27 380.18ZM1455.99 373.76C1456.27 371.9 1457.41 370.74 1459.11 370.74C1460.83 370.74 1461.95 371.6 1462.11 373.76H1455.99ZM1466.38 382.46L1468.84 378.28L1467.22 377.52L1465.3 381.9L1466.38 382.46ZM1481.48 380.18C1483.84 380.18 1485.58 379.08 1485.94 376.98H1484.28C1484.06 378.2 1483.12 378.8 1481.5 378.8C1479.36 378.8 1478.22 377.48 1478.14 375.1H1486.02V374.56C1486.02 370.82 1483.74 369.36 1481.32 369.36C1478.44 369.36 1476.42 371.56 1476.42 374.72V374.88C1476.42 378.1 1478.52 380.18 1481.48 380.18ZM1478.2 373.76C1478.48 371.9 1479.62 370.74 1481.32 370.74C1483.04 370.74 1484.16 371.6 1484.32 373.76H1478.2ZM1488.56 380H1490.22V373.6C1490.22 371.72 1491.62 370.8 1492.98 370.8C1494.42 370.8 1495.2 371.56 1495.2 373.4V380H1496.86V373.6C1496.86 371.72 1498.26 370.8 1499.62 370.8C1501.06 370.8 1501.84 371.56 1501.84 373.4V380H1503.5V373.52C1503.5 370.48 1501.86 369.36 1499.98 369.36C1498.68 369.36 1497.12 369.96 1496.4 371.32C1495.86 369.92 1494.68 369.36 1493.34 369.36C1491.84 369.36 1490.7 370.16 1490.22 371.14V369.54H1488.56V380ZM1506.77 383.64H1508.43V378.28C1509.03 379.32 1510.25 380.18 1511.97 380.18C1514.85 380.18 1516.73 377.98 1516.73 374.78V374.62C1516.73 371.36 1514.71 369.36 1511.97 369.36C1510.45 369.36 1509.03 370.28 1508.43 371.3V369.54H1506.77V383.64ZM1511.81 378.8C1509.77 378.8 1508.37 377.54 1508.37 374.86V374.7C1508.37 372.02 1509.85 370.74 1511.79 370.74C1513.55 370.74 1515.01 372.06 1515.01 374.7V374.86C1515.01 377.4 1513.89 378.8 1511.81 378.8ZM1519.35 380H1521.03V364.54H1519.35V380ZM1528.78 378.8C1526.66 378.8 1525.36 377.24 1525.36 374.86V374.7C1525.36 372.3 1526.68 370.74 1528.78 370.74C1530.86 370.74 1532.2 372.3 1532.2 374.72V374.86C1532.2 377.22 1530.88 378.8 1528.78 378.8ZM1528.76 380.18C1531.74 380.18 1533.92 378 1533.92 374.84V374.68C1533.92 371.54 1531.74 369.36 1528.78 369.36C1525.82 369.36 1523.64 371.56 1523.64 374.7V374.86C1523.64 377.92 1525.78 380.18 1528.76 380.18ZM1537.14 383.64H1538.82L1544.6 369.54H1542.9L1540 377.04L1536.8 369.54H1535.02L1539.12 378.92L1537.14 383.64ZM1546.79 380H1548.45V373.6C1548.45 371.72 1549.85 370.8 1551.21 370.8C1552.65 370.8 1553.43 371.56 1553.43 373.4V380H1555.09V373.6C1555.09 371.72 1556.49 370.8 1557.85 370.8C1559.29 370.8 1560.07 371.56 1560.07 373.4V380H1561.73V373.52C1561.73 370.48 1560.09 369.36 1558.21 369.36C1556.91 369.36 1555.35 369.96 1554.63 371.32C1554.09 369.92 1552.91 369.36 1551.57 369.36C1550.07 369.36 1548.93 370.16 1548.45 371.14V369.54H1546.79V380ZM1569.27 380.18C1571.63 380.18 1573.37 379.08 1573.73 376.98H1572.07C1571.85 378.2 1570.91 378.8 1569.29 378.8C1567.15 378.8 1566.01 377.48 1565.93 375.1H1573.81V374.56C1573.81 370.82 1571.53 369.36 1569.11 369.36C1566.23 369.36 1564.21 371.56 1564.21 374.72V374.88C1564.21 378.1 1566.31 380.18 1569.27 380.18ZM1565.99 373.76C1566.27 371.9 1567.41 370.74 1569.11 370.74C1570.83 370.74 1571.95 371.6 1572.11 373.76H1565.99ZM1576.36 380H1578.02V373.66C1578.02 371.78 1579.4 370.8 1580.94 370.8C1582.62 370.8 1583.4 371.62 1583.4 373.46V380H1585.06V373.58C1585.06 370.54 1583.54 369.36 1581.38 369.36C1579.66 369.36 1578.5 370.22 1578.02 371.2V369.54H1576.36V380ZM1591.49 380.14C1592.17 380.14 1592.57 380.04 1592.91 379.92V378.52C1592.55 378.66 1592.15 378.74 1591.63 378.74C1590.79 378.74 1590.33 378.24 1590.33 377.22V370.94H1592.77V369.54H1590.33V367.16H1588.67V369.54H1587.17V370.94H1588.67V377.38C1588.67 379.02 1589.59 380.14 1591.49 380.14ZM1595.54 382.46L1598 378.28L1596.38 377.52L1594.46 381.9L1595.54 382.46ZM1343.02 404.18C1345.54 404.18 1347.36 402.5 1347.58 400.24H1346.04C1345.86 401.94 1344.52 402.8 1343.04 402.8C1341.02 402.8 1339.62 401.44 1339.62 398.88V398.72C1339.62 396.26 1341.08 394.74 1342.98 394.74C1344.42 394.74 1345.62 395.36 1345.88 397.02H1347.52C1347.2 394.36 1345.16 393.36 1342.98 393.36C1340.18 393.36 1337.9 395.52 1337.9 398.72V398.88C1337.9 402.12 1340.1 404.18 1343.02 404.18ZM1350.13 404H1351.79V393.54H1350.13V404ZM1350.93 391.36C1351.53 391.36 1352.03 390.86 1352.03 390.26C1352.03 389.66 1351.53 389.16 1350.93 389.16C1350.33 389.16 1349.83 389.66 1349.83 390.26C1349.83 390.86 1350.33 391.36 1350.93 391.36ZM1358.36 404.14C1359.04 404.14 1359.44 404.04 1359.78 403.92V402.52C1359.42 402.66 1359.02 402.74 1358.5 402.74C1357.66 402.74 1357.2 402.24 1357.2 401.22V394.94H1359.64V393.54H1357.2V391.16H1355.54V393.54H1354.04V394.94H1355.54V401.38C1355.54 403.02 1356.46 404.14 1358.36 404.14ZM1362.33 404H1363.99V393.54H1362.33V404ZM1363.13 391.36C1363.73 391.36 1364.23 390.86 1364.23 390.26C1364.23 389.66 1363.73 389.16 1363.13 389.16C1362.53 389.16 1362.03 389.66 1362.03 390.26C1362.03 390.86 1362.53 391.36 1363.13 391.36ZM1366.13 404H1374.79V402.54H1368.83L1374.87 393.84V393.54H1366.73V394.94H1372.31L1366.13 403.76V404ZM1381.24 404.18C1383.6 404.18 1385.34 403.08 1385.7 400.98H1384.04C1383.82 402.2 1382.88 402.8 1381.26 402.8C1379.12 402.8 1377.98 401.48 1377.9 399.1H1385.78V398.56C1385.78 394.82 1383.5 393.36 1381.08 393.36C1378.2 393.36 1376.18 395.56 1376.18 398.72V398.88C1376.18 402.1 1378.28 404.18 1381.24 404.18ZM1377.96 397.76C1378.24 395.9 1379.38 394.74 1381.08 394.74C1382.8 394.74 1383.92 395.6 1384.08 397.76H1377.96ZM1388.33 404H1389.99V397.66C1389.99 395.78 1391.37 394.8 1392.91 394.8C1394.59 394.8 1395.37 395.62 1395.37 397.46V404H1397.03V397.58C1397.03 394.54 1395.51 393.36 1393.35 393.36C1391.63 393.36 1390.47 394.22 1389.99 395.2V393.54H1388.33V404ZM1403.52 404.18C1406.06 404.18 1407.36 402.9 1407.36 401C1407.36 398.78 1405.84 398.3 1403.68 397.9C1401.76 397.56 1401.24 397.18 1401.24 396.24C1401.24 395.34 1402.02 394.74 1403.22 394.74C1404.54 394.74 1405.18 395.24 1405.42 396.38H1407.02C1406.74 394.12 1405.12 393.36 1403.24 393.36C1401.6 393.36 1399.7 394.36 1399.7 396.3C1399.7 398.12 1400.62 398.88 1403.34 399.38C1404.96 399.68 1405.78 400.04 1405.78 401.14C1405.78 402.26 1405.08 402.8 1403.5 402.8C1401.82 402.8 1401.16 402.02 1401.04 400.78H1399.42C1399.52 402.92 1401.02 404.18 1403.52 404.18ZM1409.89 404H1411.55V397.66C1411.55 395.78 1412.93 394.8 1414.47 394.8C1416.15 394.8 1416.93 395.62 1416.93 397.46V404H1418.59V397.58C1418.59 394.54 1417.07 393.36 1414.91 393.36C1413.19 393.36 1412.03 394.22 1411.55 395.2V388.54H1409.89V404ZM1421.88 404H1423.54V393.54H1421.88V404ZM1422.68 391.36C1423.28 391.36 1423.78 390.86 1423.78 390.26C1423.78 389.66 1423.28 389.16 1422.68 389.16C1422.08 389.16 1421.58 389.66 1421.58 390.26C1421.58 390.86 1422.08 391.36 1422.68 391.36ZM1426.94 407.64H1428.6V402.28C1429.2 403.32 1430.42 404.18 1432.14 404.18C1435.02 404.18 1436.9 401.98 1436.9 398.78V398.62C1436.9 395.36 1434.88 393.36 1432.14 393.36C1430.62 393.36 1429.2 394.28 1428.6 395.3V393.54H1426.94V407.64ZM1431.98 402.8C1429.94 402.8 1428.54 401.54 1428.54 398.86V398.7C1428.54 396.02 1430.02 394.74 1431.96 394.74C1433.72 394.74 1435.18 396.06 1435.18 398.7V398.86C1435.18 401.4 1434.06 402.8 1431.98 402.8Z" fill="#828282"/>
<rect x="575" y="337" width="196" height="72" rx="4" fill="#F6BD60"/>
<path d="M606.9 379.2C610.3 379.2 612.74 377.46 613.16 374.02H610.56C610.28 376.04 608.88 377.04 606.9 377.04C604.26 377.04 602.72 375.14 602.72 371.92V371.76C602.72 368.56 604.36 366.6 606.88 366.6C608.94 366.6 610 367.58 610.3 369.48H613C612.68 366.12 610.14 364.48 606.86 364.48C602.88 364.48 599.92 367.48 599.92 371.78V371.94C599.92 376.34 602.42 379.2 606.9 379.2ZM615.264 379H617.684V373.56C617.684 371.34 618.964 370.66 621.084 370.64V368.38C619.324 368.4 618.344 369.18 617.684 370.5V368.54H615.264V379ZM627.618 379.2C630.298 379.2 632.078 378 632.418 375.8H630.078C629.898 376.82 629.138 377.4 627.678 377.4C625.878 377.4 624.878 376.28 624.798 374.3H632.458V373.6C632.458 369.86 630.118 368.32 627.518 368.32C624.538 368.32 622.318 370.48 622.318 373.72V373.88C622.318 377.18 624.538 379.2 627.618 379.2ZM624.838 372.68C625.078 371.06 626.058 370.08 627.518 370.08C629.018 370.08 629.938 370.88 630.058 372.68H624.838ZM637.457 379.2C639.057 379.2 639.977 378.62 640.657 377.72V379H643.037V372.14C643.037 369.28 641.197 368.32 638.857 368.32C636.517 368.32 634.577 369.34 634.377 371.78H636.717C636.837 370.74 637.457 370.14 638.717 370.14C640.137 370.14 640.617 370.84 640.617 372.24V372.78H639.317C636.317 372.78 633.957 373.66 633.957 376.1C633.957 378.28 635.537 379.2 637.457 379.2ZM638.037 377.46C636.837 377.46 636.357 376.88 636.357 376C636.357 374.72 637.537 374.3 639.377 374.3H640.617V375.34C640.617 376.68 639.517 377.46 638.037 377.46ZM649.371 379.18C650.111 379.18 650.631 379.06 651.011 378.92V377C650.671 377.14 650.311 377.2 649.831 377.2C649.071 377.2 648.631 376.78 648.631 375.86V370.36H650.931V368.54H648.631V366.24H646.211V368.54H644.811V370.36H646.211V376.08C646.211 378.06 647.291 379.18 649.371 379.18ZM657.794 379.2C660.474 379.2 662.254 378 662.594 375.8H660.254C660.074 376.82 659.314 377.4 657.854 377.4C656.054 377.4 655.054 376.28 654.974 374.3H662.634V373.6C662.634 369.86 660.294 368.32 657.694 368.32C654.714 368.32 652.494 370.48 652.494 373.72V373.88C652.494 377.18 654.714 379.2 657.794 379.2ZM655.014 372.68C655.254 371.06 656.234 370.08 657.694 370.08C659.194 370.08 660.114 370.88 660.234 372.68H655.014ZM672.301 379.2C673.901 379.2 674.821 378.62 675.501 377.72V379H677.881V372.14C677.881 369.28 676.041 368.32 673.701 368.32C671.361 368.32 669.421 369.34 669.221 371.78H671.561C671.681 370.74 672.301 370.14 673.561 370.14C674.981 370.14 675.461 370.84 675.461 372.24V372.78H674.161C671.161 372.78 668.801 373.66 668.801 376.1C668.801 378.28 670.381 379.2 672.301 379.2ZM672.881 377.46C671.681 377.46 671.201 376.88 671.201 376C671.201 374.72 672.381 374.3 674.221 374.3H675.461V375.34C675.461 376.68 674.361 377.46 672.881 377.46ZM685.235 379.2C688.075 379.2 689.895 377.5 690.075 375.1H687.855C687.715 376.58 686.615 377.34 685.335 377.34C683.555 377.34 682.435 376.14 682.435 373.86V373.7C682.435 371.54 683.615 370.26 685.275 370.26C686.555 370.26 687.475 370.84 687.675 372.24H690.015C689.735 369.36 687.555 368.32 685.235 368.32C682.315 368.32 679.955 370.42 679.955 373.74V373.9C679.955 377.24 682.235 379.2 685.235 379.2ZM696.739 379.2C699.579 379.2 701.399 377.5 701.579 375.1H699.359C699.219 376.58 698.119 377.34 696.839 377.34C695.059 377.34 693.939 376.14 693.939 373.86V373.7C693.939 371.54 695.119 370.26 696.779 370.26C698.059 370.26 698.979 370.84 699.179 372.24H701.519C701.239 369.36 699.059 368.32 696.739 368.32C693.819 368.32 691.459 370.42 691.459 373.74V373.9C691.459 377.24 693.739 379.2 696.739 379.2ZM708.343 377.32C706.503 377.32 705.443 375.98 705.443 373.84V373.68C705.443 371.52 706.543 370.22 708.343 370.22C710.143 370.22 711.223 371.54 711.223 373.7V373.84C711.223 375.98 710.143 377.32 708.343 377.32ZM708.323 379.2C711.403 379.2 713.703 377.08 713.703 373.82V373.66C713.703 370.46 711.403 368.32 708.343 368.32C705.263 368.32 702.963 370.48 702.963 373.72V373.88C702.963 377.06 705.243 379.2 708.323 379.2ZM719.389 379.2C721.089 379.2 722.189 378.38 722.709 377.36V379H725.129V368.54H722.709V374.76C722.709 376.42 721.569 377.26 720.269 377.26C718.869 377.26 718.209 376.54 718.209 374.96V368.54H715.789V375.24C715.789 378.02 717.329 379.2 719.389 379.2ZM727.999 379H730.419V372.84C730.419 371.18 731.519 370.34 732.879 370.34C734.319 370.34 734.959 371.06 734.959 372.64V379H737.379V372.42C737.379 369.54 735.899 368.32 733.799 368.32C732.079 368.32 730.919 369.18 730.419 370.2V368.54H727.999V379ZM743.727 379.18C744.467 379.18 744.987 379.06 745.367 378.92V377C745.027 377.14 744.667 377.2 744.187 377.2C743.427 377.2 742.987 376.78 742.987 375.86V370.36H745.287V368.54H742.987V366.24H740.567V368.54H739.167V370.36H740.567V376.08C740.567 378.06 741.647 379.18 743.727 379.18Z" fill="#333333"/>
<rect x="819" y="337" width="206" height="72" rx="4" fill="#F2994A"/>
<path d="M849.5 379.2C852.66 379.2 854.76 377.26 854.76 374.78C854.76 371.92 853.02 370.96 849.66 370.5C847.18 370.14 846.7 369.56 846.7 368.4C846.7 367.3 847.54 366.52 849.16 366.52C850.8 366.52 851.66 367.16 851.92 368.66H854.36C854.08 365.92 852.24 364.52 849.16 364.52C846.18 364.52 844.18 366.28 844.18 368.62C844.18 371.3 845.8 372.34 849.22 372.8C851.54 373.18 852.2 373.68 852.2 375C852.2 376.32 851.08 377.2 849.5 377.2C847.08 377.2 846.5 376 846.32 374.56H843.76C843.96 377.26 845.6 379.2 849.5 379.2ZM861.735 379.2C864.415 379.2 866.195 378 866.535 375.8H864.195C864.015 376.82 863.255 377.4 861.795 377.4C859.995 377.4 858.995 376.28 858.915 374.3H866.575V373.6C866.575 369.86 864.235 368.32 861.635 368.32C858.655 368.32 856.435 370.48 856.435 373.72V373.88C856.435 377.18 858.655 379.2 861.735 379.2ZM858.955 372.68C859.195 371.06 860.175 370.08 861.635 370.08C863.135 370.08 864.055 370.88 864.175 372.68H858.955ZM868.737 379H871.157V373.56C871.157 371.34 872.437 370.66 874.557 370.64V368.38C872.797 368.4 871.817 369.18 871.157 370.5V368.54H868.737V379ZM879.524 379H882.344L886.124 368.54H883.744L881.044 376.52L878.304 368.54H875.704L879.524 379ZM887.977 379H890.397V368.54H887.977V379ZM889.157 366.82C889.957 366.82 890.597 366.22 890.597 365.44C890.597 364.64 889.957 364.04 889.157 364.04C888.357 364.04 887.717 364.64 887.717 365.44C887.717 366.22 888.357 366.82 889.157 366.82ZM897.926 379.2C900.766 379.2 902.586 377.5 902.766 375.1H900.546C900.406 376.58 899.306 377.34 898.026 377.34C896.246 377.34 895.126 376.14 895.126 373.86V373.7C895.126 371.54 896.306 370.26 897.966 370.26C899.246 370.26 900.166 370.84 900.366 372.24H902.706C902.426 369.36 900.246 368.32 897.926 368.32C895.006 368.32 892.646 370.42 892.646 373.74V373.9C892.646 377.24 894.926 379.2 897.926 379.2ZM909.45 379.2C912.13 379.2 913.91 378 914.25 375.8H911.91C911.73 376.82 910.97 377.4 909.51 377.4C907.71 377.4 906.71 376.28 906.63 374.3H914.29V373.6C914.29 369.86 911.95 368.32 909.35 368.32C906.37 368.32 904.15 370.48 904.15 373.72V373.88C904.15 377.18 906.37 379.2 909.45 379.2ZM906.67 372.68C906.91 371.06 907.89 370.08 909.35 370.08C910.85 370.08 911.77 370.88 911.89 372.68H906.67ZM920.129 379.2C922.809 379.2 924.309 377.98 924.309 375.86C924.309 373.64 922.849 373.04 920.389 372.66C918.729 372.38 918.229 372.08 918.229 371.32C918.229 370.58 918.849 370.08 919.889 370.08C921.009 370.08 921.549 370.52 921.749 371.48H923.989C923.729 369.12 922.029 368.32 919.889 368.32C917.929 368.32 915.969 369.36 915.969 371.46C915.969 373.42 916.989 374.2 919.749 374.64C921.289 374.9 921.989 375.22 921.989 376.08C921.989 376.96 921.409 377.42 920.109 377.42C918.689 377.42 918.149 376.8 918.029 375.74H915.749C915.849 377.96 917.429 379.2 920.129 379.2ZM934.018 381.96H936.138C934.518 379.8 933.098 376.9 933.098 372.74C933.098 368.6 934.518 365.68 936.138 363.52H934.018C932.298 365.56 930.698 368.58 930.698 372.74C930.698 376.92 932.298 379.92 934.018 381.96ZM938.097 379H940.757V372.92H947.177V379H949.857V364.7H947.177V370.78H940.757V364.7H938.097V379ZM957.499 377.32C955.659 377.32 954.599 375.98 954.599 373.84V373.68C954.599 371.52 955.699 370.22 957.499 370.22C959.299 370.22 960.379 371.54 960.379 373.7V373.84C960.379 375.98 959.299 377.32 957.499 377.32ZM957.479 379.2C960.559 379.2 962.859 377.08 962.859 373.82V373.66C962.859 370.46 960.559 368.32 957.499 368.32C954.419 368.32 952.119 370.48 952.119 373.72V373.88C952.119 377.06 954.399 379.2 957.479 379.2ZM965.045 379H967.465V372.74C967.465 371.14 968.565 370.34 969.765 370.34C970.945 370.34 971.625 371 971.625 372.54V379H974.045V372.74C974.045 371.14 975.145 370.34 976.345 370.34C977.545 370.34 978.205 371 978.205 372.54V379H980.625V372.38C980.625 369.5 979.065 368.32 977.145 368.32C975.845 368.32 974.405 368.9 973.605 370.2C973.085 368.9 972.005 368.32 970.645 368.32C969.105 368.32 967.965 369.16 967.465 370.14V368.54H965.045V379ZM988.005 379.2C990.685 379.2 992.465 378 992.805 375.8H990.465C990.285 376.82 989.525 377.4 988.065 377.4C986.265 377.4 985.265 376.28 985.185 374.3H992.845V373.6C992.845 369.86 990.505 368.32 987.905 368.32C984.925 368.32 982.705 370.48 982.705 373.72V373.88C982.705 377.18 984.925 379.2 988.005 379.2ZM985.225 372.68C985.465 371.06 986.445 370.08 987.905 370.08C989.405 370.08 990.325 370.88 990.445 372.68H985.225ZM993.711 381.92H995.811C997.531 379.88 999.131 376.86 999.131 372.7C999.131 368.52 997.531 365.52 995.811 363.48H993.711C995.311 365.64 996.731 368.54 996.731 372.7C996.731 376.84 995.311 379.76 993.711 381.92Z" fill="#333333"/>
<rect x="1079" y="337" width="233" height="72" rx="4" fill="#F6BD60"/>
<path d="M1103.54 379H1106.04L1107.16 375.46H1112.62L1113.76 379H1116.52L1111.8 364.7H1108.32L1103.54 379ZM1109.9 366.88L1112 373.52H1107.78L1109.9 366.88ZM1118.5 382.58H1120.92V377.36C1121.48 378.38 1122.68 379.2 1124.34 379.2C1127.04 379.2 1128.98 377.16 1128.98 373.8V373.64C1128.98 370.26 1126.96 368.32 1124.34 368.32C1122.8 368.32 1121.5 369.22 1120.92 370.22V368.54H1118.5V382.58ZM1123.74 377.28C1121.98 377.28 1120.84 376.18 1120.84 373.84V373.68C1120.84 371.36 1122.04 370.22 1123.72 370.22C1125.3 370.22 1126.5 371.36 1126.5 373.68V373.84C1126.5 376.08 1125.52 377.28 1123.74 377.28ZM1131.16 382.58H1133.58V377.36C1134.14 378.38 1135.34 379.2 1137 379.2C1139.7 379.2 1141.64 377.16 1141.64 373.8V373.64C1141.64 370.26 1139.62 368.32 1137 368.32C1135.46 368.32 1134.16 369.22 1133.58 370.22V368.54H1131.16V382.58ZM1136.4 377.28C1134.64 377.28 1133.5 376.18 1133.5 373.84V373.68C1133.5 371.36 1134.7 370.22 1136.38 370.22C1137.96 370.22 1139.16 371.36 1139.16 373.68V373.84C1139.16 376.08 1138.18 377.28 1136.4 377.28ZM1143.88 379H1146.3V363.7H1143.88V379ZM1150.4 382.58H1152.78L1158.48 368.54H1156.12L1153.56 375.28L1150.78 368.54H1148.16L1152.3 377.94L1150.4 382.58ZM1165.49 379H1167.91V370.36H1170.29V368.54H1167.91V367.04C1167.91 366.14 1168.31 365.5 1169.29 365.5C1169.73 365.5 1170.11 365.58 1170.39 365.68V363.8C1169.95 363.66 1169.59 363.6 1169.01 363.6C1166.77 363.6 1165.49 364.84 1165.49 367.14V368.54H1164.07V370.36H1165.49V379ZM1176.6 377.32C1174.76 377.32 1173.7 375.98 1173.7 373.84V373.68C1173.7 371.52 1174.8 370.22 1176.6 370.22C1178.4 370.22 1179.48 371.54 1179.48 373.7V373.84C1179.48 375.98 1178.4 377.32 1176.6 377.32ZM1176.58 379.2C1179.66 379.2 1181.96 377.08 1181.96 373.82V373.66C1181.96 370.46 1179.66 368.32 1176.6 368.32C1173.52 368.32 1171.22 370.48 1171.22 373.72V373.88C1171.22 377.06 1173.5 379.2 1176.58 379.2ZM1184.15 379H1186.57V373.56C1186.57 371.34 1187.85 370.66 1189.97 370.64V368.38C1188.21 368.4 1187.23 369.18 1186.57 370.5V368.54H1184.15V379ZM1196.86 382.58H1199.28V377.36C1199.84 378.38 1201.04 379.2 1202.7 379.2C1205.4 379.2 1207.34 377.16 1207.34 373.8V373.64C1207.34 370.26 1205.32 368.32 1202.7 368.32C1201.16 368.32 1199.86 369.22 1199.28 370.22V368.54H1196.86V382.58ZM1202.1 377.28C1200.34 377.28 1199.2 376.18 1199.2 373.84V373.68C1199.2 371.36 1200.4 370.22 1202.08 370.22C1203.66 370.22 1204.86 371.36 1204.86 373.68V373.84C1204.86 376.08 1203.88 377.28 1202.1 377.28ZM1209.52 379H1211.94V373.56C1211.94 371.34 1213.22 370.66 1215.34 370.64V368.38C1213.58 368.4 1212.6 369.18 1211.94 370.5V368.54H1209.52V379ZM1221.95 377.32C1220.11 377.32 1219.05 375.98 1219.05 373.84V373.68C1219.05 371.52 1220.15 370.22 1221.95 370.22C1223.75 370.22 1224.83 371.54 1224.83 373.7V373.84C1224.83 375.98 1223.75 377.32 1221.95 377.32ZM1221.93 379.2C1225.01 379.2 1227.31 377.08 1227.31 373.82V373.66C1227.31 370.46 1225.01 368.32 1221.95 368.32C1218.87 368.32 1216.57 370.48 1216.57 373.72V373.88C1216.57 377.06 1218.85 379.2 1221.93 379.2ZM1233.96 382.84C1237.2 382.84 1239.26 381.3 1239.28 378.22V368.54H1236.86V370.14C1236.26 369.1 1235.22 368.32 1233.5 368.32C1230.8 368.32 1228.8 370.52 1228.8 373.46V373.6C1228.8 376.62 1230.82 378.58 1233.44 378.58C1234.98 378.58 1236.28 377.64 1236.86 376.64V378.18C1236.86 380.06 1235.82 381 1233.94 381C1232.36 381 1231.56 380.4 1231.36 379.36H1228.92C1229.2 381.36 1230.68 382.84 1233.96 382.84ZM1234.04 376.72C1232.48 376.72 1231.28 375.52 1231.28 373.58V373.42C1231.28 371.52 1232.32 370.22 1234.12 370.22C1235.86 370.22 1236.94 371.4 1236.94 373.38V373.52C1236.94 375.52 1235.72 376.72 1234.04 376.72ZM1242.15 379H1244.57V373.56C1244.57 371.34 1245.85 370.66 1247.97 370.64V368.38C1246.21 368.4 1245.23 369.18 1244.57 370.5V368.54H1242.15V379ZM1252.65 379.2C1254.25 379.2 1255.17 378.62 1255.85 377.72V379H1258.23V372.14C1258.23 369.28 1256.39 368.32 1254.05 368.32C1251.71 368.32 1249.77 369.34 1249.57 371.78H1251.91C1252.03 370.74 1252.65 370.14 1253.91 370.14C1255.33 370.14 1255.81 370.84 1255.81 372.24V372.78H1254.51C1251.51 372.78 1249.15 373.66 1249.15 376.1C1249.15 378.28 1250.73 379.2 1252.65 379.2ZM1253.23 377.46C1252.03 377.46 1251.55 376.88 1251.55 376C1251.55 374.72 1252.73 374.3 1254.57 374.3H1255.81V375.34C1255.81 376.68 1254.71 377.46 1253.23 377.46ZM1261 379H1263.42V372.74C1263.42 371.14 1264.52 370.34 1265.72 370.34C1266.9 370.34 1267.58 371 1267.58 372.54V379H1270V372.74C1270 371.14 1271.1 370.34 1272.3 370.34C1273.5 370.34 1274.16 371 1274.16 372.54V379H1276.58V372.38C1276.58 369.5 1275.02 368.32 1273.1 368.32C1271.8 368.32 1270.36 368.9 1269.56 370.2C1269.04 368.9 1267.96 368.32 1266.6 368.32C1265.06 368.32 1263.92 369.16 1263.42 370.14V368.54H1261V379ZM1282.94 379.2C1285.62 379.2 1287.12 377.98 1287.12 375.86C1287.12 373.64 1285.66 373.04 1283.2 372.66C1281.54 372.38 1281.04 372.08 1281.04 371.32C1281.04 370.58 1281.66 370.08 1282.7 370.08C1283.82 370.08 1284.36 370.52 1284.56 371.48H1286.8C1286.54 369.12 1284.84 368.32 1282.7 368.32C1280.74 368.32 1278.78 369.36 1278.78 371.46C1278.78 373.42 1279.8 374.2 1282.56 374.64C1284.1 374.9 1284.8 375.22 1284.8 376.08C1284.8 376.96 1284.22 377.42 1282.92 377.42C1281.5 377.42 1280.96 376.8 1280.84 375.74H1278.56C1278.66 377.96 1280.24 379.2 1282.94 379.2Z" fill="#333333"/>
<rect x="1079" y="564" width="386" height="72" rx="4" fill="#F6BD60"/>
<path d="M1103.54 606H1106.04L1107.16 602.46H1112.62L1113.76 606H1116.52L1111.8 591.7H1108.32L1103.54 606ZM1109.9 593.88L1112 600.52H1107.78L1109.9 593.88ZM1122.79 606.2C1125.63 606.2 1127.45 604.5 1127.63 602.1H1125.41C1125.27 603.58 1124.17 604.34 1122.89 604.34C1121.11 604.34 1119.99 603.14 1119.99 600.86V600.7C1119.99 598.54 1121.17 597.26 1122.83 597.26C1124.11 597.26 1125.03 597.84 1125.23 599.24H1127.57C1127.29 596.36 1125.11 595.32 1122.79 595.32C1119.87 595.32 1117.51 597.42 1117.51 600.74V600.9C1117.51 604.24 1119.79 606.2 1122.79 606.2ZM1134.29 606.2C1137.13 606.2 1138.95 604.5 1139.13 602.1H1136.91C1136.77 603.58 1135.67 604.34 1134.39 604.34C1132.61 604.34 1131.49 603.14 1131.49 600.86V600.7C1131.49 598.54 1132.67 597.26 1134.33 597.26C1135.61 597.26 1136.53 597.84 1136.73 599.24H1139.07C1138.79 596.36 1136.61 595.32 1134.29 595.32C1131.37 595.32 1129.01 597.42 1129.01 600.74V600.9C1129.01 604.24 1131.29 606.2 1134.29 606.2ZM1145.82 606.2C1148.5 606.2 1150.28 605 1150.62 602.8H1148.28C1148.1 603.82 1147.34 604.4 1145.88 604.4C1144.08 604.4 1143.08 603.28 1143 601.3H1150.66V600.6C1150.66 596.86 1148.32 595.32 1145.72 595.32C1142.74 595.32 1140.52 597.48 1140.52 600.72V600.88C1140.52 604.18 1142.74 606.2 1145.82 606.2ZM1143.04 599.68C1143.28 598.06 1144.26 597.08 1145.72 597.08C1147.22 597.08 1148.14 597.88 1148.26 599.68H1143.04ZM1156.5 606.2C1159.18 606.2 1160.68 604.98 1160.68 602.86C1160.68 600.64 1159.22 600.04 1156.76 599.66C1155.1 599.38 1154.6 599.08 1154.6 598.32C1154.6 597.58 1155.22 597.08 1156.26 597.08C1157.38 597.08 1157.92 597.52 1158.12 598.48H1160.36C1160.1 596.12 1158.4 595.32 1156.26 595.32C1154.3 595.32 1152.34 596.36 1152.34 598.46C1152.34 600.42 1153.36 601.2 1156.12 601.64C1157.66 601.9 1158.36 602.22 1158.36 603.08C1158.36 603.96 1157.78 604.42 1156.48 604.42C1155.06 604.42 1154.52 603.8 1154.4 602.74H1152.12C1152.22 604.96 1153.8 606.2 1156.5 606.2ZM1166.38 606.2C1169.06 606.2 1170.56 604.98 1170.56 602.86C1170.56 600.64 1169.1 600.04 1166.64 599.66C1164.98 599.38 1164.48 599.08 1164.48 598.32C1164.48 597.58 1165.1 597.08 1166.14 597.08C1167.26 597.08 1167.8 597.52 1168 598.48H1170.24C1169.98 596.12 1168.28 595.32 1166.14 595.32C1164.18 595.32 1162.22 596.36 1162.22 598.46C1162.22 600.42 1163.24 601.2 1166 601.64C1167.54 601.9 1168.24 602.22 1168.24 603.08C1168.24 603.96 1167.66 604.42 1166.36 604.42C1164.94 604.42 1164.4 603.8 1164.28 602.74H1162C1162.1 604.96 1163.68 606.2 1166.38 606.2ZM1177.51 606H1179.93V595.54H1177.51V606ZM1178.69 593.82C1179.49 593.82 1180.13 593.22 1180.13 592.44C1180.13 591.64 1179.49 591.04 1178.69 591.04C1177.89 591.04 1177.25 591.64 1177.25 592.44C1177.25 593.22 1177.89 593.82 1178.69 593.82ZM1182.88 606H1185.3V599.84C1185.3 598.18 1186.4 597.34 1187.76 597.34C1189.2 597.34 1189.84 598.06 1189.84 599.64V606H1192.26V599.42C1192.26 596.54 1190.78 595.32 1188.68 595.32C1186.96 595.32 1185.8 596.18 1185.3 597.2V595.54H1182.88V606ZM1195.47 606H1197.89V597.36H1200.27V595.54H1197.89V594.04C1197.89 593.14 1198.29 592.5 1199.27 592.5C1199.71 592.5 1200.09 592.58 1200.37 592.68V590.8C1199.93 590.66 1199.57 590.6 1198.99 590.6C1196.75 590.6 1195.47 591.84 1195.47 594.14V595.54H1194.05V597.36H1195.47V606ZM1206.58 604.32C1204.74 604.32 1203.68 602.98 1203.68 600.84V600.68C1203.68 598.52 1204.78 597.22 1206.58 597.22C1208.38 597.22 1209.46 598.54 1209.46 600.7V600.84C1209.46 602.98 1208.38 604.32 1206.58 604.32ZM1206.56 606.2C1209.64 606.2 1211.94 604.08 1211.94 600.82V600.66C1211.94 597.46 1209.64 595.32 1206.58 595.32C1203.5 595.32 1201.2 597.48 1201.2 600.72V600.88C1201.2 604.06 1203.48 606.2 1206.56 606.2ZM1214.13 606H1216.55V600.56C1216.55 598.34 1217.83 597.66 1219.95 597.64V595.38C1218.19 595.4 1217.21 596.18 1216.55 597.5V595.54H1214.13V606ZM1222.08 606H1224.5V599.74C1224.5 598.14 1225.6 597.34 1226.8 597.34C1227.98 597.34 1228.66 598 1228.66 599.54V606H1231.08V599.74C1231.08 598.14 1232.18 597.34 1233.38 597.34C1234.58 597.34 1235.24 598 1235.24 599.54V606H1237.66V599.38C1237.66 596.5 1236.1 595.32 1234.18 595.32C1232.88 595.32 1231.44 595.9 1230.64 597.2C1230.12 595.9 1229.04 595.32 1227.68 595.32C1226.14 595.32 1225 596.16 1224.5 597.14V595.54H1222.08V606ZM1243.18 606.2C1244.78 606.2 1245.7 605.62 1246.38 604.72V606H1248.76V599.14C1248.76 596.28 1246.92 595.32 1244.58 595.32C1242.24 595.32 1240.3 596.34 1240.1 598.78H1242.44C1242.56 597.74 1243.18 597.14 1244.44 597.14C1245.86 597.14 1246.34 597.84 1246.34 599.24V599.78H1245.04C1242.04 599.78 1239.68 600.66 1239.68 603.1C1239.68 605.28 1241.26 606.2 1243.18 606.2ZM1243.76 604.46C1242.56 604.46 1242.08 603.88 1242.08 603C1242.08 601.72 1243.26 601.3 1245.1 601.3H1246.34V602.34C1246.34 603.68 1245.24 604.46 1243.76 604.46ZM1255.09 606.18C1255.83 606.18 1256.35 606.06 1256.73 605.92V604C1256.39 604.14 1256.03 604.2 1255.55 604.2C1254.79 604.2 1254.35 603.78 1254.35 602.86V597.36H1256.65V595.54H1254.35V593.24H1251.93V595.54H1250.53V597.36H1251.93V603.08C1251.93 605.06 1253.01 606.18 1255.09 606.18ZM1258.97 606H1261.39V595.54H1258.97V606ZM1260.15 593.82C1260.95 593.82 1261.59 593.22 1261.59 592.44C1261.59 591.64 1260.95 591.04 1260.15 591.04C1259.35 591.04 1258.71 591.64 1258.71 592.44C1258.71 593.22 1259.35 593.82 1260.15 593.82ZM1269.02 604.32C1267.18 604.32 1266.12 602.98 1266.12 600.84V600.68C1266.12 598.52 1267.22 597.22 1269.02 597.22C1270.82 597.22 1271.9 598.54 1271.9 600.7V600.84C1271.9 602.98 1270.82 604.32 1269.02 604.32ZM1269 606.2C1272.08 606.2 1274.38 604.08 1274.38 600.82V600.66C1274.38 597.46 1272.08 595.32 1269.02 595.32C1265.94 595.32 1263.64 597.48 1263.64 600.72V600.88C1263.64 604.06 1265.92 606.2 1269 606.2ZM1276.57 606H1278.99V599.84C1278.99 598.18 1280.09 597.34 1281.45 597.34C1282.89 597.34 1283.53 598.06 1283.53 599.64V606H1285.95V599.42C1285.95 596.54 1284.47 595.32 1282.37 595.32C1280.65 595.32 1279.49 596.18 1278.99 597.2V595.54H1276.57V606ZM1296.24 606.2C1297.84 606.2 1298.76 605.62 1299.44 604.72V606H1301.82V599.14C1301.82 596.28 1299.98 595.32 1297.64 595.32C1295.3 595.32 1293.36 596.34 1293.16 598.78H1295.5C1295.62 597.74 1296.24 597.14 1297.5 597.14C1298.92 597.14 1299.4 597.84 1299.4 599.24V599.78H1298.1C1295.1 599.78 1292.74 600.66 1292.74 603.1C1292.74 605.28 1294.32 606.2 1296.24 606.2ZM1296.82 604.46C1295.62 604.46 1295.14 603.88 1295.14 603C1295.14 601.72 1296.32 601.3 1298.16 601.3H1299.4V602.34C1299.4 603.68 1298.3 604.46 1296.82 604.46ZM1304.6 606H1307.02V599.84C1307.02 598.18 1308.12 597.34 1309.48 597.34C1310.92 597.34 1311.56 598.06 1311.56 599.64V606H1313.98V599.42C1313.98 596.54 1312.5 595.32 1310.4 595.32C1308.68 595.32 1307.52 596.18 1307.02 597.2V595.54H1304.6V606ZM1320.68 606.2C1322.22 606.2 1323.56 605.28 1324.12 604.24V606H1326.54V590.7H1324.12V597.14C1323.54 596.1 1322.48 595.32 1320.78 595.32C1318.06 595.32 1316.08 597.44 1316.08 600.78V600.94C1316.08 604.34 1318.06 606.2 1320.68 606.2ZM1321.28 604.28C1319.72 604.28 1318.56 603.18 1318.56 600.88V600.72C1318.56 598.46 1319.6 597.22 1321.38 597.22C1323.14 597.22 1324.2 598.36 1324.2 600.66V600.82C1324.2 603.16 1322.96 604.28 1321.28 604.28ZM1338.11 606.2C1339.65 606.2 1340.99 605.28 1341.55 604.24V606H1343.97V590.7H1341.55V597.14C1340.97 596.1 1339.91 595.32 1338.21 595.32C1335.49 595.32 1333.51 597.44 1333.51 600.78V600.94C1333.51 604.34 1335.49 606.2 1338.11 606.2ZM1338.71 604.28C1337.15 604.28 1335.99 603.18 1335.99 600.88V600.72C1335.99 598.46 1337.03 597.22 1338.81 597.22C1340.57 597.22 1341.63 598.36 1341.63 600.66V600.82C1341.63 603.16 1340.39 604.28 1338.71 604.28ZM1351.52 604.32C1349.68 604.32 1348.62 602.98 1348.62 600.84V600.68C1348.62 598.52 1349.72 597.22 1351.52 597.22C1353.32 597.22 1354.4 598.54 1354.4 600.7V600.84C1354.4 602.98 1353.32 604.32 1351.52 604.32ZM1351.5 606.2C1354.58 606.2 1356.88 604.08 1356.88 600.82V600.66C1356.88 597.46 1354.58 595.32 1351.52 595.32C1348.44 595.32 1346.14 597.48 1346.14 600.72V600.88C1346.14 604.06 1348.42 606.2 1351.5 606.2ZM1363.65 606.2C1366.49 606.2 1368.31 604.5 1368.49 602.1H1366.27C1366.13 603.58 1365.03 604.34 1363.75 604.34C1361.97 604.34 1360.85 603.14 1360.85 600.86V600.7C1360.85 598.54 1362.03 597.26 1363.69 597.26C1364.97 597.26 1365.89 597.84 1366.09 599.24H1368.43C1368.15 596.36 1365.97 595.32 1363.65 595.32C1360.73 595.32 1358.37 597.42 1358.37 600.74V600.9C1358.37 604.24 1360.65 606.2 1363.65 606.2ZM1374.07 606.2C1375.77 606.2 1376.87 605.38 1377.39 604.36V606H1379.81V595.54H1377.39V601.76C1377.39 603.42 1376.25 604.26 1374.95 604.26C1373.55 604.26 1372.89 603.54 1372.89 601.96V595.54H1370.47V602.24C1370.47 605.02 1372.01 606.2 1374.07 606.2ZM1382.68 606H1385.1V599.74C1385.1 598.14 1386.2 597.34 1387.4 597.34C1388.58 597.34 1389.26 598 1389.26 599.54V606H1391.68V599.74C1391.68 598.14 1392.78 597.34 1393.98 597.34C1395.18 597.34 1395.84 598 1395.84 599.54V606H1398.26V599.38C1398.26 596.5 1396.7 595.32 1394.78 595.32C1393.48 595.32 1392.04 595.9 1391.24 597.2C1390.72 595.9 1389.64 595.32 1388.28 595.32C1386.74 595.32 1385.6 596.16 1385.1 597.14V595.54H1382.68V606ZM1405.64 606.2C1408.32 606.2 1410.1 605 1410.44 602.8H1408.1C1407.92 603.82 1407.16 604.4 1405.7 604.4C1403.9 604.4 1402.9 603.28 1402.82 601.3H1410.48V600.6C1410.48 596.86 1408.14 595.32 1405.54 595.32C1402.56 595.32 1400.34 597.48 1400.34 600.72V600.88C1400.34 604.18 1402.56 606.2 1405.64 606.2ZM1402.86 599.68C1403.1 598.06 1404.08 597.08 1405.54 597.08C1407.04 597.08 1407.96 597.88 1408.08 599.68H1402.86ZM1412.64 606H1415.06V599.84C1415.06 598.18 1416.16 597.34 1417.52 597.34C1418.96 597.34 1419.6 598.06 1419.6 599.64V606H1422.02V599.42C1422.02 596.54 1420.54 595.32 1418.44 595.32C1416.72 595.32 1415.56 596.18 1415.06 597.2V595.54H1412.64V606ZM1428.37 606.18C1429.11 606.18 1429.63 606.06 1430.01 605.92V604C1429.67 604.14 1429.31 604.2 1428.83 604.2C1428.07 604.2 1427.63 603.78 1427.63 602.86V597.36H1429.93V595.54H1427.63V593.24H1425.21V595.54H1423.81V597.36H1425.21V603.08C1425.21 605.06 1426.29 606.18 1428.37 606.18ZM1435.87 606.2C1438.55 606.2 1440.05 604.98 1440.05 602.86C1440.05 600.64 1438.59 600.04 1436.13 599.66C1434.47 599.38 1433.97 599.08 1433.97 598.32C1433.97 597.58 1434.59 597.08 1435.63 597.08C1436.75 597.08 1437.29 597.52 1437.49 598.48H1439.73C1439.47 596.12 1437.77 595.32 1435.63 595.32C1433.67 595.32 1431.71 596.36 1431.71 598.46C1431.71 600.42 1432.73 601.2 1435.49 601.64C1437.03 601.9 1437.73 602.22 1437.73 603.08C1437.73 603.96 1437.15 604.42 1435.85 604.42C1434.43 604.42 1433.89 603.8 1433.77 602.74H1431.49C1431.59 604.96 1433.17 606.2 1435.87 606.2Z" fill="#333333"/>
<rect x="1079" y="435" width="313" height="72" rx="4" fill="#F6BD60"/>
<path d="M1108.28 477H1111.36L1116.2 462.7H1113.7L1109.96 474.3L1106.24 462.7H1103.46L1108.28 477ZM1117.96 477H1120.38V466.54H1117.96V477ZM1119.14 464.82C1119.94 464.82 1120.58 464.22 1120.58 463.44C1120.58 462.64 1119.94 462.04 1119.14 462.04C1118.34 462.04 1117.7 462.64 1117.7 463.44C1117.7 464.22 1118.34 464.82 1119.14 464.82ZM1127.93 477.2C1130.61 477.2 1132.39 476 1132.73 473.8H1130.39C1130.21 474.82 1129.45 475.4 1127.99 475.4C1126.19 475.4 1125.19 474.28 1125.11 472.3H1132.77V471.6C1132.77 467.86 1130.43 466.32 1127.83 466.32C1124.85 466.32 1122.63 468.48 1122.63 471.72V471.88C1122.63 475.18 1124.85 477.2 1127.93 477.2ZM1125.15 470.68C1125.39 469.06 1126.37 468.08 1127.83 468.08C1129.33 468.08 1130.25 468.88 1130.37 470.68H1125.15ZM1136.89 477H1139.37L1141.49 469.96L1143.43 477H1145.89L1149.17 466.54H1146.81L1144.63 474.1L1142.59 466.54H1140.57L1138.35 474.1L1136.27 466.54H1133.69L1136.89 477ZM1160.25 480.84C1163.49 480.84 1165.55 479.3 1165.57 476.22V466.54H1163.15V468.14C1162.55 467.1 1161.51 466.32 1159.79 466.32C1157.09 466.32 1155.09 468.52 1155.09 471.46V471.6C1155.09 474.62 1157.11 476.58 1159.73 476.58C1161.27 476.58 1162.57 475.64 1163.15 474.64V476.18C1163.15 478.06 1162.11 479 1160.23 479C1158.65 479 1157.85 478.4 1157.65 477.36H1155.21C1155.49 479.36 1156.97 480.84 1160.25 480.84ZM1160.33 474.72C1158.77 474.72 1157.57 473.52 1157.57 471.58V471.42C1157.57 469.52 1158.61 468.22 1160.41 468.22C1162.15 468.22 1163.23 469.4 1163.23 471.38V471.52C1163.23 473.52 1162.01 474.72 1160.33 474.72ZM1173.12 475.32C1171.28 475.32 1170.22 473.98 1170.22 471.84V471.68C1170.22 469.52 1171.32 468.22 1173.12 468.22C1174.92 468.22 1176 469.54 1176 471.7V471.84C1176 473.98 1174.92 475.32 1173.12 475.32ZM1173.1 477.2C1176.18 477.2 1178.48 475.08 1178.48 471.82V471.66C1178.48 468.46 1176.18 466.32 1173.12 466.32C1170.04 466.32 1167.74 468.48 1167.74 471.72V471.88C1167.74 475.06 1170.02 477.2 1173.1 477.2ZM1183.02 477H1185.84L1189.62 466.54H1187.24L1184.54 474.52L1181.8 466.54H1179.2L1183.02 477ZM1195.62 477.2C1198.3 477.2 1200.08 476 1200.42 473.8H1198.08C1197.9 474.82 1197.14 475.4 1195.68 475.4C1193.88 475.4 1192.88 474.28 1192.8 472.3H1200.46V471.6C1200.46 467.86 1198.12 466.32 1195.52 466.32C1192.54 466.32 1190.32 468.48 1190.32 471.72V471.88C1190.32 475.18 1192.54 477.2 1195.62 477.2ZM1192.84 470.68C1193.08 469.06 1194.06 468.08 1195.52 468.08C1197.02 468.08 1197.94 468.88 1198.06 470.68H1192.84ZM1202.62 477H1205.04V471.56C1205.04 469.34 1206.32 468.66 1208.44 468.64V466.38C1206.68 466.4 1205.7 467.18 1205.04 468.5V466.54H1202.62V477ZM1210.57 477H1212.99V470.84C1212.99 469.18 1214.09 468.34 1215.45 468.34C1216.89 468.34 1217.53 469.06 1217.53 470.64V477H1219.95V470.42C1219.95 467.54 1218.47 466.32 1216.37 466.32C1214.65 466.32 1213.49 467.18 1212.99 468.2V466.54H1210.57V477ZM1222.74 477H1225.16V470.74C1225.16 469.14 1226.26 468.34 1227.46 468.34C1228.64 468.34 1229.32 469 1229.32 470.54V477H1231.74V470.74C1231.74 469.14 1232.84 468.34 1234.04 468.34C1235.24 468.34 1235.9 469 1235.9 470.54V477H1238.32V470.38C1238.32 467.5 1236.76 466.32 1234.84 466.32C1233.54 466.32 1232.1 466.9 1231.3 468.2C1230.78 466.9 1229.7 466.32 1228.34 466.32C1226.8 466.32 1225.66 467.16 1225.16 468.14V466.54H1222.74V477ZM1245.7 477.2C1248.38 477.2 1250.16 476 1250.5 473.8H1248.16C1247.98 474.82 1247.22 475.4 1245.76 475.4C1243.96 475.4 1242.96 474.28 1242.88 472.3H1250.54V471.6C1250.54 467.86 1248.2 466.32 1245.6 466.32C1242.62 466.32 1240.4 468.48 1240.4 471.72V471.88C1240.4 475.18 1242.62 477.2 1245.7 477.2ZM1242.92 470.68C1243.16 469.06 1244.14 468.08 1245.6 468.08C1247.1 468.08 1248.02 468.88 1248.14 470.68H1242.92ZM1252.7 477H1255.12V470.84C1255.12 469.18 1256.22 468.34 1257.58 468.34C1259.02 468.34 1259.66 469.06 1259.66 470.64V477H1262.08V470.42C1262.08 467.54 1260.6 466.32 1258.5 466.32C1256.78 466.32 1255.62 467.18 1255.12 468.2V466.54H1252.7V477ZM1268.43 477.18C1269.17 477.18 1269.69 477.06 1270.07 476.92V475C1269.73 475.14 1269.37 475.2 1268.89 475.2C1268.13 475.2 1267.69 474.78 1267.69 473.86V468.36H1269.99V466.54H1267.69V464.24H1265.27V466.54H1263.87V468.36H1265.27V474.08C1265.27 476.06 1266.35 477.18 1268.43 477.18ZM1277.02 477H1279.44V471.56C1279.44 469.34 1280.72 468.66 1282.84 468.64V466.38C1281.08 466.4 1280.1 467.18 1279.44 468.5V466.54H1277.02V477ZM1285.03 477H1287.45V466.54H1285.03V477ZM1286.21 464.82C1287.01 464.82 1287.65 464.22 1287.65 463.44C1287.65 462.64 1287.01 462.04 1286.21 462.04C1285.41 462.04 1284.77 462.64 1284.77 463.44C1284.77 464.22 1285.41 464.82 1286.21 464.82ZM1294.86 480.84C1298.1 480.84 1300.16 479.3 1300.18 476.22V466.54H1297.76V468.14C1297.16 467.1 1296.12 466.32 1294.4 466.32C1291.7 466.32 1289.7 468.52 1289.7 471.46V471.6C1289.7 474.62 1291.72 476.58 1294.34 476.58C1295.88 476.58 1297.18 475.64 1297.76 474.64V476.18C1297.76 478.06 1296.72 479 1294.84 479C1293.26 479 1292.46 478.4 1292.26 477.36H1289.82C1290.1 479.36 1291.58 480.84 1294.86 480.84ZM1294.94 474.72C1293.38 474.72 1292.18 473.52 1292.18 471.58V471.42C1292.18 469.52 1293.22 468.22 1295.02 468.22C1296.76 468.22 1297.84 469.4 1297.84 471.38V471.52C1297.84 473.52 1296.62 474.72 1294.94 474.72ZM1303.05 477H1305.47V470.84C1305.47 469.18 1306.57 468.34 1307.93 468.34C1309.37 468.34 1310.01 469.06 1310.01 470.64V477H1312.43V470.42C1312.43 467.54 1310.95 466.32 1308.85 466.32C1307.13 466.32 1305.97 467.18 1305.47 468.2V461.7H1303.05V477ZM1318.78 477.18C1319.52 477.18 1320.04 477.06 1320.42 476.92V475C1320.08 475.14 1319.72 475.2 1319.24 475.2C1318.48 475.2 1318.04 474.78 1318.04 473.86V468.36H1320.34V466.54H1318.04V464.24H1315.62V466.54H1314.22V468.36H1315.62V474.08C1315.62 476.06 1316.7 477.18 1318.78 477.18ZM1326.28 477.2C1328.96 477.2 1330.46 475.98 1330.46 473.86C1330.46 471.64 1329 471.04 1326.54 470.66C1324.88 470.38 1324.38 470.08 1324.38 469.32C1324.38 468.58 1325 468.08 1326.04 468.08C1327.16 468.08 1327.7 468.52 1327.9 469.48H1330.14C1329.88 467.12 1328.18 466.32 1326.04 466.32C1324.08 466.32 1322.12 467.36 1322.12 469.46C1322.12 471.42 1323.14 472.2 1325.9 472.64C1327.44 472.9 1328.14 473.22 1328.14 474.08C1328.14 474.96 1327.56 475.42 1326.26 475.42C1324.84 475.42 1324.3 474.8 1324.18 473.74H1321.9C1322 475.96 1323.58 477.2 1326.28 477.2ZM1330.93 479.96H1332.97L1339.01 461.48H1336.95L1330.93 479.96ZM1342.34 477.2C1343.94 477.2 1344.86 476.62 1345.54 475.72V477H1347.92V470.14C1347.92 467.28 1346.08 466.32 1343.74 466.32C1341.4 466.32 1339.46 467.34 1339.26 469.78H1341.6C1341.72 468.74 1342.34 468.14 1343.6 468.14C1345.02 468.14 1345.5 468.84 1345.5 470.24V470.78H1344.2C1341.2 470.78 1338.84 471.66 1338.84 474.1C1338.84 476.28 1340.42 477.2 1342.34 477.2ZM1342.92 475.46C1341.72 475.46 1341.24 474.88 1341.24 474C1341.24 472.72 1342.42 472.3 1344.26 472.3H1345.5V473.34C1345.5 474.68 1344.4 475.46 1342.92 475.46ZM1350.75 477H1353.17V466.54H1350.75V477ZM1351.93 464.82C1352.73 464.82 1353.37 464.22 1353.37 463.44C1353.37 462.64 1352.73 462.04 1351.93 462.04C1351.13 462.04 1350.49 462.64 1350.49 463.44C1350.49 464.22 1351.13 464.82 1351.93 464.82ZM1360.04 477.2C1361.58 477.2 1362.92 476.28 1363.48 475.24V477H1365.9V461.7H1363.48V468.14C1362.9 467.1 1361.84 466.32 1360.14 466.32C1357.42 466.32 1355.44 468.44 1355.44 471.78V471.94C1355.44 475.34 1357.42 477.2 1360.04 477.2ZM1360.64 475.28C1359.08 475.28 1357.92 474.18 1357.92 471.88V471.72C1357.92 469.46 1358.96 468.22 1360.74 468.22C1362.5 468.22 1363.56 469.36 1363.56 471.66V471.82C1363.56 474.16 1362.32 475.28 1360.64 475.28Z" fill="#333333"/>
<rect x="1079" y="13" width="206" height="72" rx="4" fill="#F6BD60"/>
<path d="M1108.28 55H1111.36L1116.2 40.7H1113.7L1109.96 52.3L1106.24 40.7H1103.46L1108.28 55ZM1117.96 55H1120.38V44.54H1117.96V55ZM1119.14 42.82C1119.94 42.82 1120.58 42.22 1120.58 41.44C1120.58 40.64 1119.94 40.04 1119.14 40.04C1118.34 40.04 1117.7 40.64 1117.7 41.44C1117.7 42.22 1118.34 42.82 1119.14 42.82ZM1127.93 55.2C1130.61 55.2 1132.39 54 1132.73 51.8H1130.39C1130.21 52.82 1129.45 53.4 1127.99 53.4C1126.19 53.4 1125.19 52.28 1125.11 50.3H1132.77V49.6C1132.77 45.86 1130.43 44.32 1127.83 44.32C1124.85 44.32 1122.63 46.48 1122.63 49.72V49.88C1122.63 53.18 1124.85 55.2 1127.93 55.2ZM1125.15 48.68C1125.39 47.06 1126.37 46.08 1127.83 46.08C1129.33 46.08 1130.25 46.88 1130.37 48.68H1125.15ZM1136.89 55H1139.37L1141.49 47.96L1143.43 55H1145.89L1149.17 44.54H1146.81L1144.63 52.1L1142.59 44.54H1140.57L1138.35 52.1L1136.27 44.54H1133.69L1136.89 55ZM1156.07 55H1158.75V40.7H1156.07V55ZM1168.38 55.2C1171.78 55.2 1174.22 53.46 1174.64 50.02H1172.04C1171.76 52.04 1170.36 53.04 1168.38 53.04C1165.74 53.04 1164.2 51.14 1164.2 47.92V47.76C1164.2 44.56 1165.84 42.6 1168.36 42.6C1170.42 42.6 1171.48 43.58 1171.78 45.48H1174.48C1174.16 42.12 1171.62 40.48 1168.34 40.48C1164.36 40.48 1161.4 43.48 1161.4 47.78V47.94C1161.4 52.34 1163.9 55.2 1168.38 55.2ZM1176.94 55H1179.6V49.14H1184.48V47.08H1179.6V42.82H1185.8V40.7H1176.94V55ZM1190.56 55H1193.1L1196 44.58L1198.82 55H1201.48L1205.06 40.7H1202.58L1200.02 51.26L1197.18 40.7H1194.98L1192.2 51.2L1189.72 40.7H1187L1190.56 55ZM1211.78 55H1214.2V48.84C1214.2 47.18 1215.3 46.34 1216.66 46.34C1218.1 46.34 1218.74 47.06 1218.74 48.64V55H1221.16V48.42C1221.16 45.54 1219.68 44.32 1217.58 44.32C1215.86 44.32 1214.7 45.18 1214.2 46.2V44.54H1211.78V55ZM1228.55 55.2C1231.23 55.2 1233.01 54 1233.35 51.8H1231.01C1230.83 52.82 1230.07 53.4 1228.61 53.4C1226.81 53.4 1225.81 52.28 1225.73 50.3H1233.39V49.6C1233.39 45.86 1231.05 44.32 1228.45 44.32C1225.47 44.32 1223.25 46.48 1223.25 49.72V49.88C1223.25 53.18 1225.47 55.2 1228.55 55.2ZM1225.77 48.68C1226.01 47.06 1226.99 46.08 1228.45 46.08C1229.95 46.08 1230.87 46.88 1230.99 48.68H1225.77ZM1237.52 55H1240L1242.12 47.96L1244.06 55H1246.52L1249.8 44.54H1247.44L1245.26 52.1L1243.22 44.54H1241.2L1238.98 52.1L1236.9 44.54H1234.32L1237.52 55ZM1255.23 55.2C1257.91 55.2 1259.41 53.98 1259.41 51.86C1259.41 49.64 1257.95 49.04 1255.49 48.66C1253.83 48.38 1253.33 48.08 1253.33 47.32C1253.33 46.58 1253.95 46.08 1254.99 46.08C1256.11 46.08 1256.65 46.52 1256.85 47.48H1259.09C1258.83 45.12 1257.13 44.32 1254.99 44.32C1253.03 44.32 1251.07 45.36 1251.07 47.46C1251.07 49.42 1252.09 50.2 1254.85 50.64C1256.39 50.9 1257.09 51.22 1257.09 52.08C1257.09 52.96 1256.51 53.42 1255.21 53.42C1253.79 53.42 1253.25 52.8 1253.13 51.74H1250.85C1250.95 53.96 1252.53 55.2 1255.23 55.2Z" fill="#333333"/>
<rect x="1079" y="108" width="292" height="72" rx="4" fill="#F6BD60"/>
<path d="M1109.5 150.2C1112.66 150.2 1114.76 148.26 1114.76 145.78C1114.76 142.92 1113.02 141.96 1109.66 141.5C1107.18 141.14 1106.7 140.56 1106.7 139.4C1106.7 138.3 1107.54 137.52 1109.16 137.52C1110.8 137.52 1111.66 138.16 1111.92 139.66H1114.36C1114.08 136.92 1112.24 135.52 1109.16 135.52C1106.18 135.52 1104.18 137.28 1104.18 139.62C1104.18 142.3 1105.8 143.34 1109.22 143.8C1111.54 144.18 1112.2 144.68 1112.2 146C1112.2 147.32 1111.08 148.2 1109.5 148.2C1107.08 148.2 1106.5 147 1106.32 145.56H1103.76C1103.96 148.26 1105.6 150.2 1109.5 150.2ZM1117.2 150H1119.62V139.54H1117.2V150ZM1118.38 137.82C1119.18 137.82 1119.82 137.22 1119.82 136.44C1119.82 135.64 1119.18 135.04 1118.38 135.04C1117.58 135.04 1116.94 135.64 1116.94 136.44C1116.94 137.22 1117.58 137.82 1118.38 137.82ZM1127.03 153.84C1130.27 153.84 1132.33 152.3 1132.35 149.22V139.54H1129.93V141.14C1129.33 140.1 1128.29 139.32 1126.57 139.32C1123.87 139.32 1121.87 141.52 1121.87 144.46V144.6C1121.87 147.62 1123.89 149.58 1126.51 149.58C1128.05 149.58 1129.35 148.64 1129.93 147.64V149.18C1129.93 151.06 1128.89 152 1127 152C1125.43 152 1124.63 151.4 1124.43 150.36H1121.99C1122.27 152.36 1123.75 153.84 1127.03 153.84ZM1127.11 147.72C1125.55 147.72 1124.35 146.52 1124.35 144.58V144.42C1124.35 142.52 1125.39 141.22 1127.19 141.22C1128.93 141.22 1130.01 142.4 1130.01 144.38V144.52C1130.01 146.52 1128.79 147.72 1127.11 147.72ZM1135.22 150H1137.64V143.84C1137.64 142.18 1138.74 141.34 1140.1 141.34C1141.54 141.34 1142.18 142.06 1142.18 143.64V150H1144.6V143.42C1144.6 140.54 1143.12 139.32 1141.02 139.32C1139.3 139.32 1138.14 140.18 1137.64 141.2V139.54H1135.22V150ZM1155.65 150.2C1157.35 150.2 1158.45 149.38 1158.97 148.36V150H1161.39V139.54H1158.97V145.76C1158.97 147.42 1157.83 148.26 1156.53 148.26C1155.13 148.26 1154.47 147.54 1154.47 145.96V139.54H1152.05V146.24C1152.05 149.02 1153.59 150.2 1155.65 150.2ZM1164.26 153.58H1166.68V148.36C1167.24 149.38 1168.44 150.2 1170.1 150.2C1172.8 150.2 1174.74 148.16 1174.74 144.8V144.64C1174.74 141.26 1172.72 139.32 1170.1 139.32C1168.56 139.32 1167.26 140.22 1166.68 141.22V139.54H1164.26V153.58ZM1169.5 148.28C1167.74 148.28 1166.6 147.18 1166.6 144.84V144.68C1166.6 142.36 1167.8 141.22 1169.48 141.22C1171.06 141.22 1172.26 142.36 1172.26 144.68V144.84C1172.26 147.08 1171.28 148.28 1169.5 148.28ZM1182.11 150H1184.53V141.36H1186.91V139.54H1184.53V138.04C1184.53 137.14 1184.93 136.5 1185.91 136.5C1186.35 136.5 1186.73 136.58 1187.01 136.68V134.8C1186.57 134.66 1186.21 134.6 1185.63 134.6C1183.39 134.6 1182.11 135.84 1182.11 138.14V139.54H1180.69V141.36H1182.11V150ZM1193.22 148.32C1191.38 148.32 1190.32 146.98 1190.32 144.84V144.68C1190.32 142.52 1191.42 141.22 1193.22 141.22C1195.02 141.22 1196.1 142.54 1196.1 144.7V144.84C1196.1 146.98 1195.02 148.32 1193.22 148.32ZM1193.2 150.2C1196.28 150.2 1198.58 148.08 1198.58 144.82V144.66C1198.58 141.46 1196.28 139.32 1193.22 139.32C1190.14 139.32 1187.84 141.48 1187.84 144.72V144.88C1187.84 148.06 1190.12 150.2 1193.2 150.2ZM1200.77 150H1203.19V144.56C1203.19 142.34 1204.47 141.66 1206.59 141.64V139.38C1204.83 139.4 1203.85 140.18 1203.19 141.5V139.54H1200.77V150ZM1213.54 150H1215.96V134.7H1213.54V150ZM1223.59 148.32C1221.75 148.32 1220.69 146.98 1220.69 144.84V144.68C1220.69 142.52 1221.79 141.22 1223.59 141.22C1225.39 141.22 1226.47 142.54 1226.47 144.7V144.84C1226.47 146.98 1225.39 148.32 1223.59 148.32ZM1223.57 150.2C1226.65 150.2 1228.95 148.08 1228.95 144.82V144.66C1228.95 141.46 1226.65 139.32 1223.59 139.32C1220.51 139.32 1218.21 141.48 1218.21 144.72V144.88C1218.21 148.06 1220.49 150.2 1223.57 150.2ZM1235.72 150.2C1238.56 150.2 1240.38 148.5 1240.56 146.1H1238.34C1238.2 147.58 1237.1 148.34 1235.82 148.34C1234.04 148.34 1232.92 147.14 1232.92 144.86V144.7C1232.92 142.54 1234.1 141.26 1235.76 141.26C1237.04 141.26 1237.96 141.84 1238.16 143.24H1240.5C1240.22 140.36 1238.04 139.32 1235.72 139.32C1232.8 139.32 1230.44 141.42 1230.44 144.74V144.9C1230.44 148.24 1232.72 150.2 1235.72 150.2ZM1245.38 150.2C1246.98 150.2 1247.9 149.62 1248.58 148.72V150H1250.96V143.14C1250.96 140.28 1249.12 139.32 1246.78 139.32C1244.44 139.32 1242.5 140.34 1242.3 142.78H1244.64C1244.76 141.74 1245.38 141.14 1246.64 141.14C1248.06 141.14 1248.54 141.84 1248.54 143.24V143.78H1247.24C1244.24 143.78 1241.88 144.66 1241.88 147.1C1241.88 149.28 1243.46 150.2 1245.38 150.2ZM1245.96 148.46C1244.76 148.46 1244.28 147.88 1244.28 147C1244.28 145.72 1245.46 145.3 1247.3 145.3H1248.54V146.34C1248.54 147.68 1247.44 148.46 1245.96 148.46ZM1253.8 150H1256.22V134.7H1253.8V150ZM1263.93 153.58H1266.35V148.36C1266.91 149.38 1268.11 150.2 1269.77 150.2C1272.47 150.2 1274.41 148.16 1274.41 144.8V144.64C1274.41 141.26 1272.39 139.32 1269.77 139.32C1268.23 139.32 1266.93 140.22 1266.35 141.22V139.54H1263.93V153.58ZM1269.17 148.28C1267.41 148.28 1266.27 147.18 1266.27 144.84V144.68C1266.27 142.36 1267.47 141.22 1269.15 141.22C1270.73 141.22 1271.93 142.36 1271.93 144.68V144.84C1271.93 147.08 1270.95 148.28 1269.17 148.28ZM1281.19 150.2C1283.87 150.2 1285.65 149 1285.99 146.8H1283.65C1283.47 147.82 1282.71 148.4 1281.25 148.4C1279.45 148.4 1278.45 147.28 1278.37 145.3H1286.03V144.6C1286.03 140.86 1283.69 139.32 1281.09 139.32C1278.11 139.32 1275.89 141.48 1275.89 144.72V144.88C1275.89 148.18 1278.11 150.2 1281.19 150.2ZM1278.41 143.68C1278.65 142.06 1279.63 141.08 1281.09 141.08C1282.59 141.08 1283.51 141.88 1283.63 143.68H1278.41ZM1291.75 150.18C1292.49 150.18 1293.01 150.06 1293.39 149.92V148C1293.05 148.14 1292.69 148.2 1292.21 148.2C1291.45 148.2 1291.01 147.78 1291.01 146.86V141.36H1293.31V139.54H1291.01V137.24H1288.59V139.54H1287.19V141.36H1288.59V147.08C1288.59 149.06 1289.67 150.18 1291.75 150.18ZM1295.63 150H1298.05V139.54H1295.63V150ZM1296.81 137.82C1297.61 137.82 1298.25 137.22 1298.25 136.44C1298.25 135.64 1297.61 135.04 1296.81 135.04C1296.01 135.04 1295.37 135.64 1295.37 136.44C1295.37 137.22 1296.01 137.82 1296.81 137.82ZM1304.56 150.18C1305.3 150.18 1305.82 150.06 1306.2 149.92V148C1305.86 148.14 1305.5 148.2 1305.02 148.2C1304.26 148.2 1303.82 147.78 1303.82 146.86V141.36H1306.12V139.54H1303.82V137.24H1301.4V139.54H1300V141.36H1301.4V147.08C1301.4 149.06 1302.48 150.18 1304.56 150.18ZM1308.45 150H1310.87V139.54H1308.45V150ZM1309.63 137.82C1310.43 137.82 1311.07 137.22 1311.07 136.44C1311.07 135.64 1310.43 135.04 1309.63 135.04C1308.83 135.04 1308.19 135.64 1308.19 136.44C1308.19 137.22 1308.83 137.82 1309.63 137.82ZM1318.5 148.32C1316.66 148.32 1315.6 146.98 1315.6 144.84V144.68C1315.6 142.52 1316.7 141.22 1318.5 141.22C1320.3 141.22 1321.38 142.54 1321.38 144.7V144.84C1321.38 146.98 1320.3 148.32 1318.5 148.32ZM1318.48 150.2C1321.56 150.2 1323.86 148.08 1323.86 144.82V144.66C1323.86 141.46 1321.56 139.32 1318.5 139.32C1315.42 139.32 1313.12 141.48 1313.12 144.72V144.88C1313.12 148.06 1315.4 150.2 1318.48 150.2ZM1326.04 150H1328.46V143.84C1328.46 142.18 1329.56 141.34 1330.92 141.34C1332.36 141.34 1333 142.06 1333 143.64V150H1335.42V143.42C1335.42 140.54 1333.94 139.32 1331.84 139.32C1330.12 139.32 1328.96 140.18 1328.46 141.2V139.54H1326.04V150ZM1341.79 150.2C1344.47 150.2 1345.97 148.98 1345.97 146.86C1345.97 144.64 1344.51 144.04 1342.05 143.66C1340.39 143.38 1339.89 143.08 1339.89 142.32C1339.89 141.58 1340.51 141.08 1341.55 141.08C1342.67 141.08 1343.21 141.52 1343.41 142.48H1345.65C1345.39 140.12 1343.69 139.32 1341.55 139.32C1339.59 139.32 1337.63 140.36 1337.63 142.46C1337.63 144.42 1338.65 145.2 1341.41 145.64C1342.95 145.9 1343.65 146.22 1343.65 147.08C1343.65 147.96 1343.07 148.42 1341.77 148.42C1340.35 148.42 1339.81 147.8 1339.69 146.74H1337.41C1337.51 148.96 1339.09 150.2 1341.79 150.2Z" fill="#333333"/>
<rect x="1079" y="203" width="266" height="72" rx="4" fill="#F6BD60"/>
<path d="M1103.54 245H1106.04L1107.16 241.46H1112.62L1113.76 245H1116.52L1111.8 230.7H1108.32L1103.54 245ZM1109.9 232.88L1112 239.52H1107.78L1109.9 232.88ZM1122.79 245.2C1125.63 245.2 1127.45 243.5 1127.63 241.1H1125.41C1125.27 242.58 1124.17 243.34 1122.89 243.34C1121.11 243.34 1119.99 242.14 1119.99 239.86V239.7C1119.99 237.54 1121.17 236.26 1122.83 236.26C1124.11 236.26 1125.03 236.84 1125.23 238.24H1127.57C1127.29 235.36 1125.11 234.32 1122.79 234.32C1119.87 234.32 1117.51 236.42 1117.51 239.74V239.9C1117.51 243.24 1119.79 245.2 1122.79 245.2ZM1134.29 245.2C1137.13 245.2 1138.95 243.5 1139.13 241.1H1136.91C1136.77 242.58 1135.67 243.34 1134.39 243.34C1132.61 243.34 1131.49 242.14 1131.49 239.86V239.7C1131.49 237.54 1132.67 236.26 1134.33 236.26C1135.61 236.26 1136.53 236.84 1136.73 238.24H1139.07C1138.79 235.36 1136.61 234.32 1134.29 234.32C1131.37 234.32 1129.01 236.42 1129.01 239.74V239.9C1129.01 243.24 1131.29 245.2 1134.29 245.2ZM1145.82 245.2C1148.5 245.2 1150.28 244 1150.62 241.8H1148.28C1148.1 242.82 1147.34 243.4 1145.88 243.4C1144.08 243.4 1143.08 242.28 1143 240.3H1150.66V239.6C1150.66 235.86 1148.32 234.32 1145.72 234.32C1142.74 234.32 1140.52 236.48 1140.52 239.72V239.88C1140.52 243.18 1142.74 245.2 1145.82 245.2ZM1143.04 238.68C1143.28 237.06 1144.26 236.08 1145.72 236.08C1147.22 236.08 1148.14 236.88 1148.26 238.68H1143.04ZM1156.5 245.2C1159.18 245.2 1160.68 243.98 1160.68 241.86C1160.68 239.64 1159.22 239.04 1156.76 238.66C1155.1 238.38 1154.6 238.08 1154.6 237.32C1154.6 236.58 1155.22 236.08 1156.26 236.08C1157.38 236.08 1157.92 236.52 1158.12 237.48H1160.36C1160.1 235.12 1158.4 234.32 1156.26 234.32C1154.3 234.32 1152.34 235.36 1152.34 237.46C1152.34 239.42 1153.36 240.2 1156.12 240.64C1157.66 240.9 1158.36 241.22 1158.36 242.08C1158.36 242.96 1157.78 243.42 1156.48 243.42C1155.06 243.42 1154.52 242.8 1154.4 241.74H1152.12C1152.22 243.96 1153.8 245.2 1156.5 245.2ZM1166.38 245.2C1169.06 245.2 1170.56 243.98 1170.56 241.86C1170.56 239.64 1169.1 239.04 1166.64 238.66C1164.98 238.38 1164.48 238.08 1164.48 237.32C1164.48 236.58 1165.1 236.08 1166.14 236.08C1167.26 236.08 1167.8 236.52 1168 237.48H1170.24C1169.98 235.12 1168.28 234.32 1166.14 234.32C1164.18 234.32 1162.22 235.36 1162.22 237.46C1162.22 239.42 1163.24 240.2 1166 240.64C1167.54 240.9 1168.24 241.22 1168.24 242.08C1168.24 242.96 1167.66 243.42 1166.36 243.42C1164.94 243.42 1164.4 242.8 1164.28 241.74H1162C1162.1 243.96 1163.68 245.2 1166.38 245.2ZM1177.51 245H1179.93V229.7H1177.51V245ZM1187.56 243.32C1185.72 243.32 1184.66 241.98 1184.66 239.84V239.68C1184.66 237.52 1185.76 236.22 1187.56 236.22C1189.36 236.22 1190.44 237.54 1190.44 239.7V239.84C1190.44 241.98 1189.36 243.32 1187.56 243.32ZM1187.54 245.2C1190.62 245.2 1192.92 243.08 1192.92 239.82V239.66C1192.92 236.46 1190.62 234.32 1187.56 234.32C1184.48 234.32 1182.18 236.48 1182.18 239.72V239.88C1182.18 243.06 1184.46 245.2 1187.54 245.2ZM1199.68 245.2C1202.52 245.2 1204.34 243.5 1204.52 241.1H1202.3C1202.16 242.58 1201.06 243.34 1199.78 243.34C1198 243.34 1196.88 242.14 1196.88 239.86V239.7C1196.88 237.54 1198.06 236.26 1199.72 236.26C1201 236.26 1201.92 236.84 1202.12 238.24H1204.46C1204.18 235.36 1202 234.32 1199.68 234.32C1196.76 234.32 1194.4 236.42 1194.4 239.74V239.9C1194.4 243.24 1196.68 245.2 1199.68 245.2ZM1209.35 245.2C1210.95 245.2 1211.87 244.62 1212.55 243.72V245H1214.93V238.14C1214.93 235.28 1213.09 234.32 1210.75 234.32C1208.41 234.32 1206.47 235.34 1206.27 237.78H1208.61C1208.73 236.74 1209.35 236.14 1210.61 236.14C1212.03 236.14 1212.51 236.84 1212.51 238.24V238.78H1211.21C1208.21 238.78 1205.85 239.66 1205.85 242.1C1205.85 244.28 1207.43 245.2 1209.35 245.2ZM1209.93 243.46C1208.73 243.46 1208.25 242.88 1208.25 242C1208.25 240.72 1209.43 240.3 1211.27 240.3H1212.51V241.34C1212.51 242.68 1211.41 243.46 1209.93 243.46ZM1217.76 245H1220.18V229.7H1217.76V245ZM1227.9 245H1230.32V239.56C1230.32 237.34 1231.6 236.66 1233.72 236.64V234.38C1231.96 234.4 1230.98 235.18 1230.32 236.5V234.54H1227.9V245ZM1240.25 245.2C1242.93 245.2 1244.71 244 1245.05 241.8H1242.71C1242.53 242.82 1241.77 243.4 1240.31 243.4C1238.51 243.4 1237.51 242.28 1237.43 240.3H1245.09V239.6C1245.09 235.86 1242.75 234.32 1240.15 234.32C1237.17 234.32 1234.95 236.48 1234.95 239.72V239.88C1234.95 243.18 1237.17 245.2 1240.25 245.2ZM1237.47 238.68C1237.71 237.06 1238.69 236.08 1240.15 236.08C1241.65 236.08 1242.57 236.88 1242.69 238.68H1237.47ZM1250.93 245.2C1253.61 245.2 1255.11 243.98 1255.11 241.86C1255.11 239.64 1253.65 239.04 1251.19 238.66C1249.53 238.38 1249.03 238.08 1249.03 237.32C1249.03 236.58 1249.65 236.08 1250.69 236.08C1251.81 236.08 1252.35 236.52 1252.55 237.48H1254.79C1254.53 235.12 1252.83 234.32 1250.69 234.32C1248.73 234.32 1246.77 235.36 1246.77 237.46C1246.77 239.42 1247.79 240.2 1250.55 240.64C1252.09 240.9 1252.79 241.22 1252.79 242.08C1252.79 242.96 1252.21 243.42 1250.91 243.42C1249.49 243.42 1248.95 242.8 1248.83 241.74H1246.55C1246.65 243.96 1248.23 245.2 1250.93 245.2ZM1261.91 243.32C1260.07 243.32 1259.01 241.98 1259.01 239.84V239.68C1259.01 237.52 1260.11 236.22 1261.91 236.22C1263.71 236.22 1264.79 237.54 1264.79 239.7V239.84C1264.79 241.98 1263.71 243.32 1261.91 243.32ZM1261.89 245.2C1264.97 245.2 1267.27 243.08 1267.27 239.82V239.66C1267.27 236.46 1264.97 234.32 1261.91 234.32C1258.83 234.32 1256.53 236.48 1256.53 239.72V239.88C1256.53 243.06 1258.81 245.2 1261.89 245.2ZM1272.96 245.2C1274.66 245.2 1275.76 244.38 1276.28 243.36V245H1278.7V234.54H1276.28V240.76C1276.28 242.42 1275.14 243.26 1273.84 243.26C1272.44 243.26 1271.78 242.54 1271.78 240.96V234.54H1269.36V241.24C1269.36 244.02 1270.9 245.2 1272.96 245.2ZM1281.57 245H1283.99V239.56C1283.99 237.34 1285.27 236.66 1287.39 236.64V234.38C1285.63 234.4 1284.65 235.18 1283.99 236.5V234.54H1281.57V245ZM1293.9 245.2C1296.74 245.2 1298.56 243.5 1298.74 241.1H1296.52C1296.38 242.58 1295.28 243.34 1294 243.34C1292.22 243.34 1291.1 242.14 1291.1 239.86V239.7C1291.1 237.54 1292.28 236.26 1293.94 236.26C1295.22 236.26 1296.14 236.84 1296.34 238.24H1298.68C1298.4 235.36 1296.22 234.32 1293.9 234.32C1290.98 234.32 1288.62 236.42 1288.62 239.74V239.9C1288.62 243.24 1290.9 245.2 1293.9 245.2ZM1305.43 245.2C1308.11 245.2 1309.89 244 1310.23 241.8H1307.89C1307.71 242.82 1306.95 243.4 1305.49 243.4C1303.69 243.4 1302.69 242.28 1302.61 240.3H1310.27V239.6C1310.27 235.86 1307.93 234.32 1305.33 234.32C1302.35 234.32 1300.13 236.48 1300.13 239.72V239.88C1300.13 243.18 1302.35 245.2 1305.43 245.2ZM1302.65 238.68C1302.89 237.06 1303.87 236.08 1305.33 236.08C1306.83 236.08 1307.75 236.88 1307.87 238.68H1302.65ZM1316.11 245.2C1318.79 245.2 1320.29 243.98 1320.29 241.86C1320.29 239.64 1318.83 239.04 1316.37 238.66C1314.71 238.38 1314.21 238.08 1314.21 237.32C1314.21 236.58 1314.83 236.08 1315.87 236.08C1316.99 236.08 1317.53 236.52 1317.73 237.48H1319.97C1319.71 235.12 1318.01 234.32 1315.87 234.32C1313.91 234.32 1311.95 235.36 1311.95 237.46C1311.95 239.42 1312.97 240.2 1315.73 240.64C1317.27 240.9 1317.97 241.22 1317.97 242.08C1317.97 242.96 1317.39 243.42 1316.09 243.42C1314.67 243.42 1314.13 242.8 1314.01 241.74H1311.73C1311.83 243.96 1313.41 245.2 1316.11 245.2Z" fill="#333333"/>
<path d="M921 323C921 323.552 921.448 324 922 324C922.552 324 923 323.552 923 323L921 323ZM922.707 202.293C922.317 201.902 921.683 201.902 921.293 202.293L914.929 208.657C914.538 209.047 914.538 209.681 914.929 210.071C915.319 210.462 915.953 210.462 916.343 210.071L922 204.414L927.657 210.071C928.047 210.462 928.681 210.462 929.071 210.071C929.462 209.681 929.462 209.047 929.071 208.657L922.707 202.293ZM923 323L923 203L921 203L921 323L923 323Z" fill="black"/>
<path d="M923 428C923 427.448 922.552 427 922 427C921.448 427 921 427.448 921 428H923ZM921.293 548.707C921.683 549.098 922.317 549.098 922.707 548.707L929.071 542.343C929.462 541.953 929.462 541.319 929.071 540.929C928.681 540.538 928.047 540.538 927.657 540.929L922 546.586L916.343 540.929C915.953 540.538 915.319 540.538 914.929 540.929C914.538 541.319 914.538 541.953 914.929 542.343L921.293 548.707ZM921 428V548H923V428H921Z" fill="black"/>
<rect x="858" y="564" width="129" height="72" rx="4" fill="#F2994A"/>
<path d="M882.54 606H885.04L886.16 602.46H891.62L892.76 606H895.52L890.8 591.7H887.32L882.54 606ZM888.9 593.88L891 600.52H886.78L888.9 593.88ZM901.79 606.2C904.63 606.2 906.45 604.5 906.63 602.1H904.41C904.27 603.58 903.17 604.34 901.89 604.34C900.11 604.34 898.99 603.14 898.99 600.86V600.7C898.99 598.54 900.17 597.26 901.83 597.26C903.11 597.26 904.03 597.84 904.23 599.24H906.57C906.29 596.36 904.11 595.32 901.79 595.32C898.87 595.32 896.51 597.42 896.51 600.74V600.9C896.51 604.24 898.79 606.2 901.79 606.2ZM913.293 606.2C916.133 606.2 917.953 604.5 918.133 602.1H915.913C915.773 603.58 914.673 604.34 913.393 604.34C911.613 604.34 910.493 603.14 910.493 600.86V600.7C910.493 598.54 911.673 597.26 913.333 597.26C914.613 597.26 915.533 597.84 915.733 599.24H918.073C917.793 596.36 915.613 595.32 913.293 595.32C910.373 595.32 908.013 597.42 908.013 600.74V600.9C908.013 604.24 910.293 606.2 913.293 606.2ZM924.897 604.32C923.057 604.32 921.997 602.98 921.997 600.84V600.68C921.997 598.52 923.097 597.22 924.897 597.22C926.697 597.22 927.777 598.54 927.777 600.7V600.84C927.777 602.98 926.697 604.32 924.897 604.32ZM924.877 606.2C927.957 606.2 930.257 604.08 930.257 600.82V600.66C930.257 597.46 927.957 595.32 924.897 595.32C921.817 595.32 919.517 597.48 919.517 600.72V600.88C919.517 604.06 921.797 606.2 924.877 606.2ZM935.944 606.2C937.644 606.2 938.744 605.38 939.264 604.36V606H941.684V595.54H939.264V601.76C939.264 603.42 938.124 604.26 936.824 604.26C935.424 604.26 934.764 603.54 934.764 601.96V595.54H932.344V602.24C932.344 605.02 933.884 606.2 935.944 606.2ZM944.553 606H946.973V599.84C946.973 598.18 948.073 597.34 949.433 597.34C950.873 597.34 951.513 598.06 951.513 599.64V606H953.933V599.42C953.933 596.54 952.453 595.32 950.353 595.32C948.633 595.32 947.473 596.18 946.973 597.2V595.54H944.553V606ZM960.281 606.18C961.021 606.18 961.541 606.06 961.921 605.92V604C961.581 604.14 961.221 604.2 960.741 604.2C959.981 604.2 959.541 603.78 959.541 602.86V597.36H961.841V595.54H959.541V593.24H957.121V595.54H955.721V597.36H957.121V603.08C957.121 605.06 958.201 606.18 960.281 606.18Z" fill="#333333"/>
<rect x="842" y="108" width="160" height="72" rx="4" fill="#F2994A"/>
<path d="M873.9 150.2C877.3 150.2 879.74 148.46 880.16 145.02H877.56C877.28 147.04 875.88 148.04 873.9 148.04C871.26 148.04 869.72 146.14 869.72 142.92V142.76C869.72 139.56 871.36 137.6 873.88 137.6C875.94 137.6 877 138.58 877.3 140.48H880C879.68 137.12 877.14 135.48 873.86 135.48C869.88 135.48 866.92 138.48 866.92 142.78V142.94C866.92 147.34 869.42 150.2 873.9 150.2ZM886.944 148.32C885.104 148.32 884.044 146.98 884.044 144.84V144.68C884.044 142.52 885.144 141.22 886.944 141.22C888.744 141.22 889.824 142.54 889.824 144.7V144.84C889.824 146.98 888.744 148.32 886.944 148.32ZM886.924 150.2C890.004 150.2 892.304 148.08 892.304 144.82V144.66C892.304 141.46 890.004 139.32 886.944 139.32C883.864 139.32 881.564 141.48 881.564 144.72V144.88C881.564 148.06 883.844 150.2 886.924 150.2ZM894.491 150H896.911V143.74C896.911 142.14 898.011 141.34 899.211 141.34C900.391 141.34 901.071 142 901.071 143.54V150H903.491V143.74C903.491 142.14 904.591 141.34 905.791 141.34C906.991 141.34 907.651 142 907.651 143.54V150H910.071V143.38C910.071 140.5 908.511 139.32 906.591 139.32C905.291 139.32 903.851 139.9 903.051 141.2C902.531 139.9 901.451 139.32 900.091 139.32C898.551 139.32 897.411 140.16 896.911 141.14V139.54H894.491V150ZM912.85 150H915.27V143.74C915.27 142.14 916.37 141.34 917.57 141.34C918.75 141.34 919.43 142 919.43 143.54V150H921.85V143.74C921.85 142.14 922.95 141.34 924.15 141.34C925.35 141.34 926.01 142 926.01 143.54V150H928.43V143.38C928.43 140.5 926.87 139.32 924.95 139.32C923.65 139.32 922.21 139.9 921.41 141.2C920.89 139.9 919.81 139.32 918.45 139.32C916.91 139.32 915.77 140.16 915.27 141.14V139.54H912.85V150ZM934.71 150.2C936.41 150.2 937.51 149.38 938.03 148.36V150H940.45V139.54H938.03V145.76C938.03 147.42 936.89 148.26 935.59 148.26C934.19 148.26 933.53 147.54 933.53 145.96V139.54H931.11V146.24C931.11 149.02 932.65 150.2 934.71 150.2ZM943.319 150H945.739V143.84C945.739 142.18 946.839 141.34 948.199 141.34C949.639 141.34 950.279 142.06 950.279 143.64V150H952.699V143.42C952.699 140.54 951.219 139.32 949.119 139.32C947.399 139.32 946.239 140.18 945.739 141.2V139.54H943.319V150ZM955.547 150H957.967V139.54H955.547V150ZM956.727 137.82C957.527 137.82 958.167 137.22 958.167 136.44C958.167 135.64 957.527 135.04 956.727 135.04C955.927 135.04 955.287 135.64 955.287 136.44C955.287 137.22 955.927 137.82 956.727 137.82ZM964.477 150.18C965.217 150.18 965.737 150.06 966.117 149.92V148C965.777 148.14 965.417 148.2 964.937 148.2C964.177 148.2 963.737 147.78 963.737 146.86V141.36H966.037V139.54H963.737V137.24H961.317V139.54H959.917V141.36H961.317V147.08C961.317 149.06 962.397 150.18 964.477 150.18ZM969.459 153.58H971.839L977.539 139.54H975.179L972.619 146.28L969.839 139.54H967.219L971.359 148.94L969.459 153.58Z" fill="#333333"/>
<path d="M1038.5 408.5C1038.5 407.948 1038.05 407.5 1037.5 407.5C1036.95 407.5 1036.5 407.948 1036.5 408.5H1038.5ZM1037.5 478.5H1036.5V479.5H1037.5V478.5ZM1069.71 479.207C1070.1 478.817 1070.1 478.183 1069.71 477.793L1063.34 471.429C1062.95 471.038 1062.32 471.038 1061.93 471.429C1061.54 471.819 1061.54 472.453 1061.93 472.843L1067.59 478.5L1061.93 484.157C1061.54 484.547 1061.54 485.181 1061.93 485.571C1062.32 485.962 1062.95 485.962 1063.34 485.571L1069.71 479.207ZM1036.5 408.5V478.5H1038.5V408.5H1036.5ZM1037.5 479.5H1069V477.5H1037.5V479.5Z" fill="black"/>
<path d="M1038.5 175C1038.5 174.448 1038.05 174 1037.5 174C1036.95 174 1036.5 174.448 1036.5 175H1038.5ZM1037.5 255.5H1036.5V256.5H1037.5V255.5ZM1069.71 256.207C1070.1 255.817 1070.1 255.183 1069.71 254.793L1063.34 248.429C1062.95 248.038 1062.32 248.038 1061.93 248.429C1061.54 248.819 1061.54 249.453 1061.93 249.843L1067.59 255.5L1061.93 261.157C1061.54 261.547 1061.54 262.181 1061.93 262.571C1062.32 262.962 1062.95 262.962 1063.34 262.571L1069.71 256.207ZM1036.5 175V255.5H1038.5V175H1036.5ZM1037.5 256.5H1069V254.5H1037.5V256.5Z" fill="black"/>
<path d="M1039 127.5C1039 128.052 1038.55 128.5 1038 128.5C1037.45 128.5 1037 128.052 1037 127.5H1039ZM1038 47H1037V46H1038V47ZM1069.71 46.2929C1070.1 46.6834 1070.1 47.3166 1069.71 47.7071L1063.34 54.0711C1062.95 54.4616 1062.32 54.4616 1061.93 54.0711C1061.54 53.6805 1061.54 53.0474 1061.93 52.6569L1067.59 47L1061.93 41.3431C1061.54 40.9526 1061.54 40.3195 1061.93 39.9289C1062.32 39.5384 1062.95 39.5384 1063.34 39.9289L1069.71 46.2929ZM1037 127.5V47H1039V127.5H1037ZM1038 46H1069V48H1038V46Z" fill="black"/>
</svg>
