<svg id="Layer_1" data-name="Layer 1" xmlns="http://www.w3.org/2000/svg" viewBox="0 0 455.57 151.15"><defs><style>.cls-1{fill:#fefefe;}.cls-2{fill:#fff;}</style></defs><title>footer2</title><path class="cls-1" d="M124.74,100.28c.34-.6.68-1.19,1-1.8,1.62-3,3.13-6,4.92-8.87,1-1.51,1.76-3.1,2.64-4.66l.06-.12c.2-.29.36-.65.8-.51s.45.52.4.9a23.5,23.5,0,0,1-.49,2.61c-.7,2.58-1.43,5.15-2.09,7.74-.33,1.3-.52,2.63-.89,3.93a9.38,9.38,0,0,0-.53,1.87c.25,0,.34-.16.45-.28,1.54-1.7,3.06-3.41,4.6-5.11,1.09-1.2,2.21-2.39,3.37-3.53.77-.75,1.48-1.56,2.21-2.34.08-.08.15-.16.24-.24.26-.23.55-.5.92-.26s.32.61.22,1a24.47,24.47,0,0,1-1.84,4c-1.23,2.52-2.69,4.9-4.1,7.32-.56,1-1.1,1.92-1.64,2.88-.05.1-.09.2-.16.38a10.14,10.14,0,0,0,2.22-.86c2.23-1.15,4.22-2.68,6.41-3.87,1.42-.77,2.77-1.66,4.15-2.5l.16-.09c.34-.17.71-.31,1,0s0,.68-.19,1c-1.4,1.82-3,3.43-4.58,5.12s-3.08,3-4.67,4.37c-.28.25-.53.54-.79.82s-.19.38.18.42a36.76,36.76,0,0,0,4.69.25c1.91,0,3.83,0,5.74.08,1,0,2-.12,3,0h.23c.33,0,.61.15.63.52s-.24.52-.53.58a19.36,19.36,0,0,0-2.13.64c-2.77.93-5.53,1.89-8.3,2.83l-2.1.75a2.64,2.64,0,0,1-.84.09c-3.66-.07-7.32-.14-11-.19-2.68,0-5.35.06-8,.15-3.22.11-6.43,0-9.64-.1A45.81,45.81,0,0,1,105,115a21.48,21.48,0,0,1-3.57-.43c-2.95-.91-5.91-1.78-8.82-2.81-1.72-.61-3.46-1.2-5.15-1.91l-.85-.41c-.26-.13-.45-.31-.38-.63s.34-.41.61-.42a14.59,14.59,0,0,1,1.62,0c1.54.1,3.09.09,4.64.14a82.52,82.52,0,0,1,8.75.69l1,.12c0-.15-.07-.19-.15-.23a82.87,82.87,0,0,1-6.9-4.84c-1.45-1.08-2.79-2.28-4.15-3.46l-.17-.16c-.2-.2-.37-.43-.18-.71a.54.54,0,0,1,.76-.17A41.62,41.62,0,0,0,96,101.32c1.68.66,3.35,1.34,5,2.1,1.18.55,2.28,1.23,3.41,1.87a11.5,11.5,0,0,0,2.19.92c-.51-.76-1-1.54-1.54-2.3a78.49,78.49,0,0,1-5.1-8.32c-.48-.94-1-1.88-1.46-2.82a1.6,1.6,0,0,1-.13-.3c-.08-.28-.09-.54.18-.72a.55.55,0,0,1,.74.08c.57.53,1.13,1.06,1.67,1.61,1.28,1.32,2.4,2.79,3.76,4,1.78,1.61,3.47,3.32,5.38,4.77l.27.19c-.09-.65-.19-1.22-.24-1.79-.14-1.54-.22-3.08-.43-4.62-.24-1.71-.66-3.38-1-5.07-.3-1.42-.53-2.86-.74-4.29V86.6c0-.6.12-1,.46-1.09s.65.13.92.72c.91,2,2.07,3.87,3,5.85,1.2,2.44,2.62,4.76,3.88,7.17a1.13,1.13,0,0,0,.38.51c.14-.11.12-.25.14-.37a48.83,48.83,0,0,1,1.54-7c.48-1.82.87-3.66,1.2-5.52.2-1.11.48-2.22.73-3.33.06-.27.2-.51.53-.52a.57.57,0,0,1,.6.51c.29,1.31.68,2.59,1,3.9,1,3.88,1.38,7.87,2.16,11.78.07.34.1.68.14,1Z" transform="translate(-66.93 -3.24)"/><path class="cls-1" d="M182,111.76c-.43.72-.43.69.4.86a16,16,0,0,0,3.46,0,4.29,4.29,0,0,1,1.66.27,1,1,0,0,1,.74.95c0,.44-.33.63-.69.76a7.91,7.91,0,0,1-1.73.34,32.08,32.08,0,0,0-5.41,1,10.43,10.43,0,0,1-1.57.23c-1.22.17-2.42.47-3.64.68s-2.65.14-4,.29c-.84.09-1.68.1-2.51.17-1,.07-2,.1-3,.1-1.35,0-2.69.15-4,.14a7.23,7.23,0,0,1-.93,0c-1.52-.15-3,0-4.56-.19a6.45,6.45,0,0,1-1-.21.65.65,0,0,1-.49-.54.57.57,0,0,1,.35-.62,10.69,10.69,0,0,1,3.79-1.35,4.12,4.12,0,0,0,1.09-.21c1.23-.45,2.53-.66,3.77-1.08.2-.07.5-.06.54-.29s-.26-.31-.42-.43c-.71-.49-1.51-.83-2.26-1.25a21.57,21.57,0,0,1-3.4-2.7c-.34-.36-.62-.74-.33-1.25s.8-.45,1.26-.32c1.43.4,2.81,1,4.27,1.31a13.36,13.36,0,0,1,3.3.87,24.33,24.33,0,0,1-.73-2.41c-.36-1.87-.74-3.73-1.11-5.6a2.71,2.71,0,0,1,0-.4.75.75,0,0,1,.5-.79.66.66,0,0,1,.85.35c.86,1.81,2.39,3.16,3.34,4.9.24.44.56.85.91,1.38.24-.61.44-1.12.63-1.64.7-1.87,1.26-3.79,1.87-5.69a1.94,1.94,0,0,1,.37-.73c.81-.3,1.26,0,1.29.8.07,1.56,0,3.13.2,4.68.09,1,.18,1.91.29,2.86,0,.11,0,.25.13.3s.24-.1.3-.2c.76-1.24,1.63-2.4,2.29-3.69a8,8,0,0,1,1.12-1.71.9.9,0,0,1,1.64.38,2.91,2.91,0,0,1,0,1.28c-.39,2-.79,3.94-1.18,5.92,0,.14-.13.33,0,.43s.31-.06.44-.17c.61-.52,1-1.21,1.7-1.68s1.08-.91,1.63-1.35,1.21-.66,1.57-.32.33.88-.1,1.61a21.53,21.53,0,0,1-2.26,3.34A2.05,2.05,0,0,0,182,111.76Z" transform="translate(-66.93 -3.24)"/><path class="cls-2" d="M486.13,114.56a39.63,39.63,0,0,1-6.19,3.42c-.55.26-1.13.45-1.69.67a4.42,4.42,0,0,1-4.28-.74,6.89,6.89,0,0,1-2.82-4.22c-.42-1.7-.72-3.43-1.07-5.12l-.23-1.07c-2.09-.39-4.17,0-6.13-.76.06-.67.42-.72.87-.69l4.12.24,1,.09-.43-1.95-2.92-.13a16,16,0,0,1-1.82-.17c-.36,0-.87-.08-.83-.58s.56-.4.91-.38c1.19,0,2.36.12,3.53.18l.71,0-.71-2.16c-1.67-.56-3.55,0-5.19-.93.66-.85,1.47-.54,2.18-.52s1.52.14,2.45.23c-.21-.58-.36-1-.52-1.44s-.39-.88-.59-1.32a13,13,0,0,0-6.17-6.54c-1.19-.66-2.41-1.27-3.63-1.89a6.9,6.9,0,0,1-4-7,17.88,17.88,0,0,1,1.3-6.45c.3-.7.43-1.46.67-2.18a6.67,6.67,0,0,1,.49-1.21,2.39,2.39,0,0,1,2.73-1.47c.79.14,1.59.23,2.36.41,1.78.41,3.54,1,5.35,1.24a5.38,5.38,0,0,0,5.15-1.54,13.17,13.17,0,0,0,2.5-3.94,34.13,34.13,0,0,0,1.87-7.56c.38-2.46.91-4.89,1.4-7.43,1.37,0,2.68,1.18,4.15.38.11-.56-.33-.79-.69-1-.72-.43-1.46-.81-2.18-1.23-.45-.25-.89-.53-1.58-.94a29.43,29.43,0,0,0,3-1.07,14.44,14.44,0,0,0,2.39-1.52c.3-.23.15-.59-.18-.69a4.19,4.19,0,0,0-1.44-.28c-1.17.06-2.35.22-3.52.35-.32,0-.64,0-1.14,0,.51-1.23.92-2.3,1.39-3.37.28-.64.57-1.34.82-2s0-1-.71-1.13a2,2,0,0,0-2.24,1.22c-.46.79-.86,1.62-1.25,2.43-.11.22-.26.42-.39.63-.56-.05-.58-.5-.7-.81-.44-1.12-.82-2.26-1.24-3.39s-.61-1.16-1.66-1.14c-.71,0-.85.22-.75.88.19,1.18.4,2.36.56,3.54a12.69,12.69,0,0,1,0,1.51c-.47-.26-.78-.43-1.07-.61-.68-.41-1.35-.86-2-1.24a1.88,1.88,0,0,0-2,0,5.64,5.64,0,0,0,.44.71c.81.93,1.63,1.84,2.45,2.76a2.09,2.09,0,0,1,.19.4c-.34.09-.64.19-.95.26l-2.45.52a.93.93,0,0,0-.83.86c0,.13.28.33.47.39a5,5,0,0,0,1,.2c.6.1,1.2.18,1.87.27a4.26,4.26,0,0,1-.08.8c-.62,2.16-1.23,4.32-1.92,6.46a10.89,10.89,0,0,1-1,2.15,2.89,2.89,0,0,1-.95.89,1.29,1.29,0,0,1-1.85-.17,3.11,3.11,0,0,1-.33-.29,7.12,7.12,0,0,0-7.23-2.53h-.42c-1.53-2.24-1.41-4.83-1.53-7.44l-1.62.05-1.72,0a1,1,0,0,1-1-.73c1.42-.61,2.94-.23,4.47-.44V45.35c-1.49-.51-3.24.19-4.59-1.09a2.88,2.88,0,0,1,2.28-.33c.73,0,1.41.13,2.3.21l0-2.18-2.66-.25a5.91,5.91,0,0,1-1.45-.28c-.22-.07-.34-.4-.51-.62.22-.11.44-.32.66-.31.87,0,1.75.12,2.62.19l1.41.13.18-2c-1.56-.24-3.08-.46-4.61-.71-.12,0-.21-.26-.43-.57a5.4,5.4,0,0,1,1.26-.24c.88,0,1.75.16,2.63.19.45,0,.9,0,1.42,0l.15-1.68c-1.94-.44-3.87-.86-5.78-1.3-.1,0-.15-.23-.22-.35a1.21,1.21,0,0,1,1.35-.42c1.36.2,2.7.46,4.06.69l.64.1.19-2c-.71,0-1.37,0-2-.08s-1.43.09-1.87-.64c.52-.76,1.31-.41,2-.45s1.36,0,2.16.05l0-1.61c-1.35-.7-3,.16-4.33-1.11,1.43-.82,2.87-.33,4.15-.36l.2-11.29c1.66-.21,3.27.36,4.86-.11,0-.82-.65-1-1.19-1.26-1.09-.44-2.2-.87-3.31-1.25-.36-.13-.76-.2-.69-.85a35.82,35.82,0,0,0,6.22-1.82,1.19,1.19,0,0,0-1.24-1c-1.41-.07-2.9-.1-4.34-.14-.56,0-1.14,0-1.92,0,.4-.95.73-1.77,1.09-2.59s.71-1.59,1-2.4c.23-.56.08-.79-.53-1a1.87,1.87,0,0,0-2,.63c-.71.81-1.39,1.63-2.09,2.44-.21.24-.44.47-.79.8L446,5c-.11-.27-.2-.55-.33-.81a1.56,1.56,0,0,0-1.89-.85c-.46.12-.5.49-.49.87,0,1,0,2,0,2.93,0,.57,0,1.14-.06,1.86a8.83,8.83,0,0,1-3-1.21,3.33,3.33,0,0,0-2.09-.43,2.76,2.76,0,0,0-.68.3,28.42,28.42,0,0,0,3.87,4.12l-.11.2c-1.13,0-2.25-.08-3.39-.09a6.25,6.25,0,0,0-1.43.14c-.41.11-.47.47-.14.74a3.44,3.44,0,0,0,.68.37c1.1.51,2.19,1,3.31,1.52a1,1,0,0,1,.68,1.11c-.16,1.14-.32,2.28-.47,3.43v.1c-.3,2.66-.75,5.39-.85,8.09-.07,2.14-.24,4.26-.5,6.38a17,17,0,0,1-.4,2.13A2,2,0,0,1,435.62,37a6.43,6.43,0,0,1-2.86-3.71c-.56-1.66-.89-3.37-1.35-5.05-.33-1.19-.7-2.38-1.06-3.56-.09-.31-.22-.62-.36-1l1.87-.5a12.7,12.7,0,0,0,1.71-.57c.21-.08.47-.39.44-.54a.93.93,0,0,0-.55-.58,9.75,9.75,0,0,0-1.7-.21c-.75-.07-1.51-.05-2.51-.07L431,18.89c.3-.38.62-.73.88-1.13s.22-.72-.33-.91a2.12,2.12,0,0,0-1.76,0c-1,.53-2.09,1-3.23,1.58-.39-1.38-.76-2.67-1.11-4-.21-.78-.32-.9-1.11-1s-1.27.13-1.4,1-.22,1.73-.34,2.59a7.91,7.91,0,0,1-.21.86c-.71-.52-1.33-.95-1.9-1.4a2.6,2.6,0,0,0-2.46-.45c.36,1.58,1.55,2.76,2.14,4.35-.84,0-1.62,0-2.38.12a3.89,3.89,0,0,0-2.29.54c.13.57.59.64,1,.76l3.78,1.29L420,26.78a30,30,0,0,0,1.7,12.64,13,13,0,0,0,8.07,8,25.17,25.17,0,0,0,2.85.83,4.75,4.75,0,0,1,3.3,2.66c1,2.11,1.9,4.21,2.82,6.31a19,19,0,0,1,1.18,3.06c.62,2.75,1.21,5.54,1.63,8.33a7.09,7.09,0,0,1-1,4.71,3.81,3.81,0,0,1-3.45,1.77,6.75,6.75,0,0,1-5.44-2.59c-.92-1.07-1.88-2.11-2.87-3.12a1.69,1.69,0,0,0-1-.41,6.26,6.26,0,0,0-1.37,0,7,7,0,0,1-3.23-.3c-.09-.53.28-.59.62-.61.91-.05,1.83-.08,2.74-.11l.83,0c-.31-.49-.54-.89-.8-1.27a1.08,1.08,0,0,0-1.09-.42c-1.79.12-3.57.19-5.37.24a6,6,0,0,1-1.26-.11,2.36,2.36,0,0,1-.67-.42,1.12,1.12,0,0,1,1.06-.45l4.35,0,1.7,0a5.14,5.14,0,0,0-1.65-2c-.14-.13-.5-.08-.76-.07-1,0-2,0-3,0a2.53,2.53,0,0,1-1.83-.63c.28-.19.48-.44.71-.46a8.87,8.87,0,0,1,1.71-.05l2,.18c-.64-1.45-1.16-1.79-2.59-1.78-1,0-2.06.07-3.1.05-.45-.05-1.16,0-1.16-.6s.75-.48,1.17-.53c.95-.09,1.9-.08,3-.12a30.14,30.14,0,0,0-8.14-6.32,8.29,8.29,0,0,1,.53-.91,13.87,13.87,0,0,1,1.35-1.61,1.74,1.74,0,0,0,.63-1.52,2.45,2.45,0,0,0-2.89,0c-.91.65-1.85,1.26-2.79,1.86a6.71,6.71,0,0,1-1,.4c0-.63-.05-1.12-.1-1.61-.1-1.12-.16-2.24-.35-3.34a1.42,1.42,0,0,0-1.59-1.16,1.27,1.27,0,0,0-.28.06,1,1,0,0,0-.55.48,9.47,9.47,0,0,0-.53,1.43c-.29,1-.54,2-.86,3.19l-1.51-1.66c-.46-.49-1-1-1.38-1.47a2.39,2.39,0,0,0-2.56-.79c0,1,.67,1.81,1,2.7S399.56,51,400,52c-1.89,0-3.64-1-5.48-.5-.15.6.23.81.57,1,.92.64,1.87,1.28,2.8,1.91l.77.55c-.49.19-.86.32-1.22.49-1.1.5-2.22,1-3.26,1.54a5,5,0,0,0-.86.8,7,7,0,0,0,1.33.4c1.11.1,2.22.1,3.32.16l1.17.11c-.37,1.88-.72,3.64-1.08,5.54a9.32,9.32,0,0,0,1.19.26.81.81,0,0,0,.95-.58,16.43,16.43,0,0,1,2.19-3.08c.24.85.43,1.47.61,2.07.12.43.22.85.36,1.27a1.59,1.59,0,0,0,1.85,1.18l.27-.07a1,1,0,0,0,.55-.62,8.09,8.09,0,0,0,.22-1.29c0-.38.14-.76.22-1.25a5.64,5.64,0,0,1,.81.31q2.3,1.34,4.46,2.89a8.7,8.7,0,0,1,3.39,6.35c.07.9,0,1.81,0,2.69a4.86,4.86,0,0,1-1,3.17,6.58,6.58,0,0,1-5.06,2.73,7.9,7.9,0,0,1-4.66-1.28c-.35-.23-.71-.43-1.1-.67-.05-1.56,1.06-2.92,1-4.48-1.31-.71-1.78-.59-2.43.5-.52.87-1.11,1.7-1.76,2.69L398.76,74a7.44,7.44,0,0,0-.52-1,1.81,1.81,0,0,0-1.82-.6c-.42.17-.49.48-.45.9.09,1,.14,2,.18,3a7.14,7.14,0,0,1-.08.92c-.93-.59-1.76-1.09-2.57-1.63a3.27,3.27,0,0,0-2.31-.77c-.21,0-.54.11-.58.23a.87.87,0,0,0,.13.68c.77,1,1.58,2,2.37,3.09a2.43,2.43,0,0,1,.22.46l-3.2.5c-.6.1-1.21.19-1.79.34-.35.09-.85.19-.77.64a1.16,1.16,0,0,0,.65.67c.9.39,1.83.72,2.73,1.08.38.15.75.33,1.27.56a20,20,0,0,0-4.67,3.47,1.25,1.25,0,0,0,1.29.7c1.33-.07,2.67-.11,4-.16.38,0,.75,0,1.27,0,0,1,.05,2,.11,2.93a3.85,3.85,0,0,0,.23,1.26c.24.57.59.65,1.26.56a4.27,4.27,0,0,1,1,.09c1.22-.7,1.45-2.16,2.25-3.28.92.49,1.77,1,2.64,1.38a23.44,23.44,0,0,0,2.28,1,18.92,18.92,0,0,0,7.9,1,6,6,0,0,0,3.58-2c1.56-1.52,3.17-3,4.76-4.51A7.62,7.62,0,0,1,425,83.83a4,4,0,0,1,3.89,2.22,11.52,11.52,0,0,0,1.57,2.12,5.39,5.39,0,0,0,3.9,1.62,4.19,4.19,0,0,0,2.84-.94c.89-.73,1.8-1.43,2.7-2.14,1.1-.87,1.72-.94,2.85-.15a22.13,22.13,0,0,1,5.75,5.28c1.79,2.46,3.33,5,4.93,7.61a26.23,26.23,0,0,1,4.24,12.6c.29,3.82.25,7.66.58,11.47a45.4,45.4,0,0,0,2,10.92,29.72,29.72,0,0,0,2.87,6.51,15.71,15.71,0,0,0,5.82,5.17,51.14,51.14,0,0,0,8.91,3.41,16.92,16.92,0,0,0,4.87,1.12Z" transform="translate(-66.93 -3.24)"/><path class="cls-2" d="M522.44,154.12V114.5H421.09a12.69,12.69,0,0,1-2.31-.15c-2.41-.48-4.88-.32-7.31-.72a41.61,41.61,0,0,0-6.13-.15c-2.9,0-5.71-.44-8.59-.38a64.07,64.07,0,0,1-8.2-.58c-1.55-.18-3.12-.12-4.63-.33a69,69,0,0,0-12-.66c-5.57.19-11.12.89-16.71.72a57.52,57.52,0,0,0-6.16-.16,39,39,0,0,1-8.57-.43,84.42,84.42,0,0,0-11.78-.65c-3.73,0-7.46.41-11.2.08-3.09-.28-6.19-.58-9.3-.64-1.74,0-3.47-.49-5.25-.54a104,104,0,0,1-11.15-.87,86.11,86.11,0,0,0-10.26-.91,125.36,125.36,0,0,0-18.07.88c-5.53.74-11.15.08-16.74.21a46.66,46.66,0,0,0-8.53.64,13.75,13.75,0,0,1-4.52.3,24.71,24.71,0,0,0-9.26.58,84.14,84.14,0,0,1-10.94,1.51,74,74,0,0,1-11.44.07c-4.22-.2-8.44-.52-12.62-1.07a15.79,15.79,0,0,0-5.61.13,27,27,0,0,1-5,.63c-3.92.14-7.82-.07-11.74.62a121.42,121.42,0,0,1-20.58,1.85q-38.84.06-77.68,0c-.53,0-1.07,0-1.6,0a.89.89,0,0,0-.14.69H67q0,19,0,38c0,.93.22,1.16,1.16,1.16q226.64,0,453.26,0h1C522.67,154.39,522.39,154.19,522.44,154.12Z" transform="translate(-66.93 -3.24)"/></svg>