<svg width="910" height="628" viewBox="0 0 910 628" fill="none" xmlns="http://www.w3.org/2000/svg">
<g clip-path="url(#clip0_241_87846)">
<rect width="910" height="628" fill="#DEC0C0"/>
<g filter="url(#filter0_d_241_87846)">
<rect x="240" y="-332" width="438" height="892" rx="48" fill="#12100E"/>
</g>
<g clip-path="url(#clip1_241_87846)">
<rect x="264" y="-307" width="390" height="843" rx="32" fill="white"/>
<mask id="path-3-outside-1_241_87846" maskUnits="userSpaceOnUse" x="289" y="-119" width="2" height="324" fill="black">
<rect fill="white" x="289" y="-119" width="2" height="324"/>
<path fill-rule="evenodd" clip-rule="evenodd" d="M290 -117.169V203.537Z"/>
</mask>
<path d="M291 -117.169V-118.169H289V-117.169H291ZM289 203.537V204.537H291V203.537H289ZM289 -117.169V203.537H291V-117.169H289Z" fill="#EDF2F6" mask="url(#path-3-outside-1_241_87846)"/>
<path fill-rule="evenodd" clip-rule="evenodd" d="M290 49C293.314 49 296 46.3137 296 43C296 39.6863 293.314 37 290 37C286.686 37 284 39.6863 284 43C284 46.3137 286.686 49 290 49Z" fill="#0B2127"/>
<path fill-rule="evenodd" clip-rule="evenodd" d="M290 216C293.314 216 296 213.314 296 210C296 206.686 293.314 204 290 204C286.686 204 284 206.686 284 210C284 213.314 286.686 216 290 216Z" stroke="black" stroke-width="2"/>
<path d="M313.376 15V12.888H314.744V12.048H313.376V6.66H312.212L308.564 12.156V12.888H312.356V15H313.376ZM309.62 12.048C309.836 11.82 309.932 11.652 310.184 11.268L311.744 8.928C312.104 8.376 312.224 8.16 312.368 7.776H312.38C312.356 8.388 312.356 8.604 312.356 8.988V12.048H309.62ZM321.057 15V12.888H322.425V12.048H321.057V6.66H319.893L316.245 12.156V12.888H320.037V15H321.057ZM317.301 12.048C317.517 11.82 317.613 11.652 317.865 11.268L319.425 8.928C319.785 8.376 319.905 8.16 320.049 7.776H320.061C320.037 8.388 320.037 8.604 320.037 8.988V12.048H317.301ZM336.024 9.624C336.144 9.12 336.336 8.028 336.408 7.428H336.48C336.468 7.968 336.456 8.988 336.456 9.708V15H337.512V6.48H335.892L334.932 10.932C334.884 11.196 334.824 11.52 334.8 11.688H334.728C334.704 11.52 334.644 11.196 334.596 10.932L333.636 6.48H332.016V15H333.072V9.708C333.072 8.988 333.06 7.968 333.048 7.428H333.12C333.192 8.028 333.384 9.12 333.504 9.624L334.248 12.96H335.28L336.024 9.624ZM345.134 6.48H339.758V7.38H341.882V14.1H339.758V15H345.134V14.1H342.998V7.38H345.134V6.48Z" fill="#798F9A"/>
<path d="M309.332 50H317.558V47.534H312.374V37.22H309.332V50ZM321.867 50.216C323.271 50.216 324.423 49.586 324.873 48.578C324.891 49.082 324.927 49.568 325.017 50H327.825C327.663 49.442 327.573 48.56 327.573 47.498V44.51C327.573 41.918 326.277 40.784 323.379 40.784C320.823 40.784 319.203 41.972 319.059 43.97H321.921C321.975 43.106 322.479 42.638 323.361 42.638C324.261 42.638 324.693 43.088 324.693 44.114V44.42L322.515 44.726C321.147 44.906 320.283 45.194 319.689 45.608C319.077 46.04 318.771 46.706 318.771 47.552C318.771 49.154 320.013 50.216 321.867 50.216ZM322.947 48.38C322.191 48.38 321.687 47.966 321.687 47.336C321.687 46.67 322.173 46.292 323.235 46.094L324.783 45.842V46.562C324.783 47.642 324.045 48.38 322.947 48.38ZM336.037 50H339.259L335.893 44.582L339.169 41H335.821L332.905 44.528V36.95H330.007V50H332.905V47.426L333.895 46.364L336.037 50ZM348.483 45.284C348.483 42.422 346.899 40.784 344.073 40.784C341.265 40.784 339.501 42.638 339.501 45.59C339.501 48.506 341.301 50.216 344.271 50.216C346.143 50.216 347.673 49.334 348.393 47.858L346.269 46.886C345.855 47.714 345.189 48.146 344.307 48.146C343.101 48.146 342.255 47.372 342.237 46.148H348.483V45.284ZM345.693 44.528H342.237C342.273 43.25 342.903 42.494 344.019 42.494C345.099 42.494 345.693 43.178 345.693 44.456V44.528ZM351.595 50H354.403L355.717 44.906C355.771 44.654 355.879 44.15 355.897 43.934H355.933C355.951 44.15 356.059 44.654 356.113 44.906L357.427 50H360.235L362.629 41H359.875L358.759 46.508C358.705 46.76 358.669 47.066 358.633 47.372H358.597C358.561 47.066 358.507 46.76 358.453 46.508L357.139 41H354.691L353.377 46.508C353.305 46.76 353.269 47.066 353.233 47.372H353.197C353.161 47.066 353.107 46.76 353.071 46.508L351.937 41H349.183L351.595 50ZM367.933 50.216C370.597 50.216 372.613 48.578 372.613 45.482C372.613 42.386 370.597 40.784 367.933 40.784C365.287 40.784 363.271 42.386 363.271 45.482C363.271 48.578 365.287 50.216 367.933 50.216ZM367.933 48.218C366.817 48.218 366.151 47.318 366.151 45.482C366.151 43.628 366.817 42.782 367.933 42.782C369.067 42.782 369.733 43.628 369.733 45.482C369.733 47.318 369.067 48.218 367.933 48.218ZM378.517 50.216C381.181 50.216 383.197 48.578 383.197 45.482C383.197 42.386 381.181 40.784 378.517 40.784C375.871 40.784 373.855 42.386 373.855 45.482C373.855 48.578 375.871 50.216 378.517 50.216ZM378.517 48.218C377.401 48.218 376.735 47.318 376.735 45.482C376.735 43.628 377.401 42.782 378.517 42.782C379.651 42.782 380.317 43.628 380.317 45.482C380.317 47.318 379.651 48.218 378.517 48.218ZM388.093 50.216C389.407 50.216 390.487 49.532 390.937 48.452V50H393.673V36.95H390.793V42.206C390.343 41.27 389.443 40.784 388.255 40.784C386.005 40.784 384.493 42.674 384.493 45.536C384.493 48.344 385.933 50.216 388.093 50.216ZM389.227 48.218C388.129 48.218 387.463 47.174 387.463 45.482C387.463 43.754 388.093 42.782 389.191 42.782C390.217 42.782 390.829 43.628 390.829 45.158V45.932C390.829 47.336 390.217 48.218 389.227 48.218ZM397.061 52.79C398.753 52.268 399.401 51.332 399.401 49.838V47.048H396.341V50H397.763V50.036C397.763 50.846 397.529 51.26 396.467 51.602L397.061 52.79ZM408.665 50H412.049L413.813 41.324C413.867 41.036 413.903 40.73 413.921 40.388H413.993C414.011 40.73 414.029 41.036 414.083 41.324L415.847 50H419.249L422.291 37.22H419.231L417.593 45.518C417.521 45.914 417.503 46.238 417.485 46.58H417.431C417.413 46.238 417.377 45.914 417.287 45.518L415.469 37.22H412.427L410.627 45.518C410.537 45.914 410.501 46.238 410.483 46.58H410.429C410.411 46.238 410.375 45.914 410.303 45.518L408.683 37.22H405.623L408.665 50ZM431.602 50H434.662L430.018 37.22H426.544L421.9 50H424.942L425.914 47.012H430.63L431.602 50ZM426.616 44.87L427.786 41.306C427.966 40.748 428.146 40.154 428.254 39.506H428.29C428.416 40.154 428.578 40.748 428.758 41.306L429.928 44.87H426.616Z" fill="#0B2127"/>
<path d="M607 49L613 43L607 37" stroke="#0B2127" stroke-width="2"/>
<path d="M311.808 59.06C309.834 59.06 308.56 60.418 308.56 62.252C308.56 64.296 309.904 65.374 311.682 65.374C312.704 65.374 313.544 64.968 314.034 64.128C314.006 66.564 313.418 68.16 311.85 68.16C310.646 68.16 310.128 67.446 309.932 66.382L308.672 66.662C308.98 68.3 310.058 69.21 311.836 69.21C314.328 69.21 315.294 66.914 315.294 63.946C315.294 60.74 314.174 59.06 311.808 59.06ZM311.808 64.324C310.646 64.324 309.82 63.54 309.82 62.238C309.82 60.964 310.604 60.11 311.794 60.11C313.348 60.11 313.88 61.328 314.006 62.49C313.782 63.526 312.858 64.324 311.808 64.324ZM317.881 69H319.267V68.762C319.267 65.878 320.401 62.826 322.711 60.25V59.27H316.411V60.432H321.283C319.127 63.12 317.881 65.962 317.881 68.86V69ZM327.44 69.21C329.904 69.21 331.192 67.25 331.192 64.142C331.192 61.02 329.904 59.06 327.44 59.06C324.976 59.06 323.688 61.02 323.688 64.142C323.688 67.25 324.976 69.21 327.44 69.21ZM327.44 68.16C325.76 68.16 324.948 66.606 324.948 64.142C324.948 61.664 325.76 60.11 327.44 60.11C329.12 60.11 329.932 61.664 329.932 64.142C329.932 66.606 329.12 68.16 327.44 68.16ZM339.788 66.536V65.556H338.192V59.27H336.792L332.438 65.682V66.536H337.002V69H338.192V66.536H339.788ZM337.002 61.986V65.556H333.712C334.02 65.192 334.258 64.856 334.636 64.282L336.302 61.776C336.638 61.272 336.82 60.964 337.002 60.502H337.03C337.002 61.006 337.002 61.202 337.002 61.986ZM352.014 66.536V65.556H350.418V59.27H349.018L344.664 65.682V66.536H349.228V69H350.418V66.536H352.014ZM349.228 61.986V65.556H345.938C346.246 65.192 346.484 64.856 346.862 64.282L348.528 61.776C348.864 61.272 349.046 60.964 349.228 60.502H349.256C349.228 61.006 349.228 61.202 349.228 61.986ZM354.25 69H355.636V68.762C355.636 65.878 356.77 62.826 359.08 60.25V59.27H352.78V60.432H357.652C355.496 63.12 354.25 65.962 354.25 68.86V69ZM359.704 62.98H361.006V66.9C361.006 68.202 361.398 69.126 362.91 69.126C363.358 69.126 363.638 69.084 363.946 69V67.908C363.708 67.964 363.526 68.006 363.218 68.006C362.504 68.006 362.196 67.656 362.196 66.858V62.98H363.946V62H362.196V59.662L361.006 60.166V62H359.704V62.98ZM365.959 69H367.149V65.346C367.149 63.764 367.835 62.854 369.039 62.854C370.047 62.854 370.565 63.498 370.565 64.73V69H371.755V64.646C371.755 62.798 370.957 61.832 369.445 61.832C368.353 61.832 367.569 62.336 367.149 63.316V58.85H365.959V69ZM384.598 69H385.97L382.204 59.06H380.888L377.122 69H378.494L379.516 66.13H383.576L384.598 69ZM379.908 65.01L381.294 61.132C381.378 60.908 381.448 60.67 381.532 60.376H381.56C381.644 60.67 381.714 60.908 381.798 61.132L383.184 65.01H379.908ZM389.054 69H390.328L392.862 62H391.574L390.006 66.718C389.88 67.096 389.782 67.46 389.712 67.782H389.67C389.6 67.46 389.502 67.096 389.376 66.718L387.808 62H386.52L389.054 69ZM399.919 65.01C399.919 62.91 398.827 61.832 396.937 61.832C394.935 61.832 393.759 63.246 393.759 65.584C393.759 67.894 394.949 69.168 396.951 69.168C398.365 69.168 399.387 68.496 399.877 67.222L398.897 66.788C398.589 67.642 397.931 68.118 397.035 68.118C395.789 68.118 394.963 67.222 394.949 65.85H399.919V65.01ZM398.715 64.884H394.949C394.977 63.568 395.677 62.77 396.909 62.77C398.057 62.77 398.715 63.442 398.715 64.73V64.884ZM402.081 69H403.271V65.346C403.271 63.792 403.985 62.854 405.147 62.854C406.169 62.854 406.687 63.484 406.687 64.716V69H407.877V64.646C407.877 62.784 407.079 61.832 405.539 61.832C404.433 61.832 403.663 62.336 403.201 63.386V62H402.081V69ZM412.572 69.168C413.552 69.168 414.42 68.538 414.742 67.684V69H415.862V62H414.672V65.766C414.672 67.194 413.916 68.146 412.796 68.146C411.872 68.146 411.368 67.502 411.368 66.326V62H410.178V66.466C410.178 68.104 410.808 69.168 412.572 69.168ZM424.116 65.01C424.116 62.91 423.024 61.832 421.134 61.832C419.132 61.832 417.956 63.246 417.956 65.584C417.956 67.894 419.146 69.168 421.148 69.168C422.562 69.168 423.584 68.496 424.074 67.222L423.094 66.788C422.786 67.642 422.128 68.118 421.232 68.118C419.986 68.118 419.16 67.222 419.146 65.85H424.116V65.01ZM422.912 64.884H419.146C419.174 63.568 419.874 62.77 421.106 62.77C422.254 62.77 422.912 63.442 422.912 64.73V64.884ZM433.265 69.238C435.743 69.238 436.891 67.852 436.891 66.312C436.891 64.506 435.687 63.82 434.147 63.498L432.691 63.19C431.585 62.952 431.067 62.448 431.067 61.482C431.067 60.474 431.907 59.872 433.125 59.872C434.595 59.872 435.337 60.6 435.505 61.93L436.835 61.65C436.639 59.704 435.127 58.822 433.153 58.822C431.039 58.822 429.695 59.942 429.695 61.608C429.695 63.316 430.773 64.058 432.187 64.352L433.629 64.646C434.791 64.884 435.519 65.262 435.519 66.438C435.519 67.698 434.385 68.146 433.307 68.146C431.557 68.146 430.801 67.068 430.619 65.85L429.275 66.046C429.443 67.866 430.731 69.238 433.265 69.238ZM441.547 69.168C443.521 69.168 444.809 67.782 444.809 65.5C444.809 63.218 443.521 61.832 441.547 61.832C439.573 61.832 438.285 63.218 438.285 65.5C438.285 67.782 439.573 69.168 441.547 69.168ZM441.547 68.132C440.287 68.132 439.545 67.236 439.545 65.5C439.545 63.764 440.287 62.868 441.547 62.868C442.807 62.868 443.549 63.764 443.549 65.5C443.549 67.236 442.807 68.132 441.547 68.132ZM449.078 69.168C450.058 69.168 450.926 68.538 451.248 67.684V69H452.368V62H451.178V65.766C451.178 67.194 450.422 68.146 449.302 68.146C448.378 68.146 447.874 67.502 447.874 66.326V62H446.684V66.466C446.684 68.104 447.314 69.168 449.078 69.168ZM454.042 62.98H455.344V66.9C455.344 68.202 455.736 69.126 457.248 69.126C457.696 69.126 457.976 69.084 458.284 69V67.908C458.046 67.964 457.864 68.006 457.556 68.006C456.842 68.006 456.534 67.656 456.534 66.858V62.98H458.284V62H456.534V59.662L455.344 60.166V62H454.042V62.98ZM460.298 69H461.488V65.346C461.488 63.764 462.174 62.854 463.378 62.854C464.386 62.854 464.904 63.498 464.904 64.73V69H466.094V64.646C466.094 62.798 465.296 61.832 463.784 61.832C462.692 61.832 461.908 62.336 461.488 63.316V58.85H460.298V69ZM469.394 69H470.696L472.026 63.96C472.082 63.736 472.152 63.386 472.18 63.176H472.208C472.236 63.386 472.306 63.736 472.362 63.96L473.692 69H474.994L476.968 62H475.736L474.476 66.998C474.42 67.25 474.364 67.544 474.322 67.824H474.294C474.252 67.544 474.168 67.25 474.112 66.998L472.838 62H471.55L470.276 66.998C470.22 67.25 470.136 67.544 470.094 67.824H470.066C470.024 67.544 469.968 67.25 469.912 66.998L468.652 62H467.42L469.394 69ZM484.245 65.01C484.245 62.91 483.153 61.832 481.263 61.832C479.261 61.832 478.085 63.246 478.085 65.584C478.085 67.894 479.275 69.168 481.277 69.168C482.691 69.168 483.713 68.496 484.203 67.222L483.223 66.788C482.915 67.642 482.257 68.118 481.361 68.118C480.115 68.118 479.289 67.222 479.275 65.85H484.245V65.01ZM483.041 64.884H479.275C479.303 63.568 480.003 62.77 481.235 62.77C482.383 62.77 483.041 63.442 483.041 64.73V64.884ZM488.788 69.168C490.496 69.168 491.462 68.286 491.462 67.026C491.462 66.004 490.902 65.36 489.642 65.122L488.284 64.87C487.598 64.744 487.206 64.464 487.206 63.876C487.206 63.19 487.752 62.798 488.648 62.798C489.6 62.798 490.146 63.288 490.3 63.988L491.476 63.722C491.336 62.546 490.272 61.832 488.704 61.832C487.052 61.832 486.044 62.728 486.044 63.932C486.044 64.996 486.716 65.668 487.906 65.892L489.278 66.144C489.908 66.256 490.286 66.508 490.286 67.124C490.286 67.726 489.768 68.188 488.83 68.188C487.808 68.188 487.15 67.684 486.982 66.802L485.778 67.012C486.016 68.398 487.136 69.168 488.788 69.168ZM492.585 62.98H493.887V66.9C493.887 68.202 494.279 69.126 495.791 69.126C496.239 69.126 496.519 69.084 496.827 69V67.908C496.589 67.964 496.407 68.006 496.099 68.006C495.385 68.006 495.077 67.656 495.077 66.858V62.98H496.827V62H495.077V59.662L493.887 60.166V62H492.585V62.98Z" fill="#304850"/>
<path d="M315.7 85.536V84.556H314.104V78.27H312.704L308.35 84.682V85.536H312.914V88H314.104V85.536H315.7ZM312.914 80.986V84.556H309.624C309.932 84.192 310.17 83.856 310.548 83.282L312.214 80.776C312.55 80.272 312.732 79.964 312.914 79.502H312.942C312.914 80.006 312.914 80.202 312.914 80.986ZM318.871 86.348H317.233V88H318.871V86.348ZM327.475 85.536V84.556H325.879V78.27H324.479L320.125 84.682V85.536H324.689V88H325.879V85.536H327.475ZM324.689 80.986V84.556H321.399C321.707 84.192 321.945 83.856 322.323 83.282L323.989 80.776C324.325 80.272 324.507 79.964 324.689 79.502H324.717C324.689 80.006 324.689 80.202 324.689 80.986ZM352.137 82.862C353.271 82.54 353.803 81.644 353.803 80.706C353.803 79.53 353.117 78.06 350.499 78.06H347.041V88H350.793C353.313 88 354.083 86.544 354.083 85.27C354.083 83.94 353.327 83.072 352.137 82.862ZM350.499 79.18C352.109 79.18 352.487 80.02 352.487 80.804C352.487 81.49 352.207 82.372 350.499 82.372H348.371V79.18H350.499ZM350.723 86.88H348.371V83.492H350.863C352.221 83.492 352.767 84.22 352.767 85.144C352.767 86.04 352.277 86.88 350.723 86.88ZM357.421 82.596V81H356.315V88H357.505V85.004C357.505 84.164 357.533 83.226 358.205 82.554C358.541 82.218 359.017 82.008 359.745 82.008H359.801V80.846C359.717 80.832 359.633 80.832 359.549 80.832C358.485 80.832 357.757 81.616 357.421 82.596ZM361.463 79.698H362.821V78.2H361.463V79.698ZM361.547 88H362.737V81H361.547V88ZM368.042 88.168C369.61 88.168 370.66 87.244 370.912 85.648L369.778 85.466C369.596 86.558 369.008 87.132 368.056 87.132C366.81 87.132 366.082 86.166 366.082 84.486C366.082 82.848 366.81 81.868 368.014 81.868C368.966 81.868 369.582 82.456 369.708 83.52L370.926 83.38C370.744 81.77 369.68 80.832 368.042 80.832C366.054 80.832 364.822 82.218 364.822 84.5C364.822 86.74 366.082 88.168 368.042 88.168ZM373.091 88H374.281V84.346C374.281 82.764 374.967 81.854 376.171 81.854C377.179 81.854 377.697 82.498 377.697 83.73V88H378.887V83.646C378.887 81.798 378.089 80.832 376.577 80.832C375.485 80.832 374.701 81.336 374.281 82.316V77.85H373.091V88ZM383.777 88.168C385.485 88.168 386.451 87.286 386.451 86.026C386.451 85.004 385.891 84.36 384.631 84.122L383.273 83.87C382.587 83.744 382.195 83.464 382.195 82.876C382.195 82.19 382.741 81.798 383.637 81.798C384.589 81.798 385.135 82.288 385.289 82.988L386.465 82.722C386.325 81.546 385.261 80.832 383.693 80.832C382.041 80.832 381.033 81.728 381.033 82.932C381.033 83.996 381.705 84.668 382.895 84.892L384.267 85.144C384.897 85.256 385.275 85.508 385.275 86.124C385.275 86.726 384.757 87.188 383.819 87.188C382.797 87.188 382.139 86.684 381.971 85.802L380.767 86.012C381.005 87.398 382.125 88.168 383.777 88.168ZM387.574 81.98H388.876V85.9C388.876 87.202 389.268 88.126 390.78 88.126C391.228 88.126 391.508 88.084 391.816 88V86.908C391.578 86.964 391.396 87.006 391.088 87.006C390.374 87.006 390.066 86.656 390.066 85.858V81.98H391.816V81H390.066V78.662L388.876 79.166V81H387.574V81.98ZM396.323 88.168C398.297 88.168 399.585 86.782 399.585 84.5C399.585 82.218 398.297 80.832 396.323 80.832C394.349 80.832 393.061 82.218 393.061 84.5C393.061 86.782 394.349 88.168 396.323 88.168ZM396.323 87.132C395.063 87.132 394.321 86.236 394.321 84.5C394.321 82.764 395.063 81.868 396.323 81.868C397.583 81.868 398.325 82.764 398.325 84.5C398.325 86.236 397.583 87.132 396.323 87.132ZM401.671 88H402.861V84.346C402.861 82.792 403.575 81.854 404.737 81.854C405.759 81.854 406.277 82.484 406.277 83.716V88H407.467V83.646C407.467 81.784 406.669 80.832 405.129 80.832C404.023 80.832 403.253 81.336 402.791 82.386V81H401.671V88ZM415.508 84.01C415.508 81.91 414.416 80.832 412.526 80.832C410.524 80.832 409.348 82.246 409.348 84.584C409.348 86.894 410.538 88.168 412.54 88.168C413.954 88.168 414.976 87.496 415.466 86.222L414.486 85.788C414.178 86.642 413.52 87.118 412.624 87.118C411.378 87.118 410.552 86.222 410.538 84.85H415.508V84.01ZM414.304 83.884H410.538C410.566 82.568 411.266 81.77 412.498 81.77C413.646 81.77 414.304 82.442 414.304 83.73V83.884ZM421.647 88H427.569V86.88H422.977V78.06H421.647V88ZM431.181 88.168C432.329 88.168 433.211 87.622 433.533 86.726C433.547 87.174 433.589 87.636 433.645 88H434.891C434.723 87.454 434.653 86.712 434.653 85.634V83.744C434.653 81.7 433.813 80.832 431.895 80.832C430.257 80.832 429.137 81.77 429.039 83.198H430.313C430.369 82.316 430.957 81.812 431.909 81.812C432.987 81.812 433.449 82.33 433.449 83.618V83.73L432.147 83.884C430.999 84.024 430.327 84.192 429.795 84.458C429.165 84.808 428.815 85.41 428.815 86.11C428.815 87.356 429.753 88.168 431.181 88.168ZM431.447 87.188C430.593 87.188 430.075 86.768 430.075 86.082C430.075 85.396 430.523 85.032 431.559 84.878L433.463 84.598V84.948C433.463 86.306 432.665 87.188 431.447 87.188ZM441.84 88H443.31L440.58 83.702L443.142 81H441.588L438.452 84.444V77.85H437.262V88H438.452V85.858L439.726 84.57L441.84 88ZM450.305 84.01C450.305 81.91 449.213 80.832 447.323 80.832C445.321 80.832 444.145 82.246 444.145 84.584C444.145 86.894 445.335 88.168 447.337 88.168C448.751 88.168 449.773 87.496 450.263 86.222L449.283 85.788C448.975 86.642 448.317 87.118 447.421 87.118C446.175 87.118 445.349 86.222 445.335 84.85H450.305V84.01ZM449.101 83.884H445.335C445.363 82.568 446.063 81.77 447.295 81.77C448.443 81.77 449.101 82.442 449.101 83.73V83.884ZM453.463 88H454.765L456.095 82.96C456.151 82.736 456.221 82.386 456.249 82.176H456.277C456.305 82.386 456.375 82.736 456.431 82.96L457.761 88H459.063L461.037 81H459.805L458.545 85.998C458.489 86.25 458.433 86.544 458.391 86.824H458.363C458.321 86.544 458.237 86.25 458.181 85.998L456.907 81H455.619L454.345 85.998C454.289 86.25 454.205 86.544 454.163 86.824H454.135C454.093 86.544 454.037 86.25 453.981 85.998L452.721 81H451.489L453.463 88ZM465.416 88.168C467.39 88.168 468.678 86.782 468.678 84.5C468.678 82.218 467.39 80.832 465.416 80.832C463.442 80.832 462.154 82.218 462.154 84.5C462.154 86.782 463.442 88.168 465.416 88.168ZM465.416 87.132C464.156 87.132 463.414 86.236 463.414 84.5C463.414 82.764 464.156 81.868 465.416 81.868C466.676 81.868 467.418 82.764 467.418 84.5C467.418 86.236 466.676 87.132 465.416 87.132ZM473.396 88.168C475.37 88.168 476.658 86.782 476.658 84.5C476.658 82.218 475.37 80.832 473.396 80.832C471.422 80.832 470.134 82.218 470.134 84.5C470.134 86.782 471.422 88.168 473.396 88.168ZM473.396 87.132C472.136 87.132 471.394 86.236 471.394 84.5C471.394 82.764 472.136 81.868 473.396 81.868C474.656 81.868 475.398 82.764 475.398 84.5C475.398 86.236 474.656 87.132 473.396 87.132ZM480.955 88.168C482.047 88.168 482.803 87.636 483.223 86.698V88H484.343V77.85H483.153V82.036C482.705 81.21 482.019 80.832 481.095 80.832C479.345 80.832 478.113 82.344 478.113 84.5C478.113 86.698 479.261 88.168 480.955 88.168ZM481.277 87.118C480.087 87.118 479.373 86.138 479.373 84.5C479.373 82.848 480.087 81.882 481.277 81.882C482.453 81.882 483.181 82.82 483.181 84.346V84.668C483.181 86.166 482.439 87.118 481.277 87.118Z" fill="#304850"/>
<path d="M330.992 88.238L334.884 85.396L338.804 88.238L337.278 83.786L340.89 81.364H336.494L334.884 76.59L333.302 81.364H328.878L332.49 83.786L330.992 88.238Z" fill="#F65335"/>
<path d="M309.4 127H315.322V125.88H310.73V117.06H309.4V127ZM316.978 118.698H318.336V117.2H316.978V118.698ZM317.062 127H318.252V120H317.062V127ZM322.381 127H323.655L326.189 120H324.901L323.333 124.718C323.207 125.096 323.109 125.46 323.039 125.782H322.997C322.927 125.46 322.829 125.096 322.703 124.718L321.135 120H319.847L322.381 127ZM333.245 123.01C333.245 120.91 332.153 119.832 330.263 119.832C328.261 119.832 327.085 121.246 327.085 123.584C327.085 125.894 328.275 127.168 330.277 127.168C331.691 127.168 332.713 126.496 333.203 125.222L332.223 124.788C331.915 125.642 331.257 126.118 330.361 126.118C329.115 126.118 328.289 125.222 328.275 123.85H333.245V123.01ZM332.041 122.884H328.275C328.303 121.568 329.003 120.77 330.235 120.77C331.383 120.77 332.041 121.442 332.041 122.73V122.884ZM339.174 117.06V123.528C339.174 125.74 340.532 127.238 342.996 127.238C345.46 127.238 346.818 125.74 346.818 123.528V117.06H345.488V123.444C345.488 125.04 344.606 126.062 342.996 126.062C341.386 126.062 340.504 125.04 340.504 123.444V117.06H339.174ZM349.466 127H350.656V123.346C350.656 121.792 351.37 120.854 352.532 120.854C353.554 120.854 354.072 121.484 354.072 122.716V127H355.262V122.646C355.262 120.784 354.464 119.832 352.924 119.832C351.818 119.832 351.048 120.336 350.586 121.386V120H349.466V127ZM359.033 116.85H357.843V127H359.033V116.85ZM364.461 127.168C366.435 127.168 367.723 125.782 367.723 123.5C367.723 121.218 366.435 119.832 364.461 119.832C362.487 119.832 361.199 121.218 361.199 123.5C361.199 125.782 362.487 127.168 364.461 127.168ZM364.461 126.132C363.201 126.132 362.459 125.236 362.459 123.5C362.459 121.764 363.201 120.868 364.461 120.868C365.721 120.868 366.463 121.764 366.463 123.5C366.463 125.236 365.721 126.132 364.461 126.132ZM371.544 127.168C372.692 127.168 373.574 126.622 373.896 125.726C373.91 126.174 373.952 126.636 374.008 127H375.254C375.086 126.454 375.016 125.712 375.016 124.634V122.744C375.016 120.7 374.176 119.832 372.258 119.832C370.62 119.832 369.5 120.77 369.402 122.198H370.676C370.732 121.316 371.32 120.812 372.272 120.812C373.35 120.812 373.812 121.33 373.812 122.618V122.73L372.51 122.884C371.362 123.024 370.69 123.192 370.158 123.458C369.528 123.808 369.178 124.41 369.178 125.11C369.178 126.356 370.116 127.168 371.544 127.168ZM371.81 126.188C370.956 126.188 370.438 125.768 370.438 125.082C370.438 124.396 370.886 124.032 371.922 123.878L373.826 123.598V123.948C373.826 125.306 373.028 126.188 371.81 126.188ZM379.699 127.168C380.791 127.168 381.547 126.636 381.967 125.698V127H383.087V116.85H381.897V121.036C381.449 120.21 380.763 119.832 379.839 119.832C378.089 119.832 376.857 121.344 376.857 123.5C376.857 125.698 378.005 127.168 379.699 127.168ZM380.021 126.118C378.831 126.118 378.117 125.138 378.117 123.5C378.117 121.848 378.831 120.882 380.021 120.882C381.197 120.882 381.925 121.82 381.925 123.346V123.668C381.925 125.166 381.183 126.118 380.021 126.118Z" fill="#0B2127"/>
<path d="M310.716 145H312.34L314.272 137.244C314.314 137.076 314.342 136.95 314.356 136.782H314.412C314.426 136.95 314.454 137.076 314.496 137.244L316.428 145H318.052L320.418 135.06H319.06L317.338 143.068C317.282 143.334 317.268 143.46 317.254 143.614H317.212C317.198 143.474 317.17 143.348 317.1 143.068L315.056 135.06H313.712L311.668 143.068C311.598 143.348 311.57 143.474 311.556 143.614H311.514C311.5 143.46 311.486 143.334 311.43 143.068L309.708 135.06H308.35L310.716 145ZM327.486 141.01C327.486 138.91 326.394 137.832 324.504 137.832C322.502 137.832 321.326 139.246 321.326 141.584C321.326 143.894 322.516 145.168 324.518 145.168C325.932 145.168 326.954 144.496 327.444 143.222L326.464 142.788C326.156 143.642 325.498 144.118 324.602 144.118C323.356 144.118 322.53 143.222 322.516 141.85H327.486V141.01ZM326.282 140.884H322.516C322.544 139.568 323.244 138.77 324.476 138.77C325.624 138.77 326.282 139.442 326.282 140.73V140.884ZM331.86 145.168C332.952 145.168 333.708 144.636 334.128 143.698V145H335.248V134.85H334.058V139.036C333.61 138.21 332.924 137.832 332 137.832C330.25 137.832 329.018 139.344 329.018 141.5C329.018 143.698 330.166 145.168 331.86 145.168ZM332.182 144.118C330.992 144.118 330.278 143.138 330.278 141.5C330.278 139.848 330.992 138.882 332.182 138.882C333.358 138.882 334.086 139.82 334.086 141.346V141.668C334.086 143.166 333.344 144.118 332.182 144.118ZM342.434 145H343.82V144.762C343.82 141.878 344.954 138.826 347.264 136.25V135.27H340.964V136.432H345.836C343.68 139.12 342.434 141.962 342.434 144.86V145ZM348.293 146.638L352.241 134.36H351.135L347.187 146.638H348.293ZM355.582 145H356.842V135.27H355.778C355.54 136.292 354.742 136.852 353.804 136.852H353.496V137.986H354C354.532 137.986 355.288 137.776 355.582 137.37V145ZM365.211 145H366.471V135.27H365.407C365.169 136.292 364.371 136.852 363.433 136.852H363.125V137.986H363.629C364.161 137.986 364.917 137.776 365.211 137.37V145ZM368.847 145H375.231V143.866H370.541C371.493 143.208 372.179 142.648 372.935 141.948C374.433 140.562 375.119 139.372 375.119 138C375.119 136.11 373.985 135.06 372.095 135.06C370.135 135.06 368.959 136.166 368.959 137.888C368.959 138.14 368.987 138.392 369.057 138.672L370.317 138.798C370.247 138.448 370.205 138.154 370.205 137.902C370.205 136.838 370.891 136.152 372.025 136.152C373.145 136.152 373.803 136.824 373.803 138.014C373.803 139.176 373.383 139.988 372.151 141.178C370.905 142.368 369.645 143.376 368.847 143.964V145ZM378.749 138H377.111V139.652H378.749V138ZM378.749 143.348H377.111V145H378.749V143.348ZM384.379 145.21C386.843 145.21 388.131 143.25 388.131 140.142C388.131 137.02 386.843 135.06 384.379 135.06C381.915 135.06 380.627 137.02 380.627 140.142C380.627 143.25 381.915 145.21 384.379 145.21ZM384.379 144.16C382.699 144.16 381.887 142.606 381.887 140.142C381.887 137.664 382.699 136.11 384.379 136.11C386.059 136.11 386.871 137.664 386.871 140.142C386.871 142.606 386.059 144.16 384.379 144.16ZM393.479 145.21C395.943 145.21 397.231 143.25 397.231 140.142C397.231 137.02 395.943 135.06 393.479 135.06C391.015 135.06 389.727 137.02 389.727 140.142C389.727 143.25 391.015 145.21 393.479 145.21ZM393.479 144.16C391.799 144.16 390.987 142.606 390.987 140.142C390.987 137.664 391.799 136.11 393.479 136.11C395.159 136.11 395.971 137.664 395.971 140.142C395.971 142.606 395.159 144.16 393.479 144.16ZM403.224 147.73H404.414V143.894C404.722 144.58 405.478 145.168 406.556 145.168C408.25 145.168 409.454 143.74 409.454 141.5C409.454 139.288 408.32 137.832 406.626 137.832C405.604 137.832 404.792 138.336 404.344 139.302V138H403.224V147.73ZM406.276 144.118C405.114 144.118 404.386 143.166 404.386 141.654V141.318C404.386 139.806 405.142 138.882 406.318 138.882C407.494 138.882 408.194 139.848 408.194 141.5C408.194 143.138 407.466 144.118 406.276 144.118ZM411.545 138V145H412.735V140.912C412.735 139.638 413.337 138.854 414.317 138.854C415.157 138.854 415.633 139.428 415.633 140.45V145H416.823V140.856C416.823 139.582 417.397 138.854 418.391 138.854C419.273 138.854 419.721 139.414 419.721 140.506V145H420.911V140.408C420.911 138.784 420.127 137.832 418.783 137.832C417.831 137.832 417.117 138.294 416.655 139.232C416.333 138.322 415.633 137.832 414.667 137.832C413.729 137.832 413.057 138.294 412.665 139.218V138H411.545ZM428.994 145.168C430.142 145.168 431.024 144.622 431.346 143.726C431.36 144.174 431.402 144.636 431.458 145H432.704C432.536 144.454 432.466 143.712 432.466 142.634V140.744C432.466 138.7 431.626 137.832 429.708 137.832C428.07 137.832 426.95 138.77 426.852 140.198H428.126C428.182 139.316 428.77 138.812 429.722 138.812C430.8 138.812 431.262 139.33 431.262 140.618V140.73L429.96 140.884C428.812 141.024 428.14 141.192 427.608 141.458C426.978 141.808 426.628 142.41 426.628 143.11C426.628 144.356 427.566 145.168 428.994 145.168ZM429.26 144.188C428.406 144.188 427.888 143.768 427.888 143.082C427.888 142.396 428.336 142.032 429.372 141.878L431.276 141.598V141.948C431.276 143.306 430.478 144.188 429.26 144.188ZM435.005 147.73H436.195V143.894C436.503 144.58 437.259 145.168 438.337 145.168C440.031 145.168 441.235 143.74 441.235 141.5C441.235 139.288 440.101 137.832 438.407 137.832C437.385 137.832 436.573 138.336 436.125 139.302V138H435.005V147.73ZM438.057 144.118C436.895 144.118 436.167 143.166 436.167 141.654V141.318C436.167 139.806 436.923 138.882 438.099 138.882C439.275 138.882 439.975 139.848 439.975 141.5C439.975 143.138 439.247 144.118 438.057 144.118ZM443.326 147.73H444.516V143.894C444.824 144.58 445.58 145.168 446.658 145.168C448.352 145.168 449.556 143.74 449.556 141.5C449.556 139.288 448.422 137.832 446.728 137.832C445.706 137.832 444.894 138.336 444.446 139.302V138H443.326V147.73ZM446.378 144.118C445.216 144.118 444.488 143.166 444.488 141.654V141.318C444.488 139.806 445.244 138.882 446.42 138.882C447.596 138.882 448.296 139.848 448.296 141.5C448.296 143.138 447.568 144.118 446.378 144.118ZM450.597 138.98H451.899V142.9C451.899 144.202 452.291 145.126 453.803 145.126C454.251 145.126 454.531 145.084 454.839 145V143.908C454.601 143.964 454.419 144.006 454.111 144.006C453.397 144.006 453.089 143.656 453.089 142.858V138.98H454.839V138H453.089V135.662L451.899 136.166V138H450.597V138.98Z" fill="#304850"/>
<path d="M313.376 181V178.888H314.744V178.048H313.376V172.66H312.212L308.564 178.156V178.888H312.356V181H313.376ZM309.62 178.048C309.836 177.82 309.932 177.652 310.184 177.268L311.744 174.928C312.104 174.376 312.224 174.16 312.368 173.776H312.38C312.356 174.388 312.356 174.604 312.356 174.988V178.048H309.62ZM321.057 181V178.888H322.425V178.048H321.057V172.66H319.893L316.245 178.156V178.888H320.037V181H321.057ZM317.301 178.048C317.517 177.82 317.613 177.652 317.865 177.268L319.425 174.928C319.785 174.376 319.905 174.16 320.049 173.776H320.061C320.037 174.388 320.037 174.604 320.037 174.988V178.048H317.301ZM336.024 175.624C336.144 175.12 336.336 174.028 336.408 173.428H336.48C336.468 173.968 336.456 174.988 336.456 175.708V181H337.512V172.48H335.892L334.932 176.932C334.884 177.196 334.824 177.52 334.8 177.688H334.728C334.704 177.52 334.644 177.196 334.596 176.932L333.636 172.48H332.016V181H333.072V175.708C333.072 174.988 333.06 173.968 333.048 173.428H333.12C333.192 174.028 333.384 175.12 333.504 175.624L334.248 178.96H335.28L336.024 175.624ZM345.134 172.48H339.758V173.38H341.882V180.1H339.758V181H345.134V180.1H342.998V173.38H345.134V172.48Z" fill="#798F9A"/>
<path d="M313.58 216.306C316.928 216.306 318.8 214.632 318.8 212.202C318.8 210.006 317.576 208.926 315.308 208.422L313.454 208.026C312.104 207.72 311.6 207.306 311.6 206.478C311.6 205.668 312.374 205.164 313.58 205.164C315.038 205.164 316.226 205.884 316.874 207.126L318.854 205.452C317.954 203.742 316.046 202.914 313.778 202.914C310.7 202.914 308.792 204.372 308.792 206.712C308.792 208.854 310.088 210.06 312.32 210.546L314.03 210.906C315.326 211.176 315.884 211.536 315.884 212.49C315.884 213.498 314.912 213.948 313.688 213.948C311.996 213.948 310.88 213.066 310.214 211.752L307.964 213.336C308.846 215.136 310.826 216.306 313.58 216.306ZM328.967 211.284C328.967 208.422 327.383 206.784 324.557 206.784C321.749 206.784 319.985 208.638 319.985 211.59C319.985 214.506 321.785 216.216 324.755 216.216C326.627 216.216 328.157 215.334 328.877 213.858L326.753 212.886C326.339 213.714 325.673 214.146 324.791 214.146C323.585 214.146 322.739 213.372 322.721 212.148H328.967V211.284ZM326.177 210.528H322.721C322.757 209.25 323.387 208.494 324.503 208.494C325.583 208.494 326.177 209.178 326.177 210.456V210.528ZM333.277 216.216C334.681 216.216 335.833 215.586 336.283 214.578C336.301 215.082 336.337 215.568 336.427 216H339.235C339.073 215.442 338.983 214.56 338.983 213.498V210.51C338.983 207.918 337.687 206.784 334.789 206.784C332.233 206.784 330.613 207.972 330.469 209.97H333.331C333.385 209.106 333.889 208.638 334.771 208.638C335.671 208.638 336.103 209.088 336.103 210.114V210.42L333.925 210.726C332.557 210.906 331.693 211.194 331.099 211.608C330.487 212.04 330.181 212.706 330.181 213.552C330.181 215.154 331.423 216.216 333.277 216.216ZM334.357 214.38C333.601 214.38 333.097 213.966 333.097 213.336C333.097 212.67 333.583 212.292 334.645 212.094L336.193 211.842V212.562C336.193 213.642 335.455 214.38 334.357 214.38ZM340.036 208.926H341.602V213.102C341.602 215.082 342.592 216.162 344.986 216.162C345.508 216.162 345.958 216.108 346.624 215.982V213.696C346.354 213.75 346.138 213.786 345.796 213.786C344.932 213.786 344.482 213.318 344.482 212.418V208.926H346.624V207H344.482V203.724L341.602 204.84V207H340.036V208.926ZM347.807 208.926H349.373V213.102C349.373 215.082 350.363 216.162 352.757 216.162C353.279 216.162 353.729 216.108 354.395 215.982V213.696C354.125 213.75 353.909 213.786 353.567 213.786C352.703 213.786 352.253 213.318 352.253 212.418V208.926H354.395V207H352.253V203.724L349.373 204.84V207H347.807V208.926ZM359.138 202.95H356.24V216H359.138V202.95ZM370.023 211.284C370.023 208.422 368.439 206.784 365.613 206.784C362.805 206.784 361.041 208.638 361.041 211.59C361.041 214.506 362.841 216.216 365.811 216.216C367.683 216.216 369.213 215.334 369.933 213.858L367.809 212.886C367.395 213.714 366.729 214.146 365.847 214.146C364.641 214.146 363.795 213.372 363.777 212.148H370.023V211.284ZM367.233 210.528H363.777C363.813 209.25 364.443 208.494 365.559 208.494C366.639 208.494 367.233 209.178 367.233 210.456V210.528ZM372.696 218.79C374.388 218.268 375.036 217.332 375.036 215.838V213.048H371.976V216H373.398V216.036C373.398 216.846 373.164 217.26 372.102 217.602L372.696 218.79ZM384.299 216H387.683L389.447 207.324C389.501 207.036 389.537 206.73 389.555 206.388H389.627C389.645 206.73 389.663 207.036 389.717 207.324L391.481 216H394.883L397.925 203.22H394.865L393.227 211.518C393.155 211.914 393.137 212.238 393.119 212.58H393.065C393.047 212.238 393.011 211.914 392.921 211.518L391.103 203.22H388.061L386.261 211.518C386.171 211.914 386.135 212.238 386.117 212.58H386.063C386.045 212.238 386.009 211.914 385.937 211.518L384.317 203.22H381.257L384.299 216ZM407.237 216H410.297L405.653 203.22H402.179L397.535 216H400.577L401.549 213.012H406.265L407.237 216ZM402.251 210.87L403.421 207.306C403.601 206.748 403.781 206.154 403.889 205.506H403.925C404.051 206.154 404.213 206.748 404.393 207.306L405.563 210.87H402.251Z" fill="#0B2127"/>
<path d="M607 215L613 209L607 203" stroke="#0B2127" stroke-width="2"/>
<path d="M311.808 225.06C309.834 225.06 308.56 226.418 308.56 228.252C308.56 230.296 309.904 231.374 311.682 231.374C312.704 231.374 313.544 230.968 314.034 230.128C314.006 232.564 313.418 234.16 311.85 234.16C310.646 234.16 310.128 233.446 309.932 232.382L308.672 232.662C308.98 234.3 310.058 235.21 311.836 235.21C314.328 235.21 315.294 232.914 315.294 229.946C315.294 226.74 314.174 225.06 311.808 225.06ZM311.808 230.324C310.646 230.324 309.82 229.54 309.82 228.238C309.82 226.964 310.604 226.11 311.794 226.11C313.348 226.11 313.88 227.328 314.006 228.49C313.782 229.526 312.858 230.324 311.808 230.324ZM317.881 235H319.267V234.762C319.267 231.878 320.401 228.826 322.711 226.25V225.27H316.411V226.432H321.283C319.127 229.12 317.881 231.962 317.881 234.86V235ZM327.44 235.21C329.904 235.21 331.192 233.25 331.192 230.142C331.192 227.02 329.904 225.06 327.44 225.06C324.976 225.06 323.688 227.02 323.688 230.142C323.688 233.25 324.976 235.21 327.44 235.21ZM327.44 234.16C325.76 234.16 324.948 232.606 324.948 230.142C324.948 227.664 325.76 226.11 327.44 226.11C329.12 226.11 329.932 227.664 329.932 230.142C329.932 232.606 329.12 234.16 327.44 234.16ZM339.788 232.536V231.556H338.192V225.27H336.792L332.438 231.682V232.536H337.002V235H338.192V232.536H339.788ZM337.002 227.986V231.556H333.712C334.02 231.192 334.258 230.856 334.636 230.282L336.302 227.776C336.638 227.272 336.82 226.964 337.002 226.502H337.03C337.002 227.006 337.002 227.202 337.002 227.986ZM352.014 232.536V231.556H350.418V225.27H349.018L344.664 231.682V232.536H349.228V235H350.418V232.536H352.014ZM349.228 227.986V231.556H345.938C346.246 231.192 346.484 230.856 346.862 230.282L348.528 227.776C348.864 227.272 349.046 226.964 349.228 226.502H349.256C349.228 227.006 349.228 227.202 349.228 227.986ZM354.25 235H355.636V234.762C355.636 231.878 356.77 228.826 359.08 226.25V225.27H352.78V226.432H357.652C355.496 229.12 354.25 231.962 354.25 234.86V235ZM359.704 228.98H361.006V232.9C361.006 234.202 361.398 235.126 362.91 235.126C363.358 235.126 363.638 235.084 363.946 235V233.908C363.708 233.964 363.526 234.006 363.218 234.006C362.504 234.006 362.196 233.656 362.196 232.858V228.98H363.946V228H362.196V225.662L361.006 226.166V228H359.704V228.98ZM365.959 235H367.149V231.346C367.149 229.764 367.835 228.854 369.039 228.854C370.047 228.854 370.565 229.498 370.565 230.73V235H371.755V230.646C371.755 228.798 370.957 227.832 369.445 227.832C368.353 227.832 367.569 228.336 367.149 229.316V224.85H365.959V235ZM384.598 235H385.97L382.204 225.06H380.888L377.122 235H378.494L379.516 232.13H383.576L384.598 235ZM379.908 231.01L381.294 227.132C381.378 226.908 381.448 226.67 381.532 226.376H381.56C381.644 226.67 381.714 226.908 381.798 227.132L383.184 231.01H379.908ZM389.054 235H390.328L392.862 228H391.574L390.006 232.718C389.88 233.096 389.782 233.46 389.712 233.782H389.67C389.6 233.46 389.502 233.096 389.376 232.718L387.808 228H386.52L389.054 235ZM399.919 231.01C399.919 228.91 398.827 227.832 396.937 227.832C394.935 227.832 393.759 229.246 393.759 231.584C393.759 233.894 394.949 235.168 396.951 235.168C398.365 235.168 399.387 234.496 399.877 233.222L398.897 232.788C398.589 233.642 397.931 234.118 397.035 234.118C395.789 234.118 394.963 233.222 394.949 231.85H399.919V231.01ZM398.715 230.884H394.949C394.977 229.568 395.677 228.77 396.909 228.77C398.057 228.77 398.715 229.442 398.715 230.73V230.884ZM402.081 235H403.271V231.346C403.271 229.792 403.985 228.854 405.147 228.854C406.169 228.854 406.687 229.484 406.687 230.716V235H407.877V230.646C407.877 228.784 407.079 227.832 405.539 227.832C404.433 227.832 403.663 228.336 403.201 229.386V228H402.081V235ZM412.572 235.168C413.552 235.168 414.42 234.538 414.742 233.684V235H415.862V228H414.672V231.766C414.672 233.194 413.916 234.146 412.796 234.146C411.872 234.146 411.368 233.502 411.368 232.326V228H410.178V232.466C410.178 234.104 410.808 235.168 412.572 235.168ZM424.116 231.01C424.116 228.91 423.024 227.832 421.134 227.832C419.132 227.832 417.956 229.246 417.956 231.584C417.956 233.894 419.146 235.168 421.148 235.168C422.562 235.168 423.584 234.496 424.074 233.222L423.094 232.788C422.786 233.642 422.128 234.118 421.232 234.118C419.986 234.118 419.16 233.222 419.146 231.85H424.116V231.01ZM422.912 230.884H419.146C419.174 229.568 419.874 228.77 421.106 228.77C422.254 228.77 422.912 229.442 422.912 230.73V230.884ZM433.265 235.238C435.743 235.238 436.891 233.852 436.891 232.312C436.891 230.506 435.687 229.82 434.147 229.498L432.691 229.19C431.585 228.952 431.067 228.448 431.067 227.482C431.067 226.474 431.907 225.872 433.125 225.872C434.595 225.872 435.337 226.6 435.505 227.93L436.835 227.65C436.639 225.704 435.127 224.822 433.153 224.822C431.039 224.822 429.695 225.942 429.695 227.608C429.695 229.316 430.773 230.058 432.187 230.352L433.629 230.646C434.791 230.884 435.519 231.262 435.519 232.438C435.519 233.698 434.385 234.146 433.307 234.146C431.557 234.146 430.801 233.068 430.619 231.85L429.275 232.046C429.443 233.866 430.731 235.238 433.265 235.238ZM441.547 235.168C443.521 235.168 444.809 233.782 444.809 231.5C444.809 229.218 443.521 227.832 441.547 227.832C439.573 227.832 438.285 229.218 438.285 231.5C438.285 233.782 439.573 235.168 441.547 235.168ZM441.547 234.132C440.287 234.132 439.545 233.236 439.545 231.5C439.545 229.764 440.287 228.868 441.547 228.868C442.807 228.868 443.549 229.764 443.549 231.5C443.549 233.236 442.807 234.132 441.547 234.132ZM449.078 235.168C450.058 235.168 450.926 234.538 451.248 233.684V235H452.368V228H451.178V231.766C451.178 233.194 450.422 234.146 449.302 234.146C448.378 234.146 447.874 233.502 447.874 232.326V228H446.684V232.466C446.684 234.104 447.314 235.168 449.078 235.168ZM454.042 228.98H455.344V232.9C455.344 234.202 455.736 235.126 457.248 235.126C457.696 235.126 457.976 235.084 458.284 235V233.908C458.046 233.964 457.864 234.006 457.556 234.006C456.842 234.006 456.534 233.656 456.534 232.858V228.98H458.284V228H456.534V225.662L455.344 226.166V228H454.042V228.98ZM460.298 235H461.488V231.346C461.488 229.764 462.174 228.854 463.378 228.854C464.386 228.854 464.904 229.498 464.904 230.73V235H466.094V230.646C466.094 228.798 465.296 227.832 463.784 227.832C462.692 227.832 461.908 228.336 461.488 229.316V224.85H460.298V235ZM469.394 235H470.696L472.026 229.96C472.082 229.736 472.152 229.386 472.18 229.176H472.208C472.236 229.386 472.306 229.736 472.362 229.96L473.692 235H474.994L476.968 228H475.736L474.476 232.998C474.42 233.25 474.364 233.544 474.322 233.824H474.294C474.252 233.544 474.168 233.25 474.112 232.998L472.838 228H471.55L470.276 232.998C470.22 233.25 470.136 233.544 470.094 233.824H470.066C470.024 233.544 469.968 233.25 469.912 232.998L468.652 228H467.42L469.394 235ZM484.245 231.01C484.245 228.91 483.153 227.832 481.263 227.832C479.261 227.832 478.085 229.246 478.085 231.584C478.085 233.894 479.275 235.168 481.277 235.168C482.691 235.168 483.713 234.496 484.203 233.222L483.223 232.788C482.915 233.642 482.257 234.118 481.361 234.118C480.115 234.118 479.289 233.222 479.275 231.85H484.245V231.01ZM483.041 230.884H479.275C479.303 229.568 480.003 228.77 481.235 228.77C482.383 228.77 483.041 229.442 483.041 230.73V230.884ZM488.788 235.168C490.496 235.168 491.462 234.286 491.462 233.026C491.462 232.004 490.902 231.36 489.642 231.122L488.284 230.87C487.598 230.744 487.206 230.464 487.206 229.876C487.206 229.19 487.752 228.798 488.648 228.798C489.6 228.798 490.146 229.288 490.3 229.988L491.476 229.722C491.336 228.546 490.272 227.832 488.704 227.832C487.052 227.832 486.044 228.728 486.044 229.932C486.044 230.996 486.716 231.668 487.906 231.892L489.278 232.144C489.908 232.256 490.286 232.508 490.286 233.124C490.286 233.726 489.768 234.188 488.83 234.188C487.808 234.188 487.15 233.684 486.982 232.802L485.778 233.012C486.016 234.398 487.136 235.168 488.788 235.168ZM492.585 228.98H493.887V232.9C493.887 234.202 494.279 235.126 495.791 235.126C496.239 235.126 496.519 235.084 496.827 235V233.908C496.589 233.964 496.407 234.006 496.099 234.006C495.385 234.006 495.077 233.656 495.077 232.858V228.98H496.827V228H495.077V225.662L493.887 226.166V228H492.585V228.98Z" fill="#304850"/>
<path d="M315.7 251.536V250.556H314.104V244.27H312.704L308.35 250.682V251.536H312.914V254H314.104V251.536H315.7ZM312.914 246.986V250.556H309.624C309.932 250.192 310.17 249.856 310.548 249.282L312.214 246.776C312.55 246.272 312.732 245.964 312.914 245.502H312.942C312.914 246.006 312.914 246.202 312.914 246.986ZM318.871 252.348H317.233V254H318.871V252.348ZM327.475 251.536V250.556H325.879V244.27H324.479L320.125 250.682V251.536H324.689V254H325.879V251.536H327.475ZM324.689 246.986V250.556H321.399C321.707 250.192 321.945 249.856 322.323 249.282L323.989 246.776C324.325 246.272 324.507 245.964 324.689 245.502H324.717C324.689 246.006 324.689 246.202 324.689 246.986ZM347.041 254H352.963V252.88H348.371V244.06H347.041V254ZM356.575 254.168C357.723 254.168 358.605 253.622 358.927 252.726C358.941 253.174 358.983 253.636 359.039 254H360.285C360.117 253.454 360.047 252.712 360.047 251.634V249.744C360.047 247.7 359.207 246.832 357.289 246.832C355.651 246.832 354.531 247.77 354.433 249.198H355.707C355.763 248.316 356.351 247.812 357.303 247.812C358.381 247.812 358.843 248.33 358.843 249.618V249.73L357.541 249.884C356.393 250.024 355.721 250.192 355.189 250.458C354.559 250.808 354.209 251.41 354.209 252.11C354.209 253.356 355.147 254.168 356.575 254.168ZM356.841 253.188C355.987 253.188 355.469 252.768 355.469 252.082C355.469 251.396 355.917 251.032 356.953 250.878L358.857 250.598V250.948C358.857 252.306 358.059 253.188 356.841 253.188ZM367.895 246.888C368.091 246.888 368.259 246.916 368.399 246.944V245.908C368.245 245.866 368.091 245.852 367.937 245.852C366.999 245.852 366.481 246.412 366.271 247.126C365.879 246.944 365.431 246.832 364.899 246.832C363.275 246.832 362.309 247.84 362.309 249.198C362.309 249.884 362.547 250.472 362.995 250.906C362.407 251.13 362.001 251.606 362.001 252.306C362.001 252.81 362.225 253.258 362.813 253.524C362.071 253.762 361.679 254.322 361.679 254.98C361.679 255.974 362.365 256.898 364.829 256.898C367.265 256.898 368.301 255.988 368.301 254.672C368.301 253.412 367.503 252.698 365.921 252.698H364.213C363.345 252.698 363.051 252.376 363.051 251.984C363.051 251.662 363.261 251.424 363.555 251.298C363.933 251.48 364.381 251.592 364.899 251.592C366.523 251.592 367.489 250.556 367.489 249.198C367.489 248.54 367.265 247.966 366.845 247.546C367.013 247.098 367.363 246.888 367.895 246.888ZM364.899 250.682C364.003 250.682 363.429 250.052 363.429 249.198C363.429 248.344 364.003 247.742 364.899 247.742C365.795 247.742 366.369 248.358 366.369 249.212C366.369 250.066 365.795 250.682 364.899 250.682ZM365.655 253.748C366.621 253.748 367.111 254.098 367.111 254.756C367.111 255.386 366.677 255.918 364.969 255.918C363.709 255.918 362.841 255.638 362.841 254.77C362.841 254.35 363.079 253.944 363.583 253.72C363.765 253.734 363.961 253.748 364.171 253.748H365.655ZM372.12 254.168C373.1 254.168 373.968 253.538 374.29 252.684V254H375.41V247H374.22V250.766C374.22 252.194 373.464 253.146 372.344 253.146C371.42 253.146 370.916 252.502 370.916 251.326V247H369.726V251.466C369.726 253.104 370.356 254.168 372.12 254.168ZM378.134 254H379.324V250.346C379.324 248.792 380.038 247.854 381.2 247.854C382.222 247.854 382.74 248.484 382.74 249.716V254H383.93V249.646C383.93 247.784 383.132 246.832 381.592 246.832C380.486 246.832 379.716 247.336 379.254 248.386V247H378.134V254ZM388.178 254.168C389.326 254.168 390.208 253.622 390.53 252.726C390.544 253.174 390.586 253.636 390.642 254H391.888C391.72 253.454 391.65 252.712 391.65 251.634V249.744C391.65 247.7 390.81 246.832 388.892 246.832C387.254 246.832 386.134 247.77 386.036 249.198H387.31C387.366 248.316 387.954 247.812 388.906 247.812C389.984 247.812 390.446 248.33 390.446 249.618V249.73L389.144 249.884C387.996 250.024 387.324 250.192 386.792 250.458C386.162 250.808 385.812 251.41 385.812 252.11C385.812 253.356 386.75 254.168 388.178 254.168ZM388.444 253.188C387.59 253.188 387.072 252.768 387.072 252.082C387.072 251.396 387.52 251.032 388.556 250.878L390.46 250.598V250.948C390.46 252.306 389.662 253.188 388.444 253.188ZM401.749 254.238C403.233 254.238 404.367 253.482 404.801 252.404L404.983 254H405.949V248.806H401.847V249.926H404.759V250.094C404.759 251.046 404.395 253.104 401.945 253.104C399.789 253.104 398.753 251.312 398.753 249.044C398.753 246.622 399.901 244.942 401.931 244.942C403.709 244.942 404.311 246.174 404.451 247.014L405.767 246.832C405.599 245.726 404.717 243.822 401.973 243.822C399.033 243.822 397.395 245.992 397.395 249.03C397.395 252.026 399.033 254.238 401.749 254.238ZM409.489 248.596V247H408.383V254H409.573V251.004C409.573 250.164 409.601 249.226 410.273 248.554C410.609 248.218 411.085 248.008 411.813 248.008H411.869V246.846C411.785 246.832 411.701 246.832 411.617 246.832C410.553 246.832 409.825 247.616 409.489 248.596ZM416.178 254.168C418.152 254.168 419.44 252.782 419.44 250.5C419.44 248.218 418.152 246.832 416.178 246.832C414.204 246.832 412.916 248.218 412.916 250.5C412.916 252.782 414.204 254.168 416.178 254.168ZM416.178 253.132C414.918 253.132 414.176 252.236 414.176 250.5C414.176 248.764 414.918 247.868 416.178 247.868C417.438 247.868 418.18 248.764 418.18 250.5C418.18 252.236 417.438 253.132 416.178 253.132ZM422.871 254H424.145L426.679 247H425.391L423.823 251.718C423.697 252.096 423.599 252.46 423.529 252.782H423.487C423.417 252.46 423.319 252.096 423.193 251.718L421.625 247H420.337L422.871 254ZM433.736 250.01C433.736 247.91 432.644 246.832 430.754 246.832C428.752 246.832 427.576 248.246 427.576 250.584C427.576 252.894 428.766 254.168 430.768 254.168C432.182 254.168 433.204 253.496 433.694 252.222L432.714 251.788C432.406 252.642 431.748 253.118 430.852 253.118C429.606 253.118 428.78 252.222 428.766 250.85H433.736V250.01ZM432.532 249.884H428.766C428.794 248.568 429.494 247.77 430.726 247.77C431.874 247.77 432.532 248.442 432.532 249.73V249.884ZM446.035 245.18V244.06H439.875V254H441.205V249.464H445.797V248.344H441.205V245.18H446.035ZM449.655 254.168C450.803 254.168 451.685 253.622 452.007 252.726C452.021 253.174 452.063 253.636 452.119 254H453.365C453.197 253.454 453.127 252.712 453.127 251.634V249.744C453.127 247.7 452.287 246.832 450.369 246.832C448.731 246.832 447.611 247.77 447.513 249.198H448.787C448.843 248.316 449.431 247.812 450.383 247.812C451.461 247.812 451.923 248.33 451.923 249.618V249.73L450.621 249.884C449.473 250.024 448.801 250.192 448.269 250.458C447.639 250.808 447.289 251.41 447.289 252.11C447.289 253.356 448.227 254.168 449.655 254.168ZM449.921 253.188C449.067 253.188 448.549 252.768 448.549 252.082C448.549 251.396 448.997 251.032 450.033 250.878L451.937 250.598V250.948C451.937 252.306 451.139 253.188 449.921 253.188ZM458.188 254.168C459.756 254.168 460.806 253.244 461.058 251.648L459.924 251.466C459.742 252.558 459.154 253.132 458.202 253.132C456.956 253.132 456.228 252.166 456.228 250.486C456.228 248.848 456.956 247.868 458.16 247.868C459.112 247.868 459.728 248.456 459.854 249.52L461.072 249.38C460.89 247.77 459.826 246.832 458.188 246.832C456.2 246.832 454.968 248.218 454.968 250.5C454.968 252.74 456.228 254.168 458.188 254.168ZM463.083 245.698H464.441V244.2H463.083V245.698ZM463.167 254H464.357V247H463.167V254ZM468.332 243.85H467.142V254H468.332V243.85ZM471.044 245.698H472.402V244.2H471.044V245.698ZM471.128 254H472.318V247H471.128V254ZM473.983 247.98H475.285V251.9C475.285 253.202 475.677 254.126 477.189 254.126C477.637 254.126 477.917 254.084 478.225 254V252.908C477.987 252.964 477.805 253.006 477.497 253.006C476.783 253.006 476.475 252.656 476.475 251.858V247.98H478.225V247H476.475V244.662L475.285 245.166V247H473.983V247.98ZM480.47 256.8C481.646 256.8 482.486 256.212 483.13 254.448L485.86 247H484.572L482.948 251.872C482.836 252.222 482.752 252.502 482.71 252.698H482.682C482.64 252.502 482.57 252.222 482.444 251.872L480.652 247H479.322L482.108 253.916L481.926 254.434C481.604 255.344 481.17 255.722 480.33 255.722C480.176 255.722 480.008 255.722 479.826 255.694V256.744C480.05 256.786 480.26 256.8 480.47 256.8Z" fill="#304850"/>
<path d="M330.992 254.238L334.884 251.396L338.804 254.238L337.278 249.786L340.89 247.364H336.494L334.884 242.59L333.302 247.364H328.878L332.49 249.786L330.992 254.238Z" fill="#F65335"/>
<path d="M328.616 292.238C331.094 292.238 332.242 290.852 332.242 289.312C332.242 287.506 331.038 286.82 329.498 286.498L328.042 286.19C326.936 285.952 326.418 285.448 326.418 284.482C326.418 283.474 327.258 282.872 328.476 282.872C329.946 282.872 330.688 283.6 330.856 284.93L332.186 284.65C331.99 282.704 330.478 281.822 328.504 281.822C326.39 281.822 325.046 282.942 325.046 284.608C325.046 286.316 326.124 287.058 327.538 287.352L328.98 287.646C330.142 287.884 330.87 288.262 330.87 289.438C330.87 290.698 329.736 291.146 328.658 291.146C326.908 291.146 326.152 290.068 325.97 288.85L324.626 289.046C324.794 290.866 326.082 292.238 328.616 292.238ZM339.796 288.01C339.796 285.91 338.704 284.832 336.814 284.832C334.812 284.832 333.636 286.246 333.636 288.584C333.636 290.894 334.826 292.168 336.828 292.168C338.242 292.168 339.264 291.496 339.754 290.222L338.774 289.788C338.466 290.642 337.808 291.118 336.912 291.118C335.666 291.118 334.84 290.222 334.826 288.85H339.796V288.01ZM338.592 287.884H334.826C334.854 286.568 335.554 285.77 336.786 285.77C337.934 285.77 338.592 286.442 338.592 287.73V287.884ZM347.488 288.01C347.488 285.91 346.396 284.832 344.506 284.832C342.504 284.832 341.328 286.246 341.328 288.584C341.328 290.894 342.518 292.168 344.52 292.168C345.934 292.168 346.956 291.496 347.446 290.222L346.466 289.788C346.158 290.642 345.5 291.118 344.604 291.118C343.358 291.118 342.532 290.222 342.518 288.85H347.488V288.01ZM346.284 287.884H342.518C342.546 286.568 343.246 285.77 344.478 285.77C345.626 285.77 346.284 286.442 346.284 287.73V287.884ZM352.717 292H359.101V290.866H354.411C355.363 290.208 356.049 289.648 356.805 288.948C358.303 287.562 358.989 286.372 358.989 285C358.989 283.11 357.855 282.06 355.965 282.06C354.005 282.06 352.829 283.166 352.829 284.888C352.829 285.14 352.857 285.392 352.927 285.672L354.187 285.798C354.117 285.448 354.075 285.154 354.075 284.902C354.075 283.838 354.761 283.152 355.895 283.152C357.015 283.152 357.673 283.824 357.673 285.014C357.673 286.176 357.253 286.988 356.021 288.178C354.775 289.368 353.515 290.376 352.717 290.964V292ZM367.73 292.168C369.704 292.168 370.992 290.782 370.992 288.5C370.992 286.218 369.704 284.832 367.73 284.832C365.756 284.832 364.468 286.218 364.468 288.5C364.468 290.782 365.756 292.168 367.73 292.168ZM367.73 291.132C366.47 291.132 365.728 290.236 365.728 288.5C365.728 286.764 366.47 285.868 367.73 285.868C368.99 285.868 369.732 286.764 369.732 288.5C369.732 290.236 368.99 291.132 367.73 291.132ZM372.027 285.98H373.329V289.9C373.329 291.202 373.721 292.126 375.233 292.126C375.681 292.126 375.961 292.084 376.269 292V290.908C376.031 290.964 375.849 291.006 375.541 291.006C374.827 291.006 374.519 290.656 374.519 289.858V285.98H376.269V285H374.519V282.662L373.329 283.166V285H372.027V285.98ZM378.283 292H379.473V288.346C379.473 286.764 380.159 285.854 381.363 285.854C382.371 285.854 382.889 286.498 382.889 287.73V292H384.079V287.646C384.079 285.798 383.281 284.832 381.769 284.832C380.677 284.832 379.893 285.336 379.473 286.316V281.85H378.283V292ZM392.118 288.01C392.118 285.91 391.026 284.832 389.136 284.832C387.134 284.832 385.958 286.246 385.958 288.584C385.958 290.894 387.148 292.168 389.15 292.168C390.564 292.168 391.586 291.496 392.076 290.222L391.096 289.788C390.788 290.642 390.13 291.118 389.234 291.118C387.988 291.118 387.162 290.222 387.148 288.85H392.118V288.01ZM390.914 287.884H387.148C387.176 286.568 387.876 285.77 389.108 285.77C390.256 285.77 390.914 286.442 390.914 287.73V287.884ZM395.387 286.596V285H394.281V292H395.471V289.004C395.471 288.164 395.499 287.226 396.171 286.554C396.507 286.218 396.983 286.008 397.711 286.008H397.767V284.846C397.683 284.832 397.599 284.832 397.515 284.832C396.451 284.832 395.723 285.616 395.387 286.596ZM404.608 281.85H403.418V292H404.608V281.85ZM410.036 292.168C412.01 292.168 413.298 290.782 413.298 288.5C413.298 286.218 412.01 284.832 410.036 284.832C408.062 284.832 406.774 286.218 406.774 288.5C406.774 290.782 408.062 292.168 410.036 292.168ZM410.036 291.132C408.776 291.132 408.034 290.236 408.034 288.5C408.034 286.764 408.776 285.868 410.036 285.868C411.296 285.868 412.038 286.764 412.038 288.5C412.038 290.236 411.296 291.132 410.036 291.132ZM417.973 292.168C419.541 292.168 420.591 291.244 420.843 289.648L419.709 289.466C419.527 290.558 418.939 291.132 417.987 291.132C416.741 291.132 416.013 290.166 416.013 288.486C416.013 286.848 416.741 285.868 417.945 285.868C418.897 285.868 419.513 286.456 419.639 287.52L420.857 287.38C420.675 285.77 419.611 284.832 417.973 284.832C415.985 284.832 414.753 286.218 414.753 288.5C414.753 290.74 416.013 292.168 417.973 292.168ZM424.688 292.168C425.836 292.168 426.718 291.622 427.04 290.726C427.054 291.174 427.096 291.636 427.152 292H428.398C428.23 291.454 428.16 290.712 428.16 289.634V287.744C428.16 285.7 427.32 284.832 425.402 284.832C423.764 284.832 422.644 285.77 422.546 287.198H423.82C423.876 286.316 424.464 285.812 425.416 285.812C426.494 285.812 426.956 286.33 426.956 287.618V287.73L425.654 287.884C424.506 288.024 423.834 288.192 423.302 288.458C422.672 288.808 422.322 289.41 422.322 290.11C422.322 291.356 423.26 292.168 424.688 292.168ZM424.954 291.188C424.1 291.188 423.582 290.768 423.582 290.082C423.582 289.396 424.03 289.032 425.066 288.878L426.97 288.598V288.948C426.97 290.306 426.172 291.188 424.954 291.188ZM429.649 285.98H430.951V289.9C430.951 291.202 431.343 292.126 432.855 292.126C433.303 292.126 433.583 292.084 433.891 292V290.908C433.653 290.964 433.471 291.006 433.163 291.006C432.449 291.006 432.141 290.656 432.141 289.858V285.98H433.891V285H432.141V282.662L430.951 283.166V285H429.649V285.98ZM435.751 283.698H437.109V282.2H435.751V283.698ZM435.835 292H437.025V285H435.835V292ZM442.372 292.168C444.346 292.168 445.634 290.782 445.634 288.5C445.634 286.218 444.346 284.832 442.372 284.832C440.398 284.832 439.11 286.218 439.11 288.5C439.11 290.782 440.398 292.168 442.372 292.168ZM442.372 291.132C441.112 291.132 440.37 290.236 440.37 288.5C440.37 286.764 441.112 285.868 442.372 285.868C443.632 285.868 444.374 286.764 444.374 288.5C444.374 290.236 443.632 291.132 442.372 291.132ZM447.719 292H448.909V288.346C448.909 286.792 449.623 285.854 450.785 285.854C451.807 285.854 452.325 286.484 452.325 287.716V292H453.515V287.646C453.515 285.784 452.717 284.832 451.177 284.832C450.071 284.832 449.301 285.336 448.839 286.386V285H447.719V292ZM458.407 292.168C460.115 292.168 461.081 291.286 461.081 290.026C461.081 289.004 460.521 288.36 459.261 288.122L457.903 287.87C457.217 287.744 456.825 287.464 456.825 286.876C456.825 286.19 457.371 285.798 458.267 285.798C459.219 285.798 459.765 286.288 459.919 286.988L461.095 286.722C460.955 285.546 459.891 284.832 458.323 284.832C456.671 284.832 455.663 285.728 455.663 286.932C455.663 287.996 456.335 288.668 457.525 288.892L458.897 289.144C459.527 289.256 459.905 289.508 459.905 290.124C459.905 290.726 459.387 291.188 458.449 291.188C457.427 291.188 456.769 290.684 456.601 289.802L455.397 290.012C455.635 291.398 456.755 292.168 458.407 292.168Z" fill="#0B2127"/>
<rect x="308.5" y="271.5" width="169" height="31" rx="15.5" stroke="#0B2127"/>
<path d="M310.73 339.88V336.464H315.322V335.344H310.73V332.18H315.56V331.06H309.4V341H315.658V339.88H310.73ZM318.032 334V341H319.222V336.912C319.222 335.638 319.824 334.854 320.804 334.854C321.644 334.854 322.12 335.428 322.12 336.45V341H323.31V336.856C323.31 335.582 323.884 334.854 324.878 334.854C325.76 334.854 326.208 335.414 326.208 336.506V341H327.398V336.408C327.398 334.784 326.614 333.832 325.27 333.832C324.318 333.832 323.604 334.294 323.142 335.232C322.82 334.322 322.12 333.832 321.154 333.832C320.216 333.832 319.544 334.294 319.152 335.218V334H318.032ZM329.908 343.73H331.098V339.894C331.406 340.58 332.162 341.168 333.24 341.168C334.934 341.168 336.138 339.74 336.138 337.5C336.138 335.288 335.004 333.832 333.31 333.832C332.288 333.832 331.476 334.336 331.028 335.302V334H329.908V343.73ZM332.96 340.118C331.798 340.118 331.07 339.166 331.07 337.654V337.318C331.07 335.806 331.826 334.882 333.002 334.882C334.178 334.882 334.878 335.848 334.878 337.5C334.878 339.138 334.15 340.118 332.96 340.118ZM337.179 334.98H338.481V338.9C338.481 340.202 338.873 341.126 340.385 341.126C340.833 341.126 341.113 341.084 341.421 341V339.908C341.183 339.964 341.001 340.006 340.693 340.006C339.979 340.006 339.671 339.656 339.671 338.858V334.98H341.421V334H339.671V331.662L338.481 332.166V334H337.179V334.98ZM343.666 343.8C344.842 343.8 345.682 343.212 346.326 341.448L349.056 334H347.768L346.144 338.872C346.032 339.222 345.948 339.502 345.906 339.698H345.878C345.836 339.502 345.766 339.222 345.64 338.872L343.848 334H342.518L345.304 340.916L345.122 341.434C344.8 342.344 344.366 342.722 343.526 342.722C343.372 342.722 343.204 342.722 343.022 342.694V343.744C343.246 343.786 343.456 343.8 343.666 343.8ZM360.951 331.06H353.377V332.18H356.499V341H357.829V332.18H360.951V331.06ZM362.954 335.596V334H361.848V341H363.038V338.004C363.038 337.164 363.066 336.226 363.738 335.554C364.074 335.218 364.55 335.008 365.278 335.008H365.334V333.846C365.25 333.832 365.166 333.832 365.082 333.832C364.018 333.832 363.29 334.616 362.954 335.596ZM368.746 341.168C369.894 341.168 370.776 340.622 371.098 339.726C371.112 340.174 371.154 340.636 371.21 341H372.456C372.288 340.454 372.218 339.712 372.218 338.634V336.744C372.218 334.7 371.378 333.832 369.46 333.832C367.822 333.832 366.702 334.77 366.604 336.198H367.878C367.934 335.316 368.522 334.812 369.474 334.812C370.552 334.812 371.014 335.33 371.014 336.618V336.73L369.712 336.884C368.564 337.024 367.892 337.192 367.36 337.458C366.73 337.808 366.38 338.41 366.38 339.11C366.38 340.356 367.318 341.168 368.746 341.168ZM369.012 340.188C368.158 340.188 367.64 339.768 367.64 339.082C367.64 338.396 368.088 338.032 369.124 337.878L371.028 337.598V337.948C371.028 339.306 370.23 340.188 369.012 340.188ZM374.673 332.698H376.031V331.2H374.673V332.698ZM374.757 341H375.947V334H374.757V341ZM379.922 330.85H378.732V341H379.922V330.85ZM388.248 337.01C388.248 334.91 387.156 333.832 385.266 333.832C383.264 333.832 382.088 335.246 382.088 337.584C382.088 339.894 383.278 341.168 385.28 341.168C386.694 341.168 387.716 340.496 388.206 339.222L387.226 338.788C386.918 339.642 386.26 340.118 385.364 340.118C384.118 340.118 383.292 339.222 383.278 337.85H388.248V337.01ZM387.044 336.884H383.278C383.306 335.568 384.006 334.77 385.238 334.77C386.386 334.77 387.044 335.442 387.044 336.73V336.884ZM391.516 335.596V334H390.41V341H391.6V338.004C391.6 337.164 391.628 336.226 392.3 335.554C392.636 335.218 393.112 335.008 393.84 335.008H393.896V333.846C393.812 333.832 393.728 333.832 393.644 333.832C392.58 333.832 391.852 334.616 391.516 335.596ZM405.4 341H406.898L404.35 336.688C406.016 336.31 406.59 335.092 406.59 333.972C406.59 332.516 405.904 331.06 403.3 331.06H399.618V341H400.948V336.87H402.964L405.4 341ZM400.948 332.18H403.146C404.672 332.18 405.19 332.95 405.19 333.972C405.19 334.966 404.686 335.75 403.146 335.75H400.948V332.18ZM414.245 337.01C414.245 334.91 413.153 333.832 411.263 333.832C409.261 333.832 408.085 335.246 408.085 337.584C408.085 339.894 409.275 341.168 411.277 341.168C412.691 341.168 413.713 340.496 414.203 339.222L413.223 338.788C412.915 339.642 412.257 340.118 411.361 340.118C410.115 340.118 409.289 339.222 409.275 337.85H414.245V337.01ZM413.041 336.884H409.275C409.303 335.568 410.003 334.77 411.235 334.77C412.383 334.77 413.041 335.442 413.041 336.73V336.884ZM415.357 334.98H416.659V338.9C416.659 340.202 417.051 341.126 418.563 341.126C419.011 341.126 419.291 341.084 419.599 341V339.908C419.361 339.964 419.179 340.006 418.871 340.006C418.157 340.006 417.849 339.656 417.849 338.858V334.98H419.599V334H417.849V331.662L416.659 332.166V334H415.357V334.98ZM423.727 341.168C424.707 341.168 425.575 340.538 425.897 339.684V341H427.017V334H425.827V337.766C425.827 339.194 425.071 340.146 423.951 340.146C423.027 340.146 422.523 339.502 422.523 338.326V334H421.333V338.466C421.333 340.104 421.963 341.168 423.727 341.168ZM430.847 335.596V334H429.741V341H430.931V338.004C430.931 337.164 430.959 336.226 431.631 335.554C431.967 335.218 432.443 335.008 433.171 335.008H433.227V333.846C433.143 333.832 433.059 333.832 432.975 333.832C431.911 333.832 431.183 334.616 430.847 335.596ZM434.972 341H436.162V337.346C436.162 335.792 436.876 334.854 438.038 334.854C439.06 334.854 439.578 335.484 439.578 336.716V341H440.768V336.646C440.768 334.784 439.97 333.832 438.43 333.832C437.324 333.832 436.554 334.336 436.092 335.386V334H434.972V341Z" fill="#0B2127"/>
<path d="M310.716 359H312.34L314.272 351.244C314.314 351.076 314.342 350.95 314.356 350.782H314.412C314.426 350.95 314.454 351.076 314.496 351.244L316.428 359H318.052L320.418 349.06H319.06L317.338 357.068C317.282 357.334 317.268 357.46 317.254 357.614H317.212C317.198 357.474 317.17 357.348 317.1 357.068L315.056 349.06H313.712L311.668 357.068C311.598 357.348 311.57 357.474 311.556 357.614H311.514C311.5 357.46 311.486 357.334 311.43 357.068L309.708 349.06H308.35L310.716 359ZM327.486 355.01C327.486 352.91 326.394 351.832 324.504 351.832C322.502 351.832 321.326 353.246 321.326 355.584C321.326 357.894 322.516 359.168 324.518 359.168C325.932 359.168 326.954 358.496 327.444 357.222L326.464 356.788C326.156 357.642 325.498 358.118 324.602 358.118C323.356 358.118 322.53 357.222 322.516 355.85H327.486V355.01ZM326.282 354.884H322.516C322.544 353.568 323.244 352.77 324.476 352.77C325.624 352.77 326.282 353.442 326.282 354.73V354.884ZM331.86 359.168C332.952 359.168 333.708 358.636 334.128 357.698V359H335.248V348.85H334.058V353.036C333.61 352.21 332.924 351.832 332 351.832C330.25 351.832 329.018 353.344 329.018 355.5C329.018 357.698 330.166 359.168 331.86 359.168ZM332.182 358.118C330.992 358.118 330.278 357.138 330.278 355.5C330.278 353.848 330.992 352.882 332.182 352.882C333.358 352.882 334.086 353.82 334.086 355.346V355.668C334.086 357.166 333.344 358.118 332.182 358.118ZM342.434 359H343.82V358.762C343.82 355.878 344.954 352.826 347.264 350.25V349.27H340.964V350.432H345.836C343.68 353.12 342.434 355.962 342.434 358.86V359ZM348.293 360.638L352.241 348.36H351.135L347.187 360.638H348.293ZM355.582 359H356.842V349.27H355.778C355.54 350.292 354.742 350.852 353.804 350.852H353.496V351.986H354C354.532 351.986 355.288 351.776 355.582 351.37V359ZM365.211 359H366.471V349.27H365.407C365.169 350.292 364.371 350.852 363.433 350.852H363.125V351.986H363.629C364.161 351.986 364.917 351.776 365.211 351.37V359ZM376.057 356.536V355.556H374.461V349.27H373.061L368.707 355.682V356.536H373.271V359H374.461V356.536H376.057ZM373.271 351.986V355.556H369.981C370.289 355.192 370.527 354.856 370.905 354.282L372.571 351.776C372.907 351.272 373.089 350.964 373.271 350.502H373.299C373.271 351.006 373.271 351.202 373.271 351.986ZM379.364 352H377.726V353.652H379.364V352ZM379.364 357.348H377.726V359H379.364V357.348ZM384.994 359.21C387.458 359.21 388.746 357.25 388.746 354.142C388.746 351.02 387.458 349.06 384.994 349.06C382.53 349.06 381.242 351.02 381.242 354.142C381.242 357.25 382.53 359.21 384.994 359.21ZM384.994 358.16C383.314 358.16 382.502 356.606 382.502 354.142C382.502 351.664 383.314 350.11 384.994 350.11C386.674 350.11 387.486 351.664 387.486 354.142C387.486 356.606 386.674 358.16 384.994 358.16ZM394.094 359.21C396.558 359.21 397.846 357.25 397.846 354.142C397.846 351.02 396.558 349.06 394.094 349.06C391.63 349.06 390.342 351.02 390.342 354.142C390.342 357.25 391.63 359.21 394.094 359.21ZM394.094 358.16C392.414 358.16 391.602 356.606 391.602 354.142C391.602 351.664 392.414 350.11 394.094 350.11C395.774 350.11 396.586 351.664 396.586 354.142C396.586 356.606 395.774 358.16 394.094 358.16ZM405.575 359.168C406.723 359.168 407.605 358.622 407.927 357.726C407.941 358.174 407.983 358.636 408.039 359H409.285C409.117 358.454 409.047 357.712 409.047 356.634V354.744C409.047 352.7 408.207 351.832 406.289 351.832C404.651 351.832 403.531 352.77 403.433 354.198H404.707C404.763 353.316 405.351 352.812 406.303 352.812C407.381 352.812 407.843 353.33 407.843 354.618V354.73L406.541 354.884C405.393 355.024 404.721 355.192 404.189 355.458C403.559 355.808 403.209 356.41 403.209 357.11C403.209 358.356 404.147 359.168 405.575 359.168ZM405.841 358.188C404.987 358.188 404.469 357.768 404.469 357.082C404.469 356.396 404.917 356.032 405.953 355.878L407.857 355.598V355.948C407.857 357.306 407.059 358.188 405.841 358.188ZM411.586 361.73H412.776V357.894C413.084 358.58 413.84 359.168 414.918 359.168C416.612 359.168 417.816 357.74 417.816 355.5C417.816 353.288 416.682 351.832 414.988 351.832C413.966 351.832 413.154 352.336 412.706 353.302V352H411.586V361.73ZM414.638 358.118C413.476 358.118 412.748 357.166 412.748 355.654V355.318C412.748 353.806 413.504 352.882 414.68 352.882C415.856 352.882 416.556 353.848 416.556 355.5C416.556 357.138 415.828 358.118 414.638 358.118ZM419.907 361.73H421.097V357.894C421.405 358.58 422.161 359.168 423.239 359.168C424.933 359.168 426.137 357.74 426.137 355.5C426.137 353.288 425.003 351.832 423.309 351.832C422.287 351.832 421.475 352.336 421.027 353.302V352H419.907V361.73ZM422.959 358.118C421.797 358.118 421.069 357.166 421.069 355.654V355.318C421.069 353.806 421.825 352.882 423.001 352.882C424.177 352.882 424.877 353.848 424.877 355.5C424.877 357.138 424.149 358.118 422.959 358.118ZM427.178 352.98H428.48V356.9C428.48 358.202 428.872 359.126 430.384 359.126C430.832 359.126 431.112 359.084 431.42 359V357.908C431.182 357.964 431 358.006 430.692 358.006C429.978 358.006 429.67 357.656 429.67 356.858V352.98H431.42V352H429.67V349.662L428.48 350.166V352H427.178V352.98Z" fill="#304850"/>
<path d="M328.561 396.238C331.039 396.238 332.187 394.852 332.187 393.312C332.187 391.506 330.983 390.82 329.443 390.498L327.987 390.19C326.881 389.952 326.363 389.448 326.363 388.482C326.363 387.474 327.203 386.872 328.421 386.872C329.891 386.872 330.633 387.6 330.801 388.93L332.131 388.65C331.935 386.704 330.423 385.822 328.449 385.822C326.335 385.822 324.991 386.942 324.991 388.608C324.991 390.316 326.069 391.058 327.483 391.352L328.925 391.646C330.087 391.884 330.815 392.262 330.815 393.438C330.815 394.698 329.681 395.146 328.603 395.146C326.853 395.146 326.097 394.068 325.915 392.85L324.571 393.046C324.739 394.866 326.027 396.238 328.561 396.238ZM339.741 392.01C339.741 389.91 338.649 388.832 336.759 388.832C334.757 388.832 333.581 390.246 333.581 392.584C333.581 394.894 334.771 396.168 336.773 396.168C338.187 396.168 339.209 395.496 339.699 394.222L338.719 393.788C338.411 394.642 337.753 395.118 336.857 395.118C335.611 395.118 334.785 394.222 334.771 392.85H339.741V392.01ZM338.537 391.884H334.771C334.799 390.568 335.499 389.77 336.731 389.77C337.879 389.77 338.537 390.442 338.537 391.73V391.884ZM347.433 392.01C347.433 389.91 346.341 388.832 344.451 388.832C342.449 388.832 341.273 390.246 341.273 392.584C341.273 394.894 342.463 396.168 344.465 396.168C345.879 396.168 346.901 395.496 347.391 394.222L346.411 393.788C346.103 394.642 345.445 395.118 344.549 395.118C343.303 395.118 342.477 394.222 342.463 392.85H347.433V392.01ZM346.229 391.884H342.463C342.491 390.568 343.191 389.77 344.423 389.77C345.571 389.77 346.229 390.442 346.229 391.73V391.884ZM359.872 393.536V392.556H358.276V386.27H356.876L352.522 392.682V393.536H357.086V396H358.276V393.536H359.872ZM357.086 388.986V392.556H353.796C354.104 392.192 354.342 391.856 354.72 391.282L356.386 388.776C356.722 388.272 356.904 387.964 357.086 387.502H357.114C357.086 388.006 357.086 388.202 357.086 388.986ZM368.29 396.168C370.264 396.168 371.552 394.782 371.552 392.5C371.552 390.218 370.264 388.832 368.29 388.832C366.316 388.832 365.028 390.218 365.028 392.5C365.028 394.782 366.316 396.168 368.29 396.168ZM368.29 395.132C367.03 395.132 366.288 394.236 366.288 392.5C366.288 390.764 367.03 389.868 368.29 389.868C369.55 389.868 370.292 390.764 370.292 392.5C370.292 394.236 369.55 395.132 368.29 395.132ZM372.587 389.98H373.889V393.9C373.889 395.202 374.281 396.126 375.793 396.126C376.241 396.126 376.521 396.084 376.829 396V394.908C376.591 394.964 376.409 395.006 376.101 395.006C375.387 395.006 375.079 394.656 375.079 393.858V389.98H376.829V389H375.079V386.662L373.889 387.166V389H372.587V389.98ZM378.843 396H380.033V392.346C380.033 390.764 380.719 389.854 381.923 389.854C382.931 389.854 383.449 390.498 383.449 391.73V396H384.639V391.646C384.639 389.798 383.841 388.832 382.329 388.832C381.237 388.832 380.453 389.336 380.033 390.316V385.85H378.843V396ZM392.679 392.01C392.679 389.91 391.587 388.832 389.697 388.832C387.695 388.832 386.519 390.246 386.519 392.584C386.519 394.894 387.709 396.168 389.711 396.168C391.125 396.168 392.147 395.496 392.637 394.222L391.657 393.788C391.349 394.642 390.691 395.118 389.795 395.118C388.549 395.118 387.723 394.222 387.709 392.85H392.679V392.01ZM391.475 391.884H387.709C387.737 390.568 388.437 389.77 389.669 389.77C390.817 389.77 391.475 390.442 391.475 391.73V391.884ZM395.947 390.596V389H394.841V396H396.031V393.004C396.031 392.164 396.059 391.226 396.731 390.554C397.067 390.218 397.543 390.008 398.271 390.008H398.327V388.846C398.243 388.832 398.159 388.832 398.075 388.832C397.011 388.832 396.283 389.616 395.947 390.596ZM405.015 390.596V389H403.909V396H405.099V393.004C405.099 392.164 405.127 391.226 405.799 390.554C406.135 390.218 406.611 390.008 407.339 390.008H407.395V388.846C407.311 388.832 407.227 388.832 407.143 388.832C406.079 388.832 405.351 389.616 405.015 390.596ZM414.602 392.01C414.602 389.91 413.51 388.832 411.62 388.832C409.618 388.832 408.442 390.246 408.442 392.584C408.442 394.894 409.632 396.168 411.634 396.168C413.048 396.168 414.07 395.496 414.56 394.222L413.58 393.788C413.272 394.642 412.614 395.118 411.718 395.118C410.472 395.118 409.646 394.222 409.632 392.85H414.602V392.01ZM413.398 391.884H409.632C409.66 390.568 410.36 389.77 411.592 389.77C412.74 389.77 413.398 390.442 413.398 391.73V391.884ZM415.714 389.98H417.016V393.9C417.016 395.202 417.408 396.126 418.92 396.126C419.368 396.126 419.648 396.084 419.956 396V394.908C419.718 394.964 419.536 395.006 419.228 395.006C418.514 395.006 418.206 394.656 418.206 393.858V389.98H419.956V389H418.206V386.662L417.016 387.166V389H415.714V389.98ZM424.083 396.168C425.063 396.168 425.931 395.538 426.253 394.684V396H427.373V389H426.183V392.766C426.183 394.194 425.427 395.146 424.307 395.146C423.383 395.146 422.879 394.502 422.879 393.326V389H421.689V393.466C421.689 395.104 422.319 396.168 424.083 396.168ZM431.203 390.596V389H430.097V396H431.287V393.004C431.287 392.164 431.315 391.226 431.987 390.554C432.323 390.218 432.799 390.008 433.527 390.008H433.583V388.846C433.499 388.832 433.415 388.832 433.331 388.832C432.267 388.832 431.539 389.616 431.203 390.596ZM435.329 396H436.519V392.346C436.519 390.792 437.233 389.854 438.395 389.854C439.417 389.854 439.935 390.484 439.935 391.716V396H441.125V391.646C441.125 389.784 440.327 388.832 438.787 388.832C437.681 388.832 436.911 389.336 436.449 390.386V389H435.329V396ZM446.423 389.98H447.725V393.9C447.725 395.202 448.117 396.126 449.629 396.126C450.077 396.126 450.357 396.084 450.665 396V394.908C450.427 394.964 450.245 395.006 449.937 395.006C449.223 395.006 448.915 394.656 448.915 393.858V389.98H450.665V389H448.915V386.662L447.725 387.166V389H446.423V389.98ZM452.524 387.698H453.882V386.2H452.524V387.698ZM452.608 396H453.798V389H452.608V396ZM456.514 389V396H457.704V391.912C457.704 390.638 458.306 389.854 459.286 389.854C460.126 389.854 460.602 390.428 460.602 391.45V396H461.792V391.856C461.792 390.582 462.366 389.854 463.36 389.854C464.242 389.854 464.69 390.414 464.69 391.506V396H465.88V391.408C465.88 389.784 465.096 388.832 463.752 388.832C462.8 388.832 462.086 389.294 461.624 390.232C461.302 389.322 460.602 388.832 459.636 388.832C458.698 388.832 458.026 389.294 457.634 390.218V389H456.514ZM473.919 392.01C473.919 389.91 472.827 388.832 470.937 388.832C468.935 388.832 467.759 390.246 467.759 392.584C467.759 394.894 468.949 396.168 470.951 396.168C472.365 396.168 473.387 395.496 473.877 394.222L472.897 393.788C472.589 394.642 471.931 395.118 471.035 395.118C469.789 395.118 468.963 394.222 468.949 392.85H473.919V392.01ZM472.715 391.884H468.949C468.977 390.568 469.677 389.77 470.909 389.77C472.057 389.77 472.715 390.442 472.715 391.73V391.884ZM478.461 396.168C480.169 396.168 481.135 395.286 481.135 394.026C481.135 393.004 480.575 392.36 479.315 392.122L477.957 391.87C477.271 391.744 476.879 391.464 476.879 390.876C476.879 390.19 477.425 389.798 478.321 389.798C479.273 389.798 479.819 390.288 479.973 390.988L481.149 390.722C481.009 389.546 479.945 388.832 478.377 388.832C476.725 388.832 475.717 389.728 475.717 390.932C475.717 391.996 476.389 392.668 477.579 392.892L478.951 393.144C479.581 393.256 479.959 393.508 479.959 394.124C479.959 394.726 479.441 395.188 478.503 395.188C477.481 395.188 476.823 394.684 476.655 393.802L475.451 394.012C475.689 395.398 476.809 396.168 478.461 396.168Z" fill="#0B2127"/>
<rect x="308.5" y="375.5" width="189" height="31" rx="15.5" stroke="#0B2127"/>
<rect width="390" height="80" transform="translate(264 456)" fill="white"/>
<rect width="390" height="1" transform="translate(264 456)" fill="#CDD8DF"/>
<path d="M333.786 495.54C335.266 495.16 336.046 494.02 336.046 492.58C336.046 490.38 334.666 488.8 331.706 488.8H326.526V503H331.886C334.846 503 336.306 501.34 336.306 498.98C336.306 497.12 335.406 495.9 333.786 495.54ZM331.026 490.94C332.286 490.94 332.826 491.68 332.826 492.78C332.826 493.98 332.326 494.74 331.046 494.74H329.626V490.94H331.026ZM331.186 500.86H329.626V496.74H331.206C332.466 496.74 333.066 497.48 333.066 498.82C333.066 500.06 332.506 500.86 331.186 500.86ZM342.207 503.24C344.887 503.24 346.747 501.72 346.747 498C346.747 494.28 344.887 492.76 342.207 492.76C339.527 492.76 337.667 494.28 337.667 498C337.667 501.72 339.527 503.24 342.207 503.24ZM342.207 501.2C341.307 501.2 340.727 500.52 340.727 498C340.727 495.48 341.307 494.8 342.207 494.8C343.107 494.8 343.687 495.48 343.687 498C343.687 500.52 343.107 501.2 342.207 501.2ZM352.739 503.24C355.419 503.24 357.279 501.72 357.279 498C357.279 494.28 355.419 492.76 352.739 492.76C350.059 492.76 348.199 494.28 348.199 498C348.199 501.72 350.059 503.24 352.739 503.24ZM352.739 501.2C351.839 501.2 351.259 500.52 351.259 498C351.259 495.48 351.839 494.8 352.739 494.8C353.639 494.8 354.219 495.48 354.219 498C354.219 500.52 353.639 501.2 352.739 501.2ZM364.956 503H368.176L365.196 496.8L368.096 493H364.796L362.156 497.16V488.5H359.216V503H362.156V500.12L363.116 498.76L364.956 503ZM374.147 503H377.007V495.6C377.007 494.64 376.987 493.6 376.967 492.86H377.007C377.147 493.7 377.367 494.48 377.727 495.24L381.527 503H384.647V488.8H381.807V495.72C381.807 496.68 381.827 497.66 381.847 498.56H381.807C381.647 497.58 381.427 496.9 381.107 496.2L377.527 488.8H374.147V503ZM391.196 503.24C393.876 503.24 395.736 501.72 395.736 498C395.736 494.28 393.876 492.76 391.196 492.76C388.516 492.76 386.656 494.28 386.656 498C386.656 501.72 388.516 503.24 391.196 503.24ZM391.196 501.2C390.296 501.2 389.716 500.52 389.716 498C389.716 495.48 390.296 494.8 391.196 494.8C392.096 494.8 392.676 495.48 392.676 498C392.676 500.52 392.096 501.2 391.196 501.2ZM398.617 503H401.637L402.797 497.2C402.877 496.78 402.937 496.16 402.937 495.84H403.017C403.017 496.16 403.077 496.78 403.157 497.2L404.317 503H407.337L409.537 493H406.697L405.757 499.06C405.717 499.48 405.677 499.88 405.657 500.3H405.597C405.577 499.88 405.517 499.48 405.457 499.08L404.297 493H401.657L400.497 499.08C400.437 499.48 400.397 499.88 400.357 500.3H400.297C400.277 499.88 400.237 499.48 400.197 499.06L399.257 493H396.417L398.617 503Z" fill="#F65335"/>
<rect x="284.5" y="472.5" width="166" height="47" rx="23.5" stroke="#F65335"/>
<rect x="467" y="472" width="167" height="48" rx="24" fill="#F65335"/>
<path d="M517.037 488.8H511.897V503H514.997V497.74H517.057C519.957 497.74 521.657 496.1 521.657 493.22C521.657 490.46 519.957 488.8 517.037 488.8ZM516.477 495.56H514.997V490.98H516.477C517.737 490.98 518.397 491.7 518.397 493.22C518.397 494.76 517.717 495.56 516.477 495.56ZM526.228 488.5H523.288V503H526.228V488.5ZM531.139 503.24C532.559 503.24 533.659 502.52 533.959 501.44C533.959 501.92 534.019 502.52 534.099 503H536.979C536.819 502.28 536.759 501.6 536.759 500.48V496.32C536.759 493.8 535.539 492.76 532.719 492.76C530.219 492.76 528.459 493.86 528.439 496.36H531.419C531.439 495.26 531.739 494.68 532.679 494.68C533.419 494.68 533.759 495.08 533.759 496.04V496.78L531.779 497.12C530.579 497.34 529.699 497.68 529.159 498.14C528.579 498.64 528.199 499.36 528.199 500.32C528.199 502.08 529.319 503.24 531.139 503.24ZM532.359 501.28C531.659 501.28 531.279 500.8 531.279 500.06C531.279 499.2 531.759 498.74 532.699 498.54L533.839 498.3V499.68C533.839 500.66 533.239 501.28 532.359 501.28ZM542.957 503.24C545.157 503.24 546.997 501.98 547.137 499.5L544.237 498.88C544.177 500.42 543.717 501.04 542.937 501.04C541.997 501.04 541.477 500.4 541.477 498C541.477 495.56 542.017 494.92 542.917 494.92C543.677 494.92 544.157 495.44 544.217 497L547.137 496.44C546.977 494 545.277 492.76 542.977 492.76C540.217 492.76 538.477 494.38 538.477 498C538.477 501.6 540.337 503.24 542.957 503.24ZM557.201 497.32C557.201 494.48 555.681 492.76 552.921 492.76C550.261 492.76 548.501 494.4 548.501 498C548.501 501.74 550.281 503.24 553.061 503.24C555.161 503.24 556.781 502.16 557.161 500.2L554.661 499.46C554.461 500.66 553.861 501.1 553.101 501.1C552.021 501.1 551.461 500.36 551.421 498.6H557.201V497.32ZM551.421 496.96C551.461 495.1 552.021 494.52 552.881 494.52C553.781 494.52 554.241 495.04 554.241 496.96H551.421ZM570.884 495.54C572.364 495.16 573.144 494.02 573.144 492.58C573.144 490.38 571.764 488.8 568.804 488.8H563.624V503H568.984C571.944 503 573.404 501.34 573.404 498.98C573.404 497.12 572.504 495.9 570.884 495.54ZM568.124 490.94C569.384 490.94 569.924 491.68 569.924 492.78C569.924 493.98 569.424 494.74 568.144 494.74H566.724V490.94H568.124ZM568.284 500.86H566.724V496.74H568.304C569.564 496.74 570.164 497.48 570.164 498.82C570.164 500.06 569.604 500.86 568.284 500.86ZM575.247 491.58H578.287V488.74H575.247V491.58ZM575.307 503H578.207V493H575.307V503ZM583.702 503.24C584.882 503.24 585.862 502.54 586.282 501.34V503H589.142V488.5H586.142V494.4C585.762 493.32 584.862 492.76 583.682 492.76C581.582 492.76 580.202 494.42 580.202 498.06C580.202 501.58 581.542 503.24 583.702 503.24ZM584.802 501.14C583.802 501.14 583.322 500.42 583.322 498.06C583.322 495.62 583.802 494.86 584.842 494.86C585.702 494.86 586.182 495.64 586.182 496.98V499C586.182 500.38 585.702 501.14 584.802 501.14Z" fill="white"/>
</g>
</g>
<defs>
<filter id="filter0_d_241_87846" x="236" y="-332" width="446" height="906" filterUnits="userSpaceOnUse" color-interpolation-filters="sRGB">
<feFlood flood-opacity="0" result="BackgroundImageFix"/>
<feColorMatrix in="SourceAlpha" type="matrix" values="0 0 0 0 0 0 0 0 0 0 0 0 0 0 0 0 0 0 127 0" result="hardAlpha"/>
<feOffset dy="10"/>
<feGaussianBlur stdDeviation="2"/>
<feComposite in2="hardAlpha" operator="out"/>
<feColorMatrix type="matrix" values="0 0 0 0 0 0 0 0 0 0 0 0 0 0 0 0 0 0 0.25 0"/>
<feBlend mode="normal" in2="BackgroundImageFix" result="effect1_dropShadow_241_87846"/>
<feBlend mode="normal" in="SourceGraphic" in2="effect1_dropShadow_241_87846" result="shape"/>
</filter>
<clipPath id="clip0_241_87846">
<rect width="910" height="628" fill="white"/>
</clipPath>
<clipPath id="clip1_241_87846">
<rect x="264" y="-307" width="390" height="843" rx="32" fill="white"/>
</clipPath>
</defs>
</svg>
