<svg width="1640" height="1131" viewBox="0 0 1640 1131" fill="none" xmlns="http://www.w3.org/2000/svg">
<line x1="270" y1="221" x2="474" y2="221" stroke="#304850" stroke-width="8"/>
<line x1="685" y1="221" x2="889" y2="221" stroke="#304850" stroke-width="8"/>
<line x1="1098" y1="221" x2="1302" y2="221" stroke="#304850" stroke-width="8"/>
<g clip-path="url(#clip0_211_88567)">
<path d="M992.919 297.421C1033.09 297.421 1065.66 264.852 1065.66 224.676C1065.66 184.5 1033.09 151.931 992.919 151.931C952.743 151.931 920.174 184.5 920.174 224.676C920.174 264.852 952.743 297.421 992.919 297.421Z" fill="#EDF2F6"/>
<path d="M963.041 252.93H975.382V262.9C975.382 263.528 975.132 264.131 974.687 264.576C974.243 265.021 973.64 265.27 973.011 265.27H965.412C965.101 265.27 964.792 265.209 964.505 265.09C964.217 264.971 963.956 264.796 963.736 264.576C963.515 264.356 963.341 264.094 963.222 263.807C963.103 263.519 963.041 263.211 963.041 262.9V252.93Z" fill="#0B2127"/>
<path d="M973.011 266.569H965.412C964.93 266.569 964.453 266.474 964.008 266.29C963.562 266.105 963.158 265.835 962.817 265.494C962.476 265.153 962.206 264.749 962.022 264.304C961.837 263.858 961.742 263.381 961.742 262.899V252.929C961.742 252.585 961.879 252.254 962.123 252.011C962.366 251.767 962.697 251.63 963.041 251.63H975.382C975.726 251.63 976.057 251.767 976.3 252.011C976.544 252.254 976.681 252.585 976.681 252.929V262.899C976.681 263.873 976.294 264.806 975.606 265.494C974.918 266.182 973.984 266.569 973.011 266.569V266.569ZM964.34 254.228V262.899C964.34 263.184 964.453 263.456 964.654 263.657C964.855 263.858 965.128 263.971 965.412 263.971H973.011C973.295 263.971 973.568 263.858 973.769 263.657C973.97 263.456 974.083 263.184 974.083 262.899V254.228H964.34Z" fill="#0B2127"/>
<path d="M1010.46 252.93H1022.8V262.9C1022.8 263.528 1022.55 264.131 1022.1 264.576C1021.66 265.021 1021.05 265.27 1020.43 265.27H1012.83C1012.2 265.27 1011.59 265.021 1011.15 264.576C1010.71 264.131 1010.46 263.528 1010.46 262.9V252.93Z" fill="#0B2127"/>
<path d="M1020.43 266.569H1012.83C1011.85 266.569 1010.92 266.182 1010.23 265.494C1009.54 264.806 1009.16 263.873 1009.16 262.899V252.929C1009.16 252.585 1009.29 252.254 1009.54 252.011C1009.78 251.767 1010.11 251.63 1010.46 251.63H1022.8C1023.14 251.63 1023.47 251.767 1023.71 252.011C1023.96 252.254 1024.09 252.585 1024.09 252.929V262.899C1024.09 263.381 1024 263.858 1023.82 264.304C1023.63 264.749 1023.36 265.153 1023.02 265.494C1022.68 265.835 1022.27 266.105 1021.83 266.29C1021.38 266.474 1020.91 266.569 1020.43 266.569V266.569ZM1011.75 254.228V262.899C1011.75 263.184 1011.87 263.456 1012.07 263.657C1012.27 263.858 1012.54 263.971 1012.83 263.971H1020.43C1020.71 263.971 1020.98 263.858 1021.18 263.657C1021.38 263.456 1021.5 263.184 1021.5 262.899V254.228H1011.75Z" fill="#0B2127"/>
<path d="M975.7 253.579H959.144V260.724H975.7V253.579Z" fill="#0B2127"/>
<path d="M1026.69 253.579H1010.14V260.724H1026.69V253.579Z" fill="#0B2127"/>
<path d="M1026.69 246.11H959.144V255.203H1026.69V246.11Z" fill="#0B2127"/>
<path d="M987.073 255.203H984.475V259.749H987.073V255.203Z" fill="#0B2127"/>
<path d="M1001.36 255.203H998.764V259.749H1001.36V255.203Z" fill="#0B2127"/>
<path d="M1006.56 259.75H979.279V262.348H1006.56V259.75Z" fill="#0B2127"/>
<path d="M1005.35 248.747L1001.62 252.481H998.225L1001.95 248.747H1005.35Z" fill="white"/>
<path d="M996.634 248.747L992.899 252.481H989.509L993.237 248.747H996.634Z" fill="white"/>
<path d="M987.924 248.747L984.189 252.481H980.792L984.52 248.747H987.924Z" fill="white"/>
<path d="M979.207 248.747L975.473 252.481H972.082L975.811 248.747H979.207Z" fill="white"/>
<path d="M970.186 248.747L966.451 252.481H963.061L966.789 248.747H970.186Z" fill="white"/>
<path d="M1014.07 248.747L1010.33 252.481H1006.93L1010.66 248.747H1014.07Z" fill="white"/>
<path d="M1022.78 248.747L1019.04 252.481H1015.65L1019.38 248.747H1022.78Z" fill="white"/>
<path d="M1039.68 266.245H946.154V268.843H1039.68V266.245Z" fill="#0B2127"/>
<path d="M1025.39 181.809H960.443V246.759H1025.39V181.809Z" fill="white"/>
<path d="M1024.09 183.107V245.46H961.742V183.107H1024.09ZM1026.69 180.509H959.144V248.058H1026.69V180.509Z" fill="#0B2127"/>
<path d="M1046.18 181.809H1025.39V246.759H1046.18V181.809Z" fill="white"/>
<path d="M1044.88 183.107V245.46H1026.69V183.107H1044.88ZM1047.48 180.509H1024.09V248.058H1047.48V180.509Z" fill="#0B2127"/>
<path d="M960.443 181.809H939.659V246.759H960.443V181.809Z" fill="white"/>
<path d="M959.144 183.107V245.46H940.958V183.107H959.144ZM961.742 180.509H938.36V248.058H961.742V180.509Z" fill="#0B2127"/>
<path d="M961.742 228.573H953.948V231.171H961.742V228.573Z" fill="#0B2127"/>
<path d="M961.742 197.396H953.948V199.995H961.742V197.396Z" fill="#0B2127"/>
<path d="M1031.89 228.573H1024.09V231.171H1031.89V228.573Z" fill="#0B2127"/>
<path d="M1031.89 197.396H1024.09V199.995H1031.89V197.396Z" fill="#0B2127"/>
<path d="M1008.51 198.696V245.46H977.33V198.696H1008.51ZM1011.1 196.098H974.732V248.058H1011.1V196.098Z" fill="#0B2127"/>
<path d="M962.657 182.221L960.82 184.058L975.264 198.502L977.101 196.665L962.657 182.221Z" fill="#0B2127"/>
<path d="M1023.18 182.221L1008.73 196.665L1010.57 198.502L1025.01 184.058L1023.18 182.221Z" fill="#0B2127"/>
</g>
<g clip-path="url(#clip1_211_88567)">
<path d="M1461.71 197.618V197.644L1464.3 200.047L1467.91 203.385L1464.41 206.47L1464.3 206.367L1461.71 203.788L1453.14 195.273L1461.71 186.738L1464.3 184.147L1464.41 184.043L1467.94 187.122L1464.3 190.473L1461.71 192.87V192.896H1475.04V197.618H1461.71Z" fill="#F65335"/>
<path d="M1471.78 203.438L1469.67 201.489L1468.3 200.19H1477.64V198.514C1484.45 216.162 1484.13 235.768 1476.73 253.182C1469.34 270.595 1455.46 284.447 1438.04 291.804C1420.61 299.162 1401 299.447 1383.37 292.6C1365.73 285.753 1351.46 272.31 1343.56 255.12C1335.67 237.929 1334.77 218.34 1341.07 200.502C1347.36 182.663 1360.36 167.976 1377.29 159.55C1394.23 151.125 1413.78 149.622 1431.81 155.362C1449.83 161.101 1464.92 173.631 1473.86 190.298H1468.33L1469.7 188.999L1471.83 187.05L1469.65 185.147L1466.12 182.069L1464.3 180.51H1464.26L1462.58 182.205L1461.71 183.108L1449.87 190.532L1448.81 195.273L1450.3 199.469L1459.96 209.127L1460.83 209.991H1464.3L1466.12 208.439" fill="#EDF2F6"/>
<path d="M1401 247.409H1360.38V260.724H1401V247.409Z" fill="#0B2127"/>
<path d="M1461.71 192.869V192.895H1464.3V197.617H1461.71V197.643L1464.3 200.046V206.366L1461.71 203.788L1453.14 195.273L1461.71 186.738L1464.3 184.146V190.473L1461.71 192.869Z" fill="white"/>
<path d="M1464.3 210.023L1464.3 210.016V248.058H1355.19V180.509H1464.26L1462.58 182.204L1461.67 183.107L1451.31 193.434L1449.46 195.273L1451.31 197.117L1461.71 207.444L1462.58 208.308L1464.3 210.023Z" fill="white"/>
<path d="M1461.71 192.895V197.617H1464.3V192.895H1461.71ZM1461.71 197.643V203.788L1464.3 206.386V200.046L1461.71 197.643ZM1462.58 208.308L1461.71 207.444V245.46H1357.78V183.107H1461.71L1462.61 182.204L1464.3 180.509H1355.19V248.058H1464.3V210.016L1462.58 208.308ZM1461.71 186.738V192.85L1464.3 190.453V184.147L1461.71 186.738Z" fill="#0B2127"/>
<path d="M1464.3 266.245H1355.19V268.843H1464.3V266.245Z" fill="#0B2127"/>
<path d="M1446.14 255.852L1440.94 248.058H1451.33L1446.14 255.852Z" fill="#0B2127"/>
<path d="M1446.14 259.75L1440.94 267.544H1451.33L1446.14 259.75Z" fill="#0B2127"/>
<path d="M1448.09 246.759H1444.19V266.245H1448.09V246.759Z" fill="#0B2127"/>
<path d="M1429.23 255.852L1424.03 248.058H1434.43L1429.23 255.852Z" fill="#0B2127"/>
<path d="M1429.23 259.75L1424.03 267.544H1434.43L1429.23 259.75Z" fill="#0B2127"/>
<path d="M1431.18 246.759H1427.28V266.245H1431.18V246.759Z" fill="#0B2127"/>
<path d="M1428.95 249.564L1427.88 252.027L1446.25 259.949L1447.31 257.486L1428.95 249.564Z" fill="#0B2127"/>
<path d="M1446.25 249.559L1427.88 257.481L1428.94 259.944L1447.31 252.022L1446.25 249.559Z" fill="#0B2127"/>
<path d="M1430.53 180.509H1427.93V250.63H1430.53V180.509Z" fill="#0B2127"/>
<path d="M1415.05 257.151C1415.05 262.633 1412.67 266.244 1409.74 266.244C1406.82 266.244 1404.44 262.172 1404.44 257.151C1404.44 252.131 1415.05 248.058 1415.05 248.058V257.151Z" fill="#0B2127"/>
<path d="M1371.64 266.244C1369.96 266.244 1368.59 263.341 1368.59 259.749V248.058H1414.99L1414.29 258.45C1414.29 262.042 1411.46 266.244 1409.74 266.244H1371.64Z" fill="#0B2127"/>
<path d="M1371.38 266.244C1374.31 266.244 1376.68 262.173 1376.68 257.151C1376.68 252.129 1374.31 248.058 1371.38 248.058C1368.45 248.058 1366.07 252.129 1366.07 257.151C1366.07 262.173 1368.45 266.244 1371.38 266.244Z" fill="#0B2127"/>
<path d="M1371.38 262.172C1370.83 261.522 1369.98 259.795 1369.98 257.151C1369.98 254.508 1370.83 252.754 1371.38 252.13C1371.94 252.78 1372.79 254.508 1372.79 257.151C1372.79 259.795 1371.94 261.548 1371.38 262.172Z" fill="#0B2127"/>
<path d="M1373.07 261.048C1374.15 261.048 1375.02 259.304 1375.02 257.151C1375.02 254.999 1374.15 253.254 1373.07 253.254C1372 253.254 1371.13 254.999 1371.13 257.151C1371.13 259.304 1372 261.048 1373.07 261.048Z" fill="white"/>
<path d="M1381.52 261.048C1382.59 261.048 1383.47 259.304 1383.47 257.151C1383.47 254.999 1382.59 253.254 1381.52 253.254C1380.44 253.254 1379.57 254.999 1379.57 257.151C1379.57 259.304 1380.44 261.048 1381.52 261.048Z" fill="white"/>
<path d="M1475.04 197.618V192.896H1461.71L1464.3 190.499L1467.94 187.148L1464.41 184.069L1464.3 184.173L1461.71 186.771L1453.14 195.273L1461.71 203.788L1464.3 206.386L1464.41 206.49L1467.91 203.405L1464.3 200.047L1461.71 197.644L1475.04 197.618Z" fill="#F65335"/>
</g>
<g clip-path="url(#clip2_211_88567)">
<path d="M1461.71 517.687V517.713L1464.3 520.116L1467.91 523.454L1464.41 526.539L1464.3 526.435L1461.71 523.857L1453.14 515.342L1461.71 506.807L1464.3 504.216L1464.41 504.112L1467.94 507.19L1464.3 510.542L1461.71 512.939V512.965H1475.04V517.687H1461.71Z" fill="#F65335"/>
<path d="M1471.78 523.506L1469.67 521.558L1468.3 520.259H1477.64V518.583C1484.45 536.231 1484.13 555.837 1476.73 573.25C1469.34 590.663 1455.46 604.516 1438.04 611.873C1420.61 619.231 1401 619.516 1383.37 612.669C1365.73 605.821 1351.46 592.379 1343.56 575.188C1335.67 557.998 1334.77 538.409 1341.07 520.571C1347.36 502.732 1360.36 488.045 1377.29 479.619C1394.23 471.194 1413.78 469.691 1431.81 475.431C1449.83 481.17 1464.92 493.7 1473.86 510.367H1468.33L1469.7 509.068L1471.83 507.119L1469.65 505.216L1466.12 502.138L1464.3 500.579H1464.26L1462.58 502.274L1461.71 503.177L1449.87 510.601L1448.81 515.342L1450.3 519.538L1459.96 529.196L1460.83 530.06H1464.3L1466.12 528.508" fill="#EDF2F6"/>
<path d="M1401 567.478H1360.38V580.792H1401V567.478Z" fill="#0B2127"/>
<path d="M1461.71 512.938V512.964H1464.3V517.686H1461.71V517.712L1464.3 520.115V526.435L1461.71 523.856L1453.14 515.341L1461.71 506.807L1464.3 504.215V510.542L1461.71 512.938Z" fill="white"/>
<path d="M1464.3 530.092L1464.3 530.085V568.127H1355.19V500.578H1464.26L1462.58 502.273L1461.67 503.176L1451.31 513.503L1449.46 515.341L1451.31 517.186L1461.71 527.513L1462.58 528.377L1464.3 530.092Z" fill="white"/>
<path d="M1461.71 512.964V517.686H1464.3V512.964H1461.71ZM1461.71 517.712V523.856L1464.3 526.455V520.115L1461.71 517.712ZM1462.58 528.377L1461.71 527.513V565.529H1357.78V503.176H1461.71L1462.61 502.273L1464.3 500.578H1355.19V568.127H1464.3V530.085L1462.58 528.377ZM1461.71 506.807V512.919L1464.3 510.522V504.215L1461.71 506.807Z" fill="#0B2127"/>
<path d="M1464.3 586.313H1355.19V588.912H1464.3V586.313Z" fill="#0B2127"/>
<path d="M1446.14 575.921L1440.94 568.127H1451.33L1446.14 575.921Z" fill="#0B2127"/>
<path d="M1446.14 579.818L1440.94 587.612H1451.33L1446.14 579.818Z" fill="#0B2127"/>
<path d="M1448.09 566.828H1444.19V586.313H1448.09V566.828Z" fill="#0B2127"/>
<path d="M1429.23 575.921L1424.03 568.127H1434.43L1429.23 575.921Z" fill="#0B2127"/>
<path d="M1429.23 579.818L1424.03 587.612H1434.43L1429.23 579.818Z" fill="#0B2127"/>
<path d="M1431.18 566.828H1427.28V586.313H1431.18V566.828Z" fill="#0B2127"/>
<path d="M1428.95 569.633L1427.88 572.096L1446.25 580.018L1447.31 577.555L1428.95 569.633Z" fill="#0B2127"/>
<path d="M1446.25 569.627L1427.88 577.55L1428.94 580.013L1447.31 572.091L1446.25 569.627Z" fill="#0B2127"/>
<path d="M1430.53 500.578H1427.93V570.699H1430.53V500.578Z" fill="#0B2127"/>
<path d="M1415.05 577.22C1415.05 582.702 1412.67 586.313 1409.74 586.313C1406.82 586.313 1404.44 582.241 1404.44 577.22C1404.44 572.199 1415.05 568.127 1415.05 568.127V577.22Z" fill="#0B2127"/>
<path d="M1371.64 586.313C1369.96 586.313 1368.59 583.41 1368.59 579.818V568.127H1414.99L1414.29 578.519C1414.29 582.111 1411.46 586.313 1409.74 586.313H1371.64Z" fill="#0B2127"/>
<path d="M1371.38 586.313C1374.31 586.313 1376.68 582.242 1376.68 577.22C1376.68 572.198 1374.31 568.127 1371.38 568.127C1368.45 568.127 1366.07 572.198 1366.07 577.22C1366.07 582.242 1368.45 586.313 1371.38 586.313Z" fill="#0B2127"/>
<path d="M1371.38 582.241C1370.83 581.591 1369.98 579.863 1369.98 577.22C1369.98 574.576 1370.83 572.823 1371.38 572.199C1371.94 572.849 1372.79 574.576 1372.79 577.22C1372.79 579.863 1371.94 581.617 1371.38 582.241Z" fill="#0B2127"/>
<path d="M1373.07 581.117C1374.15 581.117 1375.02 579.373 1375.02 577.22C1375.02 575.068 1374.15 573.323 1373.07 573.323C1372 573.323 1371.13 575.068 1371.13 577.22C1371.13 579.373 1372 581.117 1373.07 581.117Z" fill="white"/>
<path d="M1381.52 581.117C1382.59 581.117 1383.47 579.373 1383.47 577.22C1383.47 575.068 1382.59 573.323 1381.52 573.323C1380.44 573.323 1379.57 575.068 1379.57 577.22C1379.57 579.373 1380.44 581.117 1381.52 581.117Z" fill="white"/>
<path d="M1475.04 517.687V512.965H1461.71L1464.3 510.568L1467.94 507.217L1464.41 504.138L1464.3 504.242L1461.71 506.84L1453.14 515.342L1461.71 523.857L1464.3 526.455L1464.41 526.559L1467.91 523.474L1464.3 520.116L1461.71 517.713L1475.04 517.687Z" fill="#F65335"/>
</g>
<g clip-path="url(#clip3_211_88567)">
<path d="M1461.71 837.687V837.713L1464.3 840.116L1467.91 843.454L1464.41 846.539L1464.3 846.435L1461.71 843.857L1453.14 835.342L1461.71 826.807L1464.3 824.216L1464.41 824.112L1467.94 827.19L1464.3 830.542L1461.71 832.939V832.965H1475.04V837.687H1461.71Z" fill="#F65335"/>
<path d="M1471.78 843.506L1469.67 841.558L1468.3 840.259H1477.64V838.583C1484.45 856.231 1484.13 875.837 1476.73 893.25C1469.34 910.663 1455.46 924.516 1438.04 931.873C1420.61 939.231 1401 939.516 1383.37 932.669C1365.73 925.821 1351.46 912.379 1343.56 895.188C1335.67 877.998 1334.77 858.409 1341.07 840.571C1347.36 822.732 1360.36 808.045 1377.29 799.619C1394.23 791.194 1413.78 789.691 1431.81 795.431C1449.83 801.17 1464.92 813.7 1473.86 830.367H1468.33L1469.7 829.068L1471.83 827.119L1469.65 825.216L1466.12 822.138L1464.3 820.579H1464.26L1462.58 822.274L1461.71 823.177L1449.87 830.601L1448.81 835.342L1450.3 839.538L1459.96 849.196L1460.83 850.06H1464.3L1466.12 848.508" fill="#EDF2F6"/>
<path d="M1401 887.478H1360.38V900.792H1401V887.478Z" fill="#0B2127"/>
<path d="M1461.71 832.938V832.964H1464.3V837.686H1461.71V837.712L1464.3 840.115V846.435L1461.71 843.856L1453.14 835.341L1461.71 826.807L1464.3 824.215V830.542L1461.71 832.938Z" fill="white"/>
<path d="M1464.3 850.092L1464.3 850.085V888.127H1355.19V820.578H1464.26L1462.58 822.273L1461.67 823.176L1451.31 833.503L1449.46 835.341L1451.31 837.186L1461.71 847.513L1462.58 848.377L1464.3 850.092Z" fill="white"/>
<path d="M1461.71 832.964V837.686H1464.3V832.964H1461.71ZM1461.71 837.712V843.856L1464.3 846.455V840.115L1461.71 837.712ZM1462.58 848.377L1461.71 847.513V885.529H1357.78V823.176H1461.71L1462.61 822.273L1464.3 820.578H1355.19V888.127H1464.3V850.085L1462.58 848.377ZM1461.71 826.807V832.919L1464.3 830.522V824.215L1461.71 826.807Z" fill="#0B2127"/>
<path d="M1464.3 906.313H1355.19V908.912H1464.3V906.313Z" fill="#0B2127"/>
<path d="M1446.14 895.921L1440.94 888.127H1451.33L1446.14 895.921Z" fill="#0B2127"/>
<path d="M1446.14 899.818L1440.94 907.612H1451.33L1446.14 899.818Z" fill="#0B2127"/>
<path d="M1448.09 886.828H1444.19V906.313H1448.09V886.828Z" fill="#0B2127"/>
<path d="M1429.23 895.921L1424.03 888.127H1434.43L1429.23 895.921Z" fill="#0B2127"/>
<path d="M1429.23 899.818L1424.03 907.612H1434.43L1429.23 899.818Z" fill="#0B2127"/>
<path d="M1431.18 886.828H1427.28V906.313H1431.18V886.828Z" fill="#0B2127"/>
<path d="M1428.95 889.633L1427.88 892.096L1446.25 900.018L1447.31 897.555L1428.95 889.633Z" fill="#0B2127"/>
<path d="M1446.25 889.627L1427.88 897.55L1428.94 900.013L1447.31 892.091L1446.25 889.627Z" fill="#0B2127"/>
<path d="M1430.53 820.578H1427.93V890.699H1430.53V820.578Z" fill="#0B2127"/>
<path d="M1415.05 897.22C1415.05 902.702 1412.67 906.313 1409.74 906.313C1406.82 906.313 1404.44 902.241 1404.44 897.22C1404.44 892.199 1415.05 888.127 1415.05 888.127V897.22Z" fill="#0B2127"/>
<path d="M1371.64 906.313C1369.96 906.313 1368.59 903.41 1368.59 899.818V888.127H1414.99L1414.29 898.519C1414.29 902.111 1411.46 906.313 1409.74 906.313H1371.64Z" fill="#0B2127"/>
<path d="M1371.38 906.313C1374.31 906.313 1376.68 902.242 1376.68 897.22C1376.68 892.198 1374.31 888.127 1371.38 888.127C1368.45 888.127 1366.07 892.198 1366.07 897.22C1366.07 902.242 1368.45 906.313 1371.38 906.313Z" fill="#0B2127"/>
<path d="M1371.38 902.241C1370.83 901.591 1369.98 899.863 1369.98 897.22C1369.98 894.576 1370.83 892.823 1371.38 892.199C1371.94 892.849 1372.79 894.576 1372.79 897.22C1372.79 899.863 1371.94 901.617 1371.38 902.241Z" fill="#0B2127"/>
<path d="M1373.07 901.117C1374.15 901.117 1375.02 899.373 1375.02 897.22C1375.02 895.068 1374.15 893.323 1373.07 893.323C1372 893.323 1371.13 895.068 1371.13 897.22C1371.13 899.373 1372 901.117 1373.07 901.117Z" fill="white"/>
<path d="M1381.52 901.117C1382.59 901.117 1383.47 899.373 1383.47 897.22C1383.47 895.068 1382.59 893.323 1381.52 893.323C1380.44 893.323 1379.57 895.068 1379.57 897.22C1379.57 899.373 1380.44 901.117 1381.52 901.117Z" fill="white"/>
<path d="M1475.04 837.687V832.965H1461.71L1464.3 830.568L1467.94 827.217L1464.41 824.138L1464.3 824.242L1461.71 826.84L1453.14 835.342L1461.71 843.857L1464.3 846.455L1464.41 846.559L1467.91 843.474L1464.3 840.116L1461.71 837.713L1475.04 837.687Z" fill="#F65335"/>
</g>
<path d="M505.556 95H500.839V72.3909H513.798V76.3189H505.556V82.149H513.226V86.0615H505.556V95ZM532.062 95L530.423 89.6184H522.18L520.541 95H515.376L523.355 72.2982H529.217L537.227 95H532.062ZM529.278 85.5976L527.639 80.3397C527.536 79.9892 527.397 79.5407 527.222 78.9943C527.057 78.4376 526.887 77.8757 526.711 77.3086C526.546 76.7313 526.412 76.2313 526.309 75.8086C526.206 76.2313 526.062 76.7571 525.876 77.386C525.701 78.0045 525.531 78.5922 525.366 79.1489C525.201 79.7056 525.082 80.1026 525.01 80.3397L523.386 85.5976H529.278ZM549.691 76.056C548.774 76.056 547.959 76.2364 547.248 76.5973C546.547 76.9478 545.954 77.4581 545.47 78.1283C544.995 78.7984 544.635 79.6077 544.387 80.5562C544.14 81.5047 544.016 82.5717 544.016 83.7573C544.016 85.3553 544.212 86.7214 544.604 87.8554C545.006 88.9792 545.624 89.84 546.459 90.438C547.294 91.0256 548.372 91.3195 549.691 91.3195C550.609 91.3195 551.527 91.2164 552.444 91.0102C553.372 90.804 554.377 90.5101 555.46 90.1287V94.1495C554.46 94.5618 553.475 94.8557 552.506 95.0309C551.537 95.2165 550.449 95.3093 549.243 95.3093C546.913 95.3093 544.995 94.8299 543.49 93.8711C541.995 92.902 540.887 91.5514 540.165 89.8194C539.444 88.0771 539.083 86.0461 539.083 83.7264C539.083 82.015 539.315 80.4479 539.779 79.0252C540.243 77.6025 540.923 76.3705 541.82 75.3292C542.717 74.2879 543.825 73.4838 545.145 72.9167C546.465 72.3497 547.98 72.0662 549.691 72.0662C550.815 72.0662 551.939 72.2105 553.063 72.4992C554.197 72.7776 555.279 73.1642 556.31 73.659L554.764 77.5561C553.918 77.154 553.068 76.8035 552.212 76.5045C551.356 76.2055 550.516 76.056 549.691 76.056ZM560.285 95V72.3909H565.079V95H560.285ZM570.77 95V72.3909H575.564V91.0411H584.734V95H570.77ZM588.677 95V72.3909H593.471V95H588.677ZM607.884 95H603.09V76.3808H596.951V72.3909H614.024V76.3808H607.884V95ZM624.539 81.7006L629.256 72.3909H634.421L626.921 86.2007V95H622.158V86.3554L614.658 72.3909H619.854L624.539 81.7006ZM659.335 95L657.695 89.6184H649.453L647.814 95H642.648L650.628 72.2982H656.489L664.5 95H659.335ZM656.551 85.5976L654.912 80.3397C654.809 79.9892 654.669 79.5407 654.494 78.9943C654.329 78.4376 654.159 77.8757 653.984 77.3086C653.819 76.7313 653.685 76.2313 653.582 75.8086C653.479 76.2313 653.334 76.7571 653.149 77.386C652.974 78.0045 652.803 78.5922 652.638 79.1489C652.473 79.7056 652.355 80.1026 652.283 80.3397L650.659 85.5976H656.551Z" fill="#333333"/>
<path d="M919.942 95H915.225V72.3909H928.184V76.3189H919.942V82.149H927.612V86.0615H919.942V95ZM946.448 95L944.809 89.6184H936.566L934.927 95H929.762L937.741 72.2982H943.602L951.613 95H946.448ZM943.664 85.5976L942.025 80.3397C941.922 79.9892 941.783 79.5407 941.607 78.9943C941.443 78.4376 941.272 77.8757 941.097 77.3086C940.932 76.7313 940.798 76.2313 940.695 75.8086C940.592 76.2313 940.448 76.7571 940.262 77.386C940.087 78.0045 939.917 78.5922 939.752 79.1489C939.587 79.7056 939.468 80.1026 939.396 80.3397L937.772 85.5976H943.664ZM964.077 76.056C963.16 76.056 962.345 76.2364 961.634 76.5973C960.933 76.9478 960.34 77.4581 959.856 78.1283C959.381 78.7984 959.02 79.6077 958.773 80.5562C958.526 81.5047 958.402 82.5717 958.402 83.7573C958.402 85.3553 958.598 86.7214 958.99 87.8554C959.392 88.9792 960.01 89.84 960.845 90.438C961.68 91.0256 962.758 91.3195 964.077 91.3195C964.995 91.3195 965.912 91.2164 966.83 91.0102C967.758 90.804 968.763 90.5101 969.846 90.1287V94.1495C968.846 94.5618 967.861 94.8557 966.892 95.0309C965.923 95.2165 964.835 95.3093 963.629 95.3093C961.299 95.3093 959.381 94.8299 957.876 93.8711C956.381 92.902 955.273 91.5514 954.551 89.8194C953.83 88.0771 953.469 86.0461 953.469 83.7264C953.469 82.015 953.701 80.4479 954.165 79.0252C954.629 77.6025 955.309 76.3705 956.206 75.3292C957.103 74.2879 958.211 73.4838 959.531 72.9167C960.85 72.3497 962.366 72.0662 964.077 72.0662C965.201 72.0662 966.325 72.2105 967.449 72.4992C968.583 72.7776 969.665 73.1642 970.696 73.659L969.15 77.5561C968.304 77.154 967.454 76.8035 966.598 76.5045C965.742 76.2055 964.902 76.056 964.077 76.056ZM974.671 95V72.3909H979.465V95H974.671ZM985.155 95V72.3909H989.949V91.0411H999.12V95H985.155ZM1003.06 95V72.3909H1007.86V95H1003.06ZM1022.27 95H1017.48V76.3808H1011.34V72.3909H1028.41V76.3808H1022.27V95ZM1038.93 81.7006L1043.64 72.3909H1048.81L1041.31 86.2007V95H1036.54V86.3554L1029.04 72.3909H1034.24L1038.93 81.7006ZM1059.88 72.3909H1066.92C1069.93 72.3909 1072.2 72.8136 1073.75 73.659C1075.3 74.5044 1076.07 75.989 1076.07 78.1128C1076.07 78.9685 1075.93 79.7417 1075.65 80.4325C1075.39 81.1232 1074.99 81.6902 1074.48 82.1336C1073.96 82.5769 1073.33 82.8655 1072.59 82.9996V83.1542C1073.34 83.3089 1074.02 83.5769 1074.63 83.9584C1075.24 84.3295 1075.73 84.8759 1076.09 85.5976C1076.46 86.309 1076.64 87.2575 1076.64 88.4431C1076.64 89.8142 1076.31 90.9895 1075.64 91.969C1074.97 92.9484 1074.01 93.701 1072.76 94.2268C1071.52 94.7423 1070.05 95 1068.34 95H1059.88V72.3909ZM1064.67 81.3449H1067.46C1068.85 81.3449 1069.81 81.1284 1070.35 80.6954C1070.89 80.2521 1071.15 79.6025 1071.15 78.7468C1071.15 77.8808 1070.83 77.2623 1070.19 76.8911C1069.57 76.5097 1068.57 76.3189 1067.19 76.3189H1064.67V81.3449ZM1064.67 85.1491V91.0411H1067.8C1069.24 91.0411 1070.25 90.7627 1070.81 90.206C1071.38 89.6493 1071.66 88.9018 1071.66 87.9637C1071.66 87.4069 1071.54 86.9172 1071.29 86.4945C1071.05 86.0718 1070.63 85.7419 1070.04 85.5048C1069.46 85.2677 1068.66 85.1491 1067.64 85.1491H1064.67Z" fill="#333333"/>
<path d="M1334.56 95H1329.85V72.3909H1342.8V76.3189H1334.56V82.149H1342.23V86.0615H1334.56V95ZM1361.07 95L1359.43 89.6184H1351.19L1349.55 95H1344.38L1352.36 72.2982H1358.22L1366.23 95H1361.07ZM1358.28 85.5976L1356.65 80.3397C1356.54 79.9892 1356.4 79.5407 1356.23 78.9943C1356.06 78.4376 1355.89 77.8757 1355.72 77.3086C1355.55 76.7313 1355.42 76.2313 1355.32 75.8086C1355.21 76.2313 1355.07 76.7571 1354.88 77.386C1354.71 78.0045 1354.54 78.5922 1354.37 79.1489C1354.21 79.7056 1354.09 80.1026 1354.02 80.3397L1352.39 85.5976H1358.28ZM1378.7 76.056C1377.78 76.056 1376.97 76.2364 1376.25 76.5973C1375.55 76.9478 1374.96 77.4581 1374.48 78.1283C1374 78.7984 1373.64 79.6077 1373.39 80.5562C1373.15 81.5047 1373.02 82.5717 1373.02 83.7573C1373.02 85.3553 1373.22 86.7214 1373.61 87.8554C1374.01 88.9792 1374.63 89.84 1375.47 90.438C1376.3 91.0256 1377.38 91.3195 1378.7 91.3195C1379.62 91.3195 1380.53 91.2164 1381.45 91.0102C1382.38 90.804 1383.38 90.5101 1384.47 90.1287V94.1495C1383.47 94.5618 1382.48 94.8557 1381.51 95.0309C1380.54 95.2165 1379.46 95.3093 1378.25 95.3093C1375.92 95.3093 1374 94.8299 1372.5 93.8711C1371 92.902 1369.89 91.5514 1369.17 89.8194C1368.45 88.0771 1368.09 86.0461 1368.09 83.7264C1368.09 82.015 1368.32 80.4479 1368.78 79.0252C1369.25 77.6025 1369.93 76.3705 1370.83 75.3292C1371.72 74.2879 1372.83 73.4838 1374.15 72.9167C1375.47 72.3497 1376.99 72.0662 1378.7 72.0662C1379.82 72.0662 1380.95 72.2105 1382.07 72.4992C1383.2 72.7776 1384.29 73.1642 1385.32 73.659L1383.77 77.5561C1382.92 77.154 1382.07 76.8035 1381.22 76.5045C1380.36 76.2055 1379.52 76.056 1378.7 76.056ZM1389.29 95V72.3909H1394.08V95H1389.29ZM1399.78 95V72.3909H1404.57V91.0411H1413.74V95H1399.78ZM1417.68 95V72.3909H1422.48V95H1417.68ZM1436.89 95H1432.1V76.3808H1425.96V72.3909H1443.03V76.3808H1436.89V95ZM1453.55 81.7006L1458.26 72.3909H1463.43L1455.93 86.2007V95H1451.16V86.3554L1443.66 72.3909H1448.86L1453.55 81.7006ZM1484.1 76.056C1483.19 76.056 1482.37 76.2364 1481.66 76.5973C1480.96 76.9478 1480.37 77.4581 1479.88 78.1283C1479.41 78.7984 1479.05 79.6077 1478.8 80.5562C1478.55 81.5047 1478.43 82.5717 1478.43 83.7573C1478.43 85.3553 1478.62 86.7214 1479.02 87.8554C1479.42 88.9792 1480.04 89.84 1480.87 90.438C1481.71 91.0256 1482.78 91.3195 1484.1 91.3195C1485.02 91.3195 1485.94 91.2164 1486.86 91.0102C1487.78 90.804 1488.79 90.5101 1489.87 90.1287V94.1495C1488.87 94.5618 1487.89 94.8557 1486.92 95.0309C1485.95 95.2165 1484.86 95.3093 1483.66 95.3093C1481.33 95.3093 1479.41 94.8299 1477.9 93.8711C1476.41 92.902 1475.3 91.5514 1474.58 89.8194C1473.86 88.0771 1473.49 86.0461 1473.49 83.7264C1473.49 82.015 1473.73 80.4479 1474.19 79.0252C1474.65 77.6025 1475.34 76.3705 1476.23 75.3292C1477.13 74.2879 1478.24 73.4838 1479.56 72.9167C1480.88 72.3497 1482.39 72.0662 1484.1 72.0662C1485.23 72.0662 1486.35 72.2105 1487.47 72.4992C1488.61 72.7776 1489.69 73.1642 1490.72 73.659L1489.18 77.5561C1488.33 77.154 1487.48 76.8035 1486.62 76.5045C1485.77 76.2055 1484.93 76.056 1484.1 76.056Z" fill="#333333"/>
<path d="M1332.56 415H1327.85V392.391H1340.8V396.319H1332.56V402.149H1340.23V406.062H1332.56V415ZM1359.07 415L1357.43 409.618H1349.19L1347.55 415H1342.38L1350.36 392.298H1356.22L1364.23 415H1359.07ZM1356.28 405.598L1354.65 400.34C1354.54 399.989 1354.4 399.541 1354.23 398.994C1354.06 398.438 1353.89 397.876 1353.72 397.309C1353.55 396.731 1353.42 396.231 1353.32 395.809C1353.21 396.231 1353.07 396.757 1352.88 397.386C1352.71 398.005 1352.54 398.592 1352.37 399.149C1352.21 399.706 1352.09 400.103 1352.02 400.34L1350.39 405.598H1356.28ZM1376.7 396.056C1375.78 396.056 1374.97 396.236 1374.25 396.597C1373.55 396.948 1372.96 397.458 1372.48 398.128C1372 398.798 1371.64 399.608 1371.39 400.556C1371.15 401.505 1371.02 402.572 1371.02 403.757C1371.02 405.355 1371.22 406.721 1371.61 407.855C1372.01 408.979 1372.63 409.84 1373.47 410.438C1374.3 411.026 1375.38 411.319 1376.7 411.319C1377.62 411.319 1378.53 411.216 1379.45 411.01C1380.38 410.804 1381.38 410.51 1382.47 410.129V414.149C1381.47 414.562 1380.48 414.856 1379.51 415.031C1378.54 415.217 1377.46 415.309 1376.25 415.309C1373.92 415.309 1372 414.83 1370.5 413.871C1369 412.902 1367.89 411.551 1367.17 409.819C1366.45 408.077 1366.09 406.046 1366.09 403.726C1366.09 402.015 1366.32 400.448 1366.78 399.025C1367.25 397.602 1367.93 396.37 1368.83 395.329C1369.72 394.288 1370.83 393.484 1372.15 392.917C1373.47 392.35 1374.99 392.066 1376.7 392.066C1377.82 392.066 1378.95 392.211 1380.07 392.499C1381.2 392.778 1382.29 393.164 1383.32 393.659L1381.77 397.556C1380.92 397.154 1380.07 396.803 1379.22 396.504C1378.36 396.206 1377.52 396.056 1376.7 396.056ZM1387.29 415V392.391H1392.08V415H1387.29ZM1397.78 415V392.391H1402.57V411.041H1411.74V415H1397.78ZM1415.68 415V392.391H1420.48V415H1415.68ZM1434.89 415H1430.1V396.381H1423.96V392.391H1441.03V396.381H1434.89V415ZM1451.55 401.701L1456.26 392.391H1461.43L1453.93 406.201V415H1449.16V406.355L1441.66 392.391H1446.86L1451.55 401.701ZM1491.26 403.479C1491.26 406.025 1490.77 408.154 1489.79 409.866C1488.82 411.567 1487.41 412.85 1485.57 413.716C1483.72 414.572 1481.5 415 1478.9 415H1472.5V392.391H1479.6C1481.97 392.391 1484.03 392.814 1485.77 393.659C1487.51 394.494 1488.86 395.736 1489.82 397.386C1490.78 399.025 1491.26 401.056 1491.26 403.479ZM1486.28 403.603C1486.28 401.933 1486.03 400.561 1485.54 399.489C1485.05 398.407 1484.33 397.608 1483.37 397.092C1482.42 396.577 1481.25 396.319 1479.85 396.319H1477.29V411.041H1479.35C1481.69 411.041 1483.43 410.417 1484.56 409.17C1485.71 407.922 1486.28 406.067 1486.28 403.603Z" fill="#333333"/>
<path d="M1335.56 735H1330.85V712.391H1343.8V716.319H1335.56V722.149H1343.23V726.062H1335.56V735ZM1362.07 735L1360.43 729.618H1352.19L1350.55 735H1345.38L1353.36 712.298H1359.22L1367.23 735H1362.07ZM1359.28 725.598L1357.65 720.34C1357.54 719.989 1357.4 719.541 1357.23 718.994C1357.06 718.438 1356.89 717.876 1356.72 717.309C1356.55 716.731 1356.42 716.231 1356.32 715.809C1356.21 716.231 1356.07 716.757 1355.88 717.386C1355.71 718.005 1355.54 718.592 1355.37 719.149C1355.21 719.706 1355.09 720.103 1355.02 720.34L1353.39 725.598H1359.28ZM1379.7 716.056C1378.78 716.056 1377.97 716.236 1377.25 716.597C1376.55 716.948 1375.96 717.458 1375.48 718.128C1375 718.798 1374.64 719.608 1374.39 720.556C1374.15 721.505 1374.02 722.572 1374.02 723.757C1374.02 725.355 1374.22 726.721 1374.61 727.855C1375.01 728.979 1375.63 729.84 1376.47 730.438C1377.3 731.026 1378.38 731.319 1379.7 731.319C1380.62 731.319 1381.53 731.216 1382.45 731.01C1383.38 730.804 1384.38 730.51 1385.47 730.129V734.149C1384.47 734.562 1383.48 734.856 1382.51 735.031C1381.54 735.217 1380.46 735.309 1379.25 735.309C1376.92 735.309 1375 734.83 1373.5 733.871C1372 732.902 1370.89 731.551 1370.17 729.819C1369.45 728.077 1369.09 726.046 1369.09 723.726C1369.09 722.015 1369.32 720.448 1369.78 719.025C1370.25 717.602 1370.93 716.37 1371.83 715.329C1372.72 714.288 1373.83 713.484 1375.15 712.917C1376.47 712.35 1377.99 712.066 1379.7 712.066C1380.82 712.066 1381.95 712.211 1383.07 712.499C1384.2 712.778 1385.29 713.164 1386.32 713.659L1384.77 717.556C1383.92 717.154 1383.07 716.803 1382.22 716.504C1381.36 716.206 1380.52 716.056 1379.7 716.056ZM1390.29 735V712.391H1395.08V735H1390.29ZM1400.78 735V712.391H1405.57V731.041H1414.74V735H1400.78ZM1418.68 735V712.391H1423.48V735H1418.68ZM1437.89 735H1433.1V716.381H1426.96V712.391H1444.03V716.381H1437.89V735ZM1454.55 721.701L1459.26 712.391H1464.43L1456.93 726.201V735H1452.16V726.355L1444.66 712.391H1449.86L1454.55 721.701ZM1488.52 735H1475.5V712.391H1488.52V716.319H1480.29V721.283H1487.95V725.211H1480.29V731.041H1488.52V735Z" fill="#333333"/>
<g clip-path="url(#clip4_211_88567)">
<path d="M166.745 297.49C206.921 297.49 239.49 264.921 239.49 224.745C239.49 184.569 206.921 152 166.745 152C126.569 152 94 184.569 94 224.745C94 264.921 126.569 297.49 166.745 297.49Z" fill="#EDF2F6"/>
<path d="M221.304 242.931C221.287 244.824 220.858 246.692 220.047 248.403C219.236 250.115 218.062 251.629 216.608 252.842C216.004 257.629 214.113 261.117 211.886 261.117H205.066C203.254 261.117 201.662 258.779 200.773 255.271H169.875C168.979 258.779 167.388 261.117 165.582 261.117H157.45C155.638 261.117 154.053 258.779 153.157 255.271H140.55C139.94 258.707 138.543 261.117 136.913 261.117H121.552C119.604 261.117 118.045 257.83 117.733 253.511C114.395 251.225 112.186 246.828 112.186 242.281H135.568V189.021C135.554 188.608 135.621 188.196 135.766 187.809C135.911 187.422 136.131 187.068 136.413 186.766C136.696 186.464 137.035 186.221 137.412 186.051C137.788 185.881 138.195 185.787 138.608 185.774H180.339C182.463 185.774 184.782 189.184 188.341 194.867L195.44 206.207C195.636 206.515 195.779 206.853 195.862 207.208L198.818 219.152C205.546 220.451 210.911 225.361 210.911 225.706V231.084C215.581 232.227 217.406 234.909 217.406 235.137V242.931H221.304Z" fill="#0B2127"/>
<path d="M187.139 237.735H202.857C203.062 237.735 203.265 237.775 203.454 237.854C203.643 237.932 203.815 238.047 203.96 238.191C204.104 238.336 204.219 238.508 204.298 238.697C204.376 238.886 204.416 239.089 204.416 239.294V239.683H185.581V239.294C185.581 239.089 185.621 238.886 185.699 238.697C185.778 238.508 185.892 238.336 186.037 238.191C186.182 238.047 186.354 237.932 186.543 237.854C186.732 237.775 186.935 237.735 187.139 237.735Z" fill="white"/>
<path d="M187.139 233.838H202.857C203.062 233.838 203.265 233.878 203.454 233.957C203.643 234.035 203.815 234.15 203.96 234.294C204.104 234.439 204.219 234.611 204.298 234.8C204.376 234.989 204.416 235.192 204.416 235.397V235.786H185.581V235.397C185.581 235.192 185.621 234.989 185.699 234.8C185.778 234.611 185.892 234.439 186.037 234.294C186.182 234.15 186.354 234.035 186.543 233.957C186.732 233.878 186.935 233.838 187.139 233.838V233.838Z" fill="white"/>
<path d="M187.139 229.941H202.857C203.062 229.941 203.265 229.981 203.454 230.06C203.643 230.138 203.815 230.253 203.96 230.397C204.104 230.542 204.219 230.714 204.298 230.903C204.376 231.092 204.416 231.295 204.416 231.5V231.889H185.581V231.5C185.581 231.295 185.621 231.092 185.699 230.903C185.778 230.714 185.892 230.542 186.037 230.397C186.182 230.253 186.354 230.138 186.543 230.06C186.732 229.981 186.935 229.941 187.139 229.941V229.941Z" fill="white"/>
<path d="M192.959 208.325L164.965 207.676C164.851 207.679 164.738 207.705 164.634 207.753C164.531 207.801 164.438 207.87 164.361 207.955C164.284 208.04 164.226 208.14 164.189 208.248C164.152 208.356 164.138 208.471 164.147 208.585L164.108 217.996C164.095 218.223 164.173 218.445 164.324 218.614C164.475 218.783 164.687 218.886 164.913 218.899H195.057C195.188 218.889 195.315 218.85 195.429 218.784C195.543 218.719 195.641 218.628 195.716 218.52C195.791 218.412 195.84 218.288 195.861 218.158C195.882 218.028 195.873 217.895 195.836 217.769L193.719 208.988C193.683 208.809 193.589 208.647 193.452 208.527C193.314 208.407 193.141 208.336 192.959 208.325V208.325Z" fill="white"/>
<path d="M154.066 208.332L161.153 207.956C161.402 207.93 161.651 208.004 161.847 208.16C162.043 208.317 162.169 208.545 162.198 208.794L162.25 217.64C162.224 217.887 162.102 218.114 161.91 218.272C161.718 218.43 161.472 218.506 161.224 218.484L154.079 216.906C153.43 216.906 152.917 216.38 153.092 215.841V209.157C153.091 209.027 153.123 208.899 153.185 208.786C153.248 208.672 153.339 208.576 153.449 208.508C153.634 208.391 153.848 208.33 154.066 208.332Z" fill="white"/>
<path d="M188.302 215.002C187.276 214.999 186.262 215.231 185.34 215.682C184.418 216.132 183.611 216.789 182.983 217.6H185.996C186.699 217.204 187.492 216.996 188.299 216.996C189.105 216.996 189.899 217.204 190.601 217.6H193.615C192.986 216.79 192.181 216.135 191.26 215.685C190.339 215.234 189.327 215.001 188.302 215.002V215.002Z" fill="#0B2127"/>
<path d="M158.951 255.921C160.386 255.921 161.549 253.013 161.549 249.426C161.549 245.839 160.386 242.931 158.951 242.931C157.516 242.931 156.353 245.839 156.353 249.426C156.353 253.013 157.516 255.921 158.951 255.921Z" fill="white"/>
<path d="M170.856 243.138H169.557C169.526 241.245 168.745 239.441 167.385 238.123C166.024 236.805 164.196 236.081 162.302 236.111H147.909V234.812H162.302C164.541 234.782 166.699 235.643 168.303 237.204C169.907 238.766 170.825 240.9 170.856 243.138V243.138Z" fill="white"/>
<path d="M208.963 251.375H184.282V250.076H208.963C211.606 250.076 213.763 248.251 213.763 246.004H215.062C215.036 248.966 212.295 251.375 208.963 251.375Z" fill="white"/>
<path d="M178.761 242.931C180.734 242.931 182.333 241.332 182.333 239.359C182.333 237.386 180.734 235.787 178.761 235.787C176.788 235.787 175.188 237.386 175.188 239.359C175.188 241.332 176.788 242.931 178.761 242.931Z" fill="white"/>
<path d="M211.236 242.931C213.209 242.931 214.808 241.332 214.808 239.359C214.808 237.386 213.209 235.787 211.236 235.787C209.263 235.787 207.664 237.386 207.664 239.359C207.664 241.332 209.263 242.931 211.236 242.931Z" fill="white"/>
<path d="M221.304 261.117H112.186V263.715H221.304V261.117Z" fill="#0B2127"/>
<path d="M123.877 257.869C124.953 257.869 125.826 256.125 125.826 253.972C125.826 251.82 124.953 250.075 123.877 250.075C122.801 250.075 121.929 251.82 121.929 253.972C121.929 256.125 122.801 257.869 123.877 257.869Z" fill="white"/>
<path d="M131.022 257.869C132.098 257.869 132.97 256.125 132.97 253.972C132.97 251.82 132.098 250.075 131.022 250.075C129.946 250.075 129.073 251.82 129.073 253.972C129.073 256.125 129.946 257.869 131.022 257.869Z" fill="white"/>
</g>
<g clip-path="url(#clip5_211_88567)">
<path d="M578.533 297.421C618.709 297.421 651.278 264.852 651.278 224.676C651.278 184.5 618.709 151.931 578.533 151.931C538.357 151.931 505.788 184.5 505.788 224.676C505.788 264.852 538.357 297.421 578.533 297.421Z" fill="#EDF2F6"/>
<path d="M568.193 247.409H527.572V260.724H568.193V247.409Z" fill="#0B2127"/>
<path d="M614.606 181.808H523.675V246.759H614.606V181.808Z" fill="white"/>
<path d="M613.307 183.108V245.461H524.974V183.108H613.307ZM615.905 180.51H522.376V248.059H615.905V180.51Z" fill="#0B2127"/>
<path d="M631.494 266.245H522.376V268.843H631.494V266.245Z" fill="#0B2127"/>
<path d="M604.617 255.852L599.421 248.058H609.813L604.617 255.852Z" fill="#0B2127"/>
<path d="M604.617 259.75L599.421 267.544H609.813L604.617 259.75Z" fill="#0B2127"/>
<path d="M606.565 246.759H602.668V266.245H606.565V246.759Z" fill="#0B2127"/>
<path d="M587.71 255.852L582.514 248.058H592.906L587.71 255.852Z" fill="#0B2127"/>
<path d="M587.71 259.75L582.514 267.544H592.906L587.71 259.75Z" fill="#0B2127"/>
<path d="M589.659 246.759H585.762V266.245H589.659V246.759Z" fill="#0B2127"/>
<path d="M587.42 249.571L586.358 252.034L604.727 259.957L605.789 257.493L587.42 249.571Z" fill="#0B2127"/>
<path d="M604.73 249.555L586.361 257.478L587.423 259.941L605.793 252.018L604.73 249.555Z" fill="#0B2127"/>
<path d="M589.185 180.51H586.587V246.76H589.185V180.51Z" fill="#0B2127"/>
<path d="M578.338 257.151C578.338 262.633 575.967 266.244 573.038 266.244C570.109 266.244 567.731 262.172 567.731 257.151C567.731 252.131 578.338 248.058 578.338 248.058V257.151Z" fill="#0B2127"/>
<path d="M538.828 266.244C537.146 266.244 535.782 263.341 535.782 259.749V248.058H578.286L577.558 258.45C577.558 262.042 574.72 266.244 573.012 266.244H538.828Z" fill="#0B2127"/>
<path d="M538.568 266.244C541.499 266.244 543.875 262.173 543.875 257.151C543.875 252.129 541.499 248.058 538.568 248.058C535.638 248.058 533.262 252.129 533.262 257.151C533.262 262.173 535.638 266.244 538.568 266.244Z" fill="#0B2127"/>
<path d="M538.568 262.172C538.016 261.522 537.166 259.795 537.166 257.151C537.166 254.508 538.016 252.754 538.568 252.13C539.127 252.78 539.978 254.508 539.978 257.151C539.978 259.795 539.127 261.548 538.568 262.172Z" fill="#0B2127"/>
<path d="M540.264 261.048C541.34 261.048 542.212 259.304 542.212 257.151C542.212 254.999 541.34 253.254 540.264 253.254C539.188 253.254 538.315 254.999 538.315 257.151C538.315 259.304 539.188 261.048 540.264 261.048Z" fill="white"/>
<path d="M548.707 261.048C549.783 261.048 550.656 259.304 550.656 257.151C550.656 254.999 549.783 253.254 548.707 253.254C547.631 253.254 546.759 254.999 546.759 257.151C546.759 259.304 547.631 261.048 548.707 261.048Z" fill="white"/>
<path d="M624.239 228.463L620.562 224.786L627.817 217.531L620.562 210.276L624.239 206.6L635.163 217.531L624.239 228.463Z" fill="#0B2127"/>
<path d="M631.494 214.933H597.719V220.129H631.494V214.933Z" fill="#0B2127"/>
<path d="M604.974 228.463L594.043 217.531L604.974 206.6L608.65 210.276L601.389 217.531L608.65 224.786L604.974 228.463Z" fill="#0B2127"/>
<path d="M567.517 202.593H544.135V225.975H567.517V202.593Z" fill="#F65335"/>
<path d="M561.645 218.181L561.684 221.474C561.684 221.474 557.645 221.805 554.287 221.805C551.39 221.805 549.954 219.908 549.954 217.804V210.62C549.954 208.477 551.383 206.606 554.274 206.606C557.716 206.606 561.645 206.86 561.645 206.86V210.387H555.228C554.254 210.387 553.877 210.867 553.877 211.614V216.882C553.857 217.062 553.879 217.244 553.941 217.414C554.002 217.584 554.102 217.738 554.233 217.864C554.364 217.989 554.521 218.083 554.694 218.138C554.866 218.193 555.049 218.208 555.228 218.181H561.645Z" fill="white"/>
</g>
<path d="M1293.6 567L1276 549.405L1258.4 567L1276 584.595L1293.6 567ZM1131 570.048L1137.04 570.048L1137.04 563.952L1131 563.952L1131 570.048ZM1149.13 570.048L1161.21 570.048L1161.21 563.952L1149.12 563.952L1149.13 570.048ZM1173.29 570.048L1185.37 570.048L1185.37 563.952L1173.29 563.952L1173.29 570.048ZM1197.46 570.048L1209.54 570.048L1209.54 563.952L1197.46 563.952L1197.46 570.048ZM1221.62 570.048L1233.71 570.048L1233.71 563.952L1221.62 563.952L1221.62 570.048ZM1245.79 570.048L1257.88 570.048L1257.88 563.952L1245.79 563.952L1245.79 570.048ZM1269.96 570.048L1276 570.048L1276 563.952L1269.96 563.952L1269.96 570.048Z" fill="#F65335"/>
<path d="M1131 853L1127.95 853L1127.95 856.048L1131 856.048L1131 853ZM1293.6 853L1276 835.405L1258.4 853L1276 870.595L1293.6 853ZM1131 265.405L1113.4 283L1131 300.595L1148.6 283L1131 265.405ZM1127.95 283L1127.95 289.196L1134.05 289.196L1134.05 283L1127.95 283ZM1127.95 301.587L1127.95 313.978L1134.05 313.978L1134.05 301.587L1127.95 301.587ZM1127.95 326.37L1127.95 338.761L1134.05 338.761L1134.05 326.37L1127.95 326.37ZM1127.95 351.152L1127.95 363.543L1134.05 363.543L1134.05 351.152L1127.95 351.152ZM1127.95 375.935L1127.95 388.326L1134.05 388.326L1134.05 375.935L1127.95 375.935ZM1127.95 400.717L1127.95 413.109L1134.05 413.109L1134.05 400.717L1127.95 400.717ZM1127.95 425.5L1127.95 437.891L1134.05 437.891L1134.05 425.5L1127.95 425.5ZM1127.95 450.283L1127.95 462.674L1134.05 462.674L1134.05 450.283L1127.95 450.283ZM1127.95 475.065L1127.95 487.456L1134.05 487.456L1134.05 475.065L1127.95 475.065ZM1127.95 499.848L1127.95 512.239L1134.05 512.239L1134.05 499.848L1127.95 499.848ZM1127.95 524.63L1127.95 537.022L1134.05 537.022L1134.05 524.63L1127.95 524.63ZM1127.95 549.413L1127.95 561.804L1134.05 561.804L1134.05 549.413L1127.95 549.413ZM1127.95 574.196L1127.95 586.587L1134.05 586.587L1134.05 574.196L1127.95 574.196ZM1127.95 598.978L1127.95 611.369L1134.05 611.369L1134.05 598.978L1127.95 598.978ZM1127.95 623.761L1127.95 636.152L1134.05 636.152L1134.05 623.761L1127.95 623.761ZM1127.95 648.543L1127.95 660.935L1134.05 660.935L1134.05 648.543L1127.95 648.543ZM1127.95 673.326L1127.95 685.717L1134.05 685.717L1134.05 673.326L1127.95 673.326ZM1127.95 698.109L1127.95 710.5L1134.05 710.5L1134.05 698.109L1127.95 698.109ZM1127.95 722.891L1127.95 735.282L1134.05 735.282L1134.05 722.891L1127.95 722.891ZM1127.95 747.674L1127.95 760.065L1134.05 760.065L1134.05 747.674L1127.95 747.674ZM1127.95 772.456L1127.95 784.848L1134.05 784.848L1134.05 772.456L1127.95 772.456ZM1127.95 797.239L1127.95 809.63L1134.05 809.63L1134.05 797.239L1127.95 797.239ZM1127.95 822.021L1127.95 834.413L1134.05 834.413L1134.05 822.021L1127.95 822.021ZM1127.95 846.804L1127.95 853L1134.05 853L1134.05 846.804L1127.95 846.804ZM1131 856.048L1137.04 856.048L1137.04 849.952L1131 849.952L1131 856.048ZM1149.12 856.048L1161.21 856.048L1161.21 849.952L1149.12 849.952L1149.12 856.048ZM1173.29 856.048L1185.37 856.048L1185.37 849.952L1173.29 849.952L1173.29 856.048ZM1197.46 856.048L1209.54 856.048L1209.54 849.952L1197.46 849.952L1197.46 856.048ZM1221.63 856.048L1233.71 856.048L1233.71 849.952L1221.63 849.952L1221.63 856.048ZM1245.79 856.048L1257.88 856.048L1257.88 849.952L1245.79 849.952L1245.79 856.048ZM1269.96 856.048L1276 856.048L1276 849.952L1269.96 849.952L1269.96 856.048Z" fill="#F65335"/>
<path d="M1113.4 283L1131 300.595L1148.6 283L1131 265.405L1113.4 283ZM1293.6 283L1276 265.405L1258.4 283L1276 300.595L1293.6 283ZM1131 286.048L1137.04 286.048L1137.04 279.952L1131 279.952L1131 286.048ZM1149.12 286.048L1161.21 286.048L1161.21 279.952L1149.12 279.952L1149.12 286.048ZM1173.29 286.048L1185.37 286.048L1185.37 279.952L1173.29 279.952L1173.29 286.048ZM1197.46 286.048L1209.54 286.048L1209.54 279.952L1197.46 279.952L1197.46 286.048ZM1221.62 286.048L1233.71 286.048L1233.71 279.952L1221.62 279.952L1221.62 286.048ZM1245.79 286.048L1257.88 286.048L1257.88 279.952L1245.79 279.952L1245.79 286.048ZM1269.96 286.048L1276 286.048L1276 279.952L1269.96 279.952L1269.96 286.048Z" fill="#F65335"/>
<path d="M459.982 356.875C462.9 356.875 465.029 357.473 466.369 358.669C467.709 359.865 468.379 361.54 468.379 363.695C468.379 364.675 468.225 365.608 467.915 366.494C467.616 367.371 467.122 368.149 466.431 368.829C465.74 369.499 464.828 370.03 463.694 370.422C462.57 370.814 461.183 371.01 459.534 371.01H457.121V379.484H453.41V356.875H459.982ZM459.735 359.953H457.121V367.917H459.147C460.312 367.917 461.302 367.783 462.116 367.515C462.931 367.237 463.549 366.798 463.972 366.2C464.395 365.602 464.606 364.814 464.606 363.834C464.606 362.525 464.209 361.551 463.415 360.912C462.632 360.272 461.405 359.953 459.735 359.953ZM472.895 379.484V356.875H476.606V379.484H472.895ZM492.21 359.705C491.128 359.705 490.158 359.901 489.303 360.293C488.457 360.685 487.741 361.252 487.153 361.994C486.566 362.726 486.117 363.618 485.808 364.669C485.498 365.711 485.344 366.886 485.344 368.195C485.344 369.948 485.591 371.458 486.086 372.726C486.581 373.984 487.334 374.953 488.344 375.634C489.354 376.304 490.633 376.639 492.179 376.639C493.138 376.639 494.071 376.546 494.978 376.361C495.885 376.175 496.824 375.922 497.793 375.603V378.758C496.875 379.118 495.947 379.381 495.009 379.546C494.071 379.711 492.988 379.794 491.762 379.794C489.452 379.794 487.535 379.314 486.009 378.355C484.493 377.397 483.359 376.046 482.607 374.304C481.864 372.561 481.493 370.52 481.493 368.18C481.493 366.468 481.73 364.901 482.205 363.479C482.679 362.056 483.37 360.829 484.277 359.798C485.184 358.757 486.303 357.958 487.633 357.401C488.973 356.834 490.504 356.551 492.226 356.551C493.36 356.551 494.473 356.679 495.566 356.937C496.669 357.185 497.69 357.54 498.628 358.004L497.329 361.066C496.545 360.695 495.726 360.375 494.87 360.107C494.014 359.839 493.128 359.705 492.21 359.705ZM519.891 379.484H515.623L508.587 369.216L506.36 371.025V379.484H502.649V356.875H506.36V367.685C506.814 367.128 507.272 366.572 507.736 366.015C508.2 365.458 508.664 364.901 509.128 364.345L515.5 356.875H519.69L511.247 366.773L519.891 379.484ZM548.856 356.875V371.505C548.856 373.082 548.521 374.495 547.851 375.742C547.191 376.989 546.191 377.979 544.851 378.711C543.511 379.433 541.825 379.794 539.794 379.794C536.897 379.794 534.691 379.036 533.175 377.52C531.67 375.995 530.918 373.969 530.918 371.443V356.875H534.629V371.118C534.629 373.005 535.072 374.397 535.959 375.294C536.846 376.19 538.17 376.639 539.933 376.639C541.15 376.639 542.14 376.428 542.903 376.005C543.676 375.572 544.243 374.943 544.604 374.118C544.975 373.283 545.16 372.278 545.16 371.103V356.875H548.856ZM561.213 356.875C564.13 356.875 566.259 357.473 567.599 358.669C568.94 359.865 569.61 361.54 569.61 363.695C569.61 364.675 569.455 365.608 569.146 366.494C568.847 367.371 568.352 368.149 567.661 368.829C566.97 369.499 566.058 370.03 564.924 370.422C563.8 370.814 562.414 371.01 560.764 371.01H558.352V379.484H554.64V356.875H561.213ZM560.965 359.953H558.352V367.917H560.377C561.542 367.917 562.532 367.783 563.347 367.515C564.161 367.237 564.78 366.798 565.202 366.2C565.625 365.602 565.836 364.814 565.836 363.834C565.836 362.525 565.439 361.551 564.646 360.912C563.862 360.272 562.635 359.953 560.965 359.953ZM582.352 379.484V356.875H586.064V376.33H595.667V379.484H582.352ZM619.653 368.149C619.653 369.891 619.431 371.479 618.988 372.912C618.555 374.335 617.9 375.562 617.024 376.593C616.147 377.613 615.049 378.402 613.73 378.959C612.41 379.515 610.864 379.794 609.091 379.794C607.286 379.794 605.719 379.515 604.389 378.959C603.07 378.402 601.972 377.608 601.095 376.577C600.229 375.546 599.58 374.314 599.147 372.881C598.714 371.448 598.497 369.86 598.497 368.118C598.497 365.788 598.879 363.757 599.642 362.025C600.415 360.283 601.585 358.932 603.152 357.973C604.73 357.004 606.719 356.52 609.121 356.52C611.472 356.52 613.426 356.999 614.982 357.958C616.539 358.917 617.704 360.267 618.477 362.01C619.261 363.742 619.653 365.788 619.653 368.149ZM602.394 368.149C602.394 369.891 602.632 371.402 603.106 372.68C603.58 373.948 604.307 374.928 605.286 375.618C606.276 376.299 607.544 376.639 609.091 376.639C610.647 376.639 611.915 376.299 612.895 375.618C613.874 374.928 614.596 373.948 615.06 372.68C615.524 371.402 615.756 369.891 615.756 368.149C615.756 365.499 615.225 363.427 614.163 361.932C613.111 360.427 611.431 359.674 609.121 359.674C607.575 359.674 606.302 360.015 605.302 360.695C604.312 361.375 603.58 362.35 603.106 363.618C602.632 364.876 602.394 366.386 602.394 368.149ZM638.519 379.484L636.308 373.206H627.663L625.452 379.484H621.539L629.952 356.783H634.066L642.463 379.484H638.519ZM635.349 370.02L633.2 363.834C633.117 363.566 632.999 363.19 632.844 362.705C632.689 362.211 632.535 361.711 632.38 361.205C632.225 360.69 632.096 360.257 631.993 359.906C631.89 360.329 631.761 360.803 631.607 361.329C631.462 361.845 631.318 362.329 631.174 362.783C631.04 363.236 630.937 363.587 630.864 363.834L628.699 370.02H635.349ZM663.804 367.963C663.804 370.51 663.33 372.639 662.381 374.35C661.433 376.051 660.056 377.335 658.252 378.201C656.448 379.057 654.273 379.484 651.726 379.484H645.447V356.875H652.406C654.747 356.875 656.767 357.298 658.469 358.143C660.17 358.978 661.484 360.221 662.412 361.87C663.34 363.51 663.804 365.541 663.804 367.963ZM659.938 368.072C659.938 366.216 659.644 364.69 659.056 363.494C658.479 362.298 657.623 361.412 656.489 360.834C655.365 360.247 653.979 359.953 652.329 359.953H649.159V376.376H651.788C654.52 376.376 656.561 375.68 657.912 374.288C659.262 372.897 659.938 370.824 659.938 368.072ZM681.48 379.484H668.675V356.875H681.48V359.999H672.387V366.139H680.908V369.247H672.387V376.345H681.48V379.484ZM704.723 367.963C704.723 370.51 704.249 372.639 703.3 374.35C702.352 376.051 700.975 377.335 699.171 378.201C697.367 379.057 695.192 379.484 692.645 379.484H686.366V356.875H693.325C695.666 356.875 697.686 357.298 699.388 358.143C701.089 358.978 702.403 360.221 703.331 361.87C704.259 363.51 704.723 365.541 704.723 367.963ZM700.857 368.072C700.857 366.216 700.563 364.69 699.975 363.494C699.398 362.298 698.542 361.412 697.408 360.834C696.284 360.247 694.898 359.953 693.248 359.953H690.078V376.376H692.707C695.439 376.376 697.48 375.68 698.831 374.288C700.181 372.897 700.857 370.824 700.857 368.072ZM527.392 422.484H523.665V403.03H517.046V399.875H533.995V403.03H527.392V422.484ZM543.815 399.875C545.764 399.875 547.372 400.112 548.64 400.587C549.918 401.061 550.867 401.783 551.485 402.752C552.114 403.721 552.429 404.953 552.429 406.448C552.429 407.561 552.222 408.51 551.81 409.293C551.398 410.077 550.856 410.726 550.186 411.242C549.516 411.757 548.8 412.17 548.037 412.479L554.455 422.484H550.264L544.805 413.422H541.171V422.484H537.459V399.875H543.815ZM543.568 402.968H541.171V410.36H543.738C545.459 410.36 546.707 410.041 547.48 409.401C548.264 408.762 548.655 407.819 548.655 406.571C548.655 405.262 548.238 404.334 547.403 403.788C546.578 403.241 545.3 402.968 543.568 402.968ZM571.697 422.484L569.486 416.206H560.841L558.63 422.484H554.717L563.13 399.783H567.244L575.641 422.484H571.697ZM568.527 413.02L566.378 406.834C566.295 406.566 566.177 406.19 566.022 405.705C565.867 405.211 565.713 404.711 565.558 404.205C565.403 403.69 565.275 403.257 565.171 402.906C565.068 403.329 564.939 403.803 564.785 404.329C564.64 404.845 564.496 405.329 564.352 405.783C564.218 406.236 564.115 406.587 564.043 406.834L561.877 413.02H568.527ZM578.626 422.484V399.875H582.337V422.484H578.626ZM588.306 422.484V399.875H592.018V419.33H601.621V422.484H588.306ZM618.338 422.484H605.534V399.875H618.338V402.999H609.245V409.139H617.766V412.247H609.245V419.345H618.338V422.484ZM629.581 399.875C631.529 399.875 633.138 400.112 634.406 400.587C635.684 401.061 636.633 401.783 637.251 402.752C637.88 403.721 638.195 404.953 638.195 406.448C638.195 407.561 637.988 408.51 637.576 409.293C637.164 410.077 636.622 410.726 635.952 411.242C635.282 411.757 634.566 412.17 633.803 412.479L640.22 422.484H636.03L630.571 413.422H626.937V422.484H623.225V399.875H629.581ZM629.334 402.968H626.937V410.36H629.504C631.225 410.36 632.473 410.041 633.246 409.401C634.03 408.762 634.421 407.819 634.421 406.571C634.421 405.262 634.004 404.334 633.169 403.788C632.344 403.241 631.066 402.968 629.334 402.968Z" fill="#4F4F4F"/>
<path d="M946.309 356.875V371.505C946.309 373.082 945.974 374.495 945.303 375.742C944.644 376.989 943.644 377.979 942.303 378.711C940.963 379.433 939.277 379.794 937.246 379.794C934.349 379.794 932.143 379.036 930.628 377.52C929.122 375.995 928.37 373.969 928.37 371.443V356.875H932.081V371.118C932.081 373.005 932.525 374.397 933.411 375.294C934.298 376.19 935.623 376.639 937.386 376.639C938.602 376.639 939.592 376.428 940.355 376.005C941.128 375.572 941.695 374.943 942.056 374.118C942.427 373.283 942.613 372.278 942.613 371.103V356.875H946.309ZM970.959 379.484H966.397L955.324 361.437H955.185C955.226 362.046 955.263 362.69 955.293 363.37C955.335 364.051 955.366 364.752 955.386 365.474C955.417 366.195 955.443 366.927 955.464 367.67V379.484H952.092V356.875H956.623L967.681 374.799H967.789C967.768 374.273 967.742 373.67 967.711 372.989C967.681 372.309 967.65 371.608 967.619 370.886C967.598 370.154 967.583 369.448 967.572 368.767V356.875H970.959V379.484ZM976.897 379.484V356.875H980.609V376.33H990.212V379.484H976.897ZM1014.2 368.149C1014.2 369.891 1013.98 371.479 1013.53 372.912C1013.1 374.335 1012.44 375.562 1011.57 376.593C1010.69 377.613 1009.59 378.402 1008.27 378.959C1006.96 379.515 1005.41 379.794 1003.64 379.794C1001.83 379.794 1000.26 379.515 998.934 378.959C997.615 378.402 996.517 377.608 995.64 376.577C994.774 375.546 994.125 374.314 993.692 372.881C993.259 371.448 993.042 369.86 993.042 368.118C993.042 365.788 993.424 363.757 994.187 362.025C994.96 360.283 996.13 358.932 997.697 357.973C999.274 357.004 1001.26 356.52 1003.67 356.52C1006.02 356.52 1007.97 356.999 1009.53 357.958C1011.08 358.917 1012.25 360.267 1013.02 362.01C1013.81 363.742 1014.2 365.788 1014.2 368.149ZM996.939 368.149C996.939 369.891 997.176 371.402 997.651 372.68C998.125 373.948 998.852 374.928 999.831 375.618C1000.82 376.299 1002.09 376.639 1003.64 376.639C1005.19 376.639 1006.46 376.299 1007.44 375.618C1008.42 374.928 1009.14 373.948 1009.6 372.68C1010.07 371.402 1010.3 369.891 1010.3 368.149C1010.3 365.499 1009.77 363.427 1008.71 361.932C1007.66 360.427 1005.98 359.674 1003.67 359.674C1002.12 359.674 1000.85 360.015 999.847 360.695C998.857 361.375 998.125 362.35 997.651 363.618C997.176 364.876 996.939 366.386 996.939 368.149ZM1033.06 379.484L1030.85 373.206H1022.21L1020 379.484H1016.08L1024.5 356.783H1028.61L1037.01 379.484H1033.06ZM1029.89 370.02L1027.74 363.834C1027.66 363.566 1027.54 363.19 1027.39 362.705C1027.23 362.211 1027.08 361.711 1026.92 361.205C1026.77 360.69 1026.64 360.257 1026.54 359.906C1026.44 360.329 1026.31 360.803 1026.15 361.329C1026.01 361.845 1025.86 362.329 1025.72 362.783C1025.58 363.236 1025.48 363.587 1025.41 363.834L1023.24 370.02H1029.89ZM1058.35 367.963C1058.35 370.51 1057.87 372.639 1056.93 374.35C1055.98 376.051 1054.6 377.335 1052.8 378.201C1050.99 379.057 1048.82 379.484 1046.27 379.484H1039.99V356.875H1046.95C1049.29 356.875 1051.31 357.298 1053.01 358.143C1054.71 358.978 1056.03 360.221 1056.96 361.87C1057.88 363.51 1058.35 365.541 1058.35 367.963ZM1054.48 368.072C1054.48 366.216 1054.19 364.69 1053.6 363.494C1053.02 362.298 1052.17 361.412 1051.03 360.834C1049.91 360.247 1048.52 359.953 1046.87 359.953H1043.7V376.376H1046.33C1049.06 376.376 1051.11 375.68 1052.46 374.288C1053.81 372.897 1054.48 370.824 1054.48 368.072ZM919.06 399.875C921.978 399.875 924.107 400.473 925.447 401.669C926.787 402.865 927.457 404.54 927.457 406.695C927.457 407.675 927.303 408.608 926.993 409.494C926.695 410.371 926.2 411.149 925.509 411.829C924.818 412.499 923.906 413.03 922.772 413.422C921.648 413.814 920.261 414.01 918.612 414.01H916.199V422.484H912.488V399.875H919.06ZM918.813 402.953H916.199V410.917H918.225C919.39 410.917 920.38 410.783 921.194 410.515C922.009 410.237 922.627 409.798 923.05 409.2C923.473 408.602 923.684 407.814 923.684 406.834C923.684 405.525 923.287 404.551 922.493 403.912C921.71 403.272 920.483 402.953 918.813 402.953ZM938.329 399.875C940.277 399.875 941.886 400.112 943.154 400.587C944.432 401.061 945.381 401.783 945.999 402.752C946.628 403.721 946.943 404.953 946.943 406.448C946.943 407.561 946.736 408.51 946.324 409.293C945.912 410.077 945.37 410.726 944.7 411.242C944.03 411.757 943.314 412.17 942.551 412.479L948.968 422.484H944.778L939.319 413.422H935.685V422.484H931.973V399.875H938.329ZM938.082 402.968H935.685V410.36H938.252C939.973 410.36 941.221 410.041 941.994 409.401C942.778 408.762 943.169 407.819 943.169 406.571C943.169 405.262 942.752 404.334 941.917 403.788C941.092 403.241 939.814 402.968 938.082 402.968ZM972.273 411.149C972.273 412.891 972.052 414.479 971.608 415.912C971.175 417.335 970.521 418.562 969.644 419.593C968.768 420.613 967.67 421.402 966.351 421.959C965.031 422.515 963.484 422.794 961.711 422.794C959.907 422.794 958.34 422.515 957.01 421.959C955.69 421.402 954.592 420.608 953.716 419.577C952.85 418.546 952.201 417.314 951.768 415.881C951.335 414.448 951.118 412.86 951.118 411.118C951.118 408.788 951.5 406.757 952.262 405.025C953.036 403.283 954.206 401.932 955.773 400.973C957.35 400.004 959.34 399.52 961.742 399.52C964.093 399.52 966.046 399.999 967.603 400.958C969.16 401.917 970.325 403.267 971.098 405.01C971.882 406.742 972.273 408.788 972.273 411.149ZM955.015 411.149C955.015 412.891 955.252 414.402 955.726 415.68C956.201 416.948 956.928 417.928 957.907 418.618C958.897 419.299 960.165 419.639 961.711 419.639C963.268 419.639 964.536 419.299 965.515 418.618C966.495 417.928 967.217 416.948 967.681 415.68C968.144 414.402 968.376 412.891 968.376 411.149C968.376 408.499 967.845 406.427 966.784 404.932C965.732 403.427 964.052 402.674 961.742 402.674C960.196 402.674 958.922 403.015 957.922 403.695C956.933 404.375 956.201 405.35 955.726 406.618C955.252 407.876 955.015 409.386 955.015 411.149ZM995.486 410.963C995.486 413.51 995.011 415.639 994.063 417.35C993.114 419.051 991.738 420.335 989.934 421.201C988.13 422.057 985.954 422.484 983.408 422.484H977.129V399.875H984.088C986.429 399.875 988.449 400.298 990.15 401.143C991.851 401.978 993.166 403.221 994.094 404.87C995.022 406.51 995.486 408.541 995.486 410.963ZM991.62 411.072C991.62 409.216 991.326 407.69 990.738 406.494C990.161 405.298 989.305 404.412 988.171 403.834C987.047 403.247 985.661 402.953 984.011 402.953H980.841V419.376H983.47C986.202 419.376 988.243 418.68 989.594 417.288C990.944 415.897 991.62 413.824 991.62 411.072ZM1018.11 399.875V414.505C1018.11 416.082 1017.78 417.495 1017.1 418.742C1016.45 419.989 1015.45 420.979 1014.1 421.711C1012.76 422.433 1011.08 422.794 1009.05 422.794C1006.15 422.794 1003.94 422.036 1002.43 420.52C1000.92 418.995 1000.17 416.969 1000.17 414.443V399.875H1003.88V414.118C1003.88 416.005 1004.33 417.397 1005.21 418.294C1006.1 419.19 1007.42 419.639 1009.19 419.639C1010.4 419.639 1011.39 419.428 1012.16 419.005C1012.93 418.572 1013.5 417.943 1013.86 417.118C1014.23 416.283 1014.41 415.278 1014.41 414.103V399.875H1018.11ZM1033.53 402.705C1032.45 402.705 1031.48 402.901 1030.62 403.293C1029.78 403.685 1029.06 404.252 1028.47 404.994C1027.88 405.726 1027.44 406.618 1027.13 407.669C1026.82 408.711 1026.66 409.886 1026.66 411.195C1026.66 412.948 1026.91 414.458 1027.4 415.726C1027.9 416.984 1028.65 417.953 1029.66 418.634C1030.67 419.304 1031.95 419.639 1033.5 419.639C1034.46 419.639 1035.39 419.546 1036.3 419.361C1037.2 419.175 1038.14 418.922 1039.11 418.603V421.758C1038.19 422.118 1037.27 422.381 1036.33 422.546C1035.39 422.711 1034.31 422.794 1033.08 422.794C1030.77 422.794 1028.85 422.314 1027.33 421.355C1025.81 420.397 1024.68 419.046 1023.92 417.304C1023.18 415.561 1022.81 413.52 1022.81 411.18C1022.81 409.468 1023.05 407.901 1023.52 406.479C1024 405.056 1024.69 403.829 1025.59 402.798C1026.5 401.757 1027.62 400.958 1028.95 400.401C1030.29 399.834 1031.82 399.551 1033.54 399.551C1034.68 399.551 1035.79 399.679 1036.88 399.937C1037.99 400.185 1039.01 400.54 1039.95 401.004L1038.65 404.066C1037.86 403.695 1037.04 403.375 1036.19 403.107C1035.33 402.839 1034.45 402.705 1033.53 402.705ZM1051.81 422.484H1048.08V403.03H1041.46V399.875H1058.41V403.03H1051.81V422.484ZM1074.93 416.33C1074.93 417.67 1074.6 418.824 1073.94 419.794C1073.29 420.763 1072.35 421.505 1071.12 422.02C1069.91 422.536 1068.45 422.794 1066.76 422.794C1065.94 422.794 1065.15 422.747 1064.4 422.654C1063.64 422.562 1062.93 422.428 1062.26 422.252C1061.6 422.067 1061 421.845 1060.45 421.587V418.092C1061.37 418.495 1062.4 418.861 1063.53 419.19C1064.66 419.51 1065.82 419.67 1066.99 419.67C1067.95 419.67 1068.75 419.546 1069.37 419.299C1070.01 419.041 1070.49 418.68 1070.8 418.216C1071.11 417.742 1071.26 417.19 1071.26 416.561C1071.26 415.891 1071.08 415.324 1070.72 414.86C1070.36 414.396 1069.81 413.974 1069.08 413.592C1068.36 413.201 1067.45 412.783 1066.36 412.34C1065.62 412.041 1064.91 411.7 1064.23 411.319C1063.56 410.938 1062.96 410.489 1062.43 409.974C1061.91 409.458 1061.49 408.85 1061.18 408.149C1060.88 407.437 1060.73 406.602 1060.73 405.644C1060.73 404.365 1061.03 403.272 1061.64 402.365C1062.26 401.458 1063.13 400.762 1064.24 400.277C1065.36 399.793 1066.67 399.551 1068.17 399.551C1069.35 399.551 1070.47 399.674 1071.51 399.922C1072.56 400.169 1073.59 400.52 1074.6 400.973L1073.43 403.958C1072.5 403.576 1071.6 403.272 1070.72 403.046C1069.85 402.819 1068.97 402.705 1068.06 402.705C1067.28 402.705 1066.61 402.824 1066.07 403.061C1065.52 403.298 1065.1 403.633 1064.81 404.066C1064.53 404.489 1064.4 404.994 1064.4 405.582C1064.4 406.242 1064.56 406.798 1064.87 407.252C1065.2 407.695 1065.71 408.102 1066.39 408.474C1067.08 408.845 1067.97 409.257 1069.05 409.711C1070.3 410.226 1071.35 410.767 1072.22 411.334C1073.1 411.902 1073.77 412.582 1074.23 413.376C1074.69 414.159 1074.93 415.144 1074.93 416.33Z" fill="#4F4F4F"/>
<rect width="353" height="53" transform="translate(915 701.363) rotate(-15)" fill="#27AE60"/>
<path d="M939.498 717.207C938.826 717.387 938.266 717.679 937.816 718.083C937.371 718.477 937.037 718.967 936.814 719.552C936.598 720.136 936.493 720.799 936.498 721.542C936.503 722.284 936.622 723.09 936.854 723.958C937.168 725.127 937.579 726.089 938.088 726.842C938.603 727.586 939.224 728.094 939.953 728.368C940.679 728.635 941.526 728.638 942.492 728.38C943.163 728.2 943.815 727.944 944.446 727.613C945.084 727.28 945.763 726.868 946.48 726.377L947.269 729.32C946.618 729.818 945.955 730.226 945.28 730.544C944.607 730.87 943.829 731.151 942.946 731.388C941.24 731.845 939.743 731.87 938.453 731.464C937.169 731.047 936.092 730.276 935.225 729.15C934.355 728.016 933.692 726.6 933.237 724.902C932.902 723.65 932.764 722.457 932.825 721.325C932.885 720.192 933.141 719.157 933.594 718.219C934.046 717.281 934.7 716.475 935.554 715.801C936.409 715.127 937.463 714.623 938.715 714.287C939.538 714.067 940.389 713.952 941.268 713.943C942.153 713.924 943.021 713.995 943.873 714.155L943.505 717.311C942.807 717.182 942.116 717.092 941.431 717.041C940.746 716.99 940.102 717.046 939.498 717.207ZM964.528 725.362L961.03 726.3L959.116 719.157L952.562 720.913L954.476 728.056L950.967 728.996L946.533 712.447L950.042 711.507L951.78 717.993L958.334 716.237L956.596 709.751L960.094 708.813L964.528 725.362ZM981.514 711.918C981.856 713.194 982.008 714.398 981.973 715.532C981.935 716.658 981.692 717.686 981.246 718.614C980.806 719.541 980.147 720.34 979.268 721.013C978.386 721.677 977.27 722.191 975.919 722.553C974.569 722.915 973.345 723.028 972.25 722.893C971.152 722.75 970.177 722.389 969.326 721.808C968.483 721.225 967.762 720.452 967.164 719.488C966.566 718.524 966.095 717.4 965.751 716.118C965.292 714.405 965.172 712.839 965.391 711.422C965.615 709.995 966.218 708.774 967.199 707.759C968.181 706.743 969.574 705.994 971.377 705.511C973.173 705.03 974.743 704.985 976.085 705.378C977.435 705.768 978.561 706.526 979.461 707.652C980.368 708.776 981.053 710.198 981.514 711.918ZM969.436 715.155C969.745 716.309 970.156 717.267 970.667 718.028C971.184 718.779 971.812 719.298 972.552 719.585C973.29 719.864 974.15 719.873 975.131 719.61C976.127 719.343 976.875 718.904 977.374 718.293C977.872 717.674 978.149 716.912 978.206 716.008C978.268 715.093 978.144 714.059 977.835 712.904C977.37 711.168 976.679 709.889 975.764 709.067C974.848 708.245 973.646 708.033 972.16 708.431C971.171 708.696 970.424 709.139 969.919 709.76C969.42 710.371 969.135 711.134 969.065 712.051C969.001 712.958 969.125 713.992 969.436 715.155ZM999.964 706.974C1000.31 708.25 1000.46 709.454 1000.42 710.588C1000.39 711.715 1000.14 712.742 999.696 713.67C999.257 714.597 998.598 715.396 997.718 716.069C996.837 716.734 995.721 717.247 994.37 717.609C993.019 717.971 991.796 718.084 990.7 717.949C989.602 717.807 988.628 717.445 987.777 716.864C986.933 716.281 986.212 715.508 985.614 714.544C985.016 713.58 984.545 712.457 984.202 711.174C983.743 709.461 983.623 707.896 983.841 706.478C984.066 705.051 984.669 703.83 985.65 702.815C986.632 701.8 988.024 701.05 989.828 700.567C991.624 700.086 993.193 700.041 994.536 700.434C995.886 700.824 997.011 701.582 997.911 702.708C998.819 703.832 999.503 705.254 999.964 706.974ZM987.887 710.211C988.196 711.365 988.606 712.323 989.117 713.084C989.634 713.835 990.263 714.354 991.003 714.641C991.741 714.92 992.6 714.929 993.581 714.666C994.578 714.399 995.325 713.96 995.825 713.349C996.322 712.73 996.599 711.969 996.656 711.064C996.719 710.149 996.595 709.115 996.286 707.96C995.821 706.225 995.13 704.946 994.214 704.123C993.298 703.301 992.097 703.089 990.61 703.488C989.622 703.752 988.875 704.195 988.37 704.816C987.871 705.427 987.586 706.191 987.516 707.107C987.452 708.014 987.575 709.049 987.887 710.211ZM1014.15 707.139C1014.42 708.12 1014.41 709.037 1014.13 709.889C1013.85 710.74 1013.3 711.485 1012.49 712.122C1011.69 712.757 1010.64 713.248 1009.35 713.596C1008.77 713.75 1008.2 713.863 1007.63 713.935C1007.07 714.005 1006.51 714.036 1005.97 714.028C1005.43 714.011 1004.9 713.953 1004.39 713.856L1003.52 710.596C1004.4 710.733 1005.3 710.827 1006.22 710.88C1007.14 710.933 1008.01 710.848 1008.84 710.626C1009.41 710.472 1009.85 710.273 1010.16 710.029C1010.48 709.783 1010.68 709.507 1010.76 709.2C1010.85 708.894 1010.85 708.571 1010.76 708.231C1010.65 707.816 1010.41 707.499 1010.06 707.279C1009.7 707.06 1009.24 706.888 1008.68 706.762C1008.13 706.635 1007.51 706.506 1006.82 706.376C1006.38 706.298 1005.91 706.191 1005.38 706.056C1004.86 705.913 1004.34 705.708 1003.84 705.44C1003.33 705.172 1002.87 704.805 1002.46 704.34C1002.06 703.865 1001.76 703.251 1001.55 702.496C1001.29 701.508 1001.29 700.602 1001.55 699.779C1001.82 698.955 1002.32 698.247 1003.06 697.653C1003.8 697.049 1004.75 696.593 1005.9 696.286C1006.76 696.055 1007.6 695.938 1008.43 695.933C1009.27 695.919 1010.17 695.987 1011.12 696.135L1010.72 699.167C1009.88 699.062 1009.13 699.007 1008.48 699.003C1007.83 698.991 1007.19 699.069 1006.57 699.237C1006.13 699.354 1005.77 699.526 1005.5 699.752C1005.23 699.971 1005.05 700.23 1004.96 700.529C1004.87 700.82 1004.87 701.132 1004.95 701.464C1005.06 701.856 1005.26 702.158 1005.56 702.369C1005.87 702.57 1006.28 702.734 1006.81 702.86C1007.34 702.983 1008 703.118 1008.79 703.264C1009.74 703.438 1010.57 703.663 1011.28 703.941C1012 704.21 1012.6 704.595 1013.09 705.096C1013.57 705.591 1013.92 706.272 1014.15 707.139ZM1027.92 708.377L1018.39 710.931L1013.95 694.382L1023.48 691.828L1024.25 694.704L1018.23 696.317L1019.2 699.951L1024.81 698.449L1025.58 701.324L1019.97 702.826L1021.12 707.093L1027.14 705.48L1027.92 708.377ZM1037.79 687.995C1039.29 687.592 1040.58 687.442 1041.65 687.543C1042.73 687.643 1043.6 687.995 1044.27 688.599C1044.94 689.204 1045.43 690.064 1045.73 691.181C1045.93 691.936 1045.97 692.635 1045.83 693.277C1045.69 693.92 1045.45 694.501 1045.08 695.018C1044.72 695.536 1044.3 695.992 1043.82 696.387L1050.62 702.293L1046.73 703.337L1041.08 698.045L1039.21 698.545L1040.91 704.896L1037.4 705.836L1032.97 689.287L1037.79 687.995ZM1038.31 690.937L1037.25 691.222L1038.45 695.693L1039.58 695.39C1040.74 695.078 1041.52 694.663 1041.91 694.145C1042.31 693.617 1042.41 692.976 1042.21 692.221C1042 691.436 1041.58 690.951 1040.95 690.764C1040.32 690.576 1039.44 690.633 1038.31 690.937ZM1062.24 699.181L1052.71 701.735L1048.27 685.186L1057.8 682.632L1058.57 685.507L1052.55 687.121L1053.53 690.755L1059.13 689.253L1059.9 692.128L1054.3 693.63L1055.44 697.897L1061.46 696.284L1062.24 699.181ZM1072.09 696.543L1068.58 697.483L1064.92 683.854L1060.43 685.058L1059.65 682.138L1072.14 678.789L1072.93 681.71L1068.43 682.914L1072.09 696.543ZM1088.16 674.498L1091.03 685.206C1091.34 686.345 1091.36 687.443 1091.1 688.499C1090.85 689.546 1090.28 690.474 1089.41 691.282C1088.54 692.089 1087.34 692.699 1085.8 693.111C1083.61 693.698 1081.79 693.586 1080.35 692.776C1078.9 691.967 1077.93 690.642 1077.44 688.8L1074.58 678.137L1078.08 677.2L1080.79 687.331C1081.16 688.697 1081.69 689.58 1082.4 689.982C1083.1 690.383 1084 690.437 1085.1 690.144C1085.87 689.938 1086.46 689.639 1086.86 689.247C1087.27 688.854 1087.52 688.351 1087.6 687.74C1087.68 687.128 1087.6 686.396 1087.37 685.543L1084.66 675.435L1088.16 674.498ZM1097.04 672.12C1098.54 671.717 1099.82 671.567 1100.89 671.668C1101.97 671.768 1102.85 672.12 1103.52 672.724C1104.19 673.329 1104.68 674.19 1104.98 675.306C1105.18 676.061 1105.21 676.76 1105.08 677.403C1104.94 678.045 1104.69 678.626 1104.33 679.143C1103.97 679.661 1103.55 680.117 1103.07 680.512L1109.87 686.418L1105.98 687.462L1100.32 682.17L1098.46 682.67L1100.16 689.021L1096.65 689.961L1092.21 673.412L1097.04 672.12ZM1097.56 675.062L1096.49 675.347L1097.69 679.818L1098.82 679.515C1099.99 679.203 1100.76 678.788 1101.16 678.27C1101.56 677.742 1101.66 677.101 1101.46 676.346C1101.25 675.561 1100.82 675.076 1100.19 674.889C1099.57 674.701 1098.69 674.758 1097.56 675.062ZM1126.63 681.926L1122.17 683.121L1111.62 672.531L1111.52 672.558C1111.69 673.071 1111.85 673.588 1112.02 674.111C1112.18 674.633 1112.35 675.155 1112.51 675.677C1112.67 676.192 1112.84 676.71 1113 677.232L1115.09 685.02L1111.95 685.86L1107.52 669.311L1111.94 668.125L1122.45 678.594L1122.53 678.573C1122.38 678.064 1122.22 677.559 1122.07 677.06C1121.91 676.56 1121.75 676.061 1121.59 675.561C1121.44 675.06 1121.29 674.558 1121.14 674.057L1119.04 666.224L1122.2 665.377L1126.63 681.926ZM1136.83 679.194L1132.4 662.645L1135.91 661.704L1139.57 675.356L1146.28 673.557L1147.05 676.455L1136.83 679.194ZM1162.74 663.359C1163.08 664.635 1163.23 665.839 1163.2 666.973C1163.16 668.099 1162.92 669.127 1162.47 670.055C1162.03 670.982 1161.37 671.781 1160.49 672.454C1159.61 673.119 1158.49 673.632 1157.14 673.994C1155.79 674.356 1154.57 674.469 1153.47 674.334C1152.38 674.192 1151.4 673.83 1150.55 673.249C1149.71 672.666 1148.99 671.893 1148.39 670.929C1147.79 669.965 1147.32 668.842 1146.98 667.559C1146.52 665.846 1146.4 664.28 1146.61 662.863C1146.84 661.436 1147.44 660.215 1148.42 659.2C1149.41 658.185 1150.8 657.435 1152.6 656.952C1154.4 656.471 1155.97 656.426 1157.31 656.819C1158.66 657.209 1159.78 657.967 1160.68 659.093C1161.59 660.217 1162.28 661.639 1162.74 663.359ZM1150.66 666.596C1150.97 667.75 1151.38 668.708 1151.89 669.469C1152.41 670.22 1153.04 670.739 1153.78 671.026C1154.51 671.305 1155.37 671.314 1156.36 671.051C1157.35 670.784 1158.1 670.345 1158.6 669.734C1159.1 669.115 1159.37 668.354 1159.43 667.449C1159.49 666.534 1159.37 665.5 1159.06 664.345C1158.59 662.609 1157.9 661.331 1156.99 660.508C1156.07 659.686 1154.87 659.474 1153.38 659.872C1152.4 660.137 1151.65 660.58 1151.14 661.201C1150.64 661.812 1150.36 662.576 1150.29 663.492C1150.23 664.399 1150.35 665.433 1150.66 666.596ZM1171.7 654.988C1171.03 655.168 1170.47 655.459 1170.02 655.863C1169.58 656.257 1169.24 656.747 1169.02 657.332C1168.81 657.916 1168.7 658.579 1168.71 659.322C1168.71 660.065 1168.83 660.87 1169.06 661.738C1169.37 662.908 1169.79 663.869 1170.3 664.622C1170.81 665.366 1171.43 665.875 1172.16 666.149C1172.89 666.415 1173.73 666.419 1174.7 666.16C1175.37 665.98 1176.02 665.725 1176.65 665.394C1177.29 665.061 1177.97 664.649 1178.69 664.157L1179.48 667.1C1178.82 667.598 1178.16 668.006 1177.49 668.325C1176.81 668.651 1176.04 668.932 1175.15 669.168C1173.45 669.625 1171.95 669.651 1170.66 669.244C1169.38 668.828 1168.3 668.057 1167.43 666.93C1166.56 665.797 1165.9 664.381 1165.44 662.683C1165.11 661.43 1164.97 660.238 1165.03 659.105C1165.09 657.973 1165.35 656.938 1165.8 655.999C1166.25 655.061 1166.91 654.255 1167.76 653.582C1168.62 652.908 1169.67 652.403 1170.92 652.067C1171.75 651.847 1172.6 651.732 1173.48 651.723C1174.36 651.704 1175.23 651.775 1176.08 651.935L1175.71 655.091C1175.01 654.962 1174.32 654.873 1173.64 654.822C1172.95 654.771 1172.31 654.826 1171.7 654.988ZM1193.31 664.062L1191.05 660.444L1185.02 662.061L1184.87 666.321L1181.09 667.334L1182.48 649.152L1186.77 648.003L1197.09 663.049L1193.31 664.062ZM1189.42 657.726L1187.19 654.198C1187.05 653.962 1186.86 653.661 1186.62 653.296C1186.39 652.92 1186.16 652.542 1185.92 652.162C1185.68 651.772 1185.49 651.432 1185.33 651.143C1185.34 651.472 1185.34 651.885 1185.32 652.382C1185.32 652.869 1185.31 653.333 1185.29 653.773C1185.28 654.213 1185.27 654.526 1185.27 654.714L1185.11 658.881L1189.42 657.726ZM1205.56 660.777L1202.06 661.717L1198.4 648.089L1193.91 649.293L1193.13 646.372L1205.62 643.024L1206.41 645.944L1201.91 647.148L1205.56 660.777ZM1212.6 658.89L1208.17 642.341L1211.68 641.401L1216.11 657.95L1212.6 658.89ZM1233.08 644.512C1233.42 645.787 1233.57 646.992 1233.54 648.126C1233.5 649.252 1233.26 650.28 1232.81 651.208C1232.37 652.135 1231.71 652.934 1230.83 653.606C1229.95 654.271 1228.83 654.785 1227.48 655.147C1226.13 655.509 1224.91 655.622 1223.81 655.487C1222.72 655.344 1221.74 654.983 1220.89 654.402C1220.05 653.819 1219.32 653.046 1218.73 652.082C1218.13 651.118 1217.66 649.994 1217.31 648.711C1216.86 646.998 1216.74 645.433 1216.95 644.016C1217.18 642.589 1217.78 641.368 1218.76 640.353C1219.74 639.337 1221.14 638.588 1222.94 638.105C1224.74 637.624 1226.31 637.579 1227.65 637.972C1229 638.362 1230.12 639.12 1231.02 640.246C1231.93 641.369 1232.62 642.792 1233.08 644.512ZM1221 647.748C1221.31 648.903 1221.72 649.861 1222.23 650.621C1222.75 651.373 1223.38 651.892 1224.12 652.179C1224.85 652.458 1225.71 652.466 1226.69 652.204C1227.69 651.937 1228.44 651.498 1228.94 650.887C1229.43 650.268 1229.71 649.506 1229.77 648.601C1229.83 647.687 1229.71 646.652 1229.4 645.498C1228.93 643.762 1228.24 642.483 1227.33 641.661C1226.41 640.839 1225.21 640.627 1223.72 641.025C1222.73 641.29 1221.99 641.733 1221.48 642.353C1220.98 642.964 1220.7 643.728 1220.63 644.645C1220.56 645.552 1220.69 646.586 1221 647.748ZM1253.41 647.956L1248.95 649.151L1238.4 638.561L1238.3 638.588C1238.47 639.101 1238.63 639.618 1238.8 640.141C1238.96 640.663 1239.13 641.185 1239.29 641.707C1239.45 642.222 1239.61 642.74 1239.78 643.262L1241.87 651.05L1238.73 651.89L1234.3 635.341L1238.72 634.155L1249.23 644.624L1249.31 644.603C1249.16 644.094 1249 643.589 1248.84 643.09C1248.69 642.59 1248.53 642.091 1248.37 641.591C1248.22 641.09 1248.07 640.588 1247.92 640.087L1245.82 632.254L1248.98 631.407L1253.41 647.956Z" fill="#F2F2F2"/>
<path d="M1299.2 997.391C1301.15 997.391 1302.75 997.628 1304.02 998.102C1305.3 998.577 1306.25 999.298 1306.87 1000.27C1307.5 1001.24 1307.81 1002.47 1307.81 1003.96C1307.81 1005.08 1307.6 1006.03 1307.19 1006.81C1306.78 1007.59 1306.24 1008.24 1305.57 1008.76C1304.9 1009.27 1304.18 1009.69 1303.42 1009.99L1309.84 1020H1305.65L1300.19 1010.94H1296.55V1020H1292.84V997.391H1299.2ZM1298.95 1000.48H1296.55V1007.88H1299.12C1300.84 1007.88 1302.09 1007.56 1302.86 1006.92C1303.65 1006.28 1304.04 1005.33 1304.04 1004.09C1304.04 1002.78 1303.62 1001.85 1302.78 1001.3C1301.96 1000.76 1300.68 1000.48 1298.95 1000.48ZM1325.87 1020H1313.07V997.391H1325.87V1000.51H1316.78V1006.65H1325.3V1009.76H1316.78V1016.86H1325.87V1020ZM1338.6 1020H1334.87V1000.55H1328.25V997.391H1345.2V1000.55H1338.6V1020ZM1366.42 997.391V1012.02C1366.42 1013.6 1366.09 1015.01 1365.42 1016.26C1364.76 1017.51 1363.76 1018.49 1362.42 1019.23C1361.08 1019.95 1359.39 1020.31 1357.36 1020.31C1354.46 1020.31 1352.26 1019.55 1350.74 1018.04C1349.23 1016.51 1348.48 1014.48 1348.48 1011.96V997.391H1352.19V1011.63C1352.19 1013.52 1352.64 1014.91 1353.52 1015.81C1354.41 1016.71 1355.74 1017.15 1357.5 1017.15C1358.71 1017.15 1359.7 1016.94 1360.47 1016.52C1361.24 1016.09 1361.81 1015.46 1362.17 1014.63C1362.54 1013.8 1362.72 1012.79 1362.72 1011.62V997.391H1366.42ZM1378.56 997.391C1380.51 997.391 1382.12 997.628 1383.39 998.102C1384.66 998.577 1385.61 999.298 1386.23 1000.27C1386.86 1001.24 1387.17 1002.47 1387.17 1003.96C1387.17 1005.08 1386.97 1006.03 1386.56 1006.81C1386.14 1007.59 1385.6 1008.24 1384.93 1008.76C1384.26 1009.27 1383.55 1009.69 1382.78 1009.99L1389.2 1020H1385.01L1379.55 1010.94H1375.92V1020H1372.2V997.391H1378.56ZM1378.31 1000.48H1375.92V1007.88H1378.48C1380.2 1007.88 1381.45 1007.56 1382.23 1006.92C1383.01 1006.28 1383.4 1005.33 1383.4 1004.09C1383.4 1002.78 1382.98 1001.85 1382.15 1001.3C1381.32 1000.76 1380.05 1000.48 1378.31 1000.48ZM1411.3 1020H1406.74L1395.66 1001.95H1395.53C1395.57 1002.56 1395.6 1003.21 1395.63 1003.89C1395.67 1004.57 1395.71 1005.27 1395.73 1005.99C1395.76 1006.71 1395.78 1007.44 1395.8 1008.19V1020H1392.43V997.391H1396.96L1408.02 1015.31H1408.13C1408.11 1014.79 1408.08 1014.19 1408.05 1013.5C1408.02 1012.82 1407.99 1012.12 1407.96 1011.4C1407.94 1010.67 1407.92 1009.96 1407.91 1009.28V997.391H1411.3V1020ZM1438.27 1020H1425.46V997.391H1438.27V1000.51H1429.18V1006.65H1437.7V1009.76H1429.18V1016.86H1438.27V1020ZM1452.91 1020L1446.4 1001.12H1446.26C1446.29 1001.54 1446.33 1002.12 1446.37 1002.85C1446.41 1003.58 1446.45 1004.37 1446.48 1005.2C1446.51 1006.04 1446.53 1006.83 1446.53 1007.6V1020H1443.16V997.391H1448.37L1454.63 1015.44H1454.72L1461.2 997.391H1466.4V1020H1462.86V1007.41C1462.86 1006.72 1462.87 1005.97 1462.89 1005.17C1462.92 1004.37 1462.95 1003.6 1462.98 1002.88C1463.02 1002.16 1463.05 1001.58 1463.07 1001.15H1462.95L1456.19 1020H1452.91ZM1478.92 997.391C1481.84 997.391 1483.97 997.989 1485.31 999.185C1486.65 1000.38 1487.32 1002.06 1487.32 1004.21C1487.32 1005.19 1487.17 1006.12 1486.86 1007.01C1486.56 1007.89 1486.06 1008.66 1485.37 1009.34C1484.68 1010.02 1483.77 1010.55 1482.64 1010.94C1481.51 1011.33 1480.13 1011.53 1478.48 1011.53H1476.06V1020H1472.35V997.391H1478.92ZM1478.68 1000.47H1476.06V1008.43H1478.09C1479.25 1008.43 1480.24 1008.3 1481.06 1008.03C1481.87 1007.75 1482.49 1007.31 1482.91 1006.72C1483.34 1006.12 1483.55 1005.33 1483.55 1004.35C1483.55 1003.04 1483.15 1002.07 1482.36 1001.43C1481.57 1000.79 1480.35 1000.47 1478.68 1000.47ZM1499.68 1020H1495.95V1000.55H1489.33V997.391H1506.28V1000.55H1499.68V1020ZM1516.15 1007.71L1521.51 997.391H1525.52L1518 1011.22V1020H1514.31V1011.36L1506.78 997.391H1510.81L1516.15 1007.71ZM1356.55 1063H1352.83V1043.55H1346.21V1040.39H1363.16V1043.55H1356.55V1063ZM1372.98 1040.39C1374.93 1040.39 1376.53 1040.63 1377.8 1041.1C1379.08 1041.58 1380.03 1042.3 1380.65 1043.27C1381.28 1044.24 1381.59 1045.47 1381.59 1046.96C1381.59 1048.08 1381.39 1049.03 1380.97 1049.81C1380.56 1050.59 1380.02 1051.24 1379.35 1051.76C1378.68 1052.27 1377.96 1052.69 1377.2 1052.99L1383.62 1063H1379.43L1373.97 1053.94H1370.33V1063H1366.62V1040.39H1372.98ZM1372.73 1043.48H1370.33V1050.88H1372.9C1374.62 1050.88 1375.87 1050.56 1376.64 1049.92C1377.43 1049.28 1377.82 1048.33 1377.82 1047.09C1377.82 1045.78 1377.4 1044.85 1376.57 1044.3C1375.74 1043.76 1374.46 1043.48 1372.73 1043.48ZM1400.86 1063L1398.65 1056.72H1390L1387.79 1063H1383.88L1392.29 1040.3H1396.41L1404.8 1063H1400.86ZM1397.69 1053.54L1395.54 1047.35C1395.46 1047.08 1395.34 1046.71 1395.18 1046.22C1395.03 1045.73 1394.88 1045.23 1394.72 1044.72C1394.57 1044.21 1394.44 1043.77 1394.33 1043.42C1394.23 1043.84 1394.1 1044.32 1393.95 1044.84C1393.8 1045.36 1393.66 1045.84 1393.51 1046.3C1393.38 1046.75 1393.28 1047.1 1393.21 1047.35L1391.04 1053.54H1397.69ZM1407.79 1063V1040.39H1411.5V1063H1407.79ZM1417.47 1063V1040.39H1421.18V1059.85H1430.78V1063H1417.47ZM1447.5 1063H1434.7V1040.39H1447.5V1043.51H1438.41V1049.65H1446.93V1052.76H1438.41V1059.86H1447.5V1063ZM1458.74 1040.39C1460.69 1040.39 1462.3 1040.63 1463.57 1041.1C1464.85 1041.58 1465.8 1042.3 1466.41 1043.27C1467.04 1044.24 1467.36 1045.47 1467.36 1046.96C1467.36 1048.08 1467.15 1049.03 1466.74 1049.81C1466.33 1050.59 1465.79 1051.24 1465.12 1051.76C1464.45 1052.27 1463.73 1052.69 1462.97 1052.99L1469.38 1063H1465.19L1459.73 1053.94H1456.1V1063H1452.39V1040.39H1458.74ZM1458.5 1043.48H1456.1V1050.88H1458.67C1460.39 1050.88 1461.64 1050.56 1462.41 1049.92C1463.19 1049.28 1463.58 1048.33 1463.58 1047.09C1463.58 1045.78 1463.17 1044.85 1462.33 1044.3C1461.51 1043.76 1460.23 1043.48 1458.5 1043.48Z" fill="#4F4F4F"/>
<defs>
<clipPath id="clip0_211_88567">
<rect width="145.49" height="145.49" fill="white" transform="translate(920.174 151.931)"/>
</clipPath>
<clipPath id="clip1_211_88567">
<rect width="145.49" height="145.49" fill="white" transform="translate(1337 151.931)"/>
</clipPath>
<clipPath id="clip2_211_88567">
<rect width="145.49" height="145.49" fill="white" transform="translate(1337 472)"/>
</clipPath>
<clipPath id="clip3_211_88567">
<rect width="145.49" height="145.49" fill="white" transform="translate(1337 792)"/>
</clipPath>
<clipPath id="clip4_211_88567">
<rect width="145.49" height="145.49" fill="white" transform="translate(94 152)"/>
</clipPath>
<clipPath id="clip5_211_88567">
<rect width="145.49" height="145.49" fill="white" transform="translate(505.788 151.931)"/>
</clipPath>
</defs>
</svg>
