<svg width="1640" height="1131" viewBox="0 0 1640 1131" fill="none" xmlns="http://www.w3.org/2000/svg">
<line x1="270" y1="220" x2="346" y2="220" stroke="#304850" stroke-width="8"/>
<line x1="574" y1="220" x2="650" y2="220" stroke="#304850" stroke-width="8"/>
<line x1="880" y1="220" x2="960" y2="220" stroke="#304850" stroke-width="8"/>
<g clip-path="url(#clip0_238_87650)">
<path d="M764.745 296.49C804.921 296.49 837.49 263.921 837.49 223.745C837.49 183.569 804.921 151 764.745 151C724.569 151 692 183.569 692 223.745C692 263.921 724.569 296.49 764.745 296.49Z" fill="#EDF2F6"/>
<path d="M734.867 251.999H747.208V261.968C747.208 262.597 746.958 263.2 746.514 263.645C746.069 264.089 745.466 264.339 744.837 264.339H737.238C736.927 264.339 736.619 264.278 736.331 264.159C736.043 264.04 735.782 263.865 735.562 263.645C735.342 263.425 735.167 263.163 735.048 262.876C734.929 262.588 734.867 262.28 734.867 261.968V251.999Z" fill="#0B2127"/>
<path d="M744.838 265.638H737.238C736.756 265.638 736.279 265.543 735.834 265.359C735.389 265.174 734.984 264.904 734.643 264.563C734.303 264.222 734.032 263.818 733.848 263.373C733.664 262.927 733.569 262.45 733.569 261.968V251.998C733.569 251.654 733.705 251.323 733.949 251.08C734.193 250.836 734.523 250.699 734.868 250.699H747.208C747.553 250.699 747.883 250.836 748.127 251.08C748.37 251.323 748.507 251.654 748.507 251.998V261.968C748.507 262.941 748.121 263.875 747.432 264.563C746.744 265.251 745.811 265.638 744.838 265.638V265.638ZM736.167 253.297V261.968C736.167 262.252 736.28 262.525 736.481 262.726C736.682 262.927 736.954 263.04 737.238 263.04H744.838C745.122 263.04 745.394 262.927 745.595 262.726C745.796 262.525 745.909 262.252 745.909 261.968V253.297H736.167Z" fill="#0B2127"/>
<path d="M782.281 251.999H794.622V261.968C794.622 262.597 794.372 263.2 793.928 263.645C793.483 264.089 792.88 264.339 792.251 264.339H784.652C784.023 264.339 783.42 264.089 782.976 263.645C782.531 263.2 782.281 262.597 782.281 261.968V251.999Z" fill="#0B2127"/>
<path d="M792.252 265.638H784.652C783.679 265.638 782.746 265.251 782.058 264.563C781.369 263.875 780.983 262.941 780.983 261.968V251.998C780.983 251.654 781.12 251.323 781.363 251.08C781.607 250.836 781.937 250.699 782.282 250.699H794.622C794.967 250.699 795.297 250.836 795.541 251.08C795.784 251.323 795.921 251.654 795.921 251.998V261.968C795.921 262.45 795.826 262.927 795.642 263.373C795.458 263.818 795.187 264.222 794.847 264.563C794.506 264.904 794.101 265.174 793.656 265.359C793.211 265.543 792.734 265.638 792.252 265.638V265.638ZM783.581 253.297V261.968C783.581 262.252 783.694 262.525 783.895 262.726C784.096 262.927 784.368 263.04 784.652 263.04H792.252C792.536 263.04 792.808 262.927 793.009 262.726C793.21 262.525 793.323 262.252 793.323 261.968V253.297H783.581Z" fill="#0B2127"/>
<path d="M747.526 252.648H730.97V259.793H747.526V252.648Z" fill="#0B2127"/>
<path d="M798.519 252.648H781.963V259.793H798.519V252.648Z" fill="#0B2127"/>
<path d="M798.519 245.179H730.97V254.272H798.519V245.179Z" fill="#0B2127"/>
<path d="M758.899 254.271H756.301V258.818H758.899V254.271Z" fill="#0B2127"/>
<path d="M773.188 254.271H770.59V258.818H773.188V254.271Z" fill="#0B2127"/>
<path d="M778.385 258.818H751.105V261.416H778.385V258.818Z" fill="#0B2127"/>
<path d="M777.176 247.815L773.442 251.55H770.051L773.779 247.815H777.176Z" fill="white"/>
<path d="M768.46 247.815L764.725 251.55H761.335L765.063 247.815H768.46Z" fill="white"/>
<path d="M759.75 247.815L756.016 251.55H752.619L756.347 247.815H759.75Z" fill="white"/>
<path d="M751.034 247.815L747.299 251.55H743.909L747.637 247.815H751.034Z" fill="white"/>
<path d="M742.012 247.815L738.277 251.55H734.887L738.615 247.815H742.012Z" fill="white"/>
<path d="M785.893 247.815L782.158 251.55H778.761L782.489 247.815H785.893Z" fill="white"/>
<path d="M794.603 247.815L790.868 251.55H787.478L791.206 247.815H794.603Z" fill="white"/>
<path d="M811.509 265.313H717.98V267.912H811.509V265.313Z" fill="#0B2127"/>
<path d="M797.22 180.877H732.27V245.828H797.22V180.877Z" fill="white"/>
<path d="M795.921 182.176V244.529H733.568V182.176H795.921ZM798.519 179.578H730.97V247.127H798.519V179.578Z" fill="#0B2127"/>
<path d="M818.004 180.877H797.22V245.828H818.004V180.877Z" fill="white"/>
<path d="M816.705 182.176V244.529H798.519V182.176H816.705ZM819.303 179.578H795.921V247.127H819.303V179.578Z" fill="#0B2127"/>
<path d="M732.27 180.877H711.485V245.828H732.27V180.877Z" fill="white"/>
<path d="M730.971 182.176V244.529H712.784V182.176H730.971ZM733.569 179.578H710.186V247.127H733.569V179.578Z" fill="#0B2127"/>
<path d="M733.569 227.642H725.774V230.24H733.569V227.642Z" fill="#0B2127"/>
<path d="M733.569 196.465H725.774V199.063H733.569V196.465Z" fill="#0B2127"/>
<path d="M803.715 227.642H795.921V230.24H803.715V227.642Z" fill="#0B2127"/>
<path d="M803.715 196.465H795.921V199.063H803.715V196.465Z" fill="#0B2127"/>
<path d="M780.333 197.765V244.529H749.157V197.765H780.333ZM782.931 195.167H746.559V247.127H782.931V195.167Z" fill="#0B2127"/>
<path d="M734.484 181.289L732.646 183.126L747.091 197.571L748.928 195.733L734.484 181.289Z" fill="#0B2127"/>
<path d="M795.002 181.29L780.558 195.734L782.395 197.571L796.839 183.127L795.002 181.29Z" fill="#0B2127"/>
</g>
<g clip-path="url(#clip1_238_87650)">
<path d="M1118.71 196.687V196.713L1121.3 199.116L1124.91 202.454L1121.41 205.539L1121.3 205.435L1118.71 202.857L1110.14 194.342L1118.71 185.807L1121.3 183.216L1121.41 183.112L1124.94 186.19L1121.3 189.542L1118.71 191.939V191.965H1132.04V196.687H1118.71Z" fill="#F65335"/>
<path d="M1128.78 202.506L1126.67 200.558L1125.3 199.259H1134.64V197.583C1141.45 215.231 1141.13 234.837 1133.74 252.25C1126.34 269.663 1112.46 283.516 1095.04 290.873C1077.61 298.231 1058 298.516 1040.37 291.669C1022.73 284.821 1008.46 271.379 1000.56 254.188C992.665 236.998 991.771 217.409 998.068 199.571C1004.36 181.732 1017.36 167.045 1034.29 158.619C1051.23 150.194 1070.78 148.691 1088.81 154.431C1106.83 160.17 1121.92 172.7 1130.86 189.367H1125.33L1126.7 188.068L1128.83 186.119L1126.65 184.216L1123.12 181.138L1121.3 179.579H1121.26L1119.58 181.274L1118.71 182.177L1106.87 189.601L1105.81 194.342L1107.3 198.538L1116.96 208.196L1117.83 209.06H1121.3L1123.12 207.508" fill="#EDF2F6"/>
<path d="M1058 246.478H1017.38V259.792H1058V246.478Z" fill="#0B2127"/>
<path d="M1118.71 191.938V191.964H1121.3V196.686H1118.71V196.712L1121.3 199.115V205.435L1118.71 202.856L1110.14 194.341L1118.71 185.807L1121.3 183.215V189.542L1118.71 191.938Z" fill="white"/>
<path d="M1121.3 209.092L1121.3 209.085V247.127H1012.19V179.578H1121.26L1119.58 181.273L1118.67 182.176L1108.31 192.503L1106.46 194.341L1108.31 196.186L1118.71 206.513L1119.58 207.377L1121.3 209.092Z" fill="white"/>
<path d="M1118.71 191.964V196.686H1121.3V191.964H1118.71ZM1118.71 196.712V202.856L1121.3 205.455V199.115L1118.71 196.712ZM1119.58 207.377L1118.71 206.513V244.529H1014.78V182.176H1118.71L1119.61 181.273L1121.3 179.578H1012.19V247.127H1121.3V209.085L1119.58 207.377ZM1118.71 185.807V191.919L1121.3 189.522V183.215L1118.71 185.807Z" fill="#0B2127"/>
<path d="M1121.3 265.313H1012.19V267.912H1121.3V265.313Z" fill="#0B2127"/>
<path d="M1103.14 254.921L1097.94 247.127H1108.33L1103.14 254.921Z" fill="#0B2127"/>
<path d="M1103.14 258.818L1097.94 266.612H1108.33L1103.14 258.818Z" fill="#0B2127"/>
<path d="M1105.09 245.828H1101.19V265.313H1105.09V245.828Z" fill="#0B2127"/>
<path d="M1086.23 254.921L1081.03 247.127H1091.43L1086.23 254.921Z" fill="#0B2127"/>
<path d="M1086.23 258.818L1081.03 266.612H1091.43L1086.23 258.818Z" fill="#0B2127"/>
<path d="M1088.18 245.828H1084.28V265.313H1088.18V245.828Z" fill="#0B2127"/>
<path d="M1085.95 248.633L1084.88 251.096L1103.25 259.018L1104.31 256.555L1085.95 248.633Z" fill="#0B2127"/>
<path d="M1103.25 248.627L1084.88 256.55L1085.94 259.013L1104.31 251.091L1103.25 248.627Z" fill="#0B2127"/>
<path d="M1087.53 179.578H1084.93V249.699H1087.53V179.578Z" fill="#0B2127"/>
<path d="M1072.05 256.22C1072.05 261.702 1069.67 265.313 1066.74 265.313C1063.82 265.313 1061.44 261.241 1061.44 256.22C1061.44 251.199 1072.05 247.127 1072.05 247.127V256.22Z" fill="#0B2127"/>
<path d="M1028.64 265.313C1026.96 265.313 1025.59 262.41 1025.59 258.818V247.127H1071.99L1071.29 257.519C1071.29 261.111 1068.46 265.313 1066.75 265.313H1028.64Z" fill="#0B2127"/>
<path d="M1028.38 265.313C1031.31 265.313 1033.68 261.242 1033.68 256.22C1033.68 251.198 1031.31 247.127 1028.38 247.127C1025.45 247.127 1023.07 251.198 1023.07 256.22C1023.07 261.242 1025.45 265.313 1028.38 265.313Z" fill="#0B2127"/>
<path d="M1028.38 261.241C1027.83 260.591 1026.98 258.863 1026.98 256.22C1026.98 253.576 1027.83 251.823 1028.38 251.199C1028.94 251.849 1029.79 253.576 1029.79 256.22C1029.79 258.863 1028.94 260.617 1028.38 261.241Z" fill="#0B2127"/>
<path d="M1030.07 260.117C1031.15 260.117 1032.02 258.373 1032.02 256.22C1032.02 254.068 1031.15 252.323 1030.07 252.323C1029 252.323 1028.12 254.068 1028.12 256.22C1028.12 258.373 1029 260.117 1030.07 260.117Z" fill="white"/>
<path d="M1038.52 260.117C1039.59 260.117 1040.47 258.373 1040.47 256.22C1040.47 254.068 1039.59 252.323 1038.52 252.323C1037.44 252.323 1036.57 254.068 1036.57 256.22C1036.57 258.373 1037.44 260.117 1038.52 260.117Z" fill="white"/>
<path d="M1132.04 196.687V191.965H1118.71L1121.3 189.568L1124.94 186.217L1121.41 183.138L1121.3 183.242L1118.71 185.84L1110.14 194.342L1118.71 202.857L1121.3 205.455L1121.41 205.559L1124.91 202.474L1121.3 199.116L1118.71 196.713L1132.04 196.687Z" fill="#F65335"/>
</g>
<g clip-path="url(#clip2_238_87650)">
<path d="M1119.71 516.687V516.713L1122.3 519.116L1125.91 522.454L1122.41 525.539L1122.3 525.435L1119.71 522.857L1111.14 514.342L1119.71 505.807L1122.3 503.216L1122.41 503.112L1125.94 506.19L1122.3 509.542L1119.71 511.939V511.965H1133.04V516.687H1119.71Z" fill="#F65335"/>
<path d="M1129.78 522.506L1127.67 520.558L1126.3 519.259H1135.64V517.583C1142.45 535.231 1142.13 554.837 1134.74 572.25C1127.34 589.663 1113.46 603.516 1096.04 610.873C1078.61 618.231 1059 618.516 1041.37 611.669C1023.73 604.821 1009.46 591.379 1001.56 574.188C993.665 556.998 992.771 537.409 999.068 519.571C1005.36 501.732 1018.36 487.045 1035.29 478.619C1052.23 470.194 1071.78 468.691 1089.81 474.431C1107.83 480.17 1122.92 492.7 1131.86 509.367H1126.33L1127.7 508.068L1129.83 506.119L1127.65 504.216L1124.12 501.138L1122.3 499.579H1122.26L1120.58 501.274L1119.71 502.177L1107.87 509.601L1106.81 514.342L1108.3 518.538L1117.96 528.196L1118.83 529.06H1122.3L1124.12 527.508" fill="#EDF2F6"/>
<path d="M1059 566.478H1018.38V579.792H1059V566.478Z" fill="#0B2127"/>
<path d="M1119.71 511.938V511.964H1122.3V516.686H1119.71V516.712L1122.3 519.115V525.435L1119.71 522.856L1111.14 514.341L1119.71 505.807L1122.3 503.215V509.542L1119.71 511.938Z" fill="white"/>
<path d="M1122.3 529.092L1122.3 529.085V567.127H1013.19V499.578H1122.26L1120.58 501.273L1119.67 502.176L1109.31 512.503L1107.46 514.341L1109.31 516.186L1119.71 526.513L1120.58 527.377L1122.3 529.092Z" fill="white"/>
<path d="M1119.71 511.964V516.686H1122.3V511.964H1119.71ZM1119.71 516.712V522.856L1122.3 525.455V519.115L1119.71 516.712ZM1120.58 527.377L1119.71 526.513V564.529H1015.78V502.176H1119.71L1120.61 501.273L1122.3 499.578H1013.19V567.127H1122.3V529.085L1120.58 527.377ZM1119.71 505.807V511.919L1122.3 509.522V503.215L1119.71 505.807Z" fill="#0B2127"/>
<path d="M1122.3 585.313H1013.19V587.912H1122.3V585.313Z" fill="#0B2127"/>
<path d="M1104.14 574.921L1098.94 567.127H1109.33L1104.14 574.921Z" fill="#0B2127"/>
<path d="M1104.14 578.818L1098.94 586.612H1109.33L1104.14 578.818Z" fill="#0B2127"/>
<path d="M1106.09 565.828H1102.19V585.313H1106.09V565.828Z" fill="#0B2127"/>
<path d="M1087.23 574.921L1082.03 567.127H1092.43L1087.23 574.921Z" fill="#0B2127"/>
<path d="M1087.23 578.818L1082.03 586.612H1092.43L1087.23 578.818Z" fill="#0B2127"/>
<path d="M1089.18 565.828H1085.28V585.313H1089.18V565.828Z" fill="#0B2127"/>
<path d="M1086.95 568.633L1085.88 571.096L1104.25 579.018L1105.31 576.555L1086.95 568.633Z" fill="#0B2127"/>
<path d="M1104.25 568.627L1085.88 576.55L1086.94 579.013L1105.31 571.091L1104.25 568.627Z" fill="#0B2127"/>
<path d="M1088.53 499.578H1085.93V569.699H1088.53V499.578Z" fill="#0B2127"/>
<path d="M1073.05 576.22C1073.05 581.702 1070.67 585.313 1067.74 585.313C1064.82 585.313 1062.44 581.241 1062.44 576.22C1062.44 571.199 1073.05 567.127 1073.05 567.127V576.22Z" fill="#0B2127"/>
<path d="M1029.64 585.313C1027.96 585.313 1026.59 582.41 1026.59 578.818V567.127H1072.99L1072.29 577.519C1072.29 581.111 1069.46 585.313 1067.75 585.313H1029.64Z" fill="#0B2127"/>
<path d="M1029.38 585.313C1032.31 585.313 1034.68 581.242 1034.68 576.22C1034.68 571.198 1032.31 567.127 1029.38 567.127C1026.45 567.127 1024.07 571.198 1024.07 576.22C1024.07 581.242 1026.45 585.313 1029.38 585.313Z" fill="#0B2127"/>
<path d="M1029.38 581.241C1028.83 580.591 1027.98 578.863 1027.98 576.22C1027.98 573.576 1028.83 571.823 1029.38 571.199C1029.94 571.849 1030.79 573.576 1030.79 576.22C1030.79 578.863 1029.94 580.617 1029.38 581.241Z" fill="#0B2127"/>
<path d="M1031.07 580.117C1032.15 580.117 1033.02 578.373 1033.02 576.22C1033.02 574.068 1032.15 572.323 1031.07 572.323C1030 572.323 1029.12 574.068 1029.12 576.22C1029.12 578.373 1030 580.117 1031.07 580.117Z" fill="white"/>
<path d="M1039.52 580.117C1040.59 580.117 1041.47 578.373 1041.47 576.22C1041.47 574.068 1040.59 572.323 1039.52 572.323C1038.44 572.323 1037.57 574.068 1037.57 576.22C1037.57 578.373 1038.44 580.117 1039.52 580.117Z" fill="white"/>
<path d="M1133.04 516.687V511.965H1119.71L1122.3 509.568L1125.94 506.217L1122.41 503.138L1122.3 503.242L1119.71 505.84L1111.14 514.342L1119.71 522.857L1122.3 525.455L1122.41 525.559L1125.91 522.474L1122.3 519.116L1119.71 516.713L1133.04 516.687Z" fill="#F65335"/>
</g>
<g clip-path="url(#clip3_238_87650)">
<path d="M1119.71 836.687V836.713L1122.3 839.116L1125.91 842.454L1122.41 845.539L1122.3 845.435L1119.71 842.857L1111.14 834.342L1119.71 825.807L1122.3 823.216L1122.41 823.112L1125.94 826.19L1122.3 829.542L1119.71 831.939V831.965H1133.04V836.687H1119.71Z" fill="#F65335"/>
<path d="M1129.78 842.506L1127.67 840.558L1126.3 839.259H1135.64V837.583C1142.45 855.231 1142.13 874.837 1134.74 892.25C1127.34 909.663 1113.46 923.516 1096.04 930.873C1078.61 938.231 1059 938.516 1041.37 931.669C1023.73 924.821 1009.46 911.379 1001.56 894.188C993.665 876.998 992.771 857.409 999.068 839.571C1005.36 821.732 1018.36 807.045 1035.29 798.619C1052.23 790.194 1071.78 788.691 1089.81 794.431C1107.83 800.17 1122.92 812.7 1131.86 829.367H1126.33L1127.7 828.068L1129.83 826.119L1127.65 824.216L1124.12 821.138L1122.3 819.579H1122.26L1120.58 821.274L1119.71 822.177L1107.87 829.601L1106.81 834.342L1108.3 838.538L1117.96 848.196L1118.83 849.06H1122.3L1124.12 847.508" fill="#EDF2F6"/>
<path d="M1059 886.478H1018.38V899.792H1059V886.478Z" fill="#0B2127"/>
<path d="M1119.71 831.938V831.964H1122.3V836.686H1119.71V836.712L1122.3 839.115V845.435L1119.71 842.856L1111.14 834.341L1119.71 825.807L1122.3 823.215V829.542L1119.71 831.938Z" fill="white"/>
<path d="M1122.3 849.092L1122.3 849.085V887.127H1013.19V819.578H1122.26L1120.58 821.273L1119.67 822.176L1109.31 832.503L1107.46 834.341L1109.31 836.186L1119.71 846.513L1120.58 847.377L1122.3 849.092Z" fill="white"/>
<path d="M1119.71 831.964V836.686H1122.3V831.964H1119.71ZM1119.71 836.712V842.856L1122.3 845.455V839.115L1119.71 836.712ZM1120.58 847.377L1119.71 846.513V884.529H1015.78V822.176H1119.71L1120.61 821.273L1122.3 819.578H1013.19V887.127H1122.3V849.085L1120.58 847.377ZM1119.71 825.807V831.919L1122.3 829.522V823.215L1119.71 825.807Z" fill="#0B2127"/>
<path d="M1122.3 905.313H1013.19V907.912H1122.3V905.313Z" fill="#0B2127"/>
<path d="M1104.14 894.921L1098.94 887.127H1109.33L1104.14 894.921Z" fill="#0B2127"/>
<path d="M1104.14 898.818L1098.94 906.612H1109.33L1104.14 898.818Z" fill="#0B2127"/>
<path d="M1106.09 885.828H1102.19V905.313H1106.09V885.828Z" fill="#0B2127"/>
<path d="M1087.23 894.921L1082.03 887.127H1092.43L1087.23 894.921Z" fill="#0B2127"/>
<path d="M1087.23 898.818L1082.03 906.612H1092.43L1087.23 898.818Z" fill="#0B2127"/>
<path d="M1089.18 885.828H1085.28V905.313H1089.18V885.828Z" fill="#0B2127"/>
<path d="M1086.95 888.633L1085.88 891.096L1104.25 899.018L1105.31 896.555L1086.95 888.633Z" fill="#0B2127"/>
<path d="M1104.25 888.627L1085.88 896.55L1086.94 899.013L1105.31 891.091L1104.25 888.627Z" fill="#0B2127"/>
<path d="M1088.53 819.578H1085.93V889.699H1088.53V819.578Z" fill="#0B2127"/>
<path d="M1073.05 896.22C1073.05 901.702 1070.67 905.313 1067.74 905.313C1064.82 905.313 1062.44 901.241 1062.44 896.22C1062.44 891.199 1073.05 887.127 1073.05 887.127V896.22Z" fill="#0B2127"/>
<path d="M1029.64 905.313C1027.96 905.313 1026.59 902.41 1026.59 898.818V887.127H1072.99L1072.29 897.519C1072.29 901.111 1069.46 905.313 1067.75 905.313H1029.64Z" fill="#0B2127"/>
<path d="M1029.38 905.313C1032.31 905.313 1034.68 901.242 1034.68 896.22C1034.68 891.198 1032.31 887.127 1029.38 887.127C1026.45 887.127 1024.07 891.198 1024.07 896.22C1024.07 901.242 1026.45 905.313 1029.38 905.313Z" fill="#0B2127"/>
<path d="M1029.38 901.241C1028.83 900.591 1027.98 898.863 1027.98 896.22C1027.98 893.576 1028.83 891.823 1029.38 891.199C1029.94 891.849 1030.79 893.576 1030.79 896.22C1030.79 898.863 1029.94 900.617 1029.38 901.241Z" fill="#0B2127"/>
<path d="M1031.07 900.117C1032.15 900.117 1033.02 898.373 1033.02 896.22C1033.02 894.068 1032.15 892.323 1031.07 892.323C1030 892.323 1029.12 894.068 1029.12 896.22C1029.12 898.373 1030 900.117 1031.07 900.117Z" fill="white"/>
<path d="M1039.52 900.117C1040.59 900.117 1041.47 898.373 1041.47 896.22C1041.47 894.068 1040.59 892.323 1039.52 892.323C1038.44 892.323 1037.57 894.068 1037.57 896.22C1037.57 898.373 1038.44 900.117 1039.52 900.117Z" fill="white"/>
<path d="M1133.04 836.687V831.965H1119.71L1122.3 829.568L1125.94 826.217L1122.41 823.138L1122.3 823.242L1119.71 825.84L1111.14 834.342L1119.71 842.857L1122.3 845.455L1122.41 845.559L1125.91 842.474L1122.3 839.116L1119.71 836.713L1133.04 836.687Z" fill="#F65335"/>
</g>
<path d="M385.562 94H380.845V71.3909H393.805V75.3189H385.562V81.149H393.233V85.0615H385.562V94ZM412.068 94L410.429 88.6184H402.186L400.547 94H395.382L403.362 71.2982H409.223L417.233 94H412.068ZM409.285 84.5976L407.645 79.3397C407.542 78.9892 407.403 78.5407 407.228 77.9943C407.063 77.4376 406.893 76.8757 406.718 76.3086C406.553 75.7313 406.419 75.2313 406.315 74.8086C406.212 75.2313 406.068 75.7571 405.882 76.386C405.707 77.0045 405.537 77.5922 405.372 78.1489C405.207 78.7056 405.089 79.1026 405.016 79.3397L403.393 84.5976H409.285ZM429.698 75.056C428.78 75.056 427.966 75.2364 427.254 75.5973C426.553 75.9478 425.96 76.4581 425.476 77.1283C425.002 77.7984 424.641 78.6077 424.393 79.5562C424.146 80.5047 424.022 81.5717 424.022 82.7573C424.022 84.3553 424.218 85.7214 424.61 86.8554C425.012 87.9792 425.631 88.84 426.466 89.438C427.301 90.0256 428.378 90.3195 429.698 90.3195C430.615 90.3195 431.533 90.2164 432.45 90.0102C433.378 89.804 434.383 89.5101 435.466 89.1287V93.1495C434.466 93.5618 433.481 93.8557 432.512 94.0309C431.543 94.2165 430.455 94.3093 429.249 94.3093C426.919 94.3093 425.002 93.8299 423.496 92.8711C422.002 91.902 420.893 90.5514 420.172 88.8194C419.45 87.0771 419.089 85.0461 419.089 82.7264C419.089 81.015 419.321 79.4479 419.785 78.0252C420.249 76.6025 420.929 75.3705 421.826 74.3292C422.723 73.2879 423.832 72.4838 425.151 71.9167C426.471 71.3497 427.986 71.0662 429.698 71.0662C430.821 71.0662 431.945 71.2105 433.069 71.4992C434.203 71.7776 435.286 72.1642 436.317 72.659L434.77 76.5561C433.925 76.154 433.074 75.8035 432.218 75.5045C431.363 75.2055 430.522 75.056 429.698 75.056ZM440.291 94V71.3909H445.085V94H440.291ZM450.776 94V71.3909H455.57V90.0411H464.74V94H450.776ZM468.684 94V71.3909H473.478V94H468.684ZM487.891 94H483.097V75.3808H476.957V71.3909H494.03V75.3808H487.891V94ZM504.546 80.7006L509.262 71.3909H514.428L506.927 85.2007V94H502.164V85.3554L494.664 71.3909H499.86L504.546 80.7006ZM539.341 94L537.702 88.6184H529.459L527.82 94H522.655L530.634 71.2982H536.495L544.506 94H539.341ZM536.557 84.5976L534.918 79.3397C534.815 78.9892 534.676 78.5407 534.5 77.9943C534.335 77.4376 534.165 76.8757 533.99 76.3086C533.825 75.7313 533.691 75.2313 533.588 74.8086C533.485 75.2313 533.341 75.7571 533.155 76.386C532.98 77.0045 532.81 77.5922 532.645 78.1489C532.48 78.7056 532.361 79.1026 532.289 79.3397L530.665 84.5976H536.557Z" fill="#333333"/>
<path d="M689.562 94H684.845V71.3909H697.805V75.3189H689.562V81.149H697.233V85.0615H689.562V94ZM716.068 94L714.429 88.6184H706.186L704.547 94H699.382L707.362 71.2982H713.223L721.233 94H716.068ZM713.285 84.5976L711.645 79.3397C711.542 78.9892 711.403 78.5407 711.228 77.9943C711.063 77.4376 710.893 76.8757 710.718 76.3086C710.553 75.7313 710.419 75.2313 710.315 74.8086C710.212 75.2313 710.068 75.7571 709.882 76.386C709.707 77.0045 709.537 77.5922 709.372 78.1489C709.207 78.7056 709.089 79.1026 709.016 79.3397L707.393 84.5976H713.285ZM733.698 75.056C732.78 75.056 731.966 75.2364 731.254 75.5973C730.553 75.9478 729.96 76.4581 729.476 77.1283C729.002 77.7984 728.641 78.6077 728.393 79.5562C728.146 80.5047 728.022 81.5717 728.022 82.7573C728.022 84.3553 728.218 85.7214 728.61 86.8554C729.012 87.9792 729.631 88.84 730.466 89.438C731.301 90.0256 732.378 90.3195 733.698 90.3195C734.615 90.3195 735.533 90.2164 736.45 90.0102C737.378 89.804 738.383 89.5101 739.466 89.1287V93.1495C738.466 93.5618 737.481 93.8557 736.512 94.0309C735.543 94.2165 734.455 94.3093 733.249 94.3093C730.919 94.3093 729.002 93.8299 727.496 92.8711C726.002 91.902 724.893 90.5514 724.172 88.8194C723.45 87.0771 723.089 85.0461 723.089 82.7264C723.089 81.015 723.321 79.4479 723.785 78.0252C724.249 76.6025 724.929 75.3705 725.826 74.3292C726.723 73.2879 727.832 72.4838 729.151 71.9167C730.471 71.3497 731.986 71.0662 733.698 71.0662C734.821 71.0662 735.945 71.2105 737.069 71.4992C738.203 71.7776 739.286 72.1642 740.317 72.659L738.77 76.5561C737.925 76.154 737.074 75.8035 736.218 75.5045C735.363 75.2055 734.522 75.056 733.698 75.056ZM744.291 94V71.3909H749.085V94H744.291ZM754.776 94V71.3909H759.57V90.0411H768.74V94H754.776ZM772.684 94V71.3909H777.478V94H772.684ZM791.891 94H787.097V75.3808H780.957V71.3909H798.03V75.3808H791.891V94ZM808.546 80.7006L813.262 71.3909H818.428L810.927 85.2007V94H806.164V85.3554L798.664 71.3909H803.86L808.546 80.7006ZM829.5 71.3909H836.536C839.547 71.3909 841.825 71.8136 843.372 72.659C844.918 73.5044 845.691 74.989 845.691 77.1128C845.691 77.9685 845.552 78.7417 845.274 79.4325C845.006 80.1232 844.614 80.6902 844.099 81.1336C843.583 81.5769 842.954 81.8655 842.212 81.9996V82.1542C842.965 82.3089 843.645 82.5769 844.253 82.9584C844.861 83.3295 845.346 83.8759 845.707 84.5976C846.078 85.309 846.264 86.2575 846.264 87.4431C846.264 88.8142 845.929 89.9895 845.258 90.969C844.588 91.9484 843.629 92.701 842.382 93.2268C841.145 93.7423 839.671 94 837.959 94H829.5V71.3909ZM834.294 80.3449H837.078C838.47 80.3449 839.433 80.1284 839.97 79.6954C840.506 79.2521 840.774 78.6025 840.774 77.7468C840.774 76.8808 840.454 76.2623 839.815 75.8911C839.186 75.5097 838.186 75.3189 836.815 75.3189H834.294V80.3449ZM834.294 84.1491V90.0411H837.418C838.861 90.0411 839.866 89.7627 840.433 89.206C841.001 88.6493 841.284 87.9018 841.284 86.9637C841.284 86.4069 841.16 85.9172 840.913 85.4945C840.665 85.0718 840.248 84.7419 839.66 84.5048C839.083 84.2677 838.284 84.1491 837.263 84.1491H834.294Z" fill="#333333"/>
<path d="M992.562 94H987.845V71.3909H1000.8V75.3189H992.562V81.149H1000.23V85.0615H992.562V94ZM1019.07 94L1017.43 88.6184H1009.19L1007.55 94H1002.38L1010.36 71.2982H1016.22L1024.23 94H1019.07ZM1016.28 84.5976L1014.65 79.3397C1014.54 78.9892 1014.4 78.5407 1014.23 77.9943C1014.06 77.4376 1013.89 76.8757 1013.72 76.3086C1013.55 75.7313 1013.42 75.2313 1013.32 74.8086C1013.21 75.2313 1013.07 75.7571 1012.88 76.386C1012.71 77.0045 1012.54 77.5922 1012.37 78.1489C1012.21 78.7056 1012.09 79.1026 1012.02 79.3397L1010.39 84.5976H1016.28ZM1036.7 75.056C1035.78 75.056 1034.97 75.2364 1034.25 75.5973C1033.55 75.9478 1032.96 76.4581 1032.48 77.1283C1032 77.7984 1031.64 78.6077 1031.39 79.5562C1031.15 80.5047 1031.02 81.5717 1031.02 82.7573C1031.02 84.3553 1031.22 85.7214 1031.61 86.8554C1032.01 87.9792 1032.63 88.84 1033.47 89.438C1034.3 90.0256 1035.38 90.3195 1036.7 90.3195C1037.62 90.3195 1038.53 90.2164 1039.45 90.0102C1040.38 89.804 1041.38 89.5101 1042.47 89.1287V93.1495C1041.47 93.5618 1040.48 93.8557 1039.51 94.0309C1038.54 94.2165 1037.46 94.3093 1036.25 94.3093C1033.92 94.3093 1032 93.8299 1030.5 92.8711C1029 91.902 1027.89 90.5514 1027.17 88.8194C1026.45 87.0771 1026.09 85.0461 1026.09 82.7264C1026.09 81.015 1026.32 79.4479 1026.78 78.0252C1027.25 76.6025 1027.93 75.3705 1028.83 74.3292C1029.72 73.2879 1030.83 72.4838 1032.15 71.9167C1033.47 71.3497 1034.99 71.0662 1036.7 71.0662C1037.82 71.0662 1038.95 71.2105 1040.07 71.4992C1041.2 71.7776 1042.29 72.1642 1043.32 72.659L1041.77 76.5561C1040.92 76.154 1040.07 75.8035 1039.22 75.5045C1038.36 75.2055 1037.52 75.056 1036.7 75.056ZM1047.29 94V71.3909H1052.08V94H1047.29ZM1057.78 94V71.3909H1062.57V90.0411H1071.74V94H1057.78ZM1075.68 94V71.3909H1080.48V94H1075.68ZM1094.89 94H1090.1V75.3808H1083.96V71.3909H1101.03V75.3808H1094.89V94ZM1111.55 80.7006L1116.26 71.3909H1121.43L1113.93 85.2007V94H1109.16V85.3554L1101.66 71.3909H1106.86L1111.55 80.7006ZM1142.1 75.056C1141.19 75.056 1140.37 75.2364 1139.66 75.5973C1138.96 75.9478 1138.37 76.4581 1137.88 77.1283C1137.41 77.7984 1137.05 78.6077 1136.8 79.5562C1136.55 80.5047 1136.43 81.5717 1136.43 82.7573C1136.43 84.3553 1136.62 85.7214 1137.02 86.8554C1137.42 87.9792 1138.04 88.84 1138.87 89.438C1139.71 90.0256 1140.78 90.3195 1142.1 90.3195C1143.02 90.3195 1143.94 90.2164 1144.86 90.0102C1145.78 89.804 1146.79 89.5101 1147.87 89.1287V93.1495C1146.87 93.5618 1145.89 93.8557 1144.92 94.0309C1143.95 94.2165 1142.86 94.3093 1141.66 94.3093C1139.33 94.3093 1137.41 93.8299 1135.9 92.8711C1134.41 91.902 1133.3 90.5514 1132.58 88.8194C1131.86 87.0771 1131.49 85.0461 1131.49 82.7264C1131.49 81.015 1131.73 79.4479 1132.19 78.0252C1132.65 76.6025 1133.34 75.3705 1134.23 74.3292C1135.13 73.2879 1136.24 72.4838 1137.56 71.9167C1138.88 71.3497 1140.39 71.0662 1142.1 71.0662C1143.23 71.0662 1144.35 71.2105 1145.47 71.4992C1146.61 71.7776 1147.69 72.1642 1148.72 72.659L1147.18 76.5561C1146.33 76.154 1145.48 75.8035 1144.62 75.5045C1143.77 75.2055 1142.93 75.056 1142.1 75.056Z" fill="#333333"/>
<path d="M990.562 414H985.845V391.391H998.805V395.319H990.562V401.149H998.233V405.062H990.562V414ZM1017.07 414L1015.43 408.618H1007.19L1005.55 414H1000.38L1008.36 391.298H1014.22L1022.23 414H1017.07ZM1014.28 404.598L1012.65 399.34C1012.54 398.989 1012.4 398.541 1012.23 397.994C1012.06 397.438 1011.89 396.876 1011.72 396.309C1011.55 395.731 1011.42 395.231 1011.32 394.809C1011.21 395.231 1011.07 395.757 1010.88 396.386C1010.71 397.005 1010.54 397.592 1010.37 398.149C1010.21 398.706 1010.09 399.103 1010.02 399.34L1008.39 404.598H1014.28ZM1034.7 395.056C1033.78 395.056 1032.97 395.236 1032.25 395.597C1031.55 395.948 1030.96 396.458 1030.48 397.128C1030 397.798 1029.64 398.608 1029.39 399.556C1029.15 400.505 1029.02 401.572 1029.02 402.757C1029.02 404.355 1029.22 405.721 1029.61 406.855C1030.01 407.979 1030.63 408.84 1031.47 409.438C1032.3 410.026 1033.38 410.319 1034.7 410.319C1035.62 410.319 1036.53 410.216 1037.45 410.01C1038.38 409.804 1039.38 409.51 1040.47 409.129V413.149C1039.47 413.562 1038.48 413.856 1037.51 414.031C1036.54 414.217 1035.46 414.309 1034.25 414.309C1031.92 414.309 1030 413.83 1028.5 412.871C1027 411.902 1025.89 410.551 1025.17 408.819C1024.45 407.077 1024.09 405.046 1024.09 402.726C1024.09 401.015 1024.32 399.448 1024.78 398.025C1025.25 396.602 1025.93 395.37 1026.83 394.329C1027.72 393.288 1028.83 392.484 1030.15 391.917C1031.47 391.35 1032.99 391.066 1034.7 391.066C1035.82 391.066 1036.95 391.211 1038.07 391.499C1039.2 391.778 1040.29 392.164 1041.32 392.659L1039.77 396.556C1038.92 396.154 1038.07 395.803 1037.22 395.504C1036.36 395.206 1035.52 395.056 1034.7 395.056ZM1045.29 414V391.391H1050.08V414H1045.29ZM1055.78 414V391.391H1060.57V410.041H1069.74V414H1055.78ZM1073.68 414V391.391H1078.48V414H1073.68ZM1092.89 414H1088.1V395.381H1081.96V391.391H1099.03V395.381H1092.89V414ZM1109.55 400.701L1114.26 391.391H1119.43L1111.93 405.201V414H1107.16V405.355L1099.66 391.391H1104.86L1109.55 400.701ZM1149.26 402.479C1149.26 405.025 1148.77 407.154 1147.79 408.866C1146.82 410.567 1145.41 411.85 1143.57 412.716C1141.72 413.572 1139.5 414 1136.9 414H1130.5V391.391H1137.6C1139.97 391.391 1142.03 391.814 1143.77 392.659C1145.51 393.494 1146.86 394.736 1147.82 396.386C1148.78 398.025 1149.26 400.056 1149.26 402.479ZM1144.28 402.603C1144.28 400.933 1144.03 399.561 1143.54 398.489C1143.05 397.407 1142.33 396.608 1141.37 396.092C1140.42 395.577 1139.25 395.319 1137.85 395.319H1135.29V410.041H1137.35C1139.69 410.041 1141.43 409.417 1142.56 408.17C1143.71 406.922 1144.28 405.067 1144.28 402.603Z" fill="#333333"/>
<path d="M993.562 734H988.845V711.391H1001.8V715.319H993.562V721.149H1001.23V725.062H993.562V734ZM1020.07 734L1018.43 728.618H1010.19L1008.55 734H1003.38L1011.36 711.298H1017.22L1025.23 734H1020.07ZM1017.28 724.598L1015.65 719.34C1015.54 718.989 1015.4 718.541 1015.23 717.994C1015.06 717.438 1014.89 716.876 1014.72 716.309C1014.55 715.731 1014.42 715.231 1014.32 714.809C1014.21 715.231 1014.07 715.757 1013.88 716.386C1013.71 717.005 1013.54 717.592 1013.37 718.149C1013.21 718.706 1013.09 719.103 1013.02 719.34L1011.39 724.598H1017.28ZM1037.7 715.056C1036.78 715.056 1035.97 715.236 1035.25 715.597C1034.55 715.948 1033.96 716.458 1033.48 717.128C1033 717.798 1032.64 718.608 1032.39 719.556C1032.15 720.505 1032.02 721.572 1032.02 722.757C1032.02 724.355 1032.22 725.721 1032.61 726.855C1033.01 727.979 1033.63 728.84 1034.47 729.438C1035.3 730.026 1036.38 730.319 1037.7 730.319C1038.62 730.319 1039.53 730.216 1040.45 730.01C1041.38 729.804 1042.38 729.51 1043.47 729.129V733.149C1042.47 733.562 1041.48 733.856 1040.51 734.031C1039.54 734.217 1038.46 734.309 1037.25 734.309C1034.92 734.309 1033 733.83 1031.5 732.871C1030 731.902 1028.89 730.551 1028.17 728.819C1027.45 727.077 1027.09 725.046 1027.09 722.726C1027.09 721.015 1027.32 719.448 1027.78 718.025C1028.25 716.602 1028.93 715.37 1029.83 714.329C1030.72 713.288 1031.83 712.484 1033.15 711.917C1034.47 711.35 1035.99 711.066 1037.7 711.066C1038.82 711.066 1039.95 711.211 1041.07 711.499C1042.2 711.778 1043.29 712.164 1044.32 712.659L1042.77 716.556C1041.92 716.154 1041.07 715.803 1040.22 715.504C1039.36 715.206 1038.52 715.056 1037.7 715.056ZM1048.29 734V711.391H1053.08V734H1048.29ZM1058.78 734V711.391H1063.57V730.041H1072.74V734H1058.78ZM1076.68 734V711.391H1081.48V734H1076.68ZM1095.89 734H1091.1V715.381H1084.96V711.391H1102.03V715.381H1095.89V734ZM1112.55 720.701L1117.26 711.391H1122.43L1114.93 725.201V734H1110.16V725.355L1102.66 711.391H1107.86L1112.55 720.701ZM1146.52 734H1133.5V711.391H1146.52V715.319H1138.29V720.283H1145.95V724.211H1138.29V730.041H1146.52V734Z" fill="#333333"/>
<g clip-path="url(#clip4_238_87650)">
<path d="M166.745 296.49C206.921 296.49 239.49 263.921 239.49 223.745C239.49 183.569 206.921 151 166.745 151C126.569 151 94 183.569 94 223.745C94 263.921 126.569 296.49 166.745 296.49Z" fill="#EDF2F6"/>
<path d="M221.304 241.931C221.287 243.824 220.858 245.692 220.047 247.403C219.236 249.115 218.062 250.629 216.608 251.842C216.004 256.629 214.114 260.117 211.886 260.117H205.066C203.254 260.117 201.662 257.779 200.773 254.271H169.876C168.979 257.779 167.388 260.117 165.582 260.117H157.45C155.638 260.117 154.054 257.779 153.157 254.271H140.55C139.94 257.707 138.543 260.117 136.913 260.117H121.552C119.604 260.117 118.045 256.83 117.733 252.511C114.395 250.225 112.186 245.828 112.186 241.281H135.569V188.021C135.554 187.608 135.621 187.196 135.766 186.809C135.911 186.422 136.131 186.068 136.413 185.766C136.696 185.464 137.035 185.221 137.412 185.051C137.788 184.881 138.195 184.787 138.608 184.774H180.339C182.463 184.774 184.782 188.184 188.341 193.867L195.44 205.207C195.636 205.515 195.779 205.853 195.862 206.208L198.818 218.152C205.547 219.451 210.911 224.361 210.911 224.706V230.084C215.581 231.227 217.407 233.909 217.407 234.137V241.931H221.304Z" fill="#0B2127"/>
<path d="M187.139 236.735H202.857C203.062 236.735 203.265 236.775 203.454 236.854C203.643 236.932 203.815 237.047 203.96 237.191C204.104 237.336 204.219 237.508 204.298 237.697C204.376 237.886 204.416 238.089 204.416 238.294V238.683H185.581V238.294C185.581 238.089 185.621 237.886 185.699 237.697C185.778 237.508 185.892 237.336 186.037 237.191C186.182 237.047 186.354 236.932 186.543 236.854C186.732 236.775 186.935 236.735 187.139 236.735Z" fill="white"/>
<path d="M187.139 232.838H202.857C203.062 232.838 203.265 232.878 203.454 232.957C203.643 233.035 203.815 233.15 203.96 233.294C204.104 233.439 204.219 233.611 204.298 233.8C204.376 233.989 204.416 234.192 204.416 234.397V234.786H185.581V234.397C185.581 234.192 185.621 233.989 185.699 233.8C185.778 233.611 185.892 233.439 186.037 233.294C186.182 233.15 186.354 233.035 186.543 232.957C186.732 232.878 186.935 232.838 187.139 232.838V232.838Z" fill="white"/>
<path d="M187.139 228.941H202.857C203.062 228.941 203.265 228.981 203.454 229.06C203.643 229.138 203.815 229.253 203.96 229.397C204.104 229.542 204.219 229.714 204.298 229.903C204.376 230.092 204.416 230.295 204.416 230.5V230.889H185.581V230.5C185.581 230.295 185.621 230.092 185.699 229.903C185.778 229.714 185.892 229.542 186.037 229.397C186.182 229.253 186.354 229.138 186.543 229.06C186.732 228.981 186.935 228.941 187.139 228.941V228.941Z" fill="white"/>
<path d="M192.959 207.325L164.965 206.676C164.851 206.679 164.738 206.705 164.634 206.753C164.53 206.801 164.437 206.87 164.361 206.955C164.284 207.04 164.226 207.14 164.189 207.248C164.152 207.356 164.138 207.471 164.147 207.585L164.108 216.996C164.095 217.223 164.173 217.445 164.324 217.614C164.475 217.783 164.687 217.886 164.913 217.899H195.057C195.188 217.889 195.315 217.85 195.429 217.784C195.543 217.719 195.641 217.628 195.716 217.52C195.791 217.412 195.84 217.288 195.861 217.158C195.882 217.028 195.873 216.895 195.836 216.769L193.719 207.988C193.683 207.809 193.589 207.647 193.452 207.527C193.314 207.407 193.141 207.336 192.959 207.325V207.325Z" fill="white"/>
<path d="M154.066 207.332L161.152 206.956C161.402 206.93 161.651 207.004 161.847 207.16C162.043 207.317 162.169 207.545 162.198 207.794L162.25 216.64C162.224 216.887 162.102 217.114 161.91 217.272C161.718 217.43 161.472 217.506 161.224 217.484L154.079 215.906C153.43 215.906 152.917 215.38 153.092 214.841V208.157C153.091 208.027 153.123 207.899 153.185 207.786C153.248 207.672 153.339 207.576 153.449 207.508C153.634 207.391 153.848 207.33 154.066 207.332Z" fill="white"/>
<path d="M188.302 214.002C187.276 213.999 186.262 214.231 185.34 214.682C184.418 215.132 183.611 215.789 182.983 216.6H185.996C186.699 216.204 187.492 215.996 188.299 215.996C189.106 215.996 189.899 216.204 190.601 216.6H193.615C192.987 215.79 192.181 215.135 191.26 214.685C190.339 214.234 189.327 214.001 188.302 214.002V214.002Z" fill="#0B2127"/>
<path d="M158.951 254.921C160.386 254.921 161.549 252.013 161.549 248.426C161.549 244.839 160.386 241.931 158.951 241.931C157.516 241.931 156.353 244.839 156.353 248.426C156.353 252.013 157.516 254.921 158.951 254.921Z" fill="white"/>
<path d="M170.856 242.138H169.557C169.527 240.245 168.745 238.441 167.385 237.123C166.024 235.805 164.196 235.081 162.302 235.111H147.909V233.812H162.302C164.541 233.782 166.699 234.643 168.303 236.204C169.907 237.766 170.825 239.9 170.856 242.138V242.138Z" fill="white"/>
<path d="M208.963 250.375H184.281V249.076H208.963C211.606 249.076 213.763 247.251 213.763 245.004H215.062C215.036 247.966 212.295 250.375 208.963 250.375Z" fill="white"/>
<path d="M178.761 241.931C180.734 241.931 182.333 240.332 182.333 238.359C182.333 236.386 180.734 234.787 178.761 234.787C176.788 234.787 175.188 236.386 175.188 238.359C175.188 240.332 176.788 241.931 178.761 241.931Z" fill="white"/>
<path d="M211.236 241.931C213.209 241.931 214.808 240.332 214.808 238.359C214.808 236.386 213.209 234.787 211.236 234.787C209.263 234.787 207.664 236.386 207.664 238.359C207.664 240.332 209.263 241.931 211.236 241.931Z" fill="white"/>
<path d="M221.304 260.117H112.186V262.715H221.304V260.117Z" fill="#0B2127"/>
<path d="M123.877 256.869C124.954 256.869 125.826 255.125 125.826 252.972C125.826 250.82 124.954 249.075 123.877 249.075C122.801 249.075 121.929 250.82 121.929 252.972C121.929 255.125 122.801 256.869 123.877 256.869Z" fill="white"/>
<path d="M131.022 256.869C132.098 256.869 132.971 255.125 132.971 252.972C132.971 250.82 132.098 249.075 131.022 249.075C129.946 249.075 129.073 250.82 129.073 252.972C129.073 255.125 129.946 256.869 131.022 256.869Z" fill="white"/>
</g>
<g clip-path="url(#clip5_238_87650)">
<path d="M461.745 296.49C501.921 296.49 534.49 263.921 534.49 223.745C534.49 183.569 501.921 151 461.745 151C421.569 151 389 183.569 389 223.745C389 263.921 421.569 296.49 461.745 296.49Z" fill="#EDF2F6"/>
<path d="M451.405 246.478H410.784V259.792H451.405V246.478Z" fill="#0B2127"/>
<path d="M497.819 180.877H406.887V245.828H497.819V180.877Z" fill="white"/>
<path d="M496.519 182.177V244.529H408.186V182.177H496.519ZM499.117 179.579H405.588V247.127H499.117V179.579Z" fill="#0B2127"/>
<path d="M514.706 265.313H405.588V267.912H514.706V265.313Z" fill="#0B2127"/>
<path d="M487.829 254.921L482.633 247.127H493.025L487.829 254.921Z" fill="#0B2127"/>
<path d="M487.829 258.818L482.633 266.612H493.025L487.829 258.818Z" fill="#0B2127"/>
<path d="M489.778 245.828H485.881V265.313H489.778V245.828Z" fill="#0B2127"/>
<path d="M470.922 254.921L465.726 247.127H476.118L470.922 254.921Z" fill="#0B2127"/>
<path d="M470.922 258.818L465.726 266.612H476.118L470.922 258.818Z" fill="#0B2127"/>
<path d="M472.871 245.828H468.974V265.313H472.871V245.828Z" fill="#0B2127"/>
<path d="M470.632 248.64L469.57 251.103L487.939 259.025L489.001 256.562L470.632 248.64Z" fill="#0B2127"/>
<path d="M487.942 248.624L469.573 256.546L470.636 259.01L489.005 251.087L487.942 248.624Z" fill="#0B2127"/>
<path d="M472.397 179.579H469.799V245.828H472.397V179.579Z" fill="#0B2127"/>
<path d="M461.55 256.22C461.55 261.702 459.179 265.313 456.25 265.313C453.321 265.313 450.944 261.241 450.944 256.22C450.944 251.199 461.55 247.127 461.55 247.127V256.22Z" fill="#0B2127"/>
<path d="M422.041 265.313C420.358 265.313 418.994 262.41 418.994 258.818V247.127H461.498L460.771 257.519C460.771 261.111 457.932 265.313 456.224 265.313H422.041Z" fill="#0B2127"/>
<path d="M421.781 265.313C424.711 265.313 427.087 261.242 427.087 256.22C427.087 251.198 424.711 247.127 421.781 247.127C418.85 247.127 416.474 251.198 416.474 256.22C416.474 261.242 418.85 265.313 421.781 265.313Z" fill="#0B2127"/>
<path d="M421.781 261.241C421.229 260.591 420.378 258.863 420.378 256.22C420.378 253.576 421.229 251.823 421.781 251.199C422.339 251.849 423.19 253.576 423.19 256.22C423.19 258.863 422.339 260.617 421.781 261.241Z" fill="#0B2127"/>
<path d="M423.476 260.117C424.552 260.117 425.424 258.373 425.424 256.22C425.424 254.068 424.552 252.323 423.476 252.323C422.4 252.323 421.527 254.068 421.527 256.22C421.527 258.373 422.4 260.117 423.476 260.117Z" fill="white"/>
<path d="M431.919 260.117C432.996 260.117 433.868 258.373 433.868 256.22C433.868 254.068 432.996 252.323 431.919 252.323C430.843 252.323 429.971 254.068 429.971 256.22C429.971 258.373 430.843 260.117 431.919 260.117Z" fill="white"/>
<path d="M507.451 227.531L503.774 223.855L511.029 216.6L503.774 209.345L507.451 205.669L518.375 216.6L507.451 227.531Z" fill="#0B2127"/>
<path d="M514.706 214.002H480.931V219.198H514.706V214.002Z" fill="#0B2127"/>
<path d="M488.186 227.531L477.255 216.6L488.186 205.669L491.863 209.345L484.601 216.6L491.863 223.855L488.186 227.531Z" fill="#0B2127"/>
<path d="M450.729 201.662H427.347V225.044H450.729V201.662Z" fill="#F65335"/>
<path d="M444.858 217.25L444.897 220.543C444.897 220.543 440.857 220.874 437.499 220.874C434.602 220.874 433.167 218.977 433.167 216.873V209.689C433.167 207.546 434.595 205.675 437.486 205.675C440.928 205.675 444.858 205.929 444.858 205.929V209.455H438.441C437.466 209.455 437.09 209.936 437.09 210.683V215.951C437.07 216.131 437.091 216.313 437.153 216.483C437.215 216.653 437.315 216.807 437.445 216.933C437.576 217.058 437.733 217.152 437.906 217.207C438.079 217.262 438.261 217.276 438.441 217.25H444.858Z" fill="white"/>
</g>
<path d="M977.595 566L960 548.405L942.405 566L960 583.595L977.595 566ZM888 569.048L894 569.048L894 562.952L888 562.952L888 569.048ZM906 569.048L918 569.048L918 562.952L906 562.952L906 569.048ZM930 569.048L942 569.048L942 562.952L930 562.952L930 569.048ZM954 569.048L960 569.048L960 562.952L954 562.952L954 569.048Z" fill="#F65335"/>
<path d="M888 852L884.952 852L884.952 855.048L888 855.048L888 852ZM977.595 852L960 834.405L942.405 852L960 869.595L977.595 852ZM884.952 282L884.952 288.196L891.048 288.196L891.048 282L884.952 282ZM884.952 300.587L884.952 312.978L891.048 312.978L891.048 300.587L884.952 300.587ZM884.952 325.37L884.952 337.761L891.048 337.761L891.048 325.37L884.952 325.37ZM884.952 350.152L884.952 362.543L891.048 362.543L891.048 350.152L884.952 350.152ZM884.952 374.935L884.952 387.326L891.048 387.326L891.048 374.935L884.952 374.935ZM884.952 399.717L884.952 412.109L891.048 412.109L891.048 399.717L884.952 399.717ZM884.952 424.5L884.952 436.891L891.048 436.891L891.048 424.5L884.952 424.5ZM884.952 449.283L884.952 461.674L891.048 461.674L891.048 449.283L884.952 449.283ZM884.952 474.065L884.952 486.456L891.048 486.456L891.048 474.065L884.952 474.065ZM884.952 498.848L884.952 511.239L891.048 511.239L891.048 498.848L884.952 498.848ZM884.952 523.63L884.952 536.022L891.048 536.022L891.048 523.63L884.952 523.63ZM884.952 548.413L884.952 560.804L891.048 560.804L891.048 548.413L884.952 548.413ZM884.952 573.196L884.952 585.587L891.048 585.587L891.048 573.196L884.952 573.196ZM884.952 597.978L884.952 610.369L891.048 610.369L891.048 597.978L884.952 597.978ZM884.952 622.761L884.952 635.152L891.048 635.152L891.048 622.761L884.952 622.761ZM884.952 647.543L884.952 659.935L891.048 659.935L891.048 647.543L884.952 647.543ZM884.952 672.326L884.952 684.717L891.048 684.717L891.048 672.326L884.952 672.326ZM884.952 697.109L884.952 709.5L891.048 709.5L891.048 697.109L884.952 697.109ZM884.952 721.891L884.952 734.282L891.048 734.282L891.048 721.891L884.952 721.891ZM884.952 746.674L884.952 759.065L891.048 759.065L891.048 746.674L884.952 746.674ZM884.952 771.456L884.952 783.848L891.048 783.848L891.048 771.456L884.952 771.456ZM884.952 796.239L884.952 808.63L891.048 808.63L891.048 796.239L884.952 796.239ZM884.952 821.021L884.952 833.413L891.048 833.413L891.048 821.021L884.952 821.021ZM884.952 845.804L884.952 852L891.048 852L891.048 845.804L884.952 845.804ZM888 855.048L894 855.048L894 848.952L888 848.952L888 855.048ZM906 855.048L918 855.048L918 848.952L906 848.952L906 855.048ZM930 855.048L942 855.048L942 848.952L930 848.952L930 855.048ZM954 855.048L960 855.048L960 848.952L954 848.952L954 855.048Z" fill="#F65335"/>
<path d="M977.595 282L960 264.405L942.405 282L960 299.595L977.595 282ZM888 285.048L894 285.048L894 278.952L888 278.952L888 285.048ZM906 285.048L918 285.048L918 278.952L906 278.952L906 285.048ZM930 285.048L942 285.048L942 278.952L930 278.952L930 285.048ZM954 285.048L960 285.048L960 278.952L954 278.952L954 285.048Z" fill="#F65335"/>
<path d="M343.145 355.881C346.063 355.881 348.192 356.479 349.532 357.675C350.872 358.87 351.542 360.546 351.542 362.701C351.542 363.68 351.388 364.613 351.078 365.5C350.779 366.376 350.284 367.154 349.594 367.835C348.903 368.505 347.991 369.036 346.856 369.428C345.733 369.819 344.346 370.015 342.697 370.015H340.284V378.49H336.573V355.881H343.145ZM342.898 358.958H340.284V366.922H342.31C343.475 366.922 344.465 366.788 345.279 366.52C346.094 366.242 346.712 365.804 347.135 365.206C347.558 364.608 347.769 363.819 347.769 362.84C347.769 361.53 347.372 360.556 346.578 359.917C345.795 359.278 344.568 358.958 342.898 358.958ZM356.058 378.49V355.881H359.769V378.49H356.058ZM375.373 358.711C374.29 358.711 373.321 358.907 372.466 359.298C371.62 359.69 370.904 360.257 370.316 360.999C369.728 361.731 369.28 362.623 368.971 363.675C368.661 364.716 368.507 365.891 368.507 367.201C368.507 368.953 368.754 370.464 369.249 371.732C369.744 372.99 370.496 373.959 371.507 374.639C372.517 375.309 373.796 375.644 375.342 375.644C376.301 375.644 377.234 375.551 378.141 375.366C379.048 375.18 379.987 374.928 380.956 374.608V377.763C380.038 378.124 379.11 378.387 378.172 378.552C377.234 378.717 376.151 378.799 374.924 378.799C372.615 378.799 370.698 378.32 369.172 377.361C367.656 376.402 366.522 375.051 365.77 373.309C365.027 371.567 364.656 369.526 364.656 367.185C364.656 365.474 364.893 363.907 365.367 362.484C365.842 361.061 366.532 359.834 367.44 358.803C368.347 357.762 369.466 356.963 370.795 356.406C372.136 355.839 373.667 355.556 375.388 355.556C376.522 355.556 377.636 355.685 378.729 355.943C379.832 356.19 380.853 356.546 381.791 357.01L380.492 360.072C379.708 359.7 378.889 359.381 378.033 359.113C377.177 358.845 376.291 358.711 375.373 358.711ZM403.054 378.49H398.786L391.75 368.221L389.523 370.031V378.49H385.811V355.881H389.523V366.69C389.977 366.134 390.435 365.577 390.899 365.02C391.363 364.463 391.827 363.907 392.291 363.35L398.662 355.881H402.853L394.41 365.778L403.054 378.49ZM432.019 355.881V370.51C432.019 372.087 431.684 373.5 431.014 374.747C430.354 375.995 429.354 376.985 428.014 377.717C426.674 378.438 424.988 378.799 422.957 378.799C420.06 378.799 417.854 378.041 416.338 376.526C414.833 375 414.081 372.974 414.081 370.448V355.881H417.792V370.123C417.792 372.01 418.235 373.402 419.122 374.299C420.009 375.196 421.333 375.644 423.096 375.644C424.313 375.644 425.303 375.433 426.065 375.01C426.839 374.577 427.406 373.948 427.767 373.124C428.138 372.288 428.323 371.283 428.323 370.108V355.881H432.019ZM444.375 355.881C447.293 355.881 449.422 356.479 450.762 357.675C452.102 358.87 452.773 360.546 452.773 362.701C452.773 363.68 452.618 364.613 452.309 365.5C452.01 366.376 451.515 367.154 450.824 367.835C450.133 368.505 449.221 369.036 448.087 369.428C446.963 369.819 445.576 370.015 443.927 370.015H441.514V378.49H437.803V355.881H444.375ZM444.128 358.958H441.514V366.922H443.54C444.705 366.922 445.695 366.788 446.51 366.52C447.324 366.242 447.943 365.804 448.365 365.206C448.788 364.608 448.999 363.819 448.999 362.84C448.999 361.53 448.602 360.556 447.809 359.917C447.025 359.278 445.798 358.958 444.128 358.958ZM465.515 378.49V355.881H469.227V375.335H478.83V378.49H465.515ZM502.816 367.154C502.816 368.897 502.594 370.484 502.151 371.917C501.718 373.34 501.063 374.567 500.187 375.598C499.31 376.619 498.212 377.407 496.893 377.964C495.573 378.521 494.027 378.799 492.253 378.799C490.449 378.799 488.882 378.521 487.552 377.964C486.233 377.407 485.135 376.613 484.258 375.582C483.392 374.551 482.743 373.319 482.31 371.886C481.877 370.453 481.66 368.866 481.66 367.123C481.66 364.793 482.042 362.762 482.805 361.03C483.578 359.288 484.748 357.937 486.315 356.979C487.892 356.01 489.882 355.525 492.284 355.525C494.635 355.525 496.589 356.004 498.145 356.963C499.702 357.922 500.867 359.273 501.64 361.015C502.424 362.747 502.816 364.793 502.816 367.154ZM485.557 367.154C485.557 368.897 485.794 370.407 486.269 371.685C486.743 372.953 487.47 373.933 488.449 374.624C489.439 375.304 490.707 375.644 492.253 375.644C493.81 375.644 495.078 375.304 496.058 374.624C497.037 373.933 497.759 372.953 498.223 371.685C498.687 370.407 498.919 368.897 498.919 367.154C498.919 364.505 498.388 362.432 497.326 360.938C496.274 359.432 494.594 358.68 492.284 358.68C490.738 358.68 489.465 359.02 488.465 359.7C487.475 360.381 486.743 361.355 486.269 362.623C485.794 363.881 485.557 365.391 485.557 367.154ZM521.682 378.49L519.471 372.211H510.826L508.615 378.49H504.702L513.115 355.788H517.229L525.626 378.49H521.682ZM518.512 369.025L516.363 362.84C516.28 362.572 516.161 362.195 516.007 361.711C515.852 361.216 515.698 360.716 515.543 360.211C515.388 359.695 515.259 359.262 515.156 358.912C515.053 359.334 514.924 359.809 514.77 360.334C514.625 360.85 514.481 361.334 514.337 361.788C514.203 362.242 514.1 362.592 514.027 362.84L511.862 369.025H518.512ZM546.967 366.969C546.967 369.515 546.492 371.644 545.544 373.356C544.595 375.057 543.219 376.34 541.415 377.206C539.611 378.062 537.435 378.49 534.889 378.49H528.61V355.881H535.569C537.91 355.881 539.93 356.303 541.631 357.149C543.333 357.984 544.647 359.226 545.575 360.876C546.503 362.515 546.967 364.546 546.967 366.969ZM543.101 367.077C543.101 365.221 542.807 363.695 542.219 362.499C541.642 361.304 540.786 360.417 539.652 359.84C538.528 359.252 537.142 358.958 535.492 358.958H532.322V375.381H534.951C537.683 375.381 539.724 374.685 541.075 373.294C542.425 371.902 543.101 369.83 543.101 367.077ZM564.643 378.49H551.838V355.881H564.643V359.005H555.549V365.144H564.07V368.252H555.549V375.35H564.643V378.49ZM587.886 366.969C587.886 369.515 587.411 371.644 586.463 373.356C585.514 375.057 584.138 376.34 582.334 377.206C580.53 378.062 578.354 378.49 575.808 378.49H569.529V355.881H576.488C578.829 355.881 580.849 356.303 582.55 357.149C584.252 357.984 585.566 359.226 586.494 360.876C587.422 362.515 587.886 364.546 587.886 366.969ZM584.02 367.077C584.02 365.221 583.726 363.695 583.138 362.499C582.561 361.304 581.705 360.417 580.571 359.84C579.447 359.252 578.061 358.958 576.411 358.958H573.241V375.381H575.87C578.602 375.381 580.643 374.685 581.994 373.294C583.344 371.902 584.02 369.83 584.02 367.077ZM410.555 421.49H406.828V402.035H400.209V398.881H417.158V402.035H410.555V421.49ZM426.978 398.881C428.926 398.881 430.535 399.118 431.803 399.592C433.081 400.066 434.03 400.788 434.648 401.757C435.277 402.726 435.592 403.958 435.592 405.453C435.592 406.567 435.385 407.515 434.973 408.299C434.561 409.082 434.019 409.732 433.349 410.247C432.679 410.763 431.963 411.175 431.2 411.484L437.617 421.49H433.427L427.968 412.428H424.333V421.49H420.622V398.881H426.978ZM426.73 401.974H424.333V409.366H426.901C428.622 409.366 429.87 409.046 430.643 408.407C431.426 407.768 431.818 406.824 431.818 405.577C431.818 404.267 431.401 403.34 430.566 402.793C429.741 402.247 428.462 401.974 426.73 401.974ZM454.86 421.49L452.649 415.211H444.004L441.793 421.49H437.88L446.293 398.788H450.407L458.804 421.49H454.86ZM451.69 412.025L449.541 405.84C449.458 405.572 449.34 405.195 449.185 404.711C449.03 404.216 448.876 403.716 448.721 403.211C448.566 402.695 448.437 402.262 448.334 401.912C448.231 402.334 448.102 402.809 447.948 403.334C447.803 403.85 447.659 404.334 447.515 404.788C447.381 405.242 447.278 405.592 447.205 405.84L445.04 412.025H451.69ZM461.788 421.49V398.881H465.5V421.49H461.788ZM471.469 421.49V398.881H475.181V418.335H484.784V421.49H471.469ZM501.501 421.49H488.697V398.881H501.501V402.005H492.408V408.144H500.929V411.252H492.408V418.35H501.501V421.49ZM512.744 398.881C514.692 398.881 516.301 399.118 517.569 399.592C518.847 400.066 519.796 400.788 520.414 401.757C521.043 402.726 521.358 403.958 521.358 405.453C521.358 406.567 521.151 407.515 520.739 408.299C520.327 409.082 519.785 409.732 519.115 410.247C518.445 410.763 517.729 411.175 516.966 411.484L523.383 421.49H519.193L513.734 412.428H510.099V421.49H506.388V398.881H512.744ZM512.496 401.974H510.099V409.366H512.667C514.388 409.366 515.636 409.046 516.409 408.407C517.192 407.768 517.584 406.824 517.584 405.577C517.584 404.267 517.167 403.34 516.332 402.793C515.507 402.247 514.228 401.974 512.496 401.974Z" fill="#4F4F4F"/>
<path d="M718.086 355.875V370.505C718.086 372.082 717.751 373.495 717.081 374.742C716.421 375.989 715.421 376.979 714.08 377.711C712.74 378.433 711.055 378.794 709.024 378.794C706.127 378.794 703.92 378.036 702.405 376.52C700.9 374.995 700.147 372.969 700.147 370.443V355.875H703.858V370.118C703.858 372.005 704.302 373.397 705.188 374.294C706.075 375.19 707.4 375.639 709.163 375.639C710.379 375.639 711.369 375.428 712.132 375.005C712.905 374.572 713.472 373.943 713.833 373.118C714.204 372.283 714.39 371.278 714.39 370.103V355.875H718.086ZM742.736 378.484H738.174L727.101 360.437H726.962C727.004 361.046 727.04 361.69 727.071 362.37C727.112 363.051 727.143 363.752 727.163 364.474C727.194 365.195 727.22 365.927 727.241 366.67V378.484H723.869V355.875H728.401L739.458 373.799H739.566C739.545 373.273 739.519 372.67 739.489 371.989C739.458 371.309 739.427 370.608 739.396 369.886C739.375 369.154 739.36 368.448 739.349 367.767V355.875H742.736V378.484ZM748.674 378.484V355.875H752.386V375.33H761.989V378.484H748.674ZM785.975 367.149C785.975 368.891 785.753 370.479 785.31 371.912C784.877 373.335 784.222 374.562 783.346 375.593C782.469 376.613 781.371 377.402 780.052 377.959C778.732 378.515 777.186 378.794 775.413 378.794C773.608 378.794 772.041 378.515 770.711 377.959C769.392 377.402 768.294 376.608 767.417 375.577C766.551 374.546 765.902 373.314 765.469 371.881C765.036 370.448 764.819 368.86 764.819 367.118C764.819 364.788 765.201 362.757 765.964 361.025C766.737 359.283 767.907 357.932 769.474 356.973C771.052 356.004 773.041 355.52 775.443 355.52C777.794 355.52 779.748 355.999 781.304 356.958C782.861 357.917 784.026 359.267 784.799 361.01C785.583 362.742 785.975 364.788 785.975 367.149ZM768.716 367.149C768.716 368.891 768.954 370.402 769.428 371.68C769.902 372.948 770.629 373.928 771.608 374.618C772.598 375.299 773.866 375.639 775.413 375.639C776.969 375.639 778.237 375.299 779.217 374.618C780.196 373.928 780.918 372.948 781.382 371.68C781.846 370.402 782.078 368.891 782.078 367.149C782.078 364.499 781.547 362.427 780.485 360.932C779.433 359.427 777.753 358.674 775.443 358.674C773.897 358.674 772.624 359.015 771.624 359.695C770.634 360.375 769.902 361.35 769.428 362.618C768.954 363.876 768.716 365.386 768.716 367.149ZM804.841 378.484L802.63 372.206H793.985L791.774 378.484H787.861L796.274 355.783H800.388L808.785 378.484H804.841ZM801.671 369.02L799.522 362.834C799.439 362.566 799.321 362.19 799.166 361.705C799.011 361.211 798.857 360.711 798.702 360.205C798.547 359.69 798.418 359.257 798.315 358.906C798.212 359.329 798.083 359.803 797.929 360.329C797.784 360.845 797.64 361.329 797.496 361.783C797.362 362.236 797.259 362.587 797.186 362.834L795.021 369.02H801.671ZM830.126 366.963C830.126 369.51 829.652 371.639 828.703 373.35C827.755 375.051 826.378 376.335 824.574 377.201C822.77 378.057 820.595 378.484 818.048 378.484H811.769V355.875H818.728C821.069 355.875 823.089 356.298 824.791 357.143C826.492 357.978 827.806 359.221 828.734 360.87C829.662 362.51 830.126 364.541 830.126 366.963ZM826.26 367.072C826.26 365.216 825.966 363.69 825.378 362.494C824.801 361.298 823.945 360.412 822.811 359.834C821.687 359.247 820.301 358.953 818.651 358.953H815.481V375.376H818.11C820.842 375.376 822.883 374.68 824.234 373.288C825.584 371.897 826.26 369.824 826.26 367.072ZM690.837 398.875C693.755 398.875 695.884 399.473 697.224 400.669C698.564 401.865 699.235 403.54 699.235 405.695C699.235 406.675 699.08 407.608 698.771 408.494C698.472 409.371 697.977 410.149 697.286 410.829C696.595 411.499 695.683 412.03 694.549 412.422C693.425 412.814 692.038 413.01 690.389 413.01H687.976V421.484H684.265V398.875H690.837ZM690.59 401.953H687.976V409.917H690.002C691.167 409.917 692.157 409.783 692.971 409.515C693.786 409.237 694.404 408.798 694.827 408.2C695.25 407.602 695.461 406.814 695.461 405.834C695.461 404.525 695.064 403.551 694.27 402.912C693.487 402.272 692.26 401.953 690.59 401.953ZM710.106 398.875C712.055 398.875 713.663 399.112 714.931 399.587C716.209 400.061 717.158 400.783 717.776 401.752C718.405 402.721 718.72 403.953 718.72 405.448C718.72 406.561 718.514 407.51 718.101 408.293C717.689 409.077 717.148 409.726 716.477 410.242C715.807 410.757 715.091 411.17 714.328 411.479L720.746 421.484H716.555L711.096 412.422H707.462V421.484H703.75V398.875H710.106ZM709.859 401.968H707.462V409.36H710.029C711.75 409.36 712.998 409.041 713.771 408.401C714.555 407.762 714.946 406.819 714.946 405.571C714.946 404.262 714.529 403.334 713.694 402.788C712.869 402.241 711.591 401.968 709.859 401.968ZM744.051 410.149C744.051 411.891 743.829 413.479 743.386 414.912C742.953 416.335 742.298 417.562 741.422 418.593C740.545 419.613 739.447 420.402 738.128 420.959C736.808 421.515 735.262 421.794 733.488 421.794C731.684 421.794 730.117 421.515 728.787 420.959C727.467 420.402 726.37 419.608 725.493 418.577C724.627 417.546 723.978 416.314 723.545 414.881C723.112 413.448 722.895 411.86 722.895 410.118C722.895 407.788 723.277 405.757 724.04 404.025C724.813 402.283 725.983 400.932 727.55 399.973C729.127 399.004 731.117 398.52 733.519 398.52C735.87 398.52 737.824 398.999 739.38 399.958C740.937 400.917 742.102 402.267 742.875 404.01C743.659 405.742 744.051 407.788 744.051 410.149ZM726.792 410.149C726.792 411.891 727.029 413.402 727.504 414.68C727.978 415.948 728.705 416.928 729.684 417.618C730.674 418.299 731.942 418.639 733.488 418.639C735.045 418.639 736.313 418.299 737.293 417.618C738.272 416.928 738.994 415.948 739.458 414.68C739.922 413.402 740.154 411.891 740.154 410.149C740.154 407.499 739.623 405.427 738.561 403.932C737.509 402.427 735.829 401.674 733.519 401.674C731.973 401.674 730.7 402.015 729.7 402.695C728.71 403.375 727.978 404.35 727.504 405.618C727.029 406.876 726.792 408.386 726.792 410.149ZM767.263 409.963C767.263 412.51 766.788 414.639 765.84 416.35C764.892 418.051 763.515 419.335 761.711 420.201C759.907 421.057 757.731 421.484 755.185 421.484H748.906V398.875H755.865C758.206 398.875 760.226 399.298 761.927 400.143C763.629 400.978 764.943 402.221 765.871 403.87C766.799 405.51 767.263 407.541 767.263 409.963ZM763.397 410.072C763.397 408.216 763.103 406.69 762.515 405.494C761.938 404.298 761.082 403.412 759.948 402.834C758.824 402.247 757.438 401.953 755.788 401.953H752.618V418.376H755.247C757.979 418.376 760.02 417.68 761.371 416.288C762.721 414.897 763.397 412.824 763.397 410.072ZM789.887 398.875V413.505C789.887 415.082 789.552 416.495 788.882 417.742C788.222 418.989 787.222 419.979 785.882 420.711C784.542 421.433 782.856 421.794 780.825 421.794C777.928 421.794 775.722 421.036 774.206 419.52C772.701 417.995 771.948 415.969 771.948 413.443V398.875H775.66V413.118C775.66 415.005 776.103 416.397 776.99 417.294C777.877 418.19 779.201 418.639 780.964 418.639C782.181 418.639 783.171 418.428 783.933 418.005C784.707 417.572 785.274 416.943 785.635 416.118C786.006 415.283 786.191 414.278 786.191 413.103V398.875H789.887ZM805.305 401.705C804.223 401.705 803.254 401.901 802.398 402.293C801.553 402.685 800.836 403.252 800.248 403.994C799.661 404.726 799.212 405.618 798.903 406.669C798.594 407.711 798.439 408.886 798.439 410.195C798.439 411.948 798.687 413.458 799.181 414.726C799.676 415.984 800.429 416.953 801.439 417.634C802.45 418.304 803.728 418.639 805.274 418.639C806.233 418.639 807.166 418.546 808.073 418.361C808.981 418.175 809.919 417.922 810.888 417.603V420.758C809.97 421.118 809.043 421.381 808.104 421.546C807.166 421.711 806.084 421.794 804.857 421.794C802.547 421.794 800.63 421.314 799.104 420.355C797.589 419.397 796.454 418.046 795.702 416.304C794.96 414.561 794.588 412.52 794.588 410.18C794.588 408.468 794.826 406.901 795.3 405.479C795.774 404.056 796.465 402.829 797.372 401.798C798.279 400.757 799.398 399.958 800.728 399.401C802.068 398.834 803.599 398.551 805.321 398.551C806.455 398.551 807.568 398.679 808.661 398.937C809.764 399.185 810.785 399.54 811.723 400.004L810.424 403.066C809.641 402.695 808.821 402.375 807.965 402.107C807.11 401.839 806.223 401.705 805.305 401.705ZM823.584 421.484H819.857V402.03H813.239V398.875H830.188V402.03H823.584V421.484ZM846.704 415.33C846.704 416.67 846.374 417.824 845.714 418.794C845.064 419.763 844.126 420.505 842.899 421.02C841.683 421.536 840.229 421.794 838.538 421.794C837.714 421.794 836.925 421.747 836.172 421.654C835.42 421.562 834.708 421.428 834.038 421.252C833.378 421.067 832.775 420.845 832.229 420.587V417.092C833.147 417.495 834.172 417.861 835.306 418.19C836.44 418.51 837.595 418.67 838.77 418.67C839.729 418.67 840.523 418.546 841.152 418.299C841.791 418.041 842.265 417.68 842.575 417.216C842.884 416.742 843.039 416.19 843.039 415.561C843.039 414.891 842.858 414.324 842.497 413.86C842.137 413.396 841.59 412.974 840.858 412.592C840.136 412.201 839.229 411.783 838.136 411.34C837.394 411.041 836.683 410.7 836.002 410.319C835.332 409.938 834.734 409.489 834.208 408.974C833.683 408.458 833.265 407.85 832.956 407.149C832.657 406.437 832.507 405.602 832.507 404.644C832.507 403.365 832.811 402.272 833.42 401.365C834.038 400.458 834.904 399.762 836.018 399.277C837.141 398.793 838.451 398.551 839.946 398.551C841.131 398.551 842.245 398.674 843.286 398.922C844.338 399.169 845.369 399.52 846.379 399.973L845.204 402.958C844.276 402.576 843.374 402.272 842.497 402.046C841.631 401.819 840.745 401.705 839.837 401.705C839.054 401.705 838.389 401.824 837.843 402.061C837.296 402.298 836.879 402.633 836.59 403.066C836.312 403.489 836.172 403.994 836.172 404.582C836.172 405.242 836.332 405.798 836.652 406.252C836.982 406.695 837.487 407.102 838.167 407.474C838.858 407.845 839.745 408.257 840.827 408.711C842.075 409.226 843.131 409.767 843.997 410.334C844.874 410.902 845.544 411.582 846.008 412.376C846.472 413.159 846.704 414.144 846.704 415.33Z" fill="#4F4F4F"/>
<path d="M959.197 996.391C961.145 996.391 962.754 996.628 964.022 997.102C965.3 997.577 966.249 998.298 966.867 999.267C967.496 1000.24 967.811 1001.47 967.811 1002.96C967.811 1004.08 967.604 1005.03 967.192 1005.81C966.78 1006.59 966.238 1007.24 965.568 1007.76C964.898 1008.27 964.182 1008.69 963.419 1008.99L969.836 1019H965.646L960.187 1009.94H956.552V1019H952.841V996.391H959.197ZM958.949 999.484H956.552V1006.88H959.12C960.841 1006.88 962.089 1006.56 962.862 1005.92C963.646 1005.28 964.037 1004.33 964.037 1003.09C964.037 1001.78 963.62 1000.85 962.785 1000.3C961.96 999.757 960.681 999.484 958.949 999.484ZM985.873 1019H973.069V996.391H985.873V999.515H976.78V1005.65H985.301V1008.76H976.78V1015.86H985.873V1019ZM998.6 1019H994.873V999.546H988.255V996.391H1005.2V999.546H998.6V1019ZM1026.42 996.391V1011.02C1026.42 1012.6 1026.09 1014.01 1025.42 1015.26C1024.76 1016.51 1023.76 1017.49 1022.42 1018.23C1021.08 1018.95 1019.39 1019.31 1017.36 1019.31C1014.46 1019.31 1012.26 1018.55 1010.74 1017.04C1009.23 1015.51 1008.48 1013.48 1008.48 1010.96V996.391H1012.19V1010.63C1012.19 1012.52 1012.64 1013.91 1013.52 1014.81C1014.41 1015.71 1015.74 1016.15 1017.5 1016.15C1018.71 1016.15 1019.7 1015.94 1020.47 1015.52C1021.24 1015.09 1021.81 1014.46 1022.17 1013.63C1022.54 1012.8 1022.72 1011.79 1022.72 1010.62V996.391H1026.42ZM1038.56 996.391C1040.51 996.391 1042.12 996.628 1043.39 997.102C1044.66 997.577 1045.61 998.298 1046.23 999.267C1046.86 1000.24 1047.17 1001.47 1047.17 1002.96C1047.17 1004.08 1046.97 1005.03 1046.56 1005.81C1046.14 1006.59 1045.6 1007.24 1044.93 1007.76C1044.26 1008.27 1043.55 1008.69 1042.78 1008.99L1049.2 1019H1045.01L1039.55 1009.94H1035.92V1019H1032.2V996.391H1038.56ZM1038.31 999.484H1035.92V1006.88H1038.48C1040.2 1006.88 1041.45 1006.56 1042.23 1005.92C1043.01 1005.28 1043.4 1004.33 1043.4 1003.09C1043.4 1001.78 1042.98 1000.85 1042.15 1000.3C1041.32 999.757 1040.05 999.484 1038.31 999.484ZM1071.3 1019H1066.74L1055.66 1000.95H1055.53C1055.57 1001.56 1055.6 1002.21 1055.63 1002.89C1055.67 1003.57 1055.71 1004.27 1055.73 1004.99C1055.76 1005.71 1055.78 1006.44 1055.8 1007.19V1019H1052.43V996.391H1056.96L1068.02 1014.31H1068.13C1068.11 1013.79 1068.08 1013.19 1068.05 1012.5C1068.02 1011.82 1067.99 1011.12 1067.96 1010.4C1067.94 1009.67 1067.92 1008.96 1067.91 1008.28V996.391H1071.3V1019ZM1098.27 1019H1085.46V996.391H1098.27V999.515H1089.18V1005.65H1097.7V1008.76H1089.18V1015.86H1098.27V1019ZM1112.91 1019L1106.4 1000.12H1106.26C1106.29 1000.54 1106.33 1001.12 1106.37 1001.85C1106.41 1002.58 1106.45 1003.37 1106.48 1004.2C1106.51 1005.04 1106.53 1005.83 1106.53 1006.6V1019H1103.16V996.391H1108.37L1114.63 1014.44H1114.72L1121.2 996.391H1126.4V1019H1122.86V1006.41C1122.86 1005.72 1122.87 1004.97 1122.89 1004.17C1122.92 1003.37 1122.95 1002.6 1122.98 1001.88C1123.02 1001.16 1123.05 1000.58 1123.07 1000.15H1122.95L1116.19 1019H1112.91ZM1138.92 996.391C1141.84 996.391 1143.97 996.989 1145.31 998.185C1146.65 999.381 1147.32 1001.06 1147.32 1003.21C1147.32 1004.19 1147.17 1005.12 1146.86 1006.01C1146.56 1006.89 1146.06 1007.66 1145.37 1008.34C1144.68 1009.02 1143.77 1009.55 1142.64 1009.94C1141.51 1010.33 1140.13 1010.53 1138.48 1010.53H1136.06V1019H1132.35V996.391H1138.92ZM1138.68 999.468H1136.06V1007.43H1138.09C1139.25 1007.43 1140.24 1007.3 1141.06 1007.03C1141.87 1006.75 1142.49 1006.31 1142.91 1005.72C1143.34 1005.12 1143.55 1004.33 1143.55 1003.35C1143.55 1002.04 1143.15 1001.07 1142.36 1000.43C1141.57 999.788 1140.35 999.468 1138.68 999.468ZM1159.68 1019H1155.95V999.546H1149.33V996.391H1166.28V999.546H1159.68V1019ZM1176.15 1006.71L1181.51 996.391H1185.52L1178 1010.22V1019H1174.31V1010.36L1166.78 996.391H1170.81L1176.15 1006.71ZM1016.55 1062H1012.83V1042.55H1006.21V1039.39H1023.16V1042.55H1016.55V1062ZM1032.98 1039.39C1034.93 1039.39 1036.53 1039.63 1037.8 1040.1C1039.08 1040.58 1040.03 1041.3 1040.65 1042.27C1041.28 1043.24 1041.59 1044.47 1041.59 1045.96C1041.59 1047.08 1041.39 1048.03 1040.97 1048.81C1040.56 1049.59 1040.02 1050.24 1039.35 1050.76C1038.68 1051.27 1037.96 1051.69 1037.2 1051.99L1043.62 1062H1039.43L1033.97 1052.94H1030.33V1062H1026.62V1039.39H1032.98ZM1032.73 1042.48H1030.33V1049.88H1032.9C1034.62 1049.88 1035.87 1049.56 1036.64 1048.92C1037.43 1048.28 1037.82 1047.33 1037.82 1046.09C1037.82 1044.78 1037.4 1043.85 1036.57 1043.3C1035.74 1042.76 1034.46 1042.48 1032.73 1042.48ZM1060.86 1062L1058.65 1055.72H1050L1047.79 1062H1043.88L1052.29 1039.3H1056.41L1064.8 1062H1060.86ZM1057.69 1052.54L1055.54 1046.35C1055.46 1046.08 1055.34 1045.71 1055.18 1045.22C1055.03 1044.73 1054.88 1044.23 1054.72 1043.72C1054.57 1043.21 1054.44 1042.77 1054.33 1042.42C1054.23 1042.84 1054.1 1043.32 1053.95 1043.84C1053.8 1044.36 1053.66 1044.84 1053.51 1045.3C1053.38 1045.75 1053.28 1046.1 1053.21 1046.35L1051.04 1052.54H1057.69ZM1067.79 1062V1039.39H1071.5V1062H1067.79ZM1077.47 1062V1039.39H1081.18V1058.85H1090.78V1062H1077.47ZM1107.5 1062H1094.7V1039.39H1107.5V1042.51H1098.41V1048.65H1106.93V1051.76H1098.41V1058.86H1107.5V1062ZM1118.74 1039.39C1120.69 1039.39 1122.3 1039.63 1123.57 1040.1C1124.85 1040.58 1125.8 1041.3 1126.41 1042.27C1127.04 1043.24 1127.36 1044.47 1127.36 1045.96C1127.36 1047.08 1127.15 1048.03 1126.74 1048.81C1126.33 1049.59 1125.79 1050.24 1125.12 1050.76C1124.45 1051.27 1123.73 1051.69 1122.97 1051.99L1129.38 1062H1125.19L1119.73 1052.94H1116.1V1062H1112.39V1039.39H1118.74ZM1118.5 1042.48H1116.1V1049.88H1118.67C1120.39 1049.88 1121.64 1049.56 1122.41 1048.92C1123.19 1048.28 1123.58 1047.33 1123.58 1046.09C1123.58 1044.78 1123.17 1043.85 1122.33 1043.3C1121.51 1042.76 1120.23 1042.48 1118.5 1042.48Z" fill="#4F4F4F"/>
<path opacity="0.25" d="M1314.09 976.867C1315.57 976.867 1316.79 977.047 1317.75 977.406C1318.72 977.766 1319.43 978.312 1319.9 979.047C1320.38 979.781 1320.62 980.715 1320.62 981.848C1320.62 982.691 1320.46 983.41 1320.15 984.004C1319.84 984.598 1319.43 985.09 1318.92 985.48C1318.41 985.871 1317.87 986.184 1317.29 986.418L1322.15 994H1318.98L1314.84 987.133H1312.09V994H1309.27V976.867H1314.09ZM1313.9 979.211H1312.09V984.812H1314.03C1315.34 984.812 1316.28 984.57 1316.87 984.086C1317.46 983.602 1317.76 982.887 1317.76 981.941C1317.76 980.949 1317.44 980.246 1316.81 979.832C1316.18 979.418 1315.22 979.211 1313.9 979.211ZM1334.3 994H1324.6V976.867H1334.3V979.234H1327.41V983.887H1333.87V986.242H1327.41V991.621H1334.3V994ZM1338.01 994V976.867H1340.82V991.609H1348.1V994H1338.01ZM1366.27 985.41C1366.27 986.73 1366.11 987.934 1365.77 989.02C1365.44 990.098 1364.95 991.027 1364.28 991.809C1363.62 992.582 1362.79 993.18 1361.79 993.602C1360.79 994.023 1359.61 994.234 1358.27 994.234C1356.9 994.234 1355.72 994.023 1354.71 993.602C1353.71 993.18 1352.88 992.578 1352.21 991.797C1351.55 991.016 1351.06 990.082 1350.73 988.996C1350.41 987.91 1350.24 986.707 1350.24 985.387C1350.24 983.621 1350.53 982.082 1351.11 980.77C1351.7 979.449 1352.58 978.426 1353.77 977.699C1354.97 976.965 1356.47 976.598 1358.29 976.598C1360.07 976.598 1361.55 976.961 1362.73 977.688C1363.91 978.414 1364.8 979.438 1365.38 980.758C1365.98 982.07 1366.27 983.621 1366.27 985.41ZM1353.2 985.41C1353.2 986.73 1353.38 987.875 1353.73 988.844C1354.09 989.805 1354.64 990.547 1355.39 991.07C1356.14 991.586 1357.1 991.844 1358.27 991.844C1359.45 991.844 1360.41 991.586 1361.15 991.07C1361.89 990.547 1362.44 989.805 1362.79 988.844C1363.14 987.875 1363.32 986.73 1363.32 985.41C1363.32 983.402 1362.92 981.832 1362.11 980.699C1361.32 979.559 1360.04 978.988 1358.29 978.988C1357.12 978.988 1356.16 979.246 1355.4 979.762C1354.65 980.277 1354.09 981.016 1353.73 981.977C1353.38 982.93 1353.2 984.074 1353.2 985.41ZM1380.57 994L1378.89 989.242H1372.34L1370.67 994H1367.7L1374.08 976.797H1377.2L1383.56 994H1380.57ZM1378.17 986.828L1376.54 982.141C1376.48 981.938 1376.39 981.652 1376.27 981.285C1376.15 980.91 1376.04 980.531 1375.92 980.148C1375.8 979.758 1375.7 979.43 1375.63 979.164C1375.55 979.484 1375.45 979.844 1375.33 980.242C1375.22 980.633 1375.11 981 1375 981.344C1374.9 981.688 1374.82 981.953 1374.77 982.141L1373.13 986.828H1378.17ZM1399.73 985.27C1399.73 987.199 1399.37 988.812 1398.65 990.109C1397.93 991.398 1396.89 992.371 1395.52 993.027C1394.16 993.676 1392.51 994 1390.58 994H1385.82V976.867H1391.09C1392.87 976.867 1394.4 977.188 1395.69 977.828C1396.98 978.461 1397.97 979.402 1398.68 980.652C1399.38 981.895 1399.73 983.434 1399.73 985.27ZM1396.8 985.352C1396.8 983.945 1396.58 982.789 1396.13 981.883C1395.7 980.977 1395.05 980.305 1394.19 979.867C1393.34 979.422 1392.29 979.199 1391.04 979.199H1388.63V991.645H1390.63C1392.7 991.645 1394.24 991.117 1395.27 990.062C1396.29 989.008 1396.8 987.438 1396.8 985.352ZM1413.31 989.336C1413.31 990.352 1413.06 991.227 1412.56 991.961C1412.07 992.695 1411.36 993.258 1410.43 993.648C1409.51 994.039 1408.41 994.234 1407.13 994.234C1406.5 994.234 1405.9 994.199 1405.33 994.129C1404.76 994.059 1404.22 993.957 1403.72 993.824C1403.22 993.684 1402.76 993.516 1402.34 993.32V990.672C1403.04 990.977 1403.82 991.254 1404.68 991.504C1405.54 991.746 1406.41 991.867 1407.3 991.867C1408.03 991.867 1408.63 991.773 1409.11 991.586C1409.59 991.391 1409.95 991.117 1410.18 990.766C1410.42 990.406 1410.54 989.988 1410.54 989.512C1410.54 989.004 1410.4 988.574 1410.13 988.223C1409.85 987.871 1409.44 987.551 1408.88 987.262C1408.34 986.965 1407.65 986.648 1406.82 986.312C1406.26 986.086 1405.72 985.828 1405.2 985.539C1404.7 985.25 1404.24 984.91 1403.84 984.52C1403.45 984.129 1403.13 983.668 1402.89 983.137C1402.67 982.598 1402.55 981.965 1402.55 981.238C1402.55 980.27 1402.79 979.441 1403.25 978.754C1403.72 978.066 1404.37 977.539 1405.22 977.172C1406.07 976.805 1407.06 976.621 1408.19 976.621C1409.09 976.621 1409.93 976.715 1410.72 976.902C1411.52 977.09 1412.3 977.355 1413.07 977.699L1412.18 979.961C1411.47 979.672 1410.79 979.441 1410.13 979.27C1409.47 979.098 1408.8 979.012 1408.11 979.012C1407.52 979.012 1407.01 979.102 1406.6 979.281C1406.18 979.461 1405.87 979.715 1405.65 980.043C1405.44 980.363 1405.33 980.746 1405.33 981.191C1405.33 981.691 1405.45 982.113 1405.7 982.457C1405.95 982.793 1406.33 983.102 1406.84 983.383C1407.37 983.664 1408.04 983.977 1408.86 984.32C1409.8 984.711 1410.61 985.121 1411.26 985.551C1411.93 985.98 1412.43 986.496 1412.79 987.098C1413.14 987.691 1413.31 988.438 1413.31 989.336Z" fill="#F65335"/>
<path opacity="0.25" d="M1314.09 668.867C1315.57 668.867 1316.79 669.047 1317.75 669.406C1318.72 669.766 1319.43 670.312 1319.9 671.047C1320.38 671.781 1320.62 672.715 1320.62 673.848C1320.62 674.691 1320.46 675.41 1320.15 676.004C1319.84 676.598 1319.43 677.09 1318.92 677.48C1318.41 677.871 1317.87 678.184 1317.29 678.418L1322.15 686H1318.98L1314.84 679.133H1312.09V686H1309.27V668.867H1314.09ZM1313.9 671.211H1312.09V676.812H1314.03C1315.34 676.812 1316.28 676.57 1316.87 676.086C1317.46 675.602 1317.76 674.887 1317.76 673.941C1317.76 672.949 1317.44 672.246 1316.81 671.832C1316.18 671.418 1315.22 671.211 1313.9 671.211ZM1334.3 686H1324.6V668.867H1334.3V671.234H1327.41V675.887H1333.87V678.242H1327.41V683.621H1334.3V686ZM1338.01 686V668.867H1340.82V683.609H1348.1V686H1338.01ZM1366.27 677.41C1366.27 678.73 1366.11 679.934 1365.77 681.02C1365.44 682.098 1364.95 683.027 1364.28 683.809C1363.62 684.582 1362.79 685.18 1361.79 685.602C1360.79 686.023 1359.61 686.234 1358.27 686.234C1356.9 686.234 1355.72 686.023 1354.71 685.602C1353.71 685.18 1352.88 684.578 1352.21 683.797C1351.55 683.016 1351.06 682.082 1350.73 680.996C1350.41 679.91 1350.24 678.707 1350.24 677.387C1350.24 675.621 1350.53 674.082 1351.11 672.77C1351.7 671.449 1352.58 670.426 1353.77 669.699C1354.97 668.965 1356.47 668.598 1358.29 668.598C1360.07 668.598 1361.55 668.961 1362.73 669.688C1363.91 670.414 1364.8 671.438 1365.38 672.758C1365.98 674.07 1366.27 675.621 1366.27 677.41ZM1353.2 677.41C1353.2 678.73 1353.38 679.875 1353.73 680.844C1354.09 681.805 1354.64 682.547 1355.39 683.07C1356.14 683.586 1357.1 683.844 1358.27 683.844C1359.45 683.844 1360.41 683.586 1361.15 683.07C1361.89 682.547 1362.44 681.805 1362.79 680.844C1363.14 679.875 1363.32 678.73 1363.32 677.41C1363.32 675.402 1362.92 673.832 1362.11 672.699C1361.32 671.559 1360.04 670.988 1358.29 670.988C1357.12 670.988 1356.16 671.246 1355.4 671.762C1354.65 672.277 1354.09 673.016 1353.73 673.977C1353.38 674.93 1353.2 676.074 1353.2 677.41ZM1380.57 686L1378.89 681.242H1372.34L1370.67 686H1367.7L1374.08 668.797H1377.2L1383.56 686H1380.57ZM1378.17 678.828L1376.54 674.141C1376.48 673.938 1376.39 673.652 1376.27 673.285C1376.15 672.91 1376.04 672.531 1375.92 672.148C1375.8 671.758 1375.7 671.43 1375.63 671.164C1375.55 671.484 1375.45 671.844 1375.33 672.242C1375.22 672.633 1375.11 673 1375 673.344C1374.9 673.688 1374.82 673.953 1374.77 674.141L1373.13 678.828H1378.17ZM1399.73 677.27C1399.73 679.199 1399.37 680.812 1398.65 682.109C1397.93 683.398 1396.89 684.371 1395.52 685.027C1394.16 685.676 1392.51 686 1390.58 686H1385.82V668.867H1391.09C1392.87 668.867 1394.4 669.188 1395.69 669.828C1396.98 670.461 1397.97 671.402 1398.68 672.652C1399.38 673.895 1399.73 675.434 1399.73 677.27ZM1396.8 677.352C1396.8 675.945 1396.58 674.789 1396.13 673.883C1395.7 672.977 1395.05 672.305 1394.19 671.867C1393.34 671.422 1392.29 671.199 1391.04 671.199H1388.63V683.645H1390.63C1392.7 683.645 1394.24 683.117 1395.27 682.062C1396.29 681.008 1396.8 679.438 1396.8 677.352ZM1413.31 681.336C1413.31 682.352 1413.06 683.227 1412.56 683.961C1412.07 684.695 1411.36 685.258 1410.43 685.648C1409.51 686.039 1408.41 686.234 1407.13 686.234C1406.5 686.234 1405.9 686.199 1405.33 686.129C1404.76 686.059 1404.22 685.957 1403.72 685.824C1403.22 685.684 1402.76 685.516 1402.34 685.32V682.672C1403.04 682.977 1403.82 683.254 1404.68 683.504C1405.54 683.746 1406.41 683.867 1407.3 683.867C1408.03 683.867 1408.63 683.773 1409.11 683.586C1409.59 683.391 1409.95 683.117 1410.18 682.766C1410.42 682.406 1410.54 681.988 1410.54 681.512C1410.54 681.004 1410.4 680.574 1410.13 680.223C1409.85 679.871 1409.44 679.551 1408.88 679.262C1408.34 678.965 1407.65 678.648 1406.82 678.312C1406.26 678.086 1405.72 677.828 1405.2 677.539C1404.7 677.25 1404.24 676.91 1403.84 676.52C1403.45 676.129 1403.13 675.668 1402.89 675.137C1402.67 674.598 1402.55 673.965 1402.55 673.238C1402.55 672.27 1402.79 671.441 1403.25 670.754C1403.72 670.066 1404.37 669.539 1405.22 669.172C1406.07 668.805 1407.06 668.621 1408.19 668.621C1409.09 668.621 1409.93 668.715 1410.72 668.902C1411.52 669.09 1412.3 669.355 1413.07 669.699L1412.18 671.961C1411.47 671.672 1410.79 671.441 1410.13 671.27C1409.47 671.098 1408.8 671.012 1408.11 671.012C1407.52 671.012 1407.01 671.102 1406.6 671.281C1406.18 671.461 1405.87 671.715 1405.65 672.043C1405.44 672.363 1405.33 672.746 1405.33 673.191C1405.33 673.691 1405.45 674.113 1405.7 674.457C1405.95 674.793 1406.33 675.102 1406.84 675.383C1407.37 675.664 1408.04 675.977 1408.86 676.32C1409.8 676.711 1410.61 677.121 1411.26 677.551C1411.93 677.98 1412.43 678.496 1412.79 679.098C1413.14 679.691 1413.31 680.438 1413.31 681.336Z" fill="#F65335"/>
<path opacity="0.25" d="M1314.09 330.867C1315.57 330.867 1316.79 331.047 1317.75 331.406C1318.72 331.766 1319.43 332.312 1319.9 333.047C1320.38 333.781 1320.62 334.715 1320.62 335.848C1320.62 336.691 1320.46 337.41 1320.15 338.004C1319.84 338.598 1319.43 339.09 1318.92 339.48C1318.41 339.871 1317.87 340.184 1317.29 340.418L1322.15 348H1318.98L1314.84 341.133H1312.09V348H1309.27V330.867H1314.09ZM1313.9 333.211H1312.09V338.812H1314.03C1315.34 338.812 1316.28 338.57 1316.87 338.086C1317.46 337.602 1317.76 336.887 1317.76 335.941C1317.76 334.949 1317.44 334.246 1316.81 333.832C1316.18 333.418 1315.22 333.211 1313.9 333.211ZM1334.3 348H1324.6V330.867H1334.3V333.234H1327.41V337.887H1333.87V340.242H1327.41V345.621H1334.3V348ZM1338.01 348V330.867H1340.82V345.609H1348.1V348H1338.01ZM1366.27 339.41C1366.27 340.73 1366.11 341.934 1365.77 343.02C1365.44 344.098 1364.95 345.027 1364.28 345.809C1363.62 346.582 1362.79 347.18 1361.79 347.602C1360.79 348.023 1359.61 348.234 1358.27 348.234C1356.9 348.234 1355.72 348.023 1354.71 347.602C1353.71 347.18 1352.88 346.578 1352.21 345.797C1351.55 345.016 1351.06 344.082 1350.73 342.996C1350.41 341.91 1350.24 340.707 1350.24 339.387C1350.24 337.621 1350.53 336.082 1351.11 334.77C1351.7 333.449 1352.58 332.426 1353.77 331.699C1354.97 330.965 1356.47 330.598 1358.29 330.598C1360.07 330.598 1361.55 330.961 1362.73 331.688C1363.91 332.414 1364.8 333.438 1365.38 334.758C1365.98 336.07 1366.27 337.621 1366.27 339.41ZM1353.2 339.41C1353.2 340.73 1353.38 341.875 1353.73 342.844C1354.09 343.805 1354.64 344.547 1355.39 345.07C1356.14 345.586 1357.1 345.844 1358.27 345.844C1359.45 345.844 1360.41 345.586 1361.15 345.07C1361.89 344.547 1362.44 343.805 1362.79 342.844C1363.14 341.875 1363.32 340.73 1363.32 339.41C1363.32 337.402 1362.92 335.832 1362.11 334.699C1361.32 333.559 1360.04 332.988 1358.29 332.988C1357.12 332.988 1356.16 333.246 1355.4 333.762C1354.65 334.277 1354.09 335.016 1353.73 335.977C1353.38 336.93 1353.2 338.074 1353.2 339.41ZM1380.57 348L1378.89 343.242H1372.34L1370.67 348H1367.7L1374.08 330.797H1377.2L1383.56 348H1380.57ZM1378.17 340.828L1376.54 336.141C1376.48 335.938 1376.39 335.652 1376.27 335.285C1376.15 334.91 1376.04 334.531 1375.92 334.148C1375.8 333.758 1375.7 333.43 1375.63 333.164C1375.55 333.484 1375.45 333.844 1375.33 334.242C1375.22 334.633 1375.11 335 1375 335.344C1374.9 335.688 1374.82 335.953 1374.77 336.141L1373.13 340.828H1378.17ZM1399.73 339.27C1399.73 341.199 1399.37 342.812 1398.65 344.109C1397.93 345.398 1396.89 346.371 1395.52 347.027C1394.16 347.676 1392.51 348 1390.58 348H1385.82V330.867H1391.09C1392.87 330.867 1394.4 331.188 1395.69 331.828C1396.98 332.461 1397.97 333.402 1398.68 334.652C1399.38 335.895 1399.73 337.434 1399.73 339.27ZM1396.8 339.352C1396.8 337.945 1396.58 336.789 1396.13 335.883C1395.7 334.977 1395.05 334.305 1394.19 333.867C1393.34 333.422 1392.29 333.199 1391.04 333.199H1388.63V345.645H1390.63C1392.7 345.645 1394.24 345.117 1395.27 344.062C1396.29 343.008 1396.8 341.438 1396.8 339.352ZM1413.31 343.336C1413.31 344.352 1413.06 345.227 1412.56 345.961C1412.07 346.695 1411.36 347.258 1410.43 347.648C1409.51 348.039 1408.41 348.234 1407.13 348.234C1406.5 348.234 1405.9 348.199 1405.33 348.129C1404.76 348.059 1404.22 347.957 1403.72 347.824C1403.22 347.684 1402.76 347.516 1402.34 347.32V344.672C1403.04 344.977 1403.82 345.254 1404.68 345.504C1405.54 345.746 1406.41 345.867 1407.3 345.867C1408.03 345.867 1408.63 345.773 1409.11 345.586C1409.59 345.391 1409.95 345.117 1410.18 344.766C1410.42 344.406 1410.54 343.988 1410.54 343.512C1410.54 343.004 1410.4 342.574 1410.13 342.223C1409.85 341.871 1409.44 341.551 1408.88 341.262C1408.34 340.965 1407.65 340.648 1406.82 340.312C1406.26 340.086 1405.72 339.828 1405.2 339.539C1404.7 339.25 1404.24 338.91 1403.84 338.52C1403.45 338.129 1403.13 337.668 1402.89 337.137C1402.67 336.598 1402.55 335.965 1402.55 335.238C1402.55 334.27 1402.79 333.441 1403.25 332.754C1403.72 332.066 1404.37 331.539 1405.22 331.172C1406.07 330.805 1407.06 330.621 1408.19 330.621C1409.09 330.621 1409.93 330.715 1410.72 330.902C1411.52 331.09 1412.3 331.355 1413.07 331.699L1412.18 333.961C1411.47 333.672 1410.79 333.441 1410.13 333.27C1409.47 333.098 1408.8 333.012 1408.11 333.012C1407.52 333.012 1407.01 333.102 1406.6 333.281C1406.18 333.461 1405.87 333.715 1405.65 334.043C1405.44 334.363 1405.33 334.746 1405.33 335.191C1405.33 335.691 1405.45 336.113 1405.7 336.457C1405.95 336.793 1406.33 337.102 1406.84 337.383C1407.37 337.664 1408.04 337.977 1408.86 338.32C1409.8 338.711 1410.61 339.121 1411.26 339.551C1411.93 339.98 1412.43 340.496 1412.79 341.098C1413.14 341.691 1413.31 342.438 1413.31 343.336Z" fill="#F65335"/>
<path opacity="0.25" d="M1310.4 281L1328 298.595L1345.6 281L1328 263.405L1310.4 281ZM1556.6 281L1539 263.405L1521.4 281L1539 298.595L1556.6 281ZM1328 284.048L1539 284.048L1539 277.952L1328 277.952L1328 284.048Z" fill="#556D77"/>
<path opacity="0.25" d="M1187.4 281L1205 298.595L1222.6 281L1205 263.405L1187.4 281ZM1345.6 281L1328 263.405L1310.4 281L1328 298.595L1345.6 281ZM1205 284.048H1328V277.952H1205V284.048Z" fill="#556D77"/>
<path opacity="0.25" d="M1411.4 226L1429 243.595L1446.6 226L1429 208.405L1411.4 226ZM1556.6 226L1539 208.405L1521.4 226L1539 243.595L1556.6 226ZM1429 229.048L1539 229.048L1539 222.952L1429 222.952L1429 229.048Z" fill="#F65335"/>
<path opacity="0.25" d="M1187.4 226L1205 243.595L1222.6 226L1205 208.405L1187.4 226ZM1446.6 226L1429 208.405L1411.4 226L1429 243.595L1446.6 226ZM1205 229.048H1429V222.952H1205V229.048Z" fill="#F65335"/>
<path opacity="0.25" d="M1343.4 175L1361 192.595L1378.6 175L1361 157.405L1343.4 175ZM1556.6 175L1539 157.405L1521.4 175L1539 192.595L1556.6 175ZM1361 178.048L1539 178.048L1539 171.952L1361 171.952L1361 178.048Z" fill="#556D77"/>
<path opacity="0.25" d="M1187.4 175L1205 192.595L1222.6 175L1205 157.405L1187.4 175ZM1378.6 175L1361 157.405L1343.4 175L1361 192.595L1378.6 175ZM1205 178.048H1361V171.952H1205V178.048Z" fill="#556D77"/>
<path opacity="0.25" d="M1310.4 609L1328 626.595L1345.6 609L1328 591.405L1310.4 609ZM1556.6 609L1539 591.405L1521.4 609L1539 626.595L1556.6 609ZM1328 612.048L1333.86 612.048L1333.86 605.952L1328 605.952L1328 612.048ZM1345.58 612.048L1357.31 612.048L1357.31 605.952L1345.58 605.952L1345.58 612.048ZM1369.03 612.048L1380.75 612.048L1380.75 605.952L1369.03 605.952L1369.03 612.048ZM1392.47 612.048L1404.19 612.048L1404.19 605.952L1392.47 605.952L1392.47 612.048ZM1415.92 612.048L1427.64 612.048L1427.64 605.952L1415.92 605.952L1415.92 612.048ZM1439.36 612.048L1451.08 612.048L1451.08 605.952L1439.36 605.952L1439.36 612.048ZM1462.81 612.048L1474.53 612.048L1474.53 605.952L1462.81 605.952L1462.81 612.048ZM1486.25 612.048L1497.97 612.048L1497.97 605.952L1486.25 605.952L1486.25 612.048ZM1509.69 612.048L1521.42 612.048L1521.42 605.952L1509.69 605.952L1509.69 612.048ZM1533.14 612.048L1539 612.048L1539 605.952L1533.14 605.952L1533.14 612.048Z" fill="#F65335"/>
<path opacity="0.25" d="M1187.4 609L1205 626.595L1222.6 609L1205 591.405L1187.4 609ZM1345.6 609L1328 591.405L1310.4 609L1328 626.595L1345.6 609ZM1205 612.048H1211.15V605.952H1205V612.048ZM1223.45 612.048H1235.75V605.952H1223.45V612.048ZM1248.05 612.048H1260.35V605.952H1248.05V612.048ZM1272.65 612.048H1284.95V605.952H1272.65V612.048ZM1297.25 612.048H1309.55V605.952H1297.25V612.048ZM1321.85 612.048H1328V605.952H1321.85V612.048Z" fill="#F65335"/>
<path opacity="0.25" d="M1411.4 554L1429 571.595L1446.6 554L1429 536.405L1411.4 554ZM1556.6 554L1539 536.405L1521.4 554L1539 571.595L1556.6 554ZM1429 557.048L1434.5 557.048L1434.5 550.952L1429 550.952L1429 557.048ZM1445.5 557.048L1456.5 557.048L1456.5 550.952L1445.5 550.952L1445.5 557.048ZM1467.5 557.048L1478.5 557.048L1478.5 550.952L1467.5 550.952L1467.5 557.048ZM1489.5 557.048L1500.5 557.048L1500.5 550.952L1489.5 550.952L1489.5 557.048ZM1511.5 557.048L1522.5 557.048L1522.5 550.952L1511.5 550.952L1511.5 557.048ZM1533.5 557.048L1539 557.048L1539 550.952L1533.5 550.952L1533.5 557.048Z" fill="#556D77"/>
<path opacity="0.25" d="M1187.4 554L1205 571.595L1222.6 554L1205 536.405L1187.4 554ZM1446.6 554L1429 536.405L1411.4 554L1429 571.595L1446.6 554ZM1205 557.048H1211.22V550.952H1205V557.048ZM1223.67 557.048H1236.11V550.952H1223.67V557.048ZM1248.56 557.048H1261V550.952H1248.56V557.048ZM1273.44 557.048H1285.89V550.952H1273.44V557.048ZM1298.33 557.048H1310.78V550.952H1298.33V557.048ZM1323.22 557.048H1335.67V550.952H1323.22V557.048ZM1348.11 557.048H1360.56V550.952H1348.11V557.048ZM1373 557.048H1385.44V550.952H1373V557.048ZM1397.89 557.048H1410.33V550.952H1397.89V557.048ZM1422.78 557.048H1429V550.952H1422.78V557.048Z" fill="#556D77"/>
<path opacity="0.25" d="M1343.4 503L1361 520.595L1378.6 503L1361 485.405L1343.4 503ZM1556.6 503L1539 485.405L1521.4 503L1539 520.595L1556.6 503ZM1361 506.048L1367.36 506.048L1367.36 499.952L1361 499.952L1361 506.048ZM1380.07 506.048L1392.79 506.048L1392.79 499.952L1380.07 499.952L1380.07 506.048ZM1405.5 506.048L1418.21 506.048L1418.21 499.952L1405.5 499.952L1405.5 506.048ZM1430.93 506.048L1443.64 506.048L1443.64 499.952L1430.93 499.952L1430.93 506.048ZM1456.36 506.048L1469.07 506.048L1469.07 499.952L1456.36 499.952L1456.36 506.048ZM1481.79 506.048L1494.5 506.048L1494.5 499.952L1481.79 499.952L1481.79 506.048ZM1507.21 506.048L1519.93 506.048L1519.93 499.952L1507.21 499.952L1507.21 506.048ZM1532.64 506.048L1539 506.048L1539 499.952L1532.64 499.952L1532.64 506.048Z" fill="#F65335"/>
<path opacity="0.25" d="M1187.4 503L1205 520.595L1222.6 503L1205 485.405L1187.4 503ZM1378.6 503L1361 485.405L1343.4 503L1361 520.595L1378.6 503ZM1205 506.048H1211.5V499.952H1205V506.048ZM1224.5 506.048H1237.5V499.952H1224.5V506.048ZM1250.5 506.048H1263.5V499.952H1250.5V506.048ZM1276.5 506.048H1289.5V499.952H1276.5V506.048ZM1302.5 506.048H1315.5V499.952H1302.5V506.048ZM1328.5 506.048H1341.5V499.952H1328.5V506.048ZM1354.5 506.048H1361V499.952H1354.5V506.048Z" fill="#F65335"/>
<path opacity="0.25" d="M1310.4 917L1328 934.595L1345.6 917L1328 899.405L1310.4 917ZM1556.6 917L1539 899.405L1521.4 917L1539 934.595L1556.6 917ZM1328 920.048L1333.86 920.048L1333.86 913.952L1328 913.952L1328 920.048ZM1345.58 920.048L1357.31 920.048L1357.31 913.952L1345.58 913.952L1345.58 920.048ZM1369.03 920.048L1380.75 920.048L1380.75 913.952L1369.03 913.952L1369.03 920.048ZM1392.47 920.048L1404.19 920.048L1404.19 913.952L1392.47 913.952L1392.47 920.048ZM1415.92 920.048L1427.64 920.048L1427.64 913.952L1415.92 913.952L1415.92 920.048ZM1439.36 920.048L1451.08 920.048L1451.08 913.952L1439.36 913.952L1439.36 920.048ZM1462.81 920.048L1474.53 920.048L1474.53 913.952L1462.81 913.952L1462.81 920.048ZM1486.25 920.048L1497.97 920.048L1497.97 913.952L1486.25 913.952L1486.25 920.048ZM1509.69 920.048L1521.42 920.048L1521.42 913.952L1509.69 913.952L1509.69 920.048ZM1533.14 920.048L1539 920.048L1539 913.952L1533.14 913.952L1533.14 920.048Z" fill="#F65335"/>
<path opacity="0.25" d="M1187.4 917L1205 934.595L1222.6 917L1205 899.405L1187.4 917ZM1345.6 917L1328 899.405L1310.4 917L1328 934.595L1345.6 917ZM1205 920.048H1211.15V913.952H1205V920.048ZM1223.45 920.048H1235.75V913.952H1223.45V920.048ZM1248.05 920.048H1260.35V913.952H1248.05V920.048ZM1272.65 920.048H1284.95V913.952H1272.65V920.048ZM1297.25 920.048H1309.55V913.952H1297.25V920.048ZM1321.85 920.048H1328V913.952H1321.85V920.048Z" fill="#F65335"/>
<path opacity="0.25" d="M1411.4 862L1429 879.595L1446.6 862L1429 844.405L1411.4 862ZM1556.6 862L1539 844.405L1521.4 862L1539 879.595L1556.6 862ZM1429 865.048L1434.5 865.048L1434.5 858.952L1429 858.952L1429 865.048ZM1445.5 865.048L1456.5 865.048L1456.5 858.952L1445.5 858.952L1445.5 865.048ZM1467.5 865.048L1478.5 865.048L1478.5 858.952L1467.5 858.952L1467.5 865.048ZM1489.5 865.048L1500.5 865.048L1500.5 858.952L1489.5 858.952L1489.5 865.048ZM1511.5 865.048L1522.5 865.048L1522.5 858.952L1511.5 858.952L1511.5 865.048ZM1533.5 865.048L1539 865.048L1539 858.952L1533.5 858.952L1533.5 865.048Z" fill="#556D77"/>
<path opacity="0.25" d="M1187.4 862L1205 879.595L1222.6 862L1205 844.405L1187.4 862ZM1446.6 862L1429 844.405L1411.4 862L1429 879.595L1446.6 862ZM1205 865.048H1211.22V858.952H1205V865.048ZM1223.67 865.048H1236.11V858.952H1223.67V865.048ZM1248.56 865.048H1261V858.952H1248.56V865.048ZM1273.44 865.048H1285.89V858.952H1273.44V865.048ZM1298.33 865.048H1310.78V858.952H1298.33V865.048ZM1323.22 865.048H1335.67V858.952H1323.22V865.048ZM1348.11 865.048H1360.56V858.952H1348.11V865.048ZM1373 865.048H1385.44V858.952H1373V865.048ZM1397.89 865.048H1410.33V858.952H1397.89V865.048ZM1422.78 865.048H1429V858.952H1422.78V865.048Z" fill="#556D77"/>
<path opacity="0.25" d="M1343.4 811L1361 828.595L1378.6 811L1361 793.405L1343.4 811ZM1556.6 811L1539 793.405L1521.4 811L1539 828.595L1556.6 811ZM1361 814.048L1367.36 814.048L1367.36 807.952L1361 807.952L1361 814.048ZM1380.07 814.048L1392.79 814.048L1392.79 807.952L1380.07 807.952L1380.07 814.048ZM1405.5 814.048L1418.21 814.048L1418.21 807.952L1405.5 807.952L1405.5 814.048ZM1430.93 814.048L1443.64 814.048L1443.64 807.952L1430.93 807.952L1430.93 814.048ZM1456.36 814.048L1469.07 814.048L1469.07 807.952L1456.36 807.952L1456.36 814.048ZM1481.79 814.048L1494.5 814.048L1494.5 807.952L1481.79 807.952L1481.79 814.048ZM1507.21 814.048L1519.93 814.048L1519.93 807.952L1507.21 807.952L1507.21 814.048ZM1532.64 814.048L1539 814.048L1539 807.952L1532.64 807.952L1532.64 814.048Z" fill="#556D77"/>
<path opacity="0.25" d="M1187.4 811L1205 828.595L1222.6 811L1205 793.405L1187.4 811ZM1378.6 811L1361 793.405L1343.4 811L1361 828.595L1378.6 811ZM1205 814.048H1211.5V807.952H1205V814.048ZM1224.5 814.048H1237.5V807.952H1224.5V814.048ZM1250.5 814.048H1263.5V807.952H1250.5V814.048ZM1276.5 814.048H1289.5V807.952H1276.5V814.048ZM1302.5 814.048H1315.5V807.952H1302.5V814.048ZM1328.5 814.048H1341.5V807.952H1328.5V814.048ZM1354.5 814.048H1361V807.952H1354.5V814.048Z" fill="#556D77"/>
<defs>
<clipPath id="clip0_238_87650">
<rect width="145.49" height="145.49" fill="white" transform="translate(692 151)"/>
</clipPath>
<clipPath id="clip1_238_87650">
<rect width="145.49" height="145.49" fill="white" transform="translate(994 151)"/>
</clipPath>
<clipPath id="clip2_238_87650">
<rect width="145.49" height="145.49" fill="white" transform="translate(995 471)"/>
</clipPath>
<clipPath id="clip3_238_87650">
<rect width="145.49" height="145.49" fill="white" transform="translate(995 791)"/>
</clipPath>
<clipPath id="clip4_238_87650">
<rect width="145.49" height="145.49" fill="white" transform="translate(94 151)"/>
</clipPath>
<clipPath id="clip5_238_87650">
<rect width="145.49" height="145.49" fill="white" transform="translate(389 151)"/>
</clipPath>
</defs>
</svg>
