<svg width="1440" height="234" viewBox="0 0 1440 234" fill="none" xmlns="http://www.w3.org/2000/svg">
<path d="M202.539 68.9176C201.734 68.2576 200.947 68.6976 200.233 69.1926C199.766 69.5108 199.325 69.8664 198.915 70.256C194.303 74.9495 189.215 79.093 184.273 83.3465C182.113 85.1799 180.118 87.1967 178.05 89.1401C178.29 86.376 178.83 83.6464 179.661 80.9997C181.491 75.0595 183.321 69.156 185.152 63.2157C185.481 62.0974 185.573 60.7956 184.346 60.2089C183.12 59.6222 182.351 60.8323 181.729 61.749C178.776 66.1003 175.836 70.4638 172.907 74.8395C170.897 77.5646 168.74 80.178 166.446 82.6682C166.904 79.1847 167.197 76.5813 167.599 73.9778C169.192 63.8574 172.193 54.0303 173.932 43.9466C175.122 37.0897 176.092 30.196 177.153 23.3208C177.281 22.4041 177.519 21.2857 176.385 20.8824C175.25 20.479 174.664 21.3957 174.17 22.1841C173.428 23.2934 172.75 24.4443 172.138 25.6309C165.403 39.7664 160.37 54.4337 154.659 69.101C153.435 72.4911 151.967 75.7876 150.266 78.9647C149.661 77.8322 149.311 76.5805 149.242 75.2979C148.656 71.6311 148.07 67.9642 147.411 64.1691C147.265 63.3074 147.009 62.1523 145.782 62.2257C144.556 62.299 144.519 63.4541 144.373 64.3524C143.714 68.3309 143.11 72.3278 142.543 76.3246C142.195 76.8379 141.847 76.8379 141.499 76.3246C139.962 67.1575 137.088 58.3205 135.679 49.1168C134.672 42.6449 133.08 36.2829 131.707 29.8293C131.506 28.876 131.341 27.5193 129.877 27.7759C128.413 28.0326 128.999 29.261 129.035 30.141C129.145 32.6711 129.456 35.2013 129.438 37.7314C129.438 47.0268 129.2 56.3038 129.054 65.5991C129.352 69.8275 129.413 74.0694 129.237 78.3046C129.237 78.763 129.054 79.2764 128.468 78.6347C127.242 74.3995 125.997 70.1643 124.807 65.9475C120.47 51.0786 116.077 36.2463 111.812 21.359C110.066 15.4156 108 9.5708 105.626 3.84999C105.223 2.82328 104.839 0.67821 103.064 2.89663C102.423 3.75833 102.807 4.73 102.899 5.61004C104.217 18.5722 105.791 31.5161 106.468 44.5333C106.944 53.8103 108.554 62.8674 109.799 72.1261C110.257 76.4346 110.714 80.7431 111.208 85.2349C110.303 84.6077 109.578 83.7545 109.103 82.7599C105.717 78.103 103.613 72.6761 100.574 67.8359C93.2532 56.5421 84.9987 45.945 78.2815 34.2846C77.6139 33.2601 76.8275 32.3185 75.9388 31.4795C75.7707 31.3242 75.5699 31.209 75.3512 31.1423C75.1326 31.0757 74.9017 31.0593 74.6759 31.0944C74.404 31.183 74.1773 31.3743 74.044 31.6276C73.9107 31.881 73.8813 32.1764 73.9621 32.4512C74.1269 33.3776 74.3593 34.2906 74.6576 35.1829C76.6526 40.8481 78.8123 46.4767 80.6426 52.1969C84.0103 62.739 87.195 73.3728 90.4895 83.9516C91.4444 86.2137 92.0611 88.6045 92.3198 91.0468C91.3131 90.9552 91.002 90.2951 90.4895 89.8368C79.5078 77.773 68.5261 65.8192 58.185 53.297C54.8905 49.3002 51.5411 45.3767 48.1734 41.4532C47.606 40.7932 46.9288 39.6198 45.8855 40.3898C44.8423 41.1598 45.8855 41.9482 46.1418 42.6265C47.4413 45.34 48.8689 47.9801 50.1867 50.6935C58.1115 66.3427 67.0565 81.4521 76.9637 95.9237C78.1496 97.2336 78.937 98.8557 79.2333 100.599C70.9604 97.0421 63.4928 92.4769 55.6592 88.6451C50.4606 86.0295 45.0322 83.8999 39.4429 82.2832C38.5827 82.0448 37.6127 82.0081 37.1917 82.9065C36.7707 83.8049 37.5395 84.2999 38.0519 84.7399C39.5894 86.2616 41.1451 87.765 42.7375 89.2501C48.7225 94.842 55.8057 99.0222 62.2483 104.009C70.2649 110.224 78.5561 116.091 86.3531 122.6C88.6396 124.395 91.0291 126.054 93.5095 127.568C93.8081 127.808 94.1793 127.938 94.5619 127.938C94.9445 127.938 95.3156 127.808 95.6143 127.568C96.3281 127 95.8888 126.413 95.6143 125.735C95.2665 124.782 94.7907 124.598 93.9487 125.222C93.1068 125.845 92.9238 125.13 92.4662 124.8C90.4163 123.296 88.3481 121.848 86.3165 120.326C77.2749 113.451 68.3431 106.429 59.1551 99.7372C54.7624 96.5287 50.2599 93.4486 46.1235 89.8918C43.9731 88.3508 42.1138 86.4387 40.6326 84.2449C48.663 87.0023 56.4102 90.5264 63.7674 94.7687C69.1484 97.6288 74.621 100.269 80.0752 103.092C80.8256 103.477 81.7041 103.881 82.3813 103.092C83.0586 102.304 82.3814 101.662 82.1068 101.002C81.8323 100.342 81.0818 99.1689 80.5145 98.3438C70.2819 83.0522 60.8375 67.2458 52.2183 50.9869C52.0353 50.3819 52.0353 49.7402 51.9438 49.4468C51.9438 49.7035 52.4563 49.9785 52.8955 50.2902C53.9937 51.3902 55.1834 52.4169 56.1717 53.6086C63.9687 62.9957 72.0098 72.1627 80.2948 81.1097C84.175 85.3083 88.0369 89.5251 91.9354 93.7236C92.5394 94.3836 93.18 95.337 94.2782 94.6587C95.3763 93.9803 95.1018 93.0819 94.8456 92.1285L94.4978 91.0652C89.2632 75.1329 85.0719 58.8705 79.3065 43.1215C78.7391 42.0215 79.3065 40.7381 78.7391 39.6381C78.2632 38.9047 78.1534 37.988 77.6226 37.2547C77.9486 37.6547 78.1913 38.116 78.3364 38.6114C78.6742 39.4568 79.2224 40.2016 79.9288 40.7748C81.7591 43.5432 83.5893 46.275 85.4196 49.0985C91.5511 57.9905 98.2316 66.5525 103.027 76.2696C105.095 80.0654 107.381 83.7384 109.872 87.27C110.44 88.1684 111.044 89.5435 112.416 88.9934C113.789 88.4434 113.203 87.16 113.093 86.2066C112.673 82.3748 112.233 78.543 111.648 74.7295C110.989 70.3844 111.08 65.9108 109.817 61.6573C109.945 58.1372 108.847 54.782 108.609 51.3169C107.712 38.9414 107.365 26.5292 105.37 14.2454C105.036 12.87 104.992 11.4401 105.242 10.0469C105.608 8.61685 105.882 10.4869 106.34 10.3219C108.371 16.5555 110.11 22.8991 111.831 29.206C116.809 46.6417 122.007 64.0408 127.113 81.3848C127.599 83.5924 128.329 85.7386 129.291 87.7834C129.621 88.3884 130.024 88.9751 130.811 88.7001C131.066 88.5796 131.277 88.3823 131.415 88.1358C131.553 87.8893 131.61 87.6059 131.579 87.325C131.579 86.665 131.579 86.0049 131.579 85.3449C130.655 71.271 130.508 57.1567 131.14 43.0665C131.491 42.2961 131.667 41.4567 131.653 40.6098C131.703 41.0954 131.908 41.5519 132.238 41.9115C134.325 55.0204 137.949 67.7809 140.365 80.8165C140.548 81.8248 140.365 83.4932 141.902 83.4199C143.44 83.3465 143.22 81.7698 143.403 80.7064C144.044 77.2046 144.611 73.6662 145.233 70.146C145.599 69.761 145.489 69.1926 145.709 68.716C145.716 68.6428 145.716 68.5691 145.709 68.496H145.892C145.977 68.7361 146.138 68.942 146.35 69.0826C146.935 72.6027 147.521 76.1229 148.18 79.643C148.195 80.0271 148.331 80.3966 148.567 80.6992C148.804 81.0019 149.129 81.2225 149.498 81.3298C149.923 81.4012 150.359 81.3303 150.739 81.1281C151.12 80.9259 151.423 80.6037 151.603 80.2114C152.001 79.5731 152.35 78.905 152.646 78.213C158.137 65.6358 162.657 52.6736 167.764 39.9498C169.656 34.7517 171.957 29.7123 174.646 24.8792C174.685 25.6426 174.685 26.4075 174.646 27.1709C173.291 36.008 171.992 44.845 169.905 53.5353C167.247 63.5312 165.41 73.7285 164.415 84.0249C164.415 84.9783 163.811 86.3167 165.11 86.7567C166.41 87.1967 166.739 85.7666 167.325 84.9233C172.23 78.6347 176.769 72.0894 181.235 65.5075C181.541 65.3963 181.817 65.2141 182.04 64.9758C182.571 64.9758 182.04 65.2692 182.223 65.3975C182.223 65.8192 182.388 66.3509 181.894 66.6625C181.015 67.9459 181.363 69.486 180.887 70.8977C178.71 76.999 176.877 83.218 175.396 89.5251C175.177 90.5702 174.92 91.6702 176.128 92.2202C177.336 92.7702 177.959 92.0369 178.581 91.3218C184.804 84.2632 192.784 79.1114 199.281 72.3278C200.727 72.0894 200.16 72.8961 199.904 73.5378C196.133 80.0281 192.4 86.555 188.556 93.0269C184.125 100.553 179.003 107.649 173.255 114.221C172.706 114.844 171.809 115.523 172.816 116.293C173.822 117.063 174.353 116.11 174.865 115.449C177.245 112.424 179.697 109.436 181.949 106.282C189.398 95.9787 195.401 84.7949 201.789 73.8495C202.231 73.0184 202.593 72.1466 202.869 71.2461C203.095 70.8808 203.186 70.4476 203.126 70.022C203.066 69.5964 202.858 69.2055 202.539 68.9176V68.9176ZM108.92 59.2189C109.085 60.0072 108.719 60.8506 109.213 61.6023C108.701 60.8506 109.067 59.9339 108.92 59.2189V59.2189Z" fill="#E7E7E6" stroke="#EFF0F3" stroke-width="2" stroke-miterlimit="10"/>
<path d="M209.194 88.3783C209.642 88.0243 210.121 88.1967 210.56 88.3988C210.847 88.5283 211.12 88.677 211.376 88.8434C214.27 90.8635 217.421 92.598 220.491 94.3922C221.832 95.1641 223.083 96.0315 224.374 96.8603C224.125 95.5515 223.701 94.2737 223.11 93.0494C221.802 90.3 220.496 87.5681 219.188 84.8186C218.951 84.3003 216.663 80.6877 217.36 80.3485C218.058 80.0093 220.74 83.5455 221.142 83.9534C223.047 85.8899 224.946 87.8328 226.837 89.7821C228.125 90.9871 229.494 92.1318 230.94 93.2109C230.535 91.569 230.261 90.3395 229.922 89.1153C228.591 84.3577 226.443 79.808 225.027 75.0749C224.06 71.8568 223.221 68.6106 222.328 65.3776C222.217 64.9458 222.034 64.4231 222.685 64.1759C223.336 63.9286 223.716 64.3383 224.037 64.6911C224.516 65.1854 224.96 65.7025 225.365 66.2399C229.876 72.6681 233.406 79.4321 237.335 86.1636C238.187 87.724 239.178 89.2281 240.302 90.6639C240.613 90.0939 240.77 89.4791 240.761 88.8631C240.962 87.0834 241.162 85.3037 241.401 83.4592C241.453 83.0406 241.253 78.2081 241.976 78.1842C242.7 78.1602 243.072 82.9786 243.194 83.4007C243.736 85.2694 244.247 87.1495 244.737 89.0314C244.961 89.2599 245.166 89.2432 245.35 88.9812C245.895 84.5285 247.238 80.1692 247.706 75.7051C248.045 72.5653 248.732 69.4499 249.286 66.3012C249.367 65.8361 249.411 65.1801 250.281 65.2323C251.152 65.2845 250.856 65.8995 250.868 66.3216C250.903 67.5354 250.819 68.7589 250.929 69.9666C251.292 74.4067 251.794 78.8265 252.244 83.2596C252.233 85.2937 252.363 87.3228 252.633 89.3374C252.651 89.5563 252.778 89.7927 253.097 89.4581C253.652 87.3761 254.218 85.2932 254.752 83.2218C256.72 75.9108 258.721 68.6147 260.645 61.2985C261.439 58.3756 262.424 55.4844 263.596 52.6376C263.792 52.1278 263.934 51.0847 265.064 52.059C265.474 52.4398 265.286 52.9224 265.267 53.3472C264.999 59.6021 264.58 65.8607 264.691 72.1111C264.774 76.5653 264.182 80.969 263.813 85.4514C263.712 87.5314 263.612 89.6115 263.497 91.7808C264.004 91.4377 264.397 90.9953 264.637 90.4974C266.444 88.1101 267.469 85.4167 269.065 82.9586C272.925 77.2119 277.361 71.7531 280.852 65.8603C281.205 65.3388 281.63 64.8513 282.119 64.4077C282.212 64.3255 282.326 64.2608 282.451 64.2184C282.577 64.1761 282.712 64.1571 282.846 64.1631C283.01 64.1923 283.15 64.2728 283.239 64.3874C283.327 64.502 283.356 64.6417 283.319 64.7768C283.258 65.2273 283.157 65.6746 283.017 66.1151C282.066 68.9171 281.017 71.7096 280.165 74.5299C278.599 79.7275 277.143 84.96 275.621 90.1715C275.148 91.298 274.879 92.4697 274.823 93.6487C275.411 93.5565 275.568 93.2263 275.851 92.9827C281.832 86.6922 287.817 80.4542 293.404 73.9755C295.184 71.9079 296.998 69.8728 298.824 67.8367C299.131 67.4942 299.483 66.9011 300.127 67.2188C300.77 67.5364 300.187 67.9631 300.063 68.2995C299.406 69.6581 298.67 70.9878 298.002 72.3473C293.957 80.2035 289.292 87.8509 284.036 95.2398C283.391 95.9225 282.991 96.7352 282.886 97.5821C287.607 95.4854 291.817 92.9457 296.27 90.7386C299.222 89.2393 302.329 87.961 305.55 86.92C306.046 86.7648 306.614 86.7006 306.897 87.1095C307.179 87.5184 306.747 87.7918 306.463 88.0266C305.619 88.8274 304.764 89.6203 303.886 90.4063C300.588 93.3651 296.59 95.7025 292.999 98.3943C288.531 101.749 283.889 104.95 279.562 108.434C278.289 109.401 276.949 110.308 275.551 111.151C275.385 111.28 275.172 111.36 274.947 111.378C274.723 111.397 274.499 111.352 274.315 111.252C273.873 111.015 274.108 110.714 274.243 110.376C274.41 109.904 274.682 109.794 275.201 110.051C275.721 110.308 275.8 109.958 276.056 109.778C277.202 108.962 278.36 108.17 279.495 107.346C284.539 103.627 289.512 99.8434 294.649 96.2051C297.105 94.4613 299.63 92.7735 301.922 90.8756C303.125 90.0362 304.143 89.0334 304.927 87.9143C300.317 89.6175 295.902 91.6734 291.745 94.0535C288.695 95.6785 285.583 97.2027 282.488 98.8137C282.062 99.0337 281.562 99.2686 281.133 98.9246C280.704 98.5805 281.077 98.2415 281.213 97.913C281.348 97.5845 281.743 96.988 282.045 96.5666C287.459 88.7702 292.391 80.7659 296.82 72.5851C296.904 72.2873 296.879 71.9808 296.921 71.8363C296.931 71.9589 296.641 72.1149 296.395 72.2849C295.792 72.8632 295.133 73.4108 294.599 74.0276C290.385 78.8864 286.018 83.6518 281.5 88.3239C279.384 90.5159 277.28 92.7159 275.153 94.9088C274.824 95.2532 274.485 95.7394 273.813 95.4681C273.141 95.1969 273.268 94.7546 273.381 94.2869L273.544 93.7622C275.997 85.9002 277.824 77.9307 280.596 70.1307C280.886 69.5779 280.503 68.9922 280.793 68.4395C281.044 68.0663 281.073 67.6231 281.356 67.2473C281.18 67.454 281.055 67.6861 280.989 67.9297C280.824 68.3498 280.531 68.7319 280.138 69.0396C279.171 70.45 278.202 71.8429 277.237 73.2796C273.982 77.8219 270.392 82.2329 267.954 87.105C266.887 89.0176 265.687 90.8819 264.362 92.6887C264.063 93.1451 263.762 93.831 262.934 93.6342C262.106 93.4375 262.4 92.7963 262.427 92.3356C262.525 90.4851 262.633 88.6336 262.828 86.7839C263.045 84.6767 262.817 82.5442 263.393 80.4517C263.18 78.7764 263.694 77.121 263.698 75.4544C263.741 69.4999 263.461 63.5543 264.153 57.5908C264.295 56.9178 264.265 56.2327 264.064 55.5792C263.793 54.9137 263.705 55.8201 263.429 55.7633C262.479 58.8386 261.705 61.9523 260.941 65.0476C258.697 73.6155 256.323 82.1764 254.001 90.7066C253.802 91.7844 253.457 92.8447 252.971 93.8677C252.801 94.1725 252.588 94.4721 252.114 94.3786C251.96 94.3333 251.828 94.2493 251.737 94.1381C251.647 94.027 251.602 93.8944 251.609 93.7588C251.583 93.4435 251.557 93.1282 251.531 92.8129C251.524 86.0459 251.059 79.2969 250.137 72.5969C249.9 72.2458 249.765 71.8532 249.74 71.448C249.729 71.6824 249.626 71.9103 249.447 72.098C248.733 78.46 247.102 84.7295 246.192 91.0723C246.124 91.5628 246.297 92.3509 245.391 92.3898C244.484 92.4287 244.552 91.6649 244.403 91.1658C243.889 89.5239 243.418 87.861 242.915 86.2095C242.684 86.0432 242.727 85.7664 242.579 85.5493C242.572 85.5147 242.569 85.4795 242.57 85.4442L242.463 85.453C242.422 85.5718 242.336 85.6778 242.217 85.7552C242.01 87.4648 241.804 89.1745 241.554 90.8876C241.56 91.0718 241.495 91.2548 241.368 91.4107C241.241 91.5667 241.058 91.6877 240.846 91.7567C240.599 91.8112 240.34 91.7983 240.108 91.72C239.877 91.6418 239.686 91.5024 239.565 91.3237C239.306 91.0379 239.075 90.7355 238.874 90.4192C235.156 84.6756 231.993 78.7014 228.495 72.8692C227.18 70.4772 225.631 68.1807 223.863 66.0014C223.87 66.3679 223.9 66.7333 223.952 67.0961C225.093 71.2521 226.202 75.4108 227.768 79.4615C229.721 84.1083 231.199 88.891 232.186 93.7613C232.224 94.2167 232.631 94.827 231.885 95.0996C231.138 95.3723 230.889 94.705 230.512 94.3304C227.384 91.5624 224.461 88.6542 221.579 85.725C221.395 85.6866 221.225 85.6129 221.085 85.5097C220.773 85.5353 221.097 85.6499 220.994 85.72C221.011 85.9214 220.935 86.1833 221.237 86.3084C221.804 86.8792 221.659 87.6315 221.994 88.283C223.512 91.0927 224.832 93.9751 225.949 96.9166C226.119 97.4053 226.312 97.9184 225.624 98.2392C224.936 98.56 224.541 98.2396 224.148 97.928C220.215 94.8556 215.325 92.7784 211.242 89.8506C210.383 89.8063 210.748 90.1643 210.924 90.4585C213.393 93.3774 215.842 96.3155 218.353 99.2221C221.251 102.604 224.538 105.747 228.172 108.61C228.519 108.881 229.073 109.162 228.511 109.579C227.95 109.995 227.601 109.565 227.274 109.274C225.758 107.944 224.2 106.634 222.754 105.236C217.974 100.673 214.009 95.6191 209.828 90.698C209.535 90.3223 209.289 89.9233 209.092 89.5064C208.945 89.3428 208.874 89.1402 208.893 88.934C208.912 88.7278 209.018 88.5311 209.194 88.3783ZM263.824 79.2438C263.758 79.6283 264.006 80.0136 263.745 80.3964C264.017 80.0127 263.766 79.5924 263.824 79.2438Z" fill="#E7E7E6" stroke="#EFF0F3" stroke-width="2" stroke-miterlimit="10"/>
<path d="M109.233 61.621C108.299 60.8143 108.83 59.7875 108.83 58.8892C109.471 59.7509 109.105 60.7226 109.233 61.621Z" fill="#F2F2F2" stroke="#EFF0F3" stroke-width="2" stroke-miterlimit="10"/>
<path d="M1441.11 63.2522C1381.49 65.9657 1330.62 68.1293 1271.02 70.9527C1265.06 71.4317 1259.06 70.7341 1253.36 68.8993C1250.28 67.804 1247.03 67.3122 1243.77 67.4509C1238.95 67.7303 1234.14 66.7776 1229.79 64.6824C1225.74 62.849 1221.33 61.5473 1216.97 63.014C1211.48 64.8474 1206.49 63.9674 1201.31 62.3357C1194.63 60.2272 1187.85 58.3755 1181.17 56.4321C1177.51 55.387 1174.05 54.5987 1170.78 57.2754C1170.46 57.5078 1170.09 57.6676 1169.71 57.7436C1169.32 57.8196 1168.93 57.81 1168.54 57.7155C1164.35 57.0188 1159.96 58.5222 1155.9 56.3587C1154.8 55.8908 1153.57 55.8323 1152.44 56.1937C1146.95 57.6788 1141.05 57.7521 1136.4 61.694C1135.5 62.5633 1134.32 63.094 1133.06 63.1974C1131.81 63.3009 1130.56 62.9708 1129.52 62.2623C1127.56 61.0551 1125.36 60.286 1123.08 60.0073C1118.87 58.9622 1114.81 60.7773 1110.67 60.2639C1105.93 59.6772 1101.37 60.7406 1096.76 61.4556C1089.09 62.629 1081.55 64.3157 1073.68 64.7924C1065.81 65.2691 1057.37 65.1041 1049.28 66.8642C1044.76 67.8542 1040.22 69.3026 1035.48 69.2293C1028.38 69.1193 1021.59 72.0344 1014.43 71.5211C1013.94 71.5211 1013.45 71.8694 1012.93 71.9244C1008.58 72.5111 1004.13 73.4278 999.81 72.7678C995.442 72.1729 991.021 72.0806 986.632 72.4928C979.146 73.0244 969.739 70.9893 962.344 73.2078M962.344 73.2078C961.74 73.3911 962.893 73.2811 962.344 73.2078ZM962.344 73.2078C955.298 72.3094 948.324 71.5027 941.333 73.9962C937.837 75.2612 933.774 76.6546 930.351 75.8296C926.92 74.7105 923.222 74.7105 919.79 75.8296C918.414 76.2607 916.939 76.2607 915.562 75.8296C911 75.8296 910.057 75.1406 907.546 76.3246C903.292 78.2862 898.567 78.986 893.928 78.3413C891.977 78.1601 890.011 78.265 888.09 78.653C884.173 79.588 879.909 78.3963 876.248 80.4864C873.48 81.9384 870.404 82.6995 867.28 82.7049C861.185 82.9982 854.98 82.6132 848.977 83.8416C843.942 85.1445 838.655 85.1066 833.639 83.7316C833.036 83.4648 832.377 83.3503 831.72 83.3983C831.062 83.4462 830.427 83.6551 829.869 84.0066C825.604 87.2517 821.083 86.5183 816.489 85.0883C812.389 83.6906 807.928 83.7946 803.897 85.3816C801.67 86.0883 799.351 86.4591 797.015 86.4817C792.439 86.9217 787.864 85.7116 783.453 86.1883C773.661 87.2517 763.795 87.2333 754.04 88.5534C750.283 88.8228 746.558 89.4365 742.912 90.3868C739.636 91.4502 736.433 89.5067 733.266 90.3868C727.668 91.6382 721.852 91.5377 716.3 90.0935C712.736 89.4553 709.098 89.338 705.501 89.7451C697.027 90.4052 688.534 92.4585 680.005 89.9284C677.075 89.2112 673.993 89.4423 671.202 90.5885C667.504 91.8041 663.636 92.4229 659.744 92.4219C654.436 92.5136 648.909 91.7435 643.949 93.9436C638.749 96.0922 633.123 97.0023 627.513 96.6021C619.087 96.3637 610.659 96.9471 602.346 98.3438C594.732 99.5722 587.118 98.9122 579.523 98.9672C576.375 98.9672 573.3 98.6921 570.371 99.9572C562.098 103.496 553.423 102.762 545.077 101.167C537.902 99.7922 530.892 101.039 523.827 100.617C516.14 100.177 508.416 103.239 500.674 100.617C499.125 100.312 497.524 100.413 496.025 100.911C493.984 101.323 491.894 101.434 489.821 101.241C481.624 100.733 473.418 102.074 465.807 105.164C464.409 105.873 462.908 106.355 461.36 106.594C453.856 106.869 446.406 107.951 438.829 106.741C434.75 105.987 430.62 105.546 426.475 105.421C420.618 105.421 415.218 107.382 409.764 109.088C406.445 110.345 402.767 110.253 399.515 108.831C397.121 107.736 394.404 107.579 391.901 108.391C389.649 108.996 387.343 109.399 385.055 109.931C383.433 110.417 381.723 110.532 380.051 110.269C378.379 110.005 376.786 109.37 375.392 108.409C373.911 107.083 372.014 106.318 370.029 106.246C365.801 106.594 361.811 105.182 357.674 104.999C356.006 104.659 354.277 104.76 352.659 105.292C346.213 108.712 338.85 109.996 331.629 108.959C329.616 108.703 327.566 109.674 325.461 108.959C319.842 107.291 314.022 106.429 308.403 104.816C305.638 104.08 302.736 104.03 299.947 104.669C293.024 105.913 286.409 108.497 280.473 112.278C276.822 114.558 272.535 115.599 268.247 115.248C263.064 114.943 257.864 115.369 252.799 116.513C249.179 117.524 245.46 118.138 241.708 118.346L34.3918 128.118C30.6214 128.283 26.851 128.393 23.099 128.668C18.3585 128.998 17.9925 129.42 18.1938 133.985" stroke="#EFF0F3" stroke-width="3" stroke-miterlimit="10"/>
<path d="M1439.85 232.678V107.144H1119.22C1116.77 107.216 1114.32 107.05 1111.9 106.649C1104.28 105.146 1096.49 105.659 1088.78 104.376C1082.56 103.349 1075.86 103.991 1069.38 103.918C1060.23 103.808 1051.33 102.506 1042.22 102.689C1033.54 102.654 1024.87 102.041 1016.26 100.856C1011.38 100.306 1006.4 100.489 1001.62 99.8108C989.046 98.0223 976.339 97.3291 963.644 97.7391C946.018 98.3258 928.447 100.544 910.767 100.012C904.288 99.8108 897.809 98.9858 891.293 99.4991C882.228 100.042 873.131 99.5809 864.168 98.1241C851.808 96.588 839.357 95.902 826.903 96.0707C815.098 96.0707 803.311 97.3908 791.488 96.3274C781.696 95.4474 771.903 94.4939 762.057 94.2923C756.566 94.1823 751.075 92.7522 745.456 92.5872C733.653 92.3034 721.873 91.3854 710.168 89.8371C699.419 88.2188 688.582 87.2575 677.717 86.9586C658.622 86.4967 639.518 87.4281 620.558 89.7455C603.06 92.0739 585.27 90.0021 567.608 90.4055C558.456 90.5888 549.543 90.5888 540.629 92.4222C535.946 93.5438 531.107 93.8661 526.316 93.3756C516.526 92.1424 506.592 92.7644 497.032 95.209C485.648 98.0874 473.989 98.6925 462.421 99.9942C450.415 101.351 438.316 100.764 426.218 100.214C412.857 99.6092 399.533 98.5825 386.3 96.8407C380.411 95.9157 374.403 96.0585 368.564 97.2624C363.371 98.4084 358.084 99.0712 352.769 99.2425C340.378 99.7008 328.042 99.0408 315.614 101.204C294.127 105.025 272.353 106.994 250.53 107.089C168.618 107.199 86.7073 107.199 4.79607 107.089C3.09391 107.089 1.41005 107.089 -0.273809 107.218C-0.492255 107.535 -0.643856 107.894 -0.719375 108.273C-0.794895 108.651 -0.792751 109.041 -0.713076 109.418H-1.06083C-1.06083 149.57 -1.06083 189.721 -1.15234 229.873C-1.15234 232.806 -0.475139 233.54 2.50822 233.54C480.492 233.466 958.458 233.466 1436.41 233.54C1437.45 233.54 1438.49 233.54 1439.54 233.54C1440.58 233.54 1439.68 232.916 1439.85 232.678Z" fill="white"/>
</svg>
