<svg width="400" height="400" viewBox="0 0 400 400" fill="none" xmlns="http://www.w3.org/2000/svg">
<circle cx="199.5" cy="245.5" r="35.5" fill="#BDBDBD"/>
<rect x="163" y="288" width="72" height="76" rx="16" fill="#BDBDBD"/>
<circle cx="96.5" cy="312.5" r="15.5" fill="#BDBDBD"/>
<rect x="84" y="319.08" width="15.3603" height="53.5713" rx="7.68014" transform="rotate(-36.2384 84 319.08)" fill="#BDBDBD"/>
<rect x="173.754" y="288" width="17.3219" height="92.3527" rx="8.66096" transform="rotate(47.9089 173.754 288)" fill="#BDBDBD"/>
<circle r="15.5007" transform="matrix(-1 0 0 1 303.869 313.479)" fill="#BDBDBD"/>
<rect width="15.361" height="53.5737" rx="7.68049" transform="matrix(-0.806564 -0.591147 -0.591147 0.806564 317.37 319.061)" fill="#BDBDBD"/>
<rect width="17.3227" height="92.3569" rx="8.66136" transform="matrix(-0.670312 0.742079 0.742079 0.670312 226.612 288.979)" fill="#BDBDBD"/>
<path d="M122.432 276C110.324 271.468 86.6756 249.148 88.9458 196.123C91.0268 175.918 92.3511 133.015 81 123.044C96.1348 122.1 129.129 133.468 140.026 186.492C137.188 168.742 146.148 137.558 170.674 111.148C181.079 98.496 198.37 67.7537 184.295 46C203.97 61.1068 238.44 108.542 218.916 177.429C223.078 163.833 237.078 130.182 259.78 104.35C290.617 128.898 341.508 195.897 298.374 267.503" stroke="#F2F2F2" stroke-width="10"/>
<path d="M133.978 99C136.814 93.3564 140.19 76.4554 131 54" stroke="#F2F2F2" stroke-width="10"/>
<path d="M247.044 73C241.371 66.2277 234.621 45.9465 253 19" stroke="#F2F2F2" stroke-width="10"/>
</svg>
