<svg width="400" height="400" viewBox="0 0 400 400" fill="none" xmlns="http://www.w3.org/2000/svg">
<circle cx="199.5" cy="182.5" r="121.5" fill="#F2F2F2"/>
<path d="M187.958 201.333H202.892V197.067C203.292 189.6 209.692 184.133 215.958 178.133C221.958 172.267 227.692 166.133 227.692 156.667C227.692 143.733 218.758 133.333 199.692 133.333C181.825 133.333 169.425 144.267 168.492 161.733H183.958C184.892 152.533 190.625 146.667 198.892 146.667C207.025 146.667 210.758 151.067 210.758 157.867C210.758 163.6 206.358 168 201.425 172.933C195.025 179.2 187.958 185.733 187.958 196.267V201.333ZM195.292 230.933C201.158 230.933 205.958 226.4 205.958 220.667C205.958 214.8 201.158 210.267 195.292 210.267C189.292 210.267 184.358 214.8 184.358 220.667C184.358 226.4 189.292 230.933 195.292 230.933Z" fill="#006FCF"/>
<path d="M308.615 328.803L279.941 230.023L218.838 284.777L308.615 328.803Z" fill="#F2F2F2" stroke="#F2F2F2"/>
<path d="M117 283C135.924 300.991 187.418 330.145 242 302.836" stroke="#BDBDBD" stroke-width="4"/>
</svg>
