<svg width="1640" height="1024" viewBox="0 0 1640 1024" fill="none" xmlns="http://www.w3.org/2000/svg">
<rect width="1640" height="1024" fill="#DEC0C0"/>
<path d="M269.684 166H262.086V137.445H278.961V143.637H269.684V149.086H278.238V155.277H269.684V166ZM301.168 166L299.762 160.648H290.484L289.039 166H280.562L289.879 137.328H300.172L309.605 166H301.168ZM298.16 154.32L296.93 149.633C296.799 149.125 296.611 148.402 296.363 147.465C296.116 146.514 295.868 145.538 295.621 144.535C295.387 143.52 295.204 142.686 295.074 142.035C294.957 142.686 294.788 143.493 294.566 144.457C294.358 145.408 294.137 146.352 293.902 147.289C293.681 148.227 293.486 149.008 293.316 149.633L292.086 154.32H298.16ZM325.426 143.363C324.514 143.363 323.701 143.559 322.984 143.949C322.268 144.327 321.656 144.88 321.148 145.609C320.641 146.339 320.25 147.23 319.977 148.285C319.716 149.327 319.586 150.512 319.586 151.84C319.586 153.637 319.814 155.147 320.27 156.371C320.725 157.595 321.415 158.52 322.34 159.145C323.277 159.77 324.449 160.082 325.855 160.082C327.132 160.082 328.355 159.906 329.527 159.555C330.712 159.203 331.904 158.78 333.102 158.285V164.809C331.839 165.368 330.543 165.772 329.215 166.02C327.9 166.267 326.5 166.391 325.016 166.391C321.917 166.391 319.378 165.779 317.398 164.555C315.432 163.318 313.98 161.605 313.043 159.418C312.118 157.23 311.656 154.691 311.656 151.801C311.656 149.639 311.956 147.66 312.555 145.863C313.167 144.066 314.059 142.51 315.23 141.195C316.402 139.867 317.848 138.845 319.566 138.129C321.298 137.4 323.277 137.035 325.504 137.035C326.884 137.035 328.336 137.198 329.859 137.523C331.396 137.836 332.893 138.344 334.352 139.047L331.988 145.121C330.947 144.626 329.892 144.21 328.824 143.871C327.757 143.533 326.624 143.363 325.426 143.363ZM338.688 166V137.445H346.441V166H338.688ZM352.633 166V137.445H360.348V159.77H371.344V166H352.633ZM375.914 166V137.445H383.668V166H375.914ZM402.457 166H394.742V143.754H387.77V137.445H409.41V143.754H402.457V166ZM423.688 148.031L428.609 137.445H436.969L427.574 154.848V166H419.801V155.082L410.406 137.445H418.805L423.688 148.031ZM467.965 166L466.559 160.648H457.281L455.836 166H447.359L456.676 137.328H466.969L476.402 166H467.965ZM464.957 154.32L463.727 149.633C463.596 149.125 463.408 148.402 463.16 147.465C462.913 146.514 462.665 145.538 462.418 144.535C462.184 143.52 462.001 142.686 461.871 142.035C461.754 142.686 461.585 143.493 461.363 144.457C461.155 145.408 460.934 146.352 460.699 147.289C460.478 148.227 460.283 149.008 460.113 149.633L458.883 154.32H464.957Z" fill="#333333"/>
<path d="M722.684 166H715.086V137.445H731.961V143.637H722.684V149.086H731.238V155.277H722.684V166ZM754.168 166L752.762 160.648H743.484L742.039 166H733.562L742.879 137.328H753.172L762.605 166H754.168ZM751.16 154.32L749.93 149.633C749.799 149.125 749.611 148.402 749.363 147.465C749.116 146.514 748.868 145.538 748.621 144.535C748.387 143.52 748.204 142.686 748.074 142.035C747.957 142.686 747.788 143.493 747.566 144.457C747.358 145.408 747.137 146.352 746.902 147.289C746.681 148.227 746.486 149.008 746.316 149.633L745.086 154.32H751.16ZM778.426 143.363C777.514 143.363 776.701 143.559 775.984 143.949C775.268 144.327 774.656 144.88 774.148 145.609C773.641 146.339 773.25 147.23 772.977 148.285C772.716 149.327 772.586 150.512 772.586 151.84C772.586 153.637 772.814 155.147 773.27 156.371C773.725 157.595 774.415 158.52 775.34 159.145C776.277 159.77 777.449 160.082 778.855 160.082C780.132 160.082 781.355 159.906 782.527 159.555C783.712 159.203 784.904 158.78 786.102 158.285V164.809C784.839 165.368 783.543 165.772 782.215 166.02C780.9 166.267 779.5 166.391 778.016 166.391C774.917 166.391 772.378 165.779 770.398 164.555C768.432 163.318 766.98 161.605 766.043 159.418C765.118 157.23 764.656 154.691 764.656 151.801C764.656 149.639 764.956 147.66 765.555 145.863C766.167 144.066 767.059 142.51 768.23 141.195C769.402 139.867 770.848 138.845 772.566 138.129C774.298 137.4 776.277 137.035 778.504 137.035C779.884 137.035 781.336 137.198 782.859 137.523C784.396 137.836 785.893 138.344 787.352 139.047L784.988 145.121C783.947 144.626 782.892 144.21 781.824 143.871C780.757 143.533 779.624 143.363 778.426 143.363ZM791.688 166V137.445H799.441V166H791.688ZM805.633 166V137.445H813.348V159.77H824.344V166H805.633ZM828.914 166V137.445H836.668V166H828.914ZM855.457 166H847.742V143.754H840.77V137.445H862.41V143.754H855.457V166ZM876.688 148.031L881.609 137.445H889.969L880.574 154.848V166H872.801V155.082L863.406 137.445H871.805L876.688 148.031ZM903.445 137.445H913.406C917.534 137.445 920.477 138.057 922.234 139.281C923.992 140.505 924.871 142.263 924.871 144.555C924.871 145.805 924.643 146.866 924.188 147.738C923.745 148.611 923.178 149.301 922.488 149.809C921.811 150.316 921.115 150.661 920.398 150.844V151.039C921.18 151.234 921.954 151.56 922.723 152.016C923.504 152.458 924.148 153.129 924.656 154.027C925.177 154.913 925.438 156.117 925.438 157.641C925.438 159.372 924.995 160.863 924.109 162.113C923.237 163.363 921.987 164.327 920.359 165.004C918.732 165.668 916.798 166 914.559 166H903.445V137.445ZM911.16 148.402H913.484C914.76 148.402 915.659 148.142 916.18 147.621C916.701 147.087 916.961 146.443 916.961 145.688C916.961 144.906 916.661 144.314 916.062 143.91C915.477 143.493 914.565 143.285 913.328 143.285H911.16V148.402ZM911.16 154.047V160.043H913.875C915.216 160.043 916.154 159.757 916.688 159.184C917.221 158.598 917.488 157.868 917.488 156.996C917.488 156.488 917.371 156.013 917.137 155.57C916.915 155.115 916.531 154.75 915.984 154.477C915.438 154.19 914.682 154.047 913.719 154.047H911.16Z" fill="#333333"/>
<path d="M1175.68 166H1168.09V137.445H1184.96V143.637H1175.68V149.086H1184.24V155.277H1175.68V166ZM1207.17 166L1205.76 160.648H1196.48L1195.04 166H1186.56L1195.88 137.328H1206.17L1215.61 166H1207.17ZM1204.16 154.32L1202.93 149.633C1202.8 149.125 1202.61 148.402 1202.36 147.465C1202.12 146.514 1201.87 145.538 1201.62 144.535C1201.39 143.52 1201.2 142.686 1201.07 142.035C1200.96 142.686 1200.79 143.493 1200.57 144.457C1200.36 145.408 1200.14 146.352 1199.9 147.289C1199.68 148.227 1199.49 149.008 1199.32 149.633L1198.09 154.32H1204.16ZM1231.43 143.363C1230.51 143.363 1229.7 143.559 1228.98 143.949C1228.27 144.327 1227.66 144.88 1227.15 145.609C1226.64 146.339 1226.25 147.23 1225.98 148.285C1225.72 149.327 1225.59 150.512 1225.59 151.84C1225.59 153.637 1225.81 155.147 1226.27 156.371C1226.73 157.595 1227.42 158.52 1228.34 159.145C1229.28 159.77 1230.45 160.082 1231.86 160.082C1233.13 160.082 1234.36 159.906 1235.53 159.555C1236.71 159.203 1237.9 158.78 1239.1 158.285V164.809C1237.84 165.368 1236.54 165.772 1235.21 166.02C1233.9 166.267 1232.5 166.391 1231.02 166.391C1227.92 166.391 1225.38 165.779 1223.4 164.555C1221.43 163.318 1219.98 161.605 1219.04 159.418C1218.12 157.23 1217.66 154.691 1217.66 151.801C1217.66 149.639 1217.96 147.66 1218.55 145.863C1219.17 144.066 1220.06 142.51 1221.23 141.195C1222.4 139.867 1223.85 138.845 1225.57 138.129C1227.3 137.4 1229.28 137.035 1231.5 137.035C1232.88 137.035 1234.34 137.198 1235.86 137.523C1237.4 137.836 1238.89 138.344 1240.35 139.047L1237.99 145.121C1236.95 144.626 1235.89 144.21 1234.82 143.871C1233.76 143.533 1232.62 143.363 1231.43 143.363ZM1244.69 166V137.445H1252.44V166H1244.69ZM1258.63 166V137.445H1266.35V159.77H1277.34V166H1258.63ZM1281.91 166V137.445H1289.67V166H1281.91ZM1308.46 166H1300.74V143.754H1293.77V137.445H1315.41V143.754H1308.46V166ZM1329.69 148.031L1334.61 137.445H1342.97L1333.57 154.848V166H1325.8V155.082L1316.41 137.445H1324.8L1329.69 148.031ZM1369.16 143.363C1368.25 143.363 1367.43 143.559 1366.72 143.949C1366 144.327 1365.39 144.88 1364.88 145.609C1364.38 146.339 1363.98 147.23 1363.71 148.285C1363.45 149.327 1363.32 150.512 1363.32 151.84C1363.32 153.637 1363.55 155.147 1364 156.371C1364.46 157.595 1365.15 158.52 1366.07 159.145C1367.01 159.77 1368.18 160.082 1369.59 160.082C1370.87 160.082 1372.09 159.906 1373.26 159.555C1374.45 159.203 1375.64 158.78 1376.84 158.285V164.809C1375.57 165.368 1374.28 165.772 1372.95 166.02C1371.63 166.267 1370.23 166.391 1368.75 166.391C1365.65 166.391 1363.11 165.779 1361.13 164.555C1359.17 163.318 1357.71 161.605 1356.78 159.418C1355.85 157.23 1355.39 154.691 1355.39 151.801C1355.39 149.639 1355.69 147.66 1356.29 145.863C1356.9 144.066 1357.79 142.51 1358.96 141.195C1360.14 139.867 1361.58 138.845 1363.3 138.129C1365.03 137.4 1367.01 137.035 1369.24 137.035C1370.62 137.035 1372.07 137.198 1373.59 137.523C1375.13 137.836 1376.63 138.344 1378.09 139.047L1375.72 145.121C1374.68 144.626 1373.63 144.21 1372.56 143.871C1371.49 143.533 1370.36 143.363 1369.16 143.363Z" fill="#333333"/>
<g clip-path="url(#clip0_211_89572)">
<path d="M368 433C429.856 433 480 382.856 480 321C480 259.144 429.856 209 368 209C306.144 209 256 259.144 256 321C256 382.856 306.144 433 368 433Z" fill="#EDF2F6"/>
<path d="M343.79 285.53L384 271.02V261H343.79V285.53Z" fill="#0B2127"/>
<path d="M448 261H408V381H448V261Z" fill="#0B2127"/>
<path d="M290 379V278.51L342 263.65V287.89L406 263.89V379H290Z" fill="white"/>
<path d="M340 266.3V290.77L345.4 288.77L404 266.77V377H292V280L340 266.3ZM408 261L344 285V261L288 277V381H408V261Z" fill="#0B2127"/>
<path d="M392.2 316.8V361.2H374.8V316.8H392.2ZM396 313H371V365H396V313Z" fill="#0B2127"/>
<path d="M393.5 325H373.5V329H393.5V325Z" fill="#0B2127"/>
<path d="M393.5 337H373.5V341H393.5V337Z" fill="#0B2127"/>
<path d="M393.5 349H373.5V353H393.5V349Z" fill="#0B2127"/>
<path d="M375 361H367V365H375V361Z" fill="#0B2127"/>
<path d="M358.7 316.8V361.2H341.3V316.8H358.7V316.8ZM362.5 313H337.5V365H362.5V313Z" fill="#0B2127"/>
<path d="M360 325H340V329H360V325Z" fill="#0B2127"/>
<path d="M360 337H340V341H360V337Z" fill="#0B2127"/>
<path d="M360 349H340V353H360V349Z" fill="#0B2127"/>
<path d="M341.5 361H333.5V365H341.5V361Z" fill="#0B2127"/>
<path d="M325.2 316.8V361.2H307.8V316.8H325.2ZM329 313H304V365H329V313Z" fill="#0B2127"/>
<path d="M326.5 325H306.5V365H326.5V325Z" fill="#0B2127"/>
<path d="M308 361H300V365H308V361Z" fill="#0B2127"/>
</g>
<rect x="175" y="477" width="386" height="113" rx="56.5" fill="#F2F2F2" stroke="#E45F42" stroke-width="2"/>
<path d="M246.083 546H241.304V532.917C241.304 532.556 241.31 532.113 241.32 531.587C241.33 531.051 241.346 530.505 241.366 529.948C241.387 529.381 241.408 528.871 241.428 528.417C241.315 528.551 241.083 528.783 240.732 529.113C240.392 529.432 240.072 529.721 239.773 529.979L237.175 532.067L234.871 529.19L242.155 523.391H246.083V546ZM268.197 546H252.392V542.675L258.068 536.938C259.212 535.763 260.13 534.783 260.821 534C261.522 533.206 262.027 532.484 262.336 531.835C262.656 531.185 262.815 530.489 262.815 529.747C262.815 528.85 262.563 528.18 262.058 527.736C261.563 527.283 260.898 527.056 260.063 527.056C259.187 527.056 258.336 527.257 257.511 527.659C256.686 528.061 255.826 528.633 254.929 529.376L252.331 526.298C252.98 525.742 253.666 525.216 254.387 524.721C255.119 524.226 255.965 523.829 256.924 523.53C257.893 523.221 259.052 523.066 260.403 523.066C261.888 523.066 263.161 523.334 264.223 523.87C265.295 524.406 266.12 525.138 266.697 526.066C267.274 526.984 267.563 528.025 267.563 529.19C267.563 530.438 267.316 531.577 266.821 532.608C266.326 533.639 265.604 534.659 264.656 535.67C263.718 536.68 262.584 537.799 261.254 539.026L258.346 541.763V541.979H268.197V546ZM290.621 546H285.842V536.242H276.888V546H272.094V523.391H276.888V532.252H285.842V523.391H290.621V546ZM302.93 523.391C304.982 523.391 306.673 523.638 308.003 524.133C309.343 524.628 310.338 525.376 310.987 526.376C311.637 527.376 311.962 528.639 311.962 530.164C311.962 531.195 311.766 532.097 311.374 532.871C310.982 533.644 310.467 534.299 309.827 534.835C309.188 535.371 308.498 535.809 307.755 536.149L314.405 546H309.085L303.688 537.324H301.136V546H296.342V523.391H302.93ZM302.59 527.319H301.136V533.427H302.683C304.271 533.427 305.405 533.164 306.085 532.639C306.776 532.103 307.121 531.319 307.121 530.288C307.121 529.216 306.75 528.453 306.008 527.999C305.276 527.546 304.137 527.319 302.59 527.319ZM338.499 546H325.478V523.391H338.499V527.319H330.272V532.283H337.926V536.211H330.272V542.041H338.499V546ZM361.51 546H356.035L350.777 537.448L345.519 546H340.385L347.886 534.34L340.865 523.391H346.154L351.025 531.525L355.803 523.391H360.968L353.87 534.603L361.51 546ZM373.077 546H368.283V527.381H362.144V523.391H379.217V527.381H373.077V546ZM395.717 546H382.696V523.391H395.717V527.319H387.49V532.283H395.145V536.211H387.49V542.041H395.717V546ZM420.507 546H414.414L404.578 528.896H404.439C404.48 529.608 404.516 530.324 404.547 531.046C404.578 531.768 404.609 532.489 404.64 533.211C404.671 533.922 404.702 534.639 404.733 535.36V546H400.449V523.391H406.496L416.316 540.325H416.424C416.403 539.623 416.378 538.928 416.347 538.237C416.316 537.546 416.285 536.855 416.254 536.165C416.233 535.474 416.213 534.783 416.192 534.092V523.391H420.507V546ZM439.559 539.721C439.559 541.062 439.234 542.227 438.585 543.216C437.935 544.206 436.987 544.969 435.739 545.505C434.502 546.041 432.997 546.309 431.224 546.309C430.44 546.309 429.672 546.258 428.919 546.155C428.177 546.052 427.461 545.902 426.77 545.706C426.089 545.5 425.44 545.247 424.821 544.948V540.495C425.893 540.969 427.007 541.397 428.162 541.778C429.316 542.16 430.461 542.35 431.595 542.35C432.378 542.35 433.007 542.247 433.481 542.041C433.966 541.835 434.316 541.551 434.533 541.191C434.749 540.83 434.858 540.417 434.858 539.953C434.858 539.386 434.667 538.902 434.286 538.5C433.904 538.098 433.378 537.721 432.708 537.371C432.048 537.02 431.301 536.644 430.466 536.242C429.94 535.994 429.368 535.696 428.749 535.345C428.131 534.984 427.543 534.546 426.986 534.031C426.43 533.515 425.971 532.891 425.61 532.159C425.259 531.417 425.084 530.53 425.084 529.499C425.084 528.149 425.393 526.994 426.012 526.035C426.631 525.077 427.512 524.345 428.656 523.839C429.811 523.324 431.172 523.066 432.739 523.066C433.914 523.066 435.033 523.205 436.095 523.484C437.167 523.752 438.286 524.144 439.451 524.659L437.904 528.386C436.863 527.963 435.93 527.639 435.105 527.412C434.28 527.175 433.44 527.056 432.584 527.056C431.986 527.056 431.476 527.154 431.053 527.35C430.631 527.535 430.311 527.803 430.095 528.154C429.878 528.494 429.77 528.891 429.77 529.345C429.77 529.881 429.925 530.334 430.234 530.706C430.553 531.066 431.028 531.417 431.657 531.757C432.296 532.097 433.09 532.494 434.038 532.948C435.193 533.494 436.177 534.067 436.992 534.665C437.817 535.252 438.451 535.948 438.894 536.752C439.337 537.546 439.559 538.536 439.559 539.721ZM443.657 546V523.391H448.451V546H443.657ZM474.663 534.665C474.663 536.407 474.447 537.995 474.014 539.428C473.581 540.85 472.921 542.077 472.034 543.108C471.158 544.139 470.045 544.933 468.694 545.49C467.343 546.036 465.745 546.309 463.9 546.309C462.055 546.309 460.457 546.036 459.106 545.49C457.755 544.933 456.637 544.139 455.75 543.108C454.874 542.077 454.219 540.845 453.786 539.412C453.353 537.979 453.137 536.386 453.137 534.634C453.137 532.293 453.518 530.257 454.281 528.525C455.054 526.783 456.24 525.432 457.838 524.473C459.436 523.515 461.467 523.035 463.931 523.035C466.385 523.035 468.4 523.515 469.978 524.473C471.565 525.432 472.741 526.783 473.503 528.525C474.277 530.267 474.663 532.314 474.663 534.665ZM458.163 534.665C458.163 536.242 458.359 537.603 458.75 538.747C459.152 539.881 459.776 540.758 460.622 541.376C461.467 541.984 462.56 542.289 463.9 542.289C465.261 542.289 466.364 541.984 467.209 541.376C468.055 540.758 468.668 539.881 469.05 538.747C469.441 537.603 469.637 536.242 469.637 534.665C469.637 532.293 469.194 530.427 468.307 529.066C467.421 527.706 465.962 527.025 463.931 527.025C462.58 527.025 461.477 527.334 460.622 527.953C459.776 528.561 459.152 529.438 458.75 530.582C458.359 531.716 458.163 533.077 458.163 534.665ZM499.406 546H493.313L483.478 528.896H483.339C483.38 529.608 483.416 530.324 483.447 531.046C483.478 531.768 483.509 532.489 483.54 533.211C483.571 533.922 483.602 534.639 483.633 535.36V546H479.349V523.391H485.396L495.216 540.325H495.324C495.303 539.623 495.277 538.928 495.246 538.237C495.216 537.546 495.185 536.855 495.154 536.165C495.133 535.474 495.112 534.783 495.092 534.092V523.391H499.406V546Z" fill="#E45F42"/>
<g clip-path="url(#clip1_211_89572)">
<path d="M1272 433C1333.86 433 1384 382.856 1384 321C1384 259.144 1333.86 209 1272 209C1210.14 209 1160 259.144 1160 321C1160 382.856 1210.14 433 1272 433Z" fill="#EDF2F6"/>
<path d="M1247.79 285.53L1288 271.02V261H1247.79V285.53Z" fill="#0B2127"/>
<path d="M1352 261H1312V381H1352V261Z" fill="#0B2127"/>
<path d="M1194 379V278.51L1246 263.65V287.89L1310 263.89V379H1194Z" fill="white"/>
<path d="M1244 266.3V290.77L1249.4 288.77L1308 266.77V377H1196V280L1244 266.3ZM1312 261L1248 285V261L1192 277V381H1312V261Z" fill="#0B2127"/>
<path d="M1296.2 316.8V361.2H1278.8V316.8H1296.2ZM1300 313H1275V365H1300V313Z" fill="#0B2127"/>
<path d="M1297.5 325H1277.5V329H1297.5V325Z" fill="#0B2127"/>
<path d="M1297.5 337H1277.5V341H1297.5V337Z" fill="#0B2127"/>
<path d="M1297.5 349H1277.5V353H1297.5V349Z" fill="#0B2127"/>
<path d="M1279 361H1271V365H1279V361Z" fill="#0B2127"/>
<path d="M1262.7 316.8V361.2H1245.3V316.8H1262.7V316.8ZM1266.5 313H1241.5V365H1266.5V313Z" fill="#0B2127"/>
<path d="M1264 325H1244V329H1264V325Z" fill="#0B2127"/>
<path d="M1264 337H1244V341H1264V337Z" fill="#0B2127"/>
<path d="M1264 349H1244V353H1264V349Z" fill="#0B2127"/>
<path d="M1245.5 361H1237.5V365H1245.5V361Z" fill="#0B2127"/>
<path d="M1229.2 316.8V361.2H1211.8V316.8H1229.2ZM1233 313H1208V365H1233V313Z" fill="#0B2127"/>
<path d="M1230.5 325H1210.5V365H1230.5V325Z" fill="#0B2127"/>
<path d="M1212 361H1204V365H1212V361Z" fill="#0B2127"/>
</g>
<rect x="1079" y="477" width="386" height="113" rx="56.5" fill="#F2F2F2" stroke="#E45F42" stroke-width="2"/>
<rect x="1079" y="635" width="386" height="113" rx="56.5" fill="#F2F2F2" stroke="#E45F42" stroke-width="2"/>
<path d="M1150.08 546H1145.3V532.917C1145.3 532.556 1145.31 532.113 1145.32 531.587C1145.33 531.051 1145.35 530.505 1145.37 529.948C1145.39 529.381 1145.41 528.871 1145.43 528.417C1145.31 528.551 1145.08 528.783 1144.73 529.113C1144.39 529.432 1144.07 529.721 1143.77 529.979L1141.18 532.067L1138.87 529.19L1146.15 523.391H1150.08V546ZM1172.2 546H1156.39V542.675L1162.07 536.938C1163.21 535.763 1164.13 534.783 1164.82 534C1165.52 533.206 1166.03 532.484 1166.34 531.835C1166.66 531.185 1166.82 530.489 1166.82 529.747C1166.82 528.85 1166.56 528.18 1166.06 527.736C1165.56 527.283 1164.9 527.056 1164.06 527.056C1163.19 527.056 1162.34 527.257 1161.51 527.659C1160.69 528.061 1159.83 528.633 1158.93 529.376L1156.33 526.298C1156.98 525.742 1157.67 525.216 1158.39 524.721C1159.12 524.226 1159.96 523.829 1160.92 523.53C1161.89 523.221 1163.05 523.066 1164.4 523.066C1165.89 523.066 1167.16 523.334 1168.22 523.87C1169.29 524.406 1170.12 525.138 1170.7 526.066C1171.27 526.984 1171.56 528.025 1171.56 529.19C1171.56 530.438 1171.32 531.577 1170.82 532.608C1170.33 533.639 1169.6 534.659 1168.66 535.67C1167.72 536.68 1166.58 537.799 1165.25 539.026L1162.35 541.763V541.979H1172.2V546ZM1194.62 546H1189.84V536.242H1180.89V546H1176.09V523.391H1180.89V532.252H1189.84V523.391H1194.62V546ZM1206.93 523.391C1208.98 523.391 1210.67 523.638 1212 524.133C1213.34 524.628 1214.34 525.376 1214.99 526.376C1215.64 527.376 1215.96 528.639 1215.96 530.164C1215.96 531.195 1215.77 532.097 1215.37 532.871C1214.98 533.644 1214.47 534.299 1213.83 534.835C1213.19 535.371 1212.5 535.809 1211.76 536.149L1218.4 546H1213.09L1207.69 537.324H1205.14V546H1200.34V523.391H1206.93ZM1206.59 527.319H1205.14V533.427H1206.68C1208.27 533.427 1209.4 533.164 1210.09 532.639C1210.78 532.103 1211.12 531.319 1211.12 530.288C1211.12 529.216 1210.75 528.453 1210.01 527.999C1209.28 527.546 1208.14 527.319 1206.59 527.319ZM1242.5 546H1229.48V523.391H1242.5V527.319H1234.27V532.283H1241.93V536.211H1234.27V542.041H1242.5V546ZM1265.51 546H1260.04L1254.78 537.448L1249.52 546H1244.39L1251.89 534.34L1244.86 523.391H1250.15L1255.02 531.525L1259.8 523.391H1264.97L1257.87 534.603L1265.51 546ZM1277.08 546H1272.28V527.381H1266.14V523.391H1283.22V527.381H1277.08V546ZM1299.72 546H1286.7V523.391H1299.72V527.319H1291.49V532.283H1299.14V536.211H1291.49V542.041H1299.72V546ZM1324.51 546H1318.41L1308.58 528.896H1308.44C1308.48 529.608 1308.52 530.324 1308.55 531.046C1308.58 531.768 1308.61 532.489 1308.64 533.211C1308.67 533.922 1308.7 534.639 1308.73 535.36V546H1304.45V523.391H1310.5L1320.32 540.325H1320.42C1320.4 539.623 1320.38 538.928 1320.35 538.237C1320.32 537.546 1320.28 536.855 1320.25 536.165C1320.23 535.474 1320.21 534.783 1320.19 534.092V523.391H1324.51V546ZM1343.56 539.721C1343.56 541.062 1343.23 542.227 1342.58 543.216C1341.94 544.206 1340.99 544.969 1339.74 545.505C1338.5 546.041 1337 546.309 1335.22 546.309C1334.44 546.309 1333.67 546.258 1332.92 546.155C1332.18 546.052 1331.46 545.902 1330.77 545.706C1330.09 545.5 1329.44 545.247 1328.82 544.948V540.495C1329.89 540.969 1331.01 541.397 1332.16 541.778C1333.32 542.16 1334.46 542.35 1335.59 542.35C1336.38 542.35 1337.01 542.247 1337.48 542.041C1337.97 541.835 1338.32 541.551 1338.53 541.191C1338.75 540.83 1338.86 540.417 1338.86 539.953C1338.86 539.386 1338.67 538.902 1338.29 538.5C1337.9 538.098 1337.38 537.721 1336.71 537.371C1336.05 537.02 1335.3 536.644 1334.47 536.242C1333.94 535.994 1333.37 535.696 1332.75 535.345C1332.13 534.984 1331.54 534.546 1330.99 534.031C1330.43 533.515 1329.97 532.891 1329.61 532.159C1329.26 531.417 1329.08 530.53 1329.08 529.499C1329.08 528.149 1329.39 526.994 1330.01 526.035C1330.63 525.077 1331.51 524.345 1332.66 523.839C1333.81 523.324 1335.17 523.066 1336.74 523.066C1337.91 523.066 1339.03 523.205 1340.09 523.484C1341.17 523.752 1342.29 524.144 1343.45 524.659L1341.9 528.386C1340.86 527.963 1339.93 527.639 1339.11 527.412C1338.28 527.175 1337.44 527.056 1336.58 527.056C1335.99 527.056 1335.48 527.154 1335.05 527.35C1334.63 527.535 1334.31 527.803 1334.09 528.154C1333.88 528.494 1333.77 528.891 1333.77 529.345C1333.77 529.881 1333.92 530.334 1334.23 530.706C1334.55 531.066 1335.03 531.417 1335.66 531.757C1336.3 532.097 1337.09 532.494 1338.04 532.948C1339.19 533.494 1340.18 534.067 1340.99 534.665C1341.82 535.252 1342.45 535.948 1342.89 536.752C1343.34 537.546 1343.56 538.536 1343.56 539.721ZM1347.66 546V523.391H1352.45V546H1347.66ZM1378.66 534.665C1378.66 536.407 1378.45 537.995 1378.01 539.428C1377.58 540.85 1376.92 542.077 1376.03 543.108C1375.16 544.139 1374.04 544.933 1372.69 545.49C1371.34 546.036 1369.75 546.309 1367.9 546.309C1366.05 546.309 1364.46 546.036 1363.11 545.49C1361.76 544.933 1360.64 544.139 1359.75 543.108C1358.87 542.077 1358.22 540.845 1357.79 539.412C1357.35 537.979 1357.14 536.386 1357.14 534.634C1357.14 532.293 1357.52 530.257 1358.28 528.525C1359.05 526.783 1360.24 525.432 1361.84 524.473C1363.44 523.515 1365.47 523.035 1367.93 523.035C1370.38 523.035 1372.4 523.515 1373.98 524.473C1375.57 525.432 1376.74 526.783 1377.5 528.525C1378.28 530.267 1378.66 532.314 1378.66 534.665ZM1362.16 534.665C1362.16 536.242 1362.36 537.603 1362.75 538.747C1363.15 539.881 1363.78 540.758 1364.62 541.376C1365.47 541.984 1366.56 542.289 1367.9 542.289C1369.26 542.289 1370.36 541.984 1371.21 541.376C1372.05 540.758 1372.67 539.881 1373.05 538.747C1373.44 537.603 1373.64 536.242 1373.64 534.665C1373.64 532.293 1373.19 530.427 1372.31 529.066C1371.42 527.706 1369.96 527.025 1367.93 527.025C1366.58 527.025 1365.48 527.334 1364.62 527.953C1363.78 528.561 1363.15 529.438 1362.75 530.582C1362.36 531.716 1362.16 533.077 1362.16 534.665ZM1403.41 546H1397.31L1387.48 528.896H1387.34C1387.38 529.608 1387.42 530.324 1387.45 531.046C1387.48 531.768 1387.51 532.489 1387.54 533.211C1387.57 533.922 1387.6 534.639 1387.63 535.36V546H1383.35V523.391H1389.4L1399.22 540.325H1399.32C1399.3 539.623 1399.28 538.928 1399.25 538.237C1399.22 537.546 1399.18 536.855 1399.15 536.165C1399.13 535.474 1399.11 534.783 1399.09 534.092V523.391H1403.41V546Z" fill="#E45F42"/>
<path d="M1154.07 704H1138.27V700.675L1143.94 694.938C1145.09 693.763 1146.01 692.783 1146.7 692C1147.4 691.206 1147.9 690.484 1148.21 689.835C1148.53 689.185 1148.69 688.489 1148.69 687.747C1148.69 686.85 1148.44 686.18 1147.93 685.736C1147.44 685.283 1146.77 685.056 1145.94 685.056C1145.06 685.056 1144.21 685.257 1143.39 685.659C1142.56 686.061 1141.7 686.633 1140.8 687.376L1138.21 684.298C1138.86 683.742 1139.54 683.216 1140.26 682.721C1140.99 682.226 1141.84 681.829 1142.8 681.53C1143.77 681.221 1144.93 681.066 1146.28 681.066C1147.76 681.066 1149.04 681.334 1150.1 681.87C1151.17 682.406 1152 683.138 1152.57 684.066C1153.15 684.984 1153.44 686.025 1153.44 687.19C1153.44 688.438 1153.19 689.577 1152.7 690.608C1152.2 691.639 1151.48 692.659 1150.53 693.67C1149.59 694.68 1148.46 695.799 1147.13 697.026L1144.22 699.763V699.979H1154.07V704ZM1172.71 699.314H1169.99V704H1165.32V699.314H1155.67V695.989L1165.58 681.391H1169.99V695.603H1172.71V699.314ZM1165.32 695.603V691.768C1165.32 691.407 1165.32 690.979 1165.33 690.484C1165.35 689.989 1165.37 689.494 1165.39 688.999C1165.41 688.505 1165.43 688.066 1165.45 687.685C1165.49 687.293 1165.51 687.02 1165.52 686.865H1165.39C1165.2 687.288 1164.99 687.7 1164.77 688.103C1164.56 688.494 1164.31 688.907 1164.02 689.34L1159.87 695.603H1165.32ZM1194.62 704H1189.84V694.242H1180.89V704H1176.09V681.391H1180.89V690.252H1189.84V681.391H1194.62V704ZM1206.93 681.391C1208.98 681.391 1210.67 681.638 1212 682.133C1213.34 682.628 1214.34 683.376 1214.99 684.376C1215.64 685.376 1215.96 686.639 1215.96 688.164C1215.96 689.195 1215.77 690.097 1215.37 690.871C1214.98 691.644 1214.47 692.299 1213.83 692.835C1213.19 693.371 1212.5 693.809 1211.76 694.149L1218.4 704H1213.09L1207.69 695.324H1205.14V704H1200.34V681.391H1206.93ZM1206.59 685.319H1205.14V691.427H1206.68C1208.27 691.427 1209.4 691.164 1210.09 690.639C1210.78 690.103 1211.12 689.319 1211.12 688.288C1211.12 687.216 1210.75 686.453 1210.01 685.999C1209.28 685.546 1208.14 685.319 1206.59 685.319ZM1242.5 704H1229.48V681.391H1242.5V685.319H1234.27V690.283H1241.93V694.211H1234.27V700.041H1242.5V704ZM1265.51 704H1260.04L1254.78 695.448L1249.52 704H1244.39L1251.89 692.34L1244.86 681.391H1250.15L1255.02 689.525L1259.8 681.391H1264.97L1257.87 692.603L1265.51 704ZM1277.08 704H1272.28V685.381H1266.14V681.391H1283.22V685.381H1277.08V704ZM1299.72 704H1286.7V681.391H1299.72V685.319H1291.49V690.283H1299.14V694.211H1291.49V700.041H1299.72V704ZM1324.51 704H1318.41L1308.58 686.896H1308.44C1308.48 687.608 1308.52 688.324 1308.55 689.046C1308.58 689.768 1308.61 690.489 1308.64 691.211C1308.67 691.922 1308.7 692.639 1308.73 693.36V704H1304.45V681.391H1310.5L1320.32 698.325H1320.42C1320.4 697.623 1320.38 696.928 1320.35 696.237C1320.32 695.546 1320.28 694.855 1320.25 694.165C1320.23 693.474 1320.21 692.783 1320.19 692.092V681.391H1324.51V704ZM1343.56 697.721C1343.56 699.062 1343.23 700.227 1342.58 701.216C1341.94 702.206 1340.99 702.969 1339.74 703.505C1338.5 704.041 1337 704.309 1335.22 704.309C1334.44 704.309 1333.67 704.258 1332.92 704.155C1332.18 704.052 1331.46 703.902 1330.77 703.706C1330.09 703.5 1329.44 703.247 1328.82 702.948V698.495C1329.89 698.969 1331.01 699.397 1332.16 699.778C1333.32 700.16 1334.46 700.35 1335.59 700.35C1336.38 700.35 1337.01 700.247 1337.48 700.041C1337.97 699.835 1338.32 699.551 1338.53 699.191C1338.75 698.83 1338.86 698.417 1338.86 697.953C1338.86 697.386 1338.67 696.902 1338.29 696.5C1337.9 696.098 1337.38 695.721 1336.71 695.371C1336.05 695.02 1335.3 694.644 1334.47 694.242C1333.94 693.994 1333.37 693.696 1332.75 693.345C1332.13 692.984 1331.54 692.546 1330.99 692.031C1330.43 691.515 1329.97 690.891 1329.61 690.159C1329.26 689.417 1329.08 688.53 1329.08 687.499C1329.08 686.149 1329.39 684.994 1330.01 684.035C1330.63 683.077 1331.51 682.345 1332.66 681.839C1333.81 681.324 1335.17 681.066 1336.74 681.066C1337.91 681.066 1339.03 681.205 1340.09 681.484C1341.17 681.752 1342.29 682.144 1343.45 682.659L1341.9 686.386C1340.86 685.963 1339.93 685.639 1339.11 685.412C1338.28 685.175 1337.44 685.056 1336.58 685.056C1335.99 685.056 1335.48 685.154 1335.05 685.35C1334.63 685.535 1334.31 685.803 1334.09 686.154C1333.88 686.494 1333.77 686.891 1333.77 687.345C1333.77 687.881 1333.92 688.334 1334.23 688.706C1334.55 689.066 1335.03 689.417 1335.66 689.757C1336.3 690.097 1337.09 690.494 1338.04 690.948C1339.19 691.494 1340.18 692.067 1340.99 692.665C1341.82 693.252 1342.45 693.948 1342.89 694.752C1343.34 695.546 1343.56 696.536 1343.56 697.721ZM1347.66 704V681.391H1352.45V704H1347.66ZM1378.66 692.665C1378.66 694.407 1378.45 695.995 1378.01 697.428C1377.58 698.85 1376.92 700.077 1376.03 701.108C1375.16 702.139 1374.04 702.933 1372.69 703.49C1371.34 704.036 1369.75 704.309 1367.9 704.309C1366.05 704.309 1364.46 704.036 1363.11 703.49C1361.76 702.933 1360.64 702.139 1359.75 701.108C1358.87 700.077 1358.22 698.845 1357.79 697.412C1357.35 695.979 1357.14 694.386 1357.14 692.634C1357.14 690.293 1357.52 688.257 1358.28 686.525C1359.05 684.783 1360.24 683.432 1361.84 682.473C1363.44 681.515 1365.47 681.035 1367.93 681.035C1370.38 681.035 1372.4 681.515 1373.98 682.473C1375.57 683.432 1376.74 684.783 1377.5 686.525C1378.28 688.267 1378.66 690.314 1378.66 692.665ZM1362.16 692.665C1362.16 694.242 1362.36 695.603 1362.75 696.747C1363.15 697.881 1363.78 698.758 1364.62 699.376C1365.47 699.984 1366.56 700.289 1367.9 700.289C1369.26 700.289 1370.36 699.984 1371.21 699.376C1372.05 698.758 1372.67 697.881 1373.05 696.747C1373.44 695.603 1373.64 694.242 1373.64 692.665C1373.64 690.293 1373.19 688.427 1372.31 687.066C1371.42 685.706 1369.96 685.025 1367.93 685.025C1366.58 685.025 1365.48 685.334 1364.62 685.953C1363.78 686.561 1363.15 687.438 1362.75 688.582C1362.36 689.716 1362.16 691.077 1362.16 692.665ZM1403.41 704H1397.31L1387.48 686.896H1387.34C1387.38 687.608 1387.42 688.324 1387.45 689.046C1387.48 689.768 1387.51 690.489 1387.54 691.211C1387.57 691.922 1387.6 692.639 1387.63 693.36V704H1383.35V681.391H1389.4L1399.22 698.325H1399.32C1399.3 697.623 1399.28 696.928 1399.25 696.237C1399.22 695.546 1399.18 694.855 1399.15 694.165C1399.13 693.474 1399.11 692.783 1399.09 692.092V681.391H1403.41V704Z" fill="#E45F42"/>
<g clip-path="url(#clip2_211_89572)">
<path d="M820 433C881.856 433 932 382.856 932 321C932 259.144 881.856 209 820 209C758.144 209 708 259.144 708 321C708 382.856 758.144 433 820 433Z" fill="#EDF2F6"/>
<path d="M795.79 285.53L836 271.02V261H795.79V285.53Z" fill="#0B2127"/>
<path d="M900 261H860V381H900V261Z" fill="#0B2127"/>
<path d="M742 379V278.51L794 263.65V287.89L858 263.89V379H742Z" fill="white"/>
<path d="M792 266.3V290.77L797.4 288.77L856 266.77V377H744V280L792 266.3ZM860 261L796 285V261L740 277V381H860V261Z" fill="#0B2127"/>
<path d="M844.2 316.8V361.2H826.8V316.8H844.2ZM848 313H823V365H848V313Z" fill="#0B2127"/>
<path d="M845.5 325H825.5V329H845.5V325Z" fill="#0B2127"/>
<path d="M845.5 337H825.5V341H845.5V337Z" fill="#0B2127"/>
<path d="M845.5 349H825.5V353H845.5V349Z" fill="#0B2127"/>
<path d="M827 361H819V365H827V361Z" fill="#0B2127"/>
<path d="M810.7 316.8V361.2H793.3V316.8H810.7V316.8ZM814.5 313H789.5V365H814.5V313Z" fill="#0B2127"/>
<path d="M812 325H792V329H812V325Z" fill="#0B2127"/>
<path d="M812 337H792V341H812V337Z" fill="#0B2127"/>
<path d="M812 349H792V353H812V349Z" fill="#0B2127"/>
<path d="M793.5 361H785.5V365H793.5V361Z" fill="#0B2127"/>
<path d="M777.2 316.8V361.2H759.8V316.8H777.2ZM781 313H756V365H781V313Z" fill="#0B2127"/>
<path d="M778.5 325H758.5V365H778.5V325Z" fill="#0B2127"/>
<path d="M760 361H752V365H760V361Z" fill="#0B2127"/>
</g>
<rect x="627" y="477" width="386" height="113" rx="56.5" fill="#F2F2F2" stroke="#E45F42" stroke-width="2"/>
<rect x="627" y="635" width="386" height="113" rx="56.5" fill="#F2F2F2" stroke="#E45F42" stroke-width="2"/>
<rect x="627" y="793" width="386" height="113" rx="56.5" fill="#F2F2F2" stroke="#E45F42" stroke-width="2"/>
<path d="M698.083 546H693.304V532.917C693.304 532.556 693.31 532.113 693.32 531.587C693.33 531.051 693.346 530.505 693.366 529.948C693.387 529.381 693.408 528.871 693.428 528.417C693.315 528.551 693.083 528.783 692.732 529.113C692.392 529.432 692.072 529.721 691.773 529.979L689.175 532.067L686.871 529.19L694.155 523.391H698.083V546ZM720.197 546H704.392V542.675L710.068 536.938C711.212 535.763 712.13 534.783 712.821 534C713.522 533.206 714.027 532.484 714.336 531.835C714.656 531.185 714.815 530.489 714.815 529.747C714.815 528.85 714.563 528.18 714.058 527.736C713.563 527.283 712.898 527.056 712.063 527.056C711.187 527.056 710.336 527.257 709.511 527.659C708.686 528.061 707.826 528.633 706.929 529.376L704.331 526.298C704.98 525.742 705.666 525.216 706.387 524.721C707.119 524.226 707.965 523.829 708.924 523.53C709.893 523.221 711.052 523.066 712.403 523.066C713.888 523.066 715.161 523.334 716.223 523.87C717.295 524.406 718.12 525.138 718.697 526.066C719.274 526.984 719.563 528.025 719.563 529.19C719.563 530.438 719.316 531.577 718.821 532.608C718.326 533.639 717.604 534.659 716.656 535.67C715.718 536.68 714.584 537.799 713.254 539.026L710.346 541.763V541.979H720.197V546ZM742.621 546H737.842V536.242H728.888V546H724.094V523.391H728.888V532.252H737.842V523.391H742.621V546ZM754.93 523.391C756.982 523.391 758.673 523.638 760.003 524.133C761.343 524.628 762.338 525.376 762.987 526.376C763.637 527.376 763.962 528.639 763.962 530.164C763.962 531.195 763.766 532.097 763.374 532.871C762.982 533.644 762.467 534.299 761.827 534.835C761.188 535.371 760.498 535.809 759.755 536.149L766.405 546H761.085L755.688 537.324H753.136V546H748.342V523.391H754.93ZM754.59 527.319H753.136V533.427H754.683C756.271 533.427 757.405 533.164 758.085 532.639C758.776 532.103 759.121 531.319 759.121 530.288C759.121 529.216 758.75 528.453 758.008 527.999C757.276 527.546 756.137 527.319 754.59 527.319ZM790.499 546H777.478V523.391H790.499V527.319H782.272V532.283H789.926V536.211H782.272V542.041H790.499V546ZM813.51 546H808.035L802.777 537.448L797.519 546H792.385L799.886 534.34L792.865 523.391H798.154L803.025 531.525L807.803 523.391H812.968L805.87 534.603L813.51 546ZM825.077 546H820.283V527.381H814.144V523.391H831.217V527.381H825.077V546ZM847.717 546H834.696V523.391H847.717V527.319H839.49V532.283H847.145V536.211H839.49V542.041H847.717V546ZM872.507 546H866.414L856.578 528.896H856.439C856.48 529.608 856.516 530.324 856.547 531.046C856.578 531.768 856.609 532.489 856.64 533.211C856.671 533.922 856.702 534.639 856.733 535.36V546H852.449V523.391H858.496L868.316 540.325H868.424C868.403 539.623 868.378 538.928 868.347 538.237C868.316 537.546 868.285 536.855 868.254 536.165C868.233 535.474 868.213 534.783 868.192 534.092V523.391H872.507V546ZM891.559 539.721C891.559 541.062 891.234 542.227 890.585 543.216C889.935 544.206 888.987 544.969 887.739 545.505C886.502 546.041 884.997 546.309 883.224 546.309C882.44 546.309 881.672 546.258 880.919 546.155C880.177 546.052 879.461 545.902 878.77 545.706C878.089 545.5 877.44 545.247 876.821 544.948V540.495C877.893 540.969 879.007 541.397 880.162 541.778C881.316 542.16 882.461 542.35 883.595 542.35C884.378 542.35 885.007 542.247 885.481 542.041C885.966 541.835 886.316 541.551 886.533 541.191C886.749 540.83 886.858 540.417 886.858 539.953C886.858 539.386 886.667 538.902 886.286 538.5C885.904 538.098 885.378 537.721 884.708 537.371C884.048 537.02 883.301 536.644 882.466 536.242C881.94 535.994 881.368 535.696 880.749 535.345C880.131 534.984 879.543 534.546 878.986 534.031C878.43 533.515 877.971 532.891 877.61 532.159C877.259 531.417 877.084 530.53 877.084 529.499C877.084 528.149 877.393 526.994 878.012 526.035C878.631 525.077 879.512 524.345 880.656 523.839C881.811 523.324 883.172 523.066 884.739 523.066C885.914 523.066 887.033 523.205 888.095 523.484C889.167 523.752 890.286 524.144 891.451 524.659L889.904 528.386C888.863 527.963 887.93 527.639 887.105 527.412C886.28 527.175 885.44 527.056 884.584 527.056C883.986 527.056 883.476 527.154 883.053 527.35C882.631 527.535 882.311 527.803 882.095 528.154C881.878 528.494 881.77 528.891 881.77 529.345C881.77 529.881 881.925 530.334 882.234 530.706C882.553 531.066 883.028 531.417 883.657 531.757C884.296 532.097 885.09 532.494 886.038 532.948C887.193 533.494 888.177 534.067 888.992 534.665C889.817 535.252 890.451 535.948 890.894 536.752C891.337 537.546 891.559 538.536 891.559 539.721ZM895.657 546V523.391H900.451V546H895.657ZM926.663 534.665C926.663 536.407 926.447 537.995 926.014 539.428C925.581 540.85 924.921 542.077 924.034 543.108C923.158 544.139 922.045 544.933 920.694 545.49C919.343 546.036 917.745 546.309 915.9 546.309C914.055 546.309 912.457 546.036 911.106 545.49C909.755 544.933 908.637 544.139 907.75 543.108C906.874 542.077 906.219 540.845 905.786 539.412C905.353 537.979 905.137 536.386 905.137 534.634C905.137 532.293 905.518 530.257 906.281 528.525C907.054 526.783 908.24 525.432 909.838 524.473C911.436 523.515 913.467 523.035 915.931 523.035C918.385 523.035 920.4 523.515 921.978 524.473C923.565 525.432 924.741 526.783 925.503 528.525C926.277 530.267 926.663 532.314 926.663 534.665ZM910.163 534.665C910.163 536.242 910.359 537.603 910.75 538.747C911.152 539.881 911.776 540.758 912.622 541.376C913.467 541.984 914.56 542.289 915.9 542.289C917.261 542.289 918.364 541.984 919.209 541.376C920.055 540.758 920.668 539.881 921.05 538.747C921.441 537.603 921.637 536.242 921.637 534.665C921.637 532.293 921.194 530.427 920.307 529.066C919.421 527.706 917.962 527.025 915.931 527.025C914.58 527.025 913.477 527.334 912.622 527.953C911.776 528.561 911.152 529.438 910.75 530.582C910.359 531.716 910.163 533.077 910.163 534.665ZM951.406 546H945.313L935.478 528.896H935.339C935.38 529.608 935.416 530.324 935.447 531.046C935.478 531.768 935.509 532.489 935.54 533.211C935.571 533.922 935.602 534.639 935.633 535.36V546H931.349V523.391H937.396L947.216 540.325H947.324C947.303 539.623 947.277 538.928 947.246 538.237C947.216 537.546 947.185 536.855 947.154 536.165C947.133 535.474 947.112 534.783 947.092 534.092V523.391H951.406V546Z" fill="#E45F42"/>
<path d="M702.073 704H686.268V700.675L691.944 694.938C693.088 693.763 694.005 692.783 694.696 692C695.397 691.206 695.902 690.484 696.212 689.835C696.531 689.185 696.691 688.489 696.691 687.747C696.691 686.85 696.439 686.18 695.933 685.736C695.439 685.283 694.774 685.056 693.938 685.056C693.062 685.056 692.212 685.257 691.387 685.659C690.562 686.061 689.701 686.633 688.804 687.376L686.206 684.298C686.856 683.742 687.541 683.216 688.263 682.721C688.995 682.226 689.84 681.829 690.799 681.53C691.768 681.221 692.928 681.066 694.279 681.066C695.763 681.066 697.037 681.334 698.098 681.87C699.171 682.406 699.995 683.138 700.573 684.066C701.15 684.984 701.439 686.025 701.439 687.19C701.439 688.438 701.191 689.577 700.696 690.608C700.202 691.639 699.48 692.659 698.531 693.67C697.593 694.68 696.459 695.799 695.129 697.026L692.222 699.763V699.979H702.073V704ZM720.707 699.314H717.986V704H713.315V699.314H703.666V695.989L713.578 681.391H717.986V695.603H720.707V699.314ZM713.315 695.603V691.768C713.315 691.407 713.321 690.979 713.331 690.484C713.352 689.989 713.372 689.494 713.393 688.999C713.413 688.505 713.434 688.066 713.455 687.685C713.486 687.293 713.506 687.02 713.516 686.865H713.393C713.197 687.288 712.991 687.7 712.774 688.103C712.558 688.494 712.305 688.907 712.016 689.34L707.872 695.603H713.315ZM742.621 704H737.842V694.242H728.888V704H724.094V681.391H728.888V690.252H737.842V681.391H742.621V704ZM754.93 681.391C756.982 681.391 758.673 681.638 760.003 682.133C761.343 682.628 762.338 683.376 762.987 684.376C763.637 685.376 763.962 686.639 763.962 688.164C763.962 689.195 763.766 690.097 763.374 690.871C762.982 691.644 762.467 692.299 761.827 692.835C761.188 693.371 760.498 693.809 759.755 694.149L766.405 704H761.085L755.688 695.324H753.136V704H748.342V681.391H754.93ZM754.59 685.319H753.136V691.427H754.683C756.271 691.427 757.405 691.164 758.085 690.639C758.776 690.103 759.121 689.319 759.121 688.288C759.121 687.216 758.75 686.453 758.008 685.999C757.276 685.546 756.137 685.319 754.59 685.319ZM790.499 704H777.478V681.391H790.499V685.319H782.272V690.283H789.926V694.211H782.272V700.041H790.499V704ZM813.51 704H808.035L802.777 695.448L797.519 704H792.385L799.886 692.34L792.865 681.391H798.154L803.025 689.525L807.803 681.391H812.968L805.87 692.603L813.51 704ZM825.077 704H820.283V685.381H814.144V681.391H831.217V685.381H825.077V704ZM847.717 704H834.696V681.391H847.717V685.319H839.49V690.283H847.145V694.211H839.49V700.041H847.717V704ZM872.507 704H866.414L856.578 686.896H856.439C856.48 687.608 856.516 688.324 856.547 689.046C856.578 689.768 856.609 690.489 856.64 691.211C856.671 691.922 856.702 692.639 856.733 693.36V704H852.449V681.391H858.496L868.316 698.325H868.424C868.403 697.623 868.378 696.928 868.347 696.237C868.316 695.546 868.285 694.855 868.254 694.165C868.233 693.474 868.213 692.783 868.192 692.092V681.391H872.507V704ZM891.559 697.721C891.559 699.062 891.234 700.227 890.585 701.216C889.935 702.206 888.987 702.969 887.739 703.505C886.502 704.041 884.997 704.309 883.224 704.309C882.44 704.309 881.672 704.258 880.919 704.155C880.177 704.052 879.461 703.902 878.77 703.706C878.089 703.5 877.44 703.247 876.821 702.948V698.495C877.893 698.969 879.007 699.397 880.162 699.778C881.316 700.16 882.461 700.35 883.595 700.35C884.378 700.35 885.007 700.247 885.481 700.041C885.966 699.835 886.316 699.551 886.533 699.191C886.749 698.83 886.858 698.417 886.858 697.953C886.858 697.386 886.667 696.902 886.286 696.5C885.904 696.098 885.378 695.721 884.708 695.371C884.048 695.02 883.301 694.644 882.466 694.242C881.94 693.994 881.368 693.696 880.749 693.345C880.131 692.984 879.543 692.546 878.986 692.031C878.43 691.515 877.971 690.891 877.61 690.159C877.259 689.417 877.084 688.53 877.084 687.499C877.084 686.149 877.393 684.994 878.012 684.035C878.631 683.077 879.512 682.345 880.656 681.839C881.811 681.324 883.172 681.066 884.739 681.066C885.914 681.066 887.033 681.205 888.095 681.484C889.167 681.752 890.286 682.144 891.451 682.659L889.904 686.386C888.863 685.963 887.93 685.639 887.105 685.412C886.28 685.175 885.44 685.056 884.584 685.056C883.986 685.056 883.476 685.154 883.053 685.35C882.631 685.535 882.311 685.803 882.095 686.154C881.878 686.494 881.77 686.891 881.77 687.345C881.77 687.881 881.925 688.334 882.234 688.706C882.553 689.066 883.028 689.417 883.657 689.757C884.296 690.097 885.09 690.494 886.038 690.948C887.193 691.494 888.177 692.067 888.992 692.665C889.817 693.252 890.451 693.948 890.894 694.752C891.337 695.546 891.559 696.536 891.559 697.721ZM895.657 704V681.391H900.451V704H895.657ZM926.663 692.665C926.663 694.407 926.447 695.995 926.014 697.428C925.581 698.85 924.921 700.077 924.034 701.108C923.158 702.139 922.045 702.933 920.694 703.49C919.343 704.036 917.745 704.309 915.9 704.309C914.055 704.309 912.457 704.036 911.106 703.49C909.755 702.933 908.637 702.139 907.75 701.108C906.874 700.077 906.219 698.845 905.786 697.412C905.353 695.979 905.137 694.386 905.137 692.634C905.137 690.293 905.518 688.257 906.281 686.525C907.054 684.783 908.24 683.432 909.838 682.473C911.436 681.515 913.467 681.035 915.931 681.035C918.385 681.035 920.4 681.515 921.978 682.473C923.565 683.432 924.741 684.783 925.503 686.525C926.277 688.267 926.663 690.314 926.663 692.665ZM910.163 692.665C910.163 694.242 910.359 695.603 910.75 696.747C911.152 697.881 911.776 698.758 912.622 699.376C913.467 699.984 914.56 700.289 915.9 700.289C917.261 700.289 918.364 699.984 919.209 699.376C920.055 698.758 920.668 697.881 921.05 696.747C921.441 695.603 921.637 694.242 921.637 692.665C921.637 690.293 921.194 688.427 920.307 687.066C919.421 685.706 917.962 685.025 915.931 685.025C914.58 685.025 913.477 685.334 912.622 685.953C911.776 686.561 911.152 687.438 910.75 688.582C910.359 689.716 910.163 691.077 910.163 692.665ZM951.406 704H945.313L935.478 686.896H935.339C935.38 687.608 935.416 688.324 935.447 689.046C935.478 689.768 935.509 690.489 935.54 691.211C935.571 691.922 935.602 692.639 935.633 693.36V704H931.349V681.391H937.396L947.216 698.325H947.324C947.303 697.623 947.277 696.928 947.246 696.237C947.216 695.546 947.185 694.855 947.154 694.165C947.133 693.474 947.112 692.783 947.092 692.092V681.391H951.406V704Z" fill="#E45F42"/>
<path d="M701.191 844.448C701.191 845.489 700.975 846.391 700.542 847.154C700.109 847.917 699.521 848.541 698.779 849.025C698.047 849.51 697.222 849.866 696.305 850.092V850.185C698.119 850.412 699.495 850.969 700.434 851.855C701.382 852.742 701.856 853.928 701.856 855.412C701.856 856.732 701.532 857.912 700.882 858.953C700.243 859.995 699.253 860.814 697.913 861.412C696.573 862.01 694.846 862.309 692.732 862.309C691.485 862.309 690.32 862.206 689.237 862C688.165 861.804 687.155 861.5 686.206 861.088V857.02C687.175 857.515 688.191 857.892 689.253 858.149C690.315 858.397 691.304 858.52 692.222 858.52C693.933 858.52 695.129 858.227 695.81 857.639C696.5 857.041 696.846 856.206 696.846 855.134C696.846 854.505 696.686 853.974 696.366 853.541C696.047 853.108 695.49 852.778 694.696 852.551C693.913 852.324 692.815 852.211 691.402 852.211H689.686V848.546H691.433C692.825 848.546 693.882 848.417 694.603 848.159C695.335 847.891 695.83 847.53 696.088 847.077C696.356 846.613 696.49 846.087 696.49 845.499C696.49 844.695 696.243 844.066 695.748 843.613C695.253 843.159 694.428 842.932 693.273 842.932C692.552 842.932 691.892 843.025 691.294 843.211C690.706 843.386 690.175 843.602 689.701 843.86C689.227 844.108 688.809 844.35 688.449 844.587L686.237 841.293C687.124 840.654 688.16 840.123 689.346 839.7C690.541 839.278 691.964 839.066 693.614 839.066C695.944 839.066 697.789 839.535 699.15 840.473C700.511 841.412 701.191 842.736 701.191 844.448ZM704.238 852.397C704.238 851.098 704.331 849.814 704.516 848.546C704.712 847.268 705.047 846.066 705.521 844.943C705.996 843.809 706.661 842.809 707.516 841.943C708.372 841.066 709.46 840.381 710.779 839.886C712.099 839.381 713.697 839.128 715.573 839.128C716.017 839.128 716.532 839.149 717.12 839.19C717.718 839.221 718.213 839.278 718.604 839.36V843.18C718.192 843.087 717.749 843.015 717.274 842.963C716.81 842.901 716.346 842.87 715.883 842.87C714.006 842.87 712.553 843.169 711.522 843.767C710.501 844.365 709.779 845.195 709.357 846.257C708.944 847.309 708.702 848.536 708.63 849.938H708.831C709.119 849.433 709.48 848.984 709.913 848.592C710.357 848.201 710.893 847.891 711.522 847.664C712.15 847.427 712.888 847.309 713.733 847.309C715.053 847.309 716.197 847.592 717.166 848.159C718.135 848.716 718.883 849.525 719.408 850.587C719.934 851.649 720.197 852.943 720.197 854.469C720.197 856.098 719.883 857.5 719.254 858.675C718.625 859.85 717.733 860.753 716.578 861.381C715.434 862 714.073 862.309 712.496 862.309C711.341 862.309 710.264 862.113 709.264 861.722C708.264 861.32 707.387 860.711 706.635 859.897C705.882 859.082 705.295 858.057 704.872 856.819C704.449 855.572 704.238 854.098 704.238 852.397ZM712.403 858.49C713.341 858.49 714.104 858.17 714.692 857.531C715.279 856.892 715.573 855.892 715.573 854.531C715.573 853.428 715.316 852.562 714.8 851.933C714.295 851.293 713.527 850.974 712.496 850.974C711.795 850.974 711.176 851.134 710.64 851.453C710.114 851.763 709.707 852.159 709.418 852.644C709.13 853.118 708.985 853.608 708.985 854.113C708.985 854.639 709.058 855.16 709.202 855.675C709.346 856.191 709.563 856.66 709.851 857.082C710.14 857.505 710.496 857.845 710.918 858.103C711.351 858.361 711.846 858.49 712.403 858.49ZM742.621 862H737.842V852.242H728.888V862H724.094V839.391H728.888V848.252H737.842V839.391H742.621V862ZM754.93 839.391C756.982 839.391 758.673 839.638 760.003 840.133C761.343 840.628 762.338 841.376 762.987 842.376C763.637 843.376 763.962 844.639 763.962 846.164C763.962 847.195 763.766 848.097 763.374 848.871C762.982 849.644 762.467 850.299 761.827 850.835C761.188 851.371 760.498 851.809 759.755 852.149L766.405 862H761.085L755.688 853.324H753.136V862H748.342V839.391H754.93ZM754.59 843.319H753.136V849.427H754.683C756.271 849.427 757.405 849.164 758.085 848.639C758.776 848.103 759.121 847.319 759.121 846.288C759.121 845.216 758.75 844.453 758.008 843.999C757.276 843.546 756.137 843.319 754.59 843.319ZM790.499 862H777.478V839.391H790.499V843.319H782.272V848.283H789.926V852.211H782.272V858.041H790.499V862ZM813.51 862H808.035L802.777 853.448L797.519 862H792.385L799.886 850.34L792.865 839.391H798.154L803.025 847.525L807.803 839.391H812.968L805.87 850.603L813.51 862ZM825.077 862H820.283V843.381H814.144V839.391H831.217V843.381H825.077V862ZM847.717 862H834.696V839.391H847.717V843.319H839.49V848.283H847.145V852.211H839.49V858.041H847.717V862ZM872.507 862H866.414L856.578 844.896H856.439C856.48 845.608 856.516 846.324 856.547 847.046C856.578 847.768 856.609 848.489 856.64 849.211C856.671 849.922 856.702 850.639 856.733 851.36V862H852.449V839.391H858.496L868.316 856.325H868.424C868.403 855.623 868.378 854.928 868.347 854.237C868.316 853.546 868.285 852.855 868.254 852.165C868.233 851.474 868.213 850.783 868.192 850.092V839.391H872.507V862ZM891.559 855.721C891.559 857.062 891.234 858.227 890.585 859.216C889.935 860.206 888.987 860.969 887.739 861.505C886.502 862.041 884.997 862.309 883.224 862.309C882.44 862.309 881.672 862.258 880.919 862.155C880.177 862.052 879.461 861.902 878.77 861.706C878.089 861.5 877.44 861.247 876.821 860.948V856.495C877.893 856.969 879.007 857.397 880.162 857.778C881.316 858.16 882.461 858.35 883.595 858.35C884.378 858.35 885.007 858.247 885.481 858.041C885.966 857.835 886.316 857.551 886.533 857.191C886.749 856.83 886.858 856.417 886.858 855.953C886.858 855.386 886.667 854.902 886.286 854.5C885.904 854.098 885.378 853.721 884.708 853.371C884.048 853.02 883.301 852.644 882.466 852.242C881.94 851.994 881.368 851.696 880.749 851.345C880.131 850.984 879.543 850.546 878.986 850.031C878.43 849.515 877.971 848.891 877.61 848.159C877.259 847.417 877.084 846.53 877.084 845.499C877.084 844.149 877.393 842.994 878.012 842.035C878.631 841.077 879.512 840.345 880.656 839.839C881.811 839.324 883.172 839.066 884.739 839.066C885.914 839.066 887.033 839.205 888.095 839.484C889.167 839.752 890.286 840.144 891.451 840.659L889.904 844.386C888.863 843.963 887.93 843.639 887.105 843.412C886.28 843.175 885.44 843.056 884.584 843.056C883.986 843.056 883.476 843.154 883.053 843.35C882.631 843.535 882.311 843.803 882.095 844.154C881.878 844.494 881.77 844.891 881.77 845.345C881.77 845.881 881.925 846.334 882.234 846.706C882.553 847.066 883.028 847.417 883.657 847.757C884.296 848.097 885.09 848.494 886.038 848.948C887.193 849.494 888.177 850.067 888.992 850.665C889.817 851.252 890.451 851.948 890.894 852.752C891.337 853.546 891.559 854.536 891.559 855.721ZM895.657 862V839.391H900.451V862H895.657ZM926.663 850.665C926.663 852.407 926.447 853.995 926.014 855.428C925.581 856.85 924.921 858.077 924.034 859.108C923.158 860.139 922.045 860.933 920.694 861.49C919.343 862.036 917.745 862.309 915.9 862.309C914.055 862.309 912.457 862.036 911.106 861.49C909.755 860.933 908.637 860.139 907.75 859.108C906.874 858.077 906.219 856.845 905.786 855.412C905.353 853.979 905.137 852.386 905.137 850.634C905.137 848.293 905.518 846.257 906.281 844.525C907.054 842.783 908.24 841.432 909.838 840.473C911.436 839.515 913.467 839.035 915.931 839.035C918.385 839.035 920.4 839.515 921.978 840.473C923.565 841.432 924.741 842.783 925.503 844.525C926.277 846.267 926.663 848.314 926.663 850.665ZM910.163 850.665C910.163 852.242 910.359 853.603 910.75 854.747C911.152 855.881 911.776 856.758 912.622 857.376C913.467 857.984 914.56 858.289 915.9 858.289C917.261 858.289 918.364 857.984 919.209 857.376C920.055 856.758 920.668 855.881 921.05 854.747C921.441 853.603 921.637 852.242 921.637 850.665C921.637 848.293 921.194 846.427 920.307 845.066C919.421 843.706 917.962 843.025 915.931 843.025C914.58 843.025 913.477 843.334 912.622 843.953C911.776 844.561 911.152 845.438 910.75 846.582C910.359 847.716 910.163 849.077 910.163 850.665ZM951.406 862H945.313L935.478 844.896H935.339C935.38 845.608 935.416 846.324 935.447 847.046C935.478 847.768 935.509 848.489 935.54 849.211C935.571 849.922 935.602 850.639 935.633 851.36V862H931.349V839.391H937.396L947.216 856.325H947.324C947.303 855.623 947.277 854.928 947.246 854.237C947.216 853.546 947.185 852.855 947.154 852.165C947.133 851.474 947.112 850.783 947.092 850.092V839.391H951.406V862Z" fill="#E45F42"/>
<defs>
<clipPath id="clip0_211_89572">
<rect width="224" height="224" fill="white" transform="translate(256 209)"/>
</clipPath>
<clipPath id="clip1_211_89572">
<rect width="224" height="224" fill="white" transform="translate(1160 209)"/>
</clipPath>
<clipPath id="clip2_211_89572">
<rect width="224" height="224" fill="white" transform="translate(708 209)"/>
</clipPath>
</defs>
</svg>
