<svg width="1640" height="502" viewBox="0 0 1640 502" fill="none" xmlns="http://www.w3.org/2000/svg">
<line x1="270" y1="221" x2="474" y2="221" stroke="#304850" stroke-width="8"/>
<line x1="685" y1="221" x2="889" y2="221" stroke="#304850" stroke-width="8"/>
<line x1="1098" y1="221" x2="1302" y2="221" stroke="#304850" stroke-width="8"/>
<g clip-path="url(#clip0_211_87490)">
<path d="M992.919 297.421C1033.09 297.421 1065.66 264.852 1065.66 224.676C1065.66 184.5 1033.09 151.931 992.919 151.931C952.743 151.931 920.174 184.5 920.174 224.676C920.174 264.852 952.743 297.421 992.919 297.421Z" fill="#EDF2F6"/>
<path d="M963.041 252.93H975.382V262.9C975.382 263.528 975.132 264.131 974.687 264.576C974.243 265.021 973.64 265.27 973.011 265.27H965.412C965.101 265.27 964.792 265.209 964.505 265.09C964.217 264.971 963.956 264.796 963.736 264.576C963.515 264.356 963.341 264.094 963.222 263.807C963.103 263.519 963.041 263.211 963.041 262.9V252.93Z" fill="#0B2127"/>
<path d="M973.011 266.569H965.412C964.93 266.569 964.453 266.474 964.008 266.29C963.562 266.105 963.158 265.835 962.817 265.494C962.476 265.153 962.206 264.749 962.022 264.304C961.837 263.858 961.742 263.381 961.742 262.899V252.929C961.742 252.585 961.879 252.254 962.123 252.011C962.366 251.767 962.697 251.63 963.041 251.63H975.382C975.726 251.63 976.057 251.767 976.3 252.011C976.544 252.254 976.681 252.585 976.681 252.929V262.899C976.681 263.873 976.294 264.806 975.606 265.494C974.918 266.182 973.984 266.569 973.011 266.569V266.569ZM964.34 254.228V262.899C964.34 263.184 964.453 263.456 964.654 263.657C964.855 263.858 965.128 263.971 965.412 263.971H973.011C973.295 263.971 973.568 263.858 973.769 263.657C973.97 263.456 974.083 263.184 974.083 262.899V254.228H964.34Z" fill="#0B2127"/>
<path d="M1010.46 252.93H1022.8V262.9C1022.8 263.528 1022.55 264.131 1022.1 264.576C1021.66 265.021 1021.05 265.27 1020.43 265.27H1012.83C1012.2 265.27 1011.59 265.021 1011.15 264.576C1010.71 264.131 1010.46 263.528 1010.46 262.9V252.93Z" fill="#0B2127"/>
<path d="M1020.43 266.569H1012.83C1011.85 266.569 1010.92 266.182 1010.23 265.494C1009.54 264.806 1009.16 263.873 1009.16 262.899V252.929C1009.16 252.585 1009.29 252.254 1009.54 252.011C1009.78 251.767 1010.11 251.63 1010.46 251.63H1022.8C1023.14 251.63 1023.47 251.767 1023.71 252.011C1023.96 252.254 1024.09 252.585 1024.09 252.929V262.899C1024.09 263.381 1024 263.858 1023.82 264.304C1023.63 264.749 1023.36 265.153 1023.02 265.494C1022.68 265.835 1022.27 266.105 1021.83 266.29C1021.38 266.474 1020.91 266.569 1020.43 266.569V266.569ZM1011.75 254.228V262.899C1011.75 263.184 1011.87 263.456 1012.07 263.657C1012.27 263.858 1012.54 263.971 1012.83 263.971H1020.43C1020.71 263.971 1020.98 263.858 1021.18 263.657C1021.38 263.456 1021.5 263.184 1021.5 262.899V254.228H1011.75Z" fill="#0B2127"/>
<path d="M975.7 253.579H959.144V260.724H975.7V253.579Z" fill="#0B2127"/>
<path d="M1026.69 253.579H1010.14V260.724H1026.69V253.579Z" fill="#0B2127"/>
<path d="M1026.69 246.11H959.144V255.203H1026.69V246.11Z" fill="#0B2127"/>
<path d="M987.073 255.203H984.475V259.749H987.073V255.203Z" fill="#0B2127"/>
<path d="M1001.36 255.203H998.764V259.749H1001.36V255.203Z" fill="#0B2127"/>
<path d="M1006.56 259.75H979.279V262.348H1006.56V259.75Z" fill="#0B2127"/>
<path d="M1005.35 248.747L1001.62 252.481H998.225L1001.95 248.747H1005.35Z" fill="white"/>
<path d="M996.634 248.747L992.899 252.481H989.509L993.237 248.747H996.634Z" fill="white"/>
<path d="M987.924 248.747L984.189 252.481H980.792L984.52 248.747H987.924Z" fill="white"/>
<path d="M979.207 248.747L975.473 252.481H972.082L975.811 248.747H979.207Z" fill="white"/>
<path d="M970.186 248.747L966.451 252.481H963.061L966.789 248.747H970.186Z" fill="white"/>
<path d="M1014.07 248.747L1010.33 252.481H1006.93L1010.66 248.747H1014.07Z" fill="white"/>
<path d="M1022.78 248.747L1019.04 252.481H1015.65L1019.38 248.747H1022.78Z" fill="white"/>
<path d="M1039.68 266.245H946.154V268.843H1039.68V266.245Z" fill="#0B2127"/>
<path d="M1025.39 181.809H960.443V246.759H1025.39V181.809Z" fill="white"/>
<path d="M1024.09 183.107V245.46H961.742V183.107H1024.09ZM1026.69 180.509H959.144V248.058H1026.69V180.509Z" fill="#0B2127"/>
<path d="M1046.18 181.809H1025.39V246.759H1046.18V181.809Z" fill="white"/>
<path d="M1044.88 183.107V245.46H1026.69V183.107H1044.88ZM1047.48 180.509H1024.09V248.058H1047.48V180.509Z" fill="#0B2127"/>
<path d="M960.443 181.809H939.659V246.759H960.443V181.809Z" fill="white"/>
<path d="M959.144 183.107V245.46H940.958V183.107H959.144ZM961.742 180.509H938.36V248.058H961.742V180.509Z" fill="#0B2127"/>
<path d="M961.742 228.573H953.948V231.171H961.742V228.573Z" fill="#0B2127"/>
<path d="M961.742 197.396H953.948V199.995H961.742V197.396Z" fill="#0B2127"/>
<path d="M1031.89 228.573H1024.09V231.171H1031.89V228.573Z" fill="#0B2127"/>
<path d="M1031.89 197.396H1024.09V199.995H1031.89V197.396Z" fill="#0B2127"/>
<path d="M1008.51 198.696V245.46H977.33V198.696H1008.51ZM1011.1 196.098H974.732V248.058H1011.1V196.098Z" fill="#0B2127"/>
<path d="M962.657 182.221L960.82 184.058L975.264 198.502L977.101 196.665L962.657 182.221Z" fill="#0B2127"/>
<path d="M1023.18 182.221L1008.73 196.665L1010.57 198.502L1025.01 184.058L1023.18 182.221Z" fill="#0B2127"/>
</g>
<g clip-path="url(#clip1_211_87490)">
<path d="M1459.27 197.618V197.644L1461.86 200.047L1465.47 203.385L1461.97 206.47L1461.86 206.367L1459.27 203.788L1450.7 195.273L1459.27 186.738L1461.86 184.147L1461.97 184.043L1465.5 187.122L1461.86 190.473L1459.27 192.87V192.896H1472.6V197.618H1459.27Z" fill="#F65335"/>
<path d="M1469.34 203.438L1467.23 201.489L1465.86 200.19H1475.2V198.514C1482.01 216.162 1481.69 235.768 1474.29 253.182C1466.9 270.595 1453.02 284.447 1435.6 291.804C1418.17 299.162 1398.56 299.447 1380.93 292.6C1363.29 285.753 1349.02 272.31 1341.12 255.12C1333.22 237.929 1332.33 218.34 1338.63 200.502C1344.92 182.663 1357.92 167.976 1374.85 159.55C1391.79 151.125 1411.34 149.622 1429.37 155.362C1447.39 161.101 1462.48 173.631 1471.42 190.298H1465.89L1467.26 188.999L1469.39 187.05L1467.21 185.147L1463.68 182.069L1461.86 180.51H1461.82L1460.14 182.205L1459.26 183.108L1447.43 190.532L1446.37 195.273L1447.86 199.469L1457.52 209.127L1458.39 209.991H1461.86L1463.68 208.439" fill="#EDF2F6"/>
<path d="M1398.56 247.409H1357.94V260.724H1398.56V247.409Z" fill="#0B2127"/>
<path d="M1459.27 192.869V192.895H1461.86V197.617H1459.27V197.643L1461.86 200.046V206.366L1459.27 203.788L1450.7 195.273L1459.27 186.738L1461.86 184.146V190.473L1459.27 192.869Z" fill="white"/>
<path d="M1461.86 210.023L1461.86 210.016V248.058H1352.75V180.509H1461.82L1460.14 182.204L1459.23 183.107L1448.87 193.434L1447.02 195.273L1448.87 197.117L1459.27 207.444L1460.14 208.308L1461.86 210.023Z" fill="white"/>
<path d="M1459.27 192.895V197.617H1461.86V192.895H1459.27ZM1459.27 197.643V203.788L1461.86 206.386V200.046L1459.27 197.643ZM1460.14 208.308L1459.27 207.444V245.46H1355.34V183.107H1459.27L1460.17 182.204L1461.86 180.509H1352.75V248.058H1461.86V210.016L1460.14 208.308ZM1459.27 186.738V192.85L1461.86 190.453V184.147L1459.27 186.738Z" fill="#0B2127"/>
<path d="M1461.86 266.245H1352.75V268.843H1461.86V266.245Z" fill="#0B2127"/>
<path d="M1443.7 255.852L1438.5 248.058H1448.89L1443.7 255.852Z" fill="#0B2127"/>
<path d="M1443.7 259.75L1438.5 267.544H1448.89L1443.7 259.75Z" fill="#0B2127"/>
<path d="M1445.64 246.759H1441.75V266.245H1445.64V246.759Z" fill="#0B2127"/>
<path d="M1426.79 255.852L1421.59 248.058H1431.99L1426.79 255.852Z" fill="#0B2127"/>
<path d="M1426.79 259.75L1421.59 267.544H1431.99L1426.79 259.75Z" fill="#0B2127"/>
<path d="M1428.74 246.759H1424.84V266.245H1428.74V246.759Z" fill="#0B2127"/>
<path d="M1426.51 249.564L1425.44 252.027L1443.81 259.949L1444.87 257.486L1426.51 249.564Z" fill="#0B2127"/>
<path d="M1443.81 249.559L1425.44 257.481L1426.5 259.944L1444.87 252.022L1443.81 249.559Z" fill="#0B2127"/>
<path d="M1428.09 180.509H1425.49V250.63H1428.09V180.509Z" fill="#0B2127"/>
<path d="M1412.61 257.151C1412.61 262.633 1410.23 266.244 1407.3 266.244C1404.38 266.244 1402 262.172 1402 257.151C1402 252.131 1412.61 248.058 1412.61 248.058V257.151Z" fill="#0B2127"/>
<path d="M1369.2 266.244C1367.52 266.244 1366.15 263.341 1366.15 259.749V248.058H1412.55L1411.85 258.45C1411.85 262.042 1409.02 266.244 1407.3 266.244H1369.2Z" fill="#0B2127"/>
<path d="M1368.94 266.244C1371.87 266.244 1374.24 262.173 1374.24 257.151C1374.24 252.129 1371.87 248.058 1368.94 248.058C1366.01 248.058 1363.63 252.129 1363.63 257.151C1363.63 262.173 1366.01 266.244 1368.94 266.244Z" fill="#0B2127"/>
<path d="M1368.94 262.172C1368.39 261.522 1367.54 259.795 1367.54 257.151C1367.54 254.508 1368.39 252.754 1368.94 252.13C1369.5 252.78 1370.35 254.508 1370.35 257.151C1370.35 259.795 1369.5 261.548 1368.94 262.172Z" fill="#0B2127"/>
<path d="M1370.63 261.048C1371.71 261.048 1372.58 259.304 1372.58 257.151C1372.58 254.999 1371.71 253.254 1370.63 253.254C1369.56 253.254 1368.68 254.999 1368.68 257.151C1368.68 259.304 1369.56 261.048 1370.63 261.048Z" fill="white"/>
<path d="M1379.08 261.048C1380.15 261.048 1381.03 259.304 1381.03 257.151C1381.03 254.999 1380.15 253.254 1379.08 253.254C1378 253.254 1377.13 254.999 1377.13 257.151C1377.13 259.304 1378 261.048 1379.08 261.048Z" fill="white"/>
<path d="M1472.6 197.618V192.896H1459.27L1461.86 190.499L1465.5 187.148L1461.97 184.069L1461.86 184.173L1459.27 186.771L1450.7 195.273L1459.27 203.788L1461.86 206.386L1461.97 206.49L1465.47 203.405L1461.86 200.047L1459.27 197.644L1472.6 197.618Z" fill="#F65335"/>
</g>
<path d="M505.556 95H500.839V72.3909H513.798V76.3189H505.556V82.149H513.226V86.0615H505.556V95ZM532.062 95L530.423 89.6184H522.18L520.541 95H515.376L523.355 72.2982H529.217L537.227 95H532.062ZM529.278 85.5976L527.639 80.3397C527.536 79.9892 527.397 79.5407 527.222 78.9943C527.057 78.4376 526.887 77.8757 526.711 77.3086C526.546 76.7313 526.412 76.2313 526.309 75.8086C526.206 76.2313 526.062 76.7571 525.876 77.386C525.701 78.0045 525.531 78.5922 525.366 79.1489C525.201 79.7056 525.082 80.1026 525.01 80.3397L523.386 85.5976H529.278ZM549.691 76.056C548.774 76.056 547.959 76.2364 547.248 76.5973C546.547 76.9478 545.954 77.4581 545.47 78.1283C544.995 78.7984 544.635 79.6077 544.387 80.5562C544.14 81.5047 544.016 82.5717 544.016 83.7573C544.016 85.3553 544.212 86.7214 544.604 87.8554C545.006 88.9792 545.624 89.84 546.459 90.438C547.294 91.0256 548.372 91.3195 549.691 91.3195C550.609 91.3195 551.527 91.2164 552.444 91.0102C553.372 90.804 554.377 90.5101 555.46 90.1287V94.1495C554.46 94.5618 553.475 94.8557 552.506 95.0309C551.537 95.2165 550.449 95.3093 549.243 95.3093C546.913 95.3093 544.995 94.8299 543.49 93.8711C541.995 92.902 540.887 91.5514 540.165 89.8194C539.444 88.0771 539.083 86.0461 539.083 83.7264C539.083 82.015 539.315 80.4479 539.779 79.0252C540.243 77.6025 540.923 76.3705 541.82 75.3292C542.717 74.2879 543.825 73.4838 545.145 72.9167C546.465 72.3497 547.98 72.0662 549.691 72.0662C550.815 72.0662 551.939 72.2105 553.063 72.4992C554.197 72.7776 555.279 73.1642 556.31 73.659L554.764 77.5561C553.918 77.154 553.068 76.8035 552.212 76.5045C551.356 76.2055 550.516 76.056 549.691 76.056ZM560.285 95V72.3909H565.079V95H560.285ZM570.77 95V72.3909H575.564V91.0411H584.734V95H570.77ZM588.677 95V72.3909H593.471V95H588.677ZM607.884 95H603.09V76.3808H596.951V72.3909H614.024V76.3808H607.884V95ZM624.539 81.7006L629.256 72.3909H634.421L626.921 86.2007V95H622.158V86.3554L614.658 72.3909H619.854L624.539 81.7006ZM659.335 95L657.695 89.6184H649.453L647.814 95H642.648L650.628 72.2982H656.489L664.5 95H659.335ZM656.551 85.5976L654.912 80.3397C654.809 79.9892 654.669 79.5407 654.494 78.9943C654.329 78.4376 654.159 77.8757 653.984 77.3086C653.819 76.7313 653.685 76.2313 653.582 75.8086C653.479 76.2313 653.334 76.7571 653.149 77.386C652.974 78.0045 652.803 78.5922 652.638 79.1489C652.473 79.7056 652.355 80.1026 652.283 80.3397L650.659 85.5976H656.551Z" fill="#333333"/>
<path d="M459.982 356.875C462.9 356.875 465.029 357.473 466.369 358.669C467.709 359.865 468.379 361.54 468.379 363.695C468.379 364.675 468.225 365.608 467.915 366.494C467.616 367.371 467.122 368.149 466.431 368.829C465.74 369.499 464.828 370.03 463.694 370.422C462.57 370.814 461.183 371.01 459.534 371.01H457.121V379.484H453.41V356.875H459.982ZM459.735 359.953H457.121V367.917H459.147C460.312 367.917 461.302 367.783 462.116 367.515C462.931 367.237 463.549 366.798 463.972 366.2C464.395 365.602 464.606 364.814 464.606 363.834C464.606 362.525 464.209 361.551 463.415 360.912C462.632 360.272 461.405 359.953 459.735 359.953ZM472.895 379.484V356.875H476.606V379.484H472.895ZM492.21 359.705C491.128 359.705 490.158 359.901 489.303 360.293C488.457 360.685 487.741 361.252 487.153 361.994C486.566 362.726 486.117 363.618 485.808 364.669C485.498 365.711 485.344 366.886 485.344 368.195C485.344 369.948 485.591 371.458 486.086 372.726C486.581 373.984 487.334 374.953 488.344 375.634C489.354 376.304 490.633 376.639 492.179 376.639C493.138 376.639 494.071 376.546 494.978 376.361C495.885 376.175 496.824 375.922 497.793 375.603V378.758C496.875 379.118 495.947 379.381 495.009 379.546C494.071 379.711 492.988 379.794 491.762 379.794C489.452 379.794 487.535 379.314 486.009 378.355C484.493 377.397 483.359 376.046 482.607 374.304C481.864 372.561 481.493 370.52 481.493 368.18C481.493 366.468 481.73 364.901 482.205 363.479C482.679 362.056 483.37 360.829 484.277 359.798C485.184 358.757 486.303 357.958 487.633 357.401C488.973 356.834 490.504 356.551 492.226 356.551C493.36 356.551 494.473 356.679 495.566 356.937C496.669 357.185 497.69 357.54 498.628 358.004L497.329 361.066C496.545 360.695 495.726 360.375 494.87 360.107C494.014 359.839 493.128 359.705 492.21 359.705ZM519.891 379.484H515.623L508.587 369.216L506.36 371.025V379.484H502.649V356.875H506.36V367.685C506.814 367.128 507.272 366.572 507.736 366.015C508.2 365.458 508.664 364.901 509.128 364.345L515.5 356.875H519.69L511.247 366.773L519.891 379.484ZM548.856 356.875V371.505C548.856 373.082 548.521 374.495 547.851 375.742C547.191 376.989 546.191 377.979 544.851 378.711C543.511 379.433 541.825 379.794 539.794 379.794C536.897 379.794 534.691 379.036 533.175 377.52C531.67 375.995 530.918 373.969 530.918 371.443V356.875H534.629V371.118C534.629 373.005 535.072 374.397 535.959 375.294C536.846 376.19 538.17 376.639 539.933 376.639C541.15 376.639 542.14 376.428 542.903 376.005C543.676 375.572 544.243 374.943 544.604 374.118C544.975 373.283 545.16 372.278 545.16 371.103V356.875H548.856ZM561.213 356.875C564.13 356.875 566.259 357.473 567.599 358.669C568.94 359.865 569.61 361.54 569.61 363.695C569.61 364.675 569.455 365.608 569.146 366.494C568.847 367.371 568.352 368.149 567.661 368.829C566.97 369.499 566.058 370.03 564.924 370.422C563.8 370.814 562.414 371.01 560.764 371.01H558.352V379.484H554.64V356.875H561.213ZM560.965 359.953H558.352V367.917H560.377C561.542 367.917 562.532 367.783 563.347 367.515C564.161 367.237 564.78 366.798 565.202 366.2C565.625 365.602 565.836 364.814 565.836 363.834C565.836 362.525 565.439 361.551 564.646 360.912C563.862 360.272 562.635 359.953 560.965 359.953ZM582.352 379.484V356.875H586.064V376.33H595.667V379.484H582.352ZM619.653 368.149C619.653 369.891 619.431 371.479 618.988 372.912C618.555 374.335 617.9 375.562 617.024 376.593C616.147 377.613 615.049 378.402 613.73 378.959C612.41 379.515 610.864 379.794 609.091 379.794C607.286 379.794 605.719 379.515 604.389 378.959C603.07 378.402 601.972 377.608 601.095 376.577C600.229 375.546 599.58 374.314 599.147 372.881C598.714 371.448 598.497 369.86 598.497 368.118C598.497 365.788 598.879 363.757 599.642 362.025C600.415 360.283 601.585 358.932 603.152 357.973C604.73 357.004 606.719 356.52 609.121 356.52C611.472 356.52 613.426 356.999 614.982 357.958C616.539 358.917 617.704 360.267 618.477 362.01C619.261 363.742 619.653 365.788 619.653 368.149ZM602.394 368.149C602.394 369.891 602.632 371.402 603.106 372.68C603.58 373.948 604.307 374.928 605.286 375.618C606.276 376.299 607.544 376.639 609.091 376.639C610.647 376.639 611.915 376.299 612.895 375.618C613.874 374.928 614.596 373.948 615.06 372.68C615.524 371.402 615.756 369.891 615.756 368.149C615.756 365.499 615.225 363.427 614.163 361.932C613.111 360.427 611.431 359.674 609.121 359.674C607.575 359.674 606.302 360.015 605.302 360.695C604.312 361.375 603.58 362.35 603.106 363.618C602.632 364.876 602.394 366.386 602.394 368.149ZM638.519 379.484L636.308 373.206H627.663L625.452 379.484H621.539L629.952 356.783H634.066L642.463 379.484H638.519ZM635.349 370.02L633.2 363.834C633.117 363.566 632.999 363.19 632.844 362.705C632.689 362.211 632.535 361.711 632.38 361.205C632.225 360.69 632.096 360.257 631.993 359.906C631.89 360.329 631.761 360.803 631.607 361.329C631.462 361.845 631.318 362.329 631.174 362.783C631.04 363.236 630.937 363.587 630.864 363.834L628.699 370.02H635.349ZM663.804 367.963C663.804 370.51 663.33 372.639 662.381 374.35C661.433 376.051 660.056 377.335 658.252 378.201C656.448 379.057 654.273 379.484 651.726 379.484H645.447V356.875H652.406C654.747 356.875 656.767 357.298 658.469 358.143C660.17 358.978 661.484 360.221 662.412 361.87C663.34 363.51 663.804 365.541 663.804 367.963ZM659.938 368.072C659.938 366.216 659.644 364.69 659.056 363.494C658.479 362.298 657.623 361.412 656.489 360.834C655.365 360.247 653.979 359.953 652.329 359.953H649.159V376.376H651.788C654.52 376.376 656.561 375.68 657.912 374.288C659.262 372.897 659.938 370.824 659.938 368.072ZM681.48 379.484H668.675V356.875H681.48V359.999H672.387V366.139H680.908V369.247H672.387V376.345H681.48V379.484ZM704.723 367.963C704.723 370.51 704.249 372.639 703.3 374.35C702.352 376.051 700.975 377.335 699.171 378.201C697.367 379.057 695.192 379.484 692.645 379.484H686.366V356.875H693.325C695.666 356.875 697.686 357.298 699.388 358.143C701.089 358.978 702.403 360.221 703.331 361.87C704.259 363.51 704.723 365.541 704.723 367.963ZM700.857 368.072C700.857 366.216 700.563 364.69 699.975 363.494C699.398 362.298 698.542 361.412 697.408 360.834C696.284 360.247 694.898 359.953 693.248 359.953H690.078V376.376H692.707C695.439 376.376 697.48 375.68 698.831 374.288C700.181 372.897 700.857 370.824 700.857 368.072ZM527.392 422.484H523.665V403.03H517.046V399.875H533.995V403.03H527.392V422.484ZM543.815 399.875C545.764 399.875 547.372 400.112 548.64 400.587C549.918 401.061 550.867 401.783 551.485 402.752C552.114 403.721 552.429 404.953 552.429 406.448C552.429 407.561 552.222 408.51 551.81 409.293C551.398 410.077 550.856 410.726 550.186 411.242C549.516 411.757 548.8 412.17 548.037 412.479L554.455 422.484H550.264L544.805 413.422H541.171V422.484H537.459V399.875H543.815ZM543.568 402.968H541.171V410.36H543.738C545.459 410.36 546.707 410.041 547.48 409.401C548.264 408.762 548.655 407.819 548.655 406.571C548.655 405.262 548.238 404.334 547.403 403.788C546.578 403.241 545.3 402.968 543.568 402.968ZM571.697 422.484L569.486 416.206H560.841L558.63 422.484H554.717L563.13 399.783H567.244L575.641 422.484H571.697ZM568.527 413.02L566.378 406.834C566.295 406.566 566.177 406.19 566.022 405.705C565.867 405.211 565.713 404.711 565.558 404.205C565.403 403.69 565.275 403.257 565.171 402.906C565.068 403.329 564.939 403.803 564.785 404.329C564.64 404.845 564.496 405.329 564.352 405.783C564.218 406.236 564.115 406.587 564.043 406.834L561.877 413.02H568.527ZM578.626 422.484V399.875H582.337V422.484H578.626ZM588.306 422.484V399.875H592.018V419.33H601.621V422.484H588.306ZM618.338 422.484H605.534V399.875H618.338V402.999H609.245V409.139H617.766V412.247H609.245V419.345H618.338V422.484ZM629.581 399.875C631.529 399.875 633.138 400.112 634.406 400.587C635.684 401.061 636.633 401.783 637.251 402.752C637.88 403.721 638.195 404.953 638.195 406.448C638.195 407.561 637.988 408.51 637.576 409.293C637.164 410.077 636.622 410.726 635.952 411.242C635.282 411.757 634.566 412.17 633.803 412.479L640.22 422.484H636.03L630.571 413.422H626.937V422.484H623.225V399.875H629.581ZM629.334 402.968H626.937V410.36H629.504C631.225 410.36 632.473 410.041 633.246 409.401C634.03 408.762 634.421 407.819 634.421 406.571C634.421 405.262 634.004 404.334 633.169 403.788C632.344 403.241 631.066 402.968 629.334 402.968Z" fill="#4F4F4F"/>
<path d="M946.309 356.875V371.505C946.309 373.082 945.974 374.495 945.303 375.742C944.644 376.989 943.644 377.979 942.303 378.711C940.963 379.433 939.277 379.794 937.246 379.794C934.349 379.794 932.143 379.036 930.628 377.52C929.122 375.995 928.37 373.969 928.37 371.443V356.875H932.081V371.118C932.081 373.005 932.525 374.397 933.411 375.294C934.298 376.19 935.623 376.639 937.386 376.639C938.602 376.639 939.592 376.428 940.355 376.005C941.128 375.572 941.695 374.943 942.056 374.118C942.427 373.283 942.613 372.278 942.613 371.103V356.875H946.309ZM970.959 379.484H966.397L955.324 361.437H955.185C955.226 362.046 955.263 362.69 955.293 363.37C955.335 364.051 955.366 364.752 955.386 365.474C955.417 366.195 955.443 366.927 955.464 367.67V379.484H952.092V356.875H956.623L967.681 374.799H967.789C967.768 374.273 967.742 373.67 967.711 372.989C967.681 372.309 967.65 371.608 967.619 370.886C967.598 370.154 967.583 369.448 967.572 368.767V356.875H970.959V379.484ZM976.897 379.484V356.875H980.609V376.33H990.212V379.484H976.897ZM1014.2 368.149C1014.2 369.891 1013.98 371.479 1013.53 372.912C1013.1 374.335 1012.44 375.562 1011.57 376.593C1010.69 377.613 1009.59 378.402 1008.27 378.959C1006.96 379.515 1005.41 379.794 1003.64 379.794C1001.83 379.794 1000.26 379.515 998.934 378.959C997.615 378.402 996.517 377.608 995.64 376.577C994.774 375.546 994.125 374.314 993.692 372.881C993.259 371.448 993.042 369.86 993.042 368.118C993.042 365.788 993.424 363.757 994.187 362.025C994.96 360.283 996.13 358.932 997.697 357.973C999.274 357.004 1001.26 356.52 1003.67 356.52C1006.02 356.52 1007.97 356.999 1009.53 357.958C1011.08 358.917 1012.25 360.267 1013.02 362.01C1013.81 363.742 1014.2 365.788 1014.2 368.149ZM996.939 368.149C996.939 369.891 997.176 371.402 997.651 372.68C998.125 373.948 998.852 374.928 999.831 375.618C1000.82 376.299 1002.09 376.639 1003.64 376.639C1005.19 376.639 1006.46 376.299 1007.44 375.618C1008.42 374.928 1009.14 373.948 1009.6 372.68C1010.07 371.402 1010.3 369.891 1010.3 368.149C1010.3 365.499 1009.77 363.427 1008.71 361.932C1007.66 360.427 1005.98 359.674 1003.67 359.674C1002.12 359.674 1000.85 360.015 999.847 360.695C998.857 361.375 998.125 362.35 997.651 363.618C997.176 364.876 996.939 366.386 996.939 368.149ZM1033.06 379.484L1030.85 373.206H1022.21L1020 379.484H1016.08L1024.5 356.783H1028.61L1037.01 379.484H1033.06ZM1029.89 370.02L1027.74 363.834C1027.66 363.566 1027.54 363.19 1027.39 362.705C1027.23 362.211 1027.08 361.711 1026.92 361.205C1026.77 360.69 1026.64 360.257 1026.54 359.906C1026.44 360.329 1026.31 360.803 1026.15 361.329C1026.01 361.845 1025.86 362.329 1025.72 362.783C1025.58 363.236 1025.48 363.587 1025.41 363.834L1023.24 370.02H1029.89ZM1058.35 367.963C1058.35 370.51 1057.87 372.639 1056.93 374.35C1055.98 376.051 1054.6 377.335 1052.8 378.201C1050.99 379.057 1048.82 379.484 1046.27 379.484H1039.99V356.875H1046.95C1049.29 356.875 1051.31 357.298 1053.01 358.143C1054.71 358.978 1056.03 360.221 1056.96 361.87C1057.88 363.51 1058.35 365.541 1058.35 367.963ZM1054.48 368.072C1054.48 366.216 1054.19 364.69 1053.6 363.494C1053.02 362.298 1052.17 361.412 1051.03 360.834C1049.91 360.247 1048.52 359.953 1046.87 359.953H1043.7V376.376H1046.33C1049.06 376.376 1051.11 375.68 1052.46 374.288C1053.81 372.897 1054.48 370.824 1054.48 368.072ZM919.06 399.875C921.978 399.875 924.107 400.473 925.447 401.669C926.787 402.865 927.457 404.54 927.457 406.695C927.457 407.675 927.303 408.608 926.993 409.494C926.695 410.371 926.2 411.149 925.509 411.829C924.818 412.499 923.906 413.03 922.772 413.422C921.648 413.814 920.261 414.01 918.612 414.01H916.199V422.484H912.488V399.875H919.06ZM918.813 402.953H916.199V410.917H918.225C919.39 410.917 920.38 410.783 921.194 410.515C922.009 410.237 922.627 409.798 923.05 409.2C923.473 408.602 923.684 407.814 923.684 406.834C923.684 405.525 923.287 404.551 922.493 403.912C921.71 403.272 920.483 402.953 918.813 402.953ZM938.329 399.875C940.277 399.875 941.886 400.112 943.154 400.587C944.432 401.061 945.381 401.783 945.999 402.752C946.628 403.721 946.943 404.953 946.943 406.448C946.943 407.561 946.736 408.51 946.324 409.293C945.912 410.077 945.37 410.726 944.7 411.242C944.03 411.757 943.314 412.17 942.551 412.479L948.968 422.484H944.778L939.319 413.422H935.685V422.484H931.973V399.875H938.329ZM938.082 402.968H935.685V410.36H938.252C939.973 410.36 941.221 410.041 941.994 409.401C942.778 408.762 943.169 407.819 943.169 406.571C943.169 405.262 942.752 404.334 941.917 403.788C941.092 403.241 939.814 402.968 938.082 402.968ZM972.273 411.149C972.273 412.891 972.052 414.479 971.608 415.912C971.175 417.335 970.521 418.562 969.644 419.593C968.768 420.613 967.67 421.402 966.351 421.959C965.031 422.515 963.484 422.794 961.711 422.794C959.907 422.794 958.34 422.515 957.01 421.959C955.69 421.402 954.592 420.608 953.716 419.577C952.85 418.546 952.201 417.314 951.768 415.881C951.335 414.448 951.118 412.86 951.118 411.118C951.118 408.788 951.5 406.757 952.262 405.025C953.036 403.283 954.206 401.932 955.773 400.973C957.35 400.004 959.34 399.52 961.742 399.52C964.093 399.52 966.046 399.999 967.603 400.958C969.16 401.917 970.325 403.267 971.098 405.01C971.882 406.742 972.273 408.788 972.273 411.149ZM955.015 411.149C955.015 412.891 955.252 414.402 955.726 415.68C956.201 416.948 956.928 417.928 957.907 418.618C958.897 419.299 960.165 419.639 961.711 419.639C963.268 419.639 964.536 419.299 965.515 418.618C966.495 417.928 967.217 416.948 967.681 415.68C968.144 414.402 968.376 412.891 968.376 411.149C968.376 408.499 967.845 406.427 966.784 404.932C965.732 403.427 964.052 402.674 961.742 402.674C960.196 402.674 958.922 403.015 957.922 403.695C956.933 404.375 956.201 405.35 955.726 406.618C955.252 407.876 955.015 409.386 955.015 411.149ZM995.486 410.963C995.486 413.51 995.011 415.639 994.063 417.35C993.114 419.051 991.738 420.335 989.934 421.201C988.13 422.057 985.954 422.484 983.408 422.484H977.129V399.875H984.088C986.429 399.875 988.449 400.298 990.15 401.143C991.851 401.978 993.166 403.221 994.094 404.87C995.022 406.51 995.486 408.541 995.486 410.963ZM991.62 411.072C991.62 409.216 991.326 407.69 990.738 406.494C990.161 405.298 989.305 404.412 988.171 403.834C987.047 403.247 985.661 402.953 984.011 402.953H980.841V419.376H983.47C986.202 419.376 988.243 418.68 989.594 417.288C990.944 415.897 991.62 413.824 991.62 411.072ZM1018.11 399.875V414.505C1018.11 416.082 1017.78 417.495 1017.1 418.742C1016.45 419.989 1015.45 420.979 1014.1 421.711C1012.76 422.433 1011.08 422.794 1009.05 422.794C1006.15 422.794 1003.94 422.036 1002.43 420.52C1000.92 418.995 1000.17 416.969 1000.17 414.443V399.875H1003.88V414.118C1003.88 416.005 1004.33 417.397 1005.21 418.294C1006.1 419.19 1007.42 419.639 1009.19 419.639C1010.4 419.639 1011.39 419.428 1012.16 419.005C1012.93 418.572 1013.5 417.943 1013.86 417.118C1014.23 416.283 1014.41 415.278 1014.41 414.103V399.875H1018.11ZM1033.53 402.705C1032.45 402.705 1031.48 402.901 1030.62 403.293C1029.78 403.685 1029.06 404.252 1028.47 404.994C1027.88 405.726 1027.44 406.618 1027.13 407.669C1026.82 408.711 1026.66 409.886 1026.66 411.195C1026.66 412.948 1026.91 414.458 1027.4 415.726C1027.9 416.984 1028.65 417.953 1029.66 418.634C1030.67 419.304 1031.95 419.639 1033.5 419.639C1034.46 419.639 1035.39 419.546 1036.3 419.361C1037.2 419.175 1038.14 418.922 1039.11 418.603V421.758C1038.19 422.118 1037.27 422.381 1036.33 422.546C1035.39 422.711 1034.31 422.794 1033.08 422.794C1030.77 422.794 1028.85 422.314 1027.33 421.355C1025.81 420.397 1024.68 419.046 1023.92 417.304C1023.18 415.561 1022.81 413.52 1022.81 411.18C1022.81 409.468 1023.05 407.901 1023.52 406.479C1024 405.056 1024.69 403.829 1025.59 402.798C1026.5 401.757 1027.62 400.958 1028.95 400.401C1030.29 399.834 1031.82 399.551 1033.54 399.551C1034.68 399.551 1035.79 399.679 1036.88 399.937C1037.99 400.185 1039.01 400.54 1039.95 401.004L1038.65 404.066C1037.86 403.695 1037.04 403.375 1036.19 403.107C1035.33 402.839 1034.45 402.705 1033.53 402.705ZM1051.81 422.484H1048.08V403.03H1041.46V399.875H1058.41V403.03H1051.81V422.484ZM1074.93 416.33C1074.93 417.67 1074.6 418.824 1073.94 419.794C1073.29 420.763 1072.35 421.505 1071.12 422.02C1069.91 422.536 1068.45 422.794 1066.76 422.794C1065.94 422.794 1065.15 422.747 1064.4 422.654C1063.64 422.562 1062.93 422.428 1062.26 422.252C1061.6 422.067 1061 421.845 1060.45 421.587V418.092C1061.37 418.495 1062.4 418.861 1063.53 419.19C1064.66 419.51 1065.82 419.67 1066.99 419.67C1067.95 419.67 1068.75 419.546 1069.37 419.299C1070.01 419.041 1070.49 418.68 1070.8 418.216C1071.11 417.742 1071.26 417.19 1071.26 416.561C1071.26 415.891 1071.08 415.324 1070.72 414.86C1070.36 414.396 1069.81 413.974 1069.08 413.592C1068.36 413.201 1067.45 412.783 1066.36 412.34C1065.62 412.041 1064.91 411.7 1064.23 411.319C1063.56 410.938 1062.96 410.489 1062.43 409.974C1061.91 409.458 1061.49 408.85 1061.18 408.149C1060.88 407.437 1060.73 406.602 1060.73 405.644C1060.73 404.365 1061.03 403.272 1061.64 402.365C1062.26 401.458 1063.13 400.762 1064.24 400.277C1065.36 399.793 1066.67 399.551 1068.17 399.551C1069.35 399.551 1070.47 399.674 1071.51 399.922C1072.56 400.169 1073.59 400.52 1074.6 400.973L1073.43 403.958C1072.5 403.576 1071.6 403.272 1070.72 403.046C1069.85 402.819 1068.97 402.705 1068.06 402.705C1067.28 402.705 1066.61 402.824 1066.07 403.061C1065.52 403.298 1065.1 403.633 1064.81 404.066C1064.53 404.489 1064.4 404.994 1064.4 405.582C1064.4 406.242 1064.56 406.798 1064.87 407.252C1065.2 407.695 1065.71 408.102 1066.39 408.474C1067.08 408.845 1067.97 409.257 1069.05 409.711C1070.3 410.226 1071.35 410.767 1072.22 411.334C1073.1 411.902 1073.77 412.582 1074.23 413.376C1074.69 414.159 1074.93 415.144 1074.93 416.33Z" fill="#4F4F4F"/>
<path d="M1299.2 365.969C1301.15 365.969 1302.75 366.206 1304.02 366.68C1305.3 367.154 1306.25 367.876 1306.87 368.845C1307.5 369.814 1307.81 371.046 1307.81 372.541C1307.81 373.654 1307.6 374.603 1307.19 375.386C1306.78 376.17 1306.24 376.819 1305.57 377.335C1304.9 377.85 1304.18 378.263 1303.42 378.572L1309.84 388.578H1305.65L1300.19 379.515H1296.55V388.578H1292.84V365.969H1299.2ZM1298.95 369.061H1296.55V376.453H1299.12C1300.84 376.453 1302.09 376.134 1302.86 375.495C1303.65 374.855 1304.04 373.912 1304.04 372.665C1304.04 371.355 1303.62 370.428 1302.78 369.881C1301.96 369.335 1300.68 369.061 1298.95 369.061ZM1325.87 388.578H1313.07V365.969H1325.87V369.092H1316.78V375.232H1325.3V378.34H1316.78V385.438H1325.87V388.578ZM1338.6 388.578H1334.87V369.123H1328.25V365.969H1345.2V369.123H1338.6V388.578ZM1366.42 365.969V380.598C1366.42 382.175 1366.09 383.588 1365.42 384.835C1364.76 386.083 1363.76 387.072 1362.42 387.804C1361.08 388.526 1359.39 388.887 1357.36 388.887C1354.46 388.887 1352.26 388.129 1350.74 386.614C1349.23 385.088 1348.48 383.062 1348.48 380.536V365.969H1352.19V380.211C1352.19 382.098 1352.64 383.49 1353.52 384.387C1354.41 385.284 1355.74 385.732 1357.5 385.732C1358.71 385.732 1359.7 385.521 1360.47 385.098C1361.24 384.665 1361.81 384.036 1362.17 383.211C1362.54 382.376 1362.72 381.371 1362.72 380.196V365.969H1366.42ZM1378.56 365.969C1380.51 365.969 1382.12 366.206 1383.39 366.68C1384.66 367.154 1385.61 367.876 1386.23 368.845C1386.86 369.814 1387.17 371.046 1387.17 372.541C1387.17 373.654 1386.97 374.603 1386.56 375.386C1386.14 376.17 1385.6 376.819 1384.93 377.335C1384.26 377.85 1383.55 378.263 1382.78 378.572L1389.2 388.578H1385.01L1379.55 379.515H1375.92V388.578H1372.2V365.969H1378.56ZM1378.31 369.061H1375.92V376.453H1378.48C1380.2 376.453 1381.45 376.134 1382.23 375.495C1383.01 374.855 1383.4 373.912 1383.4 372.665C1383.4 371.355 1382.98 370.428 1382.15 369.881C1381.32 369.335 1380.05 369.061 1378.31 369.061ZM1411.3 388.578H1406.74L1395.66 370.531H1395.53C1395.57 371.139 1395.6 371.783 1395.63 372.464C1395.67 373.144 1395.71 373.845 1395.73 374.567C1395.76 375.289 1395.78 376.02 1395.8 376.763V388.578H1392.43V365.969H1396.96L1408.02 383.892H1408.13C1408.11 383.366 1408.08 382.763 1408.05 382.083C1408.02 381.402 1407.99 380.701 1407.96 379.979C1407.94 379.247 1407.92 378.541 1407.91 377.861V365.969H1411.3V388.578ZM1438.27 388.578H1425.46V365.969H1438.27V369.092H1429.18V375.232H1437.7V378.34H1429.18V385.438H1438.27V388.578ZM1452.91 388.578L1446.4 369.696H1446.26C1446.29 370.118 1446.33 370.696 1446.37 371.428C1446.41 372.16 1446.45 372.943 1446.48 373.778C1446.51 374.613 1446.53 375.412 1446.53 376.175V388.578H1443.16V365.969H1448.37L1454.63 384.016H1454.72L1461.2 365.969H1466.4V388.578H1462.86V375.99C1462.86 375.299 1462.87 374.551 1462.89 373.747C1462.92 372.943 1462.95 372.18 1462.98 371.458C1463.02 370.737 1463.05 370.159 1463.07 369.726H1462.95L1456.19 388.578H1452.91ZM1478.92 365.969C1481.84 365.969 1483.97 366.567 1485.31 367.762C1486.65 368.958 1487.32 370.634 1487.32 372.788C1487.32 373.768 1487.17 374.701 1486.86 375.587C1486.56 376.464 1486.06 377.242 1485.37 377.923C1484.68 378.593 1483.77 379.124 1482.64 379.515C1481.51 379.907 1480.13 380.103 1478.48 380.103H1476.06V388.578H1472.35V365.969H1478.92ZM1478.68 369.046H1476.06V377.01H1478.09C1479.25 377.01 1480.24 376.876 1481.06 376.608C1481.87 376.33 1482.49 375.892 1482.91 375.294C1483.34 374.696 1483.55 373.907 1483.55 372.928C1483.55 371.618 1483.15 370.644 1482.36 370.005C1481.57 369.366 1480.35 369.046 1478.68 369.046ZM1499.68 388.578H1495.95V369.123H1489.33V365.969H1506.28V369.123H1499.68V388.578ZM1516.15 376.283L1521.51 365.969H1525.52L1518 379.794V388.578H1514.31V379.933L1506.78 365.969H1510.81L1516.15 376.283ZM1356.55 431.578H1352.83V412.123H1346.21V408.969H1363.16V412.123H1356.55V431.578ZM1372.98 408.969C1374.93 408.969 1376.53 409.206 1377.8 409.68C1379.08 410.154 1380.03 410.876 1380.65 411.845C1381.28 412.814 1381.59 414.046 1381.59 415.541C1381.59 416.654 1381.39 417.603 1380.97 418.386C1380.56 419.17 1380.02 419.819 1379.35 420.335C1378.68 420.85 1377.96 421.263 1377.2 421.572L1383.62 431.578H1379.43L1373.97 422.515H1370.33V431.578H1366.62V408.969H1372.98ZM1372.73 412.061H1370.33V419.453H1372.9C1374.62 419.453 1375.87 419.134 1376.64 418.495C1377.43 417.855 1377.82 416.912 1377.82 415.665C1377.82 414.355 1377.4 413.428 1376.57 412.881C1375.74 412.335 1374.46 412.061 1372.73 412.061ZM1400.86 431.578L1398.65 425.299H1390L1387.79 431.578H1383.88L1392.29 408.876H1396.41L1404.8 431.578H1400.86ZM1397.69 422.113L1395.54 415.928C1395.46 415.66 1395.34 415.283 1395.18 414.799C1395.03 414.304 1394.88 413.804 1394.72 413.299C1394.57 412.783 1394.44 412.35 1394.33 412C1394.23 412.422 1394.1 412.897 1393.95 413.422C1393.8 413.938 1393.66 414.422 1393.51 414.876C1393.38 415.33 1393.28 415.68 1393.21 415.928L1391.04 422.113H1397.69ZM1407.79 431.578V408.969H1411.5V431.578H1407.79ZM1417.47 431.578V408.969H1421.18V428.423H1430.78V431.578H1417.47ZM1447.5 431.578H1434.7V408.969H1447.5V412.092H1438.41V418.232H1446.93V421.34H1438.41V428.438H1447.5V431.578ZM1458.74 408.969C1460.69 408.969 1462.3 409.206 1463.57 409.68C1464.85 410.154 1465.8 410.876 1466.41 411.845C1467.04 412.814 1467.36 414.046 1467.36 415.541C1467.36 416.654 1467.15 417.603 1466.74 418.386C1466.33 419.17 1465.79 419.819 1465.12 420.335C1464.45 420.85 1463.73 421.263 1462.97 421.572L1469.38 431.578H1465.19L1459.73 422.515H1456.1V431.578H1452.39V408.969H1458.74ZM1458.5 412.061H1456.1V419.453H1458.67C1460.39 419.453 1461.64 419.134 1462.41 418.495C1463.19 417.855 1463.58 416.912 1463.58 415.665C1463.58 414.355 1463.17 413.428 1462.33 412.881C1461.51 412.335 1460.23 412.061 1458.5 412.061Z" fill="#4F4F4F"/>
<path d="M919.942 95H915.225V72.3909H928.184V76.3189H919.942V82.149H927.612V86.0615H919.942V95ZM946.448 95L944.809 89.6184H936.566L934.927 95H929.762L937.741 72.2982H943.602L951.613 95H946.448ZM943.664 85.5976L942.025 80.3397C941.922 79.9892 941.783 79.5407 941.607 78.9943C941.443 78.4376 941.272 77.8757 941.097 77.3086C940.932 76.7313 940.798 76.2313 940.695 75.8086C940.592 76.2313 940.448 76.7571 940.262 77.386C940.087 78.0045 939.917 78.5922 939.752 79.1489C939.587 79.7056 939.468 80.1026 939.396 80.3397L937.772 85.5976H943.664ZM964.077 76.056C963.16 76.056 962.345 76.2364 961.634 76.5973C960.933 76.9478 960.34 77.4581 959.856 78.1283C959.381 78.7984 959.02 79.6077 958.773 80.5562C958.526 81.5047 958.402 82.5717 958.402 83.7573C958.402 85.3553 958.598 86.7214 958.99 87.8554C959.392 88.9792 960.01 89.84 960.845 90.438C961.68 91.0256 962.758 91.3195 964.077 91.3195C964.995 91.3195 965.912 91.2164 966.83 91.0102C967.758 90.804 968.763 90.5101 969.846 90.1287V94.1495C968.846 94.5618 967.861 94.8557 966.892 95.0309C965.923 95.2165 964.835 95.3093 963.629 95.3093C961.299 95.3093 959.381 94.8299 957.876 93.8711C956.381 92.902 955.273 91.5514 954.551 89.8194C953.83 88.0771 953.469 86.0461 953.469 83.7264C953.469 82.015 953.701 80.4479 954.165 79.0252C954.629 77.6025 955.309 76.3705 956.206 75.3292C957.103 74.2879 958.211 73.4838 959.531 72.9167C960.85 72.3497 962.366 72.0662 964.077 72.0662C965.201 72.0662 966.325 72.2105 967.449 72.4992C968.583 72.7776 969.665 73.1642 970.696 73.659L969.15 77.5561C968.304 77.154 967.454 76.8035 966.598 76.5045C965.742 76.2055 964.902 76.056 964.077 76.056ZM974.671 95V72.3909H979.465V95H974.671ZM985.155 95V72.3909H989.949V91.0411H999.12V95H985.155ZM1003.06 95V72.3909H1007.86V95H1003.06ZM1022.27 95H1017.48V76.3808H1011.34V72.3909H1028.41V76.3808H1022.27V95ZM1038.93 81.7006L1043.64 72.3909H1048.81L1041.31 86.2007V95H1036.54V86.3554L1029.04 72.3909H1034.24L1038.93 81.7006ZM1059.88 72.3909H1066.92C1069.93 72.3909 1072.2 72.8136 1073.75 73.659C1075.3 74.5044 1076.07 75.989 1076.07 78.1128C1076.07 78.9685 1075.93 79.7417 1075.65 80.4325C1075.39 81.1232 1074.99 81.6902 1074.48 82.1336C1073.96 82.5769 1073.33 82.8655 1072.59 82.9996V83.1542C1073.34 83.3089 1074.02 83.5769 1074.63 83.9584C1075.24 84.3295 1075.73 84.8759 1076.09 85.5976C1076.46 86.309 1076.64 87.2575 1076.64 88.4431C1076.64 89.8142 1076.31 90.9895 1075.64 91.969C1074.97 92.9484 1074.01 93.701 1072.76 94.2268C1071.52 94.7423 1070.05 95 1068.34 95H1059.88V72.3909ZM1064.67 81.3449H1067.46C1068.85 81.3449 1069.81 81.1284 1070.35 80.6954C1070.89 80.2521 1071.15 79.6025 1071.15 78.7468C1071.15 77.8808 1070.83 77.2623 1070.19 76.8911C1069.57 76.5097 1068.57 76.3189 1067.19 76.3189H1064.67V81.3449ZM1064.67 85.1491V91.0411H1067.8C1069.24 91.0411 1070.25 90.7627 1070.81 90.206C1071.38 89.6493 1071.66 88.9018 1071.66 87.9637C1071.66 87.4069 1071.54 86.9172 1071.29 86.4945C1071.05 86.0718 1070.63 85.7419 1070.04 85.5048C1069.46 85.2677 1068.66 85.1491 1067.64 85.1491H1064.67Z" fill="#333333"/>
<path d="M1332.56 95H1327.85V72.3909H1340.8V76.3189H1332.56V82.149H1340.23V86.0615H1332.56V95ZM1359.07 95L1357.43 89.6184H1349.19L1347.55 95H1342.38L1350.36 72.2982H1356.22L1364.23 95H1359.07ZM1356.28 85.5976L1354.65 80.3397C1354.54 79.9892 1354.4 79.5407 1354.23 78.9943C1354.06 78.4376 1353.89 77.8757 1353.72 77.3086C1353.55 76.7313 1353.42 76.2313 1353.32 75.8086C1353.21 76.2313 1353.07 76.7571 1352.88 77.386C1352.71 78.0045 1352.54 78.5922 1352.37 79.1489C1352.21 79.7056 1352.09 80.1026 1352.02 80.3397L1350.39 85.5976H1356.28ZM1376.7 76.056C1375.78 76.056 1374.97 76.2364 1374.25 76.5973C1373.55 76.9478 1372.96 77.4581 1372.48 78.1283C1372 78.7984 1371.64 79.6077 1371.39 80.5562C1371.15 81.5047 1371.02 82.5717 1371.02 83.7573C1371.02 85.3553 1371.22 86.7214 1371.61 87.8554C1372.01 88.9792 1372.63 89.84 1373.47 90.438C1374.3 91.0256 1375.38 91.3195 1376.7 91.3195C1377.62 91.3195 1378.53 91.2164 1379.45 91.0102C1380.38 90.804 1381.38 90.5101 1382.47 90.1287V94.1495C1381.47 94.5618 1380.48 94.8557 1379.51 95.0309C1378.54 95.2165 1377.46 95.3093 1376.25 95.3093C1373.92 95.3093 1372 94.8299 1370.5 93.8711C1369 92.902 1367.89 91.5514 1367.17 89.8194C1366.45 88.0771 1366.09 86.0461 1366.09 83.7264C1366.09 82.015 1366.32 80.4479 1366.78 79.0252C1367.25 77.6025 1367.93 76.3705 1368.83 75.3292C1369.72 74.2879 1370.83 73.4838 1372.15 72.9167C1373.47 72.3497 1374.99 72.0662 1376.7 72.0662C1377.82 72.0662 1378.95 72.2105 1380.07 72.4992C1381.2 72.7776 1382.29 73.1642 1383.32 73.659L1381.77 77.5561C1380.92 77.154 1380.07 76.8035 1379.22 76.5045C1378.36 76.2055 1377.52 76.056 1376.7 76.056ZM1387.29 95V72.3909H1392.08V95H1387.29ZM1397.78 95V72.3909H1402.57V91.0411H1411.74V95H1397.78ZM1415.68 95V72.3909H1420.48V95H1415.68ZM1434.89 95H1430.1V76.3808H1423.96V72.3909H1441.03V76.3808H1434.89V95ZM1451.55 81.7006L1456.26 72.3909H1461.43L1453.93 86.2007V95H1449.16V86.3554L1441.66 72.3909H1446.86L1451.55 81.7006ZM1482.1 76.056C1481.19 76.056 1480.37 76.2364 1479.66 76.5973C1478.96 76.9478 1478.37 77.4581 1477.88 78.1283C1477.41 78.7984 1477.05 79.6077 1476.8 80.5562C1476.55 81.5047 1476.43 82.5717 1476.43 83.7573C1476.43 85.3553 1476.62 86.7214 1477.02 87.8554C1477.42 88.9792 1478.04 89.84 1478.87 90.438C1479.71 91.0256 1480.78 91.3195 1482.1 91.3195C1483.02 91.3195 1483.94 91.2164 1484.86 91.0102C1485.78 90.804 1486.79 90.5101 1487.87 90.1287V94.1495C1486.87 94.5618 1485.89 94.8557 1484.92 95.0309C1483.95 95.2165 1482.86 95.3093 1481.66 95.3093C1479.33 95.3093 1477.41 94.8299 1475.9 93.8711C1474.41 92.902 1473.3 91.5514 1472.58 89.8194C1471.86 88.0771 1471.49 86.0461 1471.49 83.7264C1471.49 82.015 1471.73 80.4479 1472.19 79.0252C1472.65 77.6025 1473.34 76.3705 1474.23 75.3292C1475.13 74.2879 1476.24 73.4838 1477.56 72.9167C1478.88 72.3497 1480.39 72.0662 1482.1 72.0662C1483.23 72.0662 1484.35 72.2105 1485.47 72.4992C1486.61 72.7776 1487.69 73.1642 1488.72 73.659L1487.18 77.5561C1486.33 77.154 1485.48 76.8035 1484.62 76.5045C1483.77 76.2055 1482.93 76.056 1482.1 76.056Z" fill="#333333"/>
<g clip-path="url(#clip2_211_87490)">
<path d="M166.745 297.49C206.921 297.49 239.49 264.921 239.49 224.745C239.49 184.569 206.921 152 166.745 152C126.569 152 94 184.569 94 224.745C94 264.921 126.569 297.49 166.745 297.49Z" fill="#EDF2F6"/>
<path d="M221.304 242.931C221.287 244.824 220.858 246.692 220.047 248.403C219.236 250.115 218.062 251.629 216.608 252.842C216.004 257.629 214.113 261.117 211.886 261.117H205.066C203.254 261.117 201.662 258.779 200.773 255.271H169.875C168.979 258.779 167.388 261.117 165.582 261.117H157.45C155.638 261.117 154.053 258.779 153.157 255.271H140.55C139.94 258.707 138.543 261.117 136.913 261.117H121.552C119.604 261.117 118.045 257.83 117.733 253.511C114.395 251.225 112.186 246.828 112.186 242.281H135.568V189.021C135.554 188.608 135.621 188.196 135.766 187.809C135.911 187.422 136.131 187.068 136.413 186.766C136.696 186.464 137.035 186.221 137.412 186.051C137.788 185.881 138.195 185.787 138.608 185.774H180.339C182.463 185.774 184.782 189.184 188.341 194.867L195.44 206.207C195.636 206.515 195.779 206.853 195.862 207.208L198.818 219.152C205.546 220.451 210.911 225.361 210.911 225.706V231.084C215.581 232.227 217.406 234.909 217.406 235.137V242.931H221.304Z" fill="#0B2127"/>
<path d="M187.139 237.735H202.857C203.062 237.735 203.265 237.775 203.454 237.854C203.643 237.932 203.815 238.047 203.96 238.191C204.104 238.336 204.219 238.508 204.298 238.697C204.376 238.886 204.416 239.089 204.416 239.294V239.683H185.581V239.294C185.581 239.089 185.621 238.886 185.699 238.697C185.778 238.508 185.892 238.336 186.037 238.191C186.182 238.047 186.354 237.932 186.543 237.854C186.732 237.775 186.935 237.735 187.139 237.735Z" fill="white"/>
<path d="M187.139 233.838H202.857C203.062 233.838 203.265 233.878 203.454 233.957C203.643 234.035 203.815 234.15 203.96 234.294C204.104 234.439 204.219 234.611 204.298 234.8C204.376 234.989 204.416 235.192 204.416 235.397V235.786H185.581V235.397C185.581 235.192 185.621 234.989 185.699 234.8C185.778 234.611 185.892 234.439 186.037 234.294C186.182 234.15 186.354 234.035 186.543 233.957C186.732 233.878 186.935 233.838 187.139 233.838V233.838Z" fill="white"/>
<path d="M187.139 229.941H202.857C203.062 229.941 203.265 229.981 203.454 230.06C203.643 230.138 203.815 230.253 203.96 230.397C204.104 230.542 204.219 230.714 204.298 230.903C204.376 231.092 204.416 231.295 204.416 231.5V231.889H185.581V231.5C185.581 231.295 185.621 231.092 185.699 230.903C185.778 230.714 185.892 230.542 186.037 230.397C186.182 230.253 186.354 230.138 186.543 230.06C186.732 229.981 186.935 229.941 187.139 229.941V229.941Z" fill="white"/>
<path d="M192.959 208.325L164.965 207.676C164.851 207.679 164.738 207.705 164.634 207.753C164.531 207.801 164.438 207.87 164.361 207.955C164.284 208.04 164.226 208.14 164.189 208.248C164.152 208.356 164.138 208.471 164.147 208.585L164.108 217.996C164.095 218.223 164.173 218.445 164.324 218.614C164.475 218.783 164.687 218.886 164.913 218.899H195.057C195.188 218.889 195.315 218.85 195.429 218.784C195.543 218.719 195.641 218.628 195.716 218.52C195.791 218.412 195.84 218.288 195.861 218.158C195.882 218.028 195.873 217.895 195.836 217.769L193.719 208.988C193.683 208.809 193.589 208.647 193.452 208.527C193.314 208.407 193.141 208.336 192.959 208.325V208.325Z" fill="white"/>
<path d="M154.066 208.332L161.153 207.956C161.402 207.93 161.651 208.004 161.847 208.16C162.043 208.317 162.169 208.545 162.198 208.794L162.25 217.64C162.224 217.887 162.102 218.114 161.91 218.272C161.718 218.43 161.472 218.506 161.224 218.484L154.079 216.906C153.43 216.906 152.917 216.38 153.092 215.841V209.157C153.091 209.027 153.123 208.899 153.185 208.786C153.248 208.672 153.339 208.576 153.449 208.508C153.634 208.391 153.848 208.33 154.066 208.332Z" fill="white"/>
<path d="M188.302 215.002C187.276 214.999 186.262 215.231 185.34 215.682C184.418 216.132 183.611 216.789 182.983 217.6H185.996C186.699 217.204 187.492 216.996 188.299 216.996C189.105 216.996 189.899 217.204 190.601 217.6H193.615C192.986 216.79 192.181 216.135 191.26 215.685C190.339 215.234 189.327 215.001 188.302 215.002V215.002Z" fill="#0B2127"/>
<path d="M158.951 255.921C160.386 255.921 161.549 253.013 161.549 249.426C161.549 245.839 160.386 242.931 158.951 242.931C157.516 242.931 156.353 245.839 156.353 249.426C156.353 253.013 157.516 255.921 158.951 255.921Z" fill="white"/>
<path d="M170.856 243.138H169.557C169.526 241.245 168.745 239.441 167.385 238.123C166.024 236.805 164.196 236.081 162.302 236.111H147.909V234.812H162.302C164.541 234.782 166.699 235.643 168.303 237.204C169.907 238.766 170.825 240.9 170.856 243.138V243.138Z" fill="white"/>
<path d="M208.963 251.375H184.282V250.076H208.963C211.606 250.076 213.763 248.251 213.763 246.004H215.062C215.036 248.966 212.295 251.375 208.963 251.375Z" fill="white"/>
<path d="M178.761 242.931C180.734 242.931 182.333 241.332 182.333 239.359C182.333 237.386 180.734 235.787 178.761 235.787C176.788 235.787 175.188 237.386 175.188 239.359C175.188 241.332 176.788 242.931 178.761 242.931Z" fill="white"/>
<path d="M211.236 242.931C213.209 242.931 214.808 241.332 214.808 239.359C214.808 237.386 213.209 235.787 211.236 235.787C209.263 235.787 207.664 237.386 207.664 239.359C207.664 241.332 209.263 242.931 211.236 242.931Z" fill="white"/>
<path d="M221.304 261.117H112.186V263.715H221.304V261.117Z" fill="#0B2127"/>
<path d="M123.877 257.869C124.953 257.869 125.826 256.125 125.826 253.972C125.826 251.82 124.953 250.075 123.877 250.075C122.801 250.075 121.929 251.82 121.929 253.972C121.929 256.125 122.801 257.869 123.877 257.869Z" fill="white"/>
<path d="M131.022 257.869C132.098 257.869 132.97 256.125 132.97 253.972C132.97 251.82 132.098 250.075 131.022 250.075C129.946 250.075 129.073 251.82 129.073 253.972C129.073 256.125 129.946 257.869 131.022 257.869Z" fill="white"/>
</g>
<g clip-path="url(#clip3_211_87490)">
<path d="M578.533 297.421C618.709 297.421 651.278 264.852 651.278 224.676C651.278 184.5 618.709 151.931 578.533 151.931C538.357 151.931 505.788 184.5 505.788 224.676C505.788 264.852 538.357 297.421 578.533 297.421Z" fill="#EDF2F6"/>
<path d="M568.193 247.409H527.572V260.724H568.193V247.409Z" fill="#0B2127"/>
<path d="M614.606 181.808H523.675V246.759H614.606V181.808Z" fill="white"/>
<path d="M613.307 183.108V245.461H524.974V183.108H613.307ZM615.905 180.51H522.376V248.059H615.905V180.51Z" fill="#0B2127"/>
<path d="M631.494 266.245H522.376V268.843H631.494V266.245Z" fill="#0B2127"/>
<path d="M604.617 255.852L599.421 248.058H609.813L604.617 255.852Z" fill="#0B2127"/>
<path d="M604.617 259.75L599.421 267.544H609.813L604.617 259.75Z" fill="#0B2127"/>
<path d="M606.565 246.759H602.668V266.245H606.565V246.759Z" fill="#0B2127"/>
<path d="M587.71 255.852L582.514 248.058H592.906L587.71 255.852Z" fill="#0B2127"/>
<path d="M587.71 259.75L582.514 267.544H592.906L587.71 259.75Z" fill="#0B2127"/>
<path d="M589.659 246.759H585.762V266.245H589.659V246.759Z" fill="#0B2127"/>
<path d="M587.42 249.571L586.358 252.034L604.727 259.957L605.789 257.493L587.42 249.571Z" fill="#0B2127"/>
<path d="M604.73 249.555L586.361 257.478L587.423 259.941L605.793 252.018L604.73 249.555Z" fill="#0B2127"/>
<path d="M589.185 180.51H586.587V246.76H589.185V180.51Z" fill="#0B2127"/>
<path d="M578.338 257.151C578.338 262.633 575.967 266.244 573.038 266.244C570.109 266.244 567.731 262.172 567.731 257.151C567.731 252.131 578.338 248.058 578.338 248.058V257.151Z" fill="#0B2127"/>
<path d="M538.828 266.244C537.146 266.244 535.782 263.341 535.782 259.749V248.058H578.286L577.558 258.45C577.558 262.042 574.72 266.244 573.012 266.244H538.828Z" fill="#0B2127"/>
<path d="M538.568 266.244C541.499 266.244 543.875 262.173 543.875 257.151C543.875 252.129 541.499 248.058 538.568 248.058C535.638 248.058 533.262 252.129 533.262 257.151C533.262 262.173 535.638 266.244 538.568 266.244Z" fill="#0B2127"/>
<path d="M538.568 262.172C538.016 261.522 537.166 259.795 537.166 257.151C537.166 254.508 538.016 252.754 538.568 252.13C539.127 252.78 539.978 254.508 539.978 257.151C539.978 259.795 539.127 261.548 538.568 262.172Z" fill="#0B2127"/>
<path d="M540.264 261.048C541.34 261.048 542.212 259.304 542.212 257.151C542.212 254.999 541.34 253.254 540.264 253.254C539.188 253.254 538.315 254.999 538.315 257.151C538.315 259.304 539.188 261.048 540.264 261.048Z" fill="white"/>
<path d="M548.707 261.048C549.783 261.048 550.656 259.304 550.656 257.151C550.656 254.999 549.783 253.254 548.707 253.254C547.631 253.254 546.759 254.999 546.759 257.151C546.759 259.304 547.631 261.048 548.707 261.048Z" fill="white"/>
<path d="M624.239 228.463L620.562 224.786L627.817 217.531L620.562 210.276L624.239 206.6L635.163 217.531L624.239 228.463Z" fill="#0B2127"/>
<path d="M631.494 214.933H597.719V220.129H631.494V214.933Z" fill="#0B2127"/>
<path d="M604.974 228.463L594.043 217.531L604.974 206.6L608.65 210.276L601.389 217.531L608.65 224.786L604.974 228.463Z" fill="#0B2127"/>
<path d="M567.517 202.593H544.135V225.975H567.517V202.593Z" fill="#F65335"/>
<path d="M561.645 218.181L561.684 221.474C561.684 221.474 557.645 221.805 554.287 221.805C551.39 221.805 549.954 219.908 549.954 217.804V210.62C549.954 208.477 551.383 206.606 554.274 206.606C557.716 206.606 561.645 206.86 561.645 206.86V210.387H555.228C554.254 210.387 553.877 210.867 553.877 211.614V216.882C553.857 217.062 553.879 217.244 553.941 217.414C554.002 217.584 554.102 217.738 554.233 217.864C554.364 217.989 554.521 218.083 554.694 218.138C554.866 218.193 555.049 218.208 555.228 218.181H561.645Z" fill="white"/>
</g>
<defs>
<clipPath id="clip0_211_87490">
<rect width="145.49" height="145.49" fill="white" transform="translate(920.174 151.931)"/>
</clipPath>
<clipPath id="clip1_211_87490">
<rect width="145.49" height="145.49" fill="white" transform="translate(1334.56 151.931)"/>
</clipPath>
<clipPath id="clip2_211_87490">
<rect width="145.49" height="145.49" fill="white" transform="translate(94 152)"/>
</clipPath>
<clipPath id="clip3_211_87490">
<rect width="145.49" height="145.49" fill="white" transform="translate(505.788 151.931)"/>
</clipPath>
</defs>
</svg>
