<svg width="736" height="566" viewBox="0 0 736 566" fill="none" xmlns="http://www.w3.org/2000/svg">
<g clip-path="url(#clip0_134_73112)">
<rect x="144" y="36" width="447" height="494" fill="#F2F2F2"/>
<path d="M192.232 132H194.392L191.784 127.808C193.064 127.6 194.312 126.576 194.312 124.672C194.312 122.704 192.936 121.328 190.824 121.328H186.136V132H188.008V128.016H189.864L192.232 132ZM192.392 124.672C192.392 125.696 191.624 126.368 190.568 126.368H188.008V122.976H190.568C191.624 122.976 192.392 123.648 192.392 124.672ZM195.25 128.128C195.25 130.576 196.979 132.192 199.299 132.192C200.531 132.192 201.667 131.808 202.435 131.072L201.667 129.968C201.123 130.512 200.227 130.816 199.475 130.816C198.019 130.816 197.138 129.856 197.01 128.688H202.979V128.288C202.979 125.856 201.491 124.08 199.171 124.08C196.882 124.08 195.25 125.888 195.25 128.128ZM199.171 125.456C200.691 125.456 201.315 126.592 201.347 127.504H196.994C197.075 126.56 197.73 125.456 199.171 125.456ZM209.437 132H211.117V126.88C211.117 124.8 209.613 124.08 207.901 124.08C206.669 124.08 205.549 124.48 204.653 125.328L205.341 126.496C206.013 125.84 206.765 125.52 207.629 125.52C208.701 125.52 209.437 126.064 209.437 126.96V128.112C208.877 127.456 207.981 127.12 206.941 127.12C205.677 127.12 204.253 127.856 204.253 129.632C204.253 131.344 205.677 132.192 206.941 132.192C207.965 132.192 208.861 131.824 209.437 131.168V132ZM209.437 130.24C209.053 130.768 208.333 131.04 207.597 131.04C206.653 131.04 205.949 130.496 205.949 129.664C205.949 128.816 206.653 128.272 207.597 128.272C208.333 128.272 209.053 128.544 209.437 129.072V130.24ZM212.703 130.992C213.503 131.776 214.703 132.192 216.015 132.192C218.095 132.192 219.231 131.152 219.231 129.792C219.231 127.968 217.583 127.584 216.239 127.296C215.327 127.088 214.559 126.88 214.559 126.288C214.559 125.744 215.119 125.424 215.999 125.424C216.959 125.424 217.823 125.824 218.287 126.352L218.991 125.168C218.287 124.544 217.295 124.08 215.983 124.08C214.031 124.08 212.943 125.168 212.943 126.432C212.943 128.16 214.527 128.512 215.855 128.8C216.799 129.008 217.615 129.248 217.615 129.92C217.615 130.496 217.103 130.864 216.095 130.864C215.087 130.864 214.015 130.336 213.471 129.776L212.703 130.992ZM224.49 132.192C226.97 132.192 228.474 130.352 228.474 128.128C228.474 125.92 226.97 124.08 224.49 124.08C222.042 124.08 220.522 125.92 220.522 128.128C220.522 130.352 222.042 132.192 224.49 132.192ZM224.49 130.704C223.066 130.704 222.266 129.504 222.266 128.128C222.266 126.768 223.066 125.568 224.49 125.568C225.93 125.568 226.73 126.768 226.73 128.128C226.73 129.504 225.93 130.704 224.49 130.704ZM235.47 132H237.15V126.56C237.15 124.976 236.318 124.08 234.654 124.08C233.438 124.08 232.446 124.72 231.934 125.328V124.272H230.254V132H231.934V126.608C232.318 126.08 233.054 125.568 233.918 125.568C234.862 125.568 235.47 125.968 235.47 127.168V132Z" fill="#4F4F4F"/>
<path d="M186.136 81H188.008V70.328H186.136V81ZM195.525 81H197.205V75.56C197.205 73.976 196.373 73.08 194.709 73.08C193.493 73.08 192.501 73.72 191.989 74.328V73.272H190.309V81H191.989V75.608C192.373 75.08 193.109 74.568 193.973 74.568C194.917 74.568 195.525 74.968 195.525 76.168V81ZM199.867 81H201.547V74.744H203.115V73.272H201.547V72.84C201.547 71.976 201.963 71.544 202.619 71.544C202.859 71.544 203.099 71.592 203.291 71.704L203.659 70.472C203.323 70.28 202.843 70.168 202.315 70.168C200.891 70.168 199.867 71.112 199.867 72.84V73.272H198.587V74.744H199.867V81ZM204.469 81H206.149V75.736C206.485 75.192 207.429 74.712 208.133 74.712C208.341 74.712 208.517 74.728 208.661 74.76V73.096C207.653 73.096 206.725 73.672 206.149 74.408V73.272H204.469V81ZM214.815 81H216.496V75.88C216.496 73.8 214.991 73.08 213.28 73.08C212.047 73.08 210.927 73.48 210.031 74.328L210.719 75.496C211.391 74.84 212.143 74.52 213.007 74.52C214.079 74.52 214.815 75.064 214.815 75.96V77.112C214.255 76.456 213.359 76.12 212.319 76.12C211.055 76.12 209.631 76.856 209.631 78.632C209.631 80.344 211.055 81.192 212.319 81.192C213.344 81.192 214.24 80.824 214.815 80.168V81ZM214.815 79.24C214.431 79.768 213.711 80.04 212.975 80.04C212.031 80.04 211.327 79.496 211.327 78.664C211.327 77.816 212.031 77.272 212.975 77.272C213.711 77.272 214.431 77.544 214.815 78.072V79.24ZM218.274 77.128C218.274 79.48 219.922 81.192 222.274 81.192C223.778 81.192 224.69 80.552 225.234 79.816L224.13 78.792C223.698 79.384 223.106 79.704 222.354 79.704C220.946 79.704 220.018 78.632 220.018 77.128C220.018 75.624 220.946 74.568 222.354 74.568C223.106 74.568 223.698 74.872 224.13 75.48L225.234 74.456C224.69 73.72 223.778 73.08 222.274 73.08C219.922 73.08 218.274 74.792 218.274 77.128ZM229.107 81.192C229.891 81.192 230.387 80.984 230.691 80.696L230.291 79.432C230.163 79.576 229.859 79.704 229.539 79.704C229.059 79.704 228.803 79.32 228.803 78.792V74.744H230.371V73.272H228.803V71.16H227.123V73.272H225.843V74.744H227.123V79.208C227.123 80.488 227.811 81.192 229.107 81.192ZM232.808 71.992C233.384 71.992 233.848 71.528 233.848 70.952C233.848 70.376 233.384 69.912 232.808 69.912C232.248 69.912 231.768 70.376 231.768 70.952C231.768 71.528 232.248 71.992 232.808 71.992ZM231.976 81H233.656V73.272H231.976V81ZM239.403 81.192C241.883 81.192 243.387 79.352 243.387 77.128C243.387 74.92 241.883 73.08 239.403 73.08C236.955 73.08 235.435 74.92 235.435 77.128C235.435 79.352 236.955 81.192 239.403 81.192ZM239.403 79.704C237.979 79.704 237.179 78.504 237.179 77.128C237.179 75.768 237.979 74.568 239.403 74.568C240.843 74.568 241.643 75.768 241.643 77.128C241.643 78.504 240.843 79.704 239.403 79.704ZM250.383 81H252.063V75.56C252.063 73.976 251.231 73.08 249.567 73.08C248.351 73.08 247.359 73.72 246.847 74.328V73.272H245.167V81H246.847V75.608C247.231 75.08 247.967 74.568 248.831 74.568C249.775 74.568 250.383 74.968 250.383 76.168V81ZM258.563 81H262.531C265.859 81 268.115 78.808 268.115 75.672C268.115 72.536 265.859 70.328 262.531 70.328H258.563V81ZM260.435 79.352V71.976H262.531C264.915 71.976 266.195 73.608 266.195 75.672C266.195 77.688 264.851 79.352 262.531 79.352H260.435ZM269.474 77.128C269.474 79.576 271.202 81.192 273.522 81.192C274.754 81.192 275.89 80.808 276.658 80.072L275.89 78.968C275.346 79.512 274.45 79.816 273.698 79.816C272.242 79.816 271.362 78.856 271.234 77.688H277.202V77.288C277.202 74.856 275.714 73.08 273.394 73.08C271.106 73.08 269.474 74.888 269.474 77.128ZM273.394 74.456C274.914 74.456 275.538 75.592 275.57 76.504H271.218C271.298 75.56 271.954 74.456 273.394 74.456ZM281.261 81.192C282.045 81.192 282.541 80.984 282.845 80.696L282.445 79.432C282.317 79.576 282.013 79.704 281.693 79.704C281.213 79.704 280.957 79.32 280.957 78.792V74.744H282.525V73.272H280.957V71.16H279.277V73.272H277.997V74.744H279.277V79.208C279.277 80.488 279.965 81.192 281.261 81.192ZM288.85 81H290.53V75.88C290.53 73.8 289.026 73.08 287.314 73.08C286.082 73.08 284.962 73.48 284.066 74.328L284.754 75.496C285.426 74.84 286.178 74.52 287.042 74.52C288.114 74.52 288.85 75.064 288.85 75.96V77.112C288.29 76.456 287.394 76.12 286.354 76.12C285.09 76.12 283.666 76.856 283.666 78.632C283.666 80.344 285.09 81.192 286.354 81.192C287.378 81.192 288.274 80.824 288.85 80.168V81ZM288.85 79.24C288.466 79.768 287.746 80.04 287.01 80.04C286.066 80.04 285.362 79.496 285.362 78.664C285.362 77.816 286.066 77.272 287.01 77.272C287.746 77.272 288.466 77.544 288.85 78.072V79.24ZM293.62 71.992C294.196 71.992 294.66 71.528 294.66 70.952C294.66 70.376 294.196 69.912 293.62 69.912C293.06 69.912 292.58 70.376 292.58 70.952C292.58 71.528 293.06 71.992 293.62 71.992ZM292.788 81H294.468V73.272H292.788V81ZM296.727 81H298.407V70.328H296.727V81ZM299.995 79.992C300.795 80.776 301.995 81.192 303.307 81.192C305.387 81.192 306.523 80.152 306.523 78.792C306.523 76.968 304.875 76.584 303.531 76.296C302.619 76.088 301.851 75.88 301.851 75.288C301.851 74.744 302.411 74.424 303.291 74.424C304.251 74.424 305.115 74.824 305.579 75.352L306.283 74.168C305.579 73.544 304.587 73.08 303.275 73.08C301.323 73.08 300.235 74.168 300.235 75.432C300.235 77.16 301.819 77.512 303.147 77.8C304.091 78.008 304.907 78.248 304.907 78.92C304.907 79.496 304.395 79.864 303.387 79.864C302.379 79.864 301.307 79.336 300.763 78.776L299.995 79.992Z" fill="#333333"/>
<path d="M193.688 278H195.736L191.544 267.328H189.208L185.016 278H187.064L187.848 275.952H192.904L193.688 278ZM190.376 268.912L192.376 274.304H188.376L190.376 268.912ZM196.454 274.128C196.454 276.48 198.102 278.192 200.454 278.192C201.958 278.192 202.87 277.552 203.414 276.816L202.31 275.792C201.878 276.384 201.286 276.704 200.534 276.704C199.126 276.704 198.198 275.632 198.198 274.128C198.198 272.624 199.126 271.568 200.534 271.568C201.286 271.568 201.878 271.872 202.31 272.48L203.414 271.456C202.87 270.72 201.958 270.08 200.454 270.08C198.102 270.08 196.454 271.792 196.454 274.128ZM204.487 274.128C204.487 276.48 206.135 278.192 208.487 278.192C209.991 278.192 210.903 277.552 211.447 276.816L210.343 275.792C209.911 276.384 209.319 276.704 208.567 276.704C207.159 276.704 206.231 275.632 206.231 274.128C206.231 272.624 207.159 271.568 208.567 271.568C209.319 271.568 209.911 271.872 210.343 272.48L211.447 271.456C210.903 270.72 209.991 270.08 208.487 270.08C206.135 270.08 204.487 271.792 204.487 274.128ZM216.488 278.192C218.968 278.192 220.472 276.352 220.472 274.128C220.472 271.92 218.968 270.08 216.488 270.08C214.04 270.08 212.52 271.92 212.52 274.128C212.52 276.352 214.04 278.192 216.488 278.192ZM216.488 276.704C215.064 276.704 214.264 275.504 214.264 274.128C214.264 272.768 215.064 271.568 216.488 271.568C217.928 271.568 218.728 272.768 218.728 274.128C218.728 275.504 217.928 276.704 216.488 276.704ZM227.468 278H229.148V270.272H227.468V275.696C227.068 276.224 226.332 276.704 225.484 276.704C224.54 276.704 223.932 276.336 223.932 275.136V270.272H222.252V275.744C222.252 277.328 223.068 278.192 224.732 278.192C225.948 278.192 226.908 277.6 227.468 276.976V278ZM236.626 278H238.306V272.56C238.306 270.976 237.474 270.08 235.81 270.08C234.594 270.08 233.602 270.72 233.09 271.328V270.272H231.41V278H233.09V272.608C233.474 272.08 234.21 271.568 235.074 271.568C236.018 271.568 236.626 271.968 236.626 273.168V278ZM242.888 278.192C243.672 278.192 244.168 277.984 244.472 277.696L244.072 276.432C243.944 276.576 243.64 276.704 243.32 276.704C242.84 276.704 242.584 276.32 242.584 275.792V271.744H244.152V270.272H242.584V268.16H240.904V270.272H239.624V271.744H240.904V276.208C240.904 277.488 241.592 278.192 242.888 278.192ZM245.085 276.992C245.885 277.776 247.085 278.192 248.397 278.192C250.477 278.192 251.613 277.152 251.613 275.792C251.613 273.968 249.965 273.584 248.621 273.296C247.709 273.088 246.941 272.88 246.941 272.288C246.941 271.744 247.501 271.424 248.381 271.424C249.341 271.424 250.205 271.824 250.669 272.352L251.373 271.168C250.669 270.544 249.677 270.08 248.365 270.08C246.413 270.08 245.325 271.168 245.325 272.432C245.325 274.16 246.909 274.512 248.237 274.8C249.181 275.008 249.997 275.248 249.997 275.92C249.997 276.496 249.485 276.864 248.477 276.864C247.469 276.864 246.397 276.336 245.853 275.776L245.085 276.992Z" fill="#4F4F4F"/>
<path d="M195.352 392H197.224V381.328H194.584L191.672 388.512L188.776 381.328H186.136V392H188.008V383.92L191.272 392H192.072L195.352 383.92V392ZM199.047 388.128C199.047 390.576 200.775 392.192 203.095 392.192C204.327 392.192 205.463 391.808 206.231 391.072L205.463 389.968C204.919 390.512 204.023 390.816 203.271 390.816C201.815 390.816 200.935 389.856 200.807 388.688H206.775V388.288C206.775 385.856 205.287 384.08 202.967 384.08C200.679 384.08 199.047 385.888 199.047 388.128ZM202.967 385.456C204.487 385.456 205.111 386.592 205.143 387.504H200.791C200.871 386.56 201.527 385.456 202.967 385.456ZM207.842 390.992C208.642 391.776 209.842 392.192 211.154 392.192C213.234 392.192 214.37 391.152 214.37 389.792C214.37 387.968 212.722 387.584 211.378 387.296C210.466 387.088 209.698 386.88 209.698 386.288C209.698 385.744 210.258 385.424 211.138 385.424C212.098 385.424 212.962 385.824 213.426 386.352L214.13 385.168C213.426 384.544 212.434 384.08 211.122 384.08C209.17 384.08 208.082 385.168 208.082 386.432C208.082 388.16 209.666 388.512 210.994 388.8C211.938 389.008 212.754 389.248 212.754 389.92C212.754 390.496 212.242 390.864 211.234 390.864C210.226 390.864 209.154 390.336 208.61 389.776L207.842 390.992ZM215.468 390.992C216.268 391.776 217.468 392.192 218.78 392.192C220.86 392.192 221.997 391.152 221.997 389.792C221.997 387.968 220.349 387.584 219.004 387.296C218.092 387.088 217.324 386.88 217.324 386.288C217.324 385.744 217.884 385.424 218.764 385.424C219.725 385.424 220.589 385.824 221.053 386.352L221.757 385.168C221.053 384.544 220.061 384.08 218.748 384.08C216.796 384.08 215.708 385.168 215.708 386.432C215.708 388.16 217.292 388.512 218.62 388.8C219.564 389.008 220.38 389.248 220.38 389.92C220.38 390.496 219.869 390.864 218.86 390.864C217.852 390.864 216.78 390.336 216.236 389.776L215.468 390.992ZM228.487 392H230.167V386.88C230.167 384.8 228.663 384.08 226.951 384.08C225.719 384.08 224.599 384.48 223.703 385.328L224.391 386.496C225.063 385.84 225.815 385.52 226.679 385.52C227.751 385.52 228.487 386.064 228.487 386.96V388.112C227.927 387.456 227.031 387.12 225.991 387.12C224.727 387.12 223.303 387.856 223.303 389.632C223.303 391.344 224.727 392.192 225.991 392.192C227.015 392.192 227.911 391.824 228.487 391.168V392ZM228.487 390.24C228.103 390.768 227.383 391.04 226.647 391.04C225.703 391.04 224.999 390.496 224.999 389.664C224.999 388.816 225.703 388.272 226.647 388.272C227.383 388.272 228.103 388.544 228.487 389.072V390.24ZM232.33 393.984C233.274 394.848 234.25 395.136 235.562 395.136C237.466 395.136 239.53 394.384 239.53 391.6V384.272H237.85V385.344C237.226 384.528 236.346 384.08 235.37 384.08C233.386 384.08 231.946 385.552 231.946 388.048C231.946 390.592 233.402 392.016 235.37 392.016C236.378 392.016 237.258 391.504 237.85 390.736V391.664C237.85 393.248 236.666 393.76 235.562 393.76C234.538 393.76 233.738 393.488 233.114 392.768L232.33 393.984ZM237.85 389.488C237.482 390.064 236.65 390.528 235.866 390.528C234.538 390.528 233.69 389.536 233.69 388.048C233.69 386.56 234.538 385.568 235.866 385.568C236.65 385.568 237.482 386.032 237.85 386.608V389.488ZM241.307 388.128C241.307 390.576 243.035 392.192 245.355 392.192C246.587 392.192 247.723 391.808 248.491 391.072L247.723 389.968C247.179 390.512 246.283 390.816 245.531 390.816C244.075 390.816 243.195 389.856 243.067 388.688H249.035V388.288C249.035 385.856 247.547 384.08 245.227 384.08C242.939 384.08 241.307 385.888 241.307 388.128ZM245.227 385.456C246.747 385.456 247.371 386.592 247.403 387.504H243.051C243.131 386.56 243.787 385.456 245.227 385.456ZM255.01 392H258.978C262.306 392 264.562 389.808 264.562 386.672C264.562 383.536 262.306 381.328 258.978 381.328H255.01V392ZM256.882 390.352V382.976H258.978C261.362 382.976 262.642 384.608 262.642 386.672C262.642 388.688 261.298 390.352 258.978 390.352H256.882ZM265.922 388.128C265.922 390.576 267.65 392.192 269.97 392.192C271.202 392.192 272.338 391.808 273.106 391.072L272.338 389.968C271.794 390.512 270.898 390.816 270.146 390.816C268.69 390.816 267.81 389.856 267.682 388.688H273.65V388.288C273.65 385.856 272.162 384.08 269.842 384.08C267.554 384.08 265.922 385.888 265.922 388.128ZM269.842 385.456C271.362 385.456 271.986 386.592 272.018 387.504H267.666C267.746 386.56 268.402 385.456 269.842 385.456ZM277.708 392.192C278.492 392.192 278.988 391.984 279.292 391.696L278.892 390.432C278.764 390.576 278.46 390.704 278.14 390.704C277.66 390.704 277.404 390.32 277.404 389.792V385.744H278.972V384.272H277.404V382.16H275.724V384.272H274.444V385.744H275.724V390.208C275.724 391.488 276.412 392.192 277.708 392.192ZM285.297 392H286.977V386.88C286.977 384.8 285.473 384.08 283.761 384.08C282.529 384.08 281.409 384.48 280.513 385.328L281.201 386.496C281.873 385.84 282.625 385.52 283.489 385.52C284.561 385.52 285.297 386.064 285.297 386.96V388.112C284.737 387.456 283.841 387.12 282.801 387.12C281.537 387.12 280.113 387.856 280.113 389.632C280.113 391.344 281.537 392.192 282.801 392.192C283.825 392.192 284.721 391.824 285.297 391.168V392ZM285.297 390.24C284.913 390.768 284.193 391.04 283.457 391.04C282.513 391.04 281.809 390.496 281.809 389.664C281.809 388.816 282.513 388.272 283.457 388.272C284.193 388.272 284.913 388.544 285.297 389.072V390.24ZM290.067 382.992C290.643 382.992 291.107 382.528 291.107 381.952C291.107 381.376 290.643 380.912 290.067 380.912C289.507 380.912 289.027 381.376 289.027 381.952C289.027 382.528 289.507 382.992 290.067 382.992ZM289.235 392H290.915V384.272H289.235V392ZM293.175 392H294.855V381.328H293.175V392ZM296.442 390.992C297.242 391.776 298.442 392.192 299.754 392.192C301.834 392.192 302.97 391.152 302.97 389.792C302.97 387.968 301.322 387.584 299.978 387.296C299.066 387.088 298.298 386.88 298.298 386.288C298.298 385.744 298.858 385.424 299.738 385.424C300.698 385.424 301.562 385.824 302.026 386.352L302.73 385.168C302.026 384.544 301.034 384.08 299.722 384.08C297.77 384.08 296.682 385.168 296.682 386.432C296.682 388.16 298.266 388.512 299.594 388.8C300.538 389.008 301.354 389.248 301.354 389.92C301.354 390.496 300.842 390.864 299.834 390.864C298.826 390.864 297.754 390.336 297.21 389.776L296.442 390.992Z" fill="#4F4F4F"/>
<rect x="185" y="151" width="361" height="82" fill="#E0E0E0"/>
<rect x="185" y="297" width="361" height="55" fill="#E0E0E0"/>
<rect x="185" y="411" width="361" height="119" fill="#E0E0E0"/>
<path d="M206.248 184H209.896C213.208 184 215.368 181.712 215.368 178.672C215.368 175.648 213.208 173.328 209.896 173.328H206.248V184ZM207.576 182.816V174.512H209.896C212.536 174.512 213.992 176.368 213.992 178.672C213.992 180.96 212.488 182.816 209.896 182.816H207.576ZM222.699 184H223.899V176.272H222.699V181.952C222.251 182.576 221.355 183.12 220.411 183.12C219.371 183.12 218.683 182.72 218.683 181.36V176.272H217.483V181.728C217.483 183.408 218.331 184.192 219.947 184.192C221.099 184.192 222.107 183.584 222.699 182.912V184ZM226.376 184H227.576V178.528C227.928 177.904 228.936 177.296 229.672 177.296C229.864 177.296 230.008 177.312 230.152 177.344V176.112C229.096 176.112 228.2 176.704 227.576 177.52V176.272H226.376V184ZM232.329 174.976C232.777 174.976 233.145 174.608 233.145 174.16C233.145 173.712 232.777 173.36 232.329 173.36C231.897 173.36 231.529 173.712 231.529 174.16C231.529 174.608 231.897 174.976 232.329 174.976ZM231.737 184H232.937V176.272H231.737V184ZM240.627 184H241.827V178.576C241.827 176.896 240.979 176.08 239.363 176.08C238.211 176.08 237.155 176.752 236.611 177.392V176.272H235.411V184H236.611V178.352C237.059 177.728 237.955 177.152 238.899 177.152C239.939 177.152 240.627 177.584 240.627 178.944V184ZM244.287 185.984C245.199 186.88 246.095 187.136 247.407 187.136C249.295 187.136 251.087 186.336 251.087 183.776V176.272H249.887V177.44C249.263 176.592 248.335 176.08 247.295 176.08C245.263 176.08 243.855 177.616 243.855 180.096C243.855 182.592 245.279 184.096 247.295 184.096C248.383 184.096 249.327 183.504 249.887 182.72V183.824C249.887 185.52 248.687 186.144 247.407 186.144C246.303 186.144 245.535 185.856 244.895 185.088L244.287 185.984ZM249.887 181.776C249.471 182.448 248.543 183.04 247.583 183.04C246.031 183.04 245.103 181.792 245.103 180.096C245.103 178.384 246.031 177.152 247.583 177.152C248.543 177.152 249.471 177.728 249.887 178.4V181.776ZM259.728 184.192C260.432 184.192 260.864 183.984 261.168 183.696L260.816 182.8C260.656 182.976 260.336 183.12 260 183.12C259.472 183.12 259.216 182.704 259.216 182.128V177.328H260.784V176.272H259.216V174.16H258.016V176.272H256.736V177.328H258.016V182.384C258.016 183.536 258.592 184.192 259.728 184.192ZM267.791 184H268.991V178.544C268.991 176.864 268.143 176.08 266.527 176.08C265.359 176.08 264.303 176.752 263.759 177.392V173.328H262.559V184H263.759V178.352C264.223 177.728 265.119 177.152 266.047 177.152C267.087 177.152 267.791 177.552 267.791 178.912V184ZM272.059 174.976C272.507 174.976 272.875 174.608 272.875 174.16C272.875 173.712 272.507 173.36 272.059 173.36C271.627 173.36 271.259 173.712 271.259 174.16C271.259 174.608 271.627 174.976 272.059 174.976ZM271.467 184H272.667V176.272H271.467V184ZM274.469 182.976C275.253 183.808 276.325 184.192 277.589 184.192C279.589 184.192 280.629 183.152 280.629 181.856C280.629 180.144 279.077 179.76 277.733 179.456C276.725 179.216 275.845 178.976 275.845 178.224C275.845 177.536 276.501 177.056 277.557 177.056C278.549 177.056 279.397 177.472 279.861 178.032L280.421 177.2C279.797 176.576 278.869 176.08 277.557 176.08C275.717 176.08 274.677 177.104 274.677 178.304C274.677 179.904 276.165 180.256 277.477 180.56C278.517 180.816 279.461 181.088 279.461 181.936C279.461 182.688 278.821 183.216 277.637 183.216C276.581 183.216 275.605 182.704 275.093 182.112L274.469 182.976ZM288.063 186.944V182.832C288.687 183.696 289.615 184.192 290.671 184.192C292.703 184.192 294.111 182.624 294.111 180.128C294.111 177.616 292.703 176.08 290.671 176.08C289.583 176.08 288.623 176.64 288.063 177.424V176.272H286.863V186.944H288.063ZM292.847 180.128C292.847 181.84 291.919 183.12 290.367 183.12C289.423 183.12 288.479 182.544 288.063 181.872V178.384C288.479 177.712 289.423 177.152 290.367 177.152C291.919 177.152 292.847 178.416 292.847 180.128ZM295.683 180.128C295.683 182.544 297.331 184.192 299.619 184.192C300.883 184.192 301.923 183.776 302.691 183.008L302.115 182.224C301.507 182.848 300.611 183.2 299.731 183.2C298.067 183.2 297.043 181.984 296.947 180.528H303.203V180.224C303.203 177.904 301.827 176.08 299.491 176.08C297.283 176.08 295.683 177.888 295.683 180.128ZM299.475 177.072C301.235 177.072 302.003 178.496 302.019 179.648H296.947C297.011 178.464 297.827 177.072 299.475 177.072ZM305.226 184H306.426V178.528C306.778 177.904 307.786 177.296 308.522 177.296C308.714 177.296 308.858 177.312 309.002 177.344V176.112C307.946 176.112 307.05 176.704 306.426 177.52V176.272H305.226V184ZM311.179 174.976C311.627 174.976 311.995 174.608 311.995 174.16C311.995 173.712 311.627 173.36 311.179 173.36C310.747 173.36 310.379 173.712 310.379 174.16C310.379 174.608 310.747 174.976 311.179 174.976ZM310.587 184H311.787V176.272H310.587V184ZM317.637 184.192C319.989 184.192 321.461 182.368 321.461 180.128C321.461 177.888 319.989 176.08 317.637 176.08C315.285 176.08 313.813 177.888 313.813 180.128C313.813 182.368 315.285 184.192 317.637 184.192ZM317.637 183.12C315.989 183.12 315.061 181.712 315.061 180.128C315.061 178.56 315.989 177.152 317.637 177.152C319.285 177.152 320.197 178.56 320.197 180.128C320.197 181.712 319.285 183.12 317.637 183.12ZM329.098 184H330.298V173.328H329.098V177.44C328.474 176.592 327.53 176.08 326.49 176.08C324.458 176.08 323.05 177.68 323.05 180.144C323.05 182.656 324.474 184.192 326.49 184.192C327.578 184.192 328.522 183.632 329.098 182.848V184ZM329.098 181.904C328.666 182.576 327.738 183.12 326.778 183.12C325.226 183.12 324.298 181.856 324.298 180.144C324.298 178.432 325.226 177.152 326.778 177.152C327.738 177.152 328.666 177.728 329.098 178.4V181.904ZM340.362 184.192C342.714 184.192 344.186 182.368 344.186 180.128C344.186 177.888 342.714 176.08 340.362 176.08C338.01 176.08 336.538 177.888 336.538 180.128C336.538 182.368 338.01 184.192 340.362 184.192ZM340.362 183.12C338.714 183.12 337.786 181.712 337.786 180.128C337.786 178.56 338.714 177.152 340.362 177.152C342.01 177.152 342.922 178.56 342.922 180.128C342.922 181.712 342.01 183.12 340.362 183.12ZM346.558 184H347.758V177.328H349.326V176.272H347.758V175.68C347.758 174.704 348.19 174.16 348.974 174.16C349.246 174.16 349.47 174.224 349.662 174.336L349.966 173.44C349.662 173.248 349.246 173.168 348.798 173.168C347.454 173.168 346.558 174.08 346.558 175.68V176.272H345.278V177.328H346.558V184ZM354.446 182.496C355.326 183.488 356.686 184.192 358.542 184.192C361.422 184.192 362.478 182.608 362.478 181.056C362.478 178.816 360.494 178.272 358.75 177.808C357.39 177.44 356.158 177.12 356.158 176.048C356.158 175.04 357.07 174.352 358.35 174.352C359.518 174.352 360.638 174.752 361.438 175.632L362.238 174.656C361.342 173.712 360.078 173.168 358.446 173.168C356.35 173.168 354.782 174.368 354.782 176.128C354.782 178.224 356.686 178.704 358.398 179.152C359.806 179.536 361.102 179.888 361.102 181.168C361.102 181.984 360.494 183.008 358.59 183.008C357.086 183.008 355.934 182.272 355.23 181.488L354.446 182.496ZM364.045 180.128C364.045 182.544 365.693 184.192 367.981 184.192C369.245 184.192 370.285 183.776 371.053 183.008L370.477 182.224C369.869 182.848 368.973 183.2 368.093 183.2C366.429 183.2 365.405 181.984 365.309 180.528H371.565V180.224C371.565 177.904 370.189 176.08 367.853 176.08C365.645 176.08 364.045 177.888 364.045 180.128ZM367.837 177.072C369.597 177.072 370.365 178.496 370.381 179.648H365.309C365.373 178.464 366.189 177.072 367.837 177.072ZM374.789 186.944V182.832C375.413 183.696 376.341 184.192 377.397 184.192C379.429 184.192 380.837 182.624 380.837 180.128C380.837 177.616 379.429 176.08 377.397 176.08C376.309 176.08 375.349 176.64 374.789 177.424V176.272H373.589V186.944H374.789ZM379.573 180.128C379.573 181.84 378.645 183.12 377.093 183.12C376.149 183.12 375.205 182.544 374.789 181.872V178.384C375.205 177.712 376.149 177.152 377.093 177.152C378.645 177.152 379.573 178.416 379.573 180.128ZM386.725 184H394.053V182.816H388.821C391.797 180.464 394.005 178.48 394.005 176.304C394.005 174.176 392.197 173.168 390.421 173.168C388.917 173.168 387.525 173.776 386.709 174.848L387.525 175.696C388.149 174.896 389.141 174.352 390.421 174.352C391.525 174.352 392.645 174.944 392.645 176.304C392.645 178.144 390.565 179.92 386.725 182.944V184ZM400.932 184H402.26V181.296H403.764V180.128H402.26V173.328H400.436L395.86 180.192V181.296H400.932V184ZM400.932 174.56V180.128H397.188L400.932 174.56ZM405.309 183.28C405.309 183.76 405.709 184.16 406.189 184.16C406.669 184.16 407.069 183.76 407.069 183.28C407.069 182.8 406.669 182.4 406.189 182.4C405.709 182.4 405.309 182.8 405.309 183.28ZM409.077 183.28C409.077 183.76 409.477 184.16 409.957 184.16C410.437 184.16 410.837 183.76 410.837 183.28C410.837 182.8 410.437 182.4 409.957 182.4C409.477 182.4 409.077 182.8 409.077 183.28ZM412.844 183.28C412.844 183.76 413.244 184.16 413.724 184.16C414.204 184.16 414.604 183.76 414.604 183.28C414.604 182.8 414.204 182.4 413.724 182.4C413.244 182.4 412.844 182.8 412.844 183.28Z" fill="#4F4F4F"/>
<circle cx="365.5" cy="324.5" r="15.5" fill="#EB5757"/>
<path d="M360.333 319.334L370.667 329.667" stroke="#F2F2F2" stroke-width="2.58333" stroke-linecap="round"/>
<path d="M370.667 319.334L360.333 329.667" stroke="#F2F2F2" stroke-width="2.58333" stroke-linecap="round"/>
<rect x="205" y="429" width="224" height="76" fill="#C4C4C4"/>
<rect x="205" y="519" width="224" height="11" fill="#C4C4C4"/>
<path d="M224.248 459H227.896C231.208 459 233.368 456.712 233.368 453.672C233.368 450.648 231.208 448.328 227.896 448.328H224.248V459ZM225.576 457.816V449.512H227.896C230.536 449.512 231.992 451.368 231.992 453.672C231.992 455.96 230.488 457.816 227.896 457.816H225.576ZM240.699 459H241.899V451.272H240.699V456.952C240.251 457.576 239.355 458.12 238.411 458.12C237.371 458.12 236.683 457.72 236.683 456.36V451.272H235.483V456.728C235.483 458.408 236.331 459.192 237.947 459.192C239.099 459.192 240.107 458.584 240.699 457.912V459ZM244.376 459H245.576V453.528C245.928 452.904 246.936 452.296 247.672 452.296C247.864 452.296 248.008 452.312 248.152 452.344V451.112C247.096 451.112 246.2 451.704 245.576 452.52V451.272H244.376V459ZM250.329 449.976C250.777 449.976 251.145 449.608 251.145 449.16C251.145 448.712 250.777 448.36 250.329 448.36C249.897 448.36 249.529 448.712 249.529 449.16C249.529 449.608 249.897 449.976 250.329 449.976ZM249.737 459H250.937V451.272H249.737V459ZM258.627 459H259.827V453.576C259.827 451.896 258.979 451.08 257.363 451.08C256.211 451.08 255.155 451.752 254.611 452.392V451.272H253.411V459H254.611V453.352C255.059 452.728 255.955 452.152 256.899 452.152C257.939 452.152 258.627 452.584 258.627 453.944V459ZM262.287 460.984C263.199 461.88 264.095 462.136 265.407 462.136C267.295 462.136 269.087 461.336 269.087 458.776V451.272H267.887V452.44C267.263 451.592 266.335 451.08 265.295 451.08C263.263 451.08 261.855 452.616 261.855 455.096C261.855 457.592 263.279 459.096 265.295 459.096C266.383 459.096 267.327 458.504 267.887 457.72V458.824C267.887 460.52 266.687 461.144 265.407 461.144C264.303 461.144 263.535 460.856 262.895 460.088L262.287 460.984ZM267.887 456.776C267.471 457.448 266.543 458.04 265.583 458.04C264.031 458.04 263.103 456.792 263.103 455.096C263.103 453.384 264.031 452.152 265.583 452.152C266.543 452.152 267.471 452.728 267.887 453.4V456.776ZM277.728 459.192C278.432 459.192 278.864 458.984 279.168 458.696L278.816 457.8C278.656 457.976 278.336 458.12 278 458.12C277.472 458.12 277.216 457.704 277.216 457.128V452.328H278.784V451.272H277.216V449.16H276.016V451.272H274.736V452.328H276.016V457.384C276.016 458.536 276.592 459.192 277.728 459.192ZM285.791 459H286.991V453.544C286.991 451.864 286.143 451.08 284.527 451.08C283.359 451.08 282.303 451.752 281.759 452.392V448.328H280.559V459H281.759V453.352C282.223 452.728 283.119 452.152 284.047 452.152C285.087 452.152 285.791 452.552 285.791 453.912V459ZM290.059 449.976C290.507 449.976 290.875 449.608 290.875 449.16C290.875 448.712 290.507 448.36 290.059 448.36C289.627 448.36 289.259 448.712 289.259 449.16C289.259 449.608 289.627 449.976 290.059 449.976ZM289.467 459H290.667V451.272H289.467V459ZM292.469 457.976C293.253 458.808 294.325 459.192 295.589 459.192C297.589 459.192 298.629 458.152 298.629 456.856C298.629 455.144 297.077 454.76 295.733 454.456C294.725 454.216 293.845 453.976 293.845 453.224C293.845 452.536 294.501 452.056 295.557 452.056C296.549 452.056 297.397 452.472 297.861 453.032L298.421 452.2C297.797 451.576 296.869 451.08 295.557 451.08C293.717 451.08 292.677 452.104 292.677 453.304C292.677 454.904 294.165 455.256 295.477 455.56C296.517 455.816 297.461 456.088 297.461 456.936C297.461 457.688 296.821 458.216 295.637 458.216C294.581 458.216 293.605 457.704 293.093 457.112L292.469 457.976ZM306.063 461.944V457.832C306.687 458.696 307.615 459.192 308.671 459.192C310.703 459.192 312.111 457.624 312.111 455.128C312.111 452.616 310.703 451.08 308.671 451.08C307.583 451.08 306.623 451.64 306.063 452.424V451.272H304.863V461.944H306.063ZM310.847 455.128C310.847 456.84 309.919 458.12 308.367 458.12C307.423 458.12 306.479 457.544 306.063 456.872V453.384C306.479 452.712 307.423 452.152 308.367 452.152C309.919 452.152 310.847 453.416 310.847 455.128ZM313.683 455.128C313.683 457.544 315.331 459.192 317.619 459.192C318.883 459.192 319.923 458.776 320.691 458.008L320.115 457.224C319.507 457.848 318.611 458.2 317.731 458.2C316.067 458.2 315.043 456.984 314.947 455.528H321.203V455.224C321.203 452.904 319.827 451.08 317.491 451.08C315.283 451.08 313.683 452.888 313.683 455.128ZM317.475 452.072C319.235 452.072 320.003 453.496 320.019 454.648H314.947C315.011 453.464 315.827 452.072 317.475 452.072ZM323.226 459H324.426V453.528C324.778 452.904 325.786 452.296 326.522 452.296C326.714 452.296 326.858 452.312 327.002 452.344V451.112C325.946 451.112 325.05 451.704 324.426 452.52V451.272H323.226V459ZM329.179 449.976C329.627 449.976 329.995 449.608 329.995 449.16C329.995 448.712 329.627 448.36 329.179 448.36C328.747 448.36 328.379 448.712 328.379 449.16C328.379 449.608 328.747 449.976 329.179 449.976ZM328.587 459H329.787V451.272H328.587V459ZM335.637 459.192C337.989 459.192 339.461 457.368 339.461 455.128C339.461 452.888 337.989 451.08 335.637 451.08C333.285 451.08 331.813 452.888 331.813 455.128C331.813 457.368 333.285 459.192 335.637 459.192ZM335.637 458.12C333.989 458.12 333.061 456.712 333.061 455.128C333.061 453.56 333.989 452.152 335.637 452.152C337.285 452.152 338.197 453.56 338.197 455.128C338.197 456.712 337.285 458.12 335.637 458.12ZM347.098 459H348.298V448.328H347.098V452.44C346.474 451.592 345.53 451.08 344.49 451.08C342.458 451.08 341.05 452.68 341.05 455.144C341.05 457.656 342.474 459.192 344.49 459.192C345.578 459.192 346.522 458.632 347.098 457.848V459ZM347.098 456.904C346.666 457.576 345.738 458.12 344.778 458.12C343.226 458.12 342.298 456.856 342.298 455.144C342.298 453.432 343.226 452.152 344.778 452.152C345.738 452.152 346.666 452.728 347.098 453.4V456.904ZM358.362 459.192C360.714 459.192 362.186 457.368 362.186 455.128C362.186 452.888 360.714 451.08 358.362 451.08C356.01 451.08 354.538 452.888 354.538 455.128C354.538 457.368 356.01 459.192 358.362 459.192ZM358.362 458.12C356.714 458.12 355.786 456.712 355.786 455.128C355.786 453.56 356.714 452.152 358.362 452.152C360.01 452.152 360.922 453.56 360.922 455.128C360.922 456.712 360.01 458.12 358.362 458.12ZM364.558 459H365.758V452.328H367.326V451.272H365.758V450.68C365.758 449.704 366.19 449.16 366.974 449.16C367.246 449.16 367.47 449.224 367.662 449.336L367.966 448.44C367.662 448.248 367.246 448.168 366.798 448.168C365.454 448.168 364.558 449.08 364.558 450.68V451.272H363.278V452.328H364.558V459ZM223.608 477.496C224.488 478.488 225.848 479.192 227.704 479.192C230.584 479.192 231.64 477.608 231.64 476.056C231.64 473.816 229.656 473.272 227.912 472.808C226.552 472.44 225.32 472.12 225.32 471.048C225.32 470.04 226.232 469.352 227.512 469.352C228.68 469.352 229.8 469.752 230.6 470.632L231.4 469.656C230.504 468.712 229.24 468.168 227.608 468.168C225.512 468.168 223.944 469.368 223.944 471.128C223.944 473.224 225.848 473.704 227.56 474.152C228.968 474.536 230.264 474.888 230.264 476.168C230.264 476.984 229.656 478.008 227.752 478.008C226.248 478.008 225.096 477.272 224.392 476.488L223.608 477.496ZM233.207 475.128C233.207 477.544 234.855 479.192 237.143 479.192C238.407 479.192 239.447 478.776 240.215 478.008L239.639 477.224C239.031 477.848 238.135 478.2 237.255 478.2C235.591 478.2 234.567 476.984 234.471 475.528H240.727V475.224C240.727 472.904 239.351 471.08 237.015 471.08C234.807 471.08 233.207 472.888 233.207 475.128ZM236.999 472.072C238.759 472.072 239.527 473.496 239.543 474.648H234.471C234.535 473.464 235.351 472.072 236.999 472.072ZM243.951 481.944V477.832C244.575 478.696 245.503 479.192 246.559 479.192C248.591 479.192 249.999 477.624 249.999 475.128C249.999 472.616 248.591 471.08 246.559 471.08C245.471 471.08 244.511 471.64 243.951 472.424V471.272H242.751V481.944H243.951ZM248.735 475.128C248.735 476.84 247.807 478.12 246.255 478.12C245.311 478.12 244.367 477.544 243.951 476.872V473.384C244.367 472.712 245.311 472.152 246.255 472.152C247.807 472.152 248.735 473.416 248.735 475.128ZM255.887 479H263.215V477.816H257.983C260.959 475.464 263.167 473.48 263.167 471.304C263.167 469.176 261.359 468.168 259.583 468.168C258.079 468.168 256.687 468.776 255.871 469.848L256.687 470.696C257.311 469.896 258.303 469.352 259.583 469.352C260.687 469.352 261.807 469.944 261.807 471.304C261.807 473.144 259.727 474.92 255.887 477.944V479ZM270.093 479H271.421V476.296H272.925V475.128H271.421V468.328H269.597L265.021 475.192V476.296H270.093V479ZM270.093 469.56V475.128H266.349L270.093 469.56ZM274.471 478.28C274.471 478.76 274.871 479.16 275.351 479.16C275.831 479.16 276.231 478.76 276.231 478.28C276.231 477.8 275.831 477.4 275.351 477.4C274.871 477.4 274.471 477.8 274.471 478.28ZM278.239 478.28C278.239 478.76 278.639 479.16 279.119 479.16C279.599 479.16 279.999 478.76 279.999 478.28C279.999 477.8 279.599 477.4 279.119 477.4C278.639 477.4 278.239 477.8 278.239 478.28ZM282.006 478.28C282.006 478.76 282.406 479.16 282.886 479.16C283.366 479.16 283.766 478.76 283.766 478.28C283.766 477.8 283.366 477.4 282.886 477.4C282.406 477.4 282.006 477.8 282.006 478.28Z" fill="#4F4F4F"/>
<circle cx="400.5" cy="478.5" r="15.5" fill="#EB5757"/>
<path d="M395.333 473.334L405.667 483.667" stroke="#F2F2F2" stroke-width="2.58333" stroke-linecap="round"/>
<path d="M405.667 473.334L395.333 483.667" stroke="#F2F2F2" stroke-width="2.58333" stroke-linecap="round"/>
</g>
<defs>
<clipPath id="clip0_134_73112">
<rect width="736" height="566" fill="white"/>
</clipPath>
</defs>
</svg>
