<svg width="1372" height="566" viewBox="0 0 1372 566" fill="none" xmlns="http://www.w3.org/2000/svg">
<path fill-rule="evenodd" clip-rule="evenodd" d="M490.713 71C483.015 57.6667 463.77 57.6667 456.072 71L398.337 171H548.448L490.713 71ZM564.614 199H382.171L334.251 282H612.534L564.614 199ZM270.165 393L318.085 310H628.7L676.62 393H270.165ZM253.999 421L225.709 470C218.011 483.333 227.634 500 243.03 500H703.755C719.151 500 728.774 483.333 721.076 470L692.786 421H253.999Z" fill="#CDE1F8"/>
<path d="M388 105H274V232H325.54" stroke="#4F4F4F" stroke-width="2" stroke-linecap="round"/>
<path d="M552 107H653" stroke="#4F4F4F" stroke-width="2" stroke-linecap="round"/>
<path d="M623 232H724" stroke="#4F4F4F" stroke-width="2" stroke-linecap="round"/>
<path d="M704 345H805" stroke="#4F4F4F" stroke-width="2" stroke-linecap="round"/>
<path d="M754 455H855" stroke="#4F4F4F" stroke-width="2" stroke-linecap="round"/>
<path d="M689.52 115.24C691.72 117.72 695.12 119.48 699.76 119.48C706.96 119.48 709.6 115.52 709.6 111.64C709.6 106.04 704.64 104.68 700.28 103.52C696.88 102.6 693.8 101.8 693.8 99.12C693.8 96.6 696.08 94.88 699.28 94.88C702.2 94.88 705 95.88 707 98.08L709 95.64C706.76 93.28 703.6 91.92 699.52 91.92C694.28 91.92 690.36 94.92 690.36 99.32C690.36 104.56 695.12 105.76 699.4 106.88C702.92 107.84 706.16 108.72 706.16 111.92C706.16 113.96 704.64 116.52 699.88 116.52C696.12 116.52 693.24 114.68 691.48 112.72L689.52 115.24ZM727.478 119H730.478V99.68H727.478V113.88C726.358 115.44 724.118 116.8 721.758 116.8C719.158 116.8 717.438 115.8 717.438 112.4V99.68H714.438V113.32C714.438 117.52 716.558 119.48 720.598 119.48C723.478 119.48 725.998 117.96 727.478 116.28V119ZM739.469 126.36V116.08C741.029 118.24 743.349 119.48 745.989 119.48C751.069 119.48 754.589 115.56 754.589 109.32C754.589 103.04 751.069 99.2 745.989 99.2C743.269 99.2 740.869 100.6 739.469 102.56V99.68H736.469V126.36H739.469ZM751.429 109.32C751.429 113.6 749.109 116.8 745.229 116.8C742.869 116.8 740.509 115.36 739.469 113.68V104.96C740.509 103.28 742.869 101.88 745.229 101.88C749.109 101.88 751.429 105.04 751.429 109.32ZM758.318 109.32C758.318 115.36 762.438 119.48 768.158 119.48C771.318 119.48 773.918 118.44 775.838 116.52L774.398 114.56C772.878 116.12 770.638 117 768.438 117C764.278 117 761.717 113.96 761.478 110.32H777.118V109.56C777.118 103.76 773.678 99.2 767.838 99.2C762.317 99.2 758.318 103.72 758.318 109.32ZM767.798 101.68C772.198 101.68 774.118 105.24 774.158 108.12H761.478C761.638 105.16 763.678 101.68 767.798 101.68ZM781.977 119H784.977V105.32C785.857 103.76 788.377 102.24 790.217 102.24C790.697 102.24 791.057 102.28 791.417 102.36V99.28C788.777 99.28 786.537 100.76 784.977 102.8V99.68H781.977V119ZM803.652 102.84H821.292V100.72H803.652V102.84ZM803.652 110.56H821.292V108.48H803.652V110.56ZM838.287 91.92C836.087 93.48 834.567 95.96 834.567 98.72C834.567 101.04 836.007 102.36 837.647 102.36C839.167 102.36 840.367 101.12 840.367 99.64C840.367 98.16 839.327 97.12 838.007 97.12C837.727 97.12 837.407 97.16 837.327 97.2C837.567 95.84 838.927 94.2 840.207 93.44L838.287 91.92ZM845.687 91.92C843.487 93.48 841.967 95.96 841.967 98.72C841.967 101.04 843.407 102.36 845.047 102.36C846.567 102.36 847.767 101.12 847.767 99.64C847.767 98.16 846.727 97.12 845.407 97.12C845.127 97.12 844.807 97.16 844.727 97.2C844.967 95.84 846.327 94.2 847.607 93.44L845.687 91.92ZM852.715 119H857.395V109.04H864.435C869.995 109.04 873.155 105.2 873.155 100.68C873.155 96.16 870.035 92.32 864.435 92.32H852.715V119ZM868.355 100.68C868.355 103.24 866.435 104.92 863.795 104.92H857.395V96.44H863.795C866.435 96.44 868.355 98.12 868.355 100.68ZM876.931 119H881.131V92.32H876.931V119ZM898.379 119H902.579V106.2C902.579 101 898.819 99.2 894.539 99.2C891.459 99.2 888.659 100.2 886.419 102.32L888.139 105.24C889.819 103.6 891.699 102.8 893.859 102.8C896.539 102.8 898.379 104.16 898.379 106.4V109.28C896.979 107.64 894.739 106.8 892.139 106.8C888.979 106.8 885.419 108.64 885.419 113.08C885.419 117.36 888.979 119.48 892.139 119.48C894.699 119.48 896.939 118.56 898.379 116.92V119ZM898.379 114.6C897.419 115.92 895.619 116.6 893.779 116.6C891.419 116.6 889.659 115.24 889.659 113.16C889.659 111.04 891.419 109.68 893.779 109.68C895.619 109.68 897.419 110.36 898.379 111.68V114.6ZM913.825 119.48C915.785 119.48 917.025 118.96 917.785 118.24L916.785 115.08C916.465 115.44 915.705 115.76 914.905 115.76C913.705 115.76 913.065 114.8 913.065 113.48V103.36H916.985V99.68H913.065V94.4H908.865V99.68H905.665V103.36H908.865V114.52C908.865 117.72 910.585 119.48 913.825 119.48ZM922.878 96.48C924.318 96.48 925.478 95.32 925.478 93.88C925.478 92.44 924.318 91.28 922.878 91.28C921.478 91.28 920.278 92.44 920.278 93.88C920.278 95.32 921.478 96.48 922.878 96.48ZM920.798 119H924.998V99.68H920.798V119ZM943.487 119H947.687V105.4C947.687 101.44 945.607 99.2 941.447 99.2C938.407 99.2 935.927 100.8 934.647 102.32V99.68H930.447V119H934.647V105.52C935.607 104.2 937.447 102.92 939.607 102.92C941.967 102.92 943.487 103.92 943.487 106.92V119ZM966.182 119H970.382V99.68H966.182V113.24C965.182 114.56 963.342 115.76 961.222 115.76C958.862 115.76 957.342 114.84 957.342 111.84V99.68H953.142V113.36C953.142 117.32 955.182 119.48 959.342 119.48C962.382 119.48 964.782 118 966.182 116.44V119ZM999.517 119H1003.72V105.04C1003.72 101.12 1001.72 99.2 998.157 99.2C995.277 99.2 992.717 101 991.597 102.76C990.957 100.64 989.197 99.2 986.317 99.2C983.397 99.2 980.837 101.12 980.037 102.32V99.68H975.837V119H980.037V105.52C980.917 104.24 982.637 102.92 984.477 102.92C986.757 102.92 987.677 104.32 987.677 106.4V119H991.877V105.48C992.717 104.24 994.477 102.92 996.357 102.92C998.597 102.92 999.517 104.32 999.517 106.4V119ZM1010.21 102.4C1012.41 100.84 1013.97 98.32 1013.97 95.56C1013.97 93.24 1012.49 91.92 1010.85 91.92C1009.37 91.92 1008.13 93.16 1008.13 94.68C1008.13 96.16 1009.17 97.2 1010.53 97.2C1010.77 97.2 1011.09 97.12 1011.21 97.08C1010.93 98.44 1009.61 100.08 1008.33 100.84L1010.21 102.4ZM1017.61 102.4C1019.81 100.84 1021.37 98.32 1021.37 95.56C1021.37 93.24 1019.89 91.92 1018.25 91.92C1016.77 91.92 1015.53 93.16 1015.53 94.68C1015.53 96.16 1016.57 97.2 1017.93 97.2C1018.17 97.2 1018.49 97.12 1018.61 97.08C1018.33 98.44 1017.01 100.08 1015.73 100.84L1017.61 102.4Z" fill="#4F4F4F"/>
<path d="M45.04 149H48.36V122.32H45.04V133.8H29.44V122.32H26.12V149H29.44V136.76H45.04V149ZM55.9566 126.44C57.0766 126.44 57.9966 125.52 57.9966 124.4C57.9966 123.28 57.0766 122.4 55.9566 122.4C54.8766 122.4 53.9566 123.28 53.9566 124.4C53.9566 125.52 54.8766 126.44 55.9566 126.44ZM54.4766 149H57.4766V129.68H54.4766V149ZM63.4209 153.96C65.7009 156.2 67.9409 156.84 71.2209 156.84C75.9409 156.84 80.4209 154.84 80.4209 148.44V129.68H77.4209V132.6C75.8609 130.48 73.5409 129.2 70.9409 129.2C65.8609 129.2 62.3409 133.04 62.3409 139.24C62.3409 145.48 65.9009 149.24 70.9409 149.24C73.6609 149.24 76.0209 147.76 77.4209 145.8V148.56C77.4209 152.8 74.4209 154.36 71.2209 154.36C68.4609 154.36 66.5409 153.64 64.9409 151.72L63.4209 153.96ZM77.4209 143.44C76.3809 145.12 74.0609 146.6 71.6609 146.6C67.7809 146.6 65.4609 143.48 65.4609 139.24C65.4609 134.96 67.7809 131.88 71.6609 131.88C74.0609 131.88 76.3809 133.32 77.4209 135V143.44ZM99.5097 149H102.51V135.36C102.51 131.16 100.39 129.2 96.3497 129.2C93.4297 129.2 90.7897 130.88 89.4297 132.48V122.32H86.4297V149H89.4297V134.88C90.5897 133.32 92.8297 131.88 95.1497 131.88C97.7497 131.88 99.5097 132.88 99.5097 136.28V149ZM108.5 149H111.5V122.32H108.5V149ZM118.964 126.44C120.084 126.44 121.004 125.52 121.004 124.4C121.004 123.28 120.084 122.4 118.964 122.4C117.884 122.4 116.964 123.28 116.964 124.4C116.964 125.52 117.884 126.44 118.964 126.44ZM117.484 149H120.484V129.68H117.484V149ZM126.429 153.96C128.709 156.2 130.949 156.84 134.229 156.84C138.949 156.84 143.429 154.84 143.429 148.44V129.68H140.429V132.6C138.869 130.48 136.549 129.2 133.949 129.2C128.869 129.2 125.349 133.04 125.349 139.24C125.349 145.48 128.909 149.24 133.949 149.24C136.669 149.24 139.029 147.76 140.429 145.8V148.56C140.429 152.8 137.429 154.36 134.229 154.36C131.469 154.36 129.549 153.64 127.949 151.72L126.429 153.96ZM140.429 143.44C139.389 145.12 137.069 146.6 134.669 146.6C130.789 146.6 128.469 143.48 128.469 139.24C128.469 134.96 130.789 131.88 134.669 131.88C137.069 131.88 139.389 133.32 140.429 135V143.44ZM162.518 149H165.518V135.36C165.518 131.16 163.398 129.2 159.358 129.2C156.438 129.2 153.798 130.88 152.438 132.48V122.32H149.438V149H152.438V134.88C153.598 133.32 155.838 131.88 158.158 131.88C160.758 131.88 162.518 132.88 162.518 136.28V149ZM176.388 149.48C178.148 149.48 179.228 148.96 179.988 148.24L179.108 146C178.708 146.44 177.908 146.8 177.068 146.8C175.748 146.8 175.108 145.76 175.108 144.32V132.32H179.028V129.68H175.108V124.4H172.108V129.68H168.908V132.32H172.108V144.96C172.108 147.84 173.548 149.48 176.388 149.48ZM198.458 149.48C200.218 149.48 201.298 148.96 202.058 148.24L201.178 146C200.778 146.44 199.978 146.8 199.138 146.8C197.818 146.8 197.178 145.76 197.178 144.32V132.32H201.098V129.68H197.178V124.4H194.178V129.68H190.978V132.32H194.178V144.96C194.178 147.84 195.618 149.48 198.458 149.48ZM213.776 149.48C219.656 149.48 223.336 144.92 223.336 139.32C223.336 133.72 219.656 129.2 213.776 129.2C207.896 129.2 204.216 133.72 204.216 139.32C204.216 144.92 207.896 149.48 213.776 149.48ZM213.776 146.8C209.656 146.8 207.336 143.28 207.336 139.32C207.336 135.4 209.656 131.88 213.776 131.88C217.896 131.88 220.176 135.4 220.176 139.32C220.176 143.28 217.896 146.8 213.776 146.8ZM24.88 199.32C24.88 205.08 28.76 209.48 34.52 209.48C38.04 209.48 40.12 208.04 41.6 206.12L39.6 204.28C38.32 206 36.68 206.8 34.68 206.8C30.56 206.8 28 203.6 28 199.32C28 195.04 30.56 191.88 34.68 191.88C36.68 191.88 38.32 192.64 39.6 194.4L41.6 192.56C40.12 190.64 38.04 189.2 34.52 189.2C28.76 189.2 24.88 193.6 24.88 199.32ZM54.2447 209.48C60.1247 209.48 63.8047 204.92 63.8047 199.32C63.8047 193.72 60.1247 189.2 54.2447 189.2C48.3647 189.2 44.6847 193.72 44.6847 199.32C44.6847 204.92 48.3647 209.48 54.2447 209.48ZM54.2447 206.8C50.1247 206.8 47.8047 203.28 47.8047 199.32C47.8047 195.4 50.1247 191.88 54.2447 191.88C58.3647 191.88 60.6447 195.4 60.6447 199.32C60.6447 203.28 58.3647 206.8 54.2447 206.8ZM81.7353 209H84.7353V195.44C84.7353 191.24 82.6153 189.2 78.5753 189.2C75.6953 189.2 73.0553 190.88 71.6953 192.48V189.68H68.6953V209H71.6953V194.88C72.8153 193.32 75.0553 191.88 77.4153 191.88C80.0153 191.88 81.7353 192.96 81.7353 196.36V209ZM89.0466 206.44C91.0066 208.52 93.6866 209.48 96.8466 209.48C101.847 209.48 104.447 206.88 104.447 203.64C104.447 199.36 100.567 198.4 97.2066 197.64C94.6866 197.04 92.4866 196.44 92.4866 194.56C92.4866 192.84 94.1266 191.64 96.7666 191.64C99.2466 191.64 101.367 192.68 102.527 194.08L103.927 192C102.367 190.44 100.047 189.2 96.7666 189.2C92.1666 189.2 89.5666 191.76 89.5666 194.76C89.5666 198.76 93.2866 199.64 96.5666 200.4C99.1666 201.04 101.527 201.72 101.527 203.84C101.527 205.72 99.9266 207.04 96.9666 207.04C94.3266 207.04 91.8866 205.76 90.6066 204.28L89.0466 206.44ZM122.36 209H125.36V189.68H122.36V203.88C121.24 205.44 119 206.8 116.64 206.8C114.04 206.8 112.32 205.8 112.32 202.4V189.68H109.32V203.32C109.32 207.52 111.44 209.48 115.48 209.48C118.36 209.48 120.88 207.96 122.36 206.28V209ZM154.672 209H157.672V195.04C157.672 191.16 155.792 189.2 152.272 189.2C149.472 189.2 146.872 191.04 145.792 192.8C145.232 190.8 143.552 189.2 140.592 189.2C137.752 189.2 135.152 191.24 134.352 192.48V189.68H131.352V209H134.352V194.88C135.392 193.32 137.472 191.88 139.432 191.88C141.952 191.88 142.992 193.44 142.992 195.88V209H145.992V194.84C146.992 193.32 149.112 191.88 151.112 191.88C153.592 191.88 154.672 193.44 154.672 195.88V209ZM162.536 199.32C162.536 205.36 166.656 209.48 172.376 209.48C175.536 209.48 178.136 208.44 180.056 206.52L178.616 204.56C177.096 206.12 174.856 207 172.656 207C168.496 207 165.936 203.96 165.696 200.32H181.336V199.56C181.336 193.76 177.896 189.2 172.056 189.2C166.536 189.2 162.536 193.72 162.536 199.32ZM172.016 191.68C176.416 191.68 178.336 195.24 178.376 198.12H165.696C165.856 195.16 167.896 191.68 172.016 191.68ZM186.195 209H189.195V195.32C190.075 193.76 192.595 192.24 194.435 192.24C194.915 192.24 195.275 192.28 195.635 192.36V189.28C192.995 189.28 190.755 190.76 189.195 192.8V189.68H186.195V209ZM197.718 206.44C199.678 208.52 202.358 209.48 205.518 209.48C210.518 209.48 213.118 206.88 213.118 203.64C213.118 199.36 209.238 198.4 205.878 197.64C203.358 197.04 201.158 196.44 201.158 194.56C201.158 192.84 202.798 191.64 205.438 191.64C207.918 191.64 210.038 192.68 211.198 194.08L212.598 192C211.038 190.44 208.718 189.2 205.438 189.2C200.838 189.2 198.238 191.76 198.238 194.76C198.238 198.76 201.958 199.64 205.238 200.4C207.838 201.04 210.198 201.72 210.198 203.84C210.198 205.72 208.598 207.04 205.638 207.04C202.998 207.04 200.558 205.76 199.278 204.28L197.718 206.44Z" fill="#4F4F4F"/>
<path d="M786.28 244H789.96L779.2 217.32H775.08L764.36 244H768.04L770.4 238.08H783.92L786.28 244ZM777.16 220.28L782.92 235.12H771.36L777.16 220.28ZM793.328 244H796.328V241.12C797.768 243.08 800.128 244.48 802.848 244.48C807.888 244.48 811.448 240.64 811.448 234.36C811.448 228.2 807.888 224.2 802.848 224.2C800.208 224.2 797.888 225.48 796.328 227.6V217.32H793.328V244ZM796.328 238.76V230C797.368 228.32 799.728 226.88 802.088 226.88C806.008 226.88 808.328 230.08 808.328 234.36C808.328 238.64 806.008 241.8 802.088 241.8C799.728 241.8 797.368 240.44 796.328 238.76ZM824.776 244.48C830.656 244.48 834.336 239.92 834.336 234.32C834.336 228.72 830.656 224.2 824.776 224.2C818.896 224.2 815.216 228.72 815.216 234.32C815.216 239.92 818.896 244.48 824.776 244.48ZM824.776 241.8C820.656 241.8 818.336 238.28 818.336 234.32C818.336 230.4 820.656 226.88 824.776 226.88C828.896 226.88 831.176 230.4 831.176 234.32C831.176 238.28 828.896 241.8 824.776 241.8ZM844.387 244H847.667L855.707 224.68H852.427L846.027 240.52L839.587 224.68H836.347L844.387 244ZM857.716 234.32C857.716 240.36 861.836 244.48 867.556 244.48C870.716 244.48 873.316 243.44 875.236 241.52L873.796 239.56C872.276 241.12 870.036 242 867.836 242C863.676 242 861.116 238.96 860.876 235.32H876.516V234.56C876.516 228.76 873.076 224.2 867.236 224.2C861.716 224.2 857.716 228.72 857.716 234.32ZM867.196 226.68C871.596 226.68 873.516 230.24 873.556 233.12H860.876C861.036 230.16 863.076 226.68 867.196 226.68ZM903.768 244H906.768V230.72C906.768 226.04 903.368 224.2 899.288 224.2C896.128 224.2 893.648 225.24 891.568 227.4L892.968 229.48C894.688 227.64 896.568 226.8 898.888 226.8C901.688 226.8 903.768 228.28 903.768 230.88V234.36C902.208 232.56 900.008 231.72 897.368 231.72C894.088 231.72 890.608 233.76 890.608 238.08C890.608 242.28 894.088 244.48 897.368 244.48C899.968 244.48 902.168 243.56 903.768 241.8V244ZM903.768 239.92C902.608 241.52 900.568 242.32 898.448 242.32C895.648 242.32 893.688 240.56 893.688 238.12C893.688 235.64 895.648 233.88 898.448 233.88C900.568 233.88 902.608 234.68 903.768 236.28V239.92ZM917.941 244H921.221L929.261 224.68H925.981L919.581 240.52L913.141 224.68H909.901L917.941 244ZM931.271 234.32C931.271 240.36 935.391 244.48 941.111 244.48C944.271 244.48 946.871 243.44 948.791 241.52L947.351 239.56C945.831 241.12 943.591 242 941.391 242C937.231 242 934.671 238.96 934.431 235.32H950.071V234.56C950.071 228.76 946.631 224.2 940.791 224.2C935.271 224.2 931.271 228.72 931.271 234.32ZM940.751 226.68C945.151 226.68 947.071 230.24 947.111 233.12H934.431C934.591 230.16 936.631 226.68 940.751 226.68ZM954.93 244H957.93V230.32C958.81 228.76 961.33 227.24 963.17 227.24C963.65 227.24 964.01 227.28 964.37 227.36V224.28C961.73 224.28 959.49 225.76 957.93 227.8V224.68H954.93V244ZM980.213 244H983.213V230.72C983.213 226.04 979.813 224.2 975.733 224.2C972.573 224.2 970.093 225.24 968.013 227.4L969.413 229.48C971.133 227.64 973.013 226.8 975.333 226.8C978.133 226.8 980.213 228.28 980.213 230.88V234.36C978.653 232.56 976.453 231.72 973.813 231.72C970.533 231.72 967.053 233.76 967.053 238.08C967.053 242.28 970.533 244.48 973.813 244.48C976.413 244.48 978.613 243.56 980.213 241.8V244ZM980.213 239.92C979.053 241.52 977.013 242.32 974.893 242.32C972.093 242.32 970.133 240.56 970.133 238.12C970.133 235.64 972.093 233.88 974.893 233.88C977.013 233.88 979.053 234.68 980.213 236.28V239.92ZM989.187 248.96C991.467 251.2 993.707 251.84 996.987 251.84C1001.71 251.84 1006.19 249.84 1006.19 243.44V224.68H1003.19V227.6C1001.63 225.48 999.307 224.2 996.707 224.2C991.627 224.2 988.107 228.04 988.107 234.24C988.107 240.48 991.667 244.24 996.707 244.24C999.427 244.24 1001.79 242.76 1003.19 240.8V243.56C1003.19 247.8 1000.19 249.36 996.987 249.36C994.227 249.36 992.307 248.64 990.707 246.72L989.187 248.96ZM1003.19 238.44C1002.15 240.12 999.827 241.6 997.427 241.6C993.547 241.6 991.227 238.48 991.227 234.24C991.227 229.96 993.547 226.88 997.427 226.88C999.827 226.88 1002.15 228.32 1003.19 230V238.44ZM1011.08 234.32C1011.08 240.36 1015.2 244.48 1020.92 244.48C1024.08 244.48 1026.68 243.44 1028.6 241.52L1027.16 239.56C1025.64 241.12 1023.4 242 1021.2 242C1017.04 242 1014.48 238.96 1014.24 235.32H1029.88V234.56C1029.88 228.76 1026.44 224.2 1020.6 224.2C1015.08 224.2 1011.08 228.72 1011.08 234.32ZM1020.56 226.68C1024.96 226.68 1026.88 230.24 1026.92 233.12H1014.24C1014.4 230.16 1016.44 226.68 1020.56 226.68ZM1043.21 227.84H1060.85V225.72H1043.21V227.84ZM1043.21 235.56H1060.85V233.48H1043.21V235.56ZM1077.84 216.92C1075.64 218.48 1074.12 220.96 1074.12 223.72C1074.12 226.04 1075.56 227.36 1077.2 227.36C1078.72 227.36 1079.92 226.12 1079.92 224.64C1079.92 223.16 1078.88 222.12 1077.56 222.12C1077.28 222.12 1076.96 222.16 1076.88 222.2C1077.12 220.84 1078.48 219.2 1079.76 218.44L1077.84 216.92ZM1085.24 216.92C1083.04 218.48 1081.52 220.96 1081.52 223.72C1081.52 226.04 1082.96 227.36 1084.6 227.36C1086.12 227.36 1087.32 226.12 1087.32 224.64C1087.32 223.16 1086.28 222.12 1084.96 222.12C1084.68 222.12 1084.36 222.16 1084.28 222.2C1084.52 220.84 1085.88 219.2 1087.16 218.44L1085.24 216.92ZM1090.87 230.68C1090.87 239.04 1097.15 244.52 1104.87 244.52C1109.51 244.52 1113.23 242.6 1115.87 239.68V229.68H1103.23V233.8H1111.19V237.96C1109.99 239.08 1107.59 240.36 1104.87 240.36C1099.59 240.36 1095.67 236.28 1095.67 230.68C1095.67 225.08 1099.59 221.04 1104.87 221.04C1107.87 221.04 1110.39 222.6 1111.79 224.6L1115.63 222.44C1113.47 219.36 1110.07 216.88 1104.87 216.88C1097.15 216.88 1090.87 222.32 1090.87 230.68ZM1129.35 244.48C1135.55 244.48 1139.31 239.88 1139.31 234.32C1139.31 228.8 1135.55 224.2 1129.35 224.2C1123.23 224.2 1119.43 228.8 1119.43 234.32C1119.43 239.88 1123.23 244.48 1129.35 244.48ZM1129.35 240.76C1125.79 240.76 1123.79 237.76 1123.79 234.32C1123.79 230.92 1125.79 227.92 1129.35 227.92C1132.95 227.92 1134.95 230.92 1134.95 234.32C1134.95 237.76 1132.95 240.76 1129.35 240.76ZM1143.56 244H1147.76V217.32H1143.56V244ZM1166.8 244H1171V217.32H1166.8V227.36C1165.24 225.32 1163 224.2 1160.6 224.2C1155.6 224.2 1152 228.12 1152 234.36C1152 240.72 1155.64 244.48 1160.6 244.48C1163.08 244.48 1165.32 243.28 1166.8 241.36V244ZM1166.8 238.2C1165.84 239.64 1163.8 240.76 1161.8 240.76C1158.48 240.76 1156.36 238.08 1156.36 234.36C1156.36 230.6 1158.48 227.92 1161.8 227.92C1163.8 227.92 1165.84 229.08 1166.8 230.52V238.2ZM1177.89 227.4C1180.09 225.84 1181.65 223.32 1181.65 220.56C1181.65 218.24 1180.17 216.92 1178.53 216.92C1177.05 216.92 1175.81 218.16 1175.81 219.68C1175.81 221.16 1176.85 222.2 1178.21 222.2C1178.45 222.2 1178.77 222.12 1178.89 222.08C1178.61 223.44 1177.29 225.08 1176.01 225.84L1177.89 227.4ZM1185.29 227.4C1187.49 225.84 1189.05 223.32 1189.05 220.56C1189.05 218.24 1187.57 216.92 1185.93 216.92C1184.45 216.92 1183.21 218.16 1183.21 219.68C1183.21 221.16 1184.25 222.2 1185.61 222.2C1185.85 222.2 1186.17 222.12 1186.29 222.08C1186.01 223.44 1184.69 225.08 1183.41 225.84L1185.29 227.4Z" fill="#4F4F4F"/>
<path d="M859.28 355H862.96L852.2 328.32H848.08L837.36 355H841.04L843.4 349.08H856.92L859.28 355ZM850.16 331.28L855.92 346.12H844.36L850.16 331.28ZM870.707 355H873.987L882.027 335.68H878.747L872.347 351.52L865.907 335.68H862.667L870.707 355ZM884.036 345.32C884.036 351.36 888.156 355.48 893.876 355.48C897.036 355.48 899.636 354.44 901.556 352.52L900.116 350.56C898.596 352.12 896.356 353 894.156 353C889.996 353 887.436 349.96 887.196 346.32H902.836V345.56C902.836 339.76 899.396 335.2 893.556 335.2C888.036 335.2 884.036 339.72 884.036 345.32ZM893.516 337.68C897.916 337.68 899.836 341.24 899.876 344.12H887.196C887.356 341.16 889.396 337.68 893.516 337.68ZM907.695 355H910.695V341.32C911.575 339.76 914.095 338.24 915.935 338.24C916.415 338.24 916.775 338.28 917.135 338.36V335.28C914.495 335.28 912.255 336.76 910.695 338.8V335.68H907.695V355ZM932.978 355H935.978V341.72C935.978 337.04 932.578 335.2 928.498 335.2C925.338 335.2 922.858 336.24 920.778 338.4L922.178 340.48C923.898 338.64 925.778 337.8 928.098 337.8C930.898 337.8 932.978 339.28 932.978 341.88V345.36C931.418 343.56 929.218 342.72 926.578 342.72C923.298 342.72 919.818 344.76 919.818 349.08C919.818 353.28 923.298 355.48 926.578 355.48C929.178 355.48 931.378 354.56 932.978 352.8V355ZM932.978 350.92C931.818 352.52 929.778 353.32 927.658 353.32C924.858 353.32 922.898 351.56 922.898 349.12C922.898 346.64 924.858 344.88 927.658 344.88C929.778 344.88 931.818 345.68 932.978 347.28V350.92ZM941.952 359.96C944.232 362.2 946.472 362.84 949.752 362.84C954.472 362.84 958.952 360.84 958.952 354.44V335.68H955.952V338.6C954.392 336.48 952.072 335.2 949.472 335.2C944.392 335.2 940.872 339.04 940.872 345.24C940.872 351.48 944.432 355.24 949.472 355.24C952.192 355.24 954.552 353.76 955.952 351.8V354.56C955.952 358.8 952.952 360.36 949.752 360.36C946.992 360.36 945.072 359.64 943.472 357.72L941.952 359.96ZM955.952 349.44C954.912 351.12 952.592 352.6 950.192 352.6C946.312 352.6 943.992 349.48 943.992 345.24C943.992 340.96 946.312 337.88 950.192 337.88C952.592 337.88 954.912 339.32 955.952 341V349.44ZM963.841 345.32C963.841 351.36 967.961 355.48 973.681 355.48C976.841 355.48 979.441 354.44 981.361 352.52L979.921 350.56C978.401 352.12 976.161 353 973.961 353C969.801 353 967.241 349.96 967.001 346.32H982.641V345.56C982.641 339.76 979.201 335.2 973.361 335.2C967.841 335.2 963.841 339.72 963.841 345.32ZM973.321 337.68C977.721 337.68 979.641 341.24 979.681 344.12H967.001C967.161 341.16 969.201 337.68 973.321 337.68ZM995.973 338.84H1013.61V336.72H995.973V338.84ZM995.973 346.56H1013.61V344.48H995.973V346.56ZM1030.61 327.92C1028.41 329.48 1026.89 331.96 1026.89 334.72C1026.89 337.04 1028.33 338.36 1029.97 338.36C1031.49 338.36 1032.69 337.12 1032.69 335.64C1032.69 334.16 1031.65 333.12 1030.33 333.12C1030.05 333.12 1029.73 333.16 1029.65 333.2C1029.89 331.84 1031.25 330.2 1032.53 329.44L1030.61 327.92ZM1038.01 327.92C1035.81 329.48 1034.29 331.96 1034.29 334.72C1034.29 337.04 1035.73 338.36 1037.37 338.36C1038.89 338.36 1040.09 337.12 1040.09 335.64C1040.09 334.16 1039.05 333.12 1037.73 333.12C1037.45 333.12 1037.13 333.16 1037.05 333.2C1037.29 331.84 1038.65 330.2 1039.93 329.44L1038.01 327.92ZM1043.32 351.24C1045.68 353.76 1049.24 355.48 1054.16 355.48C1061.36 355.48 1064.48 351.68 1064.48 347.24C1064.48 341.44 1059.24 340.08 1054.84 338.96C1051.68 338.16 1048.96 337.48 1048.96 335.4C1048.96 333.4 1050.72 332.08 1053.48 332.08C1056.28 332.08 1059.12 333.04 1061.2 335.12L1063.88 331.64C1061.4 329.24 1058.04 327.92 1053.88 327.92C1048.04 327.92 1044.16 331.32 1044.16 335.72C1044.16 341.36 1049.28 342.64 1053.64 343.72C1056.88 344.56 1059.72 345.28 1059.72 347.68C1059.72 349.44 1058.2 351.32 1054.36 351.32C1050.64 351.32 1047.76 349.6 1045.92 347.64L1043.32 351.24ZM1070.75 332.48C1072.19 332.48 1073.35 331.32 1073.35 329.88C1073.35 328.44 1072.19 327.28 1070.75 327.28C1069.35 327.28 1068.15 328.44 1068.15 329.88C1068.15 331.32 1069.35 332.48 1070.75 332.48ZM1068.67 355H1072.87V335.68H1068.67V355ZM1078.31 355H1082.51V328.32H1078.31V355ZM1093.04 355H1097.56L1105.44 335.68H1100.92L1095.28 350.16L1089.64 335.68H1085.16L1093.04 355ZM1106.88 345.32C1106.88 351.44 1111.2 355.48 1117 355.48C1120.08 355.48 1122.92 354.52 1124.84 352.68L1122.92 349.92C1121.56 351.28 1119.32 352.04 1117.44 352.04C1113.8 352.04 1111.6 349.64 1111.28 346.72H1126.2V345.72C1126.2 339.64 1122.48 335.2 1116.68 335.2C1110.96 335.2 1106.88 339.72 1106.88 345.32ZM1116.68 338.64C1120.48 338.64 1122.04 341.48 1122.12 343.76H1111.24C1111.44 341.4 1113.08 338.64 1116.68 338.64ZM1130.35 355H1134.55V341.84C1135.39 340.48 1137.75 339.28 1139.51 339.28C1140.03 339.28 1140.47 339.32 1140.83 339.4V335.24C1138.31 335.24 1135.99 336.68 1134.55 338.52V335.68H1130.35V355ZM1145.65 338.4C1147.85 336.84 1149.41 334.32 1149.41 331.56C1149.41 329.24 1147.93 327.92 1146.29 327.92C1144.81 327.92 1143.57 329.16 1143.57 330.68C1143.57 332.16 1144.61 333.2 1145.97 333.2C1146.21 333.2 1146.53 333.12 1146.65 333.08C1146.37 334.44 1145.05 336.08 1143.77 336.84L1145.65 338.4ZM1153.05 338.4C1155.25 336.84 1156.81 334.32 1156.81 331.56C1156.81 329.24 1155.33 327.92 1153.69 327.92C1152.21 327.92 1150.97 329.16 1150.97 330.68C1150.97 332.16 1152.01 333.2 1153.37 333.2C1153.61 333.2 1153.93 333.12 1154.05 333.08C1153.77 334.44 1152.45 336.08 1151.17 336.84L1153.05 338.4Z" fill="#4F4F4F"/>
<path d="M888.12 467H900.28C905.16 467 908 464.08 908 459.8C908 456.6 905.64 453.68 902.8 453.24C905.24 452.72 907.48 450.48 907.48 447.12C907.48 443.12 904.64 440.32 900 440.32H888.12V467ZM891.44 451.88V443.28H899.44C902.44 443.28 904.04 445.2 904.04 447.6C904.04 450.04 902.44 451.88 899.44 451.88H891.44ZM891.44 464.04V454.84H899.6C902.88 454.84 904.56 457 904.56 459.44C904.56 462.28 902.72 464.04 899.6 464.04H891.44ZM912.036 457.32C912.036 463.36 916.156 467.48 921.876 467.48C925.036 467.48 927.636 466.44 929.556 464.52L928.116 462.56C926.596 464.12 924.356 465 922.156 465C917.996 465 915.436 461.96 915.196 458.32H930.836V457.56C930.836 451.76 927.396 447.2 921.556 447.2C916.036 447.2 912.036 451.72 912.036 457.32ZM921.516 449.68C925.916 449.68 927.836 453.24 927.876 456.12H915.196C915.356 453.16 917.396 449.68 921.516 449.68ZM935.695 467H938.695V440.32H935.695V467ZM953.12 467.48C959 467.48 962.68 462.92 962.68 457.32C962.68 451.72 959 447.2 953.12 447.2C947.24 447.2 943.56 451.72 943.56 457.32C943.56 462.92 947.24 467.48 953.12 467.48ZM953.12 464.8C949 464.8 946.68 461.28 946.68 457.32C946.68 453.4 949 449.88 953.12 449.88C957.24 449.88 959.52 453.4 959.52 457.32C959.52 461.28 957.24 464.8 953.12 464.8ZM984.29 467H987.29L993.45 447.68H990.33L985.61 463.08L980.53 447.68H977.97L972.89 463.08L968.17 447.68H965.05L971.21 467H974.21L979.25 451.48L984.29 467ZM1019.34 467H1022.34V453.72C1022.34 449.04 1018.94 447.2 1014.86 447.2C1011.7 447.2 1009.22 448.24 1007.14 450.4L1008.54 452.48C1010.26 450.64 1012.14 449.8 1014.46 449.8C1017.26 449.8 1019.34 451.28 1019.34 453.88V457.36C1017.78 455.56 1015.58 454.72 1012.94 454.72C1009.66 454.72 1006.18 456.76 1006.18 461.08C1006.18 465.28 1009.66 467.48 1012.94 467.48C1015.54 467.48 1017.74 466.56 1019.34 464.8V467ZM1019.34 462.92C1018.18 464.52 1016.14 465.32 1014.02 465.32C1011.22 465.32 1009.26 463.56 1009.26 461.12C1009.26 458.64 1011.22 456.88 1014.02 456.88C1016.14 456.88 1018.18 457.68 1019.34 459.28V462.92ZM1033.51 467H1036.79L1044.83 447.68H1041.55L1035.15 463.52L1028.71 447.68H1025.47L1033.51 467ZM1046.84 457.32C1046.84 463.36 1050.96 467.48 1056.68 467.48C1059.84 467.48 1062.44 466.44 1064.36 464.52L1062.92 462.56C1061.4 464.12 1059.16 465 1056.96 465C1052.8 465 1050.24 461.96 1050 458.32H1065.64V457.56C1065.64 451.76 1062.2 447.2 1056.36 447.2C1050.84 447.2 1046.84 451.72 1046.84 457.32ZM1056.32 449.68C1060.72 449.68 1062.64 453.24 1062.68 456.12H1050C1050.16 453.16 1052.2 449.68 1056.32 449.68ZM1070.5 467H1073.5V453.32C1074.38 451.76 1076.9 450.24 1078.74 450.24C1079.22 450.24 1079.58 450.28 1079.94 450.36V447.28C1077.3 447.28 1075.06 448.76 1073.5 450.8V447.68H1070.5V467ZM1095.78 467H1098.78V453.72C1098.78 449.04 1095.38 447.2 1091.3 447.2C1088.14 447.2 1085.66 448.24 1083.58 450.4L1084.98 452.48C1086.7 450.64 1088.58 449.8 1090.9 449.8C1093.7 449.8 1095.78 451.28 1095.78 453.88V457.36C1094.22 455.56 1092.02 454.72 1089.38 454.72C1086.1 454.72 1082.62 456.76 1082.62 461.08C1082.62 465.28 1086.1 467.48 1089.38 467.48C1091.98 467.48 1094.18 466.56 1095.78 464.8V467ZM1095.78 462.92C1094.62 464.52 1092.58 465.32 1090.46 465.32C1087.66 465.32 1085.7 463.56 1085.7 461.12C1085.7 458.64 1087.66 456.88 1090.46 456.88C1092.58 456.88 1094.62 457.68 1095.78 459.28V462.92ZM1104.76 471.96C1107.04 474.2 1109.28 474.84 1112.56 474.84C1117.28 474.84 1121.76 472.84 1121.76 466.44V447.68H1118.76V450.6C1117.2 448.48 1114.88 447.2 1112.28 447.2C1107.2 447.2 1103.68 451.04 1103.68 457.24C1103.68 463.48 1107.24 467.24 1112.28 467.24C1115 467.24 1117.36 465.76 1118.76 463.8V466.56C1118.76 470.8 1115.76 472.36 1112.56 472.36C1109.8 472.36 1107.88 471.64 1106.28 469.72L1104.76 471.96ZM1118.76 461.44C1117.72 463.12 1115.4 464.6 1113 464.6C1109.12 464.6 1106.8 461.48 1106.8 457.24C1106.8 452.96 1109.12 449.88 1113 449.88C1115.4 449.88 1117.72 451.32 1118.76 453V461.44ZM1126.65 457.32C1126.65 463.36 1130.77 467.48 1136.49 467.48C1139.65 467.48 1142.25 466.44 1144.17 464.52L1142.73 462.56C1141.21 464.12 1138.97 465 1136.77 465C1132.61 465 1130.05 461.96 1129.81 458.32H1145.45V457.56C1145.45 451.76 1142.01 447.2 1136.17 447.2C1130.65 447.2 1126.65 451.72 1126.65 457.32ZM1136.13 449.68C1140.53 449.68 1142.45 453.24 1142.49 456.12H1129.81C1129.97 453.16 1132.01 449.68 1136.13 449.68ZM1158.78 450.84H1176.42V448.72H1158.78V450.84ZM1158.78 458.56H1176.42V456.48H1158.78V458.56ZM1193.41 439.92C1191.21 441.48 1189.69 443.96 1189.69 446.72C1189.69 449.04 1191.13 450.36 1192.77 450.36C1194.29 450.36 1195.49 449.12 1195.49 447.64C1195.49 446.16 1194.45 445.12 1193.13 445.12C1192.85 445.12 1192.53 445.16 1192.45 445.2C1192.69 443.84 1194.05 442.2 1195.33 441.44L1193.41 439.92ZM1200.81 439.92C1198.61 441.48 1197.09 443.96 1197.09 446.72C1197.09 449.04 1198.53 450.36 1200.17 450.36C1201.69 450.36 1202.89 449.12 1202.89 447.64C1202.89 446.16 1201.85 445.12 1200.53 445.12C1200.25 445.12 1199.93 445.16 1199.85 445.2C1200.09 443.84 1201.45 442.2 1202.73 441.44L1200.81 439.92ZM1207.84 467H1221.32C1226.32 467 1229.08 463.92 1229.08 459.8C1229.08 456.52 1226.76 453.68 1223.92 453.24C1226.4 452.72 1228.56 450.48 1228.56 447.12C1228.56 443.36 1225.84 440.32 1220.96 440.32H1207.84V467ZM1212.52 451.36V444.44H1220C1222.4 444.44 1223.76 445.92 1223.76 447.92C1223.76 449.92 1222.4 451.36 1220 451.36H1212.52ZM1212.52 462.88V455.48H1220.2C1222.88 455.48 1224.28 457.16 1224.28 459.16C1224.28 461.48 1222.76 462.88 1220.2 462.88H1212.52ZM1233.66 467H1237.86V453.84C1238.7 452.48 1241.06 451.28 1242.82 451.28C1243.34 451.28 1243.78 451.32 1244.14 451.4V447.24C1241.62 447.24 1239.3 448.68 1237.86 450.52V447.68H1233.66V467ZM1256.24 467.48C1262.44 467.48 1266.2 462.88 1266.2 457.32C1266.2 451.8 1262.44 447.2 1256.24 447.2C1250.12 447.2 1246.32 451.8 1246.32 457.32C1246.32 462.88 1250.12 467.48 1256.24 467.48ZM1256.24 463.76C1252.68 463.76 1250.68 460.76 1250.68 457.32C1250.68 453.92 1252.68 450.92 1256.24 450.92C1259.84 450.92 1261.84 453.92 1261.84 457.32C1261.84 460.76 1259.84 463.76 1256.24 463.76ZM1283.49 467H1287.69V453.4C1287.69 449.44 1285.61 447.2 1281.45 447.2C1278.41 447.2 1275.93 448.8 1274.65 450.32V447.68H1270.45V467H1274.65V453.52C1275.61 452.2 1277.45 450.92 1279.61 450.92C1281.97 450.92 1283.49 451.92 1283.49 454.92V467ZM1292.27 467H1307.59V463.36H1297.79L1307.43 450.76V447.68H1292.27V451.36H1301.83L1292.27 463.84V467ZM1310.97 457.32C1310.97 463.44 1315.29 467.48 1321.09 467.48C1324.17 467.48 1327.01 466.52 1328.93 464.68L1327.01 461.92C1325.65 463.28 1323.41 464.04 1321.53 464.04C1317.89 464.04 1315.69 461.64 1315.37 458.72H1330.29V457.72C1330.29 451.64 1326.57 447.2 1320.77 447.2C1315.05 447.2 1310.97 451.72 1310.97 457.32ZM1320.77 450.64C1324.57 450.64 1326.13 453.48 1326.21 455.76H1315.33C1315.53 453.4 1317.17 450.64 1320.77 450.64ZM1335.68 450.4C1337.88 448.84 1339.44 446.32 1339.44 443.56C1339.44 441.24 1337.96 439.92 1336.32 439.92C1334.84 439.92 1333.6 441.16 1333.6 442.68C1333.6 444.16 1334.64 445.2 1336 445.2C1336.24 445.2 1336.56 445.12 1336.68 445.08C1336.4 446.44 1335.08 448.08 1333.8 448.84L1335.68 450.4ZM1343.08 450.4C1345.28 448.84 1346.84 446.32 1346.84 443.56C1346.84 441.24 1345.36 439.92 1343.72 439.92C1342.24 439.92 1341 441.16 1341 442.68C1341 444.16 1342.04 445.2 1343.4 445.2C1343.64 445.2 1343.96 445.12 1344.08 445.08C1343.8 446.44 1342.48 448.08 1341.2 448.84L1343.08 450.4Z" fill="#4F4F4F"/>
</svg>
