<svg width="736" height="566" viewBox="0 0 736 566" fill="none" xmlns="http://www.w3.org/2000/svg">
<g clip-path="url(#clip0_134_73095)">
<rect x="134" y="66" width="304" height="362" fill="#E0E0E0"/>
<path d="M179.136 118H181.008V107.328H179.136V118ZM188.525 118H190.205V112.56C190.205 110.976 189.373 110.08 187.709 110.08C186.493 110.08 185.501 110.72 184.989 111.328V110.272H183.309V118H184.989V112.608C185.373 112.08 186.109 111.568 186.973 111.568C187.917 111.568 188.525 111.968 188.525 113.168V118ZM192.867 118H194.547V111.744H196.115V110.272H194.547V109.84C194.547 108.976 194.963 108.544 195.619 108.544C195.859 108.544 196.099 108.592 196.291 108.704L196.659 107.472C196.323 107.28 195.843 107.168 195.315 107.168C193.891 107.168 192.867 108.112 192.867 109.84V110.272H191.587V111.744H192.867V118ZM197.469 118H199.149V112.736C199.485 112.192 200.429 111.712 201.133 111.712C201.341 111.712 201.517 111.728 201.661 111.76V110.096C200.653 110.096 199.725 110.672 199.149 111.408V110.272H197.469V118ZM207.815 118H209.496V112.88C209.496 110.8 207.991 110.08 206.28 110.08C205.047 110.08 203.927 110.48 203.031 111.328L203.719 112.496C204.391 111.84 205.143 111.52 206.007 111.52C207.079 111.52 207.815 112.064 207.815 112.96V114.112C207.255 113.456 206.359 113.12 205.319 113.12C204.055 113.12 202.631 113.856 202.631 115.632C202.631 117.344 204.055 118.192 205.319 118.192C206.344 118.192 207.24 117.824 207.815 117.168V118ZM207.815 116.24C207.431 116.768 206.711 117.04 205.975 117.04C205.031 117.04 204.327 116.496 204.327 115.664C204.327 114.816 205.031 114.272 205.975 114.272C206.711 114.272 207.431 114.544 207.815 115.072V116.24ZM211.274 114.128C211.274 116.48 212.922 118.192 215.274 118.192C216.778 118.192 217.69 117.552 218.234 116.816L217.13 115.792C216.698 116.384 216.106 116.704 215.354 116.704C213.946 116.704 213.018 115.632 213.018 114.128C213.018 112.624 213.946 111.568 215.354 111.568C216.106 111.568 216.698 111.872 217.13 112.48L218.234 111.456C217.69 110.72 216.778 110.08 215.274 110.08C212.922 110.08 211.274 111.792 211.274 114.128ZM222.107 118.192C222.891 118.192 223.387 117.984 223.691 117.696L223.291 116.432C223.163 116.576 222.859 116.704 222.539 116.704C222.059 116.704 221.803 116.32 221.803 115.792V111.744H223.371V110.272H221.803V108.16H220.123V110.272H218.843V111.744H220.123V116.208C220.123 117.488 220.811 118.192 222.107 118.192ZM225.808 108.992C226.384 108.992 226.848 108.528 226.848 107.952C226.848 107.376 226.384 106.912 225.808 106.912C225.248 106.912 224.768 107.376 224.768 107.952C224.768 108.528 225.248 108.992 225.808 108.992ZM224.976 118H226.656V110.272H224.976V118ZM232.403 118.192C234.883 118.192 236.387 116.352 236.387 114.128C236.387 111.92 234.883 110.08 232.403 110.08C229.955 110.08 228.435 111.92 228.435 114.128C228.435 116.352 229.955 118.192 232.403 118.192ZM232.403 116.704C230.979 116.704 230.179 115.504 230.179 114.128C230.179 112.768 230.979 111.568 232.403 111.568C233.843 111.568 234.643 112.768 234.643 114.128C234.643 115.504 233.843 116.704 232.403 116.704ZM243.383 118H245.063V112.56C245.063 110.976 244.231 110.08 242.567 110.08C241.351 110.08 240.359 110.72 239.847 111.328V110.272H238.167V118H239.847V112.608C240.231 112.08 240.967 111.568 241.831 111.568C242.775 111.568 243.383 111.968 243.383 113.168V118ZM256.955 118H258.635V107.328H256.955V111.344C256.331 110.528 255.435 110.08 254.475 110.08C252.475 110.08 251.035 111.648 251.035 114.144C251.035 116.688 252.491 118.192 254.475 118.192C255.467 118.192 256.363 117.712 256.955 116.944V118ZM256.955 115.68C256.571 116.256 255.755 116.704 254.955 116.704C253.627 116.704 252.779 115.632 252.779 114.144C252.779 112.64 253.627 111.568 254.955 111.568C255.755 111.568 256.571 112.032 256.955 112.608V115.68ZM260.412 114.128C260.412 116.576 262.14 118.192 264.46 118.192C265.692 118.192 266.828 117.808 267.596 117.072L266.828 115.968C266.284 116.512 265.388 116.816 264.636 116.816C263.18 116.816 262.3 115.856 262.172 114.688H268.14V114.288C268.14 111.856 266.652 110.08 264.332 110.08C262.044 110.08 260.412 111.888 260.412 114.128ZM264.332 111.456C265.852 111.456 266.476 112.592 266.508 113.504H262.156C262.236 112.56 262.892 111.456 264.332 111.456ZM272.198 118.192C272.982 118.192 273.478 117.984 273.782 117.696L273.382 116.432C273.254 116.576 272.95 116.704 272.63 116.704C272.15 116.704 271.894 116.32 271.894 115.792V111.744H273.462V110.272H271.894V108.16H270.214V110.272H268.934V111.744H270.214V116.208C270.214 117.488 270.902 118.192 272.198 118.192ZM279.787 118H281.467V112.88C281.467 110.8 279.963 110.08 278.251 110.08C277.019 110.08 275.899 110.48 275.003 111.328L275.691 112.496C276.363 111.84 277.115 111.52 277.979 111.52C279.051 111.52 279.787 112.064 279.787 112.96V114.112C279.227 113.456 278.331 113.12 277.291 113.12C276.027 113.12 274.603 113.856 274.603 115.632C274.603 117.344 276.027 118.192 277.291 118.192C278.315 118.192 279.211 117.824 279.787 117.168V118ZM279.787 116.24C279.403 116.768 278.683 117.04 277.947 117.04C277.003 117.04 276.299 116.496 276.299 115.664C276.299 114.816 277.003 114.272 277.947 114.272C278.683 114.272 279.403 114.544 279.787 115.072V116.24ZM284.557 108.992C285.133 108.992 285.597 108.528 285.597 107.952C285.597 107.376 285.133 106.912 284.557 106.912C283.997 106.912 283.517 107.376 283.517 107.952C283.517 108.528 283.997 108.992 284.557 108.992ZM283.725 118H285.405V110.272H283.725V118ZM287.665 118H289.345V107.328H287.665V118ZM290.932 116.992C291.732 117.776 292.932 118.192 294.244 118.192C296.324 118.192 297.46 117.152 297.46 115.792C297.46 113.968 295.812 113.584 294.468 113.296C293.556 113.088 292.788 112.88 292.788 112.288C292.788 111.744 293.348 111.424 294.228 111.424C295.188 111.424 296.052 111.824 296.516 112.352L297.22 111.168C296.516 110.544 295.524 110.08 294.212 110.08C292.26 110.08 291.172 111.168 291.172 112.432C291.172 114.16 292.756 114.512 294.084 114.8C295.028 115.008 295.844 115.248 295.844 115.92C295.844 116.496 295.332 116.864 294.324 116.864C293.316 116.864 292.244 116.336 291.7 115.776L290.932 116.992Z" fill="#333333"/>
<path d="M178.656 243.672C178.656 246.856 180.912 249.192 184.112 249.192C187.312 249.192 189.568 246.856 189.568 243.672C189.568 240.488 187.312 238.152 184.112 238.152C180.912 238.152 178.656 240.488 178.656 243.672ZM187.648 243.672C187.648 245.864 186.256 247.528 184.112 247.528C181.952 247.528 180.576 245.864 180.576 243.672C180.576 241.464 181.952 239.816 184.112 239.816C186.256 239.816 187.648 241.464 187.648 243.672ZM191.402 249H193.082V243.736C193.418 243.192 194.362 242.712 195.066 242.712C195.274 242.712 195.45 242.728 195.594 242.76V241.096C194.586 241.096 193.658 241.672 193.082 242.408V241.272H191.402V249ZM202.469 249H204.149V238.328H202.469V242.344C201.845 241.528 200.949 241.08 199.989 241.08C197.989 241.08 196.549 242.648 196.549 245.144C196.549 247.688 198.005 249.192 199.989 249.192C200.981 249.192 201.877 248.712 202.469 247.944V249ZM202.469 246.68C202.085 247.256 201.269 247.704 200.469 247.704C199.141 247.704 198.293 246.632 198.293 245.144C198.293 243.64 199.141 242.568 200.469 242.568C201.269 242.568 202.085 243.032 202.469 243.608V246.68ZM205.926 245.128C205.926 247.576 207.654 249.192 209.974 249.192C211.206 249.192 212.342 248.808 213.11 248.072L212.342 246.968C211.798 247.512 210.902 247.816 210.15 247.816C208.694 247.816 207.814 246.856 207.686 245.688H213.654V245.288C213.654 242.856 212.166 241.08 209.846 241.08C207.558 241.08 205.926 242.888 205.926 245.128ZM209.846 242.456C211.366 242.456 211.99 243.592 212.022 244.504H207.67C207.75 243.56 208.406 242.456 209.846 242.456ZM215.392 249H217.072V243.736C217.408 243.192 218.352 242.712 219.056 242.712C219.264 242.712 219.44 242.728 219.584 242.76V241.096C218.576 241.096 217.648 241.672 217.072 242.408V241.272H215.392V249ZM230.649 249H232.329V238.328H230.649V242.344C230.025 241.528 229.129 241.08 228.169 241.08C226.169 241.08 224.729 242.648 224.729 245.144C224.729 247.688 226.185 249.192 228.169 249.192C229.161 249.192 230.057 248.712 230.649 247.944V249ZM230.649 246.68C230.265 247.256 229.449 247.704 228.649 247.704C227.321 247.704 226.473 246.632 226.473 245.144C226.473 243.64 227.321 242.568 228.649 242.568C229.449 242.568 230.265 243.032 230.649 243.608V246.68ZM234.106 245.128C234.106 247.576 235.834 249.192 238.154 249.192C239.386 249.192 240.522 248.808 241.29 248.072L240.522 246.968C239.978 247.512 239.082 247.816 238.33 247.816C236.874 247.816 235.994 246.856 235.866 245.688H241.834V245.288C241.834 242.856 240.346 241.08 238.026 241.08C235.738 241.08 234.106 242.888 234.106 245.128ZM238.026 242.456C239.546 242.456 240.17 243.592 240.202 244.504H235.85C235.93 243.56 236.586 242.456 238.026 242.456ZM245.892 249.192C246.676 249.192 247.172 248.984 247.476 248.696L247.076 247.432C246.948 247.576 246.644 247.704 246.324 247.704C245.844 247.704 245.588 247.32 245.588 246.792V242.744H247.156V241.272H245.588V239.16H243.908V241.272H242.628V242.744H243.908V247.208C243.908 248.488 244.596 249.192 245.892 249.192ZM253.481 249H255.161V243.88C255.161 241.8 253.657 241.08 251.945 241.08C250.713 241.08 249.593 241.48 248.697 242.328L249.385 243.496C250.057 242.84 250.809 242.52 251.673 242.52C252.745 242.52 253.481 243.064 253.481 243.96V245.112C252.921 244.456 252.025 244.12 250.985 244.12C249.721 244.12 248.297 244.856 248.297 246.632C248.297 248.344 249.721 249.192 250.985 249.192C252.009 249.192 252.905 248.824 253.481 248.168V249ZM253.481 247.24C253.097 247.768 252.377 248.04 251.641 248.04C250.697 248.04 249.993 247.496 249.993 246.664C249.993 245.816 250.697 245.272 251.641 245.272C252.377 245.272 253.097 245.544 253.481 246.072V247.24ZM258.251 239.992C258.827 239.992 259.291 239.528 259.291 238.952C259.291 238.376 258.827 237.912 258.251 237.912C257.691 237.912 257.211 238.376 257.211 238.952C257.211 239.528 257.691 239.992 258.251 239.992ZM257.419 249H259.099V241.272H257.419V249ZM261.359 249H263.039V238.328H261.359V249ZM264.626 247.992C265.426 248.776 266.626 249.192 267.938 249.192C270.018 249.192 271.154 248.152 271.154 246.792C271.154 244.968 269.506 244.584 268.162 244.296C267.25 244.088 266.482 243.88 266.482 243.288C266.482 242.744 267.042 242.424 267.922 242.424C268.882 242.424 269.746 242.824 270.21 243.352L270.914 242.168C270.21 241.544 269.218 241.08 267.906 241.08C265.954 241.08 264.866 242.168 264.866 243.432C264.866 245.16 266.45 245.512 267.778 245.8C268.722 246.008 269.538 246.248 269.538 246.92C269.538 247.496 269.026 247.864 268.018 247.864C267.01 247.864 265.938 247.336 265.394 246.776L264.626 247.992Z" fill="#333333"/>
<rect x="178" y="139" width="214" height="9" fill="#C4C4C4"/>
<rect x="178" y="267" width="214" height="9" fill="#C4C4C4"/>
<rect x="178" y="164" width="214" height="9" fill="#C4C4C4"/>
<rect x="178" y="292" width="214" height="9" fill="#C4C4C4"/>
<rect x="178" y="189" width="214" height="9" fill="#C4C4C4"/>
<rect x="178" y="317" width="214" height="9" fill="#C4C4C4"/>
<rect x="299" y="164" width="304" height="336" fill="#F2F2F2"/>
<rect x="345" y="238" width="214" height="9" fill="#C4C4C4"/>
<rect x="345" y="263" width="214" height="9" fill="#C4C4C4"/>
<path d="M346.136 216H350.104C353.432 216 355.688 213.808 355.688 210.672C355.688 207.536 353.432 205.328 350.104 205.328H346.136V216ZM348.008 214.352V206.976H350.104C352.488 206.976 353.768 208.608 353.768 210.672C353.768 212.688 352.424 214.352 350.104 214.352H348.008ZM358.359 206.992C358.935 206.992 359.399 206.528 359.399 205.952C359.399 205.376 358.935 204.912 358.359 204.912C357.799 204.912 357.319 205.376 357.319 205.952C357.319 206.528 357.799 206.992 358.359 206.992ZM357.527 216H359.207V208.272H357.527V216ZM360.795 214.992C361.595 215.776 362.795 216.192 364.107 216.192C366.187 216.192 367.323 215.152 367.323 213.792C367.323 211.968 365.675 211.584 364.331 211.296C363.419 211.088 362.651 210.88 362.651 210.288C362.651 209.744 363.211 209.424 364.091 209.424C365.051 209.424 365.915 209.824 366.379 210.352L367.083 209.168C366.379 208.544 365.387 208.08 364.075 208.08C362.123 208.08 361.035 209.168 361.035 210.432C361.035 212.16 362.619 212.512 363.947 212.8C364.891 213.008 365.707 213.248 365.707 213.92C365.707 214.496 365.195 214.864 364.187 214.864C363.179 214.864 362.107 214.336 361.563 213.776L360.795 214.992ZM370.774 218.944V214.928C371.398 215.76 372.278 216.192 373.254 216.192C375.254 216.192 376.678 214.672 376.678 212.128C376.678 209.584 375.254 208.08 373.254 208.08C372.246 208.08 371.35 208.56 370.774 209.328V208.272H369.094V218.944H370.774ZM374.934 212.128C374.934 213.632 374.086 214.704 372.758 214.704C371.974 214.704 371.142 214.224 370.774 213.664V210.608C371.142 210.032 371.974 209.568 372.758 209.568C374.086 209.568 374.934 210.64 374.934 212.128ZM383.671 216H385.351V208.272H383.671V213.696C383.271 214.224 382.535 214.704 381.687 214.704C380.743 214.704 380.135 214.336 380.135 213.136V208.272H378.455V213.744C378.455 215.328 379.271 216.192 380.935 216.192C382.151 216.192 383.111 215.6 383.671 214.976V216ZM389.933 216.192C390.717 216.192 391.213 215.984 391.517 215.696L391.117 214.432C390.989 214.576 390.685 214.704 390.365 214.704C389.885 214.704 389.629 214.32 389.629 213.792V209.744H391.197V208.272H389.629V206.16H387.949V208.272H386.669V209.744H387.949V214.208C387.949 215.488 388.637 216.192 389.933 216.192ZM392.322 212.128C392.322 214.576 394.05 216.192 396.37 216.192C397.602 216.192 398.738 215.808 399.506 215.072L398.738 213.968C398.194 214.512 397.298 214.816 396.546 214.816C395.09 214.816 394.21 213.856 394.082 212.688H400.05V212.288C400.05 209.856 398.562 208.08 396.242 208.08C393.954 208.08 392.322 209.888 392.322 212.128ZM396.242 209.456C397.762 209.456 398.386 210.592 398.418 211.504H394.066C394.146 210.56 394.802 209.456 396.242 209.456ZM406.81 206.992C407.386 206.992 407.85 206.528 407.85 205.952C407.85 205.376 407.386 204.912 406.81 204.912C406.25 204.912 405.77 205.376 405.77 205.952C405.77 206.528 406.25 206.992 406.81 206.992ZM405.978 216H407.658V208.272H405.978V216ZM415.133 216H416.813V210.56C416.813 208.976 415.981 208.08 414.317 208.08C413.101 208.08 412.109 208.72 411.597 209.328V208.272H409.917V216H411.597V210.608C411.981 210.08 412.717 209.568 413.581 209.568C414.525 209.568 415.133 209.968 415.133 211.168V216ZM419.476 216H421.156V209.744H422.724V208.272H421.156V207.84C421.156 206.976 421.572 206.544 422.228 206.544C422.468 206.544 422.708 206.592 422.9 206.704L423.268 205.472C422.932 205.28 422.452 205.168 421.924 205.168C420.5 205.168 419.476 206.112 419.476 207.84V208.272H418.196V209.744H419.476V216ZM424.077 216H425.757V210.736C426.093 210.192 427.037 209.712 427.741 209.712C427.949 209.712 428.125 209.728 428.269 209.76V208.096C427.261 208.096 426.333 208.672 425.757 209.408V208.272H424.077V216ZM434.424 216H436.104V210.88C436.104 208.8 434.6 208.08 432.888 208.08C431.656 208.08 430.536 208.48 429.64 209.328L430.328 210.496C431 209.84 431.752 209.52 432.616 209.52C433.688 209.52 434.424 210.064 434.424 210.96V212.112C433.864 211.456 432.968 211.12 431.928 211.12C430.664 211.12 429.24 211.856 429.24 213.632C429.24 215.344 430.664 216.192 431.928 216.192C432.952 216.192 433.848 215.824 434.424 215.168V216ZM434.424 214.24C434.04 214.768 433.32 215.04 432.584 215.04C431.64 215.04 430.936 214.496 430.936 213.664C430.936 212.816 431.64 212.272 432.584 212.272C433.32 212.272 434.04 212.544 434.424 213.072V214.24ZM437.882 212.128C437.882 214.48 439.53 216.192 441.882 216.192C443.386 216.192 444.298 215.552 444.842 214.816L443.738 213.792C443.306 214.384 442.714 214.704 441.962 214.704C440.554 214.704 439.626 213.632 439.626 212.128C439.626 210.624 440.554 209.568 441.962 209.568C442.714 209.568 443.306 209.872 443.738 210.48L444.842 209.456C444.298 208.72 443.386 208.08 441.882 208.08C439.53 208.08 437.882 209.792 437.882 212.128ZM448.716 216.192C449.5 216.192 449.996 215.984 450.3 215.696L449.9 214.432C449.772 214.576 449.468 214.704 449.148 214.704C448.668 214.704 448.412 214.32 448.412 213.792V209.744H449.98V208.272H448.412V206.16H446.732V208.272H445.452V209.744H446.732V214.208C446.732 215.488 447.42 216.192 448.716 216.192ZM452.417 206.992C452.993 206.992 453.457 206.528 453.457 205.952C453.457 205.376 452.993 204.912 452.417 204.912C451.857 204.912 451.377 205.376 451.377 205.952C451.377 206.528 451.857 206.992 452.417 206.992ZM451.585 216H453.265V208.272H451.585V216ZM459.012 216.192C461.492 216.192 462.996 214.352 462.996 212.128C462.996 209.92 461.492 208.08 459.012 208.08C456.564 208.08 455.044 209.92 455.044 212.128C455.044 214.352 456.564 216.192 459.012 216.192ZM459.012 214.704C457.588 214.704 456.788 213.504 456.788 212.128C456.788 210.768 457.588 209.568 459.012 209.568C460.452 209.568 461.252 210.768 461.252 212.128C461.252 213.504 460.452 214.704 459.012 214.704ZM469.992 216H471.672V210.56C471.672 208.976 470.84 208.08 469.176 208.08C467.96 208.08 466.968 208.72 466.456 209.328V208.272H464.776V216H466.456V210.608C466.84 210.08 467.576 209.568 468.44 209.568C469.384 209.568 469.992 209.968 469.992 211.168V216Z" fill="#333333"/>
<rect x="178" y="354" width="88" height="20" fill="#2F80ED"/>
<rect x="345" y="293" width="214" height="55" fill="#C4C4C4"/>
<path d="M393.493 390.119C393.559 389.571 393.167 389.073 392.619 389.007L383.683 387.935C383.135 387.869 382.637 388.26 382.571 388.809C382.505 389.357 382.897 389.855 383.445 389.921L391.388 390.874L390.435 398.817C390.369 399.365 390.76 399.863 391.309 399.929C391.857 399.995 392.355 399.603 392.421 399.055L393.493 390.119ZM242.359 390.768C266.724 411.099 331.001 439.593 393.118 390.786L391.882 389.214C330.799 437.207 267.61 409.234 243.641 389.232L242.359 390.768Z" fill="black"/>
</g>
<defs>
<clipPath id="clip0_134_73095">
<rect width="736" height="566" fill="white"/>
</clipPath>
</defs>
</svg>
