<svg width="1179" height="551" viewBox="0 0 1179 551" fill="none" xmlns="http://www.w3.org/2000/svg">
<rect width="1179" height="551" fill="white"/>
<rect x="201" y="112" width="153" height="331" fill="#CAE1E1"/>
<path d="M176.698 496.972H178.786V479.812H176.842L172.858 482.692V484.636L176.698 481.876V496.972ZM187.556 497.188C190.604 497.188 192.164 495.652 192.164 493.372C192.164 490.708 190.34 490.132 187.748 489.652C185.444 489.244 184.82 488.788 184.82 487.66C184.82 486.58 185.756 485.86 187.196 485.86C188.78 485.86 189.548 486.46 189.836 487.828H191.756C191.42 485.116 189.476 484.204 187.22 484.204C185.252 484.204 182.972 485.404 182.972 487.732C182.972 489.916 184.076 490.828 187.34 491.428C189.284 491.788 190.268 492.22 190.268 493.54C190.268 494.884 189.428 495.532 187.532 495.532C185.516 495.532 184.724 494.596 184.58 493.108H182.636C182.756 495.676 184.556 497.188 187.556 497.188ZM199.016 497.14C199.832 497.14 200.312 497.02 200.72 496.876V495.196C200.288 495.364 199.808 495.46 199.184 495.46C198.176 495.46 197.624 494.86 197.624 493.636V486.1H200.552V484.42H197.624V481.564H195.632V484.42H193.832V486.1H195.632V493.828C195.632 495.796 196.736 497.14 199.016 497.14ZM210.082 501.34H212.074V494.908C212.794 496.156 214.258 497.188 216.322 497.188C219.778 497.188 222.034 494.548 222.034 490.708V490.516C222.034 486.604 219.61 484.204 216.322 484.204C214.498 484.204 212.794 485.308 212.074 486.532V484.42H210.082V501.34ZM216.13 495.532C213.682 495.532 212.002 494.02 212.002 490.804V490.612C212.002 487.396 213.778 485.86 216.106 485.86C218.218 485.86 219.97 487.444 219.97 490.612V490.804C219.97 493.852 218.626 495.532 216.13 495.532ZM228.273 497.188C230.121 497.188 231.249 496.564 232.185 495.388V496.972H234.177V488.692C234.177 485.188 231.993 484.204 229.593 484.204C227.169 484.204 224.889 485.26 224.625 488.116H226.617C226.809 486.58 227.769 485.86 229.497 485.86C231.417 485.86 232.185 486.7 232.185 488.692V489.604H230.385C227.169 489.604 224.097 490.588 224.097 493.492C224.097 496.06 225.945 497.188 228.273 497.188ZM228.465 495.604C226.713 495.604 226.089 494.788 226.089 493.492C226.089 491.644 227.937 491.02 230.457 491.02H232.185V492.58C232.185 494.524 230.577 495.604 228.465 495.604ZM243.106 501.556C246.61 501.556 249.082 499.78 249.106 496.132V484.42H247.114V486.436C246.394 485.212 245.098 484.204 243.01 484.204C239.554 484.204 237.154 487.036 237.154 490.444V490.612C237.154 494.068 239.578 496.564 242.866 496.564C244.69 496.564 246.394 495.412 247.114 494.188V496.012C247.114 498.7 245.554 499.876 243.082 499.876C240.946 499.876 239.746 499.132 239.458 497.692H237.418C237.754 499.804 239.386 501.556 243.106 501.556ZM243.082 494.908C240.97 494.908 239.218 493.276 239.218 490.54V490.348C239.218 487.708 240.706 485.86 243.202 485.86C245.65 485.86 247.186 487.492 247.186 490.3V490.468C247.186 493.276 245.41 494.908 243.082 494.908ZM258.273 497.188C261.105 497.188 263.193 495.868 263.625 493.348H261.633C261.369 494.812 260.241 495.532 258.297 495.532C255.729 495.532 254.361 493.948 254.265 491.092H263.721V490.444C263.721 485.956 260.985 484.204 258.081 484.204C254.625 484.204 252.201 486.844 252.201 490.636V490.828C252.201 494.692 254.721 497.188 258.273 497.188ZM254.337 489.484C254.673 487.252 256.041 485.86 258.081 485.86C260.145 485.86 261.489 486.892 261.681 489.484H254.337ZM278.361 495.532C275.817 495.532 274.257 493.66 274.257 490.804V490.612C274.257 487.732 275.841 485.86 278.361 485.86C280.857 485.86 282.465 487.732 282.465 490.636V490.804C282.465 493.636 280.881 495.532 278.361 495.532ZM278.337 497.188C281.913 497.188 284.529 494.572 284.529 490.78V490.588C284.529 486.82 281.913 484.204 278.361 484.204C274.809 484.204 272.193 486.844 272.193 490.612V490.804C272.193 494.476 274.761 497.188 278.337 497.188ZM288.046 496.972H290.038V486.1H293.11V484.42H290.038V482.164C290.038 480.892 290.566 480.004 291.862 480.004C292.414 480.004 292.918 480.124 293.278 480.268V478.588C292.774 478.42 292.438 478.348 291.79 478.348C289.294 478.348 288.046 479.836 288.046 482.38V484.42H286.246V486.1H288.046V496.972ZM306.15 497.188C309.198 497.188 310.758 495.652 310.758 493.372C310.758 490.708 308.934 490.132 306.342 489.652C304.038 489.244 303.414 488.788 303.414 487.66C303.414 486.58 304.35 485.86 305.79 485.86C307.374 485.86 308.142 486.46 308.43 487.828H310.35C310.014 485.116 308.07 484.204 305.814 484.204C303.846 484.204 301.566 485.404 301.566 487.732C301.566 489.916 302.67 490.828 305.934 491.428C307.878 491.788 308.862 492.22 308.862 493.54C308.862 494.884 308.022 495.532 306.126 495.532C304.11 495.532 303.318 494.596 303.174 493.108H301.23C301.35 495.676 303.15 497.188 306.15 497.188ZM313.841 496.972H315.833V484.42H313.841V496.972ZM314.801 481.804C315.521 481.804 316.121 481.204 316.121 480.484C316.121 479.764 315.521 479.164 314.801 479.164C314.081 479.164 313.481 479.764 313.481 480.484C313.481 481.204 314.081 481.804 314.801 481.804ZM324.927 501.556C328.431 501.556 330.903 499.78 330.927 496.132V484.42H328.935V486.436C328.215 485.212 326.919 484.204 324.831 484.204C321.375 484.204 318.975 487.036 318.975 490.444V490.612C318.975 494.068 321.399 496.564 324.687 496.564C326.511 496.564 328.215 495.412 328.935 494.188V496.012C328.935 498.7 327.375 499.876 324.903 499.876C322.767 499.876 321.567 499.132 321.279 497.692H319.239C319.575 499.804 321.207 501.556 324.927 501.556ZM324.903 494.908C322.791 494.908 321.039 493.276 321.039 490.54V490.348C321.039 487.708 322.527 485.86 325.023 485.86C327.471 485.86 329.007 487.492 329.007 490.3V490.468C329.007 493.276 327.231 494.908 324.903 494.908ZM334.957 496.972H336.949V489.364C336.949 487.108 338.605 485.932 340.453 485.932C342.469 485.932 343.405 486.916 343.405 489.124V496.972H345.397V489.268C345.397 485.62 343.573 484.204 340.981 484.204C338.917 484.204 337.525 485.236 336.949 486.412V484.42H334.957V496.972ZM359.901 497.188C361.917 497.188 363.309 496.156 363.885 494.98V496.972H365.877V484.42H363.885V492.028C363.885 494.284 362.205 495.46 360.429 495.46C358.461 495.46 357.525 494.476 357.525 492.268V484.42H355.533V492.364C355.533 495.82 357.405 497.188 359.901 497.188ZM369.903 501.34H371.895V494.908C372.615 496.156 374.079 497.188 376.143 497.188C379.599 497.188 381.855 494.548 381.855 490.708V490.516C381.855 486.604 379.431 484.204 376.143 484.204C374.319 484.204 372.615 485.308 371.895 486.532V484.42H369.903V501.34ZM375.951 495.532C373.503 495.532 371.823 494.02 371.823 490.804V490.612C371.823 487.396 373.599 485.86 375.927 485.86C378.039 485.86 379.791 487.444 379.791 490.612V490.804C379.791 493.852 378.447 495.532 375.951 495.532Z" fill="#4F4F4F"/>
<path d="M261.003 71H263.091V53.84H261.147L257.163 56.72V58.664L261.003 55.904V71ZM274.213 69.488C271.357 69.488 269.533 67.232 269.533 62.888V61.928C269.533 57.704 271.261 55.304 274.165 55.304C277.069 55.304 278.749 57.896 278.749 61.88V62.84C278.749 67.184 277.213 69.488 274.213 69.488ZM274.213 71.216C278.437 71.216 280.861 67.856 280.861 62.864V61.904C280.861 57.008 278.389 53.624 274.165 53.624C269.965 53.624 267.397 56.888 267.397 61.952V62.912C267.397 67.904 270.109 71.216 274.213 71.216ZM290.549 69.488C287.693 69.488 285.869 67.232 285.869 62.888V61.928C285.869 57.704 287.597 55.304 290.501 55.304C293.405 55.304 295.085 57.896 295.085 61.88V62.84C295.085 67.184 293.549 69.488 290.549 69.488ZM290.549 71.216C294.773 71.216 297.197 67.856 297.197 62.864V61.904C297.197 57.008 294.725 53.624 290.501 53.624C286.301 53.624 283.733 56.888 283.733 61.952V62.912C283.733 67.904 286.445 71.216 290.549 71.216Z" fill="#1E2432"/>
<path d="M572.464 129.216C575.368 129.216 578.368 127.512 578.368 124.08C578.368 121.872 577.072 120.384 575.08 119.664C576.664 118.968 577.72 117.768 577.72 116.04C577.72 113.352 575.128 111.624 572.464 111.624C569.824 111.624 567.184 113.304 567.184 116.088C567.184 117.768 568.144 119.064 569.776 119.688C567.952 120.336 566.536 121.824 566.536 124.128C566.536 127.536 569.656 129.216 572.464 129.216ZM572.464 127.512C570.472 127.512 568.672 126.312 568.672 124.056C568.672 121.776 570.472 120.6 572.512 120.6C574.552 120.6 576.232 121.752 576.232 124.008C576.232 126.288 574.576 127.512 572.464 127.512ZM572.536 118.944C570.784 118.944 569.296 117.912 569.296 116.112C569.296 114.336 570.688 113.256 572.464 113.256C574.24 113.256 575.608 114.408 575.608 116.064C575.608 117.888 574.36 118.944 572.536 118.944ZM586.49 129.216C589.754 129.216 592.37 127.008 592.37 123.384C592.37 119.88 590.114 117.696 587.042 117.696C585.41 117.696 584.234 118.224 583.538 118.872V113.64H591.458V111.84H581.81V121.032H582.578C583.49 120 584.642 119.376 586.634 119.376C588.818 119.376 590.234 120.96 590.234 123.384C590.234 125.976 588.794 127.536 586.466 127.536C583.85 127.536 583.106 126.24 582.77 124.368H580.778C581.018 127.176 582.794 129.216 586.49 129.216Z" fill="#1E2432"/>
<path d="M875.073 289.216C878.625 289.216 881.169 287.344 881.169 284.224C881.169 281.848 879.873 280.432 877.857 279.904C879.417 279.256 880.569 278.104 880.569 276.16C880.569 273.784 878.673 271.624 875.409 271.624C872.145 271.624 869.913 273.856 869.793 276.568H871.617C871.833 274.624 873.273 273.328 875.409 273.328C877.497 273.328 878.529 274.576 878.529 276.208C878.529 278.08 877.545 279.136 875.313 279.136H874.113V280.888H875.409C877.833 280.888 879.033 282.016 879.033 284.224C879.033 286.24 877.809 287.536 875.121 287.536C872.409 287.536 871.185 285.976 870.993 283.936H869.073C869.193 286.936 871.425 289.216 875.073 289.216ZM883.054 289H894.55V287.296H886.27L890.998 282.688C893.11 280.624 894.454 278.56 894.454 276.448C894.454 273.496 892.438 271.624 889.27 271.624C886.006 271.624 883.966 273.76 883.702 277.12H885.646C885.982 274.432 887.278 273.304 889.27 273.304C891.214 273.304 892.342 274.456 892.342 276.376C892.342 278.128 891.43 279.688 889.87 281.344L883.054 288.52V289Z" fill="#1E2432"/>
<rect x="503" y="161" width="153" height="282" fill="#CAE1E1"/>
<path d="M467.507 496.421H479.003V494.717H470.723L475.451 490.109C477.563 488.045 478.907 485.981 478.907 483.869C478.907 480.917 476.891 479.045 473.723 479.045C470.459 479.045 468.419 481.181 468.155 484.541H470.099C470.435 481.853 471.731 480.725 473.723 480.725C475.667 480.725 476.795 481.877 476.795 483.797C476.795 485.549 475.883 487.109 474.323 488.765L467.507 495.941V496.421ZM482.356 496.421H484.348V488.813C484.348 486.557 486.004 485.381 487.852 485.381C489.868 485.381 490.804 486.365 490.804 488.573V496.421H492.796V488.717C492.796 485.069 490.972 483.653 488.38 483.653C486.316 483.653 484.924 484.685 484.348 485.861V483.869H482.356V496.421ZM501.428 496.637C503.252 496.637 505.004 495.485 505.724 494.261V496.421H507.716V477.869H505.724V485.885C505.004 484.661 503.708 483.653 501.62 483.653C498.164 483.653 495.764 486.365 495.764 490.205V490.397C495.764 494.309 498.14 496.637 501.428 496.637ZM501.644 494.981C499.532 494.981 497.828 493.469 497.828 490.301V490.109C497.828 487.061 499.316 485.309 501.812 485.309C504.26 485.309 505.796 486.821 505.796 490.037V490.229C505.796 493.445 503.972 494.981 501.644 494.981ZM518.098 500.789H520.09V494.357C520.81 495.605 522.274 496.637 524.338 496.637C527.794 496.637 530.05 493.997 530.05 490.157V489.965C530.05 486.053 527.626 483.653 524.338 483.653C522.514 483.653 520.81 484.757 520.09 485.981V483.869H518.098V500.789ZM524.146 494.981C521.698 494.981 520.018 493.469 520.018 490.253V490.061C520.018 486.845 521.794 485.309 524.122 485.309C526.234 485.309 527.986 486.893 527.986 490.061V490.253C527.986 493.301 526.642 494.981 524.146 494.981ZM536.289 496.637C538.137 496.637 539.265 496.013 540.201 494.837V496.421H542.193V488.141C542.193 484.637 540.009 483.653 537.609 483.653C535.185 483.653 532.905 484.709 532.641 487.565H534.633C534.825 486.029 535.785 485.309 537.513 485.309C539.433 485.309 540.201 486.149 540.201 488.141V489.053H538.401C535.185 489.053 532.113 490.037 532.113 492.941C532.113 495.509 533.961 496.637 536.289 496.637ZM536.481 495.053C534.729 495.053 534.105 494.237 534.105 492.941C534.105 491.093 535.953 490.469 538.473 490.469H540.201V492.029C540.201 493.973 538.593 495.053 536.481 495.053ZM551.122 501.005C554.626 501.005 557.098 499.229 557.122 495.581V483.869H555.13V485.885C554.41 484.661 553.114 483.653 551.026 483.653C547.57 483.653 545.17 486.485 545.17 489.893V490.061C545.17 493.517 547.594 496.013 550.882 496.013C552.706 496.013 554.41 494.861 555.13 493.637V495.461C555.13 498.149 553.57 499.325 551.098 499.325C548.962 499.325 547.762 498.581 547.474 497.141H545.434C545.77 499.253 547.402 501.005 551.122 501.005ZM551.098 494.357C548.986 494.357 547.234 492.725 547.234 489.989V489.797C547.234 487.157 548.722 485.309 551.218 485.309C553.666 485.309 555.202 486.941 555.202 489.749V489.917C555.202 492.725 553.426 494.357 551.098 494.357ZM566.289 496.637C569.121 496.637 571.209 495.317 571.641 492.797H569.649C569.385 494.261 568.257 494.981 566.313 494.981C563.745 494.981 562.377 493.397 562.281 490.541H571.737V489.893C571.737 485.405 569.001 483.653 566.097 483.653C562.641 483.653 560.217 486.293 560.217 490.085V490.277C560.217 494.141 562.737 496.637 566.289 496.637ZM562.353 488.933C562.689 486.701 564.057 485.309 566.097 485.309C568.161 485.309 569.505 486.341 569.697 488.933H562.353ZM586.377 494.981C583.833 494.981 582.273 493.109 582.273 490.253V490.061C582.273 487.181 583.857 485.309 586.377 485.309C588.873 485.309 590.481 487.181 590.481 490.085V490.253C590.481 493.085 588.897 494.981 586.377 494.981ZM586.353 496.637C589.929 496.637 592.545 494.021 592.545 490.229V490.037C592.545 486.269 589.929 483.653 586.377 483.653C582.825 483.653 580.209 486.293 580.209 490.061V490.253C580.209 493.925 582.777 496.637 586.353 496.637ZM596.061 496.421H598.053V485.549H601.125V483.869H598.053V481.613C598.053 480.341 598.581 479.453 599.877 479.453C600.429 479.453 600.933 479.573 601.293 479.717V478.037C600.789 477.869 600.453 477.797 599.805 477.797C597.309 477.797 596.061 479.285 596.061 481.829V483.869H594.261V485.549H596.061V496.421ZM614.166 496.637C617.214 496.637 618.774 495.101 618.774 492.821C618.774 490.157 616.95 489.581 614.358 489.101C612.054 488.693 611.43 488.237 611.43 487.109C611.43 486.029 612.366 485.309 613.806 485.309C615.39 485.309 616.158 485.909 616.446 487.277H618.366C618.03 484.565 616.086 483.653 613.83 483.653C611.862 483.653 609.582 484.853 609.582 487.181C609.582 489.365 610.686 490.277 613.95 490.877C615.894 491.237 616.878 491.669 616.878 492.989C616.878 494.333 616.038 494.981 614.142 494.981C612.126 494.981 611.334 494.045 611.19 492.557H609.246C609.366 495.125 611.166 496.637 614.166 496.637ZM621.857 496.421H623.849V483.869H621.857V496.421ZM622.817 481.253C623.537 481.253 624.137 480.653 624.137 479.933C624.137 479.213 623.537 478.613 622.817 478.613C622.097 478.613 621.497 479.213 621.497 479.933C621.497 480.653 622.097 481.253 622.817 481.253ZM632.942 501.005C636.446 501.005 638.918 499.229 638.942 495.581V483.869H636.95V485.885C636.23 484.661 634.934 483.653 632.846 483.653C629.39 483.653 626.99 486.485 626.99 489.893V490.061C626.99 493.517 629.414 496.013 632.702 496.013C634.526 496.013 636.23 494.861 636.95 493.637V495.461C636.95 498.149 635.39 499.325 632.918 499.325C630.782 499.325 629.582 498.581 629.294 497.141H627.254C627.59 499.253 629.222 501.005 632.942 501.005ZM632.918 494.357C630.806 494.357 629.054 492.725 629.054 489.989V489.797C629.054 487.157 630.542 485.309 633.038 485.309C635.486 485.309 637.022 486.941 637.022 489.749V489.917C637.022 492.725 635.246 494.357 632.918 494.357ZM642.973 496.421H644.965V488.813C644.965 486.557 646.621 485.381 648.469 485.381C650.485 485.381 651.421 486.365 651.421 488.573V496.421H653.413V488.717C653.413 485.069 651.589 483.653 648.997 483.653C646.933 483.653 645.541 484.685 644.965 485.861V483.869H642.973V496.421ZM667.916 496.637C669.932 496.637 671.324 495.605 671.9 494.429V496.421H673.892V483.869H671.9V491.477C671.9 493.733 670.22 494.909 668.444 494.909C666.476 494.909 665.54 493.925 665.54 491.717V483.869H663.548V491.813C663.548 495.269 665.42 496.637 667.916 496.637ZM677.918 500.789H679.91V494.357C680.63 495.605 682.094 496.637 684.158 496.637C687.614 496.637 689.87 493.997 689.87 490.157V489.965C689.87 486.053 687.446 483.653 684.158 483.653C682.334 483.653 680.63 484.757 679.91 485.981V483.869H677.918V500.789ZM683.966 494.981C681.518 494.981 679.838 493.469 679.838 490.253V490.061C679.838 486.845 681.614 485.309 683.942 485.309C686.054 485.309 687.806 486.893 687.806 490.061V490.253C687.806 493.301 686.462 494.981 683.966 494.981Z" fill="#4F4F4F"/>
<rect x="806" y="320" width="153" height="123" fill="#CAE1E1"/>
<path d="M765.656 497.158C769.496 497.158 772.232 495.214 772.832 491.254H770.888C770.456 494.038 768.512 495.454 765.704 495.454C762.008 495.454 759.8 492.814 759.8 488.446V488.254C759.8 483.934 762.176 481.174 765.728 481.174C768.656 481.174 770.168 482.518 770.6 485.134H772.664C772.304 481.414 769.28 479.518 765.704 479.518C761.048 479.518 757.64 483.19 757.64 488.278V488.47C757.64 493.75 760.688 497.158 765.656 497.158ZM781.1 495.502C778.556 495.502 776.996 493.63 776.996 490.774V490.582C776.996 487.702 778.58 485.83 781.1 485.83C783.596 485.83 785.204 487.702 785.204 490.606V490.774C785.204 493.606 783.62 495.502 781.1 495.502ZM781.076 497.158C784.652 497.158 787.268 494.542 787.268 490.75V490.558C787.268 486.79 784.652 484.174 781.1 484.174C777.548 484.174 774.932 486.814 774.932 490.582V490.774C774.932 494.446 777.5 497.158 781.076 497.158ZM790.352 496.942H792.344V489.262C792.344 487.006 794.024 485.902 795.656 485.902C797.384 485.902 798.32 486.814 798.32 489.022V496.942H800.312V489.262C800.312 487.006 801.992 485.902 803.624 485.902C805.352 485.902 806.288 486.814 806.288 489.022V496.942H808.28V489.166C808.28 485.518 806.312 484.174 804.056 484.174C802.496 484.174 800.624 484.894 799.76 486.526C799.112 484.846 797.696 484.174 796.088 484.174C794.288 484.174 792.92 485.134 792.344 486.31V484.39H790.352V496.942ZM812.196 501.31H814.188V494.878C814.908 496.126 816.372 497.158 818.436 497.158C821.892 497.158 824.148 494.518 824.148 490.678V490.486C824.148 486.574 821.724 484.174 818.436 484.174C816.612 484.174 814.908 485.278 814.188 486.502V484.39H812.196V501.31ZM818.244 495.502C815.796 495.502 814.116 493.99 814.116 490.774V490.582C814.116 487.366 815.892 485.83 818.22 485.83C820.332 485.83 822.084 487.414 822.084 490.582V490.774C822.084 493.822 820.74 495.502 818.244 495.502ZM827.291 496.942H829.307V478.39H827.291V496.942ZM838.519 497.158C841.351 497.158 843.439 495.838 843.871 493.318H841.879C841.615 494.782 840.487 495.502 838.543 495.502C835.975 495.502 834.607 493.918 834.511 491.062H843.967V490.414C843.967 485.926 841.231 484.174 838.327 484.174C834.871 484.174 832.447 486.814 832.447 490.606V490.798C832.447 494.662 834.967 497.158 838.519 497.158ZM834.583 489.454C834.919 487.222 836.287 485.83 838.327 485.83C840.391 485.83 841.735 486.862 841.927 489.454H834.583ZM850.84 497.11C851.656 497.11 852.136 496.99 852.544 496.846V495.166C852.112 495.334 851.632 495.43 851.008 495.43C850 495.43 849.448 494.83 849.448 493.606V486.07H852.376V484.39H849.448V481.534H847.456V484.39H845.656V486.07H847.456V493.798C847.456 495.766 848.56 497.11 850.84 497.11ZM860.691 497.158C863.523 497.158 865.611 495.838 866.043 493.318H864.051C863.787 494.782 862.659 495.502 860.715 495.502C858.147 495.502 856.779 493.918 856.683 491.062H866.139V490.414C866.139 485.926 863.403 484.174 860.499 484.174C857.043 484.174 854.619 486.814 854.619 490.606V490.798C854.619 494.662 857.139 497.158 860.691 497.158ZM856.755 489.454C857.091 487.222 858.459 485.83 860.499 485.83C862.563 485.83 863.907 486.862 864.099 489.454H856.755ZM873.924 497.158C875.748 497.158 877.5 496.006 878.22 494.782V496.942H880.212V478.39H878.22V486.406C877.5 485.182 876.204 484.174 874.116 484.174C870.66 484.174 868.26 486.886 868.26 490.726V490.918C868.26 494.83 870.636 497.158 873.924 497.158ZM874.14 495.502C872.028 495.502 870.324 493.99 870.324 490.822V490.63C870.324 487.582 871.812 485.83 874.308 485.83C876.756 485.83 878.292 487.342 878.292 490.558V490.75C878.292 493.966 876.468 495.502 874.14 495.502ZM893.21 496.942H895.298V479.782H893.354L889.37 482.662V484.606L893.21 481.846V496.942ZM903.516 494.422H905.268V489.574H909.756V487.894H905.268V483.046H903.516V487.894H899.028V489.574H903.516V494.422ZM918.977 501.31H920.969V494.878C921.689 496.126 923.153 497.158 925.217 497.158C928.673 497.158 930.929 494.518 930.929 490.678V490.486C930.929 486.574 928.505 484.174 925.217 484.174C923.393 484.174 921.689 485.278 920.969 486.502V484.39H918.977V501.31ZM925.025 495.502C922.577 495.502 920.897 493.99 920.897 490.774V490.582C920.897 487.366 922.673 485.83 925.001 485.83C927.113 485.83 928.865 487.414 928.865 490.582V490.774C928.865 493.822 927.521 495.502 925.025 495.502ZM934.024 496.942H936.016V490.054C936.016 486.958 937.624 486.166 940.144 486.046V484.174C937.888 484.246 936.808 485.23 936.016 486.646V484.39H934.024V496.942ZM947.928 495.502C945.384 495.502 943.824 493.63 943.824 490.774V490.582C943.824 487.702 945.408 485.83 947.928 485.83C950.424 485.83 952.032 487.702 952.032 490.606V490.774C952.032 493.606 950.448 495.502 947.928 495.502ZM947.904 497.158C951.48 497.158 954.096 494.542 954.096 490.75V490.558C954.096 486.79 951.48 484.174 947.928 484.174C944.376 484.174 941.76 486.814 941.76 490.582V490.774C941.76 494.446 944.328 497.158 947.904 497.158ZM961.908 497.158C963.732 497.158 965.484 496.006 966.204 494.782V496.942H968.196V478.39H966.204V486.406C965.484 485.182 964.188 484.174 962.1 484.174C958.644 484.174 956.244 486.886 956.244 490.726V490.918C956.244 494.83 958.62 497.158 961.908 497.158ZM962.124 495.502C960.012 495.502 958.308 493.99 958.308 490.822V490.63C958.308 487.582 959.796 485.83 962.292 485.83C964.74 485.83 966.276 487.342 966.276 490.558V490.75C966.276 493.966 964.452 495.502 962.124 495.502ZM976.475 497.158C978.491 497.158 979.883 496.126 980.459 494.95V496.942H982.451V484.39H980.459V491.998C980.459 494.254 978.779 495.43 977.003 495.43C975.035 495.43 974.099 494.446 974.099 492.238V484.39H972.107V492.334C972.107 495.79 973.979 497.158 976.475 497.158ZM991.685 497.158C994.709 497.158 996.893 495.142 997.157 492.43H995.309C995.093 494.47 993.485 495.502 991.709 495.502C989.285 495.502 987.605 493.87 987.605 490.798V490.606C987.605 487.654 989.357 485.83 991.637 485.83C993.365 485.83 994.805 486.574 995.117 488.566H997.085C996.701 485.374 994.253 484.174 991.637 484.174C988.277 484.174 985.541 486.766 985.541 490.606V490.798C985.541 494.686 988.181 497.158 991.685 497.158ZM1003.98 497.11C1004.8 497.11 1005.28 496.99 1005.68 496.846V495.166C1005.25 495.334 1004.77 495.43 1004.15 495.43C1003.14 495.43 1002.59 494.83 1002.59 493.606V486.07H1005.52V484.39H1002.59V481.534H1000.6V484.39H998.796V486.07H1000.6V493.798C1000.6 495.766 1001.7 497.11 1003.98 497.11Z" fill="#4F4F4F"/>
<path d="M363.612 57.6444C362.812 57.8585 362.337 58.6808 362.551 59.481C362.765 60.2813 363.587 60.7566 364.388 60.5425L363.612 57.6444ZM502.403 113.376C503.163 113.706 504.046 113.357 504.376 112.597L509.751 100.213C510.08 99.4532 509.732 98.5698 508.972 98.24C508.212 97.9102 507.328 98.2589 506.999 99.0188L502.221 110.027L491.213 105.249C490.453 104.92 489.57 105.268 489.24 106.028C488.91 106.788 489.259 107.672 490.019 108.001L502.403 113.376ZM364.388 60.5425C382.017 55.827 410.079 52.7898 436.868 58.9908C463.605 65.1798 488.967 80.5318 501.605 112.551L504.395 111.449C491.304 78.2812 464.972 62.417 437.544 56.0681C410.169 49.7311 381.596 52.8342 363.612 57.6444L364.388 60.5425Z" fill="#4F4F4F"/>
<path d="M670.512 126.926C669.688 127.013 669.091 127.752 669.179 128.576C669.266 129.4 670.005 129.997 670.829 129.909L670.512 126.926ZM833.913 240.715C834.578 241.209 835.518 241.069 836.011 240.404L844.053 229.56C844.546 228.895 844.407 227.955 843.741 227.462C843.076 226.968 842.136 227.108 841.643 227.773L834.495 237.412L824.856 230.264C824.191 229.771 823.251 229.91 822.758 230.576C822.264 231.241 822.404 232.18 823.069 232.674L833.913 240.715ZM670.829 129.909C694.852 127.356 731.838 129.809 764.63 145.425C797.346 161.006 825.895 189.679 833.323 239.731L836.29 239.29C828.695 188.11 799.402 158.662 765.92 142.717C732.512 126.807 694.942 124.33 670.512 126.926L670.829 129.909Z" fill="#4F4F4F"/>
</svg>
