<svg width="736" height="566" viewBox="0 0 736 566" fill="none" xmlns="http://www.w3.org/2000/svg">
<g clip-path="url(#clip0_134_73123)">
<rect x="144" y="36" width="447" height="494" fill="#F2F2F2"/>
<rect x="458" y="94" width="88" height="20" fill="#2F80ED"/>
<path d="M186.136 109H190.104C193.432 109 195.688 106.808 195.688 103.672C195.688 100.536 193.432 98.328 190.104 98.328H186.136V109ZM188.008 107.352V99.976H190.104C192.488 99.976 193.768 101.608 193.768 103.672C193.768 105.688 192.424 107.352 190.104 107.352H188.008ZM198.359 99.992C198.935 99.992 199.399 99.528 199.399 98.952C199.399 98.376 198.935 97.912 198.359 97.912C197.799 97.912 197.319 98.376 197.319 98.952C197.319 99.528 197.799 99.992 198.359 99.992ZM197.527 109H199.207V101.272H197.527V109ZM200.795 107.992C201.595 108.776 202.795 109.192 204.107 109.192C206.187 109.192 207.323 108.152 207.323 106.792C207.323 104.968 205.675 104.584 204.331 104.296C203.419 104.088 202.651 103.88 202.651 103.288C202.651 102.744 203.211 102.424 204.091 102.424C205.051 102.424 205.915 102.824 206.379 103.352L207.083 102.168C206.379 101.544 205.387 101.08 204.075 101.08C202.123 101.08 201.035 102.168 201.035 103.432C201.035 105.16 202.619 105.512 203.947 105.8C204.891 106.008 205.707 106.248 205.707 106.92C205.707 107.496 205.195 107.864 204.187 107.864C203.179 107.864 202.107 107.336 201.563 106.776L200.795 107.992ZM210.774 111.944V107.928C211.398 108.76 212.278 109.192 213.254 109.192C215.254 109.192 216.678 107.672 216.678 105.128C216.678 102.584 215.254 101.08 213.254 101.08C212.246 101.08 211.35 101.56 210.774 102.328V101.272H209.094V111.944H210.774ZM214.934 105.128C214.934 106.632 214.086 107.704 212.758 107.704C211.974 107.704 211.142 107.224 210.774 106.664V103.608C211.142 103.032 211.974 102.568 212.758 102.568C214.086 102.568 214.934 103.64 214.934 105.128ZM223.671 109H225.351V101.272H223.671V106.696C223.271 107.224 222.535 107.704 221.687 107.704C220.743 107.704 220.135 107.336 220.135 106.136V101.272H218.455V106.744C218.455 108.328 219.271 109.192 220.935 109.192C222.151 109.192 223.111 108.6 223.671 107.976V109ZM229.933 109.192C230.717 109.192 231.213 108.984 231.517 108.696L231.117 107.432C230.989 107.576 230.685 107.704 230.365 107.704C229.885 107.704 229.629 107.32 229.629 106.792V102.744H231.197V101.272H229.629V99.16H227.949V101.272H226.669V102.744H227.949V107.208C227.949 108.488 228.637 109.192 229.933 109.192ZM232.322 105.128C232.322 107.576 234.05 109.192 236.37 109.192C237.602 109.192 238.738 108.808 239.506 108.072L238.738 106.968C238.194 107.512 237.298 107.816 236.546 107.816C235.09 107.816 234.21 106.856 234.082 105.688H240.05V105.288C240.05 102.856 238.562 101.08 236.242 101.08C233.954 101.08 232.322 102.888 232.322 105.128ZM236.242 102.456C237.762 102.456 238.386 103.592 238.418 104.504H234.066C234.146 103.56 234.802 102.456 236.242 102.456ZM246.81 99.992C247.386 99.992 247.85 99.528 247.85 98.952C247.85 98.376 247.386 97.912 246.81 97.912C246.25 97.912 245.77 98.376 245.77 98.952C245.77 99.528 246.25 99.992 246.81 99.992ZM245.978 109H247.658V101.272H245.978V109ZM255.133 109H256.813V103.56C256.813 101.976 255.981 101.08 254.317 101.08C253.101 101.08 252.109 101.72 251.597 102.328V101.272H249.917V109H251.597V103.608C251.981 103.08 252.717 102.568 253.581 102.568C254.525 102.568 255.133 102.968 255.133 104.168V109ZM259.476 109H261.156V102.744H262.724V101.272H261.156V100.84C261.156 99.976 261.572 99.544 262.228 99.544C262.468 99.544 262.708 99.592 262.9 99.704L263.268 98.472C262.932 98.28 262.452 98.168 261.924 98.168C260.5 98.168 259.476 99.112 259.476 100.84V101.272H258.196V102.744H259.476V109ZM264.077 109H265.757V103.736C266.093 103.192 267.037 102.712 267.741 102.712C267.949 102.712 268.125 102.728 268.269 102.76V101.096C267.261 101.096 266.333 101.672 265.757 102.408V101.272H264.077V109ZM274.424 109H276.104V103.88C276.104 101.8 274.6 101.08 272.888 101.08C271.656 101.08 270.536 101.48 269.64 102.328L270.328 103.496C271 102.84 271.752 102.52 272.616 102.52C273.688 102.52 274.424 103.064 274.424 103.96V105.112C273.864 104.456 272.968 104.12 271.928 104.12C270.664 104.12 269.24 104.856 269.24 106.632C269.24 108.344 270.664 109.192 271.928 109.192C272.952 109.192 273.848 108.824 274.424 108.168V109ZM274.424 107.24C274.04 107.768 273.32 108.04 272.584 108.04C271.64 108.04 270.936 107.496 270.936 106.664C270.936 105.816 271.64 105.272 272.584 105.272C273.32 105.272 274.04 105.544 274.424 106.072V107.24ZM277.882 105.128C277.882 107.48 279.53 109.192 281.882 109.192C283.386 109.192 284.298 108.552 284.842 107.816L283.738 106.792C283.306 107.384 282.714 107.704 281.962 107.704C280.554 107.704 279.626 106.632 279.626 105.128C279.626 103.624 280.554 102.568 281.962 102.568C282.714 102.568 283.306 102.872 283.738 103.48L284.842 102.456C284.298 101.72 283.386 101.08 281.882 101.08C279.53 101.08 277.882 102.792 277.882 105.128ZM288.716 109.192C289.5 109.192 289.996 108.984 290.3 108.696L289.9 107.432C289.772 107.576 289.468 107.704 289.148 107.704C288.668 107.704 288.412 107.32 288.412 106.792V102.744H289.98V101.272H288.412V99.16H286.732V101.272H285.452V102.744H286.732V107.208C286.732 108.488 287.42 109.192 288.716 109.192ZM292.417 99.992C292.993 99.992 293.457 99.528 293.457 98.952C293.457 98.376 292.993 97.912 292.417 97.912C291.857 97.912 291.377 98.376 291.377 98.952C291.377 99.528 291.857 99.992 292.417 99.992ZM291.585 109H293.265V101.272H291.585V109ZM299.012 109.192C301.492 109.192 302.996 107.352 302.996 105.128C302.996 102.92 301.492 101.08 299.012 101.08C296.564 101.08 295.044 102.92 295.044 105.128C295.044 107.352 296.564 109.192 299.012 109.192ZM299.012 107.704C297.588 107.704 296.788 106.504 296.788 105.128C296.788 103.768 297.588 102.568 299.012 102.568C300.452 102.568 301.252 103.768 301.252 105.128C301.252 106.504 300.452 107.704 299.012 107.704ZM309.992 109H311.672V103.56C311.672 101.976 310.84 101.08 309.176 101.08C307.96 101.08 306.968 101.72 306.456 102.328V101.272H304.776V109H306.456V103.608C306.84 103.08 307.576 102.568 308.44 102.568C309.384 102.568 309.992 102.968 309.992 104.168V109Z" fill="#333333"/>
<rect x="185" y="139" width="361" height="333" fill="#E0E0E0"/>
<path d="M208.248 178H209.576V167.328H208.248V178ZM212.444 178H213.644V171.328H215.212V170.272H213.644V169.68C213.644 168.704 214.076 168.16 214.86 168.16C215.132 168.16 215.356 168.224 215.548 168.336L215.852 167.44C215.548 167.248 215.132 167.168 214.684 167.168C213.34 167.168 212.444 168.08 212.444 169.68V170.272H211.164V171.328H212.444V178ZM220.684 179.936L220.492 181.024C220.716 181.088 221.116 181.136 221.372 181.136C222.396 181.12 223.18 180.688 223.644 179.568L227.516 170.272H226.204L223.644 176.608L221.068 170.272H219.772L223.004 178.08L222.492 179.248C222.22 179.888 221.868 180.064 221.34 180.064C221.148 180.064 220.86 180.016 220.684 179.936ZM232.224 178.192C234.576 178.192 236.048 176.368 236.048 174.128C236.048 171.888 234.576 170.08 232.224 170.08C229.872 170.08 228.4 171.888 228.4 174.128C228.4 176.368 229.872 178.192 232.224 178.192ZM232.224 177.12C230.576 177.12 229.648 175.712 229.648 174.128C229.648 172.56 230.576 171.152 232.224 171.152C233.872 171.152 234.784 172.56 234.784 174.128C234.784 175.712 233.872 177.12 232.224 177.12ZM243.3 178H244.5V170.272H243.3V175.952C242.852 176.576 241.956 177.12 241.012 177.12C239.972 177.12 239.284 176.72 239.284 175.36V170.272H238.084V175.728C238.084 177.408 238.932 178.192 240.548 178.192C241.7 178.192 242.708 177.584 243.3 176.912V178ZM251.182 178H252.382V176.848C252.958 177.632 253.902 178.192 254.99 178.192C257.006 178.192 258.43 176.656 258.43 174.144C258.43 171.68 257.006 170.08 254.99 170.08C253.934 170.08 253.006 170.592 252.382 171.44V167.328H251.182V178ZM252.382 175.904V172.4C252.798 171.728 253.742 171.152 254.686 171.152C256.254 171.152 257.182 172.432 257.182 174.144C257.182 175.856 256.254 177.12 254.686 177.12C253.742 177.12 252.798 176.576 252.382 175.904ZM260.017 174.128C260.017 176.544 261.665 178.192 263.953 178.192C265.217 178.192 266.257 177.776 267.025 177.008L266.449 176.224C265.841 176.848 264.945 177.2 264.065 177.2C262.401 177.2 261.377 175.984 261.281 174.528H267.537V174.224C267.537 171.904 266.161 170.08 263.825 170.08C261.617 170.08 260.017 171.888 260.017 174.128ZM263.809 171.072C265.569 171.072 266.337 172.496 266.353 173.648H261.281C261.345 172.464 262.161 171.072 263.809 171.072ZM269.561 178H270.761V167.328H269.561V178ZM273.826 168.976C274.274 168.976 274.642 168.608 274.642 168.16C274.642 167.712 274.274 167.36 273.826 167.36C273.394 167.36 273.026 167.712 273.026 168.16C273.026 168.608 273.394 168.976 273.826 168.976ZM273.234 178H274.434V170.272H273.234V178ZM276.46 174.128C276.46 176.544 278.108 178.192 280.396 178.192C281.66 178.192 282.7 177.776 283.468 177.008L282.892 176.224C282.284 176.848 281.388 177.2 280.508 177.2C278.844 177.2 277.82 175.984 277.724 174.528H283.98V174.224C283.98 171.904 282.604 170.08 280.268 170.08C278.06 170.08 276.46 171.888 276.46 174.128ZM280.252 171.072C282.012 171.072 282.78 172.496 282.796 173.648H277.724C277.788 172.464 278.604 171.072 280.252 171.072ZM288.068 178H289.38L292.596 170.272H291.284L288.724 176.608L286.148 170.272H284.852L288.068 178ZM293.48 174.128C293.48 176.544 295.128 178.192 297.416 178.192C298.68 178.192 299.72 177.776 300.488 177.008L299.912 176.224C299.304 176.848 298.408 177.2 297.528 177.2C295.864 177.2 294.84 175.984 294.744 174.528H301V174.224C301 171.904 299.624 170.08 297.288 170.08C295.08 170.08 293.48 171.888 293.48 174.128ZM297.272 171.072C299.032 171.072 299.8 172.496 299.816 173.648H294.744C294.808 172.464 295.624 171.072 297.272 171.072ZM309.18 178.192C309.884 178.192 310.316 177.984 310.62 177.696L310.268 176.8C310.108 176.976 309.788 177.12 309.452 177.12C308.924 177.12 308.668 176.704 308.668 176.128V171.328H310.236V170.272H308.668V168.16H307.468V170.272H306.188V171.328H307.468V176.384C307.468 177.536 308.044 178.192 309.18 178.192ZM317.243 178H318.443V172.544C318.443 170.864 317.595 170.08 315.979 170.08C314.811 170.08 313.755 170.752 313.211 171.392V167.328H312.011V178H313.211V172.352C313.675 171.728 314.571 171.152 315.499 171.152C316.539 171.152 317.243 171.552 317.243 172.912V178ZM321.511 168.976C321.959 168.976 322.327 168.608 322.327 168.16C322.327 167.712 321.959 167.36 321.511 167.36C321.079 167.36 320.711 167.712 320.711 168.16C320.711 168.608 321.079 168.976 321.511 168.976ZM320.919 178H322.119V170.272H320.919V178ZM323.921 176.976C324.705 177.808 325.777 178.192 327.041 178.192C329.041 178.192 330.081 177.152 330.081 175.856C330.081 174.144 328.529 173.76 327.185 173.456C326.177 173.216 325.297 172.976 325.297 172.224C325.297 171.536 325.953 171.056 327.009 171.056C328.001 171.056 328.849 171.472 329.313 172.032L329.873 171.2C329.249 170.576 328.321 170.08 327.009 170.08C325.169 170.08 324.129 171.104 324.129 172.304C324.129 173.904 325.617 174.256 326.929 174.56C327.969 174.816 328.913 175.088 328.913 175.936C328.913 176.688 328.273 177.216 327.089 177.216C326.033 177.216 325.057 176.704 324.545 176.112L323.921 176.976ZM336.908 168.976C337.356 168.976 337.724 168.608 337.724 168.16C337.724 167.712 337.356 167.36 336.908 167.36C336.476 167.36 336.108 167.712 336.108 168.16C336.108 168.608 336.476 168.976 336.908 168.976ZM336.316 178H337.516V170.272H336.316V178ZM345.205 178H346.405V172.576C346.405 170.896 345.557 170.08 343.941 170.08C342.789 170.08 341.733 170.752 341.189 171.392V170.272H339.989V178H341.189V172.352C341.637 171.728 342.533 171.152 343.477 171.152C344.517 171.152 345.205 171.584 345.205 172.944V178ZM349.218 178H350.418V171.328H351.986V170.272H350.418V169.68C350.418 168.704 350.85 168.16 351.634 168.16C351.906 168.16 352.13 168.224 352.322 168.336L352.626 167.44C352.322 167.248 351.906 167.168 351.458 167.168C350.114 167.168 349.218 168.08 349.218 169.68V170.272H347.938V171.328H349.218V178ZM353.493 178H354.693V172.528C355.045 171.904 356.053 171.296 356.789 171.296C356.981 171.296 357.125 171.312 357.269 171.344V170.112C356.213 170.112 355.317 170.704 354.693 171.52V170.272H353.493V178ZM363.686 178H364.886V172.688C364.886 170.816 363.526 170.08 361.894 170.08C360.63 170.08 359.638 170.496 358.806 171.36L359.366 172.192C360.054 171.456 360.806 171.12 361.734 171.12C362.854 171.12 363.686 171.712 363.686 172.752V174.144C363.062 173.424 362.182 173.088 361.126 173.088C359.814 173.088 358.422 173.904 358.422 175.632C358.422 177.312 359.814 178.192 361.126 178.192C362.166 178.192 363.046 177.824 363.686 177.12V178ZM363.686 176.368C363.222 177.008 362.406 177.328 361.558 177.328C360.438 177.328 359.654 176.624 359.654 175.648C359.654 174.656 360.438 173.952 361.558 173.952C362.406 173.952 363.222 174.272 363.686 174.912V176.368ZM366.924 174.128C366.924 176.432 368.476 178.192 370.78 178.192C372.188 178.192 373.02 177.616 373.612 176.848L372.812 176.112C372.3 176.8 371.644 177.12 370.844 177.12C369.196 177.12 368.172 175.84 368.172 174.128C368.172 172.416 369.196 171.152 370.844 171.152C371.644 171.152 372.3 171.456 372.812 172.16L373.612 171.424C373.02 170.656 372.188 170.08 370.78 170.08C368.476 170.08 366.924 171.84 366.924 174.128ZM377.326 178.192C378.03 178.192 378.462 177.984 378.766 177.696L378.414 176.8C378.254 176.976 377.934 177.12 377.598 177.12C377.07 177.12 376.814 176.704 376.814 176.128V171.328H378.382V170.272H376.814V168.16H375.614V170.272H374.334V171.328H375.614V176.384C375.614 177.536 376.19 178.192 377.326 178.192ZM380.749 168.976C381.197 168.976 381.565 168.608 381.565 168.16C381.565 167.712 381.197 167.36 380.749 167.36C380.317 167.36 379.949 167.712 379.949 168.16C379.949 168.608 380.317 168.976 380.749 168.976ZM380.157 178H381.357V170.272H380.157V178ZM387.207 178.192C389.559 178.192 391.031 176.368 391.031 174.128C391.031 171.888 389.559 170.08 387.207 170.08C384.855 170.08 383.383 171.888 383.383 174.128C383.383 176.368 384.855 178.192 387.207 178.192ZM387.207 177.12C385.559 177.12 384.631 175.712 384.631 174.128C384.631 172.56 385.559 171.152 387.207 171.152C388.855 171.152 389.767 172.56 389.767 174.128C389.767 175.712 388.855 177.12 387.207 177.12ZM398.283 178H399.483V172.576C399.483 170.896 398.635 170.08 397.019 170.08C395.867 170.08 394.811 170.752 394.267 171.392V170.272H393.067V178H394.267V172.352C394.715 171.728 395.611 171.152 396.555 171.152C397.595 171.152 398.283 171.584 398.283 172.944V178ZM412.852 178H414.052L416.516 170.272H415.268L413.38 176.432L411.348 170.272H410.324L408.292 176.432L406.404 170.272H405.156L407.62 178H408.82L410.836 171.792L412.852 178ZM422.826 178H424.026V172.688C424.026 170.816 422.666 170.08 421.034 170.08C419.77 170.08 418.778 170.496 417.946 171.36L418.506 172.192C419.194 171.456 419.946 171.12 420.874 171.12C421.994 171.12 422.826 171.712 422.826 172.752V174.144C422.202 173.424 421.322 173.088 420.266 173.088C418.954 173.088 417.562 173.904 417.562 175.632C417.562 177.312 418.954 178.192 420.266 178.192C421.306 178.192 422.186 177.824 422.826 177.12V178ZM422.826 176.368C422.362 177.008 421.546 177.328 420.698 177.328C419.578 177.328 418.794 176.624 418.794 175.648C418.794 174.656 419.578 173.952 420.698 173.952C421.546 173.952 422.362 174.272 422.826 174.912V176.368ZM425.84 176.976C426.624 177.808 427.696 178.192 428.96 178.192C430.96 178.192 432 177.152 432 175.856C432 174.144 430.448 173.76 429.104 173.456C428.096 173.216 427.216 172.976 427.216 172.224C427.216 171.536 427.872 171.056 428.928 171.056C429.92 171.056 430.768 171.472 431.232 172.032L431.792 171.2C431.168 170.576 430.24 170.08 428.928 170.08C427.088 170.08 426.048 171.104 426.048 172.304C426.048 173.904 427.536 174.256 428.848 174.56C429.888 174.816 430.832 175.088 430.832 175.936C430.832 176.688 430.192 177.216 429.008 177.216C427.952 177.216 426.976 176.704 426.464 176.112L425.84 176.976ZM444.922 178H446.122L448.586 170.272H447.338L445.45 176.432L443.418 170.272H442.394L440.362 176.432L438.474 170.272H437.226L439.69 178H440.89L442.906 171.792L444.922 178ZM450.064 178H451.264V172.528C451.616 171.904 452.624 171.296 453.36 171.296C453.552 171.296 453.696 171.312 453.84 171.344V170.112C452.784 170.112 451.888 170.704 451.264 171.52V170.272H450.064V178ZM458.802 178.192C461.154 178.192 462.626 176.368 462.626 174.128C462.626 171.888 461.154 170.08 458.802 170.08C456.45 170.08 454.978 171.888 454.978 174.128C454.978 176.368 456.45 178.192 458.802 178.192ZM458.802 177.12C457.154 177.12 456.226 175.712 456.226 174.128C456.226 172.56 457.154 171.152 458.802 171.152C460.45 171.152 461.362 172.56 461.362 174.128C461.362 175.712 460.45 177.12 458.802 177.12ZM469.878 178H471.078V172.576C471.078 170.896 470.23 170.08 468.614 170.08C467.462 170.08 466.406 170.752 465.862 171.392V170.272H464.662V178H465.862V172.352C466.31 171.728 467.206 171.152 468.15 171.152C469.19 171.152 469.878 171.584 469.878 172.944V178ZM473.538 179.984C474.45 180.88 475.346 181.136 476.658 181.136C478.546 181.136 480.338 180.336 480.338 177.776V170.272H479.138V171.44C478.514 170.592 477.586 170.08 476.546 170.08C474.514 170.08 473.106 171.616 473.106 174.096C473.106 176.592 474.53 178.096 476.546 178.096C477.634 178.096 478.578 177.504 479.138 176.72V177.824C479.138 179.52 477.938 180.144 476.658 180.144C475.554 180.144 474.786 179.856 474.146 179.088L473.538 179.984ZM479.138 175.776C478.722 176.448 477.794 177.04 476.834 177.04C475.282 177.04 474.354 175.792 474.354 174.096C474.354 172.384 475.282 171.152 476.834 171.152C477.794 171.152 478.722 171.728 479.138 172.4V175.776ZM483.158 178H484.358V171.328H485.926V170.272H484.358V169.68C484.358 168.704 484.79 168.16 485.574 168.16C485.846 168.16 486.07 168.224 486.262 168.336L486.566 167.44C486.262 167.248 485.846 167.168 485.398 167.168C484.054 167.168 483.158 168.08 483.158 169.68V170.272H481.878V171.328H483.158V178ZM492.649 178H493.849V170.272H492.649V175.952C492.201 176.576 491.305 177.12 490.361 177.12C489.321 177.12 488.633 176.72 488.633 175.36V170.272H487.433V175.728C487.433 177.408 488.281 178.192 489.897 178.192C491.049 178.192 492.057 177.584 492.649 176.912V178ZM496.326 178H497.526V167.328H496.326V178ZM499.999 178H501.199V167.328H499.999V178ZM503.433 179.936L503.241 181.024C503.465 181.088 503.865 181.136 504.121 181.136C505.145 181.12 505.929 180.688 506.393 179.568L510.265 170.272H508.953L506.393 176.608L503.817 170.272H502.521L505.753 178.08L505.241 179.248C504.969 179.888 504.617 180.064 504.089 180.064C503.897 180.064 503.609 180.016 503.433 179.936ZM208.792 188.976C209.24 188.976 209.608 188.608 209.608 188.16C209.608 187.712 209.24 187.36 208.792 187.36C208.36 187.36 207.992 187.712 207.992 188.16C207.992 188.608 208.36 188.976 208.792 188.976ZM208.2 198H209.4V190.272H208.2V198ZM211.202 196.976C211.986 197.808 213.058 198.192 214.322 198.192C216.322 198.192 217.362 197.152 217.362 195.856C217.362 194.144 215.81 193.76 214.466 193.456C213.458 193.216 212.578 192.976 212.578 192.224C212.578 191.536 213.234 191.056 214.29 191.056C215.282 191.056 216.13 191.472 216.594 192.032L217.154 191.2C216.53 190.576 215.602 190.08 214.29 190.08C212.45 190.08 211.41 191.104 211.41 192.304C211.41 193.904 212.898 194.256 214.21 194.56C215.25 194.816 216.194 195.088 216.194 195.936C216.194 196.688 215.554 197.216 214.37 197.216C213.314 197.216 212.338 196.704 211.826 196.112L211.202 196.976ZM218.719 196.976C219.503 197.808 220.575 198.192 221.839 198.192C223.839 198.192 224.879 197.152 224.879 195.856C224.879 194.144 223.327 193.76 221.983 193.456C220.975 193.216 220.095 192.976 220.095 192.224C220.095 191.536 220.751 191.056 221.807 191.056C222.799 191.056 223.647 191.472 224.111 192.032L224.671 191.2C224.047 190.576 223.119 190.08 221.807 190.08C219.967 190.08 218.927 191.104 218.927 192.304C218.927 193.904 220.415 194.256 221.727 194.56C222.767 194.816 223.711 195.088 223.711 195.936C223.711 196.688 223.071 197.216 221.887 197.216C220.831 197.216 219.855 196.704 219.343 196.112L218.719 196.976ZM232.125 198H233.325V190.272H232.125V195.952C231.677 196.576 230.781 197.12 229.837 197.12C228.797 197.12 228.109 196.72 228.109 195.36V190.272H226.909V195.728C226.909 197.408 227.757 198.192 229.373 198.192C230.525 198.192 231.533 197.584 232.125 196.912V198ZM235.353 194.128C235.353 196.544 237.001 198.192 239.289 198.192C240.553 198.192 241.593 197.776 242.361 197.008L241.785 196.224C241.177 196.848 240.281 197.2 239.401 197.2C237.737 197.2 236.713 195.984 236.617 194.528H242.873V194.224C242.873 191.904 241.497 190.08 239.161 190.08C236.953 190.08 235.353 191.888 235.353 194.128ZM239.145 191.072C240.905 191.072 241.673 192.496 241.689 193.648H236.617C236.681 192.464 237.497 191.072 239.145 191.072ZM250.497 198H251.697V187.328H250.497V191.44C249.873 190.592 248.929 190.08 247.889 190.08C245.857 190.08 244.449 191.68 244.449 194.144C244.449 196.656 245.873 198.192 247.889 198.192C248.977 198.192 249.921 197.632 250.497 196.848V198ZM250.497 195.904C250.065 196.576 249.137 197.12 248.177 197.12C246.625 197.12 245.697 195.856 245.697 194.144C245.697 192.432 246.625 191.152 248.177 191.152C249.137 191.152 250.065 191.728 250.497 192.4V195.904ZM254.484 200.032C255.22 199.504 255.796 198.592 255.796 197.616C255.796 196.848 255.316 196.4 254.788 196.4C254.308 196.4 253.94 196.8 253.94 197.264C253.94 197.744 254.26 198.08 254.708 198.08C254.788 198.08 254.9 198.064 254.932 198.048C254.868 198.576 254.404 199.2 253.892 199.536L254.484 200.032ZM261.912 199.936L261.72 201.024C261.944 201.088 262.344 201.136 262.6 201.136C263.624 201.12 264.408 200.688 264.872 199.568L268.744 190.272H267.432L264.872 196.608L262.296 190.272H261L264.232 198.08L263.72 199.248C263.448 199.888 263.096 200.064 262.568 200.064C262.376 200.064 262.088 200.016 261.912 199.936ZM273.452 198.192C275.804 198.192 277.276 196.368 277.276 194.128C277.276 191.888 275.804 190.08 273.452 190.08C271.1 190.08 269.628 191.888 269.628 194.128C269.628 196.368 271.1 198.192 273.452 198.192ZM273.452 197.12C271.804 197.12 270.876 195.712 270.876 194.128C270.876 192.56 271.804 191.152 273.452 191.152C275.1 191.152 276.012 192.56 276.012 194.128C276.012 195.712 275.1 197.12 273.452 197.12ZM284.529 198H285.729V190.272H284.529V195.952C284.081 196.576 283.185 197.12 282.241 197.12C281.201 197.12 280.513 196.72 280.513 195.36V190.272H279.313V195.728C279.313 197.408 280.161 198.192 281.777 198.192C282.929 198.192 283.937 197.584 284.529 196.912V198ZM301.738 198H302.938V192.416C302.938 190.864 302.186 190.08 300.778 190.08C299.658 190.08 298.618 190.816 298.186 191.52C297.962 190.72 297.29 190.08 296.106 190.08C294.97 190.08 293.93 190.896 293.61 191.392V190.272H292.41V198H293.61V192.352C294.026 191.728 294.858 191.152 295.642 191.152C296.65 191.152 297.066 191.776 297.066 192.752V198H298.266V192.336C298.666 191.728 299.514 191.152 300.314 191.152C301.306 191.152 301.738 191.776 301.738 192.752V198ZM310.244 198H311.444V192.688C311.444 190.816 310.084 190.08 308.452 190.08C307.188 190.08 306.196 190.496 305.364 191.36L305.924 192.192C306.612 191.456 307.364 191.12 308.292 191.12C309.412 191.12 310.244 191.712 310.244 192.752V194.144C309.62 193.424 308.74 193.088 307.684 193.088C306.372 193.088 304.98 193.904 304.98 195.632C304.98 197.312 306.372 198.192 307.684 198.192C308.724 198.192 309.604 197.824 310.244 197.12V198ZM310.244 196.368C309.78 197.008 308.964 197.328 308.116 197.328C306.996 197.328 306.212 196.624 306.212 195.648C306.212 194.656 306.996 193.952 308.116 193.952C308.964 193.952 309.78 194.272 310.244 194.912V196.368ZM313.689 199.936L313.497 201.024C313.721 201.088 314.121 201.136 314.377 201.136C315.401 201.12 316.185 200.688 316.649 199.568L320.521 190.272H319.209L316.649 196.608L314.073 190.272H312.777L316.009 198.08L315.497 199.248C315.225 199.888 314.873 200.064 314.345 200.064C314.153 200.064 313.865 200.016 313.689 199.936ZM331.658 198H332.858V187.328H331.658V191.44C331.034 190.592 330.09 190.08 329.05 190.08C327.018 190.08 325.61 191.68 325.61 194.144C325.61 196.656 327.034 198.192 329.05 198.192C330.138 198.192 331.082 197.632 331.658 196.848V198ZM331.658 195.904C331.226 196.576 330.298 197.12 329.338 197.12C327.786 197.12 326.858 195.856 326.858 194.144C326.858 192.432 327.786 191.152 329.338 191.152C330.298 191.152 331.226 191.728 331.658 192.4V195.904ZM335.933 188.976C336.381 188.976 336.749 188.608 336.749 188.16C336.749 187.712 336.381 187.36 335.933 187.36C335.501 187.36 335.133 187.712 335.133 188.16C335.133 188.608 335.501 188.976 335.933 188.976ZM335.341 198H336.541V190.272H335.341V198ZM338.343 196.976C339.127 197.808 340.199 198.192 341.463 198.192C343.463 198.192 344.503 197.152 344.503 195.856C344.503 194.144 342.951 193.76 341.607 193.456C340.599 193.216 339.719 192.976 339.719 192.224C339.719 191.536 340.375 191.056 341.431 191.056C342.423 191.056 343.271 191.472 343.735 192.032L344.295 191.2C343.671 190.576 342.743 190.08 341.431 190.08C339.591 190.08 338.551 191.104 338.551 192.304C338.551 193.904 340.039 194.256 341.351 194.56C342.391 194.816 343.335 195.088 343.335 195.936C343.335 196.688 342.695 197.216 341.511 197.216C340.455 197.216 339.479 196.704 338.967 196.112L338.343 196.976ZM347.733 200.944V196.832C348.357 197.696 349.285 198.192 350.341 198.192C352.373 198.192 353.781 196.624 353.781 194.128C353.781 191.616 352.373 190.08 350.341 190.08C349.253 190.08 348.293 190.64 347.733 191.424V190.272H346.533V200.944H347.733ZM352.517 194.128C352.517 195.84 351.589 197.12 350.037 197.12C349.093 197.12 348.149 196.544 347.733 195.872V192.384C348.149 191.712 349.093 191.152 350.037 191.152C351.589 191.152 352.517 192.416 352.517 194.128ZM361.016 198H362.216V190.272H361.016V195.952C360.568 196.576 359.672 197.12 358.728 197.12C357.688 197.12 357 196.72 357 195.36V190.272H355.8V195.728C355.8 197.408 356.648 198.192 358.264 198.192C359.416 198.192 360.424 197.584 361.016 196.912V198ZM366.644 198.192C367.348 198.192 367.78 197.984 368.084 197.696L367.732 196.8C367.572 196.976 367.252 197.12 366.916 197.12C366.388 197.12 366.132 196.704 366.132 196.128V191.328H367.7V190.272H366.132V188.16H364.932V190.272H363.652V191.328H364.932V196.384C364.932 197.536 365.508 198.192 366.644 198.192ZM369.028 194.128C369.028 196.544 370.676 198.192 372.964 198.192C374.228 198.192 375.268 197.776 376.036 197.008L375.46 196.224C374.852 196.848 373.956 197.2 373.076 197.2C371.412 197.2 370.388 195.984 370.292 194.528H376.548V194.224C376.548 191.904 375.172 190.08 372.836 190.08C370.628 190.08 369.028 191.888 369.028 194.128ZM372.82 191.072C374.58 191.072 375.348 192.496 375.364 193.648H370.292C370.356 192.464 371.172 191.072 372.82 191.072ZM383.368 188.976C383.816 188.976 384.184 188.608 384.184 188.16C384.184 187.712 383.816 187.36 383.368 187.36C382.936 187.36 382.568 187.712 382.568 188.16C382.568 188.608 382.936 188.976 383.368 188.976ZM382.776 198H383.976V190.272H382.776V198ZM388.402 198.192C389.106 198.192 389.538 197.984 389.842 197.696L389.49 196.8C389.33 196.976 389.01 197.12 388.674 197.12C388.146 197.12 387.89 196.704 387.89 196.128V191.328H389.458V190.272H387.89V188.16H386.69V190.272H385.41V191.328H386.69V196.384C386.69 197.536 387.266 198.192 388.402 198.192ZM400.67 198H401.87V192.544C401.87 190.864 401.022 190.08 399.406 190.08C398.238 190.08 397.182 190.752 396.638 191.392V187.328H395.438V198H396.638V192.352C397.102 191.728 397.998 191.152 398.926 191.152C399.966 191.152 400.67 191.552 400.67 192.912V198ZM403.898 194.128C403.898 196.544 405.546 198.192 407.834 198.192C409.098 198.192 410.138 197.776 410.906 197.008L410.33 196.224C409.722 196.848 408.826 197.2 407.946 197.2C406.282 197.2 405.258 195.984 405.162 194.528H411.418V194.224C411.418 191.904 410.042 190.08 407.706 190.08C405.498 190.08 403.898 191.888 403.898 194.128ZM407.69 191.072C409.45 191.072 410.218 192.496 410.234 193.648H405.162C405.226 192.464 406.042 191.072 407.69 191.072ZM413.442 198H414.642V192.528C414.994 191.904 416.002 191.296 416.738 191.296C416.93 191.296 417.074 191.312 417.218 191.344V190.112C416.162 190.112 415.266 190.704 414.642 191.52V190.272H413.442V198ZM418.355 194.128C418.355 196.544 420.003 198.192 422.291 198.192C423.555 198.192 424.595 197.776 425.363 197.008L424.787 196.224C424.179 196.848 423.283 197.2 422.403 197.2C420.739 197.2 419.715 195.984 419.619 194.528H425.875V194.224C425.875 191.904 424.499 190.08 422.163 190.08C419.955 190.08 418.355 191.888 418.355 194.128ZM422.147 191.072C423.907 191.072 424.675 192.496 424.691 193.648H419.619C419.683 192.464 420.499 191.072 422.147 191.072ZM427.549 197.28C427.549 197.76 427.949 198.16 428.429 198.16C428.909 198.16 429.309 197.76 429.309 197.28C429.309 196.8 428.909 196.4 428.429 196.4C427.949 196.4 427.549 196.8 427.549 197.28ZM443.97 198H445.41L448.45 187.328H446.978L444.626 196.224L442.178 187.328H441.074L438.626 196.224L436.258 187.328H434.786L437.826 198H439.266L441.618 189.392L443.97 198ZM450.559 188.976C451.007 188.976 451.375 188.608 451.375 188.16C451.375 187.712 451.007 187.36 450.559 187.36C450.127 187.36 449.759 187.712 449.759 188.16C449.759 188.608 450.127 188.976 450.559 188.976ZM449.967 198H451.167V190.272H449.967V198ZM452.969 196.976C453.753 197.808 454.825 198.192 456.089 198.192C458.089 198.192 459.129 197.152 459.129 195.856C459.129 194.144 457.577 193.76 456.233 193.456C455.225 193.216 454.345 192.976 454.345 192.224C454.345 191.536 455.001 191.056 456.057 191.056C457.049 191.056 457.897 191.472 458.361 192.032L458.921 191.2C458.297 190.576 457.369 190.08 456.057 190.08C454.217 190.08 453.177 191.104 453.177 192.304C453.177 193.904 454.665 194.256 455.977 194.56C457.017 194.816 457.961 195.088 457.961 195.936C457.961 196.688 457.321 197.216 456.137 197.216C455.081 197.216 454.105 196.704 453.593 196.112L452.969 196.976ZM466.39 198H467.59V192.544C467.59 190.864 466.742 190.08 465.126 190.08C463.958 190.08 462.902 190.752 462.358 191.392V187.328H461.158V198H462.358V192.352C462.822 191.728 463.718 191.152 464.646 191.152C465.686 191.152 466.39 191.552 466.39 192.912V198ZM480.959 198H482.159L484.623 190.272H483.375L481.487 196.432L479.455 190.272H478.431L476.399 196.432L474.511 190.272H473.263L475.727 198H476.927L478.943 191.792L480.959 198ZM486.693 188.976C487.141 188.976 487.509 188.608 487.509 188.16C487.509 187.712 487.141 187.36 486.693 187.36C486.261 187.36 485.893 187.712 485.893 188.16C485.893 188.608 486.261 188.976 486.693 188.976ZM486.101 198H487.301V190.272H486.101V198ZM489.775 198H490.975V187.328H489.775V198ZM493.449 198H494.649V187.328H493.449V198ZM208.2 218H209.4V212.528C209.752 211.904 210.76 211.296 211.496 211.296C211.688 211.296 211.832 211.312 211.976 211.344V210.112C210.92 210.112 210.024 210.704 209.4 211.52V210.272H208.2V218ZM213.113 214.128C213.113 216.544 214.761 218.192 217.049 218.192C218.313 218.192 219.353 217.776 220.121 217.008L219.545 216.224C218.937 216.848 218.041 217.2 217.161 217.2C215.497 217.2 214.473 215.984 214.377 214.528H220.633V214.224C220.633 211.904 219.257 210.08 216.921 210.08C214.713 210.08 213.113 211.888 213.113 214.128ZM216.905 211.072C218.665 211.072 219.433 212.496 219.449 213.648H214.377C214.441 212.464 215.257 211.072 216.905 211.072ZM224.721 218H226.033L229.249 210.272H227.937L225.377 216.608L222.801 210.272H221.505L224.721 218ZM231.173 208.976C231.621 208.976 231.989 208.608 231.989 208.16C231.989 207.712 231.621 207.36 231.173 207.36C230.741 207.36 230.373 207.712 230.373 208.16C230.373 208.608 230.741 208.976 231.173 208.976ZM230.581 218H231.781V210.272H230.581V218ZM233.806 214.128C233.806 216.544 235.454 218.192 237.742 218.192C239.006 218.192 240.046 217.776 240.814 217.008L240.238 216.224C239.63 216.848 238.734 217.2 237.854 217.2C236.19 217.2 235.166 215.984 235.07 214.528H241.326V214.224C241.326 211.904 239.95 210.08 237.614 210.08C235.406 210.08 233.806 211.888 233.806 214.128ZM237.598 211.072C239.358 211.072 240.126 212.496 240.142 213.648H235.07C235.134 212.464 235.95 211.072 237.598 211.072ZM250.038 218H251.238L253.702 210.272H252.454L250.566 216.432L248.534 210.272H247.51L245.478 216.432L243.59 210.272H242.342L244.806 218H246.006L248.022 211.792L250.038 218ZM264.217 218H265.417V212.688C265.417 210.816 264.057 210.08 262.425 210.08C261.161 210.08 260.169 210.496 259.337 211.36L259.897 212.192C260.585 211.456 261.337 211.12 262.265 211.12C263.385 211.12 264.217 211.712 264.217 212.752V214.144C263.593 213.424 262.713 213.088 261.657 213.088C260.345 213.088 258.953 213.904 258.953 215.632C258.953 217.312 260.345 218.192 261.657 218.192C262.697 218.192 263.577 217.824 264.217 217.12V218ZM264.217 216.368C263.753 217.008 262.937 217.328 262.089 217.328C260.969 217.328 260.185 216.624 260.185 215.648C260.185 214.656 260.969 213.952 262.089 213.952C262.937 213.952 263.753 214.272 264.217 214.912V216.368ZM273.118 218H274.318V212.576C274.318 210.896 273.47 210.08 271.854 210.08C270.702 210.08 269.646 210.752 269.102 211.392V210.272H267.902V218H269.102V212.352C269.55 211.728 270.446 211.152 271.39 211.152C272.43 211.152 273.118 211.584 273.118 212.944V218ZM282.395 218H283.595V207.328H282.395V211.44C281.771 210.592 280.827 210.08 279.787 210.08C277.755 210.08 276.347 211.68 276.347 214.144C276.347 216.656 277.771 218.192 279.787 218.192C280.875 218.192 281.819 217.632 282.395 216.848V218ZM282.395 215.904C281.963 216.576 281.035 217.12 280.075 217.12C278.523 217.12 277.595 215.856 277.595 214.144C277.595 212.432 278.523 211.152 280.075 211.152C281.035 211.152 281.963 211.728 282.395 212.4V215.904ZM290.283 218H291.483V212.528C291.835 211.904 292.843 211.296 293.579 211.296C293.771 211.296 293.915 211.312 294.059 211.344V210.112C293.003 210.112 292.107 210.704 291.483 211.52V210.272H290.283V218ZM295.196 214.128C295.196 216.544 296.844 218.192 299.132 218.192C300.396 218.192 301.436 217.776 302.204 217.008L301.628 216.224C301.02 216.848 300.124 217.2 299.244 217.2C297.58 217.2 296.556 215.984 296.46 214.528H302.716V214.224C302.716 211.904 301.34 210.08 299.004 210.08C296.796 210.08 295.196 211.888 295.196 214.128ZM298.988 211.072C300.748 211.072 301.516 212.496 301.532 213.648H296.46C296.524 212.464 297.34 211.072 298.988 211.072ZM304.068 216.976C304.852 217.808 305.924 218.192 307.188 218.192C309.188 218.192 310.228 217.152 310.228 215.856C310.228 214.144 308.676 213.76 307.332 213.456C306.324 213.216 305.444 212.976 305.444 212.224C305.444 211.536 306.1 211.056 307.156 211.056C308.148 211.056 308.996 211.472 309.46 212.032L310.02 211.2C309.396 210.576 308.468 210.08 307.156 210.08C305.316 210.08 304.276 211.104 304.276 212.304C304.276 213.904 305.764 214.256 307.076 214.56C308.116 214.816 309.06 215.088 309.06 215.936C309.06 216.688 308.42 217.216 307.236 217.216C306.18 217.216 305.204 216.704 304.692 216.112L304.068 216.976ZM313.458 220.944V216.832C314.082 217.696 315.01 218.192 316.066 218.192C318.098 218.192 319.506 216.624 319.506 214.128C319.506 211.616 318.098 210.08 316.066 210.08C314.978 210.08 314.018 210.64 313.458 211.424V210.272H312.258V220.944H313.458ZM318.242 214.128C318.242 215.84 317.314 217.12 315.762 217.12C314.818 217.12 313.874 216.544 313.458 215.872V212.384C313.874 211.712 314.818 211.152 315.762 211.152C317.314 211.152 318.242 212.416 318.242 214.128ZM324.901 218.192C327.253 218.192 328.725 216.368 328.725 214.128C328.725 211.888 327.253 210.08 324.901 210.08C322.549 210.08 321.077 211.888 321.077 214.128C321.077 216.368 322.549 218.192 324.901 218.192ZM324.901 217.12C323.253 217.12 322.325 215.712 322.325 214.128C322.325 212.56 323.253 211.152 324.901 211.152C326.549 211.152 327.461 212.56 327.461 214.128C327.461 215.712 326.549 217.12 324.901 217.12ZM335.977 218H337.177V212.576C337.177 210.896 336.329 210.08 334.713 210.08C333.561 210.08 332.505 210.752 331.961 211.392V210.272H330.761V218H331.961V212.352C332.409 211.728 333.305 211.152 334.249 211.152C335.289 211.152 335.977 211.584 335.977 212.944V218ZM345.254 218H346.454V207.328H345.254V211.44C344.63 210.592 343.686 210.08 342.646 210.08C340.614 210.08 339.206 211.68 339.206 214.144C339.206 216.656 340.63 218.192 342.646 218.192C343.734 218.192 344.678 217.632 345.254 216.848V218ZM345.254 215.904C344.822 216.576 343.894 217.12 342.934 217.12C341.382 217.12 340.454 215.856 340.454 214.144C340.454 212.432 341.382 211.152 342.934 211.152C343.894 211.152 344.822 211.728 345.254 212.4V215.904ZM359.83 218H361.03L363.494 210.272H362.246L360.358 216.432L358.326 210.272H357.302L355.27 216.432L353.382 210.272H352.134L354.598 218H355.798L357.814 211.792L359.83 218ZM365.564 208.976C366.012 208.976 366.38 208.608 366.38 208.16C366.38 207.712 366.012 207.36 365.564 207.36C365.132 207.36 364.764 207.712 364.764 208.16C364.764 208.608 365.132 208.976 365.564 208.976ZM364.972 218H366.172V210.272H364.972V218ZM370.598 218.192C371.302 218.192 371.734 217.984 372.038 217.696L371.686 216.8C371.526 216.976 371.206 217.12 370.87 217.12C370.342 217.12 370.086 216.704 370.086 216.128V211.328H371.654V210.272H370.086V208.16H368.886V210.272H367.606V211.328H368.886V216.384C368.886 217.536 369.462 218.192 370.598 218.192ZM378.661 218H379.861V212.544C379.861 210.864 379.013 210.08 377.397 210.08C376.229 210.08 375.173 210.752 374.629 211.392V207.328H373.429V218H374.629V212.352C375.093 211.728 375.989 211.152 376.917 211.152C377.957 211.152 378.661 211.552 378.661 212.912V218ZM382.929 208.976C383.377 208.976 383.745 208.608 383.745 208.16C383.745 207.712 383.377 207.36 382.929 207.36C382.497 207.36 382.129 207.712 382.129 208.16C382.129 208.608 382.497 208.976 382.929 208.976ZM382.337 218H383.537V210.272H382.337V218ZM391.227 218H392.427V212.576C392.427 210.896 391.579 210.08 389.963 210.08C388.811 210.08 387.755 210.752 387.211 211.392V210.272H386.011V218H387.211V212.352C387.659 211.728 388.555 211.152 389.499 211.152C390.539 211.152 391.227 211.584 391.227 212.944V218ZM398.436 216.976C399.22 217.808 400.292 218.192 401.556 218.192C403.556 218.192 404.596 217.152 404.596 215.856C404.596 214.144 403.044 213.76 401.7 213.456C400.692 213.216 399.812 212.976 399.812 212.224C399.812 211.536 400.468 211.056 401.524 211.056C402.516 211.056 403.364 211.472 403.828 212.032L404.388 211.2C403.764 210.576 402.836 210.08 401.524 210.08C399.684 210.08 398.644 211.104 398.644 212.304C398.644 213.904 400.132 214.256 401.444 214.56C402.484 214.816 403.428 215.088 403.428 215.936C403.428 216.688 402.788 217.216 401.604 217.216C400.548 217.216 399.572 216.704 399.06 216.112L398.436 216.976ZM406.178 214.128C406.178 216.544 407.826 218.192 410.114 218.192C411.378 218.192 412.418 217.776 413.186 217.008L412.61 216.224C412.002 216.848 411.106 217.2 410.226 217.2C408.562 217.2 407.538 215.984 407.442 214.528H413.698V214.224C413.698 211.904 412.322 210.08 409.986 210.08C407.778 210.08 406.178 211.888 406.178 214.128ZM409.97 211.072C411.73 211.072 412.498 212.496 412.514 213.648H407.442C407.506 212.464 408.322 211.072 409.97 211.072ZM417.785 218H419.097L422.313 210.272H421.001L418.441 216.608L415.865 210.272H414.569L417.785 218ZM423.197 214.128C423.197 216.544 424.845 218.192 427.133 218.192C428.397 218.192 429.437 217.776 430.205 217.008L429.629 216.224C429.021 216.848 428.125 217.2 427.245 217.2C425.581 217.2 424.557 215.984 424.461 214.528H430.717V214.224C430.717 211.904 429.341 210.08 427.005 210.08C424.797 210.08 423.197 211.888 423.197 214.128ZM426.989 211.072C428.749 211.072 429.517 212.496 429.533 213.648H424.461C424.525 212.464 425.341 211.072 426.989 211.072ZM432.741 218H433.941V212.528C434.293 211.904 435.301 211.296 436.037 211.296C436.229 211.296 436.373 211.312 436.517 211.344V210.112C435.461 210.112 434.565 210.704 433.941 211.52V210.272H432.741V218ZM442.934 218H444.134V212.688C444.134 210.816 442.774 210.08 441.142 210.08C439.878 210.08 438.886 210.496 438.054 211.36L438.614 212.192C439.302 211.456 440.054 211.12 440.982 211.12C442.102 211.12 442.934 211.712 442.934 212.752V214.144C442.31 213.424 441.43 213.088 440.374 213.088C439.062 213.088 437.67 213.904 437.67 215.632C437.67 217.312 439.062 218.192 440.374 218.192C441.414 218.192 442.294 217.824 442.934 217.12V218ZM442.934 216.368C442.47 217.008 441.654 217.328 440.806 217.328C439.686 217.328 438.902 216.624 438.902 215.648C438.902 214.656 439.686 213.952 440.806 213.952C441.654 213.952 442.47 214.272 442.934 214.912V216.368ZM446.619 218H447.819V207.328H446.619V218ZM454.498 218H455.698V216.848C456.274 217.632 457.218 218.192 458.306 218.192C460.322 218.192 461.746 216.656 461.746 214.144C461.746 211.68 460.322 210.08 458.306 210.08C457.25 210.08 456.322 210.592 455.698 211.44V207.328H454.498V218ZM455.698 215.904V212.4C456.114 211.728 457.058 211.152 458.002 211.152C459.57 211.152 460.498 212.432 460.498 214.144C460.498 215.856 459.57 217.12 458.002 217.12C457.058 217.12 456.114 216.576 455.698 215.904ZM468.997 218H470.197V210.272H468.997V215.952C468.549 216.576 467.653 217.12 466.709 217.12C465.669 217.12 464.981 216.72 464.981 215.36V210.272H463.781V215.728C463.781 217.408 464.629 218.192 466.245 218.192C467.397 218.192 468.405 217.584 468.997 216.912V218ZM472.002 216.976C472.786 217.808 473.858 218.192 475.122 218.192C477.122 218.192 478.162 217.152 478.162 215.856C478.162 214.144 476.61 213.76 475.266 213.456C474.258 213.216 473.378 212.976 473.378 212.224C473.378 211.536 474.034 211.056 475.09 211.056C476.082 211.056 476.93 211.472 477.394 212.032L477.954 211.2C477.33 210.576 476.402 210.08 475.09 210.08C473.25 210.08 472.21 211.104 472.21 212.304C472.21 213.904 473.698 214.256 475.01 214.56C476.05 214.816 476.994 215.088 476.994 215.936C476.994 216.688 476.354 217.216 475.17 217.216C474.114 217.216 473.138 216.704 472.626 216.112L472.002 216.976ZM480.783 208.976C481.231 208.976 481.599 208.608 481.599 208.16C481.599 207.712 481.231 207.36 480.783 207.36C480.351 207.36 479.983 207.712 479.983 208.16C479.983 208.608 480.351 208.976 480.783 208.976ZM480.191 218H481.391V210.272H480.191V218ZM489.081 218H490.281V212.576C490.281 210.896 489.433 210.08 487.817 210.08C486.665 210.08 485.609 210.752 485.065 211.392V210.272H483.865V218H485.065V212.352C485.513 211.728 486.409 211.152 487.353 211.152C488.393 211.152 489.081 211.584 489.081 212.944V218ZM492.309 214.128C492.309 216.544 493.957 218.192 496.245 218.192C497.509 218.192 498.549 217.776 499.317 217.008L498.741 216.224C498.133 216.848 497.237 217.2 496.357 217.2C494.693 217.2 493.669 215.984 493.573 214.528H499.829V214.224C499.829 211.904 498.453 210.08 496.117 210.08C493.909 210.08 492.309 211.888 492.309 214.128ZM496.101 211.072C497.861 211.072 498.629 212.496 498.645 213.648H493.573C493.637 212.464 494.453 211.072 496.101 211.072ZM501.181 216.976C501.965 217.808 503.037 218.192 504.301 218.192C506.301 218.192 507.341 217.152 507.341 215.856C507.341 214.144 505.789 213.76 504.445 213.456C503.437 213.216 502.557 212.976 502.557 212.224C502.557 211.536 503.213 211.056 504.269 211.056C505.261 211.056 506.109 211.472 506.573 212.032L507.133 211.2C506.509 210.576 505.581 210.08 504.269 210.08C502.429 210.08 501.389 211.104 501.389 212.304C501.389 213.904 502.877 214.256 504.189 214.56C505.229 214.816 506.173 215.088 506.173 215.936C506.173 216.688 505.533 217.216 504.349 217.216C503.293 217.216 502.317 216.704 501.805 216.112L501.181 216.976ZM508.699 216.976C509.483 217.808 510.555 218.192 511.819 218.192C513.819 218.192 514.859 217.152 514.859 215.856C514.859 214.144 513.307 213.76 511.963 213.456C510.955 213.216 510.075 212.976 510.075 212.224C510.075 211.536 510.731 211.056 511.787 211.056C512.779 211.056 513.627 211.472 514.091 212.032L514.651 211.2C514.027 210.576 513.099 210.08 511.787 210.08C509.947 210.08 508.907 211.104 508.907 212.304C508.907 213.904 510.395 214.256 511.707 214.56C512.747 214.816 513.691 215.088 513.691 215.936C513.691 216.688 513.051 217.216 511.867 217.216C510.811 217.216 509.835 216.704 509.323 216.112L508.699 216.976ZM213.8 238H215V227.328H213.8V231.44C213.176 230.592 212.232 230.08 211.192 230.08C209.16 230.08 207.752 231.68 207.752 234.144C207.752 236.656 209.176 238.192 211.192 238.192C212.28 238.192 213.224 237.632 213.8 236.848V238ZM213.8 235.904C213.368 236.576 212.44 237.12 211.48 237.12C209.928 237.12 209 235.856 209 234.144C209 232.432 209.928 231.152 211.48 231.152C212.44 231.152 213.368 231.728 213.8 232.4V235.904ZM222.315 238H223.515V232.688C223.515 230.816 222.155 230.08 220.523 230.08C219.259 230.08 218.267 230.496 217.435 231.36L217.995 232.192C218.683 231.456 219.435 231.12 220.363 231.12C221.483 231.12 222.315 231.712 222.315 232.752V234.144C221.691 233.424 220.811 233.088 219.755 233.088C218.443 233.088 217.051 233.904 217.051 235.632C217.051 237.312 218.443 238.192 219.755 238.192C220.795 238.192 221.675 237.824 222.315 237.12V238ZM222.315 236.368C221.851 237.008 221.035 237.328 220.187 237.328C219.067 237.328 218.283 236.624 218.283 235.648C218.283 234.656 219.067 233.952 220.187 233.952C221.035 233.952 221.851 234.272 222.315 234.912V236.368ZM225.761 239.936L225.569 241.024C225.793 241.088 226.193 241.136 226.449 241.136C227.473 241.12 228.257 240.688 228.721 239.568L232.593 230.272H231.281L228.721 236.608L226.145 230.272H224.849L228.081 238.08L227.569 239.248C227.297 239.888 226.945 240.064 226.417 240.064C226.225 240.064 225.937 240.016 225.761 239.936ZM233.252 236.976C234.036 237.808 235.108 238.192 236.372 238.192C238.372 238.192 239.412 237.152 239.412 235.856C239.412 234.144 237.86 233.76 236.516 233.456C235.508 233.216 234.628 232.976 234.628 232.224C234.628 231.536 235.284 231.056 236.34 231.056C237.332 231.056 238.18 231.472 238.644 232.032L239.204 231.2C238.58 230.576 237.652 230.08 236.34 230.08C234.5 230.08 233.46 231.104 233.46 232.304C233.46 233.904 234.948 234.256 236.26 234.56C237.3 234.816 238.244 235.088 238.244 235.936C238.244 236.688 237.604 237.216 236.42 237.216C235.364 237.216 234.388 236.704 233.876 236.112L233.252 236.976ZM241.202 237.28C241.202 237.76 241.602 238.16 242.082 238.16C242.562 238.16 242.962 237.76 242.962 237.28C242.962 236.8 242.562 236.4 242.082 236.4C241.602 236.4 241.202 236.8 241.202 237.28Z" fill="#4F4F4F"/>
<path d="M214.424 283H215.992L213.112 278.648C214.568 278.52 215.88 277.464 215.88 275.544C215.88 273.576 214.488 272.328 212.536 272.328H208.248V283H209.576V278.76H211.704L214.424 283ZM214.504 275.544C214.504 276.744 213.64 277.592 212.376 277.592H209.576V273.512H212.376C213.64 273.512 214.504 274.344 214.504 275.544ZM217.082 279.128C217.082 281.544 218.73 283.192 221.018 283.192C222.282 283.192 223.322 282.776 224.09 282.008L223.514 281.224C222.906 281.848 222.01 282.2 221.13 282.2C219.466 282.2 218.442 280.984 218.346 279.528H224.602V279.224C224.602 276.904 223.226 275.08 220.89 275.08C218.682 275.08 217.082 276.888 217.082 279.128ZM220.874 276.072C222.634 276.072 223.402 277.496 223.418 278.648H218.346C218.41 277.464 219.226 276.072 220.874 276.072ZM231.458 283H232.658V277.688C232.658 275.816 231.298 275.08 229.666 275.08C228.402 275.08 227.41 275.496 226.578 276.36L227.138 277.192C227.826 276.456 228.578 276.12 229.506 276.12C230.626 276.12 231.458 276.712 231.458 277.752V279.144C230.834 278.424 229.954 278.088 228.898 278.088C227.586 278.088 226.194 278.904 226.194 280.632C226.194 282.312 227.586 283.192 228.898 283.192C229.938 283.192 230.818 282.824 231.458 282.12V283ZM231.458 281.368C230.994 282.008 230.178 282.328 229.33 282.328C228.21 282.328 227.426 281.624 227.426 280.648C227.426 279.656 228.21 278.952 229.33 278.952C230.178 278.952 230.994 279.272 231.458 279.912V281.368ZM234.471 281.976C235.255 282.808 236.327 283.192 237.591 283.192C239.591 283.192 240.631 282.152 240.631 280.856C240.631 279.144 239.079 278.76 237.735 278.456C236.727 278.216 235.847 277.976 235.847 277.224C235.847 276.536 236.503 276.056 237.559 276.056C238.551 276.056 239.399 276.472 239.863 277.032L240.423 276.2C239.799 275.576 238.871 275.08 237.559 275.08C235.719 275.08 234.679 276.104 234.679 277.304C234.679 278.904 236.167 279.256 237.479 279.56C238.519 279.816 239.463 280.088 239.463 280.936C239.463 281.688 238.823 282.216 237.639 282.216C236.583 282.216 235.607 281.704 235.095 281.112L234.471 281.976ZM246.037 283.192C248.389 283.192 249.861 281.368 249.861 279.128C249.861 276.888 248.389 275.08 246.037 275.08C243.685 275.08 242.213 276.888 242.213 279.128C242.213 281.368 243.685 283.192 246.037 283.192ZM246.037 282.12C244.389 282.12 243.461 280.712 243.461 279.128C243.461 277.56 244.389 276.152 246.037 276.152C247.685 276.152 248.597 277.56 248.597 279.128C248.597 280.712 247.685 282.12 246.037 282.12ZM257.113 283H258.313V277.576C258.313 275.896 257.465 275.08 255.849 275.08C254.697 275.08 253.641 275.752 253.097 276.392V275.272H251.897V283H253.097V277.352C253.545 276.728 254.441 276.152 255.385 276.152C256.425 276.152 257.113 276.584 257.113 277.944V283ZM265.33 283H266.53V276.328H268.098V275.272H266.53V274.68C266.53 273.704 266.962 273.16 267.746 273.16C268.018 273.16 268.242 273.224 268.434 273.336L268.738 272.44C268.434 272.248 268.018 272.168 267.57 272.168C266.226 272.168 265.33 273.08 265.33 274.68V275.272H264.05V276.328H265.33V283ZM272.982 283.192C275.334 283.192 276.806 281.368 276.806 279.128C276.806 276.888 275.334 275.08 272.982 275.08C270.63 275.08 269.158 276.888 269.158 279.128C269.158 281.368 270.63 283.192 272.982 283.192ZM272.982 282.12C271.334 282.12 270.406 280.712 270.406 279.128C270.406 277.56 271.334 276.152 272.982 276.152C274.63 276.152 275.542 277.56 275.542 279.128C275.542 280.712 274.63 282.12 272.982 282.12ZM278.842 283H280.042V277.528C280.394 276.904 281.402 276.296 282.138 276.296C282.33 276.296 282.474 276.312 282.618 276.344V275.112C281.562 275.112 280.666 275.704 280.042 276.52V275.272H278.842V283ZM294.008 283H295.208V272.328H294.008V276.44C293.384 275.592 292.44 275.08 291.4 275.08C289.368 275.08 287.96 276.68 287.96 279.144C287.96 281.656 289.384 283.192 291.4 283.192C292.488 283.192 293.432 282.632 294.008 281.848V283ZM294.008 280.904C293.576 281.576 292.648 282.12 291.688 282.12C290.136 282.12 289.208 280.856 289.208 279.144C289.208 277.432 290.136 276.152 291.688 276.152C292.648 276.152 293.576 276.728 294.008 277.4V280.904ZM298.283 273.976C298.731 273.976 299.099 273.608 299.099 273.16C299.099 272.712 298.731 272.36 298.283 272.36C297.851 272.36 297.483 272.712 297.483 273.16C297.483 273.608 297.851 273.976 298.283 273.976ZM297.691 283H298.891V275.272H297.691V283ZM300.693 281.976C301.477 282.808 302.549 283.192 303.813 283.192C305.813 283.192 306.853 282.152 306.853 280.856C306.853 279.144 305.301 278.76 303.957 278.456C302.949 278.216 302.069 277.976 302.069 277.224C302.069 276.536 302.725 276.056 303.781 276.056C304.773 276.056 305.621 276.472 306.085 277.032L306.645 276.2C306.021 275.576 305.093 275.08 303.781 275.08C301.941 275.08 300.901 276.104 300.901 277.304C300.901 278.904 302.389 279.256 303.701 279.56C304.741 279.816 305.685 280.088 305.685 280.936C305.685 281.688 305.045 282.216 303.861 282.216C302.805 282.216 301.829 281.704 301.317 281.112L300.693 281.976ZM310.083 285.944V281.832C310.707 282.696 311.635 283.192 312.691 283.192C314.723 283.192 316.131 281.624 316.131 279.128C316.131 276.616 314.723 275.08 312.691 275.08C311.603 275.08 310.643 275.64 310.083 276.424V275.272H308.883V285.944H310.083ZM314.867 279.128C314.867 280.84 313.939 282.12 312.387 282.12C311.443 282.12 310.499 281.544 310.083 280.872V277.384C310.499 276.712 311.443 276.152 312.387 276.152C313.939 276.152 314.867 277.416 314.867 279.128ZM323.366 283H324.566V275.272H323.366V280.952C322.918 281.576 322.022 282.12 321.078 282.12C320.038 282.12 319.35 281.72 319.35 280.36V275.272H318.15V280.728C318.15 282.408 318.998 283.192 320.614 283.192C321.766 283.192 322.774 282.584 323.366 281.912V283ZM328.994 283.192C329.698 283.192 330.13 282.984 330.434 282.696L330.082 281.8C329.922 281.976 329.602 282.12 329.266 282.12C328.738 282.12 328.482 281.704 328.482 281.128V276.328H330.05V275.272H328.482V273.16H327.282V275.272H326.002V276.328H327.282V281.384C327.282 282.536 327.858 283.192 328.994 283.192ZM331.378 279.128C331.378 281.544 333.026 283.192 335.314 283.192C336.578 283.192 337.618 282.776 338.386 282.008L337.81 281.224C337.202 281.848 336.306 282.2 335.426 282.2C333.762 282.2 332.738 280.984 332.642 279.528H338.898V279.224C338.898 276.904 337.522 275.08 335.186 275.08C332.978 275.08 331.378 276.888 331.378 279.128ZM335.17 276.072C336.93 276.072 337.698 277.496 337.714 278.648H332.642C332.706 277.464 333.522 276.072 335.17 276.072Z" fill="#4F4F4F"/>
<path d="M208.248 374.856C208.248 377.48 209.704 379.192 212.6 379.192C215.496 379.192 216.952 377.496 216.952 374.84V368.328H215.624V374.824C215.624 376.776 214.568 378.008 212.6 378.008C210.632 378.008 209.576 376.776 209.576 374.824V368.328H208.248V374.856ZM220.683 381.944V377.832C221.307 378.696 222.235 379.192 223.291 379.192C225.323 379.192 226.731 377.624 226.731 375.128C226.731 372.616 225.323 371.08 223.291 371.08C222.203 371.08 221.243 371.64 220.683 372.424V371.272H219.483V381.944H220.683ZM225.467 375.128C225.467 376.84 224.539 378.12 222.987 378.12C222.043 378.12 221.099 377.544 220.683 376.872V373.384C221.099 372.712 222.043 372.152 222.987 372.152C224.539 372.152 225.467 373.416 225.467 375.128ZM228.751 379H229.951V368.328H228.751V379ZM235.8 379.192C238.152 379.192 239.624 377.368 239.624 375.128C239.624 372.888 238.152 371.08 235.8 371.08C233.448 371.08 231.976 372.888 231.976 375.128C231.976 377.368 233.448 379.192 235.8 379.192ZM235.8 378.12C234.152 378.12 233.224 376.712 233.224 375.128C233.224 373.56 234.152 372.152 235.8 372.152C237.448 372.152 238.36 373.56 238.36 375.128C238.36 376.712 237.448 378.12 235.8 378.12ZM246.493 379H247.693V373.688C247.693 371.816 246.333 371.08 244.701 371.08C243.437 371.08 242.445 371.496 241.613 372.36L242.173 373.192C242.861 372.456 243.613 372.12 244.541 372.12C245.661 372.12 246.493 372.712 246.493 373.752V375.144C245.869 374.424 244.989 374.088 243.933 374.088C242.621 374.088 241.229 374.904 241.229 376.632C241.229 378.312 242.621 379.192 243.933 379.192C244.973 379.192 245.853 378.824 246.493 378.12V379ZM246.493 377.368C246.029 378.008 245.213 378.328 244.365 378.328C243.245 378.328 242.461 377.624 242.461 376.648C242.461 375.656 243.245 374.952 244.365 374.952C245.213 374.952 246.029 375.272 246.493 375.912V377.368ZM255.778 379H256.978V368.328H255.778V372.44C255.154 371.592 254.21 371.08 253.17 371.08C251.138 371.08 249.73 372.68 249.73 375.144C249.73 377.656 251.154 379.192 253.17 379.192C254.258 379.192 255.202 378.632 255.778 377.848V379ZM255.778 376.904C255.346 377.576 254.418 378.12 253.458 378.12C251.906 378.12 250.978 376.856 250.978 375.144C250.978 373.432 251.906 372.152 253.458 372.152C254.418 372.152 255.346 372.728 255.778 373.4V376.904ZM260.053 369.976C260.501 369.976 260.869 369.608 260.869 369.16C260.869 368.712 260.501 368.36 260.053 368.36C259.621 368.36 259.253 368.712 259.253 369.16C259.253 369.608 259.621 369.976 260.053 369.976ZM259.461 379H260.661V371.272H259.461V379ZM268.351 379H269.551V373.576C269.551 371.896 268.703 371.08 267.087 371.08C265.935 371.08 264.879 371.752 264.335 372.392V371.272H263.135V379H264.335V373.352C264.783 372.728 265.679 372.152 266.623 372.152C267.663 372.152 268.351 372.584 268.351 373.944V379ZM272.011 380.984C272.923 381.88 273.819 382.136 275.131 382.136C277.019 382.136 278.811 381.336 278.811 378.776V371.272H277.611V372.44C276.987 371.592 276.059 371.08 275.019 371.08C272.987 371.08 271.579 372.616 271.579 375.096C271.579 377.592 273.003 379.096 275.019 379.096C276.107 379.096 277.051 378.504 277.611 377.72V378.824C277.611 380.52 276.411 381.144 275.131 381.144C274.027 381.144 273.259 380.856 272.619 380.088L272.011 380.984ZM277.611 376.776C277.195 377.448 276.267 378.04 275.307 378.04C273.755 378.04 272.827 376.792 272.827 375.096C272.827 373.384 273.755 372.152 275.307 372.152C276.267 372.152 277.195 372.728 277.611 373.4V376.776ZM284.828 377.976C285.612 378.808 286.684 379.192 287.948 379.192C289.948 379.192 290.988 378.152 290.988 376.856C290.988 375.144 289.436 374.76 288.092 374.456C287.084 374.216 286.204 373.976 286.204 373.224C286.204 372.536 286.86 372.056 287.916 372.056C288.908 372.056 289.756 372.472 290.22 373.032L290.78 372.2C290.156 371.576 289.228 371.08 287.916 371.08C286.076 371.08 285.036 372.104 285.036 373.304C285.036 374.904 286.524 375.256 287.836 375.56C288.876 375.816 289.82 376.088 289.82 376.936C289.82 377.688 289.18 378.216 287.996 378.216C286.94 378.216 285.964 377.704 285.452 377.112L284.828 377.976ZM298.233 379H299.433V371.272H298.233V376.952C297.785 377.576 296.889 378.12 295.945 378.12C294.905 378.12 294.217 377.72 294.217 376.36V371.272H293.017V376.728C293.017 378.408 293.865 379.192 295.481 379.192C296.633 379.192 297.641 378.584 298.233 377.912V379ZM303.11 381.944V377.832C303.734 378.696 304.662 379.192 305.718 379.192C307.75 379.192 309.158 377.624 309.158 375.128C309.158 372.616 307.75 371.08 305.718 371.08C304.63 371.08 303.67 371.64 303.11 372.424V371.272H301.91V381.944H303.11ZM307.894 375.128C307.894 376.84 306.966 378.12 305.414 378.12C304.47 378.12 303.526 377.544 303.11 376.872V373.384C303.526 372.712 304.47 372.152 305.414 372.152C306.966 372.152 307.894 373.416 307.894 375.128ZM312.378 381.944V377.832C313.002 378.696 313.93 379.192 314.986 379.192C317.018 379.192 318.426 377.624 318.426 375.128C318.426 372.616 317.018 371.08 314.986 371.08C313.898 371.08 312.938 371.64 312.378 372.424V371.272H311.178V381.944H312.378ZM317.162 375.128C317.162 376.84 316.234 378.12 314.682 378.12C313.738 378.12 312.794 377.544 312.378 376.872V373.384C312.794 372.712 313.738 372.152 314.682 372.152C316.234 372.152 317.162 373.416 317.162 375.128ZM323.821 379.192C326.173 379.192 327.645 377.368 327.645 375.128C327.645 372.888 326.173 371.08 323.821 371.08C321.469 371.08 319.997 372.888 319.997 375.128C319.997 377.368 321.469 379.192 323.821 379.192ZM323.821 378.12C322.173 378.12 321.245 376.712 321.245 375.128C321.245 373.56 322.173 372.152 323.821 372.152C325.469 372.152 326.381 373.56 326.381 375.128C326.381 376.712 325.469 378.12 323.821 378.12ZM329.681 379H330.881V373.528C331.233 372.904 332.241 372.296 332.977 372.296C333.169 372.296 333.313 372.312 333.457 372.344V371.112C332.401 371.112 331.505 371.704 330.881 372.52V371.272H329.681V379ZM336.994 379.192C337.698 379.192 338.13 378.984 338.434 378.696L338.082 377.8C337.922 377.976 337.602 378.12 337.266 378.12C336.738 378.12 336.482 377.704 336.482 377.128V372.328H338.05V371.272H336.482V369.16H335.282V371.272H334.002V372.328H335.282V377.384C335.282 378.536 335.858 379.192 336.994 379.192ZM340.418 369.976C340.866 369.976 341.234 369.608 341.234 369.16C341.234 368.712 340.866 368.36 340.418 368.36C339.986 368.36 339.618 368.712 339.618 369.16C339.618 369.608 339.986 369.976 340.418 369.976ZM339.826 379H341.026V371.272H339.826V379ZM348.715 379H349.915V373.576C349.915 371.896 349.067 371.08 347.451 371.08C346.299 371.08 345.243 371.752 344.699 372.392V371.272H343.499V379H344.699V373.352C345.147 372.728 346.043 372.152 346.987 372.152C348.027 372.152 348.715 372.584 348.715 373.944V379ZM352.376 380.984C353.288 381.88 354.184 382.136 355.496 382.136C357.384 382.136 359.176 381.336 359.176 378.776V371.272H357.976V372.44C357.352 371.592 356.424 371.08 355.384 371.08C353.352 371.08 351.944 372.616 351.944 375.096C351.944 377.592 353.368 379.096 355.384 379.096C356.472 379.096 357.416 378.504 357.976 377.72V378.824C357.976 380.52 356.776 381.144 355.496 381.144C354.392 381.144 353.624 380.856 352.984 380.088L352.376 380.984ZM357.976 376.776C357.56 377.448 356.632 378.04 355.672 378.04C354.12 378.04 353.192 376.792 353.192 375.096C353.192 373.384 354.12 372.152 355.672 372.152C356.632 372.152 357.56 372.728 357.976 373.4V376.776ZM371.464 379H372.664V368.328H371.464V372.44C370.84 371.592 369.896 371.08 368.856 371.08C366.824 371.08 365.416 372.68 365.416 375.144C365.416 377.656 366.84 379.192 368.856 379.192C369.944 379.192 370.888 378.632 371.464 377.848V379ZM371.464 376.904C371.032 377.576 370.104 378.12 369.144 378.12C367.592 378.12 366.664 376.856 366.664 375.144C366.664 373.432 367.592 372.152 369.144 372.152C370.104 372.152 371.032 372.728 371.464 373.4V376.904ZM378.523 379.192C380.875 379.192 382.347 377.368 382.347 375.128C382.347 372.888 380.875 371.08 378.523 371.08C376.171 371.08 374.699 372.888 374.699 375.128C374.699 377.368 376.171 379.192 378.523 379.192ZM378.523 378.12C376.875 378.12 375.947 376.712 375.947 375.128C375.947 373.56 376.875 372.152 378.523 372.152C380.171 372.152 381.083 373.56 381.083 375.128C381.083 376.712 380.171 378.12 378.523 378.12ZM383.936 375.128C383.936 377.432 385.488 379.192 387.792 379.192C389.2 379.192 390.032 378.616 390.624 377.848L389.824 377.112C389.312 377.8 388.656 378.12 387.856 378.12C386.208 378.12 385.184 376.84 385.184 375.128C385.184 373.416 386.208 372.152 387.856 372.152C388.656 372.152 389.312 372.456 389.824 373.16L390.624 372.424C390.032 371.656 389.2 371.08 387.792 371.08C385.488 371.08 383.936 372.84 383.936 375.128ZM397.602 379H398.802V371.272H397.602V376.952C397.154 377.576 396.258 378.12 395.314 378.12C394.274 378.12 393.586 377.72 393.586 376.36V371.272H392.386V376.728C392.386 378.408 393.234 379.192 394.85 379.192C396.002 379.192 397.01 378.584 397.602 377.912V379ZM410.606 379H411.806V373.416C411.806 371.864 411.054 371.08 409.646 371.08C408.526 371.08 407.486 371.816 407.054 372.52C406.83 371.72 406.158 371.08 404.974 371.08C403.838 371.08 402.798 371.896 402.478 372.392V371.272H401.278V379H402.478V373.352C402.894 372.728 403.726 372.152 404.51 372.152C405.518 372.152 405.934 372.776 405.934 373.752V379H407.134V373.336C407.534 372.728 408.382 372.152 409.182 372.152C410.174 372.152 410.606 372.776 410.606 373.752V379ZM413.832 375.128C413.832 377.544 415.48 379.192 417.768 379.192C419.032 379.192 420.072 378.776 420.84 378.008L420.264 377.224C419.656 377.848 418.76 378.2 417.88 378.2C416.216 378.2 415.192 376.984 415.096 375.528H421.352V375.224C421.352 372.904 419.976 371.08 417.64 371.08C415.432 371.08 413.832 372.888 413.832 375.128ZM417.624 372.072C419.384 372.072 420.152 373.496 420.168 374.648H415.096C415.16 373.464 415.976 372.072 417.624 372.072ZM428.592 379H429.792V373.576C429.792 371.896 428.944 371.08 427.328 371.08C426.176 371.08 425.12 371.752 424.576 372.392V371.272H423.376V379H424.576V373.352C425.024 372.728 425.92 372.152 426.864 372.152C427.904 372.152 428.592 372.584 428.592 373.944V379ZM434.22 379.192C434.924 379.192 435.356 378.984 435.66 378.696L435.308 377.8C435.148 377.976 434.828 378.12 434.492 378.12C433.964 378.12 433.708 377.704 433.708 377.128V372.328H435.276V371.272H433.708V369.16H432.508V371.272H431.228V372.328H432.508V377.384C432.508 378.536 433.084 379.192 434.22 379.192ZM436.379 377.976C437.163 378.808 438.235 379.192 439.499 379.192C441.499 379.192 442.539 378.152 442.539 376.856C442.539 375.144 440.987 374.76 439.643 374.456C438.635 374.216 437.755 373.976 437.755 373.224C437.755 372.536 438.411 372.056 439.467 372.056C440.459 372.056 441.307 372.472 441.771 373.032L442.331 372.2C441.707 371.576 440.779 371.08 439.467 371.08C437.627 371.08 436.587 372.104 436.587 373.304C436.587 374.904 438.075 375.256 439.387 375.56C440.427 375.816 441.371 376.088 441.371 376.936C441.371 377.688 440.731 378.216 439.547 378.216C438.491 378.216 437.515 377.704 437.003 377.112L436.379 377.976Z" fill="#4F4F4F"/>
<rect x="207" y="298" width="313" height="41" fill="white"/>
<rect x="207" y="394" width="313" height="41" fill="white"/>
</g>
<defs>
<clipPath id="clip0_134_73123">
<rect width="736" height="566" fill="white"/>
</clipPath>
</defs>
</svg>
